<?xml version="1.0" encoding="UTF-8" standalone="no"?>
<!-- Created with Inkscape (http://www.inkscape.org/) -->

<svg
   width="210mm"
   height="297mm"
   viewBox="0 0 210 297"
   version="1.1"
   id="svg434"
   xml:space="preserve"
   inkscape:version="1.2.2 (732a01da63, 2022-12-09)"
   sodipodi:docname="Baldr.svg"
   xmlns:inkscape="http://www.inkscape.org/namespaces/inkscape"
   xmlns:sodipodi="http://sodipodi.sourceforge.net/DTD/sodipodi-0.dtd"
   xmlns="http://www.w3.org/2000/svg"
   xmlns:svg="http://www.w3.org/2000/svg"><sodipodi:namedview
     id="namedview436"
     pagecolor="#ffffff"
     bordercolor="#000000"
     borderopacity="0.25"
     inkscape:showpageshadow="2"
     inkscape:pageopacity="0.0"
     inkscape:pagecheckerboard="0"
     inkscape:deskcolor="#d1d1d1"
     inkscape:document-units="mm"
     showgrid="false"
     inkscape:zoom="1.6819304"
     inkscape:cx="367.43494"
     inkscape:cy="561.25984"
     inkscape:window-width="2560"
     inkscape:window-height="1494"
     inkscape:window-x="-11"
     inkscape:window-y="-11"
     inkscape:window-maximized="1"
     inkscape:current-layer="layer1" /><defs
     id="defs431" /><g
     inkscape:label="레이어 1"
     inkscape:groupmode="layer"
     id="layer1"><path
       style="fill:#000000;stroke-width:1.47066"
       d="m -69.953456,-148.70884 -4.319503,4.50814 -0.36352,95.431184 L -75,46.661718 l 4.557626,12.595587 c 4.208612,11.631148 5.204514,13.093347 13.006312,19.096711 8.362252,6.434583 8.490374,6.648863 12.516784,20.927759 2.23743,7.934635 4.69625,15.205655 5.46409,16.157805 0.89274,1.10707 0.74277,3.91156 -0.41577,7.77917 -1.52662,5.09534 -1.42774,7.25506 0.62755,13.71083 1.3418,4.21449 4.003109,9.60332 5.914039,11.97509 l 3.4744,4.31233 7.02907,-4.11928 7.02912,-4.11934 8.5792001,2.59756 c 8.3428499,2.52602 8.7914699,2.5169 16.2874498,-0.33128 l 7.7083001,-2.9289 9.46371,4.29104 c 8.21984,3.72703 9.74091,4.01379 11.573239,2.18145 3.13667,-3.13666 5.13798,-14.05372 4.03991,-22.03766 -0.74427,-5.41167 -0.3763,-7.93347 1.59621,-10.94423 1.4099,-2.15172 4.0716,-10.897 5.91489,-19.433945 3.32176,-15.383854 3.41837,-15.580564 10.88066,-22.152777 6.04294,-5.322125 8.24213,-8.603871 11.14118,-16.624993 L 75,49.600785 V -46.854868 C 75,-142.00346 74.9611,-143.37761 71.9387,-148.26374 L 68.87745,-153.217 H 1.621971 -65.633563 Z m 139.257966,1.00678 c 1.79959,2.29468 1.75707,2.36956 -0.39243,0.69052 -1.89469,-1.48003 -16.27155,-1.79485 -67.165649,-1.47063 l -64.755031,0.41242 -3.793899,3.5654 -3.793899,3.56533 -0.351848,64.085173 -0.351848,64.085175 -0.399094,-64.612395 -0.399095,-64.612383 3.967489,-4.14113 3.967488,-4.14113 H 1.561391 c 60.845559,0 65.874539,0.19121 67.743119,2.57365 z m -123.723463,3.60314 c 0,1.3528 0.403542,1.36098 1.729781,0.0333 1.263206,-1.26321 2.254995,-1.29395 3.676671,-0.11395 1.070774,0.88862 1.94667,1.03831 1.946392,0.33239 -7.22e-4,-2.11036 110.194439,-0.99579 112.768649,1.14065 1.66758,1.38399 2.04967,4.70085 1.68287,14.60889 -0.26125,7.05019 -0.97089,12.51549 -1.57754,12.14514 -0.60664,-0.37019 -1.10295,0.35852 -1.10295,1.6195 0,1.26104 -0.49637,2.32653 -1.10302,2.36783 -0.60664,0.0389 -11.9103,0.428 -25.11927,0.859 l -24.016209,0.78401 1.68482,-3.14812 c 0.92664,-1.73145 2.63041,-3.51098 3.78611,-3.95443 1.15576,-0.44356 1.71533,-1.43095 1.24353,-2.19434 -0.51304,-0.83037 -1.69148,-0.69608 -2.93284,0.33406 -1.74974,1.45213 -2.10242,0.1373 -2.24933,-8.38493 -0.0962,-5.55885 -0.0667,-10.93428 0.0645,-11.94535 0.13118,-1.01108 -0.83532,-1.83834 -2.14794,-1.83834 -2.03294,0 -2.31497,1.63773 -1.90281,11.05013 0.36074,8.23818 0.0278,10.87426 -1.3074,10.35888 -3.4411601,-1.32802 -3.6367101,2.36865 -0.31238,5.90714 l 3.35178,3.56779 H -8.8390089 -31.422479 l 5.67576,-5.04949 c 4.84611,-4.31133 5.39623,-5.38621 3.76372,-7.35328 -2.61885,-3.15552 -4.88102,-2.90122 -3.82375,0.42966 0.50081,1.57815 -0.0789,3.51926 -1.3716,4.59203 -1.92143,1.59471 -2.2392,1.22535 -2.2392,-2.60295 0,-3.15156 1.29527,-5.55119 4.41199,-8.17375 2.42664,-2.04183 4.412,-4.20889 4.412,-4.8156 0,-2.25699 -6.48962,-7.91073 -9.08035,-7.91073 -2.42903,0 -2.68494,1.47193 -2.68494,15.44194 v 15.442 H -49.271523 -66.18418 v -13.11569 c 0,-7.21365 -0.401874,-14.16251 -0.892683,-15.44199 -0.629213,-1.63963 -0.03335,-2.32626 2.025933,-2.32626 1.605216,0 3.742484,-0.99268 4.749391,-2.20602 2.191907,-2.64109 5.882698,-2.9179 5.882698,-0.44134 z m 39.707954,8.61665 c 0,3.3097 -0.60998,5.59243 -1.36904,5.1233 -0.753,-0.46524 -1.83861,-0.0862 -2.41252,0.84222 -0.57385,0.92859 0.0445,2.29584 1.36904,3.03838 1.67259,0.93599 2.41252,3.35746 2.41252,7.89501 0,3.59968 0.66179,6.54492 1.47065,6.54492 0.80886,0 1.47065,-2.64719 1.47065,-5.88269 0,-5.65257 1.8913001,-7.87744 3.4379901,-4.0443 0.49303,1.22157 0.78073,1.07355 0.85794,-0.44134 0.0639,-1.2537 -0.647,-3.04257 -1.57959,-3.97516 -0.93265,-0.93264 -1.7598501,-4.70469 -1.8383401,-8.38242 -0.18509,-8.67262 -3.8193,-9.35586 -3.8193,-0.71803 z m 11.20739,8.05647 c 0.0978,7.71453 0.52027,14.36928 0.93937,14.78833 0.41911,0.41911 2.59378,-0.93581 4.83271,-3.01083 2.2389899,-2.07495 3.5865699,-4.25696 2.9947099,-4.84882 -0.59191,-0.59191 -1.7212199,0.0767 -2.5096199,1.48527 -3.30270999,5.90164 -3.9078,3.08057 -2.76276,-12.88057 0.52526999,-7.31971 0.0956,-9.55931 -1.8335,-9.55958 -1.35459,-2.3e-4 -1.79165,3.69072 -1.66091,14.0262 z m 25.55922,-11.19747 c 0,1.55568 1.73662,4.89234 3.8591,7.41481 3.11449,3.70129 3.69724,5.58403 3.02006,9.75696 -0.89797,5.53351 -0.0334,9.41306 2.10219,9.41306 0.72232,0 1.31329,-4.03018 1.31329,-8.95593 0,-6.98899 0.61793,-9.49216 2.81356,-11.39764 3.928239,-3.40915 5.445639,-9.05972 2.432859,-9.05972 -1.463419,0 -2.305069,1.31073 -2.305069,3.58984 0,1.97446 -0.76512,4.06276 -1.70021,4.64067 -1.21546,0.75122 -1.43563,-0.27236 -0.77212,-3.58985 0.70581,-3.52914 0.40854,-4.64066 -1.24109,-4.64066 -1.33341,0 -2.16923,1.41668 -2.16923,3.67667 0,2.02215 -0.66184,3.67667 -1.4707,3.67667 -1.46236,0 -2.03644,-2.00326 -1.58042,-5.515 0.13118,-1.01108 -0.78302,-1.83834 -2.03177,-1.83834 -1.25982,0 -2.27045,1.25904 -2.27045,2.82846 z M 69.67937,56.881747 c -3.00383,8.293992 -5.45915,12.247018 -10.50486,16.912643 -3.62164,3.348777 -7.14518,6.444704 -7.83014,6.879763 -0.68497,0.43522 -2.58689,7.711243 -4.22646,16.169364 -1.66558,8.592093 -4.2065,17.035763 -5.75791,19.134173 -2.31897,3.13655 -2.65231,5.49549 -2.02182,14.30741 0.73694,10.29907 -1.25142,19.45456 -4.225009,19.45456 -1.76041,0 -1.6364,-2.55503 0.17843,-3.67666 2.06967,-1.27916 1.88008,-20.89797 -0.21456,-22.19253 -1.18139,-0.73015 -1.39961,0.0962 -0.72993,2.76443 0.52527,2.09323 0.29071,4.21638 -0.52082,4.71814 -0.81187,0.50192 -1.4761,0.21122 -1.4761,-0.64522 0,-0.85661 -0.68507,-1.55747 -1.52239,-1.55747 -1.04943,0 -1.04943,0.88379 0,2.84469 0.83732,1.56452 1.52239,4.28893 1.52239,6.05417 0,2.53135 -0.62148,3.01788 -2.94129,2.30268 -1.61778,-0.49859 -4.26498,-1.31496 -5.8827,-1.81372 -5.0461,-1.55579 -3.20037,1.48127 3.08037,5.06856 8.02624,4.58425 6.39618,5.65557 -2.22921,1.46503 -6.79266,-3.30014 -6.92834,-3.3067 -14.28536,-0.69374 -10.31376,3.66311 -10.42615,2.22008 -0.1511901,-1.94328 C 19.705121,138.4782 23.530591,135.37344 29.933001,126.20907 39.48987,112.52931 43.0352,104.89383 46.32167,90.913133 48.67716,80.892873 49.65005,79.161205 56.94931,71.996742 63.86993,65.203969 65.38171,62.675672 67.85109,53.764481 70.45821,44.35636 70.71018,38.605686 70.63025,-9.6763052 70.47406,-104.0729 70.74642,-134.74589 71.78006,-139.24576 c 0.55751,-2.42658 1.19501,38.27407 1.41662,90.445834 l 0.40299,94.857774 z M -26.426029,-135.47505 c 1.20578,2.253 1.17271,3.57963 -0.1284,5.14732 -2.15117,2.59194 -4.94805,2.81956 -3.36312,0.27348 0.62943,-1.01108 0.95204,-3.32738 0.71687,-5.14732 -0.53361,-4.1314 0.64761,-4.24796 2.77459,-0.27348 z m -36.816914,29.49934 c 0,1.07566 0.866836,0.94754 2.488282,-0.36741 1.69076,-1.37149 2.134322,-1.42918 1.38388,-0.1801 -0.856553,1.42579 2.490783,1.83834 14.914573,1.83834 8.810429,0 16.355149,0.33628 16.766029,0.74705 0.41076,0.41077 0.34517,3.21966 -0.14619,6.241824 -0.68524,4.215726 -1.9146,5.977964 -5.28161,7.570672 -7.489909,3.543097 -26.097722,18.225092 -28.538702,22.517687 -3.318043,5.834944 -4.512881,5.090945 -4.631998,-2.884267 -0.05725,-3.842136 -0.315718,-12.776397 -0.574018,-19.85398 -0.287926,-7.889062 0.09783,-12.868286 0.997014,-12.868286 0.806693,0 1.085726,-0.99273 0.620153,-2.20602 -0.465796,-1.2133 -0.205662,-2.20597 0.57802,-2.20597 0.783459,0 1.424511,0.74282 1.424511,1.65074 z m 27.554974,8.190824 c -2.579609,0.672789 -8.077769,9.296951 -5.900429,9.255151 0.62738,-0.0111 3.78795,-2.303468 7.023399,-5.092065 5.48638,-4.728656 5.19451,-5.810654 -1.12297,-4.163086 z m -21.739756,12.344347 c -2.456321,4.589746 -0.796021,4.897685 3.942087,0.73126 4.032577,-3.546037 4.073765,-3.707627 0.956715,-3.752097 -1.830666,-0.0278 -3.97616,1.296889 -4.898802,3.020837 z m 71.290396,-19.151851 c 1.13169,1.16755 -0.23735,3.24584 -4.8645101,7.384073 -3.54171,3.167517 -6.8506899,5.758685 -7.3533399,5.758135 -0.50248,-6.1e-4 -1.00791001,-1.633119 -1.12291001,-3.627927 -0.22066999,-3.823966 3.82890991,-6.312631 7.04111991,-4.327385 0.99813,0.616869 1.3169,0.419659 0.76501,-0.47303 -0.52027,-0.841866 0.53583,-2.035316 2.3464301,-2.652136 2.40135,-0.81792 0.50582,-1.38766 -7.00216,-2.10492 -5.66209,-0.54083 -10.9190199,-0.44689 -11.6820799,0.209 -0.82253,0.70703 0.22567,2.87615 2.57366,5.327125 2.1785699,2.274008 3.9610999,4.719425 3.9610999,5.434355 0,1.245078 -2.8646399,-1.551189 -7.1657499,-6.99487 -1.6940901,-2.14411 -1.6999901,-2.93824 -0.0389,-4.94233 1.60994,-1.93983 3.76216,-2.22148 11.4734699,-1.50138 5.2204699,0.48747 10.20048,1.61755 11.0667,2.51124 z m 9.66359,4.864896 c 0,8.217782 -1.29845,10.688379 -7.70047,14.652035 -3.84076,2.377828 -4.1587,2.356428 -6.9857101,-0.470799 -1.62895,-1.629009 -3.6376,-2.961807 -4.46363,-2.961807 -0.8259799,0 1.80893,-3.345777 5.8554001,-7.435093 4.04648,-4.089272 7.29115,-7.894622 7.21033,-8.456302 -0.30071,-2.09035 0.27458,-2.60678 3.14278,-2.82289 2.59573,-0.19566 2.9413,0.68507 2.9413,7.494626 z M 40.43891,-106.1558 c 0.49971,0.80886 6.43304,1.47064 13.1848,1.47064 h 12.27582 l 0.78291,6.985654 c 0.43077,3.842136 0.79074,13.272766 0.80024,20.956999 0.0167,14.557985 -0.19343,14.810335 -5.45214,6.505783 -1.4841,-2.343708 -19.45997,-16.055584 -24.35171,-18.575381 -3.481129,-1.793148 -3.793289,-2.347158 -1.761969,-3.126667 1.45581,-0.558619 2.100139,-0.35073 1.57031,0.506369 -0.49414,0.79964 0.133399,1.453859 1.394279,1.453859 3.42076,0 2.77804,-2.346148 -1.582209,-5.775914 -4.98168,-3.918626 -6.59995,-3.850976 -6.24661,0.26069 0.53306,6.201413 -0.11728,8.385481 -2.25216,7.566172 -2.38072,-0.913579 -9.68621,8.888901 -9.68621,12.996847 0,1.429958 -0.8272,2.610067 -1.83833,2.622457 -1.32552,0.0167 -1.37043,0.32406 -0.1612,1.102959 1.79865,1.158709 3.40826,16.524943 1.73078,16.523383 -1.67208,-10e-4 -2.93173,-5.692144 -1.94689,-8.795191 0.50804,-1.601428 0.2996,-4.027506 -0.46357,-5.391374 -2.18257,-3.900066 0.5883,-10.802779 6.9682,-17.358983 5.62601,-5.781474 5.75869,-6.152614 4.4947,-12.575247 -0.71637,-3.639925 -1.33129,-7.114385 -1.36653,-7.721025 -0.0967,-1.66592 12.862179,-1.32329 13.907269,0.36797 z m 8.08867,17.514055 c 0,3.256286 3.75116,6.804943 5.02114,4.750005 1.21591,-1.967288 -0.42577,-5.701714 -2.92884,-6.662263 -1.34369,-0.51582 -2.0923,0.168419 -2.0923,1.912258 z m -57.3956189,-9.483091 c 2.35682,3.425537 5.9784099,7.337713 8.04786991,8.693691 4.55200999,2.982587 10.54670989,11.845808 11.97527999,17.705653 1.00835,4.136135 0.68574,3.996006 -9.48684,-4.120556 -5.7919199,-4.621266 -11.2169999,-7.978162 -12.05576,-7.459783 -1.03081,0.63711 -0.97128,1.609719 0.18398,3.001377 0.9397601,1.132359 2.3977901,1.633009 3.2399501,1.112519 0.84221,-0.520269 1.10012,-0.24846 0.57313,0.60397 -0.52694,0.852669 3.6724399,5.655694 9.3320799,10.673329 9.47094,8.396651 10.29025,9.58654 10.29025,14.945575 v 5.822544 l -6.6184101,-4.871005 c -3.6401499,-2.679098 -7.9379199,-5.591935 -9.5505899,-6.472994 -1.6127199,-0.881069 -2.4398099,-2.144658 -1.8379499,-2.807997 0.60187,-0.663289 -0.0167,-0.809029 -1.37181,-0.32406 -2.48801,0.890069 -6.0480101,-1.974898 -5.3470901,-4.303095 0.20844,-0.69181 -0.76901,-2.973537 -2.17173,-5.070445 -3.46734,-5.183445 -2.84636,-14.563655 0.96438,-14.567715 2.26484,-0.003 1.80188,-1.095949 -2.64747,-6.253264 -7.78907,-9.028528 -8.18594,-9.599498 -8.18594,-11.775618 0,-1.39171 1.52879,-1.79425 5.19084,-1.36676 4.12941,0.48192 6.06718,1.87964 9.4761101,6.834354 z m -13.7912201,8.373582 c 0.59542,0.963329 0.40854,1.301838 -0.43189,0.782399 -0.8147,-0.503589 -2.73691,0.0333 -4.27159,1.196669 -1.53468,1.161659 -3.94848,2.133158 -5.36398,2.158888 -1.41551,0.0278 -2.57366,0.588529 -2.57366,1.250588 0,0.66212 -4.301719,4.298436 -9.559319,8.080652 l -9.55931,6.876823 v 9.72466 c 0,8.039972 -0.382419,9.578041 -2.206025,8.878121 -1.213292,-0.465789 -2.20597,-0.205659 -2.20597,0.57802 0,0.783459 0.661785,1.424508 1.470646,1.424508 0.808861,0 1.470647,2.316308 1.470647,5.147315 0,5.001235 -2.03894,7.020503 -3.341222,3.308977 -0.354627,-1.011069 -0.658116,-0.0167 -0.674069,2.206028 -0.01667,2.465157 0.760558,4.044305 1.993138,4.044305 1.112184,0 2.022153,0.66184 2.022153,1.470699 0,0.808859 -0.992678,1.470639 -2.20597,1.470639 -5.921717,0 0.528606,7.905962 11.039632,13.530576 2.01682,1.079269 5.54341,3.222097 7.83687,4.761885 3.517589,2.361658 4.376699,2.472718 5.492439,0.709869 1.20735,-1.907478 2.00114,-0.856939 1.52201,2.014198 -0.10672,0.6394396 0.47413,2.4114078 1.29122,3.9378063 2.67282,4.9941749 0.33962,7.4002525 -7.176589,7.4002525 -5.75441,0 -16.315792,2.0532179 -26.623603,5.1758247 -3.481738,1.054769 -3.168743,-51.0516385 0.345734,-57.5656015 1.36298,-2.526238 2.094913,-4.976505 1.626449,-5.444965 -0.468575,-0.468569 0.225672,-1.929268 1.54285,-3.246336 1.317012,-1.317009 2.01565,-3.007707 1.552523,-3.757037 -0.463017,-0.749389 0.188986,-1.758078 1.44869,-2.241547 1.259927,-0.48358 1.936998,-1.451469 1.504609,-2.151108 -0.938595,-1.518609 14.347948,-13.736726 24.060177,-19.230721 8.11668,-4.591415 8.60115,-4.712535 9.97324,-2.492387 z m -36.055629,32.985236 c 0.07059,1.713269 0.419105,2.061728 0.888569,0.88851 0.424663,-1.061599 0.372414,-2.330088 -0.116171,-2.818778 -0.488585,-0.488589 -0.836264,0.38019 -0.772454,1.930268 z m 39.546819,-25.123864 c 0,0.808919 -0.6415,0.478029 -1.42562,-0.735319 -0.78408,-1.213289 -1.42563,-2.867758 -1.42563,-3.676667 0,-0.808869 0.64155,-0.478029 1.42563,0.73537 0.78412,1.213298 1.42562,2.867757 1.42562,3.676616 z m -7.30827,0 c 0,1.213349 -0.99267,2.206028 -2.20602,2.206028 -3.82731,0 -2.587,-2.898387 1.83833,-4.295876 0.20233,-0.0639 0.36797,0.876559 0.36797,2.089848 z m 7.73816,9.73634 c -0.3852,3.332877 -1.45631,9.092291 -2.38073,12.798747 -1.41695,5.681424 -2.26172,6.769203 -5.3825,6.930893 -10.68522,0.553619 -17.637749,6.635253 -17.593229,15.389304 0.0278,5.223745 6.24611,15.484855 9.237599,15.240335 1.35653,-0.11061 2.07568,0.43078 1.5981,1.203229 -0.47747,0.772739 -1.7728,1.057769 -2.87837,0.633549 -2.936409,-1.126799 -3.907909,1.405059 -1.35281,3.525597 1.2044,0.999569 2.17968,2.563597 2.16728,3.475616 -0.0167,1.125029 -0.37019,1.162659 -1.10301,0.11673 -0.59425,-0.847719 -4.059369,-3.260897 -7.700249,-5.362595 -3.640872,-2.101687 -7.942588,-5.352974 -9.55931,-7.224992 l -2.93957,-3.403637 4.411995,2.728067 4.411996,2.728018 -3.623867,-3.951036 c -3.156015,-3.440937 -3.379297,-4.342566 -1.729725,-6.983973 1.116186,-1.787308 1.226521,-2.620348 0.268472,-2.028378 -1.132639,0.699969 -1.425846,-1.148259 -0.967276,-6.096474 0.361853,-3.905506 0.713589,-8.920861 0.781458,-11.145279 0.113947,-3.733146 0.604311,-4.055976 6.373728,-4.196326 l 6.250329,-0.151749 -5.515006,-1.464749 c -3.033229,-0.805639 -5.515008,-2.131658 -5.515008,-2.946687 0,-0.815079 0.958994,-1.113899 2.131098,-0.664169 1.403334,0.538609 1.859903,0.11117 1.336967,-1.251699 -0.820256,-2.137548 2.027044,-3.220657 10.503249,-3.995386 2.426629,-0.22179 4.494759,-1.230529 4.595859,-2.241598 0.10117,-1.011139 0.26681,-2.690217 0.36741,-3.731426 0.209,-2.151988 6.06652,-3.075907 6.06652,-0.956879 0,0.758619 0.66178,1.379269 1.47065,1.379269 0.80886,0 1.39232,-0.49637 1.2965,-1.102959 -0.39521,-2.503338 0.31627,-3.309037 2.92256,-3.309037 2.35265,0 2.64764,0.872559 2.04844,6.059674 z m -32.73948,19.028451 c 0,0.856549 0.661841,1.148429 1.470702,0.648499 0.808861,-0.499699 1.470646,-1.200779 1.470646,-1.557468 0,-0.35685 -0.661785,-0.6485 -1.470646,-0.6485 -0.808861,0 -1.470702,0.70086 -1.470702,1.557469 z m 8.280711,28.561241 c 0.82998,2.162838 0.53083,2.545807 -1.40739,1.801978 -1.3537,-0.519709 -2.461326,-0.38075 -2.461326,0.3085 0,1.731048 5.188506,2.934007 7.225276,1.675188 1.13297,-0.700189 0.69297,-1.913648 -1.37115,-3.781606 -2.96442,-2.682767 -3.01338,-2.682877 -1.98541,-0.004 z M 42.64494,-72.163602 c 0,1.520728 -0.99318,1.588598 -5.515009,0.37686 -4.87006,-1.305169 -4.02857,-3.081247 1.103019,-2.328138 2.42658,0.35629 4.41199,1.234239 4.41199,1.951338 z m -79.415909,1.303729 c -2.851309,1.842608 -4.411999,1.842608 -4.411999,0 0,-0.808859 1.48905,-1.460529 3.30898,-1.448139 2.675769,0.0167 2.886879,0.29515 1.103019,1.448139 z m 93.360539,-0.0445 c 0.98162,1.588258 -6.19819,3.867766 -7.64027,2.425747 -0.50137,-0.501369 0.56101,-0.911969 2.36127,-0.911969 1.80771,0 2.86631,-0.658509 2.36433,-1.470698 -0.4997,-0.808859 -0.24735,-1.470649 0.56173,-1.470649 0.80887,0 1.86769,0.64239 2.35294,1.427569 z m -70.320729,3.612856 c -0.49025,1.276989 1.89614,4.534495 6.0929701,8.317892 3.79418,3.420366 12.5972198,11.703068 19.5622999,18.406021 10.53304,10.13665 13.25494,12.041908 16.17728,11.323649 4.70331,-1.155979 6.72797,-2.885367 9.21531,-7.871322 2.472939,-4.957105 0.280699,-9.406561 -4.20645,-8.536942 -3.56578,0.691019 -4.55418,3.819346 -1.4055,4.448396 2.20741,0.440779 2.15783,0.861939 -0.48525,4.120116 -2.49201,3.071806 -3.2987,3.334606 -5.25415,1.711718 -1.27055,-1.054489 -2.97114,-1.508729 -3.77901,-1.009409 -0.9058,0.559789 -1.28316,-1.161929 -0.98445,-4.491256 0.2946,-3.284296 1.51678,-5.976744 3.12,-6.873983 3.93453,-2.201847 12.44046,-3.868316 12.44046,-2.437307 0,0.686909 1.654519,2.903437 3.676679,4.925595 3.98149,3.981486 4.77996,10.330699 1.79159,14.246655 -2.18524,2.863467 -10.344609,7.211653 -13.532749,7.211653 -4.63989,0 -16.85346,-7.448662 -28.83586,-17.585932 -6.7328599,-5.696204 -12.83778,-10.35672 -13.56638,-10.35672 -1.2547,0 21.4284899,25.621234 24.19914,27.333613 3.08609,1.907318 7.17536,12.492317 6.25022,16.1783733 -1.12408,4.4788655 -11.3555801,12.3732575 -16.03621001,12.3732575 -3.99149999,0 -10.50346989,-4.91847502 -11.76199999,-8.883741 -0.51027,-1.6083284 -1.60828,-2.5038975 -2.43965,-1.990128 -0.90397,0.5587294 -0.8341,-0.3312897 0.17398,-2.2150277 0.92698,-1.7320581 1.32846,-3.7266961 0.89224,-4.4325651 -0.43634,-0.70591 0.99256,-1.731609 3.1751901,-2.279388 2.18262,-0.54806 4.86156,-2.271168 5.9531199,-3.829636 1.84206,-2.629908 2.29613,-2.672598 6.31609,-0.59375 2.3822799,1.231909 4.3313999,2.576988 4.3313999,2.989087 0,0.41244 -1.38033,0.0111 -3.06731,-0.892229 -3.9698799,-2.124598 -5.3131199,-0.749559 -2.2550999,2.308408 4.0728699,4.072866 1.9003099,9.5243402 -3.79574,9.5243402 -3.3856899,0 -3.4330399,-3.7779462 -0.0734,-5.8637342 2.35276999,-1.460758 2.32119999,-1.560418 -0.36797,-1.161099 -3.8359199,0.56974 -4.8470499,6.9437933 -1.49082,9.3979408 3.62198,2.6484173 10.8250199,-0.2284497 11.9673899,-4.7801751 1.56442,-6.2330937 -0.63227,-12.0146277 -6.9747599,-18.3571117 -5.03826,-5.038255 -6.5746099,-5.847174 -8.5022699,-4.476685 -5.6944901,4.048636 -10.5734501,6.104194 -16.1522101,6.805163 -5.12436,0.643829 -6.71118,0.12117 -10.95898,-3.608246 -2.73185,-2.398568 -5.262539,-4.065536 -5.623789,-3.704297 -0.36129,0.3613 -0.72181,-1.637778 -0.8013,-4.442225 -0.0928,-3.278237 0.418,-4.751445 1.43041,-4.125676 1.00146,0.618929 1.22229,0.0556 0.60653,-1.550238 -0.53583,-1.395719 -0.36408,-2.150108 0.38353,-1.687979 0.74372,0.45968 1.767909,0.16341 2.275949,-0.658949 0.50804,-0.822039 0.18399,-1.494609 -0.72048,-1.494609 -0.904359,0 -1.229799,-0.670679 -0.72315,-1.490378 0.86378,-1.397719 13.38567,-1.043979 14.84909,0.419659 0.36908,0.36908 1.26699,2.747978 1.99486,5.285945 1.12458,3.921126 0.86984,4.857275 -1.6952,6.230034 -2.44976,1.311069 -3.58568,1.048489 -6.02744,-1.393269 -2.51029,-2.510287 -2.69444,-3.387516 -1.11141,-5.294944 2.19714,-2.647368 1.08312,-2.933727 -2.97147,-0.76378 -1.56453,0.83732 -2.84463,2.775478 -2.84463,4.306936 0,3.745866 4.24952,7.783662 7.05769,6.706053 1.24658,-0.478579 2.65031,-0.26902 3.11938,0.4658 1.3741,2.151328 7.66862,-0.938819 8.51645,-4.180986 0.42244,-1.615548 1.21807,-2.937397 1.76796,-2.937397 1.37299,0 1.11647,-6.192634 -0.35129,-8.480301 -0.65717,-1.024249 -1.71533,-1.540629 -2.35143,-1.147479 -0.63616,0.392979 -0.83682,-0.958049 -0.44579,-3.002657 0.50415,-2.637688 1.37966,-3.460727 3.01405,-2.833517 1.94912,0.747939 1.92022,0.460239 -0.18787,-1.868849 -2.45927,-2.717447 -3.41465,-10.666819 -1.51078,-12.570687 1.77653,-1.776518 3.76194,-1.021359 2.94074,1.118629 z m 39.83108,-1.085339 c -1.41551,0.37019 -2.57366,1.285829 -2.57366,2.035388 0,0.749549 -0.641,1.362809 -1.42451,1.362809 -0.78346,0 -1.04354,-0.992679 -0.57797,-2.205968 0.4658,-1.213289 2.26478,-2.129258 3.99817,-2.035438 2.48601,0.13452 2.60807,0.31238 0.57797,0.843209 z m 16.545019,0.0761 c -1.21329,0.47191 -3.01222,1.908598 -3.99756,3.192867 -1.625999,2.119258 -1.795919,2.108528 -1.838339,-0.11617 -0.05,-2.538197 2.022769,-3.934636 5.835899,-3.934636 1.96084,0 1.96084,0.095 0,0.857829 z m 14.7267,4.424946 c 0.0111,1.415508 0.4191,4.062696 0.90685,5.882634 0.7301,2.724347 0.29349,3.309036 -2.47116,3.309036 -4.07471,0 -2.58422,1.928938 1.73645,2.247208 2.74169,0.20177 2.99182,-0.38353 2.31603,-5.422394 -1.1974,-8.926981 0.87556,-6.557374 4.40883,5.039864 3.56289,11.694519 4.55184,32.390938 2.00447,41.948628 -0.85494,3.2075368 -0.94604,7.6777822 -0.22122,10.85329902 0.9874,4.32583558 0.82981,5.24486468 -0.79263,4.62232528 -1.11374,-0.4274395 -2.02505,-1.6989882 -2.02505,-2.8257271 0,-1.12674886 -0.70086,-2.04866793 -1.55746,-2.04866793 -0.85656,0 -1.19595,0.58490941 -0.75412,1.29977873 0.45246,0.7317692 -3.52681,0.961439 -9.10485,0.5258294 C 46.36825,1.1302239 41.69073,0.21964478 41.42326,-0.46737453 41.1559,-1.1544538 39.73628,-1.0739639 38.26874,-0.28839471 35.097941,1.4085936 31.828311,-1.6391933 32.596491,-5.5757194 32.865511,-6.954268 39.3727,-12.311683 47.05694,-17.481117 c 7.68418,-5.169495 14.21009,-10.08413 14.50197,-10.921569 0.60837,-1.745449 -8.14498,3.567056 -21.48763,13.041097 -5.055439,3.589626 -9.191679,5.9185436 -9.191679,5.175334 0,-0.743169 1.65452,-2.236707 3.67667,-3.318936 2.02216,-1.082219 3.676679,-2.517678 3.676679,-3.189857 0,-0.672179 0.99267,-1.222129 2.20596,-1.222129 1.2133,0 2.20603,-0.555289 2.20603,-1.234579 0,-0.679069 1.65446,-1.988468 3.67662,-2.909837 2.02221,-0.921359 3.68078,-2.847517 3.68573,-4.280365 0.005,-1.432849 0.99418,-4.494026 2.19819,-6.802603 1.20406,-2.308528 1.82271,-4.790296 1.37482,-5.514945 -0.44801,-0.724709 0.21733,-1.317629 1.47848,-1.317629 3.55227,0 2.7035,-2.678427 -1.01619,-3.206706 -2.77532,-0.39409 -3.29759,-1.359419 -3.23811,-5.984964 0.0656,-5.102565 -0.24346,-5.514945 -4.13113,-5.514945 -2.68099,0 -3.8402,0.58541 -3.20243,1.617389 0.67924,1.099009 -0.0333,1.065489 -2.21792,-0.1045 -2.54253,-1.360759 -4.640329,-1.237249 -9.998819,0.588579 -8.17971,2.787097 -7.72792,2.769037 -7.72792,0.30849 0,-1.327899 1.20512,-1.771688 3.57895,-1.317899 2.90044,0.55473 3.45445,0.16731 2.92217,-2.042268 -1.11079,-4.611535 1.4741,-6.481553 9.423529,-6.817233 4.18271,-0.17675 7.60519,-0.894679 7.60547,-1.595708 2.8e-4,-0.700969 1.32413,-0.928359 2.94185,-0.50526 1.61772,0.423 2.94135,0.16953 2.94135,-0.563839 0,-0.733099 0.99268,-1.332969 2.20597,-1.332969 1.21334,0 2.21508,1.158149 2.22609,2.573658 z m -14.35907,4.322775 c 1.41551,0.36964 3.73182,0.36964 5.14732,0 1.41557,-0.370189 0.25736,-0.672569 -2.57366,-0.672569 -2.83101,0 -3.98916,0.30238 -2.57366,0.672569 z m 15.80965,14.514966 c 0,1.261038 0.67262,1.877128 1.49466,1.369038 0.82209,-0.508039 1.11391,-1.539788 0.64855,-2.292788 -1.2607,-2.039827 -2.14321,-1.659468 -2.14321,0.92375 z m 1.00618,7.634202 c -0.35073,0.606649 -0.10561,2.426587 0.54528,4.044306 1.03298,2.567817 1.1964,2.427747 1.28661,-1.102959 0.10172,-3.989936 -0.58602,-5.094735 -1.83177,-2.941347 z M 21.771581,-49.497915 c -0.45302,0.45301 -1.27516,-0.36352 -1.82739,-1.813828 -0.79813,-2.095958 -0.62921,-2.264878 0.82326,-0.823249 1.00507,0.997569 1.45691,2.184288 1.00413,2.637077 z m 27.491329,-0.774229 c 0.4997,0.808859 0.24734,1.470638 -0.56174,1.470638 -0.80886,0 -1.87969,-0.661779 -2.37961,-1.470638 -0.49971,-0.808869 -0.24735,-1.470709 0.56179,-1.470709 0.80886,0 1.87963,0.66184 2.37956,1.470709 z m -0.73533,11.858978 c 0,3.107827 -0.71053,7.170743 -1.57898,9.028761 -2.13638,4.570795 -11.413379,11.494848 -15.202829,11.346888 -2.48712,-0.0973 -2.21297,-0.496919 1.43935,-2.100808 2.48134,-1.089499 6.702119,-4.027176 9.379499,-6.528243 4.4872,-4.191656 4.80748,-5.084505 4.09411,-11.413368 -0.42911,-3.804957 -1.81377,-7.626423 -3.10632,-8.571572 -1.28283,-0.937979 -1.85613,-2.181788 -1.27399,-2.763927 2.044,-2.043988 6.24916,5.359705 6.24916,11.002269 z m -25.736649,17.554252 c -0.4997,0.808859 -1.57069,1.470699 -2.37956,1.470699 -0.80886,0 -1.06165,-0.66184 -0.56178,-1.470699 0.4997,-0.808859 1.57075,-1.470648 2.37961,-1.470648 0.80886,0 1.06166,0.661789 0.56173,1.470648 z m -44.85527,2.377558 c 0,0.310159 -1.69354,0.563789 -3.76344,0.563789 -2.0699,0 -3.39286,-0.599639 -2.9399,-1.332579 0.7535,-1.219178 6.70334,-0.536939 6.70334,0.76879 z m 6.61796,-0.906859 c 0.49971,0.808859 -0.49303,1.470648 -2.20597,1.470648 -1.71321,0 -2.70589,-0.661789 -2.20602,-1.470648 0.4997,-0.80886 1.49266,-1.470699 2.20602,-1.470699 0.71337,0 1.7061,0.661839 2.20597,1.470699 z m 37.03597,4.687745 c -0.46968,1.173159 -0.81797,0.824699 -0.88857,-0.888569 -0.0639,-1.550299 0.28348,-2.418908 0.77246,-1.930208 0.48858,0.488579 0.54083,1.757118 0.11617,2.818777 z m -38.51856,1.232519 c -1.39972,4.4101052 -8.38538,14.6689948 -9.98871,14.6689948 -0.76422,0 -0.5475,-1.01429899 0.48136,-2.2539977 1.02887,-1.2396888 1.99898,-4.0523059 2.15589,-6.2503237 0.50526,-7.0793024 0.69497,-7.4586724 4.05459,-8.1057214 1.81994,-0.35074 3.51904,-0.72749 3.77578,-0.83765 0.2568,-0.110059 0.0389,1.140249 -0.47858,2.778698 z m -49.655529,69.631969 c 2.469606,8.147802 4.587808,11.696458 10.923628,18.300752 l 7.859883,8.193041 -7.353344,-5.705984 c -4.044306,-3.138337 -7.559728,-5.844514 -7.812081,-6.013824 -0.252352,-0.16953 -2.400792,-5.506044 -4.774348,-11.859428 -4.30633,-11.526928 -4.31489,-11.616028 -4.013012,-41.700218 l 0.302378,-30.148609 0.90152,29.41329 c 0.727486,23.735816 1.49288,31.364288 3.965265,39.52098 z m 38.637519,-65.2576038 c 0,0.8088592 -0.70086,1.4706485 -1.55747,1.4706485 -0.85661,0 -1.14848,-0.6617893 -0.64856,-1.4706485 0.4997,-0.8088592 1.20079,-1.4706482 1.55747,-1.4706482 0.35685,0 0.64856,0.661789 0.64856,1.4706482 z M 37.54142,27.461987 40.15666,39.566155 35.492261,44.37857 c -2.56538,2.646867 -4.41217,5.099845 -4.10395,5.451085 0.30793,0.351289 -2.65826,3.130446 -6.59212,6.175953 l -7.15257,5.537345 v -4.492916 c 0,-5.229634 -4.30822,-14.290685 -9.4144101,-19.8003 -2.94402,-3.176686 -3.35262,-4.613255 -2.32814,-8.185481 0.74043,-2.581718 0.68974,-4.332566 -0.12562,-4.332566 -2.4330899,0 -1.45731,-4.328996 2.32714,-10.32386 2.0322701,-3.219436 3.2748501,-5.8534537 2.7612501,-5.8534537 -0.51359,0 -0.11005,-0.9926789 0.89697,-2.2060277 3.59891,-4.3363956 4.81081,-2.3796676 3.87116,6.2503334 -1.01575,9.328741 1.11874,16.062974 2.38245,7.516643 0.40187,-2.718628 1.63201,-7.123613 2.73335,-9.78881 1.72778,-4.1810462 1.7026,-5.0353754 -0.18343,-6.2277641 -1.70565,-1.078439 -1.74601,-1.3869386 -0.18398,-1.4044986 1.49154,-0.0167 1.75457,-1.3412987 1.03164,-5.1948948 -1.86035,-9.9164895 0.90563,-8.0458015 7.18754,4.8610551 3.47929,7.1485628 7.50286,18.4443214 8.941269,25.1015744 z M 30.183191,-6.4362785 c -0.45301,0.4530096 -1.63951,9.5e-4 -2.63708,-1.004179 -1.44164,-1.4524185 -1.27272,-1.6213383 0.82325,-0.8232591 1.45042,0.5525094 2.26662,1.3745986 1.81383,1.8274381 z m -46.36489,3.3311066 c 0,1.6759183 1.73445,6.006694 3.85432,9.6240003 3.7971201,6.4792736 4.1341801,12.4845876 1.13886,20.2902696 -0.49247,1.283989 -0.24179,2.334588 0.55757,2.334588 2.2213701,0 4.9418201,-12.758618 4.0202401,-18.854471 -0.81409,-5.384715 -0.7988,-5.374375 3.0909199,2.090297 3.42593,6.574604 3.78173,8.521162 2.87865001,15.749205 -0.59264001,4.743325 -2.47427001,10.375059 -4.42877991,13.255146 -4.54251,6.693723 -7.1786401,15.064865 -6.0988601,19.367021 0.48413,1.929658 0.21622,3.918956 -0.59553,4.420715 -0.81181,0.50192 -1.47604,-0.451899 -1.47604,-2.118928 0,-1.990738 -2.92606,-5.185215 -8.52473,-9.30667 -8.41038,-6.191404 -8.53045,-6.383224 -8.95072,-14.301796 -0.23456,-4.414385 -1.12569,-9.33352 -1.9808,-10.931399 -1.1218,-2.096078 -1.0865,-3.061297 0.12674,-3.465726 0.92486,-0.30849 1.68158,-1.939278 1.68158,-3.624417 0,-1.685088 -0.41799,-2.645977 -0.9287,-2.135158 -0.51082,0.51082 -2.33075,0.16509 -4.0443,-0.767779 -3.088259,-1.681538 -3.083309,-1.704598 0.56101,-2.624577 2.02215,-0.51026 4.05442,-0.37297 4.5161,0.30572 0.46191,0.678569 1.54913,-0.26792 2.41641,-2.103308 9.89788,-20.9459391 12.18612,-24.176096 12.18612,-17.2026229 z M 49.38686,4.7004502 c 7.43316,0.7476093 18.25935,6.1022538 18.25935,9.0311408 0,2.565208 -0.72137,2.680607 -4.41161,0.705639 C 61.72338,13.628431 55.76236,11.972913 49.98783,10.758174 40.14688,8.6880562 34.295691,5.6285393 36.315291,3.6088913 36.801101,3.1230818 38.58974,3.0337619 40.28962,3.4110115 c 1.69982,0.3768597 5.79359,0.9573791 9.09724,1.2896087 z M -28.311779,5.972109 c -0.33517,1.0063489 -6.51225,3.0215469 -13.726239,4.478295 -7.213939,1.456699 -14.944311,3.025947 -17.178628,3.487127 -2.234263,0.461349 -4.424169,1.424118 -4.866452,2.139718 -0.44245,0.715589 -1.465922,1.301108 -2.274783,1.301108 -0.808861,0 -1.089895,-0.616089 -0.624544,-1.369038 0.46524,-0.752999 0.125064,-1.814768 -0.756556,-2.359548 -3.135227,-1.937658 5.067221,-5.4566343 19.937994,-8.5536212 1.617722,-0.3368396 6.801839,-0.6893493 11.520208,-0.7831792 6.24494,-0.1239498 8.41295,0.3273897 7.969,1.6591384 z m -9.194569,7.721632 c -11.608872,2.956577 -12.844731,3.705686 -11.872286,7.196423 2.632523,9.44991 2.713065,10.14505 1.056823,9.121411 -0.926867,-0.57285 -1.685146,-2.365108 -1.685146,-3.982826 0,-1.617719 -0.541946,-2.606338 -1.204565,-2.196848 -0.662508,0.409649 -0.925977,-1.153649 -0.585524,-3.473507 0.6047,-4.119895 3.538767,-6.155613 11.349398,-7.874272 7.021569,-1.545078 9.597669,-0.485809 2.9413,1.209619 z M 46.15714,12.700232 c 0.40965,0.662509 -1.20601,0.918299 -3.58991,0.56846 -2.38384,-0.35018 -4.33428,-0.89196 -4.33428,-1.204569 0,-1.120629 7.19542,-0.54305 7.92419,0.636109 z M 43.12291,28.408306 C 43.84712,34.4214 43.74717,34.95751 42.57485,31.349653 40.709,25.608029 39.35958,14.038641 41.031,18.113677 c 0.66351,1.617728 1.60494,6.250333 2.09196,10.294629 z m 6.77265,-6.259993 c -0.75238,2.623457 -1.36798,6.555203 -1.36798,8.737161 0,2.182008 -0.70403,4.402375 -1.56447,4.934145 -1.04965,0.648719 -1.26354,-0.6535 -0.64995,-3.957536 1.81244,-9.75957 1.99103,-10.834129 2.10192,-12.645387 0.0617,-1.011079 0.7281,-1.838339 1.48048,-1.838339 0.84361,0 0.84361,1.828609 0,4.769956 z m 6.5172,-2.563988 c 1.16293,3.030667 3.85932,2.781207 3.97338,-0.367409 0.0717,-1.971908 0.40409,-1.799929 1.42323,0.735319 0.73154,1.819938 2.30113,3.308976 3.48796,3.308976 1.80071,0 2.02132,2.251828 1.33269,13.603667 -0.89791,14.802445 -2.146,18.017541 -4.91398,12.658507 -2.8598,-5.536734 -7.59669,-10.08485 -10.50346,-10.08485 -4.11296,0 -3.21294,3.323317 2.36388,8.728541 2.77688,2.691498 5.81639,6.746523 6.75448,9.011241 1.56636,3.781616 1.30434,4.481476 -3.21054,8.574251 -2.97631,2.697998 -5.91233,4.155746 -7.44084,3.694287 -1.85212,-0.55912 -2.76631,0.337389 -3.43182,3.365726 -1.54029,7.008943 -2.05967,8.022902 -3.61642,7.060803 -0.82776,-0.511379 -1.15254,-1.500498 -0.72176,-2.197578 0.43078,-0.697079 0.0839,-1.699768 -0.77112,-2.228147 -0.85499,-0.5286 -1.16949,-2.173788 -0.69891,-3.656437 1.25142,-3.942856 -4.405049,-2.141767 -8.124749,2.587058 -1.59821,2.031768 -2.90583,3.045677 -2.90583,2.253097 0,-0.792569 1.33969,-2.653477 2.97709,-4.135285 1.6374,-1.481819 2.74192,-3.399917 2.45444,-4.262366 -0.28738,-0.862499 1.01996,-5.364815 2.905489,-10.00514 1.88558,-4.640335 3.42827,-9.6976 3.42827,-11.238389 0,-1.540738 1.62828,-3.868266 3.61842,-5.172274 3.63943,-2.384618 8.14692,-14.019766 8.14692,-21.029589 0,-3.826416 2.17717,-4.581025 3.47318,-1.203789 z m -116.737366,3.676666 c 2.716344,0 7.3763,7.230053 7.3763,11.444499 0,1.596098 1.024028,3.751876 2.275617,4.790575 1.251589,1.038759 1.747956,2.277948 1.103013,2.753747 -0.644944,0.4758 -2.01515,2.188738 -3.044847,3.806456 -1.029697,1.617779 -3.286526,5.161045 -5.015139,7.873942 l -3.143008,4.932585 -2.822955,-5.667914 c -1.950227,-3.915616 -2.962859,-9.53262 -3.27552,-18.168561 -0.480248,-13.268437 0.04447,-15.939024 2.617626,-13.364097 0.879342,0.879349 2.647364,1.598768 3.928913,1.598768 z m 22.900627,1.051039 c -1.008519,2.628138 0.66273,6.469834 2.35861,5.421735 0.83976,-0.51915 1.32985,3.445716 1.22813,9.93544 -0.0934,5.939504 0.85533,14.438985 2.1077,18.887711 1.25231,4.448795 2.27422,8.419551 2.27094,8.823981 -0.003,0.404659 -1.98085,2.975867 -4.39454,5.714274 -2.41369,2.738467 -4.388539,5.589764 -4.388539,6.336314 0,0.746499 -3.92052,-1.659459 -8.712262,-5.346635 -4.791746,-3.687176 -9.83629,-6.703953 -11.210053,-6.703953 -2.020096,0 -2.157889,-0.40965 -0.720427,-2.141538 0.977504,-1.177889 1.340246,-2.848797 0.806082,-3.713136 -0.534164,-0.864329 -0.116727,-1.389659 0.927534,-1.167379 1.044315,0.22234 3.030005,-1.817488 4.412662,-4.532825 1.382657,-2.715288 3.886391,-6.397794 5.563866,-8.183432 1.677478,-1.785588 3.049958,-4.010336 3.049958,-4.943935 0,-0.933529 0.9889,-1.317899 2.19758,-0.854099 1.20862,0.463569 1.83139,1.435738 1.38382,2.159827 -0.44745,0.72415 -0.15174,1.316569 0.65701,1.316569 0.80886,0 1.87969,-0.661789 2.37956,-1.470648 0.499699,-0.80886 0.163419,-1.470639 -0.74761,-1.470639 -0.98729,0 -1.27944,-1.188339 -0.72304,-2.941347 0.53583,-1.687318 0.26458,-2.941347 -0.63622,-2.941347 -0.86338,0 -1.56975,0.667399 -1.56975,1.483149 0,0.879119 -1.19784,0.735049 -2.94135,-0.35351 -1.61772,-1.010249 -2.941346,-2.420528 -2.941346,-3.133837 0,-0.713369 0.827259,-0.620539 1.838336,0.20622 1.2786,1.045529 2.37306,0.922139 3.59452,-0.40521 1.38543,-1.505608 1.15259,-2.066338 -1.10301,-2.656197 -2.898109,-0.757839 -4.093002,-5.435025 -1.3885,-5.435025 0.80886,0 1.47065,-0.951539 1.47065,-2.114587 0,-1.216569 1.26448,-2.019368 2.97753,-1.890298 1.7688,0.133399 2.683049,0.991669 2.252159,2.114587 z m 39.69629,10.57761 c -1.29372001,2.501787 -2.70516999,4.548675 -3.13655999,4.548675 -0.43134001,0 -0.43412001,-0.566459 -0.006,-1.258759 0.428,-0.692359 1.47814998,-3.100426 2.33391999,-5.351314 0.85583,-2.250878 1.91716,-3.731306 2.3586099,-3.289857 0.44134,0.44134 -0.2556899,2.849527 -1.5495799,5.351255 z m 8.61805,8.225341 c 1.32501,2.022148 1.83822,3.676667 1.14059,3.676667 -0.6977,0 -2.02238,-1.654519 -2.9437401,-3.676667 -0.92137,-2.022148 -1.43458,-3.676666 -1.14053,-3.676666 0.29404,0 1.61872,1.654518 2.9436801,3.676666 z m -15.9369899,10.39968 c -0.54083,2.155278 -1.31445,3.587786 -1.71889,3.183357 -0.40465,-0.40465 -0.29292,-2.498728 0.24791,-4.654006 0.54083,-2.155267 1.31446,-3.587786 1.71889,-3.183356 0.40465,0.404649 0.29292,2.498727 -0.24791,4.654005 z M 6.4217209,49.777795 c -1.00351,1.003519 -2.7175599,1.034979 -5.0737799,0.0934 -3.3435,-1.336409 -3.25201,-1.427899 1.51551,-1.515499 3.4825699,-0.0639 4.5984799,0.38186 3.5582699,1.422289 z m 5.9542901,0.847829 c 3.45111,1.324338 2.96214,6.460653 -0.61504,6.460653 -1.61777,0 -2.9413401,0.66178 -2.9413401,1.470639 0,0.808869 0.49636,1.392328 1.10301,1.296508 4.6166501,-0.728939 6.0735201,1.737389 3.4616101,5.860235 -1.00874,1.592318 -1.84367,1.645568 -4.0218501,0.256799 -2.35021,-1.498608 -2.37561,-1.636738 -0.17509,-0.952549 1.5096201,0.46913 2.5736601,0.0389 2.5736601,-1.046649 0,-1.015799 -1.32362,-1.946608 -2.9413401,-2.068458 -1.61773,-0.12172 -2.94135,0.32184 -2.94135,0.986229 0,0.66429 -1.65447,1.524119 -3.6766799,1.910658 -2.02215,0.38686 -3.67661,0.13284 -3.67661,-0.563849 0,-0.696749 0.66178001,-1.266759 1.47064,-1.266759 0.80886999,0 1.47065,-0.981229 1.47065,-2.180567 0,-1.659079 6.9653099,-10.873259 8.3360699,-11.027559 0.13618,-0.0167 1.2942301,0.374079 2.5736601,0.864829 z m -38.85235,3.605236 c 0,0.856169 3.06325,4.330616 6.80718,7.721032 7.06113,6.394344 16.72345,18.150332 16.72345,20.34712 0,1.754188 -6.5225899,1.574648 -10.62003,-0.29237 -1.87285,-0.853269 -4.96017,-3.820856 -6.86076,-6.594553 l -3.45556,-5.043035 -4.21016,2.997867 c -2.31559,1.648848 -4.86457,4.120006 -5.66442,5.491544 -0.7998,1.371539 -1.47437,1.735008 -1.49894,0.807699 -0.0222,-0.927259 2.27156,-3.719696 5.10257,-6.205363 5.88364,-5.165875 5.68593,-4.588296 3.43221,-10.02854 -0.94326,-2.277008 -1.78064,-4.470966 -1.86084,-4.875395 -0.08,-0.40465 -0.61393,-1.470259 -1.18623,-2.368498 -1.089,-1.709318 -0.0278,-3.514136 2.06596,-3.514136 0.67407,0 1.22557,0.700469 1.22557,1.556578 z m 59.4095,5.967624 c -2.34276,3.362287 -5.10969,7.842872 -6.14878,9.95684 -1.03909,2.113978 -2.72118,5.498054 -3.73798,7.520262 -1.0168,2.022148 -2.81384,3.765767 -3.99339,3.874657 -1.17961,0.108939 -2.47561,0.327949 -2.88004,0.486919 -0.40465,0.15897 -2.55432,0.42244 -4.77746,0.585799 -3.4456701,0.25291 -3.9026801,-0.144519 -3.0970401,-2.693167 1.35925,-4.299986 5.0384301,-9.60777 6.6597601,-9.60777 0.76356,0 1.02481,-0.58819 0.58052,-1.307059 -1.19923,-1.940328 19.22452,-16.860673 21.07108,-15.393254 0.32072,0.254579 -1.33391,3.214217 -3.67667,6.576553 z M -5.4603989,64.44161 c 0.42355,1.618838 0.16953,2.572487 -0.56379,2.119208 -0.73343,-0.45302 -1.33352,-1.777809 -1.33352,-2.943347 0,-3.043907 0.99935,-2.609848 1.89731,0.824139 z m 10.8516998,4.176706 c 1.51289,2.422467 1.16249,2.727907 -3.3228799,2.896547 -5.43368,0.203989 -6.5453699,-1.625229 -2.44047,-4.016126 3.50647,-2.042378 3.82769,-1.979958 5.7633499,1.119579 z m -0.3524,5.947724 c 0.44301,0.716429 -0.84755,1.618448 -2.8673699,2.004528 -2.97152999,0.568069 -3.35489,0.319609 -2.00881,-1.302499 1.91716,-2.310018 3.7218099,-2.569818 4.8761799,-0.702029 z m -28.5739999,3.917906 c 0,0.444669 -1.09829,2.926337 -2.44059,5.514944 -1.3423,2.588667 -2.56499,8.411882 -2.71701,12.940487 -0.1523,4.528603 -0.69141,8.905193 -1.19856,9.725723 -0.8376,1.35531 0.99979,1.43224 13.91772,0.58253 1.3278,-0.0873 2.80906,-1.73206 3.2917,-3.655 0.48247,-1.92293 2.53975,-4.585355 4.5714101,-5.916544 4.8972999,-3.208817 4.7630599,-0.2618 -0.19732,4.335674 -3.7059101,3.43449 -3.7426001,3.60641 -0.76923,3.60641 4.52283,0 8.11556991,-6.382615 7.8307499,-13.911708 -0.17286,-4.575625 0.40577001,-6.606393 2.06456999,-7.242942 C 2.086101,83.97716 2.711481,82.912501 2.208051,82.097972 c -0.50359,-0.814589 -0.25902,-1.481099 0.54306,-1.481099 2.0948599,0 3.5420499,5.500435 2.5192999,9.575371 -0.48025,1.914208 -0.2379,3.872986 0.53805,4.352905 0.77651,0.47969 1.04865,1.818989 0.60476,2.975697 -0.8695,2.265938 5.4969401,9.032534 8.6067701,9.147704 1.03842,0.0389 2.9608,0.51749 4.27197,1.06499 2.89294,1.20745 4.99474,-3.10343 2.80156,-5.74607 -0.81581,-0.98301 -1.12958,-2.140936 -0.6973,-2.573266 0.43244,-0.432439 -0.23513,-1.177878 -1.48338,-1.656848 -2.66454,-1.022469 -2.81484,-0.3185 -0.75389,3.532754 1.32113,2.46855 1.04265,2.79272 -2.17062,2.5268 -2.02737,-0.16786 -4.04792,-1.24781 -4.49009,-2.40007 -1.15053,-2.998145 7.53461,-10.374277 11.11339,-9.438398 2.71129,0.709029 4.0925,3.345107 1.75274,3.345107 -0.60664,0 -1.10301,3.031557 -1.10301,6.736791 v 6.73685 l 6.25033,-0.49691 c 4.30255,-0.3424 6.25033,0.0789 6.25033,1.3518 0,1.01691 -1.73039,1.84895 -3.84531,1.84895 -4.202,0 -17.00821,6.23582 -22.24702,10.83296 -4.3301201,3.79979 -10.64982,3.66794 -16.2779399,-0.33962 -2.49712,-1.77808 -9.7030601,-5.09072 -16.0132501,-7.36139 -7.31827,-2.63347 -11.31177,-4.83127 -11.02774,-6.06912 0.24513,-1.06727 -0.0862,-2.33209 -0.73532,-2.81067 -0.64939,-0.47858 -1.96596,-3.06208 -2.92579,-5.74124 -1.346359,-3.758152 -1.346359,-4.740321 0,-4.298532 0.95983,0.31516 1.95457,2.341418 2.21047,4.503422 0.25625,2.162 1.12781,3.93091 1.93745,3.93091 0.83165,0 1.04059,-1.35948 0.48024,-3.12494 -0.62226,-1.960565 -0.24846,-3.596074 1.00391,-4.389423 1.4682,-0.930309 1.50983,-1.270488 0.1573,-1.287048 -1.01113,-0.0111 -1.83833,-0.72343 -1.83833,-1.579979 0,-0.856609 0.66178,-1.148479 1.47064,-0.648559 2.81912,1.742288 1.44553,-1.716878 -1.94744,-4.904415 -3.98806,-3.746646 -5.644579,-2.835617 -4.63495,2.549097 0.6848,3.652426 0.64272,3.636697 -0.927589,-0.346849 -2.20363,-5.590545 0.32573,-8.490922 4.282039,-4.910356 2.48662,2.250378 6.39391,3.670437 4.27843,1.554969 -0.50081,-0.50082 0.16898,-1.989808 1.48821,-3.308987 2.2177,-2.217697 2.21103,-2.434747 -0.0878,-2.877587 -1.36765,-0.26347 -2.10859,-1.090669 -1.64652,-1.838278 0.89219,-1.443688 6.54921,-1.919598 6.54921,-0.550839 z M 5.1395109,105.62357 c -0.50193,0.81186 -2.5993999,1.05259 -4.66145991,0.53527 -3.31948999,-0.83315 -3.63492999,-0.58091 -2.75207999,2.20058 0.7486,2.35859 0.38019,3.14161 -1.4771499,3.14161 -2.28085,0 -2.29157,0.27903 -0.1373,3.56678 1.7436199,2.66109 1.8799199,3.7303 0.5369499,4.21066 -0.9901799,0.35407 -1.2738299,1.20573 -0.6303799,1.89253 0.6434399,0.68674 2.3088499,0.5375 3.7009599,-0.33184 1.90309,-1.1885 3.02878,-1.04787 4.5372199,0.56691 1.66342,1.78069 2.21542,1.80904 3.23084,0.16619 0.78657,-1.27265 0.44856,-2.25388 -0.94533,-2.74274 -1.73089,-0.60714 -1.49677,-1.34363 1.15688,-3.63926 2.9526301,-2.55431 3.0373401,-2.93573 0.75316,-3.3913 -3.1942,-0.63705 -3.33794,-2.63097 -0.27458,-3.80651 1.26454,-0.48525 1.8873001,-1.54879 1.38388,-2.36338 -1.17166,-1.89576 -3.25179,-1.89809 -4.42178,-0.005 z m -0.73199,7.34794 c 0,0.80886 -1.0317599,1.47065 -2.2927899,1.47065 -1.26104001,0 -1.88381,-0.66179 -1.38388001,-1.47065 0.49970001,-0.80886 1.53167001,-1.4707 2.29279001,-1.4707 0.7611099,0 1.3838799,0.66184 1.3838799,1.4707 z M -17.921759,83.67344 c 2.40702,3.854266 0.0445,7.238113 -5.05811,7.238113 -3.99422,0 -4.50454,-1.744668 -1.29061,-4.411986 1.21335,-1.006968 2.20603,-2.742527 2.20603,-3.856766 0,-2.961077 1.95323,-2.475157 4.14269,1.030639 z m 45.58993,3.307207 c 0.4569,3.858376 -1.617,5.355975 -3.4067,2.460208 -0.4997,-0.80886 -2.35888,-1.485379 -4.13107,-1.503329 -3.16436,-0.0333 -3.15618,-0.0845 0.45468,-2.906497 4.59925,-3.594956 6.4885,-3.074967 7.08331,1.949618 z M 40.51645,83.432601 c -0.45745,0.739769 -0.0334,1.611048 0.94182,1.936108 1.09974,0.366849 0.79491,0.966439 -0.80252,1.579418 -1.54007,0.590969 -2.21442,0.40354 -1.6772,-0.465239 0.49414,-0.79958 0.15842,-1.453799 -0.74572,-1.453799 -0.904349,0 -1.235239,-0.661789 -0.735369,-1.470699 0.499699,-0.808869 1.570749,-1.470648 2.379609,-1.470648 0.80886,0 1.09656,0.605259 0.63938,1.345079 z m -81.021178,13.860846 c 1.35648,5.532233 3.663999,12.028123 5.127969,14.435363 2.18552,3.59391 2.40941,5.47766 1.25137,10.53075 -1.71833,7.4983 -0.75722,16.09334 2.32581,20.79859 l 2.29502,3.50269 7.9213,-4.29032 7.92125,-4.29037 4.2551301,3.96075 c 3.08626,2.87282 3.44717,3.63388 1.31374,2.77076 -6.4514401,-2.61001 -8.0897301,-2.45026 -14.7202001,1.43547 -7.67534,4.49803 -7.52815,4.56801 -12.55641,-5.96836 -3.095539,-6.48638 -3.561949,-12.32049 -1.54669,-19.34722 0.72893,-2.54163 0.78541,-5.18444 0.12562,-5.87291 -0.65989,-0.68852 -3.195479,-8.1309 -5.634679,-16.538615 -2.59928,-8.959551 -3.629979,-14.437975 -2.49017,-13.235966 1.06966,1.127969 3.05457,6.577153 4.411,12.109388 z m 37.267139,-8.220222 c -0.3474,1.761398 -1.8897999,2.573657 -4.8875099,2.573657 -2.9128901,0 -4.3800401,0.73888 -4.3800401,2.205968 0,1.213289 -0.82726,2.735237 -1.83833,3.382067 -1.01108,0.646829 -1.83834,2.797713 -1.83834,4.779683 0,1.98196 -0.59225,3.60357 -1.31618,3.60357 -1.88536,0 -2.79083,-12.00778 -0.94454,-12.525769 2.54898,-0.715199 5.74991,-2.187738 9.6140601,-4.422886 4.8545,-2.807887 6.2048699,-2.710397 5.5908799,0.40354 z m 15.82099,0.508589 c 0.54806,0.886459 0.0906,2.516578 -1.01619,3.622477 -1.7022101,1.700758 -2.0450601,1.452408 -2.2244301,-1.611829 -0.21955,-3.753596 1.5028301,-4.822425 3.2406201,-2.010648 z m 22.84438,3.903176 c -0.54695,4.057196 -0.88857,4.612036 -1.29167,2.099078 -0.50526,-3.148287 0.40354,-7.614082 1.54924,-7.614082 0.26736,0 0.15119,2.481777 -0.25735,5.515004 z m 6.508959,1.470699 c -1.4125,9.468761 -3.78528,13.301731 -3.41403,5.514941 0.15396,-3.235433 0.97933,-6.36882 1.83361,-6.96313 0.99312,-0.690849 0.82537,-1.088558 -0.46524,-1.102958 -1.62723,-0.0167 -1.66358,-0.45023 -0.18732,-2.228528 2.92973,-3.530097 3.34139,-2.649028 2.23326,4.779675 z m -64.208239,4.044306 c 0.19899,3.844195 -0.30238,6.617955 -1.19584,6.617955 -0.84616,0 -1.53846,-0.90997 -1.53846,-2.02215 0,-1.11218 -0.41355,-4.090266 -0.91914,-6.617963 -0.68858,-3.442987 -0.38853,-4.595855 1.19584,-4.595855 1.47548,0 2.21858,2.001138 2.4576,6.618013 z m 53.15099,0 c 0,3.639865 -0.66179,6.617955 -1.47065,6.617955 -0.80886,0 -1.4707,-2.97809 -1.4707,-6.617955 0,-3.639876 0.66184,-6.618013 1.4707,-6.618013 0.80886,0 1.47065,2.978137 1.47065,6.618013 z m -52.94394,18.288905 c 0,0.75695 4.13624,3.46716 9.19168,6.02276 5.0553801,2.55554 10.39018,5.71521 11.8551,7.02155 1.90575999,1.69949 2.96014,1.89498 3.70658,0.68724 0.57374,-0.92831 2.6841599,-2.40285 4.6898599,-3.27667 2.0057,-0.87384 7.2866401,-3.86761 11.7353801,-6.65276 7.97394,-4.99207 13.23599,-6.50062 13.23599,-3.79451 0,0.76112 -0.67124,1.7987 -1.49166,2.30574 -0.82042,0.50693 -2.82712,3.5396 -4.45935,6.73903 -2.47445,4.85026 -5.00125,6.82561 -15.20378,11.88555 l -12.23619,6.06851 -6.4674999,-4.51472 c -7.2954301,-5.09267 -13.6351901,-10.93757 -18.7923501,-17.32557 -1.92549,-2.38506 -3.18392,-3.34372 -2.79644,-2.13043 0.38742,1.21329 -0.15786,4.19138 -1.2124,6.61797 l -1.91694,4.41198 -0.0445,-4.41198 c -0.0873,-8.32728 1.37498,-11.02995 5.96779,-11.02995 2.33226,0 4.24047,0.61931 4.24047,1.37626 z m -2.94135,10.18852 c 0,1.50737 1.64351,4.38425 3.65227,6.393 l 3.65227,3.65227 -3.72147,1.69559 c -2.04678,0.93259 -4.03758,1.69559 -4.424,1.69559 -1.70327,0 -3.60936,-8.24295 -2.7796,-12.02079 1.02069,-4.64705 3.62053,-5.66363 3.62053,-1.41566 z"
       id="path567" /></g></svg>
