<?xml version="1.0" encoding="UTF-8" standalone="no"?>
<!-- Created with Inkscape (http://www.inkscape.org/) -->

<svg
   width="210mm"
   height="297mm"
   viewBox="0 0 210 297"
   version="1.1"
   id="svg577"
   xml:space="preserve"
   inkscape:version="1.2.2 (732a01da63, 2022-12-09)"
   sodipodi:docname="Bragi.svg"
   xmlns:inkscape="http://www.inkscape.org/namespaces/inkscape"
   xmlns:sodipodi="http://sodipodi.sourceforge.net/DTD/sodipodi-0.dtd"
   xmlns="http://www.w3.org/2000/svg"
   xmlns:svg="http://www.w3.org/2000/svg"><sodipodi:namedview
     id="namedview579"
     pagecolor="#ffffff"
     bordercolor="#000000"
     borderopacity="0.25"
     inkscape:showpageshadow="2"
     inkscape:pageopacity="0.0"
     inkscape:pagecheckerboard="0"
     inkscape:deskcolor="#d1d1d1"
     inkscape:document-units="mm"
     showgrid="false"
     inkscape:zoom="0.2102413"
     inkscape:cx="366.24583"
     inkscape:cy="561.25984"
     inkscape:window-width="2560"
     inkscape:window-height="1494"
     inkscape:window-x="-11"
     inkscape:window-y="-11"
     inkscape:window-maximized="1"
     inkscape:current-layer="layer1" /><defs
     id="defs574" /><g
     inkscape:label="레이어 1"
     inkscape:groupmode="layer"
     id="layer1"><path
       style="fill:#000000;stroke-width:1.38889"
       d="M -70.689449,-148.80054 -75,-143.89109 l 8.92e-4,97.521243 8.4e-4,97.521238 6.102205,7.773031 c 6.027349,7.677701 7.760105,12.267258 16.920525,44.818078 1.045984,3.71669 2.572441,7.56583 3.392231,8.55355 0.872388,1.05118 1.166562,4.58436 0.709449,8.52011 -0.652179,5.61539 -9.45e-4,8.55644 3.949291,17.83536 2.764095,6.49271 5.668399,11.29943 6.987245,11.56421 1.241313,0.24935 4.155223,-1.14425 6.475381,-3.09653 l 4.21848,-3.54962 5.13564,3.15166 c 2.82457,1.73339 8.65659,4.22961 12.9600499,5.54709 9.2381701,2.82825 18.7176401,1.50106 28.8088201,-4.03349 7.38551,-4.05061 8.75727,-4.11424 11.97785,-0.55554 3.70147,4.09008 5.591601,3.47344 10.978841,-3.58206 5.21943,-6.8357 7.68478,-16.6724 5.43964,-21.70396 -1.39843,-3.13407 0.7663,-12.86333 7.19842,-32.352964 2.01685,-6.111128 4.02305,-14.23613 4.45822,-18.055555 0.66876,-5.870089 1.83512,-8.059702 7.53858,-14.15299 L 75,50.62326 V -46.865548 C 75,-143.20353 74.9633,-144.40957 72.10893,-149.03219 L 69.2179,-153.71 H 1.419479 -66.378898 Z m 105.235488,-2.88143 c -0.35171,0.35171 -22.48698,1.03895 -49.18982,1.52762 l -48.550655,0.8884 -4.51391,4.30042 c -5.831654,5.55592 -5.894331,3.22873 -0.07454,-2.77554 l 4.439107,-4.58006 h 49.264568 c 27.09554,0 48.97701,0.28767 48.62546,0.63916 z m 6.078951,0.28084 c -0.95486,0.3853 -2.51732,0.3853 -3.472231,0 -0.95486,-0.3853 -0.17376,-0.70052 1.736111,-0.70052 1.90977,0 2.69097,0.31548 1.73612,0.70052 z m 26.55569,0.1769 c 0.75381,1.2198 -17.02965,0.90599 -18.25774,-0.32231 -0.42625,-0.42624 3.35501,-0.7748 8.40252,-0.7748 5.04751,0 9.48236,0.49344 9.85522,1.0969 z m -110.498003,5.31078 c 7.112967,0.22152 14.509192,-0.19633 16.436012,-0.92893 1.92682,-0.73254 4.22866,-0.88362 5.11528,-0.33596 1.91732,1.18499 12.0440399,1.59533 12.0432999,0.48819 -6.8e-4,-1.05869 24.8868301,-0.65212 25.9631001,0.42415 0.47559,0.47559 1.75155,0.12966 2.83491,-0.76955 1.25485,-1.04142 2.30945,-1.1389 2.90556,-0.26877 1.12557,1.64325 6.87003,2.17307 7.77013,0.71669 0.35171,-0.56866 4.87365,-0.59564 10.049291,-0.0598 5.17565,0.5357 10.94231,0.3916 12.81476,-0.32021 1.87249,-0.71192 3.76887,-0.77144 4.21422,-0.13228 0.44515,0.63916 2.28656,1.25485 4.09165,1.36824 1.8051,0.11338 3.63517,0.55932 4.06693,0.99102 1.11979,1.11979 0.36588,14.2616 -1.02871,17.92932 -0.75596,1.98845 -0.48346,4.72 0.76782,7.69592 1.06688,2.53732 1.93974,4.88951 1.93974,5.22704 0,0.33754 -5.15622,0.42205 -11.45832,0.18793 -8.53685,-0.31759 -11.69906,-0.95717 -12.40242,-2.5093 -0.80057,-1.76672 -0.95884,-1.7379 -1.04162,0.1895 -0.063,1.46715 -1.6979,2.51665 -4.611551,2.96043 -5.09864,0.77648 -5.89523,0.47401 -4.53722,-1.72331 0.52231,-0.84479 0.95134,-7.60511 0.95386,-15.02302 0.004,-11.20353 -0.36851,-13.56307 -2.19906,-13.93608 -1.90561,-0.38845 -2.20367,1.61087 -2.20367,14.78197 0,12.72484 -0.36798,15.37235 -2.23785,16.08978 -1.81732,0.69738 -2.07081,0.19318 -1.34903,-2.68253 1.10982,-4.42194 -2.64514,-12.74352 -6.26934,-13.89382 -2.1284,-0.67549 -2.64378,-2.17465 -2.64378,-7.68993 0,-5.15297 -0.51444,-6.85088 -2.07601,-6.85088 -1.72011,0 -2.0495,2.50017 -1.92137,14.58338 0.12756,12.02637 0.52336,14.58334 2.2567,14.58334 1.6707,0 1.9569,-1.28668 1.39501,-6.27193 -0.38898,-3.44962 -0.15748,-6.61151 0.51391,-7.02647 0.67139,-0.41469 1.22074,0.14331 1.22074,1.24079 0,1.09738 0.86955,2.7169 1.93228,3.5989 1.06273,0.88199 2.20446,3.45854 2.53722,5.72563 0.53401,3.63848 0.1853,4.13586 -2.97391,4.24053 -3.28567,0.10866 -32.16651,0.0525 -33.19171,-0.0672 -0.24514,-0.0263 1.78593,-2.15623 4.5139099,-4.72909 5.7135401,-5.38857 6.0473501,-6.903 2.12682,-9.64904 l -2.83317,-1.98442 3.37548,-6.34835 c 3.1685601,-5.95922 3.3458801,-7.89592 0.72305,-7.89592 -0.60767,0 -2.32583,2.65628 -3.81816,5.90279 l -2.7132799,5.90279 -0.11707,-6.01854 c -0.0808,-4.16037 -0.65301,-5.83975 -1.85312,-5.43943 -1.2442,0.41522 -1.73611,4.77681 -1.73611,15.39378 v 14.81467 l -4.86111,0.11391 c -2.67359,0.063 -14.023513,0.2189 -25.222045,0.34698 l -20.360944,0.23307 -0.144357,-14.47346 c -0.131234,-13.14054 0.139107,-14.77508 2.933175,-17.74927 1.953229,-2.0791 3.862993,-2.92519 5.227507,-2.31595 1.18252,0.52792 7.969711,1.14126 15.082677,1.36294 z m 12.646042,2.49842 c -0.31811,0.31497 -0.38111,6.87754 -0.13911,14.58339 0.40052,12.77271 0.67674,14.01057 3.12504,14.01057 1.47701,0 2.52924,-0.54237 2.33827,-1.20521 -0.19108,-0.66288 1.21527,-2.5379 3.12503,-4.16666 l 3.47224,-2.96148 -3.15313,-2.67591 -3.15307,-2.6759 3.50032,-3.77692 c 4.35034,-4.69413 4.37627,-5.88478 0.16325,-7.48667 -1.83554,-0.69785 -3.7474,-1.93239 -4.24861,-2.74336 -0.90372,-1.46227 -3.91758,-2.00264 -5.02981,-0.90185 z m 6.34535,10.57131 c -1.42997,2.31375 -3.10068,1.4991 -3.73543,-1.82147 -1.04824,-5.48348 0.46719,-7.37198 2.61921,-3.26437 1.07486,2.05145 1.57717,4.34006 1.11622,5.08584 z m -0.67407,10.38373 c 0,1.05571 -0.62498,2.30568 -1.38887,2.77781 -0.79087,0.48871 -1.38892,-0.70735 -1.38892,-2.77781 0,-2.07039 0.59805,-3.26651 1.38892,-2.77774 0.76389,0.47192 1.38887,1.7221 1.38887,2.77774 z m 27.29208,-20.47666 c -0.35748,0.57817 -0.5442,3.29292 -0.41523,6.03281 0.19423,4.12925 -0.18372,4.8723 -2.21013,4.34243 -3.14588,-0.82263 -3.18394,2.31002 -0.0556,4.59733 1.73055,1.26541 2.27522,3.31638 1.97716,7.44479 -0.32021,4.43601 0.0735,5.69822 1.77811,5.69822 1.6285101,0 2.1895101,-1.42342 2.1895101,-5.55555 0,-5.22195 1.87412,-7.57224 3.10162,-3.88967 0.35381,1.06084 0.87433,0.83444 1.4337599,-0.62336 0.58892,-1.53475 -0.0157,-2.57238 -1.8284599,-3.14839 -2.24567,-0.71271 -2.70692,-2.14479 -2.70692,-8.40443 0,-6.70935 -1.40389,-9.50306 -3.2634701,-6.49418 z m 39.374591,21.2531 c 0,0.80898 0.62499,1.08457 1.38887,0.6125 0.76388,-0.47192 1.38892,-1.13403 1.38892,-1.47088 0,-0.33701 -0.62504,-0.61249 -1.38892,-0.61249 -0.76388,0 -1.38887,0.66189 -1.38887,1.47087 z m 31.37181,75.497373 -0.12179,96.527337 -7.2917,6.73901 c -6.45255,5.963528 -7.29165,7.37691 -7.29165,12.282007 0,3.048664 -1.61008,10.823435 -3.5779,17.277245 -8.57686,28.128808 -8.86935,29.529908 -8.00798,38.361428 0.88719,9.09591 -1.19003,14.56017 -7.8137,20.55457 -3.821581,3.45847 -3.549451,1.7737 0.76719,-4.74915 3.65281,-5.51974 5.7074,-18.96312 3.03438,-19.85415 -0.69906,-0.23307 -0.29711,-3.22094 0.89328,-6.6399 1.19039,-3.41895 2.17339,-7.40211 2.18452,-8.85151 0.0105,-1.44934 1.19511,-6.13686 2.63112,-10.416657 3.40567,-10.150144 5.90331,-20.312468 6.68672,-27.206858 0.34593,-3.045105 1.20268,-6.227569 1.90368,-7.07224 0.70105,-0.844681 0.86336,-1.947043 0.36063,-2.449664 -0.50289,-0.50289 0.28399,-0.923471 1.74813,-0.935171 1.99538,-0.0157 2.19649,-0.31654 0.803,-1.199642 -1.37502,-0.871491 -0.47087,-2.022203 3.47223,-4.419266 2.93218,-1.782523 5.79044,-3.898956 6.35165,-4.703157 0.56126,-0.804251 1.02997,-44.1554425 1.04168,-96.335987 0.0105,-52.180608 0.54483,-94.550168 1.18478,-94.154678 0.63989,0.39528 1.10866,44.156387 1.04162,97.246433 z m -143.603047,-21.08853 c -0.178478,39.065195 -0.624147,71.3277112 -0.990866,71.6944317 -0.366929,0.3669305 -0.666772,-32.0415657 -0.666772,-72.0184727 0,-39.976902 0.44567,-72.239422 0.990814,-71.694482 0.544987,0.54498 0.845039,32.95333 0.666824,72.018523 z m 60.542786,-54.024643 c -1.6788,3.25638 -1.90021,2.91601 -3.01307,-4.63281 l -0.92137,-6.25004 2.62441,4.16668 c 1.8962699,3.01065 2.2597399,4.87401 1.31003,6.71617 z m 46.13291,12.03387 c -1.56656,1.01239 -0.89055,1.35161 2.725201,1.36762 3.74336,0.0157 6.0917,1.28058 10.60126,5.70641 l 5.7927,5.685101 -2.09995,5.345988 c -1.83055,4.660167 -1.84262,5.603268 -0.094,7.35182 1.4978,1.497752 1.79113,3.957016 1.15806,9.708524 -0.46614,4.236436 -0.35066,7.395391 0.25669,7.01996 1.63218,-1.008771 1.36084,1.012022 -1.10934,8.261632 -1.21764,3.573605 -2.78016,6.497439 -3.47223,6.497439 -0.69208,0 -1.25832,0.937531 -1.25832,2.083363 0,1.145832 -0.54368,2.083313 -1.20819,2.083313 -0.66452,0 -1.93528,3.593755 -2.82394,7.986151 -0.88861,4.392347 -2.53244,9.199333 -3.65291,10.682116 -1.12048,1.482832 -2.03722,3.582685 -2.03722,4.666406 0,1.083682 -2.968721,5.226048 -6.597221,9.205213 -3.62845,3.979166 -8.37087,9.8046342 -10.53869,12.9454786 -3.64435,5.2802175 -3.79685,6.0057786 -2.02278,9.6265737 1.50105,3.0635747 2.77365,3.8539657 5.84646,3.6313447 4.28063,-0.31024 5.94561,-1.2950114 4.5495,-2.6911334 -0.49081,-0.4908107 -1.80137,-0.1380602 -2.91239,0.7841512 -2.91837,2.4220532 -5.71622,-2.8869841 -3.60262,-6.8362298 3.71133,-6.9347098 11.58252,-0.6094008 9.68897,7.7861511 -1.67737,7.4374909 -6.07044,10.4770749 -14.20021,9.8253139 -3.71359,-0.29764 -7.46845,-1.257792 -8.34414,-2.133493 -2.6693999,-2.669404 -1.1903999,-14.2582902 2.55133,-19.9918384 1.86945,-2.864624 4.01512,-5.2083574 4.76819,-5.2083574 0.75302,0 1.29517,-0.4687606 1.20473,-1.0416815 -0.44095,-2.7923337 0.30971,-4.5880367 1.58777,-3.7981657 0.78278,0.483991 1.30855,0.364311 1.16834,-0.26509 -0.50498,-2.268663 1.91481,-6.006049 3.88887,-6.006049 1.10919,0 1.63045,-0.62498 1.15838,-1.388872 -0.47192,-0.763881 -0.0924,-1.388872 0.84393,-1.388872 0.93628,0 1.30242,-0.4 0.8136,-0.888771 -0.48871,-0.48871 1.04488,-3.330135 3.40819,-6.314079 2.36331,-2.983884 3.90771,-5.814488 3.43197,-6.290189 -0.47559,-0.47559 0.0105,-1.853122 1.07842,-3.060944 1.675071,-1.892973 3.330761,-10.231355 3.682361,-18.545546 0.0572,-1.353332 0.69124,-2.097693 1.40888,-1.654173 1.08078,0.667981 2.10068,-6.97649 1.45055,-10.872085 -0.10079,-0.603891 0.43884,-2.260163 1.199,-3.680635 1.00919,-1.885723 0.87937,-2.775594 -0.48084,-3.297645 -1.02478,-0.393181 -2.62263,-3.737015 -3.55081,-7.430511 -2.08982,-8.316121 -12.035651,-21.768009 -15.436851,-20.878559 -1.67182,0.43727 -2.17869,-0.0661 -1.74342,-1.73076 0.44252,-1.69287 1.70284,-2.18731 4.52058,-1.77376 2.14871,0.31549 4.33018,-0.11181 4.84766,-0.94898 0.51759,-0.83732 1.99775,-1.51281 3.28951,-1.50115 2.023991,0.021 2.060631,0.20734 0.26509,1.36766 z m 13.194441,33.333391 c -0.47192,0.763881 -0.19633,1.388871 0.61249,1.388871 0.80892,0 1.47081,-0.62499 1.47081,-1.388871 0,-0.763892 -0.27559,-1.388932 -0.61244,-1.388932 -0.33701,0 -0.99874,0.62504 -1.47086,1.388932 z M 11.138949,16.462682 c 0.9663,1.164311 2.04289,1.830872 2.3925,1.481312 0.9632,-0.963201 -0.99381,-3.598215 -2.67234,-3.598215 -0.9209999,0 -0.81564,0.796951 0.27979,2.116903 z M -58.333333,-107.97776 c 0,0.7083 -1.876168,1.05035 -4.169292,0.76011 l -4.169291,-0.52766 0.134383,12.534133 c 0.07402,6.89376 -0.23727,12.905898 -0.691811,13.360279 -0.454593,0.454601 -0.826142,-5.111347 -0.826142,-12.368307 0,-7.256915 0.416798,-13.611095 0.925932,-14.120345 1.408767,-1.40882 8.796273,-1.10493 8.796273,0.36168 z m 1.301784,9.002428 c -1.864776,4.215546 -2.908661,9.745734 -3.042729,16.119083 -0.200525,9.517443 -1.388977,12.427517 -2.828242,6.92374 -0.399475,-1.527983 -0.678635,-7.153031 -0.620052,-12.500018 0.07769,-7.10936 0.602782,-9.721854 1.953386,-9.721854 2.337375,0 2.418425,-2.334069 0.110761,-3.190929 -0.978635,-0.36326 -0.08137,-1.30347 2.056798,-2.15459 2.726299,-1.08536 3.57559,-2.20604 3.020105,-3.98504 -0.691706,-2.21539 -0.617428,-2.23545 0.707821,-0.19108 1.111391,1.71423 0.772756,3.88394 -1.357953,8.700848 z m 31.854178,-8.102788 c 1.31302,0.43675 0.003,2.67927 -4.21092,7.209247 -3.364306,3.616595 -7.556642,8.923262 -9.316276,11.792616 -1.774593,2.893704 -3.860577,4.808297 -4.684199,4.299326 -0.98504,-0.60882 -1.061995,-0.2609 -0.228872,1.032962 0.690971,1.072921 1.314016,9.450723 1.384567,18.617406 0.184252,23.946174 2.995066,31.317945 20.4968,53.757977 10.0359,12.867628 10.16163,25.987597 0.29239,30.484393 -6.63391,3.022634 -15.830186,-5.594278 -15.438165,-14.4655305 0.09344,-2.108923 1.789081,-5.4540178 3.768609,-7.4335506 3.200946,-3.2009546 3.963726,-3.4040448 6.894226,-1.8356426 1.81228,0.9698614 2.62598,1.9864528 1.80819,2.2590532 -0.8178,0.2724404 -1.22478,2.28137323 -0.90446,4.4639463 0.64934,4.4242063 -1.62557,6.7207396 -4.38709,4.4288763 -2.768399,-2.2975332 -3.928767,0.0158 -1.40619,2.8023139 1.84881,2.042833 2.74105,2.181053 5.21139,0.807141 7.8084,-4.3427859 6.75275,-10.056914 -4.41166,-23.879984 -11.720838,-14.51199 -21.391021,-34.691439 -24.626035,-51.388993 -2.374383,-12.255187 -2.900472,-20.156828 -1.618372,-24.305544 0.35433,-1.145882 1.112073,-4.104476 1.684357,-6.57471 0.572336,-2.470243 1.55811,-4.171506 2.190656,-3.780535 0.632546,0.391081 1.853806,-0.604041 2.713806,-2.211028 3.491496,-6.52389 5.799895,-7.66264 14.547927,-7.17644 4.583311,0.2546 9.190971,0.7482 10.239261,1.0967 z m 22.90183,-0.10394 c 0.50184,1.30762 2.62567,2.08336 5.70415,2.08336 3.9290801,0 4.9047301,0.53622 4.9047301,2.6958 0,1.48269 -0.5663,3.045837 -1.25848,3.473608 -0.69218,0.42782 -0.95024,1.956643 -0.57349,3.397435 0.3769,1.440842 0.064,3.003304 -0.69444,3.472235 -0.75869,0.46877 -1.05459,2.094913 -0.65753,3.613335 0.39685,1.518432 1.2759,2.418433 1.95296,2.000003 0.67701,-0.418371 1.23098,0.838581 1.23098,2.793394 0,1.954802 -0.46877,3.555435 -1.04168,3.556955 -0.57292,10e-4 -1.17276,1.876542 -1.33297,4.166676 -0.16011,2.290133 0.30866,4.163945 1.04168,4.163945 0.79585,0 1.33297,8.954763 1.33297,22.222232 V -27.32084 H 1.388869 -5.5555411 l -0.042,-8.680543 c -0.021,-4.774337 -0.13123,-20.595509 -0.242,-35.15821 -0.11023,-14.56265 0.30079,-27.288808 0.91334,-28.2803 0.6653,-1.076487 0.34278,-2.299697 -0.7999,-3.036337 -1.60556,-1.0348 -1.57832,-1.45401 0.16956,-2.60121 1.9057701,-1.25107 0.97632,-2.02934 -1.83937,-1.54021 -0.62971,0.10919 -0.74903,-0.44147 -0.2651,-1.22441 1.3051,-2.11176 4.4698701,-1.72384 5.3846201,0.66 z m 63.590711,-1.06793 c -4.26441,0.52284 -4.60672,0.91381 -4.06,4.63885 0.74987,5.109148 0.29974,5.111088 -2.33774,0.0105 -2.42955,-4.69822 -1.48614,-5.51045 6.1937,-5.3325 l 4.8611,0.11286 -4.65706,0.57081 z m -71.0373711,4.26237 c 0,2.1389 -0.7235199,4.612447 -1.6078199,5.496698 -1.17119,1.171182 -1.19412,2.106253 -0.0845,3.443155 1.8575299,2.238164 2.2908699,45.504685 0.45564,45.504685 -1.54309,0 -3.28829,4.271396 -2.19275,5.366888 0.44147,0.44147 1.36073,-0.10026 2.04289,-1.204102 0.79412,-1.284932 1.2062899,1.602312 1.1458699,8.026311 l -0.0945,10.033145 h -5.29444 c -3.86063,0 -5.47627,-0.658221 -5.96583,-2.430554 -0.36902,-1.336802 -0.69112,-14.618081 -0.71522,-29.513902 -0.0625,-38.604575 -0.0877,-39.453546 -1.14367,-38.397694 -1.49922,1.499212 -1.66284,5.118427 -1.75113,38.744885 -0.0473,17.963805 -0.62756,31.597265 -1.34515,31.597265 -1.30204,0 -7.588448,-15.538972 -9.271125,-22.916673 -0.522835,-2.291663 -1.565669,-4.947937 -2.317744,-5.902798 -0.897533,-1.139522 -0.89706,-1.736113 0.0014,-1.736113 0.752862,0 1.702783,-4.160896 2.111025,-9.246423 0.551601,-6.87192 2.010708,-11.718907 5.681834,-18.874147 3.79963,-7.40578 4.39344,-9.434553 2.57291,-8.790872 -1.32231,0.46771 -0.8516,-0.349081 1.06672,-1.850613 1.88835,-1.478052 3.87165,-2.416583 4.40724,-2.085513 1.24935,0.772131 10.90935,-4.891558 10.90935,-6.396178 0,-0.62477 -0.78121,-1.45118 -1.73612,-1.83648 -1.03711,-0.41837 -0.75753,-0.74467 0.69449,-0.81018 1.76221,-0.0793 2.4305498,0.95968 2.4305498,3.77921 z m 31.5552201,6.24526 c 0.59601,0.919261 1.08367,16.820603 1.08367,35.33627 0,25.178356 -0.42624,33.828608 -1.69165,34.314429 -0.93039,0.35696 -2.0621,0.0525 -2.51485,-0.682461 -0.51864,-0.839272 -1.81958,-0.798742 -3.5167,0.10971 -2.61307,1.398472 -2.69533,0.766091 -2.75459,-21.17683 -0.0315,-12.440068 -0.29974,-29.471482 -0.59181,-37.847614 -0.29186,-8.376072 -0.22047,-15.731154 0.15853,-16.344594 0.73092,-1.18273 7.99774,3.46941 9.8273,6.2913 z m 45.782421,-0.151711 c -0.44357,1.107982 -0.7725,0.778901 -0.83911,-0.839101 -0.0604,-1.464098 0.26771,-2.284478 0.72945,-1.822938 0.46141,0.46141 0.51076,1.659468 0.10971,2.662039 z M 62.5,-87.578356 c 0,1.058161 -0.62498,1.923883 -1.38887,1.923883 -0.76388,0 -1.39743,-1.406242 -1.40787,-3.124985 -0.0105,-1.718742 -0.35696,-4.687516 -0.77061,-6.597229 -0.54661,-2.525044 -0.16273,-2.197383 1.40782,1.201102 1.18777,2.570343 2.15953,5.539117 2.15953,6.597229 z m 4.19879,5.736698 C 62.0452,-50.517673 54.44352,-18.329808 48.57481,-5.0987688 41.701,10.398103 40.86415,11.552385 39.95412,6.7919081 39.3641,3.7052337 39.5641,3.4519033 41.40336,4.9585155 c 1.82667,1.4965921 2.0199,1.3057318 1.342,-1.3256719 -0.46352,-1.7990526 0.005,-3.73706533 1.13459,-4.6728067 1.14625,-0.9512913 1.60289,-2.8884641 1.1274,-4.7828468 -1.01024,-4.0251457 1.57465,-8.9916131 4.69428,-9.0194831 1.47664,-0.0157 1.80178,-0.40893 0.85569,-1.041681 -1.68042,-1.123632 -2.07501,-5.881479 -0.48766,-5.881479 0.89171,0 2.63748,-3.934655 3.38929,-7.63891 0.15486,-0.763891 0.602,-2.326404 0.99323,-3.472235 2.23612,-6.54941 3.82504,-12.450098 4.67507,-17.361125 0.52881,-3.055594 1.20078,-6.80558 1.49317,-8.333352 0.29239,-1.527772 1.44026,-7.903101 2.55087,-14.16742 1.11055,-6.264259 2.40205,-12.914868 2.86992,-14.779021 0.49921,-1.988723 0.16903,-3.810825 -0.799,-4.409036 -1.24352,-0.768561 -1.19565,-1.300212 0.19422,-2.159323 1.01433,-0.626871 2.11974,-0.864252 2.45649,-0.527501 0.33648,0.337 -0.20053,6.084049 -1.19418,12.771718 z m -36.150281,-5.588618 c 3.95742,8.946423 4.06147,23.023603 0.34435,46.566416 -1.75275,11.100706 -3.09575,11.487527 -3.21863,0.927042 -0.0572,-4.901587 -0.35328,-19.068267 -0.65801,-31.481515 -0.30498,-12.413198 -0.28766,-22.569482 0.0367,-22.569482 0.32598,0 1.89832,2.950924 3.4937,6.557539 z m 27.763571,2.293073 c 0.0105,0.666461 -0.90935,0.439371 -2.04678,-0.50446 -1.13742,-0.943992 -1.6843,-2.337224 -1.21527,-3.096115 0.86073,-1.392762 3.2201,1.211542 3.26205,3.600685 z m 2.79905,13.289679 c 0,0.718791 -0.62499,1.693183 -1.38892,2.165303 -0.76389,0.471921 -1.38887,-0.11601 -1.38887,-1.306931 0,-1.190912 0.62498,-2.165304 1.38887,-2.165304 0.76393,0 1.38892,0.588141 1.38892,1.306932 z m -121.383099,3.872506 c -1.411863,1.411812 -2.576745,-0.713761 -1.418372,-2.588044 0.875065,-1.415852 1.202205,-1.416952 1.672651,-0.005 0.321784,0.964992 0.207349,2.132133 -0.254069,2.593654 z m -2.668136,4.803257 c -0.44357,1.107931 -0.772493,0.778851 -0.83916,-0.839162 -0.06037,-1.464092 0.268241,-2.284413 0.729501,-1.822892 0.461418,0.461421 0.510761,1.659432 0.109712,2.662054 z m 4.709974,-1.302102 c 0.05669,0.954861 0.361155,3.298584 0.676535,5.208357 0.40525,2.453754 0.220473,2.861154 -0.629659,1.388872 -2.292703,-3.970555 -3.147401,-8.333342 -1.632546,-8.333342 0.815329,0 1.528924,0.781251 1.58567,1.736113 z m -2.774698,6.94447 c 0.05827,1.718742 0.361679,4.374966 0.673543,5.902738 0.311811,1.527822 0.889921,4.652817 1.284304,6.94447 1.492336,8.672452 3.271234,18.204336 4.147192,22.222242 0.73727,3.381634 0.618215,3.710445 -0.631969,1.745302 -0.847296,-1.331812 -2.700367,-8.519332 -4.118005,-15.972253 -4.002257,-21.04103 -4.349344,-23.967544 -2.842677,-23.967544 0.759738,0 1.429134,1.406252 1.487612,3.125045 z M 57.42373,-58.511175 c -0.45249,1.178792 -1.12032,1.845353 -1.48436,1.481312 -0.3643,-0.3643 -0.24987,-1.328562 0.25355,-2.143253 1.3695,-2.215913 2.16997,-1.785462 1.23081,0.661941 z m 11.30798,0.692121 c -0.49502,1.559432 -1.41753,14.21572 -2.05024,28.12503 -0.94609,20.7998198 -1.68383,26.6458681 -4.15548,32.928607 -1.65286,4.201366 -3.63969,9.339383 -4.41512,11.417756 -0.77543,2.078373 -2.03853,3.640895 -2.80688,3.472235 -0.7684,-0.1685 -1.57128,1.633282 -1.7842,4.004366 -0.37375,4.163886 -6.63758,16.404583 -9.20693,17.992565 -0.69155,0.427301 -1.25732,2.332864 -1.25732,4.234396 0,7.466041 -15.452491,33.520888 -26.132181,44.062163 -7.7225199,7.622421 -8.2556399,7.912031 -9.0404699,4.910817 -0.48189,-1.843253 -0.12336,-3.640895 0.84987,-4.259376 0.92614,-0.588561 1.21722,-1.079632 0.64687,-1.091342 -0.57039,-0.0105 1.9296099,-3.022414 5.5555399,-6.690559 5.85286,-5.920898 13.5474,-17.001864 18.36189,-26.443028 2.17911,-4.273236 6.901581,-34.943309 5.380421,-34.943309 -0.64761,0 -1.177481,-0.625041 -1.177481,-1.388922 0,-0.763881 0.703151,-1.232652 1.562521,-1.041682 0.85937,0.191081 1.87795,-0.52073 2.26352,-1.582202 0.48241,-1.327932 0.10341,-1.582842 -1.21528,-0.817701 -1.05396,0.611451 -0.55286,-0.395271 1.11355,-2.237213 2.82409,-3.1215348 14.32519,-26.294848 16.13779,-32.515697 0.44515,-1.527762 1.17937,-5.275697 1.6316,-8.328671 0.4525,-3.052965 1.38929,-7.740481 2.08231,-10.416705 0.69302,-2.676174 2.0189,-7.990772 2.94641,-11.810197 1.55648,-6.409459 3.47658,-10.416715 4.99123,-10.416715 0.34016,0 0.21312,1.275912 -0.28189,2.835384 z M -49.104252,1.845651 c 7.484672,15.512042 8.557008,18.840447 10.068294,31.250074 0.930289,7.638911 2.354542,15.994823 3.16504,18.568737 2.773754,8.808572 15.298587,27.91894 21.944987,33.483677 5.1879799,4.343567 6.5185299,6.335749 6.5185299,9.759904 v 4.302316 l -7.5773699,-7.36284 C -22.095691,84.937899 -37.5,63.279918 -37.5,60.191774 c 0,-0.770871 -0.624987,-1.401572 -1.388871,-1.401572 -0.763885,0 -1.388924,-1.286882 -1.388924,-2.859744 0,-1.807983 -0.589712,-2.495284 -1.603465,-1.868773 -0.987926,0.610601 -1.226719,0.381101 -0.621995,-0.597061 1.018426,-1.647822 -0.653648,-6.196328 -7.487874,-20.368899 -2.210131,-4.583366 -6.841784,-14.40642 -10.292493,-21.829011 l -6.274121,-13.4957087 -0.110761,-25.3932663 c -0.06089,-13.96627 -0.03675,-26.018257 0.05249,-26.782138 0.08871,-0.763891 2.181049,7.673611 4.649291,18.749997 3.67853,16.507423 5.99832,23.269533 12.864672,37.500053 z m -6.451286,-55.669209 c 0,0.701421 0.363779,2.420163 0.807821,3.819425 0.739213,2.328094 0.62126,2.315224 -1.388923,-0.1517 -2.515591,-3.087354 -2.818846,-4.942847 -0.807822,-4.942847 0.763885,0 1.388924,0.573861 1.388924,1.275282 z M 52.0042,-39.563798 c -2.43947,7.363371 -8.04698,19.698818 -13.14184,28.909431 -1.478951,2.6736541 -2.448971,5.9548687 -2.155691,7.2917206 0.63559,2.89685416 -1.02404,3.17790456 -3.2104,0.5435208 -1.19569,-1.440692 -0.90745,-2.7242639 1.21885,-5.4274177 C 36.246829,-10.193736 37.5,-12.135419 37.5,-12.561299 c 0,-0.425721 1.85276,-3.695806 4.11717,-7.266461 2.26446,-3.570715 5.76651,-11.444536 7.78231,-17.497455 2.0158,-6.052978 3.97674,-10.693715 4.35763,-10.312824 0.38111,0.3811 -0.40787,4.014335 -1.75291,8.074241 z M -50,-38.388576 c 0,1.790182 -3.95706,3.406775 -5.228031,2.135803 -0.517586,-0.517581 -0.021,-1.522992 1.101574,-2.233653 C -51.4379,-40.186689 -50,-40.152619 -50,-38.388826 Z m 1.189974,7.05319 c -2.606667,1.651652 -5.356641,1.531392 -5.356641,-0.23413 0,-0.808972 0.581838,-1.111282 1.292914,-0.671811 0.711128,0.43937 1.691811,0.15381 2.179317,-0.635111 0.487664,-0.788821 1.534908,-1.033392 2.327559,-0.543471 0.929239,0.574281 0.771811,1.314862 -0.443044,2.084673 z m 10.595853,18.088526 3.908242,7.8241607 -4.220053,7.3094004 -4.22,7.3093604 -2.949397,-6.6676195 c -3.31286,-7.4892006 -2.94,-10.2220145 0.489764,-3.5896151 3.874278,7.4920307 3.73853,5.0716072 -0.382152,-6.8153897 -2.590971,-7.4740302 0.485039,-11.0311952 4.536798,-5.2465172 1.189134,1.697742 2.142205,2.479003 2.1179,1.736112 -0.08189,-2.498053 -4.198268,-6.87428 -6.481627,-6.89035 -1.244567,-0.0105 -2.558163,-0.896791 -2.91916,-1.973382 -0.459318,-1.370082 0.05302,-1.685253 1.707401,-1.050402 1.926457,0.739271 2.194646,0.330711 1.449817,-2.209233 -0.891391,-3.039694 -0.865092,-3.047984 1.070183,-0.33859 1.091181,1.527772 3.74273,6.298648 5.892284,10.601955 z m 17.402102,-9.560274 c 0.0157,1.363362 0.25407,1.369812 1.10504,0.0315 1.09648,-1.725932 7.02273,-1.510602 11.9487599,0.434121 1.59916,0.631341 2.32998,0.51811 1.83418,-0.283991 -0.92677,-1.499582 20.4383201,-1.163151 22.9038801,0.360631 0.89727,0.554551 1.10478,0.28242 0.51391,-0.673381 -0.58084,-0.939842 -0.12861,-1.603472 1.09234,-1.603472 3.53974,0 3.83758,2.479163 0.57254,4.766096 -3.99984,2.801584 -35.51884,3.146985 -40.35805,0.442001 -1.70835,-0.954861 -3.32499,-1.850823 -3.59244,-1.990973 -0.26772,-0.14016 -0.0745,-0.921371 0.42939,-1.736122 1.25481,-2.030233 3.52462,-1.867353 3.55061,0.25459 z m -29.730134,10.219595 c 1.151601,2.7561735 1.752914,5.3521271 1.336221,5.7687677 -0.659318,0.659371 -4.960683,-8.0470417 -4.960683,-10.0409547 0,-2.224673 1.792914,-0.11129 3.624462,4.272187 z m 63.412334,-1.027512 3.84231,0.877381 -4.88399,7.2368606 C 8.6989491,-0.86364281 6.9444591,3.3773132 6.9444091,6.3047674 c 0,4.4530766 -0.158,4.5748066 -6.24997009,4.8098766 -3.43748001,0.13281 -6.24998011,-0.33596 -6.24998011,-1.041681 0,-0.7055613 1.40625,-1.3267722 3.1249901,-1.3804722 2.98179001,-0.0929 2.99769001,-0.1522302 0.34751,-1.2912419 -1.52782,-0.6565309 -1.9296601,-1.2375817 -0.89307,-1.2912818 1.08955,-0.0562 1.5474,-0.9765414 1.08525,-2.1809531 -0.4399,-1.1458216 -0.15748,-2.083363 0.62782,-2.083363 0.78497999,0 0.99779,-0.6948509 0.47295999,-1.54414215 C -2.010811,-1.673614 1.109609,-3.6612868 5.4741191,-3.6886368 c 3.26016,-0.021 3.28746,-0.0966 0.70977,-1.9814128 -1.47439,-1.0781116 -3.1563801,-1.6662524 -3.7376901,-1.3069319 -0.58137,0.3590505 -1.05701,0.0583 -1.05701,-0.6690309 0,-1.7932326 3.5053001,-3.0083546 8.67842,-3.0083546 2.35654,0 3.94247,-0.34225 3.52436,-0.760151 -1.36346,-1.363522 -28.10829,-1.728672 -30.60556,-0.41785 -2.35286,1.234961 -3.38599,-0.181101 -1.50462,-2.062733 1.14477,-1.144782 26.1247201,-0.921842 31.38866,0.28031 z M -6.9444611,6.9382583 c 0,7.7131307 -0.6674,7.5105607 -1.90646,-0.5786908 -0.55921,-3.6509152 -0.36798,-5.90278843 0.50132,-5.90278843 0.77291,0 1.4053,2.91664413 1.4053,6.48147923 z M 61.97586,17.470663 c -3.02951,6.302109 -6.62168,14.270891 -7.98263,17.708375 -1.41758,3.580685 -2.50562,5.063628 -2.54745,3.472235 -0.0777,-2.950244 13.73328,-32.638946 15.18325,-32.638946 0.47034,0 -1.62367,5.156277 -4.65317,11.458336 z M -71.273438,11.828345 c -0.44357,1.107932 -0.772494,0.778851 -0.83916,-0.839161 -0.06037,-1.464092 0.268241,-2.2844132 0.729501,-1.8228926 0.461417,0.4614207 0.510761,1.6594326 0.109711,2.6620536 z m 6.214803,0.17008 c -1.010551,1.217642 -1.37916,6.64594 -1.039685,15.311362 0.289239,7.383681 -0.0033,13.424949 -0.649974,13.424949 -1.84357,0 -1.336273,-27.859829 0.544514,-29.903562 2.134594,-2.3194735 3.166195,-1.267972 1.145145,1.167251 z m 76.516954,9.459594 c 4.77286,3.928245 5.21181,4.884307 5.24971,11.434446 0.0525,8.715453 -8.1598899,35.620051 -10.8699699,35.620051 -1.0094,0 -1.44903,0.624991 -0.97696,1.388882 1.19182,1.928402 -1.1713901,1.745302 -3.1616201,-0.245151 -1.25254999,-1.252491 -2.28977001,-1.040211 -4.44441,0.909712 -1.5458301,1.398952 -2.8106101,1.857172 -2.8106101,1.018171 0,-1.597642 5.3319701,-5.849568 7.3354401,-5.849568 0.639,0 0.77554,0.624991 0.30341,1.388872 -0.47192,0.763891 -0.30079,1.388932 0.3811,1.388932 2.4492901,0 2.7942301,-1.643943 1.05024,-5.005517 C 2.311809,61.188465 1.659059,52.470393 1.488299,36.44539 1.246829,13.764308 1.338159,12.892857 3.743259,14.98767 c 1.3787901,1.200941 4.8506001,4.112496 7.71517,6.470189 z m -68.402781,5.865728 c 0,0.870811 -1.562467,-1.351862 -3.472178,-4.939267 -4.498006,-8.449462 -4.484882,-10.563015 0.01575,-2.688564 1.900525,3.324465 3.455485,6.75702 3.455485,7.627831 z m 55.114751,9.241803 c -0.13963,12.220908 -0.66383,22.220922 -1.16525,22.222282 -0.50131,10e-4 -0.5906,1.230082 -0.19842,2.730454 0.9284,3.550245 -2.8791101,7.662481 -4.8326001,5.219427 -3.5882399,-4.487456 -8.6351699,-23.358723 -8.5024199,-31.791855 0.13806,-8.782582 1.32709,-15.490152 2.63937,-14.891781 0.38216,0.17428 2.18509,-0.481361 4.0070899,-1.456222 2.61265,-1.398212 2.90614,-2.030293 1.38887,-2.991184 -1.33858,-0.847722 -0.57916,-1.224832 2.49654,-1.239632 l 4.4203101,-0.021 z M 67.72441,23.945322 c -0.28346,6.238009 -0.53638,6.70058 -2.95485,5.406248 -1.52515,-0.816221 -2.05129,-1.793232 -1.24279,-2.307823 0.77113,-0.490811 1.84273,-2.923624 2.38132,-5.406308 1.41375,-6.516329 2.17359,-5.550928 1.81632,2.307883 z m -98.440421,-1.118481 c 1.78278,1.913653 3.36273,2.517323 4.56798,1.745352 1.01339,-0.649081 3.28467,-1.213861 5.0474,-1.255011 2.65166,-0.0619 3.06819,0.46982 2.41292,3.080474 -4.40998,17.570895 -0.0598,38.611135 11.2195799,54.267687 1.29695,1.800163 1.61039,3.124994 0.73937,3.124994 -2.8621,0 -10.6476699,-9.204893 -17.9789499,-21.25657 -4.04063,-6.642209 -7.859847,-12.076807 -8.487091,-12.076807 -0.627297,0 -0.966929,-2.187513 -0.754803,-4.861117 0.212073,-2.673644 -0.101313,-4.861107 -0.696903,-4.861107 -0.595433,0 -0.902257,-1.643252 -0.681785,-3.651705 0.220472,-2.008403 -0.1958,-5.220797 -0.924882,-7.1387 -1.003202,-2.638584 -0.788609,-4.080536 0.881942,-5.926518 1.74273,-1.925673 1.824147,-2.592974 0.386877,-3.168295 -1.271916,-0.509191 -1.313806,-0.761951 -0.139108,-0.838541 0.925145,-0.0604 2.908504,1.206832 4.407563,2.815864 z m 64.86105,5.060637 c -0.48714,4.392336 -1.13407,9.236123 -1.43711,10.763895 -0.30289,1.527773 -0.59879,4.870767 -0.65722,7.428881 -0.0751,3.291295 -1.32446,5.789038 -4.27291,8.543372 -2.29171,2.140743 -4.16667,4.666097 -4.16667,5.611978 0,2.387253 -7.87622,15.114931 -12.2127,19.735248 -1.9716599,2.100743 -4.8268299,3.819485 -6.3448299,3.819485 -2.6020501,0 -2.5673001,-0.21155 0.60708,-3.696175 1.85192,-2.032913 2.58583,-3.246034 1.63098,-2.695854 -2.78814,1.606563 -2.00504,-0.800951 1.51028,-4.643106 6.9871999,-7.636861 11.3532299,-23.152783 11.2575399,-40.006617 -0.0525,-8.942633 -0.15748,-8.785153 6.32939,-9.330983 1.14588,-0.0966 3.33334,-0.908032 4.86116,-1.803573 1.52777,-0.895491 3.00352,-1.647192 3.27942,-1.670452 0.27612,-0.021 0.10289,3.551555 -0.38425,7.943901 z m -85.57811,10.905736 c 0.04724,3.116544 -5.280735,11.896556 -7.594698,12.515607 -0.763885,0.204201 -2.916221,-1.622472 -4.782887,-4.059585 l -3.394016,-4.431187 3.483517,3.124995 c 3.923045,3.519315 6.643255,4.227876 3.99895,1.041681 -0.950971,-1.145831 -1.263464,-2.083313 -0.694435,-2.083313 0.568976,0 0.311286,-0.871291 -0.572336,-1.936223 -1.237796,-1.491392 -1.117323,-2.425783 0.524409,-4.067465 1.172231,-1.172172 2.131286,-3.182625 2.131286,-4.467667 0,-2.083623 0.262992,-2.053603 2.430551,0.277171 1.336798,1.437582 1.961785,2.006823 1.388872,1.264982 -0.572914,-0.741842 -1.041628,-2.280794 -1.041628,-3.419845 0,-1.551603 0.511287,-1.394912 2.039161,0.624991 1.121522,1.482832 2.059002,4.009875 2.083307,5.615648 z M 67.70898,34.137457 c -0.8536,2.563684 -4.74599,2.895434 -4.74599,0.404731 0,-1.183682 1.19003,-2.140584 2.662,-2.140584 1.51202,0 2.41233,0.750022 2.08399,1.736063 z m -0.46929,8.630982 c -0.89691,3.114335 -5.59853,7.688521 -7.90268,7.688521 -0.80661,0 -1.07186,-0.39475 -0.58945,-0.877061 0.48242,-0.482421 0.26037,-2.029513 -0.49344,-3.438115 -1.13207,-2.115333 -0.76273,-2.713554 2.12263,-3.437755 1.92126,-0.482411 3.23092,-1.301152 2.91034,-1.819842 -0.32074,-0.518631 0.62084,-0.943102 2.09207,-0.943102 2.03129,0 2.479,0.680271 1.86068,2.827354 z m -114.809139,2.732084 c 0,1.857273 3.801575,10.552815 8.447874,19.323388 7.034227,13.278018 8.123514,16.215763 6.509398,17.555404 -1.547717,1.284462 -3.005932,0.427821 -7.232652,-4.249036 -8.410762,-9.306523 -11.448609,-13.946479 -12.379423,-18.908326 -0.47769,-2.545984 -1.348556,-4.925727 -1.935381,-5.288408 -1.238582,-0.765511 3.923675,-11.809937 5.520053,-11.809937 0.588556,0 1.070131,1.519582 1.070131,3.376915 z M 53.46242,43.49658 c 0.48661,0.787301 -0.0709,1.020162 -1.30693,0.545881 -2.57916,-0.989771 -2.84798,1.986093 -0.62095,6.87397 1.22373,2.685784 1.01496,4.457276 -1.03076,8.745892 -1.41097,2.957904 -2.57023,5.842529 -2.57622,6.410299 -0.0105,0.964362 -4.20205,6.402059 -11.425351,14.821021 -1.6946,1.975123 -3.10084,2.809874 -3.12499,1.855013 -0.0263,-0.954861 -0.74173,-1.736122 -1.5947,-1.736122 -0.90934,0 -1.27349,1.450502 -0.88042,3.506785 0.57444,3.004984 0.26929,3.379524 -2.13155,2.617533 -2.19354,-0.696221 -2.61365,-0.39895 -1.93485,1.370032 1.04367,2.719734 -8.41439,12.003316 -11.15675,10.950926 -3.41044,-1.308662 -1.75417,-4.372236 5.89822,-10.909876 7.5579,-6.456919 10.15317,-10.550935 21.945511,-34.618739 5.75979,-11.755507 7.79921,-13.89609 9.93974,-10.432615 z M -62.626772,60.179174 c 2.254121,0 7.147454,11.999077 10.561313,25.897567 1.998372,8.135871 5.152178,18.827539 7.008451,23.759189 1.856273,4.93167 2.929029,9.6827 2.383885,10.55777 -1.467664,2.35601 -0.578426,7.56137 2.822362,16.5217 1.667086,4.39234 3.882363,7.9861 4.922835,7.9861 1.218321,0 1.565512,-0.85019 0.975329,-2.38819 -0.503937,-1.31355 -0.478216,-1.94992 0.05774,-1.41418 0.535748,0.53575 2.215433,-0.42099 3.732596,-2.12567 1.87465,-2.10646 2.95827,-2.54342 3.38179,-1.36363 0.34278,0.95487 1.2726,1.73613 2.0664,1.73613 0.87108,0 0.75759,-0.82609 -0.28661,-2.08405 -1.44625,-1.74263 -0.52493,-3.27832 5.62509,-9.37497 7.43344,-7.36904 7.03879,-5.52038 -0.58661,2.74792 -4.03444,4.37461 -4.07313,4.55151 -1.59328,7.29167 1.39779,1.54457 3.419,2.8083 4.49149,2.8083 1.07255,0 1.66504,0.46877 1.31675,1.04168 -0.34856,0.57291 0.90603,2.19569 2.78745,3.6062 2.37192,1.77822 3.2992699,1.99113 3.0245199,0.69444 -0.2178499,-1.02857 0.66162,-3.45361 1.95454,-5.38904 1.29291,-1.93543 2.54183,-4.74794 2.77533,-6.25004 0.23359,-1.50204 0.95107,-3.57533 1.5945901,-4.60725 0.76352,-1.2243 0.14646,-2.89984 -1.7762701,-4.82252 -1.62053,-1.62048 -2.94636,-2.53959 -2.94636,-2.04242 0,0.49711 0.98216,1.88599 2.18252,3.08641 2.6188001,2.61879 0.72819,2.90709 -2.68708,0.40997 -2.9520199,-2.15853 -1.8075599,-5.99518 2.0926,-7.01512 1.53165,-0.40053 3.1237701,-2.02462 3.5381601,-3.6091 0.41417,-1.58446 1.34756,-2.88084 2.07386,-2.88084 0.72623999,0 0.9969,1.09376 0.60146999,2.43056 -1.56335999,5.28489 -1.37653999,18.92412 0.26666001,19.47184 0.90971001,0.30341 1.70326,-0.28189 1.76347,-1.30053 0.15643,-2.64951 -0.24095,-18.02801 -0.54634999,-21.1468 -0.14174,-1.44556 0.62329999,-2.93712 1.69988999,-3.31455 1.3553801,-0.47507 1.6877701,0.0158 1.08063,1.5987 -0.9727,2.5348 1.1142301,9.20526 2.8799501,9.20526 0.61911,0 1.12567,-1.25003 1.12567,-2.77781 0,-1.52777 -0.45197,-2.77779 -1.00499,-2.77779 -0.5527,0 -0.96031,-1.09371 -0.90583,-2.43056 0.0546,-1.33679 -0.36378,-3.52431 -0.92934,-4.86111 -1.2223601,-2.88871 1.02325,-3.2537 3.281,-0.53323 0.86609,1.04357 8.4426199,6.13161 16.8367399,11.30685 8.39418,5.17517 15.262101,10.21822 15.262101,11.20667 0,2.99917 -2.62761,8.92253 -3.958061,8.92253 -0.68692,0 -4.92115,-3.77984 -9.40939,-8.39969 -7.20058,-7.41182 -15.3779,-13.48217 -16.41948,-12.18883 -3.2671399,4.05659 -7.52661,13.59539 -6.3858199,14.30044 0.79779,0.49291 1.4505,2.1316 1.4505,3.64116 0,1.50955 1.00524,4.2788 2.2338,6.15386 2.059,3.14242 2.05444,3.47806 -0.0588,4.28888 -1.26079,0.48399 -5.3910301,0.58195 -9.1782201,0.21785 -5.1888201,-0.49869 -6.8858801,-0.19842 -6.8858801,1.21785 0,2.36373 -0.14225,2.35564 -7.0287599,-0.39947 -4.05932,-1.62427 -5.16488,-2.61587 -3.84751,-3.45099 1.01664,-0.64451 1.22352,-1.23349 0.45984,-1.30881 -0.76393,-0.0756 -2.95139,-0.31077 -4.86115,-0.52336 -2.06546,-0.22993 -5.06284,0.94257 -7.39822,2.89349 -2.159316,1.80384 -4.418634,3.27969 -5.020786,3.27969 -0.602152,0 -3.135277,-4.6799 -5.629188,-10.39981 -3.685826,-8.45355 -4.365354,-11.45712 -3.631076,-16.0491 0.603412,-3.77344 0.219423,-7.12253 -1.156588,-10.08631 -1.132965,-2.44038 -4.854173,-14.046794 -8.269291,-25.79201 -4.21958,-14.511991 -7.283412,-22.522972 -9.56126,-25.000036 -4.247979,-4.619326 -7.944672,-10.124474 -7.944672,-11.831147 0,-0.724881 1.933859,1.601683 4.297533,5.170198 2.363675,3.568455 4.747717,6.488089 5.2979,6.488089 z m 16.970604,14.849941 c 1.295223,1.596752 1.349711,2.015653 0.170079,1.306932 -3.651759,-2.193863 -1.436588,1.301942 6.443097,10.167944 l 8.179211,9.203113 -5.054223,1.616273 c -4.347665,1.390342 -5.300579,1.285462 -6.816694,-0.750031 -0.969396,-1.301522 -2.54336,-3.303835 -3.497743,-4.449667 -0.954383,-1.145821 -1.540682,-3.078324 -1.30294,-4.294386 0.237796,-1.216122 -0.466666,-2.957174 -1.565406,-3.869035 -1.591444,-1.320792 -1.697376,-2.636384 -0.520735,-6.469509 0.812231,-2.646354 1.607821,-4.811557 1.768084,-4.811557 0.160105,0 1.149134,1.057481 2.197532,2.349923 z M 47.0674,85.951811 c -0.92372,2.248663 -1.54997,4.878116 -1.39165,5.843208 0.15853,0.965091 -0.6789,2.125723 -1.86058,2.579164 -1.18168,0.45355 -2.1485,1.761942 -2.1485,2.907774 0,1.416432 -0.77806,1.782362 -2.43055,1.143051 -4.796641,-1.855652 -9.746881,-2.391343 -10.521101,-1.138591 -0.4336,0.701791 2.5579,2.917223 6.64803,4.923213 l 7.436641,3.6473 -1.45286,5.98059 c -0.79906,3.28934 -1.95502,6.53791 -2.56882,7.21906 -0.62961,0.69864 -4.079691,-0.66336 -7.915801,-3.12499 -7.17355,-4.60326 -9.44887,-5.40704 -7.81292,-2.75995 0.61234,0.99076 0.38111,1.22656 -0.60498,0.61706 -0.87785,-0.54252 -2.29712,-2.29633 -3.15397,-3.89739 -1.29286,-2.41574 -1.19905,-2.77333 0.55118,-2.10167 2.87092,1.10162 4.0914,-0.40998 2.1852,-2.70704 -1.22814,-1.47984 0.84242,-4.3157 9.72704,-13.322281 C 37.96173,85.46709 44.13801,78.75558 45.47885,76.845868 l 2.43784,-3.472235 0.41523,4.244836 c 0.22834,2.334643 -0.34068,6.084628 -1.26441,8.333342 z m -74.845191,-0.772602 c -1.46798,2.742994 -4.16667,3.822476 -4.16667,1.666673 0,-1.460632 3.01664,-4.444466 4.49333,-4.444466 0.63801,0 0.49082,1.250021 -0.32651,2.777793 z m 31.9003101,8.465312 c 0.0315,4.494817 -0.7183701,7.072029 -2.5344901,8.715599 -3.32246,3.00684 -5.03139,1.04479 -6.2943801,-7.226726 -0.77591,-5.081578 -0.4357,-6.5198 2.1846701,-9.242584 2.83774,-2.948454 3.25323001,-3.027774 4.85176,-0.926401 0.96152,1.263992 1.7681401,5.170028 1.7924401,8.680112 z m -28.4144301,-7.09848 c -0.46457,0.751751 1.43438,3.646036 4.22,6.43166 3.74708,3.747095 4.59711,5.353807 3.26708,6.175808 -1.13916,0.704041 -3.42892,-0.32126 -6.25071,-2.798794 -2.44918,-2.150403 -5.29485,-4.248456 -6.32378,-4.662266 -1.35958,-0.546821 -0.92199,-1.530972 1.60153,-3.601945 3.87816,-3.182685 4.73218,-3.561055 3.48588,-1.544463 z m 0.11916,11.347777 c 0.61396,0.993501 0.3811,1.226461 -0.6125,0.6125 -0.88189,-0.54504 -1.60346,-0.36588 -1.60346,0.397901 0,0.763881 0.66761,1.801471 1.48357,2.305771 0.81596,0.50446 1.11769,1.8704 0.67044,3.03581 -0.44724,1.16536 -0.15118,2.91638 0.65775,3.89108 1.12099,1.35076 -0.31706,2.79523 -6.04788,6.07397 -7.36215,4.21219 -10.947033,5.34054 -10.357741,3.26012 0.162205,-0.57293 -0.484515,-2.44794 -1.437743,-4.16668 -0.953018,-1.71879 -1.321785,-3.12505 -0.819423,-3.12505 0.502363,0 0.141733,-0.9295 -0.800997,-2.06562 -1.580105,-1.90393 -0.850289,-7.5663 0.766824,-5.94919 0.393701,0.3937 4.285407,-0.75187 8.647875,-2.54604 9.446145,-3.884936 8.252655,-3.667195 9.453285,-1.724572 z m 20.90724,7.461752 c 1.20619,3.14325 -6.2305501,13.15702 -9.77108,13.15702 -2.99464,0 -11.75396,7.31366 -17.10656,14.28328 l -2.969499,3.86656 -3.466299,-3.4663 c -3.618794,-3.6188 -3.700894,-9.128 -0.135958,-9.128 1.017375,0 3.560052,-1.58498 5.650396,-3.52225 2.09029,-1.93722 4.60246,-3.21455 5.58262,-2.83843 0.98011,0.37638 2.21113,-0.0105 2.73554,-0.85901 0.61759,-0.99921 0.31286,-1.14693 -0.86457,-0.41942 -1.21202,0.74908 -1.48304,0.58157 -0.81307,-0.50237 0.55276,-0.89438 1.60546,-1.25501 2.33937,-0.80147 1.32971,0.82179 17.1993699,-8.90552 16.1845699,-9.92037 -0.29344,-0.29344 -2.52357,0.0367 -4.9555899,0.73448 -5.07438,1.45528 -5.94877,0.59743 -1.2969,-1.27244 4.7543299,-1.91103 7.9856099,-1.66064 8.88708,0.68861 z m 14.58829,20.02517 c -4.8705999,4.16651 -5.1368999,7.67607 -0.85217,11.23208 1.11627,0.92641 2.02955,2.30936 2.02955,3.07324 0,2.43785 -3.7852499,-1.62179 -5.6022099,-6.0083 -1.59805,-3.85807 -1.42566,-4.50941 2.19376,-8.28726 2.1604699,-2.25507 4.5924899,-4.0747 5.4044099,-4.04368 0.81197,0.0315 -0.61607,1.8463 -3.17334,4.03392 z m -18.2670801,6.45928 c 0,2.3643 -4.2654099,10.30452 -5.5077699,10.25281 -0.4084,-0.0157 -2.30473,-1.32015 -4.21444,-2.89601 -3.39422,-2.80074 -3.40199,-2.84982 -0.3475,-2.18247 2.48173,0.54215 3.12939,0.0661 3.1463,-2.31234 0.0157,-2.44278 0.26929,-2.61087 1.36761,-0.9116 0.97832,1.51381 1.35218,1.58635 1.36761,0.26509 0.0105,-0.99995 0.63911,-1.43622 1.3942799,-0.96955 0.78729,0.48661 1.0201,-0.0709 0.54582,-1.30693 -0.45511,-1.18552 -0.13543,-2.15544 0.71034,-2.15544 0.84562,0 1.53749,0.99727 1.53749,2.21623 z m 31.3108101,4.62981 c -0.52073,0.84289 -1.39926,1.25313 -1.95176,0.91166 -0.55254,-0.34121 -1.0991,0.63307 -1.21454,2.16568 -0.18268,2.42377 0.0961,2.54687 2.14226,0.94545 1.29365,-1.01259 2.97711,-2.4736 3.74105,-3.24662 0.76388,-0.77307 1.23045,-1.13543 1.0368,-0.8053 -0.1937,0.33018 0.69674,2.21261 1.97863,4.18326 1.96977,3.02809 1.99171,3.30546 0.14173,1.79066 -1.83842,-1.50546 -3.23328,-1.13003 -8.71254,2.34478 -7.2305,4.58547 -18.49129,7.55313 -23.6999,6.24583 -5.9819901,-1.50136 -3.6077101,-3.15664 3.58966,-2.50257 6.2020001,0.56357 7.3928101,0.20997 10.76389,-3.19728 2.08472,-2.10703 4.25916,-3.68488 4.83207,-3.5063 0.57291,0.17848 1.04163,-0.98383 1.04163,-2.58315 0,-1.73429 1.1148,-3.19933 2.76215,-3.63014 1.54336,-0.40367 2.37276,-1.41874 1.87958,-2.30052 -0.62373,-1.11544 -0.36955,-1.10462 0.86682,0.0367 0.96221,0.8883 1.32321,2.30478 0.80226,3.14767 z"
       id="path710" /></g></svg>
