<?xml version="1.0" encoding="UTF-8" standalone="no"?>
<!-- Created with Inkscape (http://www.inkscape.org/) -->

<svg
   width="210mm"
   height="297mm"
   viewBox="0 0 210 297"
   version="1.1"
   id="svg720"
   xml:space="preserve"
   inkscape:version="1.2.2 (732a01da63, 2022-12-09)"
   sodipodi:docname="Brunhild.svg"
   xmlns:inkscape="http://www.inkscape.org/namespaces/inkscape"
   xmlns:sodipodi="http://sodipodi.sourceforge.net/DTD/sodipodi-0.dtd"
   xmlns="http://www.w3.org/2000/svg"
   xmlns:svg="http://www.w3.org/2000/svg"><sodipodi:namedview
     id="namedview722"
     pagecolor="#ffffff"
     bordercolor="#000000"
     borderopacity="0.25"
     inkscape:showpageshadow="2"
     inkscape:pageopacity="0.0"
     inkscape:pagecheckerboard="0"
     inkscape:deskcolor="#d1d1d1"
     inkscape:document-units="mm"
     showgrid="false"
     inkscape:zoom="1.6819304"
     inkscape:cx="486.94048"
     inkscape:cy="716.43868"
     inkscape:window-width="2560"
     inkscape:window-height="1494"
     inkscape:window-x="-11"
     inkscape:window-y="-11"
     inkscape:window-maximized="1"
     inkscape:current-layer="layer1" /><defs
     id="defs717" /><g
     inkscape:label="레이어 1"
     inkscape:groupmode="layer"
     id="layer1"><path
       style="fill:#000000;stroke-width:1.42781"
       d="M -69.913457,-152.58744 -75,-148.12137 l 0.39664,92.982281 0.39664,92.982335 4.547544,9.280786 c 2.501099,5.104463 7.026302,13.135908 10.055983,17.84767 5.040565,7.839125 14.666665,29.592868 14.666665,33.14477 0,0.819401 -3.533819,4.508848 -7.852984,8.198848 -6.577586,5.61939 -7.852985,7.47443 -7.852985,11.42178 0,3.17561 -0.960625,5.35178 -2.945173,6.6717 -1.961183,1.30444 -3.218234,4.10569 -3.76236,8.38411 -0.449525,3.53382 -1.384624,7.14757 -2.078123,8.03054 -0.693499,0.88297 -1.40988,4.73809 -1.591956,8.56688 l -0.330803,6.96156 5.940101,0.43279 c 4.797778,0.34969 6.58255,-0.24608 9.280781,-3.09741 1.837387,-1.9416 6.005345,-4.23153 9.262108,-5.08865 3.256765,-0.85718 6.274954,-2.47984 6.707044,-3.60597 0.43226,-1.12608 3.22887,-2.47007 6.21505,-2.98667 3.49103,-0.60392 6.71946,-2.45156 9.04313,-5.17543 3.52318,-4.12997 3.77919,-4.19452 10.21361,-2.57434 3.84509,0.96824 8.2587996,3.39353 10.5745296,5.8106 4.97547988,5.19323 6.5927999,5.19118 10.9728398,-0.0162 1.9265399,-2.28961 5.8549396,-4.81236 8.7297996,-5.60612 4.84295,-1.33725 5.40548,-1.16251 7.65666,2.37812 3.09407,4.86615 4.59887,5.91414 8.53095,5.94118 1.79928,0.0108 4.1951,1.5715 5.51853,3.59135 1.31668,2.00948 3.70591,3.56954 5.46677,3.56954 1.7204,0 5.30516,1.60631 7.966149,3.56955 5.96007,4.39715 13.52586,4.78753 15.65573,0.80775 2.17818,-4.06997 1.79675,-12.33001 -0.66365,-14.37198 -1.2019,-0.99748 -2.14175,-4.10995 -2.14175,-7.09263 0,-3.50182 -0.97423,-6.19681 -2.85559,-7.89945 -1.57064,-1.42138 -2.85565,-4.22959 -2.85565,-6.24048 0,-2.42474 -2.20402,-5.8938 -6.54407,-10.30012 l -6.544079,-6.64397 3.49103,-6.96932 C 50.18917,90.950928 52.82982,84.545424 54.13733,80.549672 55.44478,76.553859 60.67374,67.020194 65.75726,59.363799 L 75,45.443021 v -96.474068 -96.474113 l -3.64218,-4.77517 -3.64224,-4.77517 H 1.4446015 -64.826374 Z m 33.601559,-0.5404 c -26.167015,0.39718 -27.974668,0.60041 -31.054969,3.49421 l -3.270687,3.07265 -0.344294,77.923923 -0.344295,77.9239862 -0.382069,-77.7247962 -0.38207,-77.724803 3.849081,-4.01757 3.849134,-4.01761 27.932189,0.32433 27.9321497,0.32433 z m 102.381508,6.05959 c 2.15432,2.60541 2.17126,26.96187 0.0216,29.63663 -0.78928,0.98161 -2.80205,1.78612 -4.4728,1.78779 -2.8442,0.003 -3.00847,-0.61131 -2.57767,-9.63776 0.34699,-7.27379 1.10843,-10.16656 3.10097,-11.78248 3.15331,-2.55728 4.3101,-8.76569 1.79324,-9.624 -1.11723,-0.38099 -1.78477,0.73943 -1.78477,2.99558 0,5.03776 -2.56278,6.10577 -3.11538,1.29833 -0.56398,-4.90603 -3.4158,-4.43119 -3.02812,0.50403 0.3756,4.78332 -2.90842,3.65708 -3.85118,-1.32067 -0.53209,-2.80983 -1.22624,-3.44948 -2.726509,-2.51276 -1.68737,1.0535 -1.71338,1.97899 -0.16135,5.72646 1.018309,2.45841 2.969129,5.06803 4.335139,5.79909 2.11422,1.13148 2.29797,2.32351 1.23508,8.01278 -0.85156,4.55823 -0.73996,7.29645 0.35077,8.61092 1.31053,1.57906 0.14895,1.92735 -6.428209,1.92735 -8.33359,0 -10.07449,-1.55326 -5.17218,-4.61479 1.57058,-0.98086 2.85559,-2.67124 2.85559,-3.75647 0,-1.63017 -0.38909,-1.65008 -2.23921,-0.11495 -2.00732,1.66594 -2.20613,0.61207 -1.91984,-10.17682 0.27683,-10.43476 -0.0108,-12.09951 -2.15692,-12.51855 -2.21546,-0.43225 -2.42684,0.73133 -2.00662,11.04974 0.37722,9.26342 0.0772,11.46593 -1.52396,11.19195 -3.00189,-0.51374 -3.44575,2.58248 -0.75583,5.2724 3.19762,3.19762 2.05886,3.92906 -5.29274,3.39966 l -6.19762,-0.44628 4.19554,-3.87628 c 2.30747,-2.13193 3.77514,-4.29661 3.26135,-4.81036 -0.51375,-0.51374 -1.97435,0.10631 -3.24581,1.37756 -1.27141,1.27146 -2.42641,2.31211 -2.56667,2.3126 -0.14031,5.4e-4 -0.10793,-5.78209 0.0712,-12.85034 0.26712,-10.53491 -0.0545,-12.85124 -1.78478,-12.85124 -1.73463,1.1e-4 -2.11082,2.7992 -2.11082,15.70604 v 15.70597 h -3.74439 c -2.82575,0 -3.38455,-0.43766 -2.27785,-1.78477 2.15869,-2.62706 1.4864,-28.52253 -0.75987,-29.27069 -1.3441,-0.44791 -1.82654,3.04873 -1.9539,14.15966 -0.0928,8.11473 -0.0928,15.23595 0,15.82492 0.28871,1.82898 -76.866284,1.70859 -78.697681,-0.12304 -1.343773,-1.34382 -2.304613,-28.82666 -0.979188,-28.00754 0.545366,0.33728 1.287757,-0.51967 1.649806,-1.90435 0.616546,-2.35767 4.720555,-2.51557 64.7709235,-2.4921 55.3546385,0.0216 64.3556085,0.31893 65.8913885,2.1763 z m -126.712485,15.09774 c 0,14.97206 0.02698,15.08107 3.212622,14.15406 3.75815,-1.09283 8.209906,-5.83379 8.209906,-8.74318 0,-1.11626 -1.371348,-2.53688 -3.047435,-3.15688 -3.012899,-1.11453 -3.004804,-1.16078 0.713952,-4.08599 2.068678,-1.62725 3.761279,-3.59308 3.761279,-4.36844 0,-1.694 -9.168264,-8.88781 -11.327227,-8.88781 -0.982803,0 -1.523097,5.3521 -1.523097,15.08824 z m 6.840447,-4.02269 c -2.394086,2.88932 -3.253743,2.09637 -3.548012,-3.27268 l -0.277378,-5.05643 2.652037,3.27214 c 1.892971,2.3357 2.228739,3.78298 1.173137,5.05697 z m -0.545258,11.98982 c -1.294288,2.09415 -3.392055,1.32726 -2.528081,-0.92425 0.452224,-1.17794 0.07285,-2.14175 -0.842981,-2.14175 -0.915672,0 -1.207567,-0.73986 -0.648709,-1.64409 0.706613,-1.14329 1.588179,-0.86176 2.894177,0.92425 1.032882,1.41258 1.539448,3.11624 1.125594,3.78584 z m 9.386442,-22.6536 c -0.01079,0.1716 -0.173766,6.89824 -0.356706,14.94799 -0.377212,16.60217 0.893762,18.20713 8.003112,10.10514 l 3.97428,-4.52919 -2.77157,-3.74876 c -2.70481,-3.65849 -2.70832,-3.86749 -0.14678,-8.67812 3.06373,-5.75333 3.29551,-7.07103 1.24394,-7.07103 -0.82534,0 -2.44028,2.24881 -3.5887,4.99734 -2.65906,6.36404 -3.9514,6.3805 -3.21128,0.0432 0.3729,-3.19228 -0.0799,-5.20915 -1.27162,-5.66645 -1.01761,-0.3907 -1.861184,-0.56954 -1.874568,-0.39772 z m 5.043376,16.77394 c 2.23802,4.3278 1.72395,7.679 -1.03672,6.7588 -1.38133,-0.46032 -3.11516,-11.08419 -1.809,-11.08419 0.33512,0 1.61548,1.9464 2.84572,4.32539 z m 10.17216,-16.18503 c -0.50241,0.50241 -0.91308,7.23115 -0.91308,14.95323 0,10.35657 0.47327,14.04019 1.80318,14.04019 3.11537,0 9.50651,-13.69239 10.36881,-22.21417 0.50079,-4.94893 0.17539,-6.34213 -1.4817,-6.34213 -1.56012,0 -2.1234,1.67975 -2.1234,6.3322 0,3.48272 -0.73268,8.14101 -1.62817,10.35167 l -1.62817,4.01945 -1.00217,-3.56955 c -0.55125,-1.96323 -0.73543,-6.5546 -0.4096,-10.20299 0.54926,-6.14608 -0.82258,-9.53123 -2.98591,-7.3679 z m 31.9185695,4.95854 -0.005,6.18721 -5.6012599,0.2083 c -3.62205,0.13437 -5.4271699,-0.3702 -5.1085599,-1.4278 2.2067799,-7.32688 2.1332799,-9.48892 -0.32271,-9.48892 -2.1362997,0 -2.4541497,1.03127 -2.0159497,6.54057 0.42955,5.39748 -0.0108,6.91173 -2.51227,8.66457 -1.66789,1.16822 -2.64324,2.75381 -2.16755,3.52345 0.54483,0.88157 1.61047,0.78071 2.8795,-0.27252 1.6789,-1.39331 2.01466,-0.69096 2.01466,4.21415 0,3.2477 0.6883197,5.88609 1.5356697,5.88609 0.92663,0 1.37896,-2.54751 1.1406,-6.42357 -0.4193,-6.82038 1.4724799,-10.18751 4.9699299,-8.84541 1.3318399,0.51106 1.8391599,1.91619 1.3572599,3.75913 -0.43819,1.67447 -0.0826,2.94296 0.82469002,2.94296 0.87691998,0 1.59437996,-0.64255 1.59437996,-1.42785 0,-0.78529 0.58136002,-1.42779 1.29192002,-1.42779 0.7105999,0 0.9472399,2.57006 0.5261499,5.71124 -0.5907499,4.40437 -0.2892499,5.71129 1.31792,5.71129 1.51733,0 2.1084,-1.81829 2.17375,-6.68724 0.0594,-4.41663 0.86997,-7.25776 2.3875099,-8.36739 3.0456997,-2.22707 2.9298397,-3.90056 -0.20129,-2.90432 -2.1058599,0.67013 -2.4986699,-0.13599 -2.4986699,-5.12675 0,-3.46178 -0.74148,-6.17415 -1.78477,-6.52912 -1.24594,-0.42417 -1.7871999,1.26072 -1.7928699,5.57994 z m 5.7193298,13.41054 c 0,1.2243 0.65302,1.82239 1.45111,1.32915 0.7981297,-0.49324 1.0814497,-1.49498 0.62966,-2.22599 -1.22398,-1.98044 -2.08077,-1.61116 -2.08077,0.89684 z M 73.49568,-52.466058 c 0.0216,55.2990334 -0.48029,92.347165 -1.23827,91.152935 -1.75596,-2.766882 -1.90544,-184.317827 -0.15164,-184.317827 0.83575,0 1.36611,35.54721 1.39002,93.164892 z M -55.116251,-89.111779 c -0.09066,14.671748 0.731923,25.175315 3.042957,38.841813 l 3.167615,18.731941 -3.086668,4.994263 c -2.628239,4.252572 -2.874857,5.799683 -1.660761,10.417766 2.881387,10.9601666 7.285708,35.131421 7.195318,39.488414 -0.08149,3.922802 -0.713035,3.153911 -5.030257,-6.123684 -2.7155,-5.835414 -4.684615,-11.2968568 -4.375883,-12.1364373 0.308677,-0.8396405 -0.350231,-3.7677622 -1.46406,-6.5070039 -2.139698,-5.2613431 -4.379661,-13.5925078 -5.57093,-20.7202728 -0.393942,-2.355881 -1.422885,-7.817314 -2.286913,-12.136427 -0.864081,-4.319112 -1.641064,-22.630883 -1.726598,-40.692694 -0.145164,-30.647179 0.02698,-32.990699 2.562241,-35.100709 2.13225,-1.77377 3.433175,-1.92757 6.038209,-0.7139 3.254228,1.51619 3.31796,1.9478 3.19573,21.656931 z m 41.591233,-22.263551 c 1.55963,1.01659 0.32109,1.40195 -4.55613,1.41787 -3.68378,0.0108 -7.0896,0.65578 -7.56843,1.43049 -0.47866,0.77477 -0.15757,3.82674 0.71423,6.78211 0.87163,2.955435 1.92993,7.288907 2.35183,9.629949 0.422,2.341091 2.03393,6.035563 3.58222,8.209965 1.5483,2.174391 2.47326,3.953452 2.05546,3.953452 -0.41768,0 -2.46559,-2.409421 -4.55062,-5.354273 -2.08503,-2.944902 -3.43091,-4.275563 -2.99083,-2.957042 0.43982,1.318521 1.23191,4.698813 1.75963,7.511825 1.13153,6.031413 2.42371,7.088314 7.2005,5.889433 2.32917,-0.5846 3.17134,-1.488561 2.45312,-2.633102 -0.60149,-0.95862 -0.90623,-2.881601 -0.67715,-4.273292 0.22881,-1.391701 -0.30112,-2.355512 -1.17777,-2.141751 -0.87682,0.2137 -2.4949,-1.699511 -3.59572,-4.251713 -1.86933,-4.333952 -1.81753,-4.640423 0.78518,-4.640423 2.0206,0 2.78668,0.981351 2.78668,3.569542 0,1.963242 0.68293,3.569553 1.51754,3.569553 0.83467,0 1.31658,-1.438641 1.07088,-3.196922 -0.24824,-1.778191 0.34537,-3.283152 1.33805,-3.391082 0.98167,-0.10685 2.4273297,-0.274141 3.2126197,-0.372361 0.7852899,-0.0982 1.4277999,-0.80083 1.4277999,-1.561521 0,-0.76063 -1.0692,-0.97271 -2.3759599,-0.47111 -1.4666997,0.562851 -2.0230797,0.34106 -1.4538597,-0.58023 0.5072697,-0.820581 2.5521497,-1.491961 4.5444196,-1.491961 2.91155,0 3.3025799,0.38531 1.99291,1.963241 -0.89614,1.079771 -1.06877,1.972021 -0.38369,1.982761 0.68514,0.0108 2.7918599,0.433341 4.68153989,0.938831 2.33029991,0.6235 3.12147991,0.41067 2.45867991,-0.661771 -1.3935299,-2.254811 2.65717,-3.976122 13.8704196,-5.894183 7.00142,-1.197581 10.29607,-1.234821 11.62571,-0.13113 1.45488,1.207401 2.22771,-0.0108 3.57947,-5.646435 1.36811,-5.70287 2.3221,-7.18631 4.62169,-7.18631 2.73741,0 2.84226,0.57251 1.89535,10.35166 -0.55131,5.693437 -2.56921,15.045242 -4.48419,20.781846 l -3.48186,10.430126 4.457,3.750322 c 7.08879,5.964824 8.69138,7.828815 10.70463,12.450508 2.13938,4.911383 2.25027,4.829083 2.80115,-2.079692 0.21909,-2.748521 0.87687,-6.603593 1.461569,-8.566885 0.58466,-1.963231 1.47885,-13.528508 1.98709,-25.700665 0.85534,-20.48514 1.33972,-20.03167 2.28799,2.141751 0.48083,11.249797 -1.89065,32.176909 -4.477709,39.509464 -1.13045,3.204102 -2.05541,7.351174 -2.05541,9.215655 0,3.699323 -2.09237,4.582893 -3.31397,1.399461 -2.24163,-5.841563 -15.21014,-20.357732 -22.2549,-24.910785 -7.09731,-4.587052 -9.2239,-5.221083 -19.1336896,-5.704443 -10.2187398,-0.49863 -11.9189997,-0.16459 -20.3794194,4.000292 -7.19159,3.540402 -10.54387,6.334374 -15.17609,12.648348 -3.27009,4.457313 -6.46777,8.318375 -7.106,8.580105 -0.63824,0.26173 -1.16041,1.307511 -1.16041,2.323881 0,1.016321 -0.92425,2.614962 -2.05389,3.552442 -1.705173,1.415171 -2.35998,0.657021 -3.856959,-4.465582 -0.991707,-3.393562 -2.155616,-6.491354 -2.586524,-6.883994 -0.95636,-0.871531 -1.269408,-6.513214 -2.131979,-38.419053 -0.500792,-18.524882 -0.25957,-24.442482 0.946863,-23.235942 1.20654,1.20654 2.191071,1.17918 3.865863,-0.10739 1.630702,-1.25268 1.561682,-0.9188 -0.251475,1.21728 -1.374263,1.61889 -2.488849,3.53539 -2.476815,4.25884 0.01079,0.72345 0.644716,0.35185 1.405941,-0.82636 0.976166,-1.51042 1.39056,0.46355 1.405994,6.697875 0.01079,5.117363 -0.665924,9.264655 -1.611492,9.849036 -1.162398,0.71838 -1.363901,5.727433 -0.698841,17.37176 1.073518,18.796481 2.244766,22.526083 5.175908,16.48178 1.065906,-2.198042 1.851416,-4.401843 1.745536,-4.897293 -0.28385,-1.327531 5.54962,-6.331834 6.62621,-5.684534 0.50673,0.304361 1.62083,-0.81605 2.47617,-2.490201 0.85539,-1.674141 1.95999,-2.639192 2.45463,-2.144551 1.23795,1.23789 -1.1911,-6.978005 -3.13923,-10.618137 -0.87147,-1.628441 -1.58456,-4.609282 -1.58456,-6.624164 0,-2.014881 -0.50511,-3.663392 -1.12182,-3.663392 -1.80085,0 -2.55279,-10.820559 -1.14248,-16.439739 1.13126,-4.50728 6.54774,-5.00807 6.54774,-0.60537 0,4.19623 4.38139,17.045109 5.81226,17.045109 0.6601,0 0.26497,-2.650851 -0.87822,-5.890783 -2.50682,-7.105036 -2.69116,-13.656396 -0.40581,-14.418216 3.57677,-1.19229 10.566,-1.02171 12.60543,0.3076 z m 38.591069,24.496062 c -3.56523,7.509344 -7.61678,10.338176 -11.7257,8.186875 -2.94388,-1.541341 -9.1934096,-1.616671 -15.6212995,-0.18834 -4.1647799,0.92549 -3.3652899,1.20017 5.8896999,2.023461 5.8897499,0.524 12.7103896,1.387321 15.1569796,1.918661 3.86986,0.84039 4.55095,0.53101 5.23727,-2.380441 0.43388,-1.840512 1.83048,-6.159144 3.10345,-9.596856 3.20744,-8.662025 2.0798,-8.641845 -2.0404,0.0378 z m -20.2971696,2.191881 c 1.03067,0.41229 2.26219,0.36157 2.7366499,-0.11278 0.47435,-0.47435 -0.3691199,-0.8119 -1.8740299,-0.74989 -1.6633,0.0685 -2.00165,0.40689 -0.86262,0.86262 z M 27.700931,-110.59225 c 0.36102,0.36103 -8.28508,0.64682 -19.2137797,0.63479 -10.9287598,-0.0108 -19.0586893,-0.53695 -18.0665496,-1.16693 1.83081,-1.16218 36.0748093,-0.67337 37.2803293,0.53209 z m 35.162099,-0.77115 c -0.48514,0.78529 0.0815,1.42779 1.25932,1.42779 3.04927,0 4.47097,2.94243 2.13619,4.42122 -1.23606,0.78297 -1.34825,1.25446 -0.30166,1.26822 1.77203,0.0216 2.03959,27.490298 0.28493,29.245009 -0.49594,0.49594 -0.38585,3.279492 0.24446,6.185644 1.38376,6.378403 1.05814,18.853201 -0.5588,21.409342 -0.64272,1.016051 -0.5498,2.622362 0.20668,3.569553 1.22397,1.53313 1.31954,3.873042 0.52238,12.787787 -0.12304,1.374261 -1.34788,2.508542 -2.72214,2.520522 -1.97618,0.0162 -2.08719,0.28278 -0.53101,1.26822 1.08226,0.685461 1.50032,2.002582 0.92905,2.926882 -0.57127,0.924361 -1.28635,5.185573 -1.58904,9.469346 -0.30274,4.283812 -1.43799,9.5426755 -2.52295,11.6863068 -1.08496,2.1436912 -2.38551,6.1824637 -2.89008,8.9750253 -0.50457,2.7926217 -2.19679,7.5866749 -3.76036,10.6535359 -1.56363,3.066922 -2.84291,6.366164 -2.84291,7.331695 0,0.96559 -0.67483,2.172671 -1.499679,2.682471 -2.15016,1.328881 -0.63651,-12.379267 3.534579,-32.0100986 2.72392,-12.8201074 3.1035,-16.8221904 1.79432,-18.9185514 -0.9133,-1.462391 -2.09717,-2.658842 -2.63083,-2.658842 -1.2264,0 -0.0577,-16.204659 1.64765,-22.845063 2.42943,-9.460166 4.31005,-33.58059 3.69496,-47.390678 -0.53695,-12.059966 -0.30922,-13.918296 1.77565,-14.469486 4.1026,-1.08469 4.72989,-1.00849 3.81978,0.46409 z m -31.411889,1.42779 c 0.48515,0.7853 0.20183,1.42785 -0.62966,1.42785 -0.83164,0 -1.51208,-0.64255 -1.51208,-1.42785 0,-0.78529 0.28331,-1.42779 0.62965,-1.42779 0.34646,0 1.02674,0.6425 1.51209,1.42779 z m 17.73208,0.85318 c -1.04114,1.25452 -2.0696,3.34274 -2.28535,4.64042 -0.21586,1.29769 -2.29425,9.392007 -4.61878,17.987452 -2.32453,8.595435 -3.85059,16.30563 -3.39124,17.13377 0.56657,1.021441 0.30058,1.015401 -0.82755,-0.0216 -1.25522,-1.15096 -0.56436,-6.049983 2.81895,-19.989372 2.46494,-10.155606 4.51101,-19.26792 4.54689,-20.24953 0.0378,-0.98162 1.32176,-1.78478 2.85765,-1.78478 2.396079,0 2.523759,0.32379 0.89943,2.28098 z m -18.71056,4.50114 c -0.34807,1.83399 -2.12195,2.61728 -6.66906,2.94453 -4.36293,0.31407 -5.89741,-0.0378 -5.18859,-1.18275 0.67834,-1.09753 -0.32379,-1.52191 -3.07339,-1.30141 -2.2439,0.18024 -5.6861497,0.15434 -7.6494297,-0.0572 -3.4164999,-0.36804 -3.3858999,-0.43118 0.71395,-1.47421 2.3558797,-0.59943 8.3462797,-1.16596 13.3119397,-1.25888 7.87689,-0.14733 8.96805,0.15002 8.55458,2.32976 z m -29.0769995,3.06562 c -2.03516999,1.921794 -13.4928295,3.507005 -13.4928295,1.866804 0,-0.762744 1.44566,-1.878294 3.2125697,-2.479084 1.7669099,-0.60079 4.4976199,-1.54226 6.0682099,-2.0921 3.31471989,-1.16051 6.2852098,0.74671 4.2120499,2.70438 z M 50.14864,-89.46746 c -0.931159,18.219701 -1.974449,24.866045 -4.110479,26.186186 -0.86036,0.53155 -1.02797,0.19913 -0.40636,-0.806181 0.58158,-0.94104 0.41553,-2.485991 -0.36857,-3.433182 -0.84455,-1.01982 -0.99009,-4.102982 -0.35671,-7.559634 0.58816,-3.210572 0.85739,-7.226294 0.59831,-8.923865 -0.25903,-1.697511 0.2056,-3.086402 1.03212,-3.086402 0.82669,0 1.08701,-0.673311 0.5784,-1.496221 -0.50835,-0.822851 -0.44791,-2.589822 0.13491,-3.926473 1.30907,-3.003131 1.55693,-4.249662 1.83183,-9.212408 0.1198,-2.15956 0.59479,-3.92652 1.055979,-3.92652 0.46139,0 0.46625,7.283115 0.0108,16.1847 z m -90.902478,-7.176544 c -0.0966,3.016032 -0.14409,3.025852 -1.32742,0.27252 -1.688825,-3.930036 -1.688825,-5.327176 0,-4.283446 0.78529,0.48514 1.38263,2.290155 1.32742,4.010766 z m 52.929469,-4.095056 c 0,0.34645 -0.6425,1.026734 -1.4278,1.512094 -0.7852897,0.485141 -1.4277897,0.201821 -1.4277897,-0.62966 0,-0.831654 0.6425,-1.512094 1.4277897,-1.512094 0.7853,0 1.4278,0.28331 1.4278,0.62966 z m -27.128449,2.806215 c 0,1.364981 -1.00433,1.745431 -3.1361,1.187981 -2.99341,-0.78281 -3.00966,-0.869641 -0.35724,-1.907711 1.52855,-0.598191 2.93977,-1.132771 3.1361,-1.187971 0.19643,-0.055 0.3567,0.803261 0.3567,1.907701 z m -31.855473,20.480022 c -0.359404,1.374311 -0.652971,0.249851 -0.652971,-2.498671 0,-2.748532 0.294107,-3.872942 0.652971,-2.498672 0.358865,1.374261 0.358865,3.623073 0,4.997343 z m 12.478073,7.660925 c -0.42901,0.69463 -1.42304,1.262931 -2.20834,1.262931 -0.78529,0 -1.11312,-0.508881 -0.72857,-1.131421 0.38477,-0.62226 -0.61385,-1.230341 -2.21881,-1.351221 -4.012649,-0.3022 -4.50119,-1.09526 -2.72241,-4.418942 1.13887,-2.128052 1.07692,-3.079602 -0.24122,-3.707643 -0.975357,-0.46464 -0.32757,-0.57672 1.43918,-0.24878 1.7933,0.332961 3.25704,-0.13329 3.31321,-1.05501 0.055,-0.908121 1.01119,0.83251 2.12405,3.868082 1.11291,3.035612 1.67226,6.087534 1.24297,6.782114 z m -10.584832,-1.235741 c 0.01079,1.766911 0.644715,4.176383 1.40594,5.354323 1.119222,1.731892 1.388292,1.526931 1.405992,-1.07087 0.0216,-3.197792 2.01682,-4.332503 3.47344,-1.975591 1.16299,1.881741 -4.70712,6.646934 -6.261735,5.083033 -1.974728,-1.986441 -3.188554,-10.603457 -1.493687,-10.603457 0.796518,0 1.458016,1.445661 1.47005,3.212562 z m 43.3932715,6.825944 c -13.7685295,2.729742 -23.2131495,9.362266 -27.8614495,19.565902 -2.98543,6.553414 -4.60086,19.914952 -2.72165,22.510813 0.56852,0.785301 1.41577,3.034112 1.88277,4.997343 0.80818,3.397352 0.74925,3.435882 -1.22159,0.797981 -1.13887,-1.524391 -2.16857,-3.773212 -2.28816,-4.997343 -0.1198,-1.224191 -0.36696,-2.868332 -0.54925,-3.653622 -0.1824,-0.785291 -0.44629,-2.391612 -0.58692,-3.569552 -0.16081,-1.348891 -0.74066,-0.932341 -1.5667,1.12544 -0.88129,2.195552 -0.67763,5.106783 0.62092,8.875836 1.78186,5.172023 1.74295,5.507363 -0.50025,4.306862 -5.46527,-2.924942 -6.18138,-5.270783 -3.47883,-11.396197 1.39952,-3.172152 3.03437,-5.767533 3.63295,-5.767533 0.59858,0 1.51263,-2.409462 2.03117,-5.354313 1.16375,-6.608674 8.21239,-18.060891 13.26694,-21.555263 5.94738,-4.111673 14.7454496,-7.218204 20.18712951,-7.127974 l 4.99739989,0.0826 -5.8444799,1.15873 z m 15.1252595,1.491961 c 0,0.676601 -0.96381,0.860411 -2.14175,0.408511 -1.17794,-0.452231 -2.1416897,-1.375511 -2.1416897,-2.052122 0,-0.67666 0.9637497,-0.86041 2.1416897,-0.40851 1.17794,0.45223 2.14175,1.375451 2.14175,2.052121 z m 4.99734,1.319861 c 0.48514,0.785291 0.24014,1.427801 -0.54537,1.427801 -0.78529,0 -1.82492,-0.64251 -2.31028,-1.427801 -0.48514,-0.78529 -0.24014,-1.427851 0.54537,-1.427851 0.78529,0 1.82492,0.642561 2.31028,1.427851 z m -20.7033095,0.961921 c -5.0338799,0.80807 -14.2781195,4.947863 -14.2781195,6.394003 0,1.686391 1.03175,1.519911 4.6906,-0.7568 1.7392797,-1.082261 5.3183196,-2.364781 7.9533596,-2.850032 4.17243989,-0.76841 4.65568988,-0.56043 3.7428799,1.610791 -0.57644999,1.371181 -1.36169,3.938773 -1.74489,5.705674 -0.8123899,3.745962 -2.1679199,4.058312 -4.6472699,1.07088 -1.9698699,-2.373581 -4.9655596,-2.972701 -3.5695499,-0.71395 1.25187,2.025611 -1.2036797,1.772901 -3.4682997,-0.35671 -1.56147,-1.468541 -1.72844,-1.067851 -0.94223,2.261331 0.67359,2.852632 0.47543,3.749412 -0.67202,3.040262 -1.20751,-0.746271 -1.2223,-0.24877 -0.0572,1.928271 2.31077,4.317603 2.0996,4.549593 -4.14097,4.549593 -3.22083,0 -5.71124,-0.688641 -5.71124,-1.579331 0,-0.868561 1.98153,-4.081183 4.4034,-7.139035 2.42188,-3.057851 3.78319,-5.559763 3.0251,-5.559763 -1.61149,0 -7.90123,8.059785 -9.35202,11.983827 -0.54963,1.486671 -1.35284,2.349512 -1.78493,1.917471 -1.26223,-1.26224 3.06778,-8.501705 8.22604,-13.753438 5.6365,-5.738653 11.7061697,-8.655495 17.6135096,-8.464455 3.74044988,0.12088 3.8309499,0.211 0.7138999,0.711631 z m 17.2046695,1.21647 c 2.31692,1.198071 4.21254,2.505742 4.21254,2.905832 0,0.40042 -1.24664,0.0604 -2.77033,-0.75512 -1.52369,-0.815461 -5.21816,-2.058592 -8.2099597,-2.762452 -4.7364199,-1.114371 -4.9228199,-1.298341 -1.4421499,-1.423261 2.1985199,-0.0788 5.8929896,0.836881 8.2098996,2.035001 z m -1.86437,10.874147 c -5.4932197,4.702693 -4.0677397,5.289243 2.69581,1.10914 4.82141,-2.979821 5.9667,-2.456691 3.3811,1.544251 -0.87175,1.348951 -1.39218,1.498921 -1.40594,0.405271 -0.0162,-1.137361 -1.7463,-0.719131 -5.0192,1.21189 -5.4038496,3.188332 -6.1709596,4.766213 -2.9232097,6.012524 1.2190597,0.46787 3.3118097,-0.793711 5.0761797,-3.059852 2.92348,-3.754862 2.95851,-3.762362 1.3387,-0.28601 -1.31452,2.821052 -0.77585,2.534611 2.56867,-1.365901 l 4.2319,-4.935503 1.75326,3.275932 c 0.96429,1.801821 2.02637,4.782393 2.36025,6.623564 0.56037,3.090012 0.28493,3.255252 -3.57931,2.146981 -2.30251,-0.66031 -4.54042,-0.84654 -4.97322,-0.41391 -0.4328,0.4328 -1.7987,-0.054 -3.0354,-1.07918 -1.91235,-1.587161 -2.36662,-1.414251 -3.03902,1.15695 -0.75788,2.898062 -0.93731,2.848572 -4.3412897,-1.196891 -1.9529299,-2.320911 -4.2026599,-3.816972 -4.9993899,-3.324591 -0.8358599,0.51644 0.1252,2.354421 2.27185,4.345072 2.0462899,1.897391 3.7204899,4.497573 3.7204899,5.778264 0,3.406842 -4.2681199,7.557634 -7.7173198,7.505234 -3.46944,-0.054 -8.3815199,-3.369222 -7.0145899,-4.736153 0.51158,-0.51158 0.18024,-0.9297 -0.73608,-0.9297 -0.91621,0 -1.6657799,0.96381 -1.6657799,2.141751 0,1.177941 -0.4819,2.142881 -1.07087,2.144281 -0.58897,0.001 -2.8967697,2.892722 -5.1284797,6.425144 -2.23165,3.532412 -4.64004,6.422604 -5.35194,6.422604 -0.71184,0 0.89306,-3.051922 3.56652,-6.782114 5.24796,-7.322195 7.5355197,-15.98358 4.69784,-17.787511 -1.15894,-0.73672 -0.90482,-1.09435 0.78826,-1.10919 1.3742597,-0.0108 2.5036897,-0.824951 2.5097897,-1.806622 0.0108,-2.160151 6.81696982,-5.573313 7.43189981,-3.728422 0.23797999,0.713201 2.43827999,0.895491 4.89010989,0.40527 3.4911299,-0.69824 4.3041099,-1.47954 3.7488099,-3.603002 -0.39016,-1.491261 -1.5978899,-2.711401 -2.6842499,-2.711401 -1.08636,0 -1.97521,-1.322991 -1.97521,-2.939932 0,-1.858601 0.60629,-2.565162 1.64845,-1.921091 1.02128,0.63122 1.26083,0.39178 0.62961,-0.629661 -2.20133,-3.561832 0.88248,-4.197262 6.3100296,-1.30017 l 5.67265,3.027901 z m -19.5839194,11.886207 c -0.95566,1.151551 -1.4919599,2.830712 -1.1916999,3.731492 0.3000499,0.900771 1.3110199,-0.0432 2.2461199,-2.093721 1.90581,-4.182803 1.53534,-4.758233 -1.05442,-1.637771 z M 32.165041,-46.943214 c 0,0.7853 -0.6425,1.03073 -1.42779,0.54537 -0.7853,-0.48514 -1.42785,-1.524931 -1.42785,-2.310221 0,-0.785301 0.64255,-1.030731 1.42785,-0.545371 0.78529,0.485141 1.42779,1.524931 1.42779,2.310222 z m -37.4343894,1.29154 c 1.67279,2.678532 1.59422,2.757112 -1.08437,1.084311 -1.5882799,-0.991921 -2.8878599,-2.291451 -2.8878599,-2.887862 0,-2.061401 2.1753699,-1.07374 3.9722299,1.803551 z m 35.9105894,4.251173 c -0.003,1.242161 -0.8623,0.64239 -2.04574,-1.427801 -2.68253,-4.692653 -2.71275,-7.012054 -0.0432,-3.485462 1.15295,1.524341 2.09399,3.735322 2.09112,4.913263 z m 5.70687,6.243064 c 0.055,0.68513 -0.86338,0.44575 -2.04137,-0.531551 -1.17794,-0.97763 -2.1417,-1.27049 -2.1417,-0.65076 0,0.61967 -0.38585,0.74061 -0.85793,0.26874 -0.47165,-0.47165 0.0108,-1.797181 1.07082,-2.945122 1.68656,-1.824971 2.05077,-1.791951 2.89936,0.262811 0.53371,1.29261 1.01567,2.910741 1.07082,3.595882 z m -64.151249,-0.531551 c 0,0.785291 -0.68044,1.427791 -1.51209,1.427791 -0.83165,0 -1.11496,-0.6425 -0.62966,-1.427791 0.48514,-0.7853 1.1658,-1.42785 1.51209,-1.42785 0.34645,0 0.62966,0.64255 0.62966,1.42785 z m 4.28344,-0.79819 c 0,0.34645 -0.6425,1.026731 -1.4278,1.512091 -0.78529,0.48514 -1.42785,0.20182 -1.42785,-0.629661 0,-0.83165 0.64256,-1.51209 1.42785,-1.51209 0.7853,0 1.4278,0.28331 1.4278,0.62966 z m 7.25398,0.93218 c -2.28756,0.914381 -3.95167,0.883781 -4.92595,-0.0907 -1.00989,-1.00989 0.0734,-1.44296 3.4546,-1.38085 4.6286,0.0853 4.71743,0.17377 1.47135,1.47135 z m 37.008229,2.174242 c 0,0.30112 -1.285,0.54736 -2.85559,0.54736 -1.57064,0 -2.85565,-0.58233 -2.85565,-1.294131 0,-0.71179 1.28501,-0.95808 2.85565,-0.54736 1.57059,0.41067 2.85559,0.993061 2.85559,1.294131 z m 27.64834,6.997804 4.616189,6.834354 -3.970009,17.9873907 c -3.61795,16.3926303 -3.97817,20.6459023 -4.06257,47.9715583 l -0.0928,29.984108 -4.65515,11.420537 c -3.50862,8.607795 -5.82996,12.212304 -9.42519,14.635104 -5.98932,4.03624 -8.87804,4.22894 -3.82636,0.25525 2.06917,-1.62763 3.76603,-4.037037 3.77089,-5.354318 0.005,-1.317271 0.96861,-4.235413 2.14169,-6.484764 1.17314,-2.249301 2.13295,-4.777173 2.13295,-5.617403 0,-0.840231 1.36558,-4.348633 3.03459,-7.796375 2.12362,-4.386843 2.58356,-6.719684 1.53206,-7.771125 -1.01416,-1.01421 -1.04659,-2.701691 -0.0998,-5.191993 0.77154,-2.029241 0.95615,-5.320863 0.41014,-7.314754 -0.54586,-1.993881 -0.90737,-5.874044 -0.80332,-8.622625 0.10415,-2.748532 -0.38315,-7.246165 -1.08232,-9.994686 l -1.2714,-4.997343 -0.14625,6.023373 c -0.12412,5.112333 -0.52399,5.881764 -2.6448,5.086973 -2.12421,-0.79609 -2.22486,-0.59928 -0.6717,1.312851 1.44717,1.781641 1.46849,3.035942 0.10253,6.033734 -0.95096,2.087141 -2.53828,3.472192 -3.53905,3.088182 -1.12829,-0.432801 -1.51441,0.0863 -1.02074,1.37265 0.43657,1.137951 0.15164,2.069002 -0.63382,2.069002 -2.0241,0 -3.63678,-4.838853 -1.8151,-5.446064 2.37644,-0.79214 1.76109,-3.120822 -0.82474,-3.120822 -1.72476,0 -1.38187,-0.7492 1.31334,-2.869251 2.00619,-1.578031 5.29258,-5.812314 7.30303,-9.409436 3.21327,-5.749123 3.64202,-8.122385 3.54456,-19.618902 -0.0755,-8.9342249 0.64418,-15.1145886 2.27207,-19.5037412 6.89576,-18.5928808 6.99732,-19.1236218 4.66379,-24.3710848 -5.52598,-12.426387 -4.3706,-12.608467 3.74676,-0.59043 z m -23.52803,-4.921793 c -2.69553,1.665951 -1.00606,2.793212 2.72419,1.817751 1.73264,-0.4533 3.16977,-1.873271 3.19362,-3.155962 0.0378,-2.023401 0.24015,-1.994211 1.52887,0.22018 1.03418,1.777001 1.01842,3.728953 -0.054,6.425134 l -1.5374,3.872722 0.74434,-4.283442 c 0.70423,-4.052483 0.62771,-4.134023 -1.41927,-1.511881 -1.18998,1.524341 -2.16361,3.612562 -2.16361,4.640423 0,1.02781 -0.6425,1.868801 -1.42779,1.868801 -0.7853,0 -1.44669,1.766911 -1.46968,3.926462 l -0.0432,3.926523 -4.24156,-4.662923 c -4.63788,-5.098633 -5.34585,-4.626713 -2.17575,1.450351 1.12651,2.159561 1.49736,3.926472 0.8241,3.926472 -0.67332,0 -1.47626,-0.75626 -1.78434,-1.680621 -0.30814,-0.924311 -1.33924,-1.199151 -2.29145,-0.61066 -1.24653,0.77039 -0.87914,1.759891 1.31247,3.534522 3.04069,2.4622412 3.03832,2.4668812 -2.46796,4.8114326 -3.03141,1.2907208 -7.0207396,2.7686517 -8.8651996,3.284342 -2.8676799,0.8017504 -3.2232499,0.5272303 -2.4542,-1.8959412 0.49485,-1.5584409 1.18738,-5.0833134 1.53945,-7.8330744 0.5786,-4.519383 0.26604,-5.071493 -3.2570399,-5.748264 -2.14347,-0.41175 -4.1507399,-0.49809 -4.4607099,-0.19211 -0.30976,0.30598 -0.87358,3.783132 -1.25252,7.726925 -0.37883,3.9437322 -0.90672,7.1704441 -1.17276,7.1704441 -0.26605,0 -2.7400599,-1.0758906 -5.4976496,-2.3909014 -3.28051,-1.5643809 -4.57323,-2.9217518 -3.73937,-3.9265227 0.70089,-0.84455 1.41501,-2.178071 1.58689,-2.963361 0.75685,-3.458112 6.6786596,-10.537947 7.8906496,-9.433666 0.72625,0.66166 3.4463999,1.600751 6.04473989,2.086861 3.71891991,0.695711 5.42446991,0.20399 8.01503981,-2.309901 4.2347597,-4.109623 8.7698997,-6.763174 11.5589997,-6.763174 1.21324,0 2.57428,-0.960081 3.02461,-2.133541 0.45007,-1.173411 1.4625,-1.735612 2.24936,-1.249341 0.88345,0.54601 0.70548,1.332331 -0.46518,2.055891 z M 9.5271013,-22.1001 c -1.84931,1.949692 -2.8131199,3.553633 -2.1416899,3.564363 0.6713699,0.0108 2.5767499,0.38369 4.2341696,0.82836 2.60913,0.700351 2.99228,0.2191 2.85559,-3.585792 -0.18996,-5.293823 -0.62486,-5.364673 -4.9480697,-0.806931 z m -20.8285593,7.231155 c -1.52315,1.11372 -2.16463,2.015151 -1.42559,2.003121 1.9736,-0.0324 5.6554996,-2.567482 4.8697197,-3.353312 -0.37128,-0.37128 -1.92103,0.23636 -3.4441297,1.350191 z m -29.35201,-16.58506 c 0,0.75863 -1.05376,3.589132 -2.34168,6.289904 -2.292636,4.807813 -2.233274,5.190213 2.83989,18.2832806 4.12813,10.6541863 5.0649,14.8178788 4.60798,20.4816324 -0.31569,3.909842 -1.04141,19.075371 -1.61327,33.70114 l -1.03974,26.592326 5.45442,13.780948 c 2.99989,7.579554 6.28278,14.468454 7.29521,15.308694 2.77648,2.30429 15.9554997,1.74749 19.9059796,-0.84094 1.89319,-1.24048 3.4421899,-3.487728 3.4421899,-4.993878 0,-1.506161 0.6425,-3.135512 1.42779001,-3.620873 2.65311999,-1.639711 1.45952997,5.999744 -1.53140001,9.802151 -2.5898199,3.29238 -3.9941899,3.76209 -11.2481695,3.76209 -8.31611,0 -18.63231,-3.14263 -18.63231,-5.67596 0,-0.74476 -2.19955,-6.036909 -4.88785,-11.760293 -5.7917,-12.330327 -7.697997,-26.137565 -7.054955,-51.09886 0.359405,-13.957629 -0.592369,-26.006156 -3.102264,-39.26489376 -0.297345,-1.57059094 -1.572151,-6.62950394 -2.833034,-11.24202624 l -2.29247,-8.386375 4.437833,-4.338813 c 2.44082,-2.386321 4.108057,-5.198253 3.704941,-6.248734 -0.406893,-1.06035 0.199669,-1.909911 1.364009,-1.909911 1.15328,0 2.0969,0.62075 2.0969,1.379391 z m 15.59945,15.855619 1.69557,3.468312 -2.89067,-3.314452 c -3.34117,-3.831012 -5.22442,-11.945617 -3.61892,-15.593309 0.78907,-1.792861 1.39201,-0.44197 2.11147,4.730873 0.55389,3.982152 1.77004,8.800985 2.70255,10.708576 z m 8.19145,-14.468998 c -1.33363,1.648831 -1.20821,1.883201 0.63808,1.19273 3.24689,-1.21426 2.71048,2.972472 -1.03942,8.113365 l -3.02504,4.147073 -1.77214,-3.311272 c -2.461,-4.598483 -4.21329,-11.105107 -3.25002,-12.068377 0.44197,-0.441971 2.89688,-0.650761 5.45577,-0.464641 3.84509,0.28008 4.3645,0.694961 2.99277,2.390902 z m 52.845989,4.519372 c -0.91843,7.754675 -5.81539,17.3991208 -11.07344,21.8089034 -6.39712,5.3651632 -24.15682952,11.3512968 -24.15682952,8.1423449 0,-0.8476705 1.76690992,-1.5475409 3.92646992,-1.5552109 5.1400199,-0.0162 17.3687296,-5.8369735 21.3285996,-10.1486961 4.38058,-4.7698233 8.94388,-15.3852693 8.98111,-20.8923023 0.0162,-2.552212 0.44197,-4.640423 0.94411,-4.640423 0.50188,0 0.52454,3.278402 0.0486,7.285384 z m 5.18395,-1.931071 c 0.43603,2.159562 1.202,4.984723 1.70258,6.278094 0.5908,1.526391 -0.50133,3.707802 -3.11257,6.216344 -3.37624,3.243652 -3.50646,3.603442 -0.81023,2.238621 3.54068,-1.792331 3.91632,-1.225161 1.80345,2.722782 -0.96894,1.8104608 -2.38222,2.3784911 -4.52424,1.8183408 -2.55722,-0.6687304 -2.93799,-0.3529302 -2.12599,1.763081 1.30762,3.4076521 -2.79892,7.8759747 -7.23822,7.8759747 -2.231,0 -3.07593,0.5770504 -2.41373,1.648461 0.63905,1.0340206 0.39071,1.2602908 -0.66603,0.6071604 -1.14092,-0.7051605 0.33404,-3.286772 4.57005,-7.9981048 6.03794,-6.7156341 10.09489,-16.3143801 10.09495,-23.8846441 5e-5,-4.481283 1.76502,-4.017993 2.71998,0.71389 z m -106.497127,5.103113 c 0.231508,8.074195 6.082082,29.3116078 13.244752,48.079329 5.515723,14.452379 7.206758,22.508113 4.354836,20.745522 -0.751026,-0.4641 -0.963053,-1.892491 -0.471111,-3.174092 0.64574,-1.682841 0.368578,-2.005551 -0.996889,-1.16148 -1.162612,0.71848 -1.547326,0.61255 -0.998722,-0.27522 0.490537,-0.794151 -1.679217,-8.764246 -4.822224,-17.711361 -8.116009,-23.1036737 -12.762633,-40.174744 -12.762633,-46.888158 0,-7.783215 2.227822,-7.433094 2.452153,0.3853 z m 29.213798,10.016546 c 1.61651,1.229041 1.9832,2.4892318 1.12727,3.8741226 -1.05744,1.710951 -1.62687,1.5784109 -3.42125,-0.7960905 -3.69167,-4.8852031 -2.38637,-6.6365741 2.29398,-3.0780321 z m 62.697929,0.703751 c -0.77002,1.438861 -2.53445,3.5270218 -3.92096,4.6403725 -1.78855,1.4362608 -1.57555,0.6763304 0.73322,-2.6161016 3.52561,-5.0277229 5.4487,-6.2488939 3.18774,-2.0242709 z M 63.46749,6.5119575 C 60.97454,13.535402 56.60616,26.028279 53.7599,34.273914 49.869541,45.544271 48.472071,48.284272 48.130421,45.311361 47.874091,43.080029 50.47443,34.058274 54.09799,24.608038 c 3.5322,-9.211765 7.91305,-21.8888227 9.73532,-28.1712265 2.65603,-9.1569855 3.39783,-10.5569965 3.73997,-7.0586245 0.23474,2.4001318 -1.6129,10.11032636 -4.10579,17.1337705 z m -86.262228,-12.2168372 4.27238,4.99734294 -4.36158,-3.92652234 c -2.39884,-2.1595613 -4.8083,-3.9264723 -5.35426,-3.9264723 -2.22124,0 -0.76479,3.433182 2.73061,6.4366938 4.9016,4.2118325 1.90333,6.2496937 -3.24123,2.20299131 -2.07553,-1.63264101 -4.012,-2.73012161 -4.30324,-2.43887141 -0.96095,0.9609505 1.2414,5.2197331 2.34616,4.5369127 0.5948,-0.3675003 1.00936,0.7072604 0.92123,2.3886414 -0.088,1.681321 -0.87725,3.295672 -1.75363,3.5874021 -2.46133,0.8193505 -3.76144,-10.4212162 -1.63502,-14.1363084 2.73746,-4.7826731 4.57911,-6.7234041 5.38124,-5.6706631 0.3988,0.52346 2.64756,3.2002716 4.99734,5.9488533 z m 22.54144951,1.784771 c -0.41498,2.1595613 -1.30173001,3.92647237 -1.97084001,3.92647237 -0.6691099,0 -0.9154499,-0.96376058 -0.5474699,-2.14170127 0.3680399,-1.1779907 1.0054699,-3.1975119 1.4166299,-4.4878027 1.1564,-3.6294517 1.94595999,-1.692171 1.10168001,2.7030316 z M -14.157108,-5.1077094 c 1.52315,1.1137207 2.28848,2.5058515 1.7007,3.0935819 -0.58773,0.5877303 -1.06861,0.3189302 -1.06861,-0.5971804 0,-0.9161505 -0.92582,-1.665781 -2.05746,-1.665781 -1.13158,0 -2.45452,-0.6425004 -2.93988,-1.4277908 -1.28592,-2.0806613 1.16083,-1.7459711 4.36525,0.5971703 z m 27.046689,3.5915122 C 7.2592414,0.75533411 0.75315148,1.6808247 0.75315148,0.21029379 c 0,-1.32046079 4.69675992,-2.38103139 12.13642952,-2.74054159 l 2.85559,-0.1381501 -2.85559,1.1520907 z m -23.558949,4.0851724 c 0.39286,0.4112102 -0.38963,0.3523902 -1.73907,-0.1311301 -3.24338,-1.1622907 -4.48084,1.0891107 -2.56564,4.6677828 1.43605,2.6833316 1.29731,2.7649816 -2.08174,1.2253707 -5.32053,-2.4242014 -6.36588,-0.0432 -1.73242,3.9430324 3.57229,3.074642 3.73057,3.547532 1.42785,4.266183 -1.4244,0.44467 -3.63571,1.36034 -4.91408,2.035061 -1.68763,0.89079 -3.37349,0.13167 -6.15471,-2.771302 -3.54257,-3.697662 -3.6553,-4.173302 -1.50022,-6.3283837 1.2816,-1.2816008 3.24813,-2.3301914 4.36995,-2.3301914 1.12187,0 2.03975,-0.5342503 2.03975,-1.1865707 0,-0.6526004 1.58435,-2.0344712 3.52081,-3.0708118 1.93642,-1.0363306 3.14393,-2.4940815 2.68334,-3.23933195 -0.78988,-1.27805075 5.11585,1.31684079 6.64618,2.92024175 z m 46.359649,2.1028412 c -0.66501,2.6496116 -1.60663,3.3890421 -3.639,2.8575918 -3.04295,-0.7957605 -3.62097,1.0214406 -1.1203,3.5221118 1.21026,1.210261 1.06148,2.181682 -0.58638,3.829603 -1.21442,1.21442 -2.53774,3.022671 -2.94075,4.018262 -0.50295,1.242051 -1.10293,1.334541 -1.91224,0.29465 -0.64876,-0.8336 -3.34672,-2.119251 -5.99541,-2.857002 l -4.81591,-1.34145 10.52715,-7.2771347 c 5.78991,-4.0023924 10.71904,-7.12954429 10.95357,-6.94919418 0.23475,0.18025011 0.0216,1.93647118 -0.47057,3.90251228 z M -1.3690585,4.2584462 c -0.80418,1.3012008 -7.8725198,0.1203501 -7.8725198,-1.3153808 0,-0.5577803 1.9210299,-0.7321404 4.2688699,-0.3874702 2.34789,0.3448302 3.9695299,1.1109206 3.6036499,1.702961 z M -65.42495,3.941676 c -0.461937,0.7478405 5.505417,21.051663 6.187421,21.051663 0.693878,0 10.812728,31.216128 12.26497,37.836562 2.404771,10.963077 2.545943,14.278669 0.607858,14.278669 -0.785294,0 -1.42785,-1.156511 -1.42785,-2.570062 0,-1.413551 -0.770993,-3.341062 -1.713377,-4.283452 -0.942329,-0.942331 -1.256403,-1.713371 -0.697977,-1.713371 0.558479,0 -1.525148,-5.052983 -4.630326,-11.228857 -7.897561,-15.70749 -11.437316,-27.605997 -12.144846,-40.823345 -0.568517,-10.6207858 -0.235825,-13.6272576 1.507394,-13.6272576 0.392862,0 0.413908,0.4856803 0.04857,1.0794506 z m 86.906021,0.3880102 c 0.49864,0.8072505 -0.58756,2.6876516 -2.41437,4.1786425 -2.74805,2.2428213 -3.4035,2.3474113 -3.79636,0.6054304 -0.50187,-2.2258813 2.16074,-6.2517537 4.13493,-6.2517537 0.64283,0 1.5769,0.6604704 2.0758,1.4676808 z M -5.0553284,9.8645095 c 2.21379,3.1090115 2.9528399,6.3394435 2.9528399,12.9072175 0,9.523086 -2.3542099,15.501079 -9.7648495,24.795245 -2.38566,2.992012 -5.71452,9.577806 -7.39747,14.635109 -2.91236,8.751605 -5.68269,12.035297 -5.68269,6.735594 0,-1.939701 -0.50942,-1.732371 -2.41006,0.9814 -1.77252,2.530622 -1.94558,3.595663 -0.65432,4.026083 2.95144,0.98383 -0.95474,4.392782 -4.0931,3.572082 -3.23178,-0.845141 -2.38815,-3.111702 3.53651,-9.501336 2.08838,-2.252271 3.45638,-4.982983 3.03994,-6.068213 -0.41661,-1.085181 -0.20777,-1.973112 0.46301,-1.973112 0.67122,0 2.28746,-2.248821 3.59173,-4.997343 1.30427,-2.748531 2.98375,-4.997343 3.73224,-4.997343 0.74844,0 1.36083,-0.82793 1.36083,-1.839821 0,-1.01194 1.37281,-4.385112 3.05067,-7.496064 2.22912,-4.132933 3.18386,-8.828505 3.5451597,-17.43565 0.27198,-6.478734 -3.8e-4,-11.779468 -0.6051597,-11.779468 -0.60473,0 -1.19635,-1.28505 -1.31469,-2.8556412 -0.31461,-4.1771925 3.2480197,-3.4853621 6.6492996,1.2912607 z M 12.884021,8.2162686 c -2.04612,4.9883334 -2.48971,21.3742124 -0.7289,26.9264764 0.96915,3.056021 4.35916,9.605975 7.5333,14.555558 4.13509,6.447964 5.96433,11.009167 6.45244,16.08881 0.55584,5.784793 0.30005,6.943254 -1.38932,6.294974 -1.36535,-0.524001 -1.86453,-2.198092 -1.46573,-4.915583 0.33296,-2.266522 -0.12574,-6.334534 -1.01853,-9.039946 -1.39018,-4.212322 -9.73932,-16.5835 -16.1329396,-23.904724 -1.12446,-1.287591 -1.56006,-3.646762 -1.05452,-5.711233 0.47381,-1.934641 0.3648,-5.766294 -0.24176,-8.514815 -0.65076,-2.948682 -0.54348,-5.192484 0.26173,-5.473314 0.75054,-0.26173 1.3646,-1.386191 1.3646,-2.498671 0,-1.112481 0.6425,-2.022751 1.4277999,-2.022751 0.78529,0 1.35176,-0.4819107 1.25872,-1.070821 -0.37343,-2.3657614 0.27576,-3.2126319 2.4635997,-3.2126319 1.62379,0 1.99491,0.7304104 1.26951,2.4986715 z M 4.2617214,8.4747587 C 5.7983614,10.96108 1.9174915,11.777511 -0.40373849,9.4562693 -2.5327484,7.327258 -2.4724685,7.1456179 0.36294149,7.1456179 c 1.69249001,0 3.44692991,0.5980904 3.89877991,1.3291408 z M 67.60916,19.490185 c -1.06385,12.133688 -5.625,29.134548 -8.94625,33.34546 -2.39927,3.041992 -6.01004,11.964507 -9.496259,23.466044 -1.65073,5.446003 -4.86605,13.751328 -7.14519,18.456291 -3.82026,7.88655 -3.97589,8.81076 -1.99323,11.83666 1.18279,1.80523 4.07384,4.70415 6.42448,6.44203 2.35065,1.73793 4.273889,4.0433 4.273889,5.12302 0,1.12079 -2.269639,-0.17808 -5.289879,-3.02763 -2.90945,-2.74491 -5.86698,-4.63405 -6.57235,-4.19812 -0.70532,0.43603 3.40733,5.51378 9.13918,11.28423 5.731899,5.77038 10.050049,10.86318 9.595879,11.31729 -0.45384,0.45439 -4.59574,-3.17528 -9.203559,-8.06539 -4.60782,-4.89016 -9.50225,-10.06182 -10.87651,-11.49258 -3.12358,-3.25202 -3.13734,-4.02922 -0.0712,-4.02922 1.8879,0 2.0465,-0.38099 0.7139,-1.71337 -2.53806,-2.53812 -2.20116,-4.16111 3.36529,-16.212061 3.29708,-7.138015 5.28357,-13.811069 5.66288,-19.022872 C 48.081081,60.75874 49.157351,53.839656 50.66,50.693954 51.41021,49.123363 54.06587,42.055669 56.56146,34.987975 63.54421,15.212413 66.95289,7.1456179 68.32639,7.1456179 c 0.20075,0 -0.12196,5.5550631 -0.71702,12.3445671 z M -71.025236,26.77806 c -0.308138,2.944851 -0.560099,0.53533 -0.560099,-5.354314 0,-5.889763 0.252015,-8.299175 0.560099,-5.354323 0.308138,2.944902 0.308138,7.763735 0,10.708637 z m 40.056798,-9.280786 c 0.0912,0.981621 0.35941,3.000652 0.59491,4.486733 0.23583,1.486021 -0.37451,2.985272 -1.35608,3.331562 -1.88876,0.66624 -2.61431,-6.869814 -0.83289,-8.651185 1.28711,-1.287161 1.40217,-1.227051 1.59406,0.83289 z m 66.555489,3.593182 c -0.55794,2.789652 -1.55629,4.147243 -2.72112,3.700252 -2.68911,-1.03192 -4.09138,2.121132 -2.04169,4.590823 1.36282,1.642141 1.38289,2.950522 0.089,5.790624 -1.6021,3.516172 -1.81715,3.573972 -5.15702,1.38554 -1.91693,-1.25597 -4.79292,-2.283621 -6.39114,-2.283621 -4.21572,0 -3.56328,-1.867501 1.42359,-4.074922 2.38113,-1.054041 6.68038,-4.728923 9.55378,-8.166475 2.87346,-3.437542 5.42728,-6.047224 5.67519,-5.799254 0.2477,0.2477 0.0545,2.433592 -0.43063,4.857033 z m -16.27233,-1.0726 c -1.78661,1.17287 -1.60907,1.551911 1.07087,2.286371 4.07956,1.117991 3.9916,2.056111 -0.49971,5.328043 -4.25813,3.102212 -4.49288,2.975012 -4.86982,-2.638981 -0.41661,-6.203674 -0.30382,-6.427354 3.22757,-6.403284 2.60913,0.0162 2.81031,0.28601 1.07087,1.427851 z m -33.106219,5.332353 c 0.25148,2.606601 -0.21801,4.640423 -1.07087,4.640423 -0.83505,0 -1.52477,0.80315 -1.53276,1.784771 -0.005,0.98162 -2.48998,2.823811 -5.51545,4.093762 l -5.50094,2.309041 -2.41826,-4.093762 c -1.33001,-2.251621 -1.78272,-4.093812 -1.0059,-4.093812 0.77676,0 1.77198,-1.133261 2.21158,-2.518372 1.05209,-3.314832 7.92152,-7.551754 11.52959,-7.111134 2.08627,0.25471 2.97615,1.598921 3.30301,4.989083 z m -10.37934,0.25525 c -0.99581,1.611281 4.89276,6.007184 6.61839,4.940733 1.58612,-0.980321 0.2709,-3.028922 -3.10448,-4.835333 -1.64527,-0.880541 -3.00955,-0.921451 -3.51391,-0.10523 z m -7.56799,12.228937 c 0.37451,1.958261 -0.0324,4.152573 -0.90445,4.876293 -1.11135,0.922581 -1.51117,-0.0324 -1.33795,-3.203552 0.36804,-6.731604 1.16208,-7.323974 2.2424,-1.672741 z m 36.7754294,-0.28817 c -2.7785299,2.274821 -14.2781797,16.25928 -14.2781797,17.36334 0,0.466251 1.7669599,-0.20723 3.9265199,-1.49644 l 3.9264699,-2.344122 -3.5296099,2.913452 c -1.94127,1.602311 -3.9564199,2.649601 -4.4780399,2.327171 -0.52184,-0.32217 -1.2826297,0.691661 -1.6910397,2.253402 -0.40851,1.561791 -1.42936,2.839561 -2.26872,2.839561 -2.74923,0 0.94923,-6.970344 8.7631996,-16.51572 4.11820991,-5.030693 8.4514598,-9.134915 9.6293998,-9.120455 1.90371,0.0216 1.90371,0.22125 0,1.779811 z M 21.331481,36.565465 c 1.23763,0.474891 1.8273,1.547921 1.31037,2.384382 -0.57208,0.92554 -0.0885,1.194121 1.2352,0.68616 1.54166,-0.59162 2.12966,0.0324 2.01898,2.137752 -0.18294,3.487302 -3.72567,5.251403 -3.72567,1.855361 0,-1.268061 -0.96381,-2.675352 -2.14175,-3.127412 -1.17794,-0.45223 -2.14169,-1.716891 -2.14169,-2.810812 0,-2.243741 0.28655,-2.337311 3.44456,-1.125431 z m -39.139939,2.725382 c 0,1.612511 -3.79512,7.368874 -7.70507,11.686857 l -4.13558,4.567133 -2.80492,-3.565822 c -2.63741,-3.352982 -2.66121,-3.724593 -0.39826,-6.225254 3.85561,-4.260403 15.04372,-9.066925 15.04372,-6.462914 z m -9.99468,4.803173 c 0,1.861031 3.68783,4.577933 4.75935,3.506352 1.07158,-1.071521 -1.64532,-4.759353 -3.50635,-4.759353 -0.68918,0 -1.253,0.563821 -1.253,1.253001 z M 7.6164313,43.59269 C 7.1766214,44.0325 6.3784814,43.239759 5.8422914,41.831719 c -0.77488,-2.034902 -0.61088,-2.198902 0.79927,-0.799271 0.9757899,0.968551 1.4145199,2.120651 0.9748699,2.560242 z M 72.14381,43.185799 c 0,2.288912 -10.16979,17.089961 -11.10203,16.15777 -0.80726,-0.80731 3.16421,-7.197534 7.0964,-11.418277 1.45634,-1.563131 2.331,-3.667812 1.94375,-4.677003 -0.38746,-1.00919 -0.0815,-1.834911 0.67888,-1.834911 0.76068,0 1.383,0.797551 1.383,1.772421 z M 19.314721,61.73836 c 0,1.478741 -0.65298,2.285022 -1.45111,1.791732 -0.79808,-0.493241 -1.0201,-1.594221 -0.49324,-2.446592 0.5499,-0.88977 0.29789,-1.141841 -0.59194,-0.59194 -0.85237,0.52669 -1.95335,0.3049 -2.44659,-0.493241 -0.49324,-0.79813 -0.19373,-1.45111 0.66544,-1.45111 1.1271,0 1.13061,-0.806711 0.0108,-2.895632 -0.85232,-1.592601 -2.17046,-2.511942 -2.92915,-2.043051 -0.75868,0.46896 -0.96861,1.517331 -0.46625,2.329821 0.50241,0.812491 -0.7724,0.37289 -2.8323297,-0.976811 -4.2693599,-2.797371 -4.8555199,-3.889832 -1.3694099,-2.552051 1.7817999,0.68374 2.0702999,0.40474 1.1537599,-1.115661 -1.04329,-1.730591 -0.8685,-1.740521 1.19359,-0.068 1.4300697,1.159971 2.4158397,1.340001 2.4158397,0.44144 0,-0.83511 -0.6425,-1.915481 -1.4278,-2.400781 -0.7852897,-0.48514 -1.4277897,-1.645651 -1.4277897,-2.578381 0,-0.932781 2.2488097,1.46703 4.9973397,5.332893 2.74852,3.865922 4.99734,8.238785 4.99734,9.717475 z m -52.415779,-6.048253 c 0.41067,1.569781 0.16405,3.214032 -0.54737,3.653782 -0.71157,0.43982 -1.2938,-0.8446 -1.2938,-2.854182 0,-4.374922 0.81379,-4.728332 1.84117,-0.7996 z m 9.58136,-1.528381 c 0,0.72917 -1.00471,2.330571 -2.23273,3.558582 -1.22802,1.228021 -1.87765,2.807412 -1.44356,3.509702 0.43388,0.702351 -0.27144,2.152971 -1.56815,3.223582 -1.29661,1.070601 -3.55962,3.874062 -5.02902,6.230004 -2.53634,4.066502 -2.63952,4.102662 -2.03781,0.7139 1.09937,-6.191473 2.60374,-9.146685 7.08663,-13.921208 4.70178,-5.007603 5.22464,-5.339323 5.22464,-3.314562 z m 39.544789,13.493968 c 4.99885,7.381384 7.57053,13.185938 7.58186,17.113 0.005,1.676731 0.93052,4.815583 2.05703,6.975144 1.12656,2.159562 1.42369,3.926463 0.66031,3.926463 -0.76338,0 -1.7355,-0.905791 -2.16037,-2.012821 -1.36088,-3.546453 -14.7107497,-6.190394 -16.5606597,-3.279812 -0.6252299,0.98378 -1.1045499,-0.499171 -1.1170099,-3.456383 -0.027,-6.879464 -3.30021,-9.736945 -7.15403989,-6.249263 -1.53734001,1.391311 -2.53147991,2.956292 -2.20914991,3.477802 1.2279099,1.986871 -1.63075,4.260992 -6.4014399,5.092483 -4.9691197,0.86602 -14.2132597,6.200644 -14.2315497,8.212775 -0.0216,2.350101 9.79884,0.91432 13.46374,-1.968471 2.8425296,-2.235972 4.2848996,-2.618362 5.4565796,-1.446741 1.17162,1.17163 0.71071,2.531371 -1.74365,5.143913 -3.8518896,4.100127 -11.5727696,4.377397 -17.2334396,0.61881 -3.01085,-1.999121 -3.18338,-2.651551 -1.69039,-6.391894 0.91448,-2.291071 1.93085,-5.771843 2.25863,-7.735074 1.47729,-8.848156 3.9153,-15.185929 6.58083,-17.10707 1.59093,-1.146751 2.89261,-2.631472 2.89261,-3.299502 0,-1.678411 2.96784,-4.487383 9.2339896,-8.739686 l 5.3174099,-3.608452 5.5071399,4.425643 c 3.0289299,2.434121 7.3001696,7.073254 9.4915696,10.309136 z M -5.9493584,66.278673 c -5.2250196,4.497203 -3.4783999,6.257144 1.88283,1.897131 4.49470989,-3.655352 7.8208698,-4.194512 8.7464698,-1.417761 0.37668,1.130561 -0.22989,1.469131 -1.65374,0.922741 -1.3483599,-0.51752 -2.60087991,0.054 -3.1276799,1.426821 -0.48352999,1.259431 -1.93437,2.299711 -3.2246599,2.311741 -2.03625,0.0216 -2.06323,0.20453 -0.20399,1.405941 3.03210991,1.959511 4.00795989,1.762921 4.5356799,-0.91378 0.26766,-1.357211 2.1231799,-2.517882 4.4139199,-2.760992 2.1810399,-0.23151 3.5829899,0.17808 3.1282799,0.91378 -0.4533,0.733271 -2.1995399,1.333201 -3.8808099,1.333201 -2.03841,0 -2.5811299,0.475961 -1.62887,1.428061 1.76205,1.762051 9.1101996,-1.334381 9.1265996,-3.845792 0.0162,-2.606872 -5.8712896,-6.149164 -10.2216495,-6.149164 -2.13738,0 -5.6888399,1.551591 -7.8922199,3.448072 z m -4.0061199,31.577629 c -2.3558797,1.931131 -3.5922597,3.514288 -2.7475497,3.518168 0.84471,0.004 3.0448997,-1.599177 4.8892997,-3.562418 4.2304999,-4.503183 3.3847199,-4.485703 -2.14175,0.0432 z M 37.876281,57.119308 c 0,1.920221 -0.95188,2.855651 -2.90583,2.855651 -2.46343,0 -2.6732,0.434951 -1.37761,2.855642 1.08064,2.019141 1.08226,2.855592 0.005,2.855592 -2.81096,0 -3.27516,4.379772 -0.66641,6.287314 3.05753,2.235761 1.87457,6.939104 -1.42671,5.672283 -1.20768,-0.46356 -2.19577,-0.0934 -2.19577,0.82226 0,0.915671 -0.67369,1.248471 -1.49714,0.739531 -1.02668,-0.63452 -0.98113,-1.547011 0.14517,-2.903892 2.07262,-2.497381 2.68614,-12.446517 0.84476,-13.700008 -1.31145,-0.892741 5.73849,-8.199445 8.00344,-8.294855 0.58897,-0.027 1.07082,1.239891 1.07082,2.810482 z m 22.845059,4.822553 c 0,0.29626 -1.12441,1.42089 -2.49867,2.498671 -2.26463,1.776031 -2.31514,1.725521 -0.53911,-0.53911 1.86523,-2.378332 3.03778,-3.134692 3.03778,-1.959561 z m -5.1165,8.537365 c -0.49539,1.29035 -1.49665,2.346061 -2.22561,2.346061 -0.72933,0 -0.60866,-1.339021 0.26821,-2.977932 1.81807,-3.397132 3.31742,-2.913061 1.95713,0.631871 z m -17.728559,0.15974 c 0,1.273731 -0.83753,1.775541 -2.13349,1.278201 -1.17346,-0.450061 -1.77803,-1.393901 -1.34356,-2.096902 1.24594,-2.015951 3.47705,-1.490611 3.47705,0.818701 z m -63.989839,9.634956 c -1.02452,1.02457 -1.68958,1.10886 -1.68958,0.21424 0,-0.811471 0.42848,-1.903761 0.95188,-2.427282 0.52346,-0.52345 1.28382,-0.61989 1.68958,-0.21424 0.40581,0.40582 -0.0216,1.498011 -0.95188,2.427282 z m 77.017328,1.49924 c -1.410099,1.399631 -1.574089,1.235631 -0.79927,-0.79932 0.53641,-1.408101 1.3346,-2.200571 1.77419,-1.760971 0.43982,0.43981 9.2e-4,1.591741 -0.97492,2.560291 z m -92.465138,4.307353 c 2.72419,7.133154 2.98905,10.109906 0.53587,6.020514 -2.612587,-4.354943 -5.136836,-12.136438 -3.936987,-12.136438 0.586056,0 2.116657,2.752152 3.401287,6.115924 z m 45.5425294,1.181181 c -0.90888,3.475542 -2.6963999,3.456872 -3.61023991,-0.0378 -0.85403998,-3.265932 1.83372001,-6.675804 3.34046991,-4.237843 0.5364,0.867861 0.65772,2.791812 0.26982,4.275463 z m 42.1994596,6.273173 c -0.89602,1.966532 -1.89809,3.306632 -2.22679,2.977882 -0.66684,-0.66684 2.22809,-6.553474 3.22287,-6.553474 0.34807,0 -0.0998,1.609011 -0.99608,3.575592 z m -55.4221993,-1.51813 c 0,0.34645 -0.6425,1.02673 -1.4277897,1.51209 -0.7853,0.485141 -1.4278,0.201821 -1.4278,-0.62966 0,-0.83165 0.6425,-1.512091 1.4278,-1.512091 0.7852897,0 1.4277897,0.28331 1.4277897,0.629661 z m 24.7891893,1.51209 c -0.91033,2.372342 -2.79283,2.806052 -3.96279,0.913021 -0.95485,-1.544951 0.49108,-3.054772 2.9257,-3.054772 1.0658,0 1.50831,0.913841 1.03709,2.141751 z m -30.529079,1.462331 c -0.99333,1.196881 -2.10014,1.882181 -2.45949,1.522771 -0.9902,-0.99019 1.02166,-3.699002 2.74723,-3.699002 0.94681,0 0.83845,0.819241 -0.28763,2.176231 z m 20.0180694,2.016602 c 0,2.918091 3.3261599,6.283168 4.7767299,4.832588 0.5196797,-0.51968 -0.0729,-2.497207 -1.31631,-4.394928 -3.1693399,-4.837073 -1.2790099,-5.872704 2.3344597,-1.278961 1.63858,2.083141 3.85847,3.787502 4.93307,3.787502 1.07459,0 2.41292,0.742827 2.97399,1.650727 0.72814,1.1781 -0.25364,1.39591 -3.42989,0.76068 -4.33643,-0.86732 -7.7888197,0.99183 -4.21274,2.26852 0.98647,0.35239 1.30508,1.16343 0.7079,1.80264 -1.73841,1.86091 -9.6228595,-6.663127 -9.6228595,-10.403469 0,-1.894221 0.6292299,-2.997792 1.4277999,-2.504232 0.78529,0.485141 1.42785,2.050872 1.42785,3.478933 z m 16.3268796,1.48306 c 2.46824,0.938441 3.66247,0.910981 3.66247,-0.0842 0,-0.81222 0.71115,-1.03725 1.58025,-0.50025 1.10163,0.68082 0.99349,1.348421 -0.35671,2.204078 -2.76876,1.75439 -4.57728,1.56141 -7.73253,-0.825067 -3.25261,-2.460132 -2.2615,-2.736812 2.84674,-0.794681 z m -56.650539,3.163348 c -0.98826,1.7204 -3.40317,4.54653 -5.36641,6.28025 -9.605103,8.48227 -12.221146,10.57782 -13.207296,10.57939 -2.374659,0.004 -0.816215,-3.01069 3.569544,-6.90472 2.552256,-2.26608 6.88923,-6.11792 9.637752,-8.55965 5.8897,-5.232308 7.86567,-5.746058 5.36641,-1.39527 z m 49.646799,7.51518 c 5.05594,-0.0378 10.50189,-1.0555 13.38425,-2.49867 6.01193,-3.01015 5.84885,-3.01986 5.84885,0.34969 0,2.16107 -1.83394,3.31181 -8.20991,5.15146 -11.69451,3.37425 -11.99218,3.59745 -17.2233997,12.91299 -2.6015299,4.6327 -5.6534999,9.36389 -6.7821098,10.51382 -1.79707999,1.83087 -2.05211999,1.73389 -2.05211999,-0.78022 0,-1.57901 -2.08815991,-6.6962 -4.64035991,-11.37153 -4.3615799,-7.98985 -4.9835796,-8.52556 -10.3516496,-8.91643 -3.14123,-0.22881 -7.93226,-1.12554 -10.64685,-1.99291 -4.25705,-1.36029 -5.1404,-1.22548 -6.42519,0.98048 -4.38171,7.52333 -28.338003,36.14903 -31.43228,37.55891 -3.328969,1.51679 -3.61088,1.37151 -3.61088,-1.86075 0,-2.16096 1.364711,-4.40022 3.557239,-5.83687 1.956541,-1.28193 3.26486,-2.80395 2.907452,-3.38229 -0.357246,-0.57828 6.097624,-7.69131 14.34455,-15.80673 8.660299,-8.52221 14.688849,-15.55148 14.271159,-16.64005 -0.86235,-2.2472 1.46643,-2.54449 2.81679,-0.35941 0.5186,0.83883 1.82082,1.18814 2.89418,0.77623 1.07335,-0.41175 2.33132,-0.13437 2.79547,0.6166 0.4641,0.75097 5.19162,1.36547 10.50546,1.36547 8.4476196,0 10.0809096,-0.44629 12.99952951,-3.55314 l 3.33798989,-3.55315 1.59363,3.19617 c 1.39007,2.78782 2.6829,3.18785 10.1181996,3.13076 z m -16.8192095,1.24129 c -2.1595499,1.76815 -3.9264599,4.01945 -3.9264599,5.00285 0,2.18632 5.46169992,13.09679 6.5561599,13.09679 1.29693,0 4.0708199,-3.26125 7.3879198,-8.68599 l 3.1285997,-5.11644 -3.9740696,-3.80737 c -2.18573,-2.0941 -4.2601799,-3.78432 -4.6098699,-3.75605 -0.34969,0.027 -2.40266999,1.49801 -4.56228,3.26621 z m 8.1928599,4.89233 c -0.26281,1.37431 -0.6036,2.81997 -0.75664,3.21262 -0.15326,0.39286 -0.1797,1.26343 -0.0594,1.93507 0.26982,1.50502 -2.6911099,5.20397 -4.16606992,5.20397 -1.59885996,0 -4.69513988,-8.17079 -3.70401988,-9.77446 0.4689499,-0.75896 2.13720992,-1.0441 3.70703988,-0.63354 1.59530002,0.41714 2.85418992,0.0432 2.85418992,-0.84795 0,-0.87692 0.58568,-1.59438 1.30152,-1.59438 0.71579,0 1.0862,1.1244 0.82312,2.49867 z m -7.8358799,3.03777 c 0,1.78095 3.66646,4.59931 4.6733899,3.59238 1.3796,-1.3796 -0.5404599,-4.84538 -2.6844199,-4.84538 -1.09391,0 -1.98897,0.56388 -1.98897,1.253 z m 19.9894095,-11.8088 c 0,0.30867 -0.96381,0.56112 -2.14175,0.56112 -1.17794,0 -2.14169,-0.62237 -2.14169,-1.38301 0,-0.76063 0.96375,-1.01318 2.14169,-0.56112 1.17794,0.45222 2.14175,1.07433 2.14175,1.38301 z m -65.724749,15.59864 c -7.404376,7.43535 -13.867988,13.51879 -14.363599,13.51879 -2.138564,0 0.752267,-7.37125 3.458916,-8.81982 1.638312,-0.87676 3.969152,-2.74966 5.179632,-4.16191 3.502466,-4.08643 17.800341,-15.44307 18.527291,-14.71606 0.36318,0.36318 -5.39786,6.74369 -12.80224,14.179 z M 54.5011,138.95244 c 6.85411,8.09928 8.61017,13.62553 3.73527,11.75484 -1.48176,-0.56862 -1.85956,-0.143 -1.25991,1.41992 0.50457,1.31518 0.26119,1.86411 -0.5928,1.33634 -0.79711,-0.49271 -1.27168,-1.73929 -1.05452,-2.77023 0.35131,-1.66826 -11.846849,-20.49642 -16.396449,-25.30812 -0.97368,-1.02976 -2.69499,-3.66339 -3.82512,-5.85258 -1.68434,-3.2626 -2.27623,-3.58477 -3.28251,-1.78666 -1.23972,2.21536 2.55431,8.80525 12.24414,21.26677 3.52271,4.53038 3.81266,5.41497 1.63751,4.9961 -1.4537,-0.28008 -6.05904,-5.5569 -10.23412,-11.72652 -7.5414,-11.14418 -8.74718,-13.76671 -6.32973,-13.76671 0.69372,0 1.6184,-1.36541 2.05481,-3.03427 0.84725,-3.23993 -0.15758,-4.25214 23.303429,23.47112 z M -20.299628,116.2474 c 0.97255,-0.97255 8.17397,3.31262 10.7011297,6.36767 3.6331699,4.39208 2.2219899,5.92278 -3.5748897,3.87752 -6.37106,-2.24784 -15.55271,-10.26424 -12.86241,-11.23004 0.99122,-0.35563 2.50385,-0.0961 3.3614,0.57672 0.85755,0.67304 1.92622,0.85669 2.37477,0.40797 z m -8.93131,2.39824 c 0,4.31945 -13.32122,21.58123 -20.058916,25.99251 -3.162865,2.07079 -5.291445,2.9836 -4.730213,2.02853 1.514517,-2.5774 13.502329,-18.36314 19.104339,-25.15696 1.55601,-1.8871 2.82915,-3.97532 2.82915,-4.64043 0,-0.66517 0.6425,-1.20935 1.42779,-1.20935 0.7853,0 1.42785,1.34356 1.42785,2.9857 z m 54.261909,0.90175 c -2.67103,3.39568 -11.51794,8.77493 -14.66089,8.91443 -0.6004097,0.027 0.42902,-2.36095 2.28718,-5.30586 2.68949,-4.26192 4.51436,-5.53144 8.94464,-6.22256 3.0612,-0.47759 5.77308,-0.95938 6.02639,-1.07082 0.25309,-0.11171 -0.91546,1.54673 -2.59732,3.68481 z m -50.802879,7.17812 c -1.25981,2.94485 -2.58879,6.07042 -2.95332,6.94567 -0.58358,1.40114 -6.60204,4.83379 -8.47509,4.83379 -0.38261,0 2.02275,-3.85508 5.34562,-8.5669 6.86468,-9.73413 9.45876,-11.10414 6.08279,-3.21256 z m 54.949849,3.56954 c 2.59548,4.31582 2.80065,5.35432 1.05803,5.35432 -1.18906,0 -2.61308,-1.44566 -3.16449,-3.21263 -0.55141,-1.76691 -1.64079,-3.62259 -2.42085,-4.12376 -0.78011,-0.50133 -0.95042,-1.66837 -0.37829,-2.5937 0.57186,-0.92533 1.18512,-1.47906 1.36277,-1.2305 0.17754,0.24878 1.77203,2.86142 3.54304,5.80627 z m -7.00758,-1.09143 c 0,0.38153 -2.90033,1.42364 -6.4451,2.31626 -4.09705,1.03165 -7.7596297,3.18516 -10.0533896,5.91108 -1.98455,2.35853 -3.9353199,3.96117 -4.3350299,3.56145 -1.52024,-1.52024 7.4897998,-9.46184 12.2666395,-10.81209 5.79963,-1.63928 8.56688,-1.95476 8.56688,-0.9767 z"
       id="path853" /></g></svg>
