<?xml version="1.0" encoding="UTF-8" standalone="no"?>
<!-- Created with Inkscape (http://www.inkscape.org/) -->

<svg
   width="210mm"
   height="297mm"
   viewBox="0 0 210 297"
   version="1.1"
   id="svg5"
   xml:space="preserve"
   inkscape:version="1.2.2 (732a01da63, 2022-12-09)"
   sodipodi:docname="Freyr.svg"
   xmlns:inkscape="http://www.inkscape.org/namespaces/inkscape"
   xmlns:sodipodi="http://sodipodi.sourceforge.net/DTD/sodipodi-0.dtd"
   xmlns="http://www.w3.org/2000/svg"
   xmlns:svg="http://www.w3.org/2000/svg"><sodipodi:namedview
     id="namedview7"
     pagecolor="#ffffff"
     bordercolor="#000000"
     borderopacity="0.25"
     inkscape:showpageshadow="2"
     inkscape:pageopacity="0.0"
     inkscape:pagecheckerboard="0"
     inkscape:deskcolor="#d1d1d1"
     inkscape:document-units="mm"
     showgrid="false"
     inkscape:zoom="1.6819304"
     inkscape:cx="451.86174"
     inkscape:cy="461.37462"
     inkscape:window-width="2560"
     inkscape:window-height="1494"
     inkscape:window-x="-11"
     inkscape:window-y="-11"
     inkscape:window-maximized="1"
     inkscape:current-layer="layer1" /><defs
     id="defs2" /><g
     inkscape:label="레이어 1"
     inkscape:groupmode="layer"
     id="layer1"><path
       style="fill:#000000;stroke-width:1.59518"
       d="m -57.478813,-145.38845 c -8.621986,0.38164 -11.190833,1.14546 -14.037255,4.17528 L -75,-137.50466 l 0.118169,87.434427 0.118169,87.43442 7.942335,8.397887 c 4.368268,4.618829 8.746967,10.412297 9.730361,12.874426 0.983395,2.462129 3.200809,8.065807 4.927581,12.452526 3.395969,8.627047 6.222617,29.510794 3.994349,29.510794 -0.751698,0 0.01809,1.97402 1.707781,4.38676 1.690961,2.4127 4.365681,8.33476 5.943712,13.16021 2.85438,8.7281 9.644991,16.77014 17.162643,20.32558 9.158392,4.33149 20.3878038,8.38763 23.22102435,8.38763 1.72183035,0 5.91942115,-1.61511 9.32792175,-3.58913 4.4644409,-2.58555 6.0533209,-4.48126 5.6821809,-6.77952 -0.50825,-3.14757 -0.48232,-3.14884 1.941401,-0.0941 1.37757,1.73642 2.45653,2.22055 2.45653,1.10222 0,-1.14388 0.85021,-1.50496 1.99398,-0.84671 1.096681,0.63112 1.480851,0.57878 0.853711,-0.11576 -1.462401,-1.61994 1.49489,-7.22433 3.81209,-7.22433 0.969101,0 2.791681,-1.2562 4.050111,-2.79155 1.39639,-1.70362 1.83873,-1.85905 1.13497,-0.39852 -0.63426,1.31601 -2.66151,4.11143 -4.505071,6.21193 l -3.35183,3.81921 4.151281,-2.65199 c 2.28319,-1.45853 5.439561,-5.33067 7.014221,-8.60467 1.5746,-3.27406 3.541331,-7.30519 4.370441,-8.95816 1.06557,-2.12421 0.87982,-3.40315 -0.63353,-4.3623 -1.680771,-1.06527 -1.578091,-1.3622 0.4775,-1.38137 3.21347,-0.0301 4.574161,-5.04238 5.609521,-20.66423 0.43229,-6.526468 1.79044,-13.299776 3.01759,-15.051745 1.227091,-1.75192 3.802691,-8.256268 5.723532,-14.454095 1.92085,-6.197778 3.78695,-10.391747 4.14695,-9.319787 0.41057,1.223169 2.129141,0.3322 4.614491,-2.392799 2.177981,-2.38791 6.152861,-6.697458 8.833062,-9.576737 4.526531,-4.862879 4.801571,-5.826988 3.868041,-13.559026 -0.55286,-4.578188 -1.070511,-35.1096376 -1.150641,-67.847636 -0.12661,-51.705973 -0.45398,-59.405335 -2.4933,-58.622825 -1.29124,0.49558 -4.765581,0.90091 -7.720832,0.90091 h -5.373181 l 0.0687,14.474179 c 0.0362,7.960838 -0.35692,14.899885 -0.87704,15.420065 -0.52031,0.5203 -0.94584,-6.352118 -0.94584,-15.271815 0,-16.757659 0.10189,-16.995689 6.952371,-16.271779 1.630431,0.17243 4.737551,-0.13204 6.904742,-0.67574 3.897461,-0.9782 3.935741,-1.16166 3.51462,-16.84429 -0.23453,-8.72038 0.0681,-16.34944 0.672291,-16.95336 1.72738,-1.72738 1.33664,-2.89918 -2.250811,-6.74986 l -3.348941,-3.59468 -57.666651,0.50222 c -31.716706,0.27613 -62.415649,0.71233 -68.219971,0.9691 z m 123.68753,3.72088 c -0.39912,0.64625 0.003,1.6259 0.89507,2.17695 0.91201,0.56372 1.621211,7.55822 1.621211,15.98975 v 14.98772 l -5.184361,0.88681 c -6.543842,1.11935 -94.067848,1.87262 -114.875814,0.9887 -8.566761,-0.36415 -16.218617,-1.44063 -17.004078,-2.39268 -2.009474,-2.4356 -2.714749,-29.28632 -0.819043,-31.18203 2.442478,-2.44248 136.870355,-3.88763 135.367015,-1.45522 z m -103.34066,2.50228 c -0.5613,0.5613 -1.02011,7.42069 -1.02011,15.24371 0,10.68976 0.49558,14.04937 1.99398,13.52201 1.099091,-0.38646 1.888411,-2.95211 1.758781,-5.71605 -0.31833,-6.78561 2.22809,-6.37539 3.53084,0.56853 1.057191,5.63533 3.017891,7.26118 4.328481,3.58914 0.96512,-2.7042 -2.98998,-10.23258 -6.427721,-12.23487 -1.53536,-0.89423 -2.07375,-1.63676 -1.1964,-1.65003 3.710861,-0.0543 9.527602,7.68863 10.815882,14.40068 l 0.74296,3.87094 1.18615,-3.58914 c 1.470181,-4.44857 4.004411,-4.70095 4.004411,-0.39852 0,1.75469 0.72481,3.19032 1.61078,3.19032 0.885901,0 2.840031,-1.43563 4.342461,-3.19032 1.5024405,-1.75474 3.6488909,-3.19038 4.7699211,-3.19038 3.1293106,0 2.4178805,-5.93394 -0.9983402,-8.32674 -2.7477309,-1.92452 -2.8309309,-2.61599 -0.8745702,-7.26871 1.1891003,-2.82802 2.9144906,-5.14184 3.8341608,-5.14184 0.9197201,0 1.6722103,-0.71788 1.6722103,-1.59522 0,-3.60747 -4.8891809,-1.23643 -7.3791118,3.57859 -2.44085,4.72011 -2.78432,4.89495 -3.91681,1.99397 -1.753421,-4.49156 -1.714781,-5.91483 0.12962,-4.77498 0.87735,0.54201 1.59522,0.17303 1.59522,-0.82037 0,-0.99346 -1.20303,-1.57424 -2.673391,-1.29051 -2.23393,0.43107 -2.60918,2.2856 -2.28283,11.28318 0.21464,5.92207 -0.0362,10.76748 -0.55286,10.76748 -0.5191,0 -4.431391,-3.65703 -8.694632,-8.12676 -5.084221,-5.3305 -7.493961,-9.11063 -7.003501,-10.9862 0.77292,-2.95561 -1.49562,-5.50793 -3.295581,-3.70791 z m 26.115625,18.06825 c 1.8381806,3.43479 0.93287,6.34777 -1.97288,6.34777 -0.97176,0 -1.33416,-0.43288 -0.80524,-0.96162 0.52875,-0.52875 0.30748,-2.68238 -0.49197,-4.78554 -1.795201,-4.72169 0.80886,-5.19997 3.27039,-0.60049 z m 29.715666,-18.06825 c -0.5613,0.5613 -1.05249,3.59227 -1.09204,6.73611 -0.0422,3.14382 -1.02185,7.86955 -2.182861,10.50158 l -2.11088,4.78554 -1.18706,-5.99243 c -0.65282,-3.29589 -0.87162,-8.14123 -0.48594,-10.76746 0.4781,-3.2561 0.0301,-4.77499 -1.415671,-4.77499 -1.60999,0 -2.1164901,3.6264 -2.1164901,15.15418 0,8.33482 0.5383901,15.14931 1.1964003,15.14334 0.6580101,-0.006 2.7662308,-2.33896 4.6850308,-5.18436 5.612601,-8.32312 9.711312,-30.60313 4.709751,-25.60151 z m 13.336503,2.61527 c 0,2.3219 -0.943961,3.72208 -2.509281,3.72208 -1.64791,0 -2.24677,-1.00396 -1.74456,-2.9245 0.49257,-1.88449 -0.0934,-2.9245 -1.649301,-2.9245 -1.54596,0 -2.0659,0.90737 -1.44582,2.52321 0.53237,1.38782 0.96827,3.13111 0.96827,3.87401 0,0.74294 1.209661,2.56045 2.688161,4.03895 1.91668,1.91669 2.57192,4.8788 2.28313,10.32072 -0.22308,4.19783 0.28698,8.06014 1.13261,8.5828 2.347341,1.45076 3.358161,-2.81079 2.595731,-10.94394 -0.52151,-5.56395 -0.0989,-7.56956 1.74571,-8.27725 3.342671,-1.28273 7.548272,-9.65414 5.489301,-10.92669 -1.44093,-0.89055 -2.12258,0.24538 -4.07381,6.79013 -0.32677,1.09667 -1.317041,1.99397 -2.200231,1.99397 -1.0353,0 -1.08926,-1.35846 -0.15193,-3.82396 1.43177,-3.76579 0.81169,-5.74711 -1.79864,-5.74711 -0.73114,0 -1.32934,1.67493 -1.32934,3.72208 z m -33.4987669,13.02726 c 0,12.85538 0.3888801,15.15419 2.5634205,15.15419 1.6613603,0 2.2291704,-0.87113 1.6134903,-2.47558 -0.5450201,-1.41959 -0.2773301,-2.05993 0.6269001,-1.50104 0.8672702,0.53598 1.5768903,-0.1447 1.5768903,-1.51232 0,-1.36781 -0.6302101,-2.48691 -1.4004202,-2.48691 -0.7702702,0 -1.3086603,-5.02519 -1.1964003,-11.16702 0.1459,-7.97934 -0.36536,-11.16676 -1.78990032,-11.16622 -1.45522028,4.8e-4 -1.99398038,4.09539 -1.99398038,15.1549 z M -58.34651,-99.003216 c 2.710468,2.360059 3.111037,2.316349 5.221436,-0.56974 1.737203,-2.375744 3.712492,-2.982134 8.230582,-2.526644 10.03193,1.01137 13.64555,1.28424 21.099052,1.59323 l 7.178331,0.29783 -7.975911,3.640393 c -9.297902,4.243758 -18.884169,14.238495 -23.684779,24.693841 -4.515076,9.833567 -4.721027,29.47817 -0.428664,40.872297 3.356539,8.909387 8.58527,15.573444 11.03257,14.060945 0.88542,-0.54744 1.1621,-0.27071 0.6149,0.6149 -1.43099,2.315319 6.220321,9.0518465 8.606252,7.577267 1.26983,-0.7847998 1.55115,-0.5498498 0.79915,0.6667498 -0.76237,1.2334795 2.02683,3.3069788 8.128202,6.0426479 5.108821,2.29060921 8.367871,4.4954785 7.242191,4.8997283 -1.12562,0.4039399 -3.279071,0.19473 -4.785541,-0.4660498 -1.50641,-0.6607198 -3.351471,-1.0626097 -4.100161,-0.8930797 -2.92112,0.6613898 -15.398063,-8.0969073 -21.645157,-15.1939745 -8.761619,-9.953727 -13.307863,-24.765342 -13.523582,-44.059535 -0.08742,-7.827478 0.335214,-14.537115 0.939382,-14.910375 1.194711,-0.73795 0.519702,-21.059423 -0.741148,-22.320463 -0.424443,-0.42444 -1.263382,1.84724 -1.863933,5.048529 -0.600491,3.201229 -0.711968,6.200428 -0.247793,6.664777 0.464235,0.46424 0.08019,2.27228 -0.853891,4.017499 -1.224434,2.287889 -1.208758,2.870599 0.05426,2.088879 0.989121,-0.61135 1.754325,5.4e-4 1.754325,1.40265 0,1.367799 -0.557082,2.486909 -1.238362,2.486909 -0.681098,0 -1.146479,3.409709 -1.034218,7.577087 0.11214,4.167449 -0.440119,8.848137 -1.228172,10.401637 -0.787752,1.553489 -0.871737,3.706999 -0.186297,4.785528 0.685198,1.07859 1.318728,2.319909 1.407958,2.758579 0.08923,0.43891 0.72722,2.08478 1.417845,3.657989 0.690624,1.573209 0.86215,3.253859 0.381034,3.734859 -0.481116,0.48112 0.07777,4.039138 1.24198,7.907057 1.164083,3.867979 1.802557,7.032618 1.41887,7.032618 -0.383446,0 0.116963,1.522259 1.112897,3.382879 1.272425,2.377549 1.289126,3.060628 0.05426,2.298629 -2.498909,-1.5444 -2.169423,1.135859 0.58783,4.781068 1.469393,1.942789 2.360906,2.311109 2.392739,0.98852 0.03617,-1.62645 0.597476,-1.5614 2.443503,0.28457 1.316015,1.316009 2.336126,3.341339 2.266853,4.5007281 -0.09586,1.6080595 -0.316525,1.6350695 -0.93052,0.11394 -0.442531,-1.0967401 -1.550484,-1.9939791 -2.462193,-1.9939791 -1.01161,0 -0.895008,0.918769 0.29904,2.357839 1.609749,1.9395893 0.841772,3.6245787 -4.330287,9.50028673 -3.457886,3.92838867 -8.599619,11.48136627 -11.426085,16.78436427 -2.826467,5.302948 -5.455844,9.641797 -5.843088,9.641797 -0.387063,0 -0.693036,-2.332989 -0.679652,-5.184359 0.01809,-3.934058 0.397313,-4.607258 1.570802,-2.791559 1.077085,1.66673 1.553739,-1.116449 1.570741,-9.172246 0.01809,-9.87034707 0.433487,-11.5921765 2.815977,-11.7501364 2.568303,-0.17002 2.56149,-0.2447799 -0.08501,-0.9309397 -2.294526,-0.5950698 -2.778837,-2.0781493 -2.392799,-7.3284575 0.403944,-5.4898484 1.146058,-6.7546174 4.471968,-7.6186974 l 3.987958,-1.03608 -4.785537,-2.070129 c -3.693682,-1.597749 -4.148632,-2.221449 -1.993979,-2.733559 3.320484,-0.7892 3.757046,-3.619939 0.558287,-3.619939 -2.577046,0 -3.134188,-10.282556 -0.794203,-14.658545 0.840084,-1.571099 0.848646,-3.060809 0.01809,-3.572679 -0.781241,-0.482919 -1.341217,-9.166756 -1.244391,-19.297683 0.170019,-17.769454 0.304466,-18.452004 3.808896,-19.331573 4.514473,-1.13309 4.525868,-1.80997 0.09466,-5.652929 -2.977372,-2.582289 -3.166926,-3.303178 -1.196399,-4.549438 1.28792,-0.81452 3.29872,-1.491939 4.468532,-1.505389 4.318951,-0.0482 0.647275,-4.029259 -4.157073,-4.505793 -4.955556,-0.49136 -4.976718,-0.46062 -5.460306,7.975921 l -0.485336,8.469257 -0.838275,-6.764557 c -1.233238,-9.951201 0.510055,-13.504581 5.985916,-12.202921 2.432891,0.57818 5.744514,2.20168 7.359086,3.607594 z m -0.542612,73.678075 c 0,0.929129 0.717815,1.245709 1.595159,0.703459 0.877344,-0.542009 1.59522,-1.302449 1.59522,-1.689329 0,-0.38706 -0.717876,-0.70341 -1.59522,-0.70341 -0.877344,0 -1.595159,0.7602 -1.595159,1.68928 z m -6.779517,18.5092733 c 1.09668,0.4425299 2.891279,0.4425299 3.987959,0 1.096679,-0.4425298 0.19956,-0.8045797 -1.99398,-0.8045797 -2.193358,0 -3.090658,0.3617399 -1.993979,0.8045797 z M 28.45907,-101.73641 c 1.39874,1.39867 2.47293,1.32686 4.428561,-0.29603 1.6607,-1.37822 2.9655,-1.56868 3.65678,-0.53357 1.550191,2.32057 6.657912,3.949924 6.657912,2.12379 0,-2.47436 2.945,-1.7905 6.167751,1.432314 2.56988,2.569809 3.12925,6.663937 4.086361,29.90955 1.01577,24.668041 0.83598,27.71408 -2.137961,36.232547 C 44.768003,-14.104715 28.48403,1.2188796 13.261837,2.944329 7.4449658,3.6037188 6.5972256,3.3362189 7.4505758,1.1125896 8.372896,-1.2908196 10.594106,-2.1087093 15.685497,-1.9196393 c 1.096681,0.0422 1.993981,-0.5637199 1.993981,-1.3438696 0,-0.7798597 0.99913,-1.4179095 2.22025,-1.4179095 3.444321,0 18.159964,-13.9743656 22.451784,-21.3207826 4.536421,-7.765078 5.776712,-12.781106 6.363992,-25.736991 0.88446,-19.510754 -8.001172,-34.884449 -25.316285,-43.801675 -5.188941,-2.67224 -9.692262,-4.600813 -10.007402,-4.285669 -1.63471,1.634649 1.79171,5.889988 4.046081,5.024888 1.39542,-0.53538 2.03926,-0.47569 1.43081,0.13264 -0.60845,0.60845 2.01122,3.083299 5.821441,5.499668 18.212354,11.549916 25.618585,36.788908 16.806503,57.273221 -6.838421,15.896244 -26.149505,28.8098001 -43.0826779,28.8098001 -15.1074631,0 -32.4410261,-10.9001061 -40.3023381,-25.3438911 -5.497019,-10.099877 -7.94842,-28.145221 -4.672731,-34.397129 1.171741,-2.236409 1.723397,-4.066158 1.225821,-4.066158 -0.497394,0 -0.006,-1.61511 1.088902,-3.589129 1.096499,-1.974029 2.018998,-4.108719 2.050108,-4.743818 0.10973,-2.24292 11.178712,-13.999506 13.180713,-13.999506 1.11652,0 2.03003,-0.760199 2.03003,-1.689329 0,-0.92914 0.71782,-1.24572 1.595161,-0.70347 0.87734,0.54201 1.59516,0.27432 1.59516,-0.59567 0,-0.869979 1.61512,-2.074039 3.589201,-2.675559 1.97402,-0.601689 4.87621,-2.224829 6.449361,-3.607218 2.62022,-2.302604 2.77263,-2.285244 1.81637,0.206789 -0.82363,2.14628 -0.41721,2.48854 1.92531,1.62211 1.6330208,-0.60398 3.5075611,-1.868329 4.1655713,-2.809639 0.8483401,-1.213704 1.5443903,-1.202914 2.3927404,0.0362 0.6580001,0.96175 4.6923809,2.216029 8.9652717,2.787339 6.6892616,0.89429 7.5010116,0.71583 5.8411616,-1.28418 -2.0029608,-2.413423 -2.2613009,-2.277163 8.722431,-4.599843 5.563281,-1.17644 6.497901,-1.08709 8.386852,0.80186 z m -47.468729,11.040101 c -16.288133,7.364507 -25.48119,21.941902 -25.507295,40.446956 -0.01809,11.278546 4.923301,25.909471 8.086671,23.954442 0.787751,-0.48654 1.042051,0.13203 0.564921,1.374619 -1.120201,2.919249 7.372291,10.091307 17.547893,14.819445 15.5909329,7.244478 36.371897,2.2930197 48.576329,-11.574086 2.970741,-3.375408 5.292091,-6.324147 5.158611,-6.552767 -0.13324,-0.2285 1.01818,-2.33986 2.559141,-4.691719 3.35931,-5.126958 4.946331,-33.380938 1.76457,-31.414449 -1.09758,0.67832 -1.38004,0.4154 -0.71311,-0.66368 1.64731,-2.665369 -4.522131,-13.636075 -10.511362,-18.691714 -8.768312,-7.401527 -16.883313,-10.252586 -29.18198575,-10.252586 -7.81403145,0 -13.32124225,0.97435 -18.34456325,3.245539 z m 33.020776,2.001399 c 2.807781,1.4624 6.194941,2.658859 7.527062,2.658859 1.5055,0 2.07187,0.91219 1.49676,2.410879 -0.65698,1.712 -0.19353,2.13005 1.59932,1.44214 2.282831,-0.87601 2.294041,-0.50704 0.11696,3.857069 -1.61288,3.233119 -4.625041,5.653598 -9.126372,7.333757 l -6.7189209,2.507959 6.3807509,-0.832789 c 5.503601,-0.71836 5.942151,-0.56673 3.190321,1.103789 -1.75469,1.06509 -6.254021,2.403649 -9.998472,2.974599 -6.1227112,0.93347 -6.7141013,0.74181 -5.8744411,-1.903779 0.7019001,-2.211449 0.11516,-2.941809 -2.36416048,-2.941809 -3.85514072,0 -3.99380072,0.97749 -0.90508017,6.380698 3.74373075,6.548967 2.70890055,7.309707 -2.58205045,1.897999 -2.7361506,-2.798619 -5.5748511,-5.088378 -6.3081613,-5.088378 -0.7333705,0 0.4648401,1.798099 2.6622906,3.995738 5.438421,5.438419 8.8440417,13.752376 6.69439124,16.342805 -1.16161024,1.399759 -1.10440024,1.993979 0.19172003,1.993979 1.35231023,0 1.38957023,0.85401 0.13927003,3.190369 -0.93908018,1.754689 -2.7588805,3.190319 -4.0440208,3.190319 -1.2852102,0 -2.3366704,0.71782 -2.3366704,1.595219 0,0.87734 -1.4356903,1.59516 -3.1903806,1.59516 -1.7546906,0 -3.1903206,-0.69533 -3.1903206,-1.54512 0,-0.849789 1.02331,-1.152449 2.27403,-0.672479 1.3198706,0.506439 3.345561,-0.76279 4.8279213,-3.025119 2.0167104,-3.077929 2.1964304,-4.837869 0.8544902,-8.367437 -1.2039303,-3.166619 -1.2024902,-4.776789 0.005,-5.523059 1.1033102,-0.681889 0.5215101,-2.556849 -1.6491203,-5.316698 -3.2680907,-4.154658 -7.6465512,-6.117468 -5.3472012,-2.397019 0.79969,1.29389 0.24417,1.51745 -1.8104,0.72891 -2.806871,-1.07708 -2.800301,-0.95662 0.12299,2.273849 3.06064,3.381979 3.05648,3.435939 -0.49196,6.309248 -2.197221,1.779219 -3.203771,3.875999 -2.607071,5.430998 1.07093,2.790599 3.821071,3.465489 3.821071,0.9377 0,-0.87741 -0.75791,-1.59522 -1.68415,-1.59522 -0.926301,0 0.30628,-1.712359 2.73971,-3.805218 3.8103409,-3.277559 4.1274709,-4.162439 2.2863906,-6.380688 -1.4093506,-1.69826 -1.5275806,-2.575479 -0.3466701,-2.575479 0.9847802,0 1.8633304,0.538389 1.9523204,1.196339 1.8703204,13.826835 0.2960201,18.812414 -5.3723409,17.013294 -2.334921,-0.741029 -2.872351,-0.436509 -2.049271,1.1604 0.613571,1.19067 -0.0121,0.77141 -1.39542,-0.9316 -2.43277,-2.999919 -2.51108,-2.965439 -2.51108,1.10596 0,2.534239 -1.407241,5.188028 -3.545251,6.685578 -2.83714,1.987169 -3.008901,2.483239 -0.85974,2.483239 1.47705,0 4.149171,-1.57105 5.938051,-3.491169 1.78887,-1.920119 3.241501,-2.817419 3.228061,-1.993979 -0.0362,2.320569 -2.063381,4.787288 -5.558701,6.769327 -3.118211,1.76819 -3.110981,1.81021 0.31953,1.85766 1.93044,0.0241 4.19391,-1.17379 5.029961,-2.667719 1.28177,-2.29037 1.9194,-2.38478 4.06724,-0.6023 1.4009007,1.162699 2.5471409,2.991539 2.5471409,4.064158 0,2.78505 4.9032809,6.679378 9.5710718,7.601458 2.1933604,0.43348 4.974971,1.06545 6.1813212,1.404699 1.2063402,0.33943 2.5223601,-0.280349 2.9245001,-1.377149 0.443131,-1.20792 -0.73615,-2.066929 -2.9910001,-2.179009 -2.8264706,-0.14048 -3.0316406,-0.36415 -0.8525702,-0.92955 2.9625406,-0.76871 3.2928703,-6.661168 0.4871501,-8.694217 -0.7858201,-0.56914 0.6498701,-2.120399 3.1903202,-3.446729 5.422021,-2.830629 10.632002,-8.425857 18.106784,-19.445643 2.9755,-4.386709 5.683501,-8.314017 6.017751,-8.727247 1.43575,-1.77524 3.577681,4.461838 3.600171,10.483206 0.0482,12.949306 -5.659201,22.629922 -17.522514,29.71981 -3.07076,1.835179 -7.122571,4.710178 -9.004051,6.388958 -2.2359208,1.995059 -3.7879711,2.458209 -4.4808312,1.337109 -1.5680803,-2.537189 -7.21227139,-2.080789 -8.26729159,0.6685 -0.50282011,1.31095 -1.52595031,2.005799 -2.27301041,1.54409 -0.7471102,-0.46182 -0.9895402,-1.80068 -0.5389901,-2.975379 1.2430602,-3.239389 -4.2184508,-4.574579 -7.3010317,-1.78489 -1.47964,1.33905 -3.15926,1.96576 -3.73244,1.39258 -0.573361,-0.57336 0.20317,-1.99681 1.7246,-3.163549 2.42137,-1.85657 2.46804,-2.321949 0.3738,-3.727679 -2.570051,-1.725329 -14.350403,-1.547769 -14.354323,0.21644 -0.004,1.987829 3.975171,2.426199 6.704631,0.7385 1.495501,-0.92467 3.284071,-1.11616 3.974701,-0.42565 0.69056,0.69056 -0.10189,2.015199 -1.7606,2.943609 -2.883501,1.613669 -2.847871,1.817449 0.81085,4.630408 6.458411,4.965499 0.75175,3.327719 -6.362971,-1.826129 -3.674451,-2.661819 -6.257291,-5.524878 -5.739571,-6.362488 0.52151,-0.84382 -0.16279,-1.09927 -1.534451,-0.57276 -1.36159,0.52272 -2.47564,0.15555 -2.47564,-0.815839 0,-0.97122 0.53839,-1.68084 1.1964,-1.57696 3.809201,0.6017 8.374682,-0.42504 8.374682,-1.882439 0,-1.0312 -2.118661,-1.35689 -5.416901,-0.83267 -3.687711,0.58602 -6.041561,0.10853 -7.373622,-1.496819 -2.29223,-2.761959 -1.61963,-2.905569 3.856711,-0.82345 2.583381,0.98219 4.376531,0.98219 4.983531,0 0.52151,-0.84382 -0.74513,-1.5342 -2.81483,-1.5342 -3.948771,0 -7.608512,-2.661689 -7.567092,-5.503408 0.0121,-0.921179 0.70769,-0.59808 1.54271,0.71787 1.311911,2.067599 1.953461,1.959189 4.721031,-0.79758 l 3.202851,-3.190369 h -6.650191 -6.650192 l -0.513072,-7.673987 c -0.282158,-4.220669 0.194135,-8.886587 1.058632,-10.368647 1.350451,-2.315379 1.578521,-2.162009 1.620181,1.08975 0.0422,3.168969 0.4347,3.463849 2.42373,1.81329 1.30637,-1.0842 2.031181,-2.52791 1.610711,-3.208229 -0.420221,-0.68031 1.74095,-3.147929 4.80315,-5.483569 3.062141,-2.335649 5.567562,-3.763258 5.567562,-3.172538 0,0.590849 1.07672,0.180269 2.39274,-0.91171 1.31607,-1.09221 2.39279,-1.58913 2.39279,-1.10427 0,0.48473 1.980661,0.31351 4.401431,-0.38104 2.420831,-0.694239 6.069421,-0.645279 8.1080118,0.10853 2.5783705,0.95385 3.5216707,0.81663 3.0992206,-0.45097 -0.33401,-1.002029 -2.6782705,-2.042639 -5.2095014,-2.312499 -2.53122,-0.2701 -5.224391,-1.602389 -5.984771,-2.961149 -0.76044,-1.358759 -2.60309,-2.447659 -4.094851,-2.419749 -2.38592,0.0422 -2.33968,0.3328 0.384051,2.392739 1.70302,1.28816 2.60032,2.342029 1.99392,2.342029 -2.28572,0 -3.585641,0.35813 -6.685581,1.84054 -3.138231,1.500929 -3.139801,1.485309 -0.0941,-0.95493 2.75129,-2.204209 2.79132,-2.480769 0.35933,-2.480769 -1.505381,0 -3.437751,1.842779 -4.294051,4.095039 -1.25488,3.300649 -2.252981,3.881118 -5.144861,2.992199 -1.97336,-0.60658 -3.083731,-0.56914 -2.467501,0.0826 0.616221,0.652099 0.12902,2.176959 -1.08245,3.388548 -3.985311,3.985309 -4.180471,2.30671 -0.48413,-4.165568 3.622531,-6.343498 7.324722,-8.878697 5.314041,-3.638999 -0.76798,2.001459 0.0543,1.70748 3.019691,-1.07564 5.037551,-4.732478 5.298251,-7.227107 0.48715,-4.663688 -3.305111,1.761079 -3.408211,1.693189 -1.30311,-0.85805 2.49505,-3.023789 12.916812,-8.729597 19.248863,-10.538486 6.4465315,-1.841619 19.536684,-0.71691 25.044865,2.151939 z m -20.6395139,0.59687 c 1.9842704,0.38164 4.8555909,0.36717 6.38069123,-0.0301 1.52517027,-0.39912 -0.0983,-0.71148 -3.60776073,-0.69376 -3.5093806,0.0181 -4.7572009,0.34426 -2.7729305,0.72596 z m -21.8510541,23.780932 c -2.953261,1.241729 -4.960321,2.666989 -4.460151,3.167159 0.50041,0.50041 3.505821,-0.32255 6.679131,-1.82848 3.173381,-1.505869 6.157082,-2.350599 6.630482,-1.877139 0.47328,0.47328 -0.629011,1.33356 -2.449771,1.911509 -3.365641,1.06816 -4.625891,4.026059 -1.71544,4.026059 0.87734,0 1.59522,-0.71782 1.59522,-1.595159 0,-0.87735 0.9395,-1.59516 2.087851,-1.59516 1.14835,0 3.46229,-1.00498 5.142031,-2.233269 2.83117,-2.070189 2.64548,-2.233269 -2.542801,-2.233269 -3.078301,0 -8.013292,1.016009 -10.966552,2.257749 z m 7.023511,6.686718 c -2.50156,1.793279 -2.63691,7.645827 -0.22307,9.649026 1.829141,1.51811 2.151881,1.10669 1.781151,-2.270409 -0.326171,-2.974409 0.16459,-3.887509 1.76186,-3.274659 3.04599,1.16885 4.729891,-2.056499 2.26282,-4.334138 -1.56821,-1.44781 -1.71556,-1.32976 -0.67146,0.53779 1.08957,1.948759 0.9011,2.039669 -1.01583,0.490149 -1.29455,-1.046509 -3.047491,-1.405419 -3.895411,-0.797569 z m 50.99246,-17.121385 c -1.64671,1.81961 -2.29633,3.170299 -1.44359,3.001479 0.85268,-0.16881 2.11203,-0.221859 2.79849,-0.11816 1.441121,0.21825 -18.698173,25.187072 -23.5355542,29.179671 -3.1355206,2.587899 -3.2600206,2.489379 -4.0330008,-3.190379 -0.4389101,-3.223349 -0.5426101,-8.552527 -0.23151,-11.842626 0.5142701,-5.429848 0.9998502,-5.981868 5.263581,-5.981868 6.075861,0 14.565033,-4.353679 13.102752,-6.719768 -0.72638,-1.1753 -0.19836,-1.44793 1.523831,-0.78703 1.44944,0.55588 2.46449,0.37018 2.2557,-0.41419 -0.2086,-0.783889 1.05599,-2.529779 2.810671,-3.879798 4.451111,-3.424659 5.011931,-3.141179 1.48839,0.752239 z m 6.259451,5.066359 c -6.512491,10.696876 -17.789903,25.907851 -21.560024,29.0802 -2.57259,2.164719 -7.5160913,4.700228 -10.985612,5.634418 -3.46952067,0.93426 -6.3081612,2.414079 -6.3081612,3.288469 0,1.046459 1.0330702,1.036879 3.02283057,-0.0301 2.20680043,-1.18109 3.50973063,-1.03121 4.82623093,0.55527 2.1653804,2.609059 -0.14831,3.862618 -6.2539112,3.388428 -7.2036514,-0.559489 -4.984851,-5.945758 4.2899008,-10.413986 10.2749621,-4.950068 14.0840331,-8.524007 23.8651641,-22.391722 4.255041,-6.032818 8.317222,-10.999887 9.027012,-11.037927 0.7098,-0.0362 0.74423,0.8282 0.0766,1.92488 z M 0.1324844,-25.419261 c 0,0.877349 -0.71781014,1.595219 -1.5951603,1.595219 -0.8773402,0 -1.5951503,-0.71787 -1.5951503,-1.595219 0,-0.87734 0.7178101,-1.59516 1.5951503,-1.59516 0.87735016,0 1.5951603,0.71782 1.5951603,1.59516 z m 26.2224546,4.944158 c -0.59627,0.96459 -5.483871,3.835369 -10.861582,6.379488 -9.4412715,4.4664783 -17.1158529,5.6110879 -24.4448543,3.645809 -2.9899807,-0.80174 -3.2249907,-1.38058 -1.6103007,-3.966129 2.3914208,-3.829209 4.2484112,-3.920369 3.265141,-0.16037 -0.5896401,2.253709 0.18208,2.850939 3.6057807,2.791559 2.3955704,-0.0422 4.64590086,-0.94698 5.0008309,-2.012009 0.4859401,-1.45824 1.3527903,-1.49453 3.5105207,-0.14711 3.0615406,1.911929 3.8090207,1.684329 13.6565827,-4.159419 7.176891,-4.258898 9.470932,-4.949648 7.877881,-2.371939 z m 43.965459,-71.991686 c 0,0.84979 -1.07673,1.13195 -2.392801,0.6269 -1.31602,-0.50524 -2.39274,-1.200259 -2.39274,-1.545119 0,-0.34486 1.07672,-0.6269 2.39274,-0.6269 1.316071,0 2.392801,0.69533 2.392801,1.545119 z m 0,20.787403 c 0,14.726605 -0.23755,15.951755 -3.096211,15.951755 -3.81788,0 -4.655791,-1.28876 -5.592041,-8.601297 -0.59325,-4.634569 -0.2074,-5.765188 1.981741,-5.806008 2.39696,-0.0422 2.35228,-0.32798 -0.378021,-2.392799 -2.08881,-1.5799 -2.37429,-2.34203 -0.87734,-2.34203 1.725991,0 1.793691,-0.425649 0.30507,-1.914219 -2.77655,-2.776539 -2.34674,-7.246397 0.877341,-9.124257 6.182341,-3.600889 6.779521,-2.347459 6.779521,14.228855 z m -140.731708,38.683037 -0.355712,49.849323 -0.840386,-38.284277 c -0.817596,-37.243007 -0.469058,-61.414379 0.885664,-61.414379 0.366564,0 0.506438,22.432243 0.310494,49.849333 z M 59.154156,-67.785607 c 0,0.38706 -0.71787,1.14708 -1.595221,1.68933 -0.87734,0.542009 -1.59515,0.225489 -1.59515,-0.70346 0,-0.92914 0.71781,-1.68934 1.59515,-1.68934 0.877351,0 1.595221,0.31653 1.595221,0.70347 z m -0.46725,12.438166 c -0.38163,1.984279 -0.708231,0.73645 -0.725891,-2.772979 -0.0181,-3.509379 0.294221,-5.132868 0.693701,-3.607709 0.39912,1.525099 0.41359,4.396419 0.0301,6.380688 z m 11.322452,5.958848 c -0.38465,5.050148 -2.680991,6.921677 -5.986101,4.879048 -1.452091,-0.89748 -1.516241,-1.559349 -0.2279,-2.355419 0.98539,-0.60899 1.32892,-1.855679 0.76358,-2.770519 -0.97266,-1.57382 1.94828,-4.419689 4.590441,-4.472569 0.67193,-0.0121 1.05906,2.11034 0.86022,4.719459 z m -12.627493,16.036714 c -0.87602,3.924289 -3.64123,11.245627 -6.144961,16.269675 l -4.552211,9.1346867 4.373451,6.019558 c 2.405401,3.3107088 5.652451,7.0731775 7.215592,8.3610371 1.56321,1.2877996 4.49543,5.9537182 6.515991,10.3686562 2.02063,4.414929 3.732691,6.811948 3.804561,5.326758 0.0717,-1.485189 -1.393971,-5.284438 -3.257421,-8.442797 -1.86345,-3.158309 -2.951391,-6.1791476 -2.417581,-6.7129574 0.533571,-0.5335698 -0.27432,-1.9159593 -1.79623,-3.0715389 -2.4464,-1.8577294 -2.07416,-2.1068493 3.215161,-2.1516993 l 5.981931,-0.0482 V 15.260325 c 0,7.457477 -0.34847,13.559025 -0.7746,13.559025 -0.42626,0 -2.882001,-4.127528 -5.457721,-9.172257 C 61.512166,14.602315 56.478595,7.2445575 52.902125,3.2965189 44.562533,-5.909558 43.522713,-9.7341267 47.860174,-15.248335 c 1.85965,-2.364099 4.88405,-9.246407 6.720971,-15.293995 3.719731,-12.246445 5.250191,-13.780345 2.80072,-2.807049 z m 12.938283,-5.570278 c 0,1.95461 -0.64396,2.10425 -3.190371,0.74151 -1.75469,-0.93908 -3.19032,-2.041119 -3.19032,-2.448929 0,-0.40756 1.43563,-0.74145 3.19032,-0.74145 1.804901,0 3.190371,1.06346 3.190371,2.448869 z m 0,20.886703 v 16.9549344 l -8.374672,-1.1015097 c -4.606111,-0.6057898 -9.016461,-1.7348494 -9.800902,-2.5090391 -0.82688,-0.8160797 0.0181,-1.0290897 2.017731,-0.5070398 2.70034,0.7061797 3.22969,0.3424499 2.45189,-1.6843795 -0.54563,-1.4217695 -0.37682,-2.5850691 0.375,-2.5850691 1.935021,0 1.709351,-7.9604172 -0.2279,-8.0478372 -0.87734,-0.0422 0.55829,-1.03205 3.190381,-2.205539 l 4.785541,-2.13355 -3.987961,-1.681309 c -2.902851,-1.22383 -3.217631,-1.708809 -1.15691,-1.782419 1.55706,-0.0543 3.48472,-1.8204 4.283681,-3.921759 1.21027,-3.183319 2.69793,-4.567348 6.045491,-5.624468 0.21945,-0.0693 0.39912,7.503717 0.39912,16.828924 z M -37.948573,-5.0807183 c 1.98421,2.5300192 1.92778,2.5864491 -0.6023,0.6022998 -1.86544,-1.4629995 -2.791561,-1.5874994 -2.791561,-0.3756098 0,2.4865491 9.879522,8.3383771 12.445473,7.3716274 1.14226,-0.4304798 1.67613,-0.1338499 1.18645,0.6581798 -0.48955,0.7923397 -0.12902,1.6944594 0.80156,2.0046493 0.93058,0.3098999 -3.59438,5.9346678 -10.055442,12.4988858 -6.461127,6.564158 -14.394418,15.112585 -17.629532,18.996484 l -5.882096,7.061607 -4.046681,-3.801659 c -3.246268,-3.049719 -3.849412,-4.761958 -3.04936,-8.656767 1.64936,-8.029147 8.005217,-20.466653 13.387387,-26.1971807 2.784445,-2.964589 6.17776,-7.0921176 7.540681,-9.1722469 2.94355,-4.4923485 5.702551,-4.8066384 8.695361,-0.9905097 z m -3.911691,7.8291074 c -1.891788,1.8917793 2.156821,5.0209683 5.399231,4.1731085 3.003601,-0.7854697 3.021321,-0.9406496 0.34004,-2.9749689 -3.23747,-2.4563392 -4.26638,-2.6711491 -5.739391,-1.1981396 z m -10.598241,8.1226569 c 0.03014,0.65801 1.779105,2.453689 3.892338,3.990309 4.293629,3.122189 7.203593,1.02596 3.975417,-2.863789 -1.988493,-2.3959893 -7.956744,-3.250549 -7.867755,-1.12652 z m -8.026017,11.409016 c 0,0.79155 2.153446,2.18986 4.785537,3.107359 5.333637,1.85935 6.58906,-0.27854 1.700004,-2.895199 -3.800576,-2.034009 -6.485541,-2.121849 -6.485541,-0.21222 z m -3.190379,6.536788 c 0,0.87734 0.897299,1.41567 1.99398,1.19633 1.096679,-0.21945 1.854406,0.37863 1.683785,1.329339 -0.170621,0.95048 0.726678,1.7281 1.993979,1.7281 3.272132,0 2.852753,-2.252739 -0.781362,-4.197639 -3.858455,-2.065059 -4.890382,-2.076879 -4.890382,-0.0543 z M 59.999666,18.304284 c 6.910291,12.788395 7.566251,16.585834 3.782971,21.899032 -1.787961,2.510909 -3.740281,4.560409 -4.338541,4.554379 -0.59808,-0.006 -2.684241,-2.338959 -4.635481,-5.184288 -1.95123,-2.8454 -6.785301,-8.762587 -10.742452,-13.149356 -3.957091,-4.386719 -7.206012,-8.824797 -7.219752,-9.862337 -0.0121,-1.037589 -1.46071,-2.342149 -3.2154,-2.899109 -1.754691,-0.557089 -3.190321,-1.724359 -3.190321,-2.594409 0,-0.869989 0.7095,-1.1432894 1.576711,-0.60731 1.61554,0.99847 12.779722,-7.0042672 12.779842,-9.1609164 6e-5,-2.08277933 -4.314911,-1.2926796 -6.353201,1.1632996 -3.662871,4.4134885 -10.773082,7.0758476 -13.498383,5.0543782 -2.11311,-1.5673694 -1.6083,-2.4028091 3.507321,-5.804628 3.2866,-2.18551924 6.334581,-4.4108285 6.773251,-4.9451183 0.43891,-0.5341698 1.8743,-1.3816095 3.190321,-1.8829294 3.08655,-1.1757796 15.672443,12.4809158 21.583114,23.4193123 z M 43.689833,13.612195 c -3.738481,3.289019 -3.991631,3.945879 -1.536921,3.987959 3.433231,0.0603 10.983013,-5.435828 9.502712,-6.916128 -1.73148,-1.731479 -3.34231,-1.1393092 -7.965791,2.928169 z M 53.960935,24.929932 C 50.873474,29.0231 50.510714,30.412 52.529104,30.412 c 1.539631,0 8.219972,-5.522998 8.219972,-6.795968 0,-2.678819 -4.422051,-1.822869 -6.788141,1.3139 z m 5.136851,9.537616 c -2.861371,3.447749 0.0874,5.866718 3.80498,3.121519 1.623251,-1.198629 2.478171,-2.944869 1.899861,-3.880578 -1.46451,-2.36958 -3.312341,-2.12366 -5.704841,0.759059 z M -0.4187457,1.0692396 C 1.8333347,1.6734094 4.4265352,5.1295483 7.1034257,11.094416 10.463156,18.580834 11.061906,21.922663 10.474676,29.91105 9.2966062,45.938604 5.6228755,52.047322 1.6389647,44.603295 -0.11602565,41.323986 -0.25734567,41.367816 -4.5653265,46.528114 l -4.4083608,5.280518 -2.1350607,-3.918798 c -3.01801,-5.539528 -4.592911,-19.304984 -2.57783,-22.531653 1.18892,-1.903789 1.10295,-3.337848 -0.30145,-5.030198 -1.080521,-1.301909 -1.396261,-2.616409 -0.70166,-2.921059 1.8602,-0.81585 7.473881,-12.9874755 7.0608909,-15.3093147 -0.3840501,-2.16079928 1.8181704,-2.47490917 7.2101114,-1.0283697 z M -12.629148,8.2259972 c 0,0.5817998 -1.07678,1.9516498 -2.392801,3.0438688 -1.70247,1.4129 -2.39274,5.150828 -2.39274,12.956726 0,6.957427 -0.646,10.970946 -1.76584,10.970946 -0.97121,0 -1.352671,-1.07672 -0.84768,-2.392799 0.50524,-1.31601 0.32256,-2.392739 -0.405751,-2.392739 -0.72818,0 -0.98086,-1.79459 -0.5613,-3.987949 0.41902,-2.193359 0.0362,-3.987959 -0.85082,-3.987959 -1.03614,0 -1.13767,-2.107989 -0.28396,-5.893848 0.73114,-3.241629 1.00998,-6.410537 0.61966,-7.0420772 -0.39008,-0.6314798 0.0898,-1.4145896 1.06641,-1.7401594 2.900631,-0.9668697 7.814942,-0.6738598 7.814942,0.4660498 z m 30.557326,4.6486688 c 1.83861,8.733217 -0.28216,27.88253 -3.654981,32.997438 -1.62452,2.46382 -2.95838,3.557059 -2.96416,2.42951 -0.006,-1.12755 1.05538,-3.676859 2.35813,-5.665109 2.37682,-3.627418 2.42897,-16.309344 0.0826,-20.105633 -0.62195,-1.006309 -0.36415,-2.753519 0.57276,-3.882628 1.25368,-1.51058 0.84702,-2.972549 -1.53921,-5.533918 -3.5055708,-3.7627792 -2.767081,-7.110808 1.3918,-6.3099183 1.48573,0.2863799 3.076911,2.859989 3.752771,6.0702583 z m 12.817882,7.568837 c 2.118121,1.748229 1.570981,3.724059 -4.417221,15.951825 -6.401681,13.071995 -17.3201829,28.28979 -22.3738339,31.183839 -2.9382405,1.682639 -2.8765005,-1.1964 0.0892,-4.162199 1.2742402,-1.274229 1.8345203,-2.799089 1.2450602,-3.388548 -0.5896401,-0.58964 -0.0181,-0.68417 1.2723002,-0.21041 1.6092703,0.591449 4.1575605,-2.25763 8.1286915,-9.087967 5.619051,-9.664697 7.470202,-18.730474 7.731862,-37.865077 0.0543,-3.974149 0.0645,-3.971379 2.98045,0.797579 1.609211,2.632029 4.013761,5.683428 5.343461,6.780898 z m -55.44139,7.847917 c 1.04229,14.199246 1.54572,15.943985 6.328961,21.933693 2.85818,3.579009 6.813281,9.019717 8.7891115,12.090476 l 3.5924607,5.583118 -4.2228512,-4.785538 C -18.858519,53.309622 -22.16278,48.395604 -29.114971,34.994478 l -7.128772,-13.741525 4.193901,-4.193959 c 2.306711,-2.306709 4.650311,-4.193968 5.208051,-4.193968 0.55769,0 1.523661,6.941867 2.146461,15.426394 z m -15.752813,21.324403 c -5.873962,6.279708 -7.301393,8.942727 -7.412086,13.827795 -0.133845,5.899098 -0.171224,5.936358 -1.503036,1.49213 -0.751276,-2.506989 -2.655966,-6.096128 -4.232676,-7.975917 -1.57665,-1.87973 -2.195589,-2.858659 -1.375401,-2.17539 1.323069,1.10229 5.044424,-8.904387 6.23389,-16.762844 0.229706,-1.517509 1.025898,-3.312049 1.769337,-3.987959 0.74344,-0.675849 0.739883,-0.15193 -0.006,1.1639 -1.169148,2.057649 -0.983997,2.088209 1.321864,0.21825 1.47476,-1.1961 2.238456,-2.891459 1.69705,-3.767469 -0.541406,-0.876079 0.0048,-2.204459 1.213943,-2.951989 1.616984,-0.999739 3.173015,0.55828 5.884145,5.891498 l 3.685791,7.250678 -7.274921,7.777557 z M 42.031972,30.02916 c -0.20499,1.001239 1.500441,5.549478 3.789661,10.107236 3.509621,6.987388 4.031611,9.726977 3.329291,17.472154 -0.45821,5.052019 -1.657741,10.510757 -2.665851,12.130576 -1.48785,2.390509 -1.68536,1.51991 -1.04899,-4.623118 0.71697,-6.920408 0.27974,-8.174627 -5.111711,-14.653715 -6.499651,-7.811198 -7.525911,-8.386787 -8.841442,-4.958448 -0.50764,1.323489 1.577431,5.286548 4.826411,9.172256 4.559571,5.453189 5.192141,6.946578 3.116401,7.357638 -2.905261,0.57516 -3.626691,5.067388 -0.81385,5.067388 1.28725,0 1.26549,0.63256 -0.0778,2.250749 -1.14358,1.37794 -1.27441,2.617559 -0.33762,3.196649 0.84183,0.52031 1.35472,2.14416 1.13978,3.608669 -0.21523,1.46445 0.11154,5.409718 0.72548,8.767167 1.20761,6.604128 -0.62045,8.042467 -4.210671,3.312879 -1.73208,-2.281739 -2.14887,-2.354569 -2.28199,-0.39851 -0.11093,1.6291 -0.60049,1.37461 -1.53378,-0.79764 -2.085921,-4.854148 -1.840481,-7.178277 0.75809,-7.178277 1.83385,0 2.02756,-0.85678 0.87752,-3.881659 -1.03494,-2.721989 -0.90399,-4.115408 0.43831,-4.664058 1.43093,-0.58481 1.37607,-1.16034 -0.21765,-2.27939 -1.17228,-0.823319 -1.89009,-3.170478 -1.59516,-5.215828 0.47449,-3.291719 -0.17243,-3.765968 -5.632912,-4.129028 -3.39301,-0.22549 -6.496761,-0.73777 -6.897141,-1.1381 -1.16541,-1.16547 3.736241,-9.542317 7.357582,-12.573886 1.82377,-1.526729 3.31602,-3.902038 3.31602,-5.278468 0,-1.376359 0.65939,-2.094959 1.46535,-1.596849 0.805961,0.498 1.941111,-1.26036 2.522551,-3.907709 0.63576,-2.894589 1.74944,-4.385568 2.793661,-3.740219 1.12243,0.6937 1.36051,0.0934 0.67339,-1.697109 -0.796381,-2.075429 -0.36416,-2.617499 1.72291,-2.160919 1.53227,0.335209 2.61834,1.428569 2.41342,2.429869 z M -67.099386,40.780656 c 2.605322,3.164149 2.597424,3.165419 -0.962233,0.15133 -1.974083,-1.671309 -3.505937,-4.542628 -3.404107,-6.380698 0.177857,-3.214129 0.214634,-3.219919 0.962232,-0.15133 0.427458,1.75469 1.959312,4.626009 3.404108,6.380698 z m 50.231777,2.086579 c 0.90942,4.773479 0.7687,5.040259 -1.47512,2.796439 -1.54832,-1.548369 -2.085021,-3.726348 -1.42816,-5.795938 1.28798,-4.058068 1.62501,-3.709898 2.90328,2.999499 z m -11.009482,2.053 c -0.59386,0.960789 0.4986,3.881368 2.42729,6.490187 3.203641,4.333179 3.470721,10.620837 0.369571,8.704338 -0.718901,-0.44434 -3.273691,0.881919 -5.677222,2.947229 -3.43142,2.948489 -4.49573,5.443118 -4.95514,11.613876 -0.551651,7.408767 -4.912931,20.792042 -6.317872,19.387103 -0.35511,-0.35511 -0.836407,-8.895157 -1.069067,-18.977434 l -0.423237,-18.331413 6.469925,-6.790368 c 5.819331,-6.107638 11.898103,-9.448977 9.175392,-5.043518 z m 28.0093354,9.363317 c 0,0.846469 -1.3884203,2.282159 -3.0854706,3.190378 -3.8585107,2.065 -4.8903809,2.07681 -4.8903809,0.0543 0,-0.877349 1.0767202,-1.595219 2.3927404,-1.595219 1.3160103,0 2.3928005,-0.71782 2.3928005,-1.595159 0,-0.87734 0.7178101,-1.59516 1.5951503,-1.59516 0.87735016,0 1.5951603,0.69255 1.5951603,1.53903 z m -16.4980634,7.514867 c -0.59265,0.59266 0.48956,2.746399 2.404921,4.785538 3.54368,3.772059 2.85107,4.466779 -3.789961,3.801539 -1.50087,-0.15012 -4.279401,0.55648 -6.174391,1.57062 -2.623341,1.403979 -3.170301,1.398669 -2.292231,-0.0241 1.821851,-2.947829 7.776112,-4.650059 9.999132,-2.85866 1.321631,1.06497 1.993981,1.06889 1.993981,0.0121 0,-6.379547 -11.616243,-5.095848 -14.298313,1.58009 l -1.45124,3.612349 -0.10129,-3.551039 c -0.0717,-2.529719 1.61946,-4.459359 5.880831,-6.709028 5.974641,-3.154149 9.865352,-4.257938 7.828321,-2.220909 z m 38.425268,0.6149 c 3.37589,1.176809 5.107481,3.000409 5.680301,5.981878 1.07341,5.587148 0.65861,5.828978 -4.735131,2.760389 -3.521561,-2.00345 -3.730161,-2.361749 -0.93866,-1.61253 4.5416,1.21901 4.719091,-1.724959 0.24839,-4.117698 -2.739651,-1.4662 -3.978251,-1.18916 -6.882372,1.539089 -5.148661,4.836909 -6.4773409,4.073449 -2.53822,-1.458539 1.87419,-2.632029 3.610541,-4.785539 3.858521,-4.785539 0.24779,0 2.63631,0.76183 5.307231,1.69295 z M 1.7274647,80.964802 c 0,11.468037 4.6841909,22.222538 8.9638913,20.580308 1.211291,-0.46484 2.202341,-0.15013 2.202341,0.69997 0,1.98311 14.396223,1.97546 17.535603,-0.006 C 34.191111,99.860806 21.843729,88.03518 14.346997,86.83637 5.8149055,85.472061 4.3080652,84.107511 5.6090755,78.923823 c 0.6313001,-2.515189 1.5990103,-3.712669 2.2098704,-2.734459 0.5980801,0.95711 3.1972601,1.50629 5.7766511,1.22033 5.567931,-0.61725 13.654713,4.542568 13.654713,8.712477 0,3.070829 5.960541,10.279846 9.681411,11.709206 2.910751,1.118139 -6.289481,9.397003 -9.282591,8.352963 -1.096741,-0.38284 -1.993971,-0.0482 -1.993971,0.74277 0,0.79107 -2.90617,1.17235 -6.458111,0.8472 -5.453071,-0.4992 -6.672931,-0.0482 -7.838211,2.89833 -0.759121,1.91922 -3.1903811,5.8991 -5.4028515,8.84428 -3.4112806,4.54076 -3.9777707,6.87471 -3.7268407,15.3541 0.2809501,9.50234 0.11033,9.99932 -3.4337707,9.99883 -3.4645206,-5.4e-4 -3.6913307,-0.54261 -3.1903806,-7.62701 0.2966301,-4.19457 0.0832,-7.34346 -0.4744801,-6.99752 -0.5576901,0.34607 -1.3512902,-1.1355 -1.7635503,-3.29208 -0.4123901,-2.15659 -0.13566,-3.54151 0.6152001,-3.07764 2.7653306,1.70905 1.1112702,-1.87967 -3.0868006,-6.69746 -5.3640806,-6.15587 -9.1898016,-8.19694 -17.2015336,-9.1775 -9.034011,-1.1056 -14.585232,-3.57455 -16.630757,-7.39669 -1.634167,-3.053463 -1.405908,-3.301263 2.642035,-2.867893 3.92164,0.41962 4.935481,-0.51548 8.823241,-8.137068 4.863551,-9.534836 10.147872,-15.377254 11.674363,-12.907345 1.74479,2.823089 5.549291,1.799359 4.50657,-1.21262 -0.67658,-1.954189 0.362341,-1.517269 3.464281,1.45655 5.8023912,5.563158 4.402451,8.646577 -4.534011,9.986646 -5.615311,0.84208 -8.070931,2.24991 -11.293142,6.474448 -4.805861,6.300808 -5.073671,8.108012 -1.49822,10.108912 3.01434,1.68692 8.546931,0.64631 8.546931,-1.6075 0,-0.8378 1.680891,-1.303 3.735341,-1.0338 7.5851116,0.994 18.0763436,-14.984109 12.2164325,-18.605748 -0.8773502,-0.54201 -1.5447003,-2.199679 -1.4830203,-3.683309 0.0922,-2.226269 0.3750001,-2.140239 1.6172803,0.49318 1.2561503,2.662589 1.3981303,2.422879 0.8584202,-1.448839 -0.6381201,-4.576929 1.8642903,-9.269677 4.19167078,-7.860638 0.65801012,0.39852 1.19640022,5.442578 1.19640022,11.209336 z M -7.021007,104.189 l -5.511191,5.1843 5.560261,6.38076 5.5602711,6.38069 5.6115711,-6.01745 5.6115811,-6.0175 -4.2313509,-5.54755 c -2.3272704,-3.05116 -4.87453089,-5.547594 -5.66065104,-5.547594 -0.78607015,0 -3.90928076,2.332994 -6.94049136,5.184344 z m 12.0595523,2.25118 c 2.1269804,2.33486 3.0195206,3.75879 1.9834304,3.16433 -1.0360302,-0.59446 -2.3418504,-0.33943 -2.9017705,0.56613 -0.5601001,0.90598 -1.7971904,1.16571 -2.7494806,0.57698 -0.99406015,-0.61436 -1.27568021,-0.33281 -0.66132009,0.66138 1.70025029,2.75104 -1.6025103,3.76295 -3.76747071,1.15426 -1.0761902,-1.29667 -2.5932105,-1.96426 -3.3711307,-1.48345 -0.7779301,0.48052 -1.4144102,0.1658 -1.4144102,-0.69936 0,-1.23655 7.39472139,-8.18584 8.71055164,-8.18584 0.16761006,0 2.04462036,1.91035 4.17160076,4.24515 z m -4.9063009,-1.34429 c 0,1.9279 3.0263906,4.17558 4.1326608,3.06931 0.4015301,-0.40153 -0.3641601,-1.63802 -1.7013303,-2.74784 -1.5160003,-1.2582 -2.4313305,-1.3792 -2.4313305,-0.32135 z M -34.763742,93.049368 c -1.575441,1.56369 -1.758671,1.38046 -0.89296,-0.893019 0.59929,-1.57315 1.49098,-2.45851 1.9821,-1.96739 0.49137,0.49137 10e-4,1.77832 -1.08914,2.860409 z m 47.657439,-1.849949 c 0,1.01451 1.16716,1.31801 2.74297,0.7133 1.508581,-0.57879 2.224831,-0.53478 1.591661,0.0989 -0.63317,0.633169 0.0754,2.506629 1.57454,4.163218 2.61503,2.889529 2.55148,2.980389 -1.56242,2.234359 -2.358561,-0.427459 -5.896811,-1.904269 -7.8628118,-3.281298 -3.3683607,-2.35933 -3.3930807,-2.51018 -0.4280601,-2.615809 3.1015709,-0.11033 3.1009009,-0.13143 -0.0422,-1.48308 -3.0441706,-1.30811 -3.0259006,-1.37606 0.3991301,-1.483079 1.9740208,-0.0615 3.5891308,0.682549 3.5891308,1.653769 z m -24.399515,1.424539 c 2.0037406,0 2.0908606,0.44193 0.47207,2.39274 -1.09222,1.316079 -4.410351,2.392799 -7.373611,2.392799 -5.216921,0 -5.299271,-0.0971 -2.596281,-3.056169 1.535411,-1.68096 3.747581,-2.757679 4.916001,-2.392799 1.168491,0.36475 3.230411,0.663429 4.582061,0.663429 z m -16.277583,20.737302 c -0.54201,0.87734 -0.22548,1.59522 0.70347,1.59522 0.92913,0 1.689331,-0.71788 1.689331,-1.59522 0,-0.87735 1.40121,-1.59516 3.11375,-1.59516 5.231141,0 12.8380226,12.77278 12.8380226,21.55646 0,8.99741 -3.7191806,9.27902 -4.4779406,0.33883 -0.57577,-6.7815 -9.236822,-15.51484 -15.386853,-15.51484 -4.920101,0 -8.848432,-1.53396 -8.848432,-3.45517 0,-0.83526 0.71787,-1.07504 1.59522,-0.53297 0.877341,0.54201 1.595161,0.22549 1.595161,-0.70346 0,-0.92913 1.83692,-1.68927 4.08207,-1.68927 2.315201,0 3.655391,0.69044 3.096201,1.59515 z m 61.414412,1.91831 c 0,0.69967 -1.25621,1.35484 -2.791561,1.45607 -4.962001,0.32677 -5.924421,0.59567 -9.571072,2.6711 -1.97402,1.12345 -3.6179,1.47904 -3.65299,0.79016 -0.0362,-0.68887 -1.13484,0.72156 -2.443741,3.13425 -1.3089,2.41269 -2.97948,4.38672 -3.71237,4.38672 -0.732951,0 -1.089141,2.87132 -0.791611,6.38074 0.413591,4.87802 -0.0301,6.3807 -1.8791299,6.3807 -1.9033604,0 -2.1957705,-1.19592 -1.3694303,-5.6006 0.5908401,-3.14871 0.3328001,-6.46588 -0.5896401,-7.57709 -1.1833702,-1.42604 -0.2996401,-3.57479 3.1733803,-7.71558 4.546541,-5.42075 5.335261,-5.73456 14.220773,-5.65878 5.173991,0.0422 9.407212,0.6527 9.407212,1.35231 z m -54.491641,10.84314 2.502701,3.98796 -4.017921,-3.58914 c -4.873501,-4.35344 -10.980112,-4.79561 -11.015082,-0.79764 -0.0181,2.38568 -0.249,2.44368 -1.57074,0.39852 -2.689011,-4.16087 -1.771871,-4.98209 5.001551,-4.47842 4.997701,0.37139 7.203421,1.45721 9.099491,4.47842 z m 53.295301,-3.72907 c -1.096741,0.44253 -2.891281,0.44253 -3.987961,0 -1.09668,-0.44253 -0.19956,-0.80458 1.99398,-0.80458 2.193361,0 3.090661,0.36175 1.993981,0.80458 z m -11.268003,4.97497 c -2.35675,2.44 -4.58694,4.23171 -4.955981,3.98168 -0.91961,-0.6231 6.511952,-8.41796 8.025592,-8.41796 0.66844,0 -0.71287,1.99633 -3.069611,4.43628 z m -40.478807,7.12876 c 0.70877,3.69013 -3.262731,3.5939 -6.661222,-0.16158 -2.54082,-2.80752 -2.45575,-2.94498 1.726351,-2.79154 2.8387,0.1043 4.588871,1.15141 4.934871,2.953 z"
       id="path304" /></g></svg>
