<?xml version="1.0" encoding="UTF-8" standalone="no"?>
<!-- Created with Inkscape (http://www.inkscape.org/) -->

<svg
   width="210mm"
   height="297mm"
   viewBox="0 0 210 297"
   version="1.1"
   id="svg863"
   xml:space="preserve"
   inkscape:version="1.2.2 (732a01da63, 2022-12-09)"
   sodipodi:docname="Freyja.svg"
   xmlns:inkscape="http://www.inkscape.org/namespaces/inkscape"
   xmlns:sodipodi="http://sodipodi.sourceforge.net/DTD/sodipodi-0.dtd"
   xmlns="http://www.w3.org/2000/svg"
   xmlns:svg="http://www.w3.org/2000/svg"><sodipodi:namedview
     id="namedview865"
     pagecolor="#ffffff"
     bordercolor="#000000"
     borderopacity="0.25"
     inkscape:showpageshadow="2"
     inkscape:pageopacity="0.0"
     inkscape:pagecheckerboard="0"
     inkscape:deskcolor="#d1d1d1"
     inkscape:document-units="mm"
     showgrid="false"
     inkscape:zoom="0.2973261"
     inkscape:cx="850.91756"
     inkscape:cy="406.96057"
     inkscape:window-width="2560"
     inkscape:window-height="1494"
     inkscape:window-x="-11"
     inkscape:window-y="-11"
     inkscape:window-maximized="1"
     inkscape:current-layer="layer1" /><defs
     id="defs860" /><g
     inkscape:label="레이어 1"
     inkscape:groupmode="layer"
     id="layer1"><path
       style="fill:#000000;stroke-width:1.36425"
       d="M -70.066387,-147.33486 -75,-141.87398 v 75.81035 c 0,74.80235 0.04331,76.004 3.240154,90.37739 1.782084,8.01193 4.007484,19.17146 4.945333,24.799 0.937848,5.62749 3.242194,16.98486 5.120773,25.23856 1.878578,8.25369 4.001664,18.05101 4.717976,21.77178 0.716311,3.72082 2.496328,8.93905 3.955598,11.5961 l 2.653211,4.83101 -0.819688,-4.77486 C -51.63745,105.14919 -53.528445,96.55442 -55.388806,88.67588 -60.843192,65.57684 -72.425235,6.52005 -71.652509,5.74734 c 1.024987,-1.025 4.834268,8.6069 4.858538,12.28498 0.01134,1.71232 0.905214,5.56901 1.986487,8.57034 1.081273,3.00133 1.992897,8.09494 2.025835,11.31907 0.149221,14.6097 7.33401,46.29867 13.901188,61.31221 1.391317,3.18076 2.529664,6.42536 2.529664,7.21029 0,2.64915 4.548486,8.39317 7.549906,9.53429 1.713576,0.65149 3.333636,2.77307 3.811576,4.99153 1.02853,4.77412 10.601062,16.21446 10.066822,12.03102 -0.48071,-3.76439 -4.369311,-9.06451 -5.739481,-7.8229 -0.61575,0.55801 -0.63594,0.17944 -0.0449,-0.8418 0.80071,-1.38305 2.386261,-0.33979 6.219671,4.09274 2.829751,3.27198 5.523432,5.58165 5.985962,5.1326 0.46251,-0.44911 -0.796141,-2.45358 -2.797041,-4.4545 -2.00089,-2.00087 -3.238021,-4.03799 -2.749161,-4.5268 0.488861,-0.4888 0.888821,-0.1784 0.888821,0.69027 0,1.04815 1.84261,1.34757 5.480411,0.89047 5.193721,-0.65251 5.391761,-0.54661 3.785851,2.02485 -1.337181,2.14117 -1.342121,3.06588 -0.0232,4.38458 1.3187,1.3187 1.67115,0.98319 1.67115,-1.59095 0,-2.99555 0.1436,-3.06573 1.75743,-0.85866 0.9665905,1.3219 2.3478908,2.2874 3.0695609,2.1456 2.9188606,-0.57368 4.830211,0.15881 4.620901,1.77054 -0.5263902,4.05371 0.29984,5.78357 1.4660903,3.06955 0.98254016,-2.28647 1.1880102,-2.01026 1.26836021,1.70531 0.05850002,2.70639 -0.56851011,4.41979 -1.60942031,4.39793 -0.9379202,-0.0206 -6.1260413,-2.38273 -11.5291621,-5.25113 -7.380952,-3.91831 -9.999212,-4.7582 -10.529062,-3.37742 -0.817961,2.13158 1.84502,3.99684 14.6158526,10.23744 6.1760412,3.01798 9.59078193,4.03484 10.2318521,3.04686 1.5815603,-2.43745 7.0444514,-4.81606 8.7045417,-3.79008 0.8633406,0.53357 1.1740906,0.35269 0.7032606,-0.40888 -0.463951,-0.7507 2.35595,-2.84076 6.266481,-4.64455 7.003661,-3.23058 19.263274,-13.86975 17.738864,-15.39413 -0.429931,-0.43003 0.1883,-1.15391 1.37384,-1.60878 1.18552,-0.45478 1.82162,-1.69722 1.41355,-2.76063 -0.43627,-1.1369 0.098,-1.93348 1.29682,-1.93348 1.121331,0 3.489181,-1.91945 5.261891,-4.26542 1.772721,-2.34603 4.246311,-5.36442 5.496872,-6.70756 1.25056,-1.34315 1.93046,-2.78539 1.5109,-3.20495 -0.41956,-0.41972 0.0139,-1.69855 0.96286,-2.84215 0.94913,-1.14364 1.35659,-2.07934 0.90545,-2.07934 -0.45111,0 0.76243,-4.45089 2.696811,-9.8908 1.93436,-5.43996 3.826781,-10.81169 4.205361,-11.93719 0.80798,-2.40207 1.77302,-11.09461 1.93108,-17.3941 0.0611,-2.43863 0.54945,-4.43383 1.08506,-4.43383 1.561711,0 -0.079,-16.93613 -1.76368,-18.20497 -0.94936,-0.71501 -0.64051,-0.86697 0.81438,-0.40064 2.671081,0.85614 4.590011,-1.20593 2.388411,-2.56661 -0.864391,-0.53423 -1.109211,-2.91753 -0.605301,-5.89231 0.465401,-2.74738 1.095861,-7.75788 1.401001,-11.13436 0.61126,-6.76371 3.10337,-12.58538 4.909611,-11.46901 0.63726,0.39393 1.15864,-2.06352 1.15864,-5.46078 0,-5.21479 0.35563,-6.0403 2.28322,-5.30064 1.760361,0.67552 2.072771,0.32794 1.364251,-1.51866 -0.50546,-1.3171 -0.91897,-2.68777 -0.91897,-3.04582 0,-0.35836 -0.613911,-0.27173 -1.364251,0.19233 -0.87758,0.54238 -1.36067,-4.41723 -1.35423,-13.903 0.006,-8.11041 -0.0587,-29.48005 -0.14252,-47.48811 -0.25173,-54.03258 0.0674,-70.25871 1.38144,-70.25871 0.6869,0 1.313831,8.09618 1.393191,17.99152 0.0794,9.89537 0.45169,18.29897 0.82743,18.6747 0.37573,0.37589 0.61926,-7.64094 0.54116,-17.8148 -0.12251,-15.95172 -0.51856,-19.11717 -2.877591,-22.99628 -2.18598,-3.59455 -3.00372,-4.10971 -4.070101,-2.56418 -0.97572,1.41419 -1.10237,1.10894 -0.47107,-1.1354 l 0.863431,-3.06955 H 1.6485528 -65.132774 Z m 26.895798,-1.71259 -20.694128,0.41405 -4.203396,4.78744 c -2.311864,2.63301 -4.203389,4.33481 -4.203389,3.78165 0,-0.55315 1.96216,-3.03014 4.36036,-5.50445 l 4.360366,-4.49874 20.537157,0.30267 20.537157,0.30267 z m 30.556499,-0.19542 c -0.45333,0.45323 -1.629991,0.5017 -2.614811,0.10777 -1.0883,-0.4357 -0.76503,-0.75879 0.82424,-0.82427 1.438141,-0.0593 2.243901,0.26348 1.790571,0.71655 z m 7.5317914,0.0794 c -0.9379302,0.37846 -2.4727005,0.37846 -3.4106207,0 -0.9379202,-0.37847 -0.1705201,-0.6881 1.7053003,-0.6881 1.8758404,0 2.6432406,0.30989 1.7053204,0.6881 z m 28.6990056,0.10055 c -3.911861,0.27482 -10.664892,0.2774 -15.0067128,0.005 -4.3418409,-0.27173 -1.1412202,-0.49603 7.1124818,-0.49912 8.253691,-0.003 11.806102,0.21914 7.894231,0.49397 z m 34.708077,-0.0103 c -2.83049,0.29545 -7.127871,0.2903 -9.549732,-0.0103 -2.42185,-0.30164 -0.10601,-0.543 5.146362,-0.53697 5.252351,0.005 7.233871,0.25266 4.40337,0.548 z m -110.13257,4.54163 c 0,0.82804 0.727928,0.97917 1.705309,0.35372 0.93792,-0.59992 22.117444,-1.09657 47.0656188,-1.10369 39.4068982,-0.0103 45.3631692,0.25575 45.3821292,2.03341 0.017,1.59986 0.2673,1.65936 1.14686,0.27276 1.182831,-1.86474 1.998781,-1.96147 13.498843,-1.60013 5.132481,0.16139 7.162292,0.76787 7.162292,2.14044 0,1.05352 0.61392,1.91543 1.36425,1.91543 0.82287,0 1.36425,5.68436 1.36425,14.32457 v 14.32462 h -7.405911 c -4.913661,0 -8.127362,-0.72146 -9.549742,-2.1438 -1.179101,-1.17912 -2.143821,-1.51495 -2.143821,-0.74626 0,0.76864 -2.30216,2.03691 -5.115921,2.81833 -6.658651,1.84918 -7.781301,1.80014 -6.162141,-0.26915 2.04624,-2.61528 2.986131,-7.74917 1.578,-8.61943 -1.49048,-0.92116 -0.28013,-3.3177 1.675611,-3.3177 0.75033,0 0.98917,0.60688 0.53075,1.3486 -0.47793,0.77337 0.0697,1.00205 1.28374,0.5362 2.924861,-1.12241 2.649011,-2.8964 -0.61127,-3.9312 -2.116131,-0.6716 -2.764781,-2.14664 -2.890141,-6.57211 -0.0889,-3.13833 -0.05,-6.52601 0.0866,-7.52812 0.1471,-1.07955 -0.75732,-1.62838 -2.21947,-1.3468 -1.956291,0.37692 -2.376671,1.53191 -2.028451,5.57371 0.33758,3.91836 -0.0586,5.09846 -1.71164,5.09846 -2.737461,0 -2.820041,3.92161 -0.10451,4.96368 2.629541,1.00902 2.945601,14.12594 0.34108,14.15441 -0.93792,0.0103 -3.182611,0.41404 -4.988201,0.89702 -2.59705,0.69491 -3.034481,0.47747 -2.09385,-1.04181 1.968,-3.17813 1.59148,-29.88683 -0.42131,-29.88704 -1.603311,-2e-4 -2.165151,5.97785 -2.340111,24.89903 l -0.0474,5.11774 -6.480171,-0.001 c -5.137971,-0.001 -6.4801816,-0.47283 -6.4801816,-2.27549 0,-1.25059 0.3999701,-1.87377 0.8888506,-1.38491 1.47514,1.47514 4.622261,-5.97001 6.701241,-15.85312 2.38269,-11.32725 2.3895,-10.50206 -0.0867,-10.50206 -1.37276,0 -2.04638,1.37289 -2.04638,4.17075 0,5.83116 -2.790741,16.29295 -4.346231,16.29295 -0.7261705,0 -1.1528506,-4.33951 -0.9725206,-9.89079 0.2758001,-8.48986 -0.017,-9.95639 -2.0686004,-10.35383 -2.1826804,-0.42281 -2.3504505,0.84872 -1.9350704,14.66576 0.2501301,8.32083 0.14788,15.13708 -0.22729,15.14729 -0.3751601,0.0103 -2.2169005,0.42333 -4.0927409,0.91863 -2.8145406,0.74275 -3.1461306,0.56069 -1.89727038,-1.04181 2.16336048,-2.776 3.41428068,-10.55409 1.85259038,-11.51922 -0.72576014,-0.4486 -1.27642026,-1.85366 -1.22368025,-3.1225 0.0784,-1.88635 0.31448007,-1.80952 1.29492025,0.42177 0.8169002,1.85897 1.1041902,-0.0974 0.9014502,-6.13908 -0.25765,-7.67791 -0.6601801,-8.92009 -3.00023061,-9.25886 -1.97471039,-0.28565 -2.75937059,0.44911 -2.91325059,2.72852 -0.3601101,5.33415 -1.4324603,10.67454 -2.3221205,11.56419 -0.4685001,0.4687 -2.2389404,0.18305 -3.9343808,-0.63447 -1.6954504,-0.81741 -2.3152304,-1.52779 -1.3773104,-1.57857 0.93792,-0.0516 1.7053005,-1.25446 1.7053005,-2.67484 0,-1.42043 0.9208702,-2.9359 2.0463804,-3.36783 2.5979005,-0.9969 2.6942305,-6.32786 0.11436,-6.32786 -1.0626102,0 -2.7110009,1.75982 -3.6630709,3.91068 -1.30709,2.95296 -2.13342,3.53762 -3.373991,2.38743 -1.20796,-1.11998 -1.23444,-1.7791 -0.10003,-2.48963 1.129971,-0.70774 1.091581,-1.41775 -0.14345,-2.65277 -1.339,-1.33901 -2.28864,-1.0399 -4.610171,1.45194 -2.26171,2.42765 -2.52307,3.38598 -1.15419,4.23201 1.949051,1.20455 3.286991,10.12319 2.015651,13.4362 -0.62708,1.63416 -1.957761,0.90698 -6.022352,-3.29104 -2.86957,-2.96379 -6.201241,-6.16441 -7.403691,-7.11253 -1.55734,-1.22785 -1.943931,-2.93564 -1.3438,-5.93624 0.72399,-3.61997 0.47881,-4.1424 -1.743111,-3.71454 -1.42209,0.2738 -2.52422,1.25693 -2.44918,2.18459 0.075,0.92765 0.22852,7.21183 0.34108,13.96487 0.1652,9.91353 0.59875,12.27822 2.25101,12.27822 2.293831,0 2.789861,-3.47224 0.68212,-4.77491 -1.64996,-1.01969 -1.83256,-6.13908 -0.21898,-6.13908 1.306661,0 4.311721,6.06653 4.311721,8.7044 0,0.96514 0.92087,1.75481 2.046371,1.75481 1.12551,0 2.05578,-0.66505 2.06726,-1.47792 0.0114,-0.81288 0.56345,-0.62107 1.22657,0.42642 0.66311,1.04727 2.168831,1.53454 3.346031,1.08275 1.17721,-0.45169 2.460081,-0.30422 2.850841,0.32845 0.39074,0.63225 -0.40971,1.4425 -1.778831,1.80055 -3.56979,0.93353 -44.361681,-0.39239 -45.490865,-1.47875 -0.51937,-0.49964 -1.065284,-7.35446 -1.213148,-15.23299 l -0.268845,-14.32462 3.623713,-0.43363 c 1.993041,-0.23873 3.270116,-1.00603 2.837943,-1.70531 -0.432194,-0.69929 1.399153,-1.27137 4.069613,-1.27137 2.670458,0 4.855383,0.65015 4.855383,1.44477 z m 111.976011,8.90075 c 0.0654,1.5893 0.38873,1.91254 0.82424,0.82422 0.39409,-0.98478 0.34562,-2.16148 -0.10771,-2.61482 -0.45334,-0.45323 -0.77577,0.35269 -0.71653,1.7906 z m -15.114423,7.38967 c 0,0.75034 0.65014,1.36424 1.44476,1.36424 0.79462,0 1.06535,-0.6139 0.60161,-1.36424 -0.46375,-0.75033 -1.11387,-1.36423 -1.44476,-1.36423 -0.33087,0 -0.60161,0.6139 -0.60161,1.36423 z M -71.250041,-67.2773 c -0.223574,13.36685 -0.406825,2.81648 -0.40729,-23.44523 -4.69e-4,-26.26181 0.182427,-37.19833 0.406465,-24.30343 0.224037,12.89491 0.224398,34.3818 8.45e-4,47.74866 z m 41.270217,-59.18611 c 1.821801,1.50376 5.456991,6.97289 5.456991,8.21002 0,0.26039 -0.86234,0.47334 -1.9163,0.47334 -1.05397,0 -1.61113,-0.79524 -1.23814,-1.76724 0.373,-0.972 -1.00301,-3.32533 -3.057781,-5.22962 -3.737051,-3.46338 -3.105621,-4.87334 0.75523,-1.68639 z m 17.820404,2.47596 c 1.24485,2.32601 1.09304,3.32101 -0.78055,5.11588 -2.168101,2.07708 -2.262081,2.01551 -1.384711,-0.90672 0.545281,-1.81617 0.249671,-3.96836 -0.70275,-5.11593 -1.10218,-1.32803 -1.15515,-1.98091 -0.16072,-1.98091 0.81581,0 2.178731,1.29947 3.028721,2.88768 z m 9.4645519,2.35788 c 0,3.2975 -0.8866302,6.01451 -2.3874305,7.31609 -2.8863206,2.50324 -11.2550524,4.2959 -11.2550524,2.411 0,-0.73162 0.61392,-1.33015 1.36425,-1.33015 1.810301,0 6.8212418,-5.0701 6.8212418,-6.9018 0,-0.79457 0.6638701,-1.03443 1.4752603,-0.53299 0.8806501,0.54429 1.3672002,-0.11086 1.2071502,-1.62477 -0.3904801,-3.69416 -0.11699,-4.58294 1.4103303,-4.58294 0.7503401,0 1.3642503,2.36051 1.3642503,5.24556 z m -55.9368709,15.55923 c 0.0015,0.56274 2.458358,1.02319 5.459701,1.02319 3.001349,0 5.456996,-0.6355 5.456996,-1.41223 0,-0.92126 0.830046,-0.96896 2.387428,-0.13716 1.313091,0.70135 4.536126,0.97546 7.162304,0.60921 2.626175,-0.36609 5.695736,-0.60003 6.821236,-0.51954 1.12551,0.0804 5.269411,0.1253 9.208672,0.10003 3.939271,-0.0258 7.162301,0.16552 7.162301,0.42487 0,0.25936 -4.589161,2.80086 -10.198142,5.6478 -8.828332,4.48105 -10.981472,6.33884 -16.029911,13.83091 -3.207473,4.76001 -6.259311,8.67403 -6.781862,8.6978 -1.292797,0.0588 -17.197221,-9.31386 -17.91611,-10.55821 -1.223445,-2.1176 -2.423714,-16.74123 -1.358883,-16.55612 2.752767,0.4785 3.681519,-0.27946 1.807742,-1.47524 -1.508182,-0.96261 -0.881011,-1.2262 2.384722,-1.00232 2.437104,0.16706 4.432316,0.76426 4.433806,1.32706 z m 98.22855,0.47385 c 20.787674,0.82108 23.960925,1.01918 25.579645,1.59693 1.09918,0.39239 1.70531,3.43068 1.70531,8.54806 v 7.93943 l -7.328361,4.19283 c -4.030601,2.30606 -8.174512,4.189 -9.208682,4.18425 -2.381111,-0.0103 -6.954272,-7.83098 -5.209971,-8.90899 0.70581,-0.43622 1.2833,-1.4936 1.2833,-2.34974 0,-1.15757 -0.4027,-1.15386 -1.57103,0.0155 -1.185201,1.18521 -3.029251,0.2872 -7.508762,-3.65555 -5.561981,-4.89587 -21.512404,-12.25254 -23.107345,-10.65752 -0.39631,0.39652 2.232791,1.81834 5.842482,3.16008 6.879841,2.55728 18.159163,9.81237 18.159163,11.68037 0,0.59956 -0.92087,0.73677 -2.04637,0.30473 -1.1255,-0.43209 -2.046371,-0.1057 -2.046371,0.72491 0,0.83061 0.613911,1.5102 1.364251,1.5102 0.75033,0 1.36425,0.59467 1.36425,1.32144 0,0.72682 -0.92087,0.96807 -2.04638,0.53619 -1.125501,-0.43209 -2.046371,-1.64045 -2.046371,-2.68572 0,-1.04521 -0.67959,-1.90037 -1.5102,-1.90037 -0.83062,0 -1.17406,-0.87599 -0.76322,-1.94662 1.2161,-3.16911 -2.876621,-5.72262 -6.022842,-3.7578 -1.54789,0.96664 -2.61772,1.08054 -2.61772,0.27844 0,-0.7459 -2.883021,-2.08213 -6.406711,-2.96941 -5.028871,-1.26626 -5.8357216,-1.82221 -3.751681,-2.58502 2.07979,-0.76126 1.47272,-1.17462 -2.8019607,-1.90789 -9.44009198,-1.61931 -9.71281204,-1.79818 -2.9890407,-1.96034 4.0063809,-0.0964 6.2313314,-0.69119 5.7147414,-1.52711 -0.55556,-0.89889 2.57784,-1.05331 9.128162,-0.44963 5.485751,0.50531 13.964523,1.07662 18.841714,1.26926 z M -6.1736988,-103.92 c -0.7128202,0.61988 -3.8848212,1.9392 -7.0488712,2.93192 -3.164061,0.99267 -5.449031,2.29647 -5.077721,2.89727 0.3713,0.6008 -0.72338,1.77095 -2.432651,2.60028 -2.97701,1.44456 -2.99635,1.41873 -0.45957,-0.61364 2.154611,-1.7262 2.246351,-2.12163 0.49221,-2.12163 -1.18579,0 -3.605301,1.27921 -5.376681,2.84267 -2.27291,2.00613 -2.5283,2.62487 -0.86784,2.10245 1.29407,-0.40734 -0.47566,1.96998 -3.932751,5.28243 -3.457081,3.31251 -6.774708,5.89639 -7.372494,5.74201 -0.597786,-0.15418 -2.031558,0.94709 -3.186157,2.44775 -1.1546,1.50066 -2.118802,2.01056 -2.142665,1.13313 -0.09761,-3.58986 14.410716,-17.32997 21.784578,-20.63108 10.825812,-4.84646 18.4922937,-7.11076 15.6206332,-4.61356 z m -27.4581052,14.22072 c -5.044993,5.60403 -5.020805,7.23549 0.0366,2.46085 2.73887,-2.58573 4.979751,-4.88793 4.979751,-5.11589 0,-1.37557 -2.650741,0.0258 -5.016231,2.65504 z M 3.0349731,-100.6815 c -1.2733003,1.27333 -2.0009005,1.27333 -3.27420072,0 -1.27329028,-1.27326 -0.90950018,-1.63708 1.63710032,-1.63708 2.5466005,0 2.9104006,0.36403 1.6371004,1.63708 z m -10.1920721,0.55141 c -0.4533301,0.45323 -1.6299904,0.5017 -2.6148106,0.10776 -1.0883004,-0.4357 -0.7650304,-0.75873 0.8242402,-0.82422 1.4381403,-0.0593 2.2439004,0.26349 1.7905704,0.71656 z m 26.290195,7.20978 c 10.000422,4.996 13.850943,8.20487 18.161424,15.13491 7.818472,12.57002 8.567222,25.25398 2.238401,37.91907 -4.896861,9.79948 -11.262683,15.79434 -21.690945,20.42698 -18.8581238,8.37751 -42.395459,0.81685 -52.816781,-16.96573 -2.671233,-4.55813 -3.894715,-5.64464 -4.830882,-4.29001 -0.810892,1.17334 -0.94534,0.24852 -0.380683,-2.61842 0.724442,-3.67824 0.506391,-4.29183 -1.281473,-3.60574 -1.184959,0.45478 -2.154472,0.14695 -2.154472,-0.68346 0,-0.83061 0.613909,-1.5102 1.364246,-1.5102 0.750337,0 1.354846,-1.07435 1.343358,-2.38743 -0.01805,-2.04031 -0.213157,-2.08991 -1.343358,-0.34082 -0.990967,1.5334 -1.327704,0.83236 -1.343359,-2.79673 -0.01134,-2.6637 0.746502,-5.65672 1.684422,-6.65115 1.397772,-1.48199 1.036172,-1.68973 -2.005086,-1.15205 -2.04072,0.36094 -3.404827,0.16139 -3.031352,-0.44291 0.373464,-0.60431 -0.583163,-1.77426 -2.125866,-2.59987 -1.542702,-0.82561 -2.539676,-1.93079 -2.21549,-2.4559 0.324171,-0.52511 -0.785847,-1.03702 -2.466732,-1.13756 -4.609035,-0.27586 -14.725543,-7.08794 -13.476373,-9.07468 0.747326,-1.18861 1.168794,-1.01495 1.492218,0.61483 0.557185,2.80766 3.467352,4.06933 10.472416,4.53999 2.97118,0.19955 5.63146,1.05094 5.911741,1.89176 0.904858,2.71459 5.390784,1.64432 6.208111,-1.48117 0.432916,-1.65551 1.135609,-2.66148 1.561533,-2.23558 0.425903,0.4259 0.126121,2.47947 -0.666183,4.56345 -0.792324,2.08394 -1.066263,4.16333 -0.608752,4.62085 1.18746,1.18747 4.701496,-3.99071 4.701496,-6.92799 0,-1.35727 0.613909,-2.46771 1.36425,-2.46771 0.75033,0 1.36424,-0.98603 1.36424,-2.19114 0,-1.20505 1.54063,-3.40294 3.423621,-4.88406 1.88299,-1.48116 3.1008,-3.21535 2.70624,-3.8538 -0.85183,-1.37825 1.897121,-3.30868 4.784121,-3.35958 1.125511,-0.0206 1.916901,-0.7314 1.758651,-1.5813 -0.50474,-2.71083 14.5735627,-6.85694 24.1620547,-6.64388 7.0187915,0.15571 10.7164423,1.12065 17.7352233,4.62708 z m -28.0703554,0.0541 c -7.2735216,1.76729 -14.7095626,6.90942 -20.5310646,14.19761 -6.489291,8.12418 -7.696991,11.27225 -7.936571,20.68785 -0.260128,10.22486 6.293151,26.26789 9.088922,22.25043 0.86522,-1.24332 1.01271,-0.95375 0.48494,0.95209 -0.54885,1.98195 0.47499,3.72294 3.70491,6.30017 9.411742,7.50982 21.4016149,11.79838 21.4521549,7.67306 0.0134,-1.0975 0.3781601,-1.20279 1.0231802,-0.29546 1.12958022,1.58895 7.7895116,1.61451 11.9162829,0.0464 10.940082,-4.15879 22.499114,-13.16179 25.017145,-19.48505 4.183061,-10.50454 4.749191,-12.13622 4.867981,-14.03036 0.0706,-1.12549 -0.48557,-2.50679 -1.235921,-3.06959 -0.85785,-0.64339 -0.60465,-1.56811 0.682121,-2.49128 1.54905,-1.11131 1.62987,-1.63693 0.33257,-2.16286 -0.942591,-0.38208 -1.346801,-1.28859 -0.898251,-2.01438 0.448541,-0.72579 -0.82309,-4.6689 -2.82588,-8.76241 C 28.538518,-88.74028 9.1238843,-97.2538 -8.9372394,-92.8655 Z m 15.3221331,4.03133 c 2.8846806,1.41347 6.9331113,3.24207 8.9965423,4.0635 2.7059,1.07729 3.75168,2.45244 3.75168,4.93346 0,3.41372 -4.203931,8.89683 -6.821241,8.89683 -2.20485,0 -1.56296,4.95899 0.90548,6.99528 2.060341,1.69964 2.117221,1.58615 0.61653,-1.23007 -1.47148,-2.76146 -1.19612,-3.48704 2.505141,-6.60149 2.51771,-2.11848 4.158341,-4.79677 4.158341,-6.78831 0,-1.80916 0.44188,-3.28935 0.98194,-3.28935 1.73017,0 8.508632,8.74112 7.367361,9.50052 -0.60446,0.40219 -1.48716,2.7265 -1.96156,5.16513 -1.09997,5.65429 1.42503,5.91009 3.366411,0.34134 0.78471,-2.25104 2.04628,-4.09274 2.80349,-4.09274 0.75721,0 0.96774,-1.07435 0.46782,-2.38743 -0.71201,-1.87026 -0.54928,-2.03056 0.75119,-0.73996 1.216711,1.20748 1.259141,2.13064 0.158871,3.45636 -0.957951,1.15427 -1.043331,2.53288 -0.235901,3.80951 0.695921,1.10034 1.252961,2.61451 1.237861,3.36489 -0.0149,0.75033 -0.93848,-0.17067 -2.051971,-2.0464 l -2.02453,-3.41062 0.68339,4.09274 c 0.37588,2.251 1.08575,5.84631 1.57752,7.98954 0.4918,2.14323 0.3119,4.29193 -0.39971,4.77486 -0.7116,0.48313 -1.88969,3.02674 -2.61798,5.65296 -1.216491,4.38664 -1.791961,4.80893 -7.078432,5.19435 -5.347201,0.38982 -5.754291,0.70011 -5.754291,4.38577 0,2.7248 -0.96085,4.47235 -3.069561,5.58279 -1.68825,0.88908 -3.43551,2.17535 -3.8828,2.8584 -0.4473,0.68304 -0.8676405,-0.67129 -0.9341305,-3.00963 -0.0893,-3.14158 0.6291005,-4.52896 2.7518005,-5.3142 1.87331,-0.693 2.326741,-1.40012 1.30339,-2.03258 -3.14777,-1.94544 -7.0826812,1.75445 -7.0826812,6.65966 0,3.22964 -0.8173601,5.1163 -2.6388105,6.09113 -3.3678207,1.80241 -9.639422,1.83366 -9.639422,0.0464 0,-0.75033 -1.5407803,-1.36423 -3.4239707,-1.36423 -1.8831806,0 -4.4752606,-1.22785 -5.7601816,-2.72851 -1.28491,-1.50067 -3.02671,-2.72851 -3.87064,-2.72851 -4.560761,0 -11.552983,-10.11947 -12.291723,-17.78918 -0.61828,-6.41892 -1.58093,-8.51347 -3.396951,-7.39112 -2.47114,1.52727 -1.22998,-2.89676 1.458511,-5.19869 1.50068,-1.28492 2.7191,-3.41655 2.70761,-4.73701 -0.0181,-2.04897 -0.21471,-2.1009 -1.34336,-0.35423 -0.72736,1.1255 -1.32247,1.4325 -1.32247,0.68212 0,-0.75034 0.59511,-2.28508 1.32247,-3.41058 0.72736,-1.1255 1.33187,-1.46859 1.34336,-0.76245 0.0113,0.70614 0.87346,0.11808 1.915501,-1.3071 1.04203,-1.42507 1.628,-3.28579 1.30216,-4.13492 -0.79679,-2.07641 2.958961,-5.0354 6.718611,-5.29331 1.674731,-0.11498 2.891491,-0.95142 2.703911,-1.85891 -0.18758,-0.90755 0.27287,-1.72676 1.02318,-1.82056 1.45553,-0.18201 3.447571,-0.64328 5.115931,-1.18474 0.56275,-0.18253 1.4836204,-0.25936 2.0463705,-0.17067 0.5627502,0.0887 1.0231903,-0.46406 1.0231903,-1.22867 0,-0.80556 1.5778603,-1.04604 3.7516807,-0.57183 2.8888706,0.63025 3.2810607,0.48417 1.7053104,-0.63519 -3.6487808,-2.59203 3.26725064,-1.77363 9.0797418,1.0744 z m -5.88047117,4.99224 c -1.27032026,3.31038 0.21790005,3.63099 2.93227057,0.63164 2.2602505,-2.49752 2.2756505,-2.73682 0.1761901,-2.73682 -1.2653503,0 -2.66416058,0.94735 -3.10847067,2.10518 z m 9.07895187,6.08035 c 0,2.25099 0.6139206,4.09274 1.3642506,4.09274 0.75034,0 1.36425,-0.87068 1.36425,-1.93481 0,-1.06414 0.37264,-2.90589 0.82808,-4.09275 0.5434,-1.41605 0.0744,-2.15792 -1.36424,-2.15792 -1.52643,0 -2.1923406,1.24311 -2.1923406,4.09274 z M -6.787619,-78.44441 c -1.3909403,1.67598 -1.2977202,2.04635 0.5151101,2.04635 1.2173803,0 2.2134205,-0.92085 2.2134205,-2.04635 0,-1.12554 -0.2317801,-2.04638 -0.5151101,-2.04638 -0.2832801,0 -1.2793303,0.92084 -2.2134205,2.04638 z m -4.547491,0.22739 c -1.44281,1.44281 -1.06568,2.83138 0.98246,3.61729 1.3272506,0.50944 1.6869606,-0.0577 1.2051405,-1.90037 -0.7632601,-2.91873 -0.8879605,-3.01659 -2.1876005,-1.71692 z m 6.5135514,6.55045 c -1.4565003,1.10163 -3.7225207,2.02248 -5.035611,2.04635 -1.3902204,0.0258 -2.3424504,1.04063 -2.2797304,2.43084 0.0644,1.42621 0.38476,1.70083 0.79581,0.68212 0.37847,-0.93792 2.0182505,-1.72486 3.6439808,-1.74868 2.9304706,-0.0412 7.73073163,-2.86257 7.73073163,-4.54082 0,-1.46152 -2.06381043,-0.98112 -4.85518103,1.13019 z m 7.8296516,2.20284 c -0.9760402,1.5629 -5.120701,4.3735 -9.2103618,6.24582 -4.0896612,1.87231 -7.1159912,3.92155 -6.7251912,4.55385 1.15149,1.86315 19.7823238,-9.85655 19.7823238,-12.44404 0,-2.13524 -2.0276904,-1.26843 -3.8467708,1.64437 z m 16.583163,0.66072 c -1.41121,3.67756 1.479271,4.77717 3.165161,1.20413 1.28715,-2.728 1.2166,-3.34221 -0.38388,-3.34221 -1.07846,0 -2.33004,0.96215 -2.781281,2.13808 z m -42.728948,2.97786 c 0.0134,1.51516 0.38707,1.82205 1.02318,0.83995 0.55127,-0.85114 2.23012,-1.85422 3.730791,-2.22918 2.09131,-0.52248 1.85237,-0.71863 -1.023181,-0.83995 -2.73094,-0.11498 -3.746,0.49139 -3.73079,2.22918 z m 32.3909263,7.4073 c 0.7531397,6.7071 -2.2835904,9.97944 -9.09513184,9.80083 -6.17958126,-0.16191 -6.21220126,-0.13097 -4.07058086,3.87066 0.9662402,1.8054 1.8478504,2.27791 2.4456305,1.31066 0.51412013,-0.83185 3.6064908,-2.92528 6.8719614,-4.65214 7.1497815,-3.7809 8.9203215,-7.46119 5.6654315,-11.77627 l -2.3259808,-3.08361 z m -12.7811126,0.55259 c -0.6176201,2.46081 -0.16082,4.21247 1.5119903,5.79806 2.26604048,2.14782 2.3521005,2.02974 1.57523034,-2.16184 -0.81132014,-4.37752 -0.13622003,-5.10213 4.22596086,-4.53567 0.9379202,0.12169 1.7053104,-0.4192 1.7053104,-1.20258 0,-0.78323 -1.8300404,-1.42403 -4.0667509,-1.42403 -3.2356106,0 -4.2476209,0.72063 -4.951741,3.52606 z M 25.997718,-59.0039 c 0.0237,0.56275 0.94473,2.21485 2.04637,3.67138 1.920981,2.53974 2.002991,2.49782 2.002991,-1.0232 0,-2.35397 -0.734321,-3.67138 -2.046371,-3.67138 -1.12551,0 -2.02685,0.46045 -2.00299,1.0232 z m -53.249051,2.16004 c 0,1.00046 0.91112,1.81901 2.02472,1.81901 1.532571,0 1.657771,-0.44189 0.5151,-1.81901 -0.8303,-1.00046 -1.74142,-1.81901 -2.02471,-1.81901 -0.28328,0 -0.51511,0.81855 -0.51511,1.81901 z m 11.025182,4.18612 c -0.92571,1.11544 -3.938551,2.23852 -6.695211,2.49576 -4.968611,0.46354 -4.979061,0.47747 -1.205441,1.60214 2.881961,0.85882 4.458121,0.54475 6.488542,-1.29272 3.30627,-2.99214 4.477701,-1.96889 4.609671,4.02639 0.056,2.5451 0.57498,4.33745 1.15323,3.98296 1.42361,-0.87274 0.4226,-9.75225 -1.29279,-11.46767 -0.92368,-0.92368 -1.927251,-0.70934 -3.058001,0.65314 z m 33.994997,4.82833 c 0,0.70609 0.61391,1.66318 1.36425,2.12688 0.750331,0.46355 1.364251,0.23358 1.364251,-0.51098 0,-0.74476 1.68825,-1.60987 3.75168,-1.92244 3.017781,-0.45736 2.750911,-0.60833 -1.36425,-0.77276 -2.81376,-0.11241 -5.115931,0.37331 -5.115931,1.07935 z m -9.890792,2.22511 c -2.0634304,1.11941 -3.7516807,2.98111 -3.7516807,4.13713 0,1.70929 0.6712701,1.57377 3.5946007,-0.72568 1.9770204,-1.55516 4.432671,-2.82751 5.456981,-2.82751 1.02432,0 1.862401,-0.61395 1.862401,-1.36428 0,-1.91038 -2.756011,-1.61013 -7.162302,0.78034 z m -28.990266,0.58394 c -0.46375,0.75033 -0.193,1.36423 0.60161,1.36423 0.79462,0 1.444761,-0.6139 1.444761,-1.36423 0,-0.75033 -0.270701,-1.36428 -0.601611,-1.36428 -0.33087,0 -0.98103,0.61395 -1.44476,1.36428 z m 2.046371,6.82119 c 0,1.70929 1.44779,1.70929 4.09274,0 1.654781,-1.0694 1.458981,-1.32643 -1.02318,-1.34335 -1.68826,-0.0103 -3.06956,0.59302 -3.06956,1.34335 z m 8.233481,1.27457 c -2.2338,4.1739 -1.65251,4.95481 1.3162505,1.76822 3.0180306,-3.23945 3.3921807,-4.40702 1.4122503,-4.40702 -0.7239402,0 -1.9517608,1.18748 -2.7285008,2.6388 z m 10.86598243,6.2288 c -3.44052073,3.66225 -1.62599033,4.84174 1.94893037,1.26683 1.8990904,-1.89908 2.9085706,-4.67746 1.6995004,-4.67746 -0.2443501,0 -1.8861704,1.5348 -3.64843077,3.41063 z M 24.451787,-35.98617 c -2.20137,2.65251 -3.95444,2.33287 -3.95444,-0.721 0,-1.93816 0.70248,-2.41707 2.75724,-1.87974 2.166411,0.56651 2.422951,1.12384 1.1972,2.60074 z m -81.716567,-35.783 c 0,0.29493 0.952754,0.90176 2.117228,1.34865 1.214076,0.46613 1.761681,0.23719 1.283736,-0.53619 -0.801167,-1.29632 -3.400964,-1.91734 -3.400964,-0.81246 z m 1.286046,-7.30099 c 6.818961,4.40732 8.920366,5.18967 10.474597,3.89979 1.572928,-1.30539 1.780162,-1.18592 1.084981,0.62571 -1.221914,3.18427 -2.362298,2.89258 -12.430065,-3.17958 -4.9416,-2.98044 -9.512309,-5.09288 -10.157134,-4.69437 -0.64482,0.39858 -1.172405,0.0743 -1.172405,-0.72015 0,-2.68123 3.629334,-1.47087 12.200026,4.0686 z m 121.97691,-2.79399 c -1.61147,0.65015 -3.335961,1.83906 -3.832191,2.64198 -0.49624,0.80293 -1.63339,1.44622 -2.52703,1.42951 -0.89364,-0.0155 -0.09,-1.23084 1.78582,-2.69813 1.87584,-1.46731 4.331491,-2.64256 5.456991,-2.61168 1.19995,0.0309 0.83448,0.54512 -0.88359,1.23832 z m -23.672875,3.50023 c 0,1.16979 -0.6139,1.74749 -1.36424,1.28374 -0.75034,-0.46354 -1.36425,-1.42084 -1.36425,-2.12688 0,-0.70604 0.61391,-1.28373 1.36425,-1.28373 0.75034,0 1.36424,0.95708 1.36424,2.12687 z m 14.996083,1.62478 c -0.0165,1.58522 -6.721051,4.31817 -7.500301,3.05732 -0.54758,-0.88604 2.17865,-2.39661 7.169891,-3.97276 0.18758,-0.0593 0.33628,0.35269 0.33041,0.91544 z m 10.924622,0.72888 c 0,1.83829 -16.562233,12.08739 -17.723853,10.96793 -0.36892,-0.35578 0.47216,-1.28601 1.86899,-2.06769 2.070261,-1.1586 2.194251,-1.66061 0.67076,-2.71557 -1.29326,-0.89553 -0.87082,-1.01155 1.371411,-0.37641 2.09301,0.59271 2.93019,0.41559 2.36431,-0.49963 -0.50768,-0.82149 0.71117,-1.59998 2.898711,-1.85144 2.25976,-0.25988 3.62436,-1.15907 3.39994,-2.24064 -0.20614,-0.9937 0.25426,-1.4179 1.023191,-0.94265 0.76893,0.4754 1.39805,0.21398 1.39805,-0.58075 0,-0.79462 0.61391,-1.44477 1.36425,-1.44477 0.75034,0 1.36424,0.78844 1.36424,1.75203 z m -20.720874,8.82093 c 0.81371,2.43858 0.96907,4.43378 0.34521,4.43378 -0.62383,0 -1.43381,-1.3813 -1.79997,-3.06954 -0.36614,-1.68825 -1.14198,-4.2974 -1.72407,-5.79806 -0.711631,-1.83458 -0.606631,-2.28152 0.32051,-1.36423 0.75836,0.75033 2.0446,3.35942 2.85831,5.79805 z m -108.092214,-1.19845 c -0.404144,0.65396 2.936118,3.14559 7.422846,5.53699 7.704934,4.10666 8.158108,4.62749 8.165296,9.38394 0.01702,11.27426 6.807278,24.5384 15.993346,31.24157 4.774061,3.48368 5.149772,4.22174 4.414111,8.6715 -0.44225,2.67504 -3.72569,9.12108 -7.296521,14.32456 -3.570841,5.2035 -9.218228,13.45132 -12.549755,18.32848 -3.331521,4.8772 -7.477244,10.63106 -9.212718,12.78636 l -3.155394,3.91877 -3.686187,-15.50024 -3.686187,-15.50023 4.128858,-3.60491 c 2.270869,-1.98266 4.128858,-4.39654 4.128858,-5.36415 0,-0.96762 1.074343,-2.946 2.387428,-4.39639 1.768051,-1.95297 2.511375,-5.58758 2.865153,-14.00963 0.577831,-13.75594 -1.892097,-22.35438 -8.709085,-30.31851 -6.196426,-7.2391 -6.622524,-15.11661 -0.896788,-16.57937 0.231874,-0.0593 0.0909,0.42745 -0.31324,1.08126 z m 123.356107,7.35043 c 0,4.29697 -0.69773,6.24669 -2.67802,7.48341 -2.320061,1.44889 -2.566751,1.35603 -1.845581,-0.69501 0.680391,-1.93507 0.495821,-2.05506 -1.01061,-0.65705 -1.67763,1.55697 -3.19728,5.94475 -6.717871,19.39698 -1.40677,5.3753 0.2012,21.28571 2.60522,25.77764 0.864321,1.61498 3.385991,5.62491 5.603722,8.91097 l 4.03224,5.97464 -2.38199,12.44478 -2.381981,12.44481 -8.587671,-12.63456 C 36.76445,-1.21971 34.017189,-4.80993 32.699409,-4.45033 c -0.65444,0.1784 -0.8007,-0.68954 -0.325,-1.92915 0.58026,-1.51211 0.33964,-1.92919 -0.73122,-1.26734 -1.6317,1.00845 -1.84607,0.3367 -2.03781,-6.38489 -0.100081,-3.50772 -0.427911,-3.73077 -4.267141,-2.90305 -2.287311,0.49294 -6.307432,1.98164 -8.933612,3.30782 -7.4110717,3.74237 -23.403545,3.40902 -32.059827,-0.66835 -4.966711,-2.33948 -5.986701,-3.24388 -3.751681,-3.32658 1.688261,-0.0624 3.069561,0.60271 3.069561,1.47808 0,0.87542 0.40394,1.18768 0.89766,0.69397 0.49371,-0.49397 1.790191,-0.15675 2.881051,0.74842 1.26742,1.05187 6.1671511,1.55197 13.5732726,1.38543 8.9590619,-0.20161 13.2196324,-1.00675 18.7695834,-3.54763 14.743084,-6.74957 26.596446,-21.75229 26.621026,-33.69402 0.0144,-7.07535 1.44359,-9.41771 8.198292,-13.43831 6.987401,-4.1591 8.185481,-3.72608 8.185481,2.95858 z m 2.328741,12.04707 c -6.241321,5.14461 -9.149982,10.47942 -9.149982,16.78201 0,2.6192 -0.5299,5.08959 -1.17756,5.48992 -1.886511,1.16587 -0.46458,-11.07884 1.79362,-15.44573 2.08453,-4.03102 9.865892,-10.99881 12.314063,-11.02661 0.73372,-0.0103 -0.967351,1.88187 -3.780141,4.20041 z m -131.250154,14.33063 c 0,16.94103 0.752261,20.22714 3.870552,16.90772 1.208611,-1.28652 1.180298,-1.83766 -0.11885,-2.31399 -2.644746,-0.96979 -2.01858,-3.92506 1.364246,-6.43887 l 3.06956,-2.28095 -3.06956,0.62261 c -3.681521,0.74672 -3.926781,-0.21656 -0.682126,-2.67984 2.27375,-1.72604 2.27375,-1.81442 0,-1.85572 -3.755635,-0.0681 -2.892888,-4.1361 0.877226,-4.1361 3.935912,0 5.67206,-3.46101 2.447251,-4.87854 -1.26571,-0.55641 -2.659403,-0.94828 -3.097098,-0.87084 -0.437711,0.0774 -0.795815,-0.71006 -0.795815,-1.74996 0,-1.38924 0.924942,-1.16319 3.487068,0.85222 2.640141,2.07671 3.582841,4.21106 3.881396,8.78772 0.223573,3.42702 -0.203413,6.04488 -0.98595,6.04488 -0.759149,0 -1.380272,0.65015 -1.380272,1.44477 0,0.79457 0.649941,1.04305 1.444307,0.55213 0.960267,-0.59348 1.30317,1.32267 1.023188,5.7175 l -0.421108,6.61016 h -6.47762 -6.477626 l -0.0026,-18.75839 c -0.0014,-10.3171 0.457871,-18.75828 1.020631,-18.75818 0.562754,1.6e-4 1.023189,7.7319 1.023189,17.18167 z m 6.139115,15.39902 c 0,0.75033 0.613909,1.74367 1.364246,2.20737 0.750338,0.46354 1.364247,0.22945 1.364247,-0.52109 0,-0.75033 -0.613909,-1.74362 -1.364247,-2.20737 -0.750337,-0.46353 -1.364246,-0.22945 -1.364246,0.52109 z M 68.035836,-36.15268 c -0.12772,3.37649 -0.90006,6.14852 -1.71632,6.15997 -0.81627,0.0103 -0.58103,0.59204 0.52274,1.29009 2.311101,1.46158 1.892511,2.08326 -2.26174,3.35901 -2.598611,0.79803 -2.933811,0.45117 -2.599021,-2.68881 0.21141,-1.98272 1.24182,-4.13492 2.289851,-4.78264 1.45488,-0.89914 1.52804,-1.55507 0.30937,-2.77379 -1.218011,-1.218 -1.218361,-2.20098 -10e-4,-4.14951 2.58076,-4.13249 3.70446,-2.96682 3.45662,3.58568 z m -139.29587,18.70492 c -0.267143,4.71902 -0.487932,1.21305 -0.490665,-7.79097 -0.0027,-9.00404 0.21589,-12.86501 0.485766,-8.57999 0.269877,4.28502 0.272042,11.65195 0.0049,16.37096 z m 40.08998,-10.1784 c 1.69695,2.1638 1.64869,2.21206 -0.51506,0.5151 -1.31309,-1.0298 -2.387431,-2.10414 -2.387431,-2.38743 0,-1.12281 1.120301,-0.40012 2.902511,1.87238 z m 86.576308,8.17862 c -1.46724,1.46719 -2.246161,-0.58765 -1.2162,-3.20845 0.96617,-2.45848 1.03914,-2.46276 1.51696,-0.0887 0.27606,1.3718 0.14071,2.85539 -0.30076,3.29692 z m 11.475512,-2.38057 c 1.588941,1.02686 1.18975,1.32716 -1.78583,1.3434 -2.211551,0.0103 -3.475631,-0.55609 -2.989041,-1.3434 1.04689,-1.69386 2.153761,-1.69386 4.774871,0 z m -9.549732,5.45702 c 0,0.75033 -0.2707,1.36423 -0.60161,1.36423 -0.33088,0 -0.98103,-0.6139 -1.44476,-1.36423 -0.46375,-0.75033 -0.193,-1.36428 0.60161,-1.36428 0.79461,0 1.44476,0.61395 1.44476,1.36428 z m 10.913972,8.14264 c 0,8.38594 -0.27338,9.40203 -2.31845,8.61725 -1.54886,-0.59435 -1.75284,-1.0782 -0.61449,-1.45765 1.32859,-0.44292 1.28467,-1.21424 -0.19934,-3.50132 -3.098551,-4.77543 -3.700331,-10.43298 -1.11233,-10.45757 1.91759,-0.0206 1.93698,-0.18975 0.1519,-1.34335 -1.654781,-1.0694 -1.458981,-1.32649 1.02319,-1.3434 2.89158,-0.0206 3.06955,0.53032 3.06955,9.48604 z M 27.318578,-11.6825 c 0,1.82845 2.880781,7.50714 6.401721,12.6193 13.775103,20.00057 18.055554,26.61481 18.855884,29.1364 0.45787,1.44271 -0.12648,6.36637 -1.29855,10.94148 -1.1721,4.57515 -2.13109,9.80365 -2.13109,11.61884 0,1.81525 -0.371971,3.30044 -0.826561,3.30044 -0.45463,0 -4.794911,-4.14389 -9.645112,-9.20863 -4.850201,-5.06479 -8.350821,-8.28783 -7.779161,-7.16233 0.89245,1.75712 0.71521,1.78347 -1.25386,0.18665 -1.261271,-1.02293 -1.984261,-2.35979 -1.606631,-2.9708 0.37764,-0.61101 -0.92695,-2.8436 -2.89907,-4.96135 l -3.585661,-3.85041 2.38968,4.09275 2.389691,4.09274 -4.016551,-3.75403 c -3.648011,-3.4096 -4.259811,-3.57006 -6.667931,-1.74868 -2.565201,1.94013 -2.540511,2.01185 0.75922,2.20696 2.34971,0.13871 2.66798,0.39548 1.02319,0.82551 -1.31309,0.34289 -2.38743,1.19284 -2.38743,1.88816 0,1.60646 0.9264,1.5945 4.00215,-0.0516 1.990951,-1.06553 3.433931,-0.22223 7.587082,4.43377 6.068741,6.80362 9.272332,9.0559 7.939122,5.5816 -0.632931,-1.64937 -0.393681,-2.01768 0.82237,-1.26611 0.94322,0.58296 1.41213,2.21784 1.04204,3.63306 -0.37012,1.41528 -0.16186,2.88903 0.46282,3.27507 0.62464,0.38621 0.7892,4.22361 0.36573,8.52791 -0.42348,4.3043 -0.39218,7.48176 0.0696,7.06106 0.96135,-0.87588 2.015391,-5.98496 2.164181,-10.49009 0.152,-4.60249 2.12722,-3.70881 4.773581,2.15978 3.0628,6.79206 1.93914,12.82287 -4.505101,24.17936 -2.718091,4.78997 -5.252541,8.72735 -5.632132,8.74963 -0.3796,0.0206 -1.51723,-1.82793 -2.5281,-4.11162 -1.80835,-4.08537 -1.11022,-14.26103 0.89975,-13.1145 0.52485,0.29958 2.489051,-0.97267 4.364891,-2.82679 3.235181,-3.19773 3.258631,-3.32617 0.45586,-2.49731 -1.62511,0.48056 -3.349601,0.23513 -3.832201,-0.54588 -0.48257,-0.78086 -0.0738,-1.44591 0.908381,-1.47793 0.9822,-0.0309 -0.951741,-2.46152 -4.297651,-5.3989 -3.345901,-2.93745 -6.370652,-5.05361 -6.721642,-4.70262 -0.35099,0.35114 0.54483,1.53315 1.990721,2.62704 1.4459,1.09388 1.93669,2.00844 1.09064,2.03225 -2.170581,0.0614 -5.000431,-3.66332 -4.005921,-5.27247 0.93265,-1.50907 -4.357041,-6.96233 -6.753481,-6.96233 -0.853221,0 -2.957301,-1.49659 -4.675741,-3.32581 -2.2807408,-2.42775 -4.2162812,-3.18762 -7.1679218,-2.81405 -5.140811,0.65061 -8.5987117,2.92352 -23.0807152,15.17117 -11.516852,9.73997 -11.733282,9.85119 -10.834492,5.56953 0.731,-3.48241 1.571281,-4.34194 4.140661,-4.23556 l 3.223541,0.13354 -3.113111,-2.52087 c -1.88421,-1.52572 -2.38028,-2.52907 -1.25666,-2.5417 1.43883,-0.0155 1.3961,-0.31866 -0.1899,-1.34335 -1.48282,-0.95828 -0.29251,-1.32824 4.322231,-1.3434 7.932781,-0.0258 10.696752,-1.04382 10.641112,-3.91851 -0.0387,-2.00907 -0.23131,-1.99396 -1.85571,0.14592 -2.356041,3.10368 -5.283642,3.02819 -8.215872,-0.21192 -2.259201,-2.49638 -2.183941,-2.63632 1.90013,-3.53335 3.465061,-0.76106 3.956871,-1.29019 2.656001,-2.85762 -1.28612,-1.54969 -1.04922,-1.92367 1.21853,-1.92367 1.54827,0 3.190921,-0.60823 3.650351,-1.3516 0.45942,-0.74337 3.1411404,-1.26121 5.959351,-1.15076 2.8182206,0.11034 6.31550129,-0.49036 7.77174159,-1.33546 C 3.2804731,34.28425 3.2332731,34.17999 0.03366243,34.04 -1.926848,33.9544 -2.5068881,33.60069 -1.3305878,33.2083 4.3708633,31.30679 4.2563933,30.77065 -2.012708,30.01351 c -7.0940214,-0.8568 -6.3433913,-1.91517 2.3874305,-3.36618 2.8137606,-0.46767 5.1159311,-1.37165 5.1159311,-2.00896 0,-0.63731 -2.2849305,-0.64344 -5.07763109,-0.0155 -2.79269061,0.62983 -5.23137111,0.99144 -5.41928111,0.80355 -0.6620401,-0.66206 7.9834716,-10.42157 9.2319919,-10.42157 0.6957001,0 1.3133903,1.68824 1.3726203,3.75171 0.0592,2.06341 0.4259001,2.95862 0.8148001,1.98941 0.5460402,-1.36093 1.1467503,-1.39738 2.6376106,-0.15983 1.4625007,1.21376 1.5552107,2.05437 0.3823801,3.46754 -1.2319503,1.48437 -0.9161002,1.86531 1.5466406,1.86531 3.07681,0 3.07382,0.0206 -0.51511,3.34545 -4.6245114,4.28589 -4.5788514,6.23938 0.14185,6.06829 3.49547,-0.12684 3.53876,-0.19645 0.63387,-1.02319 -3.0214609,-0.8598 -3.0388709,-0.95468 -0.56336,-3.07094 1.40495,-1.20109 4.21438,-2.60038 6.243161,-3.10956 2.14574,-0.53856 3.308711,-1.54067 2.78026,-2.39573 -0.62968,-1.01886 -1.22242,-0.96189 -1.93163,0.18563 -0.6637,1.07388 -1.32574,1.16602 -1.88434,0.26193 -0.47365,-0.76637 -0.0899,-1.67958 0.85265,-2.02938 0.9872,-0.36609 0.1912,-1.24321 -1.877511,-2.06816 -3.50512,-1.39774 -10.7009017,-9.8071 -8.3918212,-9.8071 0.6396501,0 2.2760504,1.88429 3.6364412,4.18721 1.36039,2.30297 2.78258,3.87802 3.16041,3.50024 0.37784,-0.37795 -0.97325,-2.86366 -3.0024,-5.52401 C 6.1039037,8.98781 3.8467732,9.29754 -1.1582378,16.0068 c -1.5479503,2.07502 -2.8339106,3.06903 -2.8576806,2.20882 -0.0237,-0.86016 2.1054704,-3.45054 4.73165097,-5.7564 C 5.7795836,8.01313 6.6806538,6.33849 3.6207032,7.06031 c -1.0284402,0.24234 -4.865391,4.18664 -8.5265518,8.76458 -3.6611507,4.57794 -12.7715924,14.88045 -20.2454044,22.89449 -7.473811,8.01404 -14.07336,15.31884 -14.665664,16.23293 -1.462307,2.25672 -3.749051,-1.25311 -3.805826,-5.84142 -0.0232,-1.87583 -0.892143,-7.02348 -1.930965,-11.43914 -1.80819,-7.68606 -1.751405,-8.28691 1.331035,-14.08419 1.770891,-3.3306 6.220965,-10.15422 9.889048,-15.16364 6.794992,-9.27972 10.280392,-15.17064 11.823523,-19.98376 0.6245,-1.94786 1.15473,-2.21743 1.92139,-0.977 0.60242,0.97473 2.188021,1.34386 3.678291,0.85629 2.14611,-0.70217 2.24966,-0.59105 0.57305,0.61504 -1.73984,1.25151 -1.63767,1.50752 0.68213,1.70907 1.500671,0.13046 3.838501,0.14077 5.195181,0.0206 1.4865906,-0.12891 2.0962807,0.38517 1.5344606,1.29426 -0.6052601,0.97932 -0.0351,1.23599 1.6260603,0.73177 1.4070503,-0.42694 6.2417413,-0.90574 10.7437622,-1.06357 5.1711311,-0.1815 10.6974519,-1.45142 15.0067229,-3.44899 8.505742,-3.94285 8.867612,-3.93734 8.867612,0.13561 z m -49.4976,7.45346 c -2.558921,4.33193 -1.788981,8.92415 1.29765,7.73972 1.23986,-0.47592 1.78422,0.0464 1.52927,1.46627 -0.24709,1.3763 0.722271,2.38496 2.579181,2.68371 2.50943,0.40373 2.878911,-0.0516 2.36075,-2.90893 -0.65192,-3.59517 1.735871,-4.73577 3.002741,-1.43436 0.58555,1.52593 5.9860713,2.63668 5.9860713,1.2312 0,-2.63415 -4.0652908,-7.44478 -7.9771113,-9.43967 -2.740791,-1.39764 -5.307841,-2.7166 -5.704572,-2.93094 -0.39672,-0.2145 -1.78002,1.40249 -3.07398,3.593 z m 11.000182,2.60641 c 5.0525612,3.23417 2.2307906,3.5914 -3.174951,0.40219 -4.933701,-2.91094 -4.957171,-2.91166 -5.674361,-0.16913 -0.3961,1.51463 -1.29871,2.75393 -2.00581,2.75393 -1.2603,0 -0.57399,-1.80348 1.91603,-5.03483 1.340811,-1.74001 3.957901,-1.14045 8.939092,2.04805 z m 28.500686,-3.68725 c -3.350621,1.7678 -5.933671,4.45867 -7.208191,7.50908 -1.8414609,4.40722 -1.7772109,5.04762 0.88096,8.78066 1.57701,2.2147 3.6202,4.0267 4.540421,4.0267 0.92023,0 4.02733,-3.08703 6.904671,-6.86003 5.070591,-6.64899 5.156471,-6.943 2.791491,-9.55626 -2.429851,-2.68494 -2.459421,-2.68478 -7.079532,0.0412 -2.55172,1.50555 -4.256731,2.11801 -3.788901,1.36108 0.46783,-0.75698 2.707301,-2.33643 4.976601,-3.50993 3.828691,-1.97988 4.261691,-1.95461 6.009212,0.35062 2.2211,2.93012 2.58002,1.39847 0.55775,-2.38015 -1.723211,-3.21985 -2.049871,-3.21088 -8.584482,0.23718 z m 7.268241,7.43612 c 0,1.27008 -8.569811,11.51609 -9.632101,11.51609 -0.544481,0 -1.355571,-0.95277 -1.802421,-2.11725 -0.4967,-1.29441 -0.24909,-1.76904 0.63715,-1.2213 1.724791,1.06595 8.068872,-4.54081 8.068872,-7.13109 0,-0.99474 0.61392,-1.80859 1.36425,-1.80859 0.75033,0 1.36425,0.34289 1.36425,0.76214 z M 12.478395,6.37769 c -1.60824,2.76564 -1.9966,1.88042 -0.68012,-1.55022 0.46787,-1.21923 1.13804,-1.9294 1.48929,-1.57816 0.35124,0.35114 -0.0129,1.75904 -0.80917,3.12838 z m -43.205909,3.29868 c -1.20009,2.32071 -1.84695,4.55454 -1.43744,4.96404 0.4095,0.40941 1.36044,-0.87537 2.1132,-2.85525 0.75275,-1.97988 1.969201,-3.59981 2.703211,-3.59981 0.734,0 0.28962,1.82066 -0.9875,4.04593 -2.211491,3.85329 -2.199321,4.16183 0.25565,6.48017 1.41773,1.3388 2.14802,1.66684 1.62287,0.72893 -1.42913,-2.55243 0.66961,-2.05506 2.878131,0.68212 1.77538,2.2003 1.86015,2.14688 1.08165,-0.68212 -0.50577,-1.83798 -0.24121,-3.06954 0.65948,-3.06954 1.0645,0 1.03335,-0.89729 -0.10657,-3.0696 l -1.61076,-3.06954 3.26807,2.69943 c 1.797431,1.48468 1.15242,0.41043 -1.43336,-2.38743 -2.585791,-2.79776 -5.179151,-5.08686 -5.763021,-5.08686 -0.58388,0 -2.043491,1.89878 -3.243601,4.21953 z m 54.106011,2.57759 c -4.621301,5.48059 -5.469821,7.28598 -4.380781,9.32088 3.310211,6.18518 4.910131,6.04014 11.538423,-1.04604 3.48269,-3.72324 6.332181,-7.08122 6.332181,-7.46217 0,-0.38104 -1.29596,-1.38614 -2.879901,-2.23382 -2.49435,-1.33494 -3.63587,-0.83912 -8.526551,3.70365 l -5.646651,5.24495 5.392801,-5.798 c 2.96604,-3.18896 6.225301,-5.79806 7.242811,-5.79806 1.01751,0 1.4706,-0.61395 1.00687,-1.36428 -1.68469,-2.72588 -4.461861,-1.22893 -10.079202,5.43289 z m 8.373882,3.65612 c -0.93791,0.37846 -2.472691,0.37846 -3.410611,0 -0.93792,-0.37847 -0.17052,-0.6881 1.705311,-0.6881 1.87584,0 2.64322,0.30989 1.7053,0.6881 z m -5.032141,6.98222 c -2.125351,2.04073 -3.380721,2.78951 -2.789711,1.66401 1.802041,-3.43176 5.147331,-6.88095 5.922152,-6.10613 0.4025,0.4027 -1.007091,2.40145 -3.132441,4.44212 z M -8.1244992,8.83447 c -1.0760503,1.29658 -1.1795403,2.07934 -0.2749301,2.07934 1.6487703,0 3.5710507,-2.58821 2.6249505,-3.53432 -0.34335,-0.3434 -1.4008902,0.31143 -2.3500204,1.45498 z m -5.7401508,5.73979 c 0.98482,0.39393 2.16148,0.34547 2.61481,-0.10777 0.45333,-0.45323 -0.35243,-0.77575 -1.79057,-0.7165 -1.589281,0.0655 -1.912541,0.38878 -0.82424,0.82422 z m -23.715347,5.16347 c -1.213345,1.8518 -1.889876,4.15395 -1.503403,5.11589 0.468442,1.16603 0.738582,1.00892 0.810387,-0.47128 0.05924,-1.22119 1.048128,-3.00086 2.197528,-3.95475 1.82824,-1.51732 1.92287,-1.29529 0.75607,1.77362 -1.01643,2.67345 -0.84971,3.9098 0.70075,5.19654 1.118981,0.92868 1.667171,2.6458 1.218201,3.8158 -0.448951,1.16999 -0.379911,1.69087 0.15345,1.15752 1.38854,-1.38857 4.775301,1.7628 3.7235,3.46466 -0.51418,0.83196 -0.21615,1.01149 0.719401,0.43312 1.67259,-1.03371 1.38583,-1.8338 -2.849921,-7.95165 -2.603201,-3.75986 -2.292471,-6.50745 0.73153,-6.46857 1.14318,0.0155 1.10017,0.35372 -0.14509,1.1436 -1.42643,0.90486 -1.38599,1.44131 0.20841,2.76455 3.282651,2.72434 3.572181,-1.33216 0.40213,-5.63434 -3.397061,-4.61032 -4.321551,-4.66023 -7.122948,-0.38466 z m 69.842996,3.01267 c -5.566661,7.14507 -5.870991,10.15954 -1.09898,10.88574 2.65975,0.40477 3.02033,0.0309 2.26511,-2.3486 -0.67455,-2.12534 -0.21187,-3.00942 1.858221,-3.55077 1.66259,-0.43467 2.46527,-1.47953 2.02273,-2.63276 -0.48618,-1.26699 0.236,-1.91198 2.140771,-1.91198 1.58095,0 2.87445,0.61395 2.87445,1.36428 0,0.75033 -0.6139,1.36423 -1.36424,1.36423 -0.75034,0 -1.36425,0.74549 -1.36425,1.65659 0,1.02433 0.90626,0.75033 2.37445,-0.71785 2.146441,-2.14648 2.179191,-2.72077 0.34109,-5.98104 -1.11837,-1.98359 -2.70395,-3.82812 -3.523521,-4.09893 -0.81956,-0.2707 -3.75618,2.4162 -6.525801,5.97109 z m 7.333812,-2.68308 C 38.4713,20.48136 36.1184,22.42798 34.368139,24.39343 l -3.1823,3.57346 2.93413,-4.43378 c 1.613781,-2.43857 3.966681,-4.38534 5.228672,-4.3261 1.87145,0.0877 1.91721,0.24647 0.24817,0.86031 z m -64.119644,3.63982 c 0,0.28307 1.074341,1.35763 2.387431,2.38743 2.16378,1.69696 2.21203,1.64869 0.51511,-0.51511 -1.78222,-2.2725 -2.902521,-2.99519 -2.902521,-1.87238 z m -18.417346,4.94192 c -0.46375,0.75033 -0.405123,2.073 0.130298,2.93924 0.603106,0.97587 0.374238,1.20475 -0.601612,0.60163 -0.866265,-0.53537 -1.575032,-0.3233 -1.575032,0.47128 0,0.79462 0.920868,1.44477 2.046372,1.44477 1.125503,0 2.046371,1.17762 2.046371,2.61693 0,1.4393 0.41126,3.6887 0.913965,4.99863 0.656184,1.71 0.425387,2.0798 -0.818234,1.31117 -1.392105,-0.86037 -1.389806,-0.4357 0.01186,2.16365 1.743222,3.23294 1.744372,3.23232 2.971402,-1.54068 0.675124,-2.62616 1.809334,-5.37405 2.520484,-6.10644 0.82306,-0.84758 0.16448,-2.25414 -1.8121,-3.87004 -1.707809,-1.39615 -2.276461,-2.1042 -1.263683,-1.57337 1.484793,0.77823 1.541553,0.40476 0.293079,-1.92796 -1.671299,-3.12281 -3.518908,-3.70365 -4.863004,-1.52887 z m 15.965336,-0.19955 c -1.41088,0.89496 -1.33536,1.48334 0.37228,2.90057 1.83644,1.52408 2.00728,1.42626 1.19698,-0.68531 -0.65039,-1.6949 -0.44735,-2.15545 0.65089,-1.47668 0.877851,0.54253 1.596091,0.33618 1.596091,-0.45839 0,-1.7196 -1.386741,-1.82143 -3.816261,-0.27998 z m 68.774924,2.19809 c -2.595281,3.9609 -2.814731,5.36179 -0.62824,4.01045 0.98368,-0.60792 1.2044,-0.37382 0.58786,0.6239 -0.54295,0.87852 -1.52786,1.26312 -2.18871,0.8547 -0.660841,-0.40837 -1.819881,0.41301 -2.575661,1.82499 -1.11352,2.08062 -0.56902,3.31682 2.871041,6.51837 2.33485,2.17293 3.70706,3.02994 3.04936,1.90444 -1.97207,-3.37474 -1.92576,-5.97259 0.16334,-9.16479 1.181711,-1.80571 2.804181,-2.70949 4.023791,-2.24151 1.41689,0.54372 2.043661,-0.0975 2.043661,-2.09023 0,-1.64555 -0.874861,-2.87443 -2.046371,-2.87443 -1.1255,0 -2.04637,0.71625 -2.04637,1.59162 0,0.87537 -0.45947,1.13215 -1.021041,0.57059 -0.56158,-0.56157 0.169691,-1.89171 1.624991,-2.9559 2.12202,-1.55166 2.22021,-1.93482 0.49582,-1.93482 -1.18261,0 -3.141691,1.51319 -4.353491,3.36262 z m -4.959131,1.44524 c -0.94913,1.14364 -1.381,2.42404 -0.9597,2.8453 0.42132,0.42126 1.45125,-0.51459 2.28878,-2.0793 1.786951,-3.33895 1.123591,-3.72129 -1.32908,-0.766 z m -7.208091,3.85354 c -0.364961,0.95112 0.46596,1.66793 1.93346,1.66793 3.026971,0 3.405181,-1.53278 0.64003,-2.59388 -1.0634,-0.40786 -2.22148,0.0103 -2.57349,0.92595 z M 19.133096,46.38445 c -1.22959,0.79463 -1.39785,1.33082 -0.42157,1.34335 0.89364,0.0103 2.004211,-0.59302 2.467951,-1.34335 1.04679,-1.69376 0.57451,-1.69376 -2.046381,0 z m 6.139112,2.72851 c -1.067091,1.72656 0.73891,1.72656 3.41062,0 1.763541,-1.13972 1.727541,-1.32535 -0.26054,-1.3434 -1.26881,-0.0103 -2.68634,0.59302 -3.15008,1.3434 z m 6.139121,1.36423 c 0,0.75034 0.61391,1.36423 1.36424,1.36423 0.75034,0 1.36425,-0.61389 1.36425,-1.36423 0,-0.75033 -0.61391,-1.36423 -1.36425,-1.36423 -0.75033,0 -1.36424,0.6139 -1.36424,1.36423 z M 59.925775,-8.78976 c 3.833461,6.49724 3.61208,7.61784 -0.54904,2.77935 -2.957561,-3.43898 -4.529741,-7.63222 -2.861581,-7.63222 0.30107,0 1.83583,2.18381 3.410621,4.85287 z M -55.901494,-9.95512 c 0.0077,2.23718 -3.80086,7.27753 -6.39082,8.45763 -3.627782,1.65292 -6.474826,0.82459 -5.056047,-1.47106 0.564099,-0.91276 1.291553,-0.75807 2.047737,0.43518 0.802343,1.26626 1.179422,0.52217 1.193715,-2.35546 0.01134,-2.31354 0.363049,-4.5486 0.781202,-4.96677 0.682709,-0.68268 7.421867,-0.77317 7.424213,-0.0995 z m -9.153483,18.14047 c 0.39244,1.50067 0.228678,2.72846 -0.363873,2.72846 -0.592578,0 -1.398499,-1.22779 -1.790933,-2.72846 -0.392439,-1.50071 -0.228678,-2.72851 0.363874,-2.72851 0.592577,0 1.398498,1.2278 1.790932,2.72851 z m 48.095966,26.57211 c -7.311302,7.89539 -13.627973,14.3553 -14.037063,14.3553 -0.40909,0 2.261351,-3.27033 5.934291,-7.26742 3.672931,-3.99704 9.677012,-10.76951 13.342393,-15.04994 3.6653808,-4.28038 6.9769315,-7.46995 7.3589915,-7.08788 0.3820701,0.38207 -5.2873111,7.15455 -12.5986125,15.04994 z m -30.797817,5.48765 c 0,0.75034 -0.595111,0.44343 -1.322466,-0.68211 -0.727356,-1.1255 -1.322465,-2.66029 -1.322465,-3.41063 0,-0.75033 0.595109,-0.44343 1.322465,0.68217 0.727355,1.1255 1.322466,2.66024 1.322466,3.41057 z m 0.565832,19.94194 c 2.946976,13.80473 4.31923,17.36499 10.638351,27.60062 5.605341,9.07942 7.797792,11.58121 9.642372,11.00274 1.3131,-0.41198 2.38744,-0.0572 2.38744,0.78802 0,0.84521 0.613911,1.15731 1.364241,0.69356 0.75034,-0.46354 1.36426,-0.12478 1.36426,0.75343 0,2.96687 9.346312,0.30112 17.4965135,-4.99039 0.6445202,-0.41817 1.3782003,-4.76625 1.4985704,-8.88049 0.0574,-1.9622 1.4287202,-5.25129 3.04737058,-7.30907 l 2.94299062,-3.7414 1.7680703,3.21634 c 0.9724402,1.76898 2.4564806,6.45031 3.2978607,10.40285 1.3570803,6.37509 2.1324709,7.49394 6.8677319,9.90967 5.936211,3.02844 14.877573,2.53525 18.429303,-1.01644 6.759732,-6.75974 15.161943,-22.40388 16.445564,-30.62015 0.50897,-3.2578 1.41779,-6.24897 2.01961,-6.64703 0.60183,-0.39806 1.25092,-3.0503 1.44242,-5.89385 0.1915,-2.84354 0.751391,-5.41928 1.244191,-5.72385 0.49278,-0.30474 0.59981,-2.10317 0.23781,-3.99694 -0.41369,-2.16401 -0.0382,-3.44317 1.01104,-3.44317 0.91809,0 1.32342,-0.9012 0.90074,-2.00267 -0.89794,-2.33998 1.24866,-4.15192 2.506901,-2.11605 0.47004,0.76054 0.1186,7.67702 -0.781041,15.37004 -0.89961,7.693 -1.73557,14.90809 -1.85769,16.03364 -0.12215,1.1255 -0.99195,4.70087 -1.93293,7.94526 -1.387261,4.78309 -2.067671,5.60278 -3.597081,4.33352 -1.97161,-1.63631 -3.927401,0.83175 -11.576122,14.60801 -5.573702,10.03893 -17.130434,11.57419 -28.669866,3.80874 -7.8063219,-5.25325 -11.03405259,-5.87148 -13.7252431,-2.62879 -3.1429807,3.78708 -11.9145329,7.40385 -17.9391739,7.39689 -7.451211,-0.0103 -11.670282,-3.46296 -17.487494,-14.31781 -5.540629,-10.33876 -6.208193,-11.04238 -8.596143,-9.06055 -2.64937,2.19877 -4.187942,-2.04943 -7.764905,-21.43993 -2.701865,-14.64667 -2.730347,-15.63496 -0.520968,-18.07627 1.830414,-2.02257 1.921565,-2.58707 0.420386,-2.60341 -1.558898,-0.0155 -1.5347,-0.26606 0.129627,-1.33469 2.360324,-1.51541 2.275499,-1.76925 7.345293,21.97962 z m -10.967259,-17.1546 c -0.44431,1.15788 -1.100433,1.81262 -1.458042,1.45503 -0.357635,-0.35784 -0.245539,-1.30498 0.249045,-2.10523 1.345214,-2.17658 2.131475,-1.75372 1.208992,0.6502 z m 70.58231,5.58443 c 1.19687,1.47375 0.24399,1.14432 -2.4996305,-0.86418 -2.4386005,-1.78518 -4.4338109,-3.45894 -4.4338109,-3.71938 0,-1.03603 5.1166714,2.34654 6.9334414,4.58356 z M 3.5035931,46.28824 c -0.43111,0.69748 2.9138206,4.11347 7.4331419,7.59102 9.048112,6.96233 11.783912,11.21032 14.481813,22.48659 2.37824,9.94013 2.41299,9.75678 -1.510591,7.96907 -1.87584,-0.8547 -3.41061,-2.68324 -3.41061,-4.0635 0,-1.38021 -0.61392,-2.50947 -1.364251,-2.50947 -0.75034,0 -1.36425,0.84922 -1.36425,1.88722 0,1.82365 -3.967881,3.53488 -8.1854916,3.53024 C 7.789924,83.17741 7.785504,83.02008 9.5477544,81.90562 11.243135,80.8335 11.045435,80.08812 8.2867541,77.15166 6.4873638,75.23628 4.3943233,73.6692 3.6355632,73.6692 c -2.0628204,0 -7.6945416,5.66585 -7.6945416,7.74118 0,2.1558 -0.2106401,2.17962 -4.581541,0.51777 -1.8961206,-0.72088 -3.6601806,-2.67833 -3.9957706,-4.43376 -0.53249,-2.78544 -0.62199,-2.71619 -0.78664,0.60859 -0.1022,2.06341 -0.76359,3.75171 -1.469791,3.75171 -1.41637,0 -13.722722,11.75635 -13.722722,13.1094 0,0.4656 1.3813,-0.0309 3.06956,-1.10018 3.528961,-2.23842 20.1223143,-8.3724 20.8023945,-7.68993 0.24967,0.2506 -0.3344301,2.32943 -1.2979203,4.61971 -2.1714205,5.16147 -10.6090522,8.28268 -16.4191732,6.07366 -2.010431,-0.76436 -4.222061,-1.0395 -4.914731,-0.61138 -0.69267,0.42797 -1.651481,-0.24337 -2.130681,-1.4922 -0.47922,-1.24879 -0.0965,-2.74935 0.850541,-3.33463 1.08411,-0.67005 1.5274,-3.10295 1.19687,-6.5688 -0.28874,-3.02758 -0.0956,-5.23932 0.4291,-4.91505 1.25739,0.77715 2.22013,-0.89672 3.00486,-5.22422 0.352221,-1.9425 1.665021,-5.09552 2.917281,-7.00672 1.25227,-1.91121 1.93589,-4.02659 1.51917,-4.70087 -0.41672,-0.67423 0.857191,-2.69643 2.830891,-4.49378 1.97371,-1.7973 3.058721,-2.35861 2.41113,-1.24734 -0.64758,1.11127 1.500321,-0.55249 4.7731215,-3.69731 3.2728106,-3.14483 6.4019313,-5.43888 6.9536114,-5.0979 0.5516801,0.34083 1.3550703,-0.29751 1.78531036,-1.41863 0.43023008,-1.12116 1.75862036,-2.0385 2.95196064,-2.0385 1.1933402,0 1.8169903,0.57068 1.3859002,1.26822 z m -8.8538718,12.59894 c -3.0631906,2.85381 -3.0838606,3.01612 -0.6140401,4.82208 1.6029103,1.17206 2.7312706,1.34263 3.0263406,0.45736 0.2587401,-0.77632 2.41454052,-1.38378 4.790601,-1.34995 l 4.3201209,0.0614 -4.0927508,1.96781 -4.0927409,1.96777 4.774871,-0.83938 c 5.115901,-0.89935 10.025422,-3.65307 8.763232,-4.91526 -0.42302,-0.4228 -3.935241,-0.5048 -7.8049018,-0.18149 -5.4090211,0.45168 -6.6632814,0.21553 -5.4247311,-1.0232 0.88607016,-0.8861 3.4923607,-1.55754 5.7917612,-1.49216 2.2994004,0.0655 3.8265008,-0.45426 3.3935407,-1.15483 -1.4873803,-2.40666 -9.582682,-1.34706 -12.8313027,1.67948 z m -9.9638823,32.20506 c -6.168041,2.0516 -8.627871,4.4049 -4.604331,4.4049 4.971321,0 10.0543924,-1.85799 11.5248827,-4.21263 1.8963604,-3.03654 1.6509403,-3.04335 -6.9205517,-0.19233 z M 20.497347,54.81738 c 0,0.52558 -0.767391,1.39718 -1.705311,1.93693 -0.93792,0.53976 -1.24354,0.47231 -0.67915,-0.15004 0.56439,-0.62215 -0.0495,-2.34231 -1.36425,-3.82261 -2.327241,-2.62028 -2.309291,-2.64153 0.67915,-0.80571 1.68825,1.03712 3.069561,2.31565 3.069561,2.84123 z m -52.275531,3.45039 c 0.13638,3.53457 -0.30535,7.37151 -0.9817,8.5265 -0.85719,1.46385 -1.242281,0.17067 -1.271201,-4.26857 -0.034,-5.21111 0.893171,-10.68458 1.809781,-10.68443 0.1073,0 0.30669,2.89196 0.44313,6.4265 z m -3.902791,6.73039 c 0.26245,4.78671 1.55148,9.94344 3.233681,12.93652 4.236491,7.53785 2.24934,9.77405 -2.292301,2.57964 -4.422458,-7.00563 -6.386165,-14.19927 -5.220268,-19.12334 1.944754,-8.21358 3.712438,-6.72338 4.278888,3.60718 z m -8.523698,19.42359 c -1.086729,1.75837 8.333688,18.64588 10.154728,18.20389 0.849441,-0.20625 1.152411,0.25936 0.673261,1.0347 -0.976641,1.58027 4.579131,4.085 7.010541,3.1606 0.86203,-0.32794 1.92315,-0.0206 2.35806,0.68361 1.475581,2.38753 11.944573,-0.72579 19.0175344,-5.65548 6.8206214,-4.75387 7.0790915,-4.8177 9.766782,-2.41285 5.5462716,4.96269 15.3071036,8.55703 21.6879246,7.9864 8.719422,-0.77978 12.484582,-3.88547 18.008344,-14.85421 3.38951,-6.73066 5.314471,-9.25478 6.303591,-8.26567 1.88758,1.88759 -3.102101,16.73877 -7.996992,23.80209 -2.61645,3.77554 -4.240841,4.97008 -5.796191,4.26244 -1.18853,-0.54073 -5.230531,-1.20671 -8.982202,-1.47994 -4.415021,-0.32175 -10.207242,-2.24233 -16.419993,-5.44511 l -9.5987522,-4.94825 -8.9496918,5.00492 c -6.364201,3.55907 -10.612752,5.00497 -14.706343,5.00497 -3.166151,0 -6.790621,0.54136 -8.054372,1.203 -3.40733,1.784 -8.242312,-0.59137 -10.003922,-4.91485 -7.731909,-18.97608 -8.279638,-20.62468 -7.351448,-22.12653 0.491748,-0.7956 1.507955,-1.44657 2.258292,-1.44657 0.750337,0 1.029716,0.5413 0.620849,1.20284 z m 30.595823,1.52567 c 0,0.75033 -1.074351,1.35485 -2.387431,1.34335 -2.0403,-0.0206 -2.08989,-0.21295 -0.34109,-1.34335 2.574631,-1.66386 2.728501,-1.66386 2.728501,0 z m 34.106197,0 c 0,0.75033 -0.57769,1.36423 -1.283741,1.36423 -0.70605,0 -1.66315,-0.6139 -2.12688,-1.36423 -0.46375,-0.75033 0.11395,-1.36428 1.28373,-1.36428 1.16978,0 2.126891,0.61395 2.126891,1.36428 z m -4.147231,6.99667 c 2.79468,2.0662 4.959421,2.64498 7.503911,2.00638 1.966881,-0.49345 3.234071,-1.45106 2.815971,-2.12755 -0.41812,-0.6765 -0.13623,-1.6156 0.62633,-2.08688 0.76257,-0.47127 1.3865,-0.25677 1.3865,0.47644 0,0.73321 0.3417,2.22356 0.75928,3.31183 1.831771,4.77352 -12.033212,3.12291 -16.653623,-1.98261 -3.0451506,-3.36484 -1.26134,-3.16323 3.561631,0.4027 z M 6.1502137,109.11607 c 3.5670007,3.72315 3.7192608,4.27429 1.7902404,6.48017 -1.1595903,1.32602 -3.0159107,4.18736 -4.1251509,6.35854 l -2.0168104,3.94753 -4.3586009,-6.33496 c -4.712381,-6.84925 -6.3334413,-7.95428 -5.1760711,-3.52855 0.5916302,2.26244 0.3698501,2.50432 -1.1440402,1.24791 -1.4626406,-1.21388 -1.5296906,-2.11622 -0.3031901,-4.08017 0.8661302,-1.38686 2.2199405,-2.40887 3.0084707,-2.2711 0.7885201,0.13767 1.2649902,-0.56249 1.0588202,-1.5562 -0.2062001,-0.9937 0.25858,-1.41522 1.0328202,-0.93673 0.7742201,0.4785 1.7759804,-0.0897 2.2261304,-1.2628 1.2233803,-3.18809 3.6630308,-2.59811 8.0073717,1.93636 z m -17.0305737,2.60605 c 0,1.65504 -3.695121,2.98014 -10.164872,3.64519 -3.815471,0.39238 -6.291921,1.65576 -8.477492,4.32549 -3.87682,4.73561 -4.155251,2.82585 -0.36418,-2.49818 2.338111,-3.28358 3.798651,-3.96585 8.526552,-3.98318 3.137831,-0.0103 6.626021,-0.61601 7.751532,-1.34334 2.54334,-1.64365 2.72849,-1.65355 2.72849,-0.14593 z m 33.873217,1.48303 c 2.498031,0.63406 4.935031,1.54599 5.415541,2.0265 1.273931,1.27394 -7.835281,-0.49861 -10.847692,-2.1107 -2.00544,-1.07326 -2.755261,-0.84 -3.457311,1.07574 -0.49304,1.34546 -3.23324,5.92299 -6.0892909,10.17227 -4.4677209,6.64718 -5.1277711,8.59489 -4.726961,13.94868 0.2562101,3.42244 -0.064,5.89514 -0.7117101,5.49486 -0.6476602,-0.40012 -1.1775603,-3.38416 -1.1775603,-6.63087 0,-4.61553 1.1903103,-7.68565 5.4569911,-14.07507 3.0013507,-4.49455 5.4569912,-9.24043 5.4569912,-10.5464 0,-1.82952 0.70454,-2.1603 3.069561,-1.44121 1.68825,0.51356 5.113401,1.45214 7.611441,2.0862 z m 9.890422,5.19112 c 0.079,-1.28632 0.28524,-1.31638 0.77421,-0.11292 1.353091,3.33045 -8.273591,13.6127 -17.447733,18.63598 -4.984361,2.72913 -9.4352222,4.96208 -9.8908023,4.96208 -1.5727403,0 -0.8235201,-7.85518 0.8769702,-9.19456 0.9379302,-0.73878 3.3935711,-1.74651 5.4569911,-2.23944 2.06343,-0.49294 3.751681,-1.49845 3.751681,-2.23445 0,-1.62559 3.640191,-5.32425 8.215101,-8.34712 2.345551,-1.5498 4.112181,-1.84845 5.768442,-0.97514 1.68106,0.88635 2.4193,0.74002 2.49514,-0.49448 z m -44.634539,2.33943 c 0.59859,1.55989 -0.25858,2.04159 -3.605721,2.02627 l -4.390981,-0.0206 3.410611,-1.89253 c 1.87584,-1.04088 3.498421,-1.95265 3.605731,-2.02623 0.1073,-0.0737 0.54847,0.78709 0.98036,1.91259 z m 9.576932,5.52786 c 0.4658601,1.21408 0.23718,1.76167 -0.5361701,1.28369 -0.7417402,-0.45839 -1.3486203,-1.41116 -1.3486203,-2.1172 0,-1.9624 0.9778502,-1.52995 1.8847904,0.83351 z M 73.414618,-74.69265 c -0.216561,15.94464 -0.004,30.21806 0.47246,31.71873 0.47643,1.50065 0.96078,-11.54491 1.07636,-28.99022 0.11555,-17.44531 -0.097,-31.71878 -0.47246,-31.71878 -0.37542,0 -0.8598,13.04562 -1.07636,28.99027 z m 0.0149,36.15254 c -0.239041,0.56275 -0.0558,5.01359 0.40708,9.8908 l 0.84169,8.86759 -0.0124,-9.89079 c -0.0124,-9.41746 -0.25668,-11.17444 -1.2365,-8.8676 z m 0.53953,22.85113 c 0.0278,2.251 0.33356,3.00669 0.67945,1.67933 0.34588,-1.32736 0.32314,-3.16911 -0.0505,-4.09274 -0.37372,-0.92363 -0.6567,0.16242 -0.6289,2.41341 z m -0.0505,14.32458 c 0,1.87587 0.30969,2.64321 0.68812,1.7053 0.37846,-0.9379 0.37846,-2.47265 0,-3.41062 -0.37847,-0.93791 -0.68812,-0.17067 -0.68812,1.70532 z m -6.692602,48.43076 c 0.0149,3.00133 0.29452,4.06856 0.62084,2.37155 0.32634,-1.69701 0.31391,-4.15266 -0.0273,-5.45703 -0.34144,-1.30431 -0.60843,0.0841 -0.59328,3.08548 z m -1.39178,10.23188 c 0,2.62616 0.28076,3.7005 0.62391,2.38743 0.34315,-1.31308 0.34315,-3.46178 0,-4.77486 -0.34314,-1.31313 -0.62391,-0.23873 -0.62391,2.38743 z m -2.629241,14.97373 c -0.89023,5.60934 -1.40159,10.41585 -1.13637,10.68108 0.86599,0.86599 3.652131,-14.6478 3.197631,-17.805 -0.24347,-1.69124 -1.17102,1.51453 -2.061261,7.12392 z m -7.020981,26.11125 c -4.058961,12.84839 -5.019021,14.5171 -14.221663,24.71917 -10.816692,11.99144 -21.785744,20.1616 -33.4273468,24.89794 l -7.55042157,3.07181 -8.25059173,-3.35252 c -11.9556029,-4.85797 -19.2164239,-10.15906 -32.0676649,-23.41243 -9.878714,-10.18779 -10.814365,-10.87532 -7.010359,-5.1512 6.677155,10.04748 11.637268,15.2122 21.08254,21.95219 8.763902,6.25381 20.5292145,11.68732 25.30677544,11.68732 3.99440086,0 16.53641356,-5.91335 25.60804556,-12.07377 4.449021,-3.02129 12.358142,-10.32996 17.575833,-16.2415 8.732502,-9.89373 9.840202,-11.8634 13.933453,-24.77563 2.445721,-7.71508 4.205441,-14.26873 3.910481,-14.56366 -0.29493,-0.29494 -2.495041,5.66404 -4.889081,13.24228 z m -65.7000735,36.71989 c 0,0.72676 0.9208702,1.32143 2.0463704,1.32143 1.1255102,0 2.0463804,-0.24131 2.0463804,-0.53614 0,-0.29494 -0.9208702,-0.88955 -2.0463804,-1.32144 -1.1255002,-0.43209 -2.0463704,-0.19078 -2.0463704,0.53615 z m -4.3485405,0.88913 c 0.98482,0.39394 2.16148,0.34547 2.61481,-0.10776 0.45333,-0.45323 -0.35243,-0.7758 -1.79057,-0.71656 -1.589281,0.0655 -1.912541,0.38878 -0.82424,0.82422 z"
       id="path996" /></g></svg>
