<?xml version="1.0" encoding="UTF-8" standalone="no"?>
<!-- Created with Inkscape (http://www.inkscape.org/) -->

<svg
   width="210mm"
   height="297mm"
   viewBox="0 0 210 297"
   version="1.1"
   id="svg5"
   xml:space="preserve"
   inkscape:version="1.2.2 (732a01da63, 2022-12-09)"
   sodipodi:docname="Frigg_A.svg"
   xmlns:inkscape="http://www.inkscape.org/namespaces/inkscape"
   xmlns:sodipodi="http://sodipodi.sourceforge.net/DTD/sodipodi-0.dtd"
   xmlns="http://www.w3.org/2000/svg"
   xmlns:svg="http://www.w3.org/2000/svg"><sodipodi:namedview
     id="namedview7"
     pagecolor="#ffffff"
     bordercolor="#000000"
     borderopacity="0.25"
     inkscape:showpageshadow="2"
     inkscape:pageopacity="0.0"
     inkscape:pagecheckerboard="0"
     inkscape:deskcolor="#d1d1d1"
     inkscape:document-units="mm"
     showgrid="false"
     inkscape:zoom="0.5946522"
     inkscape:cx="380.05409"
     inkscape:cy="563.35451"
     inkscape:window-width="2560"
     inkscape:window-height="1494"
     inkscape:window-x="2869"
     inkscape:window-y="-11"
     inkscape:window-maximized="1"
     inkscape:current-layer="layer1" /><defs
     id="defs2" /><g
     inkscape:label="레이어 1"
     inkscape:groupmode="layer"
     id="layer1"><path
       style="fill:#000000;stroke-width:1.45918"
       d="M -69.842083,-143.57434 -75,-139.04561 v 85.854693 c 0,55.6623868 0.513118,86.171757 1.459183,86.756457 0.802552,0.495811 1.479724,4.967004 1.504814,9.935607 0.0337,6.622564 1.01316,10.981147 3.67051,16.329731 1.99368,4.012742 4.86827,12.877328 6.38798,19.698973 1.51969,6.821714 5.12105,17.494781 8.00299,23.717949 2.88193,6.22316 5.26166,12.1329 5.2883,13.13267 0.0739,2.77136 7.59982,13.00008 10.89544,14.80836 1.60509,0.88075 5.87322,3.65293 9.48468,6.16045 20.2570295,14.06482 33.1969394,14.29385 51.845619,0.91781 3.1857,-2.28499 7.76207,-4.95812 10.16971,-5.94024 5.63663,-2.29922 11.57306,-10.83544 10.46967,-15.05471 -0.46988,-1.79664 0.45554,-5.6613 2.15081,-8.98471 4.53026,-8.880076 15.68154,-38.348376 17.38061,-45.929951 0.82896,-3.699152 3.61074,-11.033917 6.18168,-16.29962 l 4.67437,-9.573927 0.35241,-84.632786 c 0.19413,-46.548021 0.0276,-86.059516 -0.36454,-87.803426 -0.39432,-1.74391 -2.41696,-5.19125 -4.49491,-7.66072 l -3.77807,-4.49 H 0.79862642 -64.684163 Z m 28.82142,-0.53661 c -4.18409,0.29395 -11.40706,0.29671 -16.05105,0.006 -4.64398,-0.29064 -1.22064,-0.53055 7.60743,-0.53386 8.82807,-0.003 12.62771,0.23439 8.44362,0.52834 z m 27.67121,-0.0441 c -1.80573,0.348 -4.76057,0.348 -6.56636,0 -1.80573,-0.348 -0.32814,-0.63241 3.28321,-0.63241 3.61146,0 5.08888,0.28458 3.28315,0.63241 z m 82.498739,3.36069 3.33803,4.22899 -0.4197,86.524555 -0.41969,86.524547 -4.6035,9.745007 c -2.5319,5.359723 -5.03616,11.926088 -5.565,14.591829 -1.11839,5.637584 -6.54198,20.301554 -8.20856,22.193815 -0.62778,0.712761 0.20185,-2.898702 1.84356,-8.025525 1.64171,-5.126774 3.55366,-11.692088 4.24883,-14.58958 0.69512,-2.897482 3.23804,-10.622337 5.65087,-17.166361 l 4.38703,-11.898178 0.0331,-85.110886 c 0.0331,-80.349873 -0.11416,-85.244733 -2.61114,-87.504583 -2.27831,-2.06179 -7.79169,-2.45143 -39.76765,-2.81029 l -37.122639,-0.41638 37.938809,-0.25811 37.93875,-0.2581 z m -108.214819,1.87386 c 0.55343,0.55343 1.88741,0.27464 2.96444,-0.61896 1.3942,-1.15706 1.95828,-1.1666 1.95828,-0.0331 0,0.87562 0.98492,1.21408 2.18874,0.75214 1.53693,-0.58977 2.18881,0.11637 2.18881,2.37119 0,1.95497 1.11155,3.50177 2.84151,3.95416 2.41277,0.63092 2.83538,2.02788 2.80086,9.25721 -0.0331,6.74317 -0.47154,8.34876 -2.11198,7.71927 -3.01165,-1.15567 -2.62212,3.88468 0.48256,6.24131 4.86817,3.69546 6.54248,2.53101 5.47196,-3.80549 -0.60412,-3.57577 -0.4208,-5.83677 0.47319,-5.83677 0.80254,0 1.9029,2.62653 2.44531,5.83677 1.10129,6.51856 1.73227,6.97537 4.53506,3.28316 1.8461,-2.43197 1.94063,-2.43197 1.98486,0 0.0833,4.59143 2.9647595,2.67656 2.9647595,-1.9703 0,-3.38022 -1.60746,-6.15439 -6.3583795,-10.97336 -5.09313,-5.16616 -6.21268,-7.2113 -5.62643,-10.27832 0.66489,-3.47794 0.37833,-3.76119 -3.12631,-3.09122 -2.12207,0.4059 -3.85831,0.17206 -3.85831,-0.51952 0,-0.69125 0.98498,-1.25682 2.18881,-1.25682 1.20382,0 2.18874,-0.55255 2.18874,-1.22786 0,-0.67532 2.79072,-0.8395 6.20154,-0.36455 3.41088,0.47485 22.3990694,0.53496 42.195969,0.13347 33.06281,-0.67019 36.1231,-0.52338 37.574,1.80413 0.86878,1.39353 1.57956,8.80126 1.57956,16.46159 0,11.08632 -0.45058,14.10067 -2.20734,14.77488 -1.21402,0.46602 -3.18394,0.0386 -4.37755,-0.95404 -1.51068,-1.25374 -2.72454,-1.34385 -3.99415,-0.29671 -2.70788,2.23353 -42.49814,2.37692 -41.12076,0.14835 0.58454,-0.94577 1.13085,-7.86218 1.21408,-15.36973 0.1114,-10.04254 -0.33201,-13.65014 -1.67641,-13.65014 -1.31478,0 -1.83325,3.37812 -1.84759,12.03826 -0.0276,16.91289 -0.53826,18.21218 -7.4094396,18.86748 -3.13682998,0.29891 -5.70331,0.0496 -5.70331,-0.55371 0,-0.60362 2.27975003,-3.17208 5.06616,-5.70763 l 5.06611,-4.61006 -2.72956,-3.83333 c -2.66127,-3.73743 -2.66177,-3.96051 -0.0221,-8.92278 3.24505,-6.09559 3.40928,-7.28055 1.00777,-7.27079 -1.00319,0.004 -2.91001,2.46649 -4.23742,5.47196 l -2.41342997,5.46451 -0.14008,-5.47196 c -0.107,-4.18392 -0.74122003,-5.47267 -2.69370993,-5.47504 -2.29916,-0.003 -2.50785,1.5238 -2.09488,15.32147 l 0.45885,15.32451 H -20.188073 c -11.4278,0.41693 -17.87443,-0.20185 -32.56072,-0.4594 l -14.22706,-0.27024 -0.41369,-13.89942 c -0.54753,-18.39621 0.52002,-19.69186 16.13868,-19.58636 6.14777,0.0441 11.63053,0.52834 12.18397,1.08172 z m 58.644649,17.07944 c 0.37006,11.69385 0.89024,14.59503 2.61777,14.59503 1.73034,0 1.98866,-1.46418 1.30822,-7.41546 -0.49636,-4.34093 -0.29396,-7.07313 0.48808,-6.58985 2.19724,1.35797 6.28999,11.00674 5.32861,12.56225 -0.49028,0.79367 0.13181,1.44306 1.38306,1.44306 4.17935,0 2.80842,-8.54505 -2.10767,-13.13741 -3.36191,-3.14048 -4.43712,-5.48575 -4.61674,-10.07012 -0.17152,-4.38356 -0.85097,-5.97702 -2.54855,-5.97939 -1.98972,-0.003 -2.24958,2.0442 -1.85267,14.59189 z m -88.742379,-16.95613 c 0,0.30278 -1.14911,1.45211 -2.55357,2.55357 -2.314348,1.81505 -2.365963,1.76343 -0.5509,-0.55095 1.90623,-2.43064 3.10449,-3.20363 3.10449,-2.00267 z m 53.53097,18.67285 c 3.52207,3.30879 4.49315,7.04153 1.83193,7.04153 -0.84992,0 -1.11751,-0.69219 -0.59463,-1.5382 0.52282,-0.846 -0.91583,-3.14345 -3.19706,-5.10537 -2.28124,-1.96191 -3.53342,-3.56795 -2.78255,-3.56894 0.75081,-9.4e-4 2.88485,1.42597 4.74231,3.17098 z m 17.4624594,5.85133 c -2.46593997,3.9486 -3.13348,3.26727 -3.2156,-3.28205 -0.0739,-5.87847 -0.0557,-5.89804 2.39794,-2.64478 1.94151,2.57391 2.11705,3.84623 0.81766,5.92683 z m -54.5775994,12.3411 c 3.00955,0.49745 5.4719,1.31103 5.4719,1.80793 -5e-5,0.496912 -2.15753,2.624944 -4.79449,4.728925 -4.16963,3.327002 -4.79438,3.483572 -4.79438,1.201501 0,-1.443171 0.51455,-2.305772 1.14393,-1.916912 0.62915,0.388811 2.60447,-0.31601 4.38952,-1.566321 l 3.24565,-2.273351 -4.33746,-0.206822 c -2.38558,-0.11361 -5.97901,-0.27795 -7.98537,-0.36454 -6.04185,-0.26196 -7.29845,1.697913 -7.2635,11.329149 l 0.0325,8.941236 2.85348,-3.647972 c 3.28093,-4.194453 3.73294,-7.250115 1.09439,-7.398465 -1.00319,-0.0563 -0.5107,-0.623421 1.09438,-1.260021 5.1366,-2.037252 4.92173,1.464631 -0.54174,8.828686 l -5.29497,7.136884 -0.42868,-11.087797 c -0.5889,-15.23224 1.10764,-16.73266 16.11491,-14.25211 z m 25.87816,0.80128 c 0.011,-1.14002 0.74735,-1.46204 1.82068,-0.79869 2.41029,1.48966 6.95677,1.7594 6.95677,0.41252 0,-0.59325 1.37153,-0.72004 3.04782,-0.28181 2.57541,0.67355 1.99484,1.33077 -3.74614,4.241003 -3.73659,1.894132 -7.34469,3.443913 -8.01796,3.443913 -0.67322,0 -5.71798,4.647243 -11.21051,10.327177 -9.19135,9.504936 -18.01087,22.846505 -18.01164,27.246838 -2.2e-4,1.00319 -0.74624,1.823991 -1.65787,1.823991 -2.68019,0 -0.24211,-12.856749 3.71288,-19.580843 1.92651,-3.275212 5.2679,-7.480915 7.42527,-9.346046 4.4247,-3.825223 3.9712,-6.045464 -0.58316,-2.855462 -5.11618,3.583502 -11.73791,12.962088 -13.56384,19.210893 -2.16856,7.421464 -2.06197,41.782537 0.20417,65.8141232 1.13273,12.0120678 1.1758,17.6504618 0.13732,17.9965918 -0.83165,0.2774 -1.51206,1.144701 -1.51206,1.927721 0,0.783021 0.74752,0.961711 1.66119,0.397081 1.19737,-0.740001 1.36629,0.55994 0.60511,4.656233 -1.15822,6.232594 -6.66804,17.089261 -7.99777,15.75887 -0.45918,-0.4594 -0.62947,-25.239977 -0.37844,-55.067916 l 0.45643,-54.232666 3.73376,-7.673395 c 3.52604,-7.246365 16.51878,-20.287094 18.36907,-18.436803 0.44617,0.446171 2.14562,0.0965 3.77691,-0.77641 1.63129,-0.873081 4.72042,-1.732601 6.86472,-1.910071 2.14436,-0.17758 4.2404,-1.212983 4.65799,-2.301153 0.63059,-1.64336 0.96822,-1.64882 1.99303,-0.0331 0.99877,1.575652 1.23801,1.582542 1.2561,0.0386 z m 45.929209,-0.37172 c 0.4037,0.65304 2.3119,1.18733 4.24061,1.18733 1.92872,0 7.02962,1.887803 11.33526,4.195174 7.57864,4.061223 7.82853,4.393063 7.82853,10.394897 0,3.409893 -0.23384,6.200554 -0.51952,6.201544 -0.28568,9.9e-4 -3.00453,-1.966331 -6.04166,-4.371822 -7.79019,-6.169885 -26.4852496,-14.75309 -33.0993196,-15.196391 -3.06579997,-0.20571 -7.0515699,0.157731 -8.8572999,0.806961 -3.9166,1.408371 -4.2869895,0.13236 -0.72958,-2.513533 2.82574,-2.10166 24.6124695,-2.6953 25.8430895,-0.70416 z m 34.11668,0.8341 c 0.92514,0.925142 -2.7605,5.095555 -4.5033,5.095555 -0.8684,0 -0.78071,-0.817491 0.21674,-2.019222 1.35918,-1.637681 0.68271,-2.205571 -3.57986,-3.005253 -3.16298,-0.59336 -6.03151,-0.34193 -7.204,0.630922 -2.05716,1.707291 -4.37667,-0.229422 -2.53322,-2.115012 1.04283,-1.06672 16.35288,0.16214 17.60369,1.41301 z m -52.29900958,5.141385 c 0,2.078951 -3.85301992,3.369022 -6.03481992,2.020541 -1.28958,-0.79698 -1.00026,-1.422601 1.02453,-2.215501 3.99176993,-1.563231 5.01028992,-1.523581 5.01028992,0.19468 z m 59.19995958,1.527221 c 3.70819,4.097503 4.34126,17.850782 0.97649,21.215554 -2.18891,2.188971 -2.57965,2.113971 -5.08122,-0.975331 -2.75745,-3.405312 -3.03525,-11.169427 -0.37612,-10.504537 0.80255,0.20075 1.54123,1.021381 1.64155,1.823932 0.42631,3.412042 0.74596,3.507942 2.77069,0.83156 1.87544,-2.479122 1.85995,-3.115552 -0.12905,-5.313683 -3.0695,-3.391683 -7.57715,-1.920992 -8.60173,2.806541 -0.46051,2.125442 0.0331,6.819235 1.09589,10.430697 1.63074,5.538244 2.49136,6.544135 5.49655,6.424405 1.95971,-0.0783 4.61299,-0.602801 5.89617,-1.165941 2.01718,-0.885271 2.19934,-0.14228 1.34517,5.485803 -0.54323,3.580303 -0.7983,11.656238 -0.56661,17.946522 l 0.42135,11.436848 -2.92821,-6.566364 c -1.6105,-3.611463 -3.71481,-8.372086 -4.67624,-10.579097 -1.61679,-3.711393 -3.97777,-5.461974 -3.93608,-2.918332 0.011,0.60191 2.6364,8.282585 5.83672,17.068141 l 5.81879,15.973791 V 3.0274602 c 0,26.3320078 -0.83618,33.6009318 -3.60136,31.3060208 -1.00385,-0.833101 -1.49254,-3.523612 -1.13064,-6.224934 0.35076,-2.616712 0.85593,-15.42714 1.12303,-28.46764909 0.34855,-17.00775091 -0.006,-24.22615591 -1.26184,-25.53574691 -0.96105,-1.004131 -2.5737,-3.467302 -3.58356,-5.473674 l -1.83612,-3.647972 0.76549,3.647972 c 1.03159,4.916044 2.30308,43.728459 1.32653,40.4924072 -0.42411,-1.4044609 -1.23575,-2.5535717 -1.8043,-2.5535717 -0.56854,0 -1.08508,-4.4322629 -1.14789,-9.8495165 -0.0629,-5.4172436 -0.47816,-15.62855 -0.9225,-22.691815 -0.7249,-11.516098 -0.57357,-12.647508 1.46534,-10.955387 1.98883,1.650591 2.13172,1.431431 1.14073,-1.749481 -0.62309,-2.000082 -1.63306,-3.832173 -2.24434,-4.071303 -0.61129,-0.2388 -0.75054,-1.814721 -0.3094,-3.501323 0.50132,-1.917521 -0.11305,-3.735552 -1.63945,-4.851803 -2.85105,-2.084791 -1.69741,-6.735834 1.37804,-5.555673 2.99747,1.15022 2.55561,-1.571891 -1.57994,-9.732977 -2.00637,-3.959412 -3.64792,-8.495245 -3.64792,-10.079657 0,-1.584421 -0.59501,-3.248472 -1.32223,-3.697942 -1.94807,-1.203991 -0.22501,-6.720894 3.78613,-12.122918 4.10114,-5.523194 6.25889,-5.890664 10.04214,-1.710161 z m -72.332619,-0.11361 c 0,0.80255 -0.69539,1.459171 -1.54531,1.459171 -0.84992,0 -1.13952,-0.656621 -0.64349,-1.459171 0.4958,-0.802541 1.19141,-1.459221 1.54531,-1.459221 0.35406,0 0.64349,0.65668 0.64349,1.459221 z m 20.4285394,0 c 0,0.80255 -0.98492,1.459171 -2.18874,1.459171 -1.20382,0 -2.18881,-0.656621 -2.18881,-1.459171 0,-0.802541 0.98499,-1.459221 2.18881,-1.459221 1.20382,0 2.18874,0.65668 2.18874,1.459221 z m -32.7872194,6.242574 c -5.22356,2.819232 -10.62696,7.229385 -13.49742,11.016277 -2.63277,3.473253 -4.78677,5.505104 -4.78677,4.515263 0,-5.514863 18.15552,-20.343293 24.8061,-20.260233 1.20382,0.0165 -1.73101,2.142971 -6.52191,4.728693 z m 34.774119,-2.594602 c -0.9325296,2.430032 -4.2724296,2.934002 -5.5665896,0.840001 -0.71304,-1.153751 1.23652,-2.194272 5.3579,-2.859552 0.5767096,-0.0932 0.6706296,0.81573 0.2084696,2.019551 z m 12.20686,2.653452 c -0.28568,0.857421 1.65671,3.469942 4.31677,5.805454 6.24125,5.479893 6.10039,6.696894 -0.63549,5.491143 -3.00955,-0.53881 -7.606,-0.5333 -10.21428,0.011 -4.3122,0.901271 -4.74237,0.672341 -4.74237,-2.523841 0,-5.345884 3.93034,-10.343437 8.13461,-10.343437 2.01326,0 3.4266,0.70156 3.14076,1.559041 z m -14.0980696,7.925645 c -0.87645,5.304084 -0.18144,14.73898 2.0565496,27.909149 0.78441,4.616693 0.62668,6.102934 -0.5691996,5.363863 -1.88239,-1.163391 -10.33813997,0.369511 -10.33813997,1.873841 0,0.543781 2.95483997,0.753961 6.56635997,0.466571 5.1267696,-0.40756 6.5662996,-0.0386 6.5662996,1.691851 0,1.217771 -0.49249,2.489542 -1.09435,2.826172 -0.60191,0.33642 -0.32814,0.43293 0.6088,0.21399 1.79388,-0.4197 4.01814,3.667162 2.70871,4.976593 -0.42024,0.420251 -0.76394,-0.1114 -0.76394,-1.181651 0,-1.07008 -0.38164,-1.564061 -0.84783,-1.09776 -0.46657,0.46657 -0.091,2.262431 0.83459,3.991442 1.57813,2.948722 1.38885,3.114782 -3.05257,2.678542 -5.5411596,-0.54433 -7.6530296,-4.063143 -2.5277496,-4.211773 l 3.4047496,-0.0987 -3.2831496,-1.583421 c -1.80573,-0.87088 -3.28315,-2.468031 -3.28315,-3.549192 0,-3.149082 -3.95901,-2.264862 -4.83352997,1.079451 -1.19362,4.564353 -6.26777993,3.093382 -5.59515993,-1.622081 0.28347,-1.986572 1.26829,-4.094413 2.18875,-4.684024 1.0731099,-0.68739 0.7573699,-1.08006 -0.87998,-1.0944 -2.71036,-0.0221 -3.45296,-2.212632 -1.21899,-3.593263 0.734,-0.45334 1.63686,5e-5 2.00637,1.008251 0.5360599,1.462371 1.0724499,1.454591 2.65299993,-0.0386 1.65136997,-1.560151 1.43881997,-2.013591 -1.27678003,-2.723762 -5.1198799,-1.338891 -3.8114399,-3.420642 2.21395002,-3.522452 4.89954998,-0.0827 5.11441998,-0.23604 2.05401998,-1.462041 -1.87984998,-0.753241 -3.95466,-1.037811 -4.61068,-0.632351 -1.4394199,0.889631 -5.8336299,-0.643 -5.8336299,-2.034661 0,-0.54488 2.18368,-0.918471 4.85268,-0.82995 2.66898993,0.0888 6.1163299,-0.334211 7.6606999,-0.939161 1.97135,-0.772381 0.94119,-1.130741 -3.45748,-1.202721 -5.0850199,-0.0833 -6.1847199,-0.57477 -5.8367199,-2.608822 0.30112,-1.758361 -0.8256,-2.738101 -3.77465,-3.283152 -2.3118395,-0.42742 -5.1250595,-2.167581 -6.2514995,-3.867312 -1.93716,-2.922912 -1.83601,-3.049812 1.86672,-2.342012 2.70772,0.51786 3.5964095,0.23329 2.8822095,-0.922391 -0.5679395,-0.91891 -0.2983595,-1.670721 0.59882,-1.670721 0.8973,0 1.22561,-0.65662 0.72964,-1.459221 -0.4958,-0.80255 0.0673,-1.459171 1.25142,-1.459171 1.18435,0 2.3992,-0.73769 2.69977,-1.639341 0.30057,-0.90165 3.1459299,-2.139391 6.3231399,-2.750561 3.17715,-0.611181 6.1658,-1.186731 6.64136,-1.278991 0.4754,-0.0927 0.45775,2.294521 -0.0386,5.304133 z m -13.2283399,9.224116 c 0,1.640721 3.5710299,5.732484 5.00294993,5.732484 0.45884999,0 0.83381999,-0.984931 0.83381999,-2.188751 0,-1.253951 1.40219998,-2.250902 3.28314998,-2.334232 3.14974,-0.13953 3.13491,-0.19303 -0.36509,-1.313741 -5.34969,-1.713241 -8.7551099,-1.672701 -8.7551099,0.10424 z m 72.4968495,-8.585745 c -0.46602,1.16405 -0.81159,0.81826 -0.88163,-0.881581 -0.0634,-1.538251 0.28182,-2.400082 0.76642,-1.915201 0.48477,0.48477 0.53661,1.743461 0.11527,2.796782 z m -44.04273,6.149864 c 0.80254,0.22887 3.42908,0.93325 5.83672,1.565391 5.1036,1.339871 10.94391,6.219904 10.94391,9.144466 0,1.414881 -0.998,1.745901 -3.28321,1.089061 -10.95229,-3.148153 -15.52116,-3.621063 -19.68567,-2.037702 -4.4086,1.676131 -6.15731,-0.0827 -6.19249,-6.228174 -0.0276,-4.940423 3.7072,-6.006424 12.38074,-3.533042 z m -59.096999,0.0568 c 0,0.35406 -0.65662,1.04928 -1.45916,1.545311 -0.80255,0.4958 -1.45917,0.20626 -1.45917,-0.643501 0,-0.84992 0.65662,-1.545311 1.45917,-1.545311 0.80254,0 1.45916,0.289541 1.45916,0.643501 z m 16.78063,0.81572 c 0.4958,0.802551 0.20627,1.459171 -0.64349,1.459171 -0.84987,0 -1.54526,-0.65662 -1.54526,-1.459171 0,-0.80254 0.28954,-1.459221 0.64344,-1.459221 0.35407,0 1.04929,0.656681 1.54531,1.459221 z m -3.35429,4.643713 c 2.1679,0.818491 5.00759,3.115002 6.3104,5.103334 4.39366,6.705614 -0.65176,20.895844 -7.42957,20.895844 -3.14047,0 -7.92961,-2.705892 -7.92961,-4.480243 0,-0.897791 1.22555,-0.803321 3.18542,0.24542 4.72991,2.531401 8.92867,-3.061452 8.04455,-10.715537 -1.40501,-12.163518 -13.23849,-12.957179 -19.61138,-1.315391 -4.12805,7.541035 -4.88234,14.90702 -2.36413,23.086465 3.34211,10.855517 2.84774,31.2478908 -0.96072,39.6281464 -6.84685,15.0660196 -11.90771,25.2670066 -12.30722,24.8071666 -0.23218,-0.26693 -0.82593,-9.236186 -1.31958,-19.9312634 -0.4936,-10.69502709 -1.19092,-19.9200236 -1.54934,-20.4999836 -0.35847,-0.57996 -0.84137,-7.588685 -1.07328,-15.57494 -0.37557,-12.935509 0.011,-15.635281 3.5669,-24.734697 3.63264,-9.303026 4.6447,-10.575957 11.34386,-14.267719 4.04544,-2.229392 7.97887,-3.668043 8.74093,-3.197062 0.76213,0.47098 1.38566,0.14836 1.38566,-0.716731 0,-1.660021 4.99953,-0.96353 11.96711,1.667031 z m 8.52833,1.317981 c 2.38508,4.456533 0.73785,4.968554 -2.09163,0.650171 -1.33105,-2.031412 -1.77143,-3.693533 -0.97859,-3.693533 0.79279,0 2.17441,1.369551 3.07022,3.043362 z m 5.7698695,2.063842 c 0,1.20382 -0.2581,2.188741 -0.5735,2.188741 -0.31546,0 -0.9514,-0.984921 -1.4134,-2.188741 -0.4621495,-1.203881 -0.2040495,-2.188812 0.57351,-2.188812 0.77735,0 1.41339,0.984931 1.41339,2.188812 z m -16.7183095,2.087931 c -0.4616,0.74712 -0.17206,1.770821 0.64344,2.274891 2.27357,1.405121 1.76095,8.911416 -0.75092,10.996098 -1.89756,1.574811 -2.49748,1.155891 -3.98384,-2.782002 -2.63966,-6.993225 -6.08506,-5.356864 -6.63116,3.149462 -0.25038,3.901223 0.16159,6.773285 0.93949,6.553184 0.7619,-0.21564 3.09111,1.574261 5.17602,3.977223 2.81707,3.246912 3.7511,5.870364 3.6366,10.214327 -0.0849,3.214882 -0.0331,9.759566 0.11637,14.543689 0.21454,6.894505 -0.28071,9.1292565 -2.38729,10.7754375 -2.55814,1.99898137 -2.55544,2.0413314 0.0717,1.1293108 2.28747,-0.7941105 2.57474,-0.4125203 1.77435,2.3572916 -0.52558,1.8176412 -1.16031,5.6454037 -1.41108,8.5060556 -0.25093,2.8606415 -1.20211,6.4721645 -2.11413,8.0255255 -1.40137,2.386901 -1.52082,2.089861 -0.77116,-1.918071 0.48808,-2.608282 0.49359,-4.742324 0.011,-4.742324 -1.7181,0 -4.91571,8.091596 -4.61184,11.670248 0.17042,2.004601 -2.88777,10.041437 -6.79561,17.859652 l -7.10512,14.214999 5.20127,14.97198 c 2.8607,8.234556 6.95269,17.507912 9.09329,20.607414 2.1406,3.099452 4.57251,6.816304 5.40423,8.259585 0.83172,1.443281 2.93516,4.513507 4.67421,6.822707 l 3.16198,4.19859 -6.45252,2.32028 -6.45253,2.32034 -6.46824,-10.4009 c -3.55753,-5.720527 -7.12658,-12.146701 -7.93133,-14.280403 -3.29788,-8.744475 -15.32831,-34.121332 -16.56308,-34.938053 -0.73065,-0.48312 1.67226,-5.171233 5.33978,-10.417677 3.6676,-5.246503 6.66833,-10.052416 6.66833,-10.679917 0,-0.6275 0.93325,-2.177551 2.07387,-3.444572 1.14062,-1.267031 2.28973,-3.182952 2.55357,-4.257663 0.26362,-1.07471 2.3087,-3.959732 4.54416,-6.411224 2.23546,-2.451432 3.803,-5.183633 3.48335,-6.071494 -0.31988,-0.887871 0.26086,-3.284752 1.28952,-5.3264736 2.78029,-5.5174636 5.74087,-42.8668484 3.27719,-41.3442574 -1.436,0.887531 -3.65028,-3.651782 -4.8182,-9.877427 -1.09457,-5.834403 1.43683,-12.204158 6.85667,-17.253491 3.12509,-2.911502 10.89687,-4.256833 9.25626,-1.602341 z m 63.288469,5.697854 c 3.4635,1.797401 5.59064,4.315953 6.94204,8.219325 1.07163,3.095312 1.77463,5.801654 1.56219,6.014034 -0.21233,0.21233 -3.99062,-0.87893 -8.39608,-2.425231 -4.56859,-1.603501 -11.10765,-2.685552 -15.22004,-2.518502 -6.71725,0.273 -7.38787,-0.0276 -9.81029,-4.361343 -4.4017096,-7.879095 -2.457,-9.600226 9.58296,-8.481236 5.69013,0.528901 12.59274,2.127702 15.33922,3.552953 z m -49.488539,5.760834 c 0,0.62899 -2.25118,4.637813 -5.00263,8.908545 -4.64575,7.210905 -4.9841,8.534786 -4.74237,18.556373 0.14339,5.935384 -0.23218,10.791087 -0.83409,10.790537 -0.60191,-5.5e-4 -1.09441,-5.467934 -1.09441,-12.149718 0,-11.003317 0.33697,-12.465128 3.57231,-15.50474 1.96473,-1.845772 3.98681,-5.243364 4.49348,-7.550245 0.81241,-3.698873 3.60771,-6.062614 3.60771,-3.050752 z m 2.3407895,10.134696 c -1.48332,1.483331 -2.7071595,-0.74982 -1.49016,-2.719022 0.91936,-1.48751 1.26306,-1.48867 1.75731,-0.006 0.33807,1.013831 0.21785,2.240042 -0.26692,2.724862 z m 43.0139095,-1.02353 c 4.83067,1.627321 9.42264,2.563441 10.2044,2.080321 0.78176,-0.48311 1.29906,-0.33697 1.14961,0.32429 -0.14946,0.661581 0.49084,3.051352 1.42304,5.310584 2.26127,5.480733 2.17844,5.738504 -1.25373,3.901662 -1.62169,-0.8679 -3.54622,-1.20862 -4.27674,-0.75715 -0.73046,0.45168 -1.70254,0.21508 -2.16007,-0.525041 -0.45775,-0.74033 -2.13647,-1.00483 -3.73103,-0.58784 -1.83827,0.48091 -3.22976,-0.10313 -3.80261,-1.596221 -0.4969,-1.294871 -1.56009,-2.354312 -2.36264,-2.354312 -0.80254,0 -1.0532,1.058061 -0.55696,2.351222 0.6328,1.649001 0.27189,2.109341 -1.20878,1.541181 -1.16108,-0.44561 -2.3927,-0.0276 -2.73689,0.931931 -0.63478,1.766851 -6.4421,-4.303713 -6.55296,-6.849945 -0.0331,-0.71282 -0.85323,-1.788521 -1.82718,-2.390431 -2.85039,-1.761672 -0.13457,-4.339063 4.57201,-4.339063 2.38564,0 8.28986,1.331441 13.12053,2.958812 z m -43.7618495,12.044278 c -0.8101095,2.190291 -2.4404595,3.258662 -5.0429395,3.304552 -5.21055,0.0921 -5.09473,-4.145813 0.1671,-6.108174 5.1478895,-1.919892 6.3643395,-1.220481 4.8759995,2.803622 z m 10.8102199,-3.329593 c -4.03132,1.732272 -6.5663499,1.732272 -6.5663499,0 0,-0.80255 2.13409,-1.413061 4.74236993,-1.356641 3.97412997,0.086 4.26956997,0.305531 1.82397997,1.356641 z m -2.58394996,5.259134 c -0.48477004,0.48477 -1.74347004,0.53661 -2.79677994,0.11526 -1.16406,-0.46602 -0.81827,-0.811591 0.88157,-0.881571 1.5381999,-0.0634 2.40002993,0.281261 1.91520994,0.766371 z m 33.95640956,0.2377 c 0,0.61553 2.62184,1.187881 5.82629,1.271871 5.49848,0.1445 10.22475,2.424301 10.22475,4.932753 0,0.621331 -3.98747,0.913511 -8.86099,0.649341 -9.67182,-0.523921 -17.9293,-4.361283 -14.31365,-6.651235 2.49886,-1.582651 7.1236,-1.714241 7.1236,-0.20295 z m -22.22214,2.072881 c -0.9019296,2.705672 -4.0431796,3.154432 -4.0431796,0.577591 0,-1.270671 1.03969,-2.310362 2.31035,-2.310362 1.2707196,0 2.0504896,0.779771 1.7328296,1.732771 z m -9.1606296,1.168911 c 0.50848,0.823171 -0.0684,1.074101 -1.34461997,0.584371 -2.79320003,-1.071851 -13.96652943,7.542415 -13.96652943,10.767707 0,3.2527719 -5.80815,14.9299696 -7.4261,14.9299696 -2.16674,0 -1.51448,-3.19061212 1.03313,-5.0534834 1.53329,-1.1212007 2.41945,-4.0886227 2.5255,-8.4572452 0.0899,-3.701523 0.57709,-6.060634 1.08277,-5.242424 0.54268,0.878491 1.28252,0.541581 1.80628,-0.8235 0.48753,-1.271161 1.79062,-2.311132 2.89528,-2.311132 1.1046,0 3.1968895,-1.313291 4.6494995,-2.918392 2.81255,-3.107832 7.27111993,-3.860302 8.7447899,-1.475871 z m 19.7092696,2.935042 c 0,0.802601 -1.0237,1.459221 -2.27489,1.459221 -1.25119,0 -1.86904,-0.65662 -1.37308,-1.459221 0.4958,-0.80255 1.51972,-1.459171 2.2749,-1.459171 0.75523,0 1.37307,0.656621 1.37307,1.459171 z m -24.5858195,14.83918 c -0.29561,8.6138157 -1.21408,15.5232202 -2.18875,16.465291 -3.69375,3.570102 -11.0106995,8.093535 -13.0918495,8.093535 -1.21369,0 -2.43191,0.492491 -2.70711,1.094401 -0.2752,0.60191 -2.71852,3.064312 -5.42954,5.471954 -4.53981,4.031712 -4.74794,4.089402 -2.6347,0.72959 1.26201,-2.006371 3.06785,-6.750784 4.01296,-10.543197 0.94516,-3.792362 3.4293,-8.7171157 5.52027,-10.9438672 2.09096,-2.2267414 4.9253,-7.3318448 6.29854,-11.3445775 1.37319,-4.0127923 3.6924795,-7.9525653 5.1539095,-8.7551153 1.46148,-0.802551 3.18228,-2.280022 3.82412,-3.283213 0.64178,-1.00318 1.2984,-1.824591 1.45916,-1.825411 0.16104,-7.8e-4 0.0629,6.677545 -0.21674,14.84061 z m 6.2343999,-12.272538 c 0.44782,1.411621 2.29801,3.217412 4.11107,4.012732 2.3371,1.025301 3.3178996,2.720182 3.3700696,5.8237143 0.0551,3.1543221 1.98977,6.4074143 6.93112,11.6416778 6.40173,6.7812745 8.83281,12.4348979 5.34704,12.4348979 -0.95057,0 -0.83707,1.217171 0.30608,3.283162 0.99916,1.805732 1.6501,4.103953 1.44654,5.107134 -0.2035,1.003191 0.64366,1.823991 1.88267,1.823991 1.239,0 2.25272,0.6415 2.25272,1.425521 0,0.784071 1.64486,2.503332 3.65525,3.820593 2.97453,1.949011 4.0681,2.052421 5.87201,0.55531 2.93449,-2.435442 4.23069,-0.941201 2.30495,2.657032 -2.9764,5.561523 -5.81951,4.948583 -13.41679,-2.892302 -4.01009,-4.138703 -6.96432,-8.376456 -6.56492,-9.417196 0.39929,-1.040741 0.15442,-2.245662 -0.54489,-2.677652 -0.69897,-0.431831 -1.54509,0.0386 -1.88029,1.043 -0.39598,1.188381 -3.50425,-0.35737 -8.8797496,-4.415772 -7.35076,-5.549894 -8.28643998,-6.847245 -8.41592998,-11.6687582 -0.08,-2.983582 -0.33199999,-9.8569666 -0.55910999,-15.2742098 -0.39102,-9.310757 0.99054997,-12.926959 2.78188997,-7.282875 z m 8.1371496,1.810911 c 0,0.802601 -0.28954,1.459221 -0.64349,1.459221 -0.35407,0 -1.0492896,-0.65662 -1.5453096,-1.459221 -0.4958,-0.802541 -0.20626,-1.459161 0.64349,-1.459161 0.8499196,0 1.5453096,0.65662 1.5453096,1.459161 z m 29.87391,-0.064 c 0.4743,0.76752 1.68104,1.081331 2.68152,0.69737 2.43031,-0.93253 7.53281,2.905712 6.36809,4.790304 -0.50628,0.81898 -3.5123,1.342801 -6.68035,1.16406 -5.92226,-0.33421 -11.24492,-3.968232 -9.63271,-6.576784 1.15324,-1.866071 6.12477,-1.917361 7.26345,-0.075 z m -25.51869,5.621854 c -0.0221,2.1264311 -0.21784,2.1649311 -1.43683,0.27851 -1.84676,-2.857612 -1.84676,-4.789303 0,-3.647973 0.80255,0.495801 1.44913,2.012162 1.43683,3.369303 z m 12.55832,-1.116571 c 2.30297,1.870531 2.46169,1.862861 1.32626,-0.064 -1.14647,-1.945531 -0.9883,-1.945531 1.42381,0 2.55412,2.060141 2.42948,2.216601 -2.12047,2.6618317 -4.339,0.4246603 -7.23583,-1.3027007 -7.30653,-4.3567027 -0.0386,-1.561801 3.84833,-0.538821 6.67693,1.758851 z m -8.88802,-0.064 c 0.49581,0.80261 0.20627,1.459231 -0.64349,1.459231 -0.84992,0 -1.54531,-0.656621 -1.54531,-1.459231 0,-0.802541 0.28954,-1.459161 0.64349,-1.459161 0.35407,0 1.04929,0.65662 1.54531,1.459161 z m -38.668389,4.3775628 c 0,0.8026006 -0.28954,1.459221 -0.64349,1.459221 -0.35407,0 -1.04929,-0.6566204 -1.54526,-1.459221 -0.4958,-0.8025505 -0.20626,-1.4591709 0.64344,-1.4591709 0.84992,0 1.54531,0.6566204 1.54531,1.4591709 z m 39.967019,7.36747491 c 0.89084,1.24314083 0.14229,0.71403048 -1.66344,-1.17575081 -1.80573,-1.8898412 -3.26319,-4.2202728 -3.23876,-5.1786734 0.0221,-0.9584506 0.77293,-0.4290703 1.66344,1.1757508 0.89046,1.605101 2.34792,3.9354726 3.23876,5.17867341 z m 26.21441,-5.05789331 c 1.21877,0.4676803 1.86028,1.7771611 1.42558,2.9099519 -0.43458,1.1328407 -1.54233,1.580991 -2.46141,0.9960106 -0.91908,-0.5850303 -2.27302,-1.0737707 -3.00867,-1.0860207 -0.73565,-0.011 -1.61116,-0.8431305 -1.94559,-1.8463212 -0.64189,-1.9257313 2.27385,-2.3997016 5.99009,-0.9736206 z m -5.16024,3.9751226 c 2.44939,2.60729172 2.76997,3.7588825 1.42166,5.1071934 -1.34826,1.3482609 -1.00197,1.7407711 1.53577,1.7407711 5.35322,0 9.71974,5.7820635 11.81198,15.6411805 1.05276,4.960873 1.56406,10.851207 1.13615,13.089649 -0.42797,2.238381 -0.17262,5.200893 0.56716,6.583294 1.40986,2.634302 -2.62234,20.413383 -4.84225,21.350944 -0.6334,0.26748 -1.15164,1.706401 -1.15164,3.197612 0,1.491161 -3.61147,9.895677 -8.02553,18.676763 -4.41401,8.781035 -8.02547,16.713246 -8.02547,17.627036 0,0.91384 -1.68941,4.21442 -3.7543,7.3346 -3.44849,5.21104 -4.10897,5.57139 -8.10913,4.42416 -2.39517,-0.6869 -5.30214,-0.88544 -6.46002,-0.4412 -3.13717,1.20382 -2.55776,-0.60986 1.61005,-5.04002 3.99514,-4.24663 16.7134,-22.916056 16.7134,-24.534057 0,-0.53882 1.93848,-4.130483 4.30774,-7.981075 3.94401,-6.409854 7.71282,-17.375332 11.2977,-32.871022 0.76195,-3.293412 1.24336,-10.818787 1.06991,-16.723121 -0.28237,-9.617336 -0.71982,-11.082897 -4.1992,-14.075789 -4.90153,-4.2161331 -8.37021,-4.2222031 -13.25178,-0.0221 -3.42252,2.943922 -3.70941,3.885772 -2.54849,8.365915 1.05894,4.086473 2.07105,5.107134 5.31168,5.356194 2.92518,0.22501 4.35081,-0.554641 5.293,-2.893952 l 1.28952,-3.201702 0.0926,3.231862 c 0.1809,6.324534 -9.72371,7.750715 -14.08251,2.027771 -4.22969,-5.553363 -0.68248,-17.3906613 5.58705,-18.6445522 2.31571,-0.4632703 4.2104,-1.4166509 4.2104,-2.1188814 0,-1.7322111 -0.69909,-1.633221 -6.97795,0.9880707 -3.54654,1.480621 -4.79349,1.6322311 -3.60109,0.4379003 1.00318,-1.0049507 1.81389,-2.5166217 1.8016,-3.3593222 -0.011,-0.84264059 -0.63318,-0.56617041 -1.37981,0.6144304 -0.74662,1.1805508 -1.78731,1.7167211 -2.31256,1.1914708 -1.67425,-1.6742511 0.59491,-3.66253247 5.24027,-4.5915931 2.50542,-0.5013203 4.09965,-1.556121 3.59221,-2.3772516 -1.73106,-2.8008718 1.67767,-1.4675509 4.83199,1.8900013 z m 4.23653,14.022299 c -0.13401,0.468231 0.98057,2.683612 2.47652,4.923274 3.59161,5.377043 2.49644,18.938062 -2.91182,36.055503 -3.70152,11.715528 -13.89732,32.577672 -16.7974,34.370003 -2.02958,1.254401 -1.78157,0.555971 4.74993,-13.374609 3.34459,-7.133414 6.2065,-15.01622 6.35977,-17.517341 0.15331,-2.501122 0.73873,-5.291834 1.30099,-6.201544 0.61256,-0.991161 -0.0386,-1.695151 -1.61745,-1.756592 -2.35624,-0.0915 -2.32629,-0.23714 0.27851,-1.35664 2.08386,-0.895421 2.29249,-1.332821 0.72964,-1.529431 -1.20387,-0.151661 -2.7301,-0.181441 -3.39163,-0.0662 -0.66158,0.11472 -0.75931,-0.508481 -0.21729,-1.385871 0.54213,-0.877161 1.93825,-1.229241 3.10259,-0.782471 1.16433,0.44672 1.75047,0.2195 1.30248,-0.50573 -0.44782,-0.724841 0.011,-1.650421 1.01863,-2.056882 1.07074,-0.43183 0.73118,-0.78694 -0.81645,-0.85422 -1.45723,-0.0634 -3.91958,0.56457 -5.47195,1.395351 -1.64933,0.88268 -2.82243,0.94296 -2.82243,0.14505 0,-0.751041 2.46241,-1.951001 5.47196,-2.666572 4.62573,-1.099761 5.48199,-1.910801 5.53708,-5.244303 0.0386,-2.168842 0.85665,-4.734814 1.82399,-5.702154 4.54355,-4.543503 -0.0221,-15.36069 -4.80751,-11.389418 -1.20382,0.999101 -2.18874,2.861802 -2.18874,4.139303 0,2.089421 -0.22557,2.097471 -2.24241,0.0805 -2.7423,-2.742292 -1.40441,-6.962675 2.68697,-8.476166 3.52841,-1.30524 6.7847,-1.42784 6.44575,-0.24266 z M 3.0839464,32.106279 c 1.07444,2.783882 1.00247,2.801642 -1.56196,0.384951 -2.5587,-2.411062 -2.85888,-2.375872 -6.2251499,0.72964 -3.33714,3.078602 -3.49007,3.098072 -2.70865,0.34469 0.45554,-1.605091 1.96661,-6.858164 3.35794,-11.673497 l 2.5297399,-8.755116 1.74087003,8.025525 C 1.1742064,25.576545 2.4644964,30.501238 3.0839464,32.106389 Z m 2.65836,-15.46624 c -0.66925,0.499661 -1.70922,1.502571 -2.31113,2.228952 -0.60191,0.72633 -1.0944,-0.0816 -1.0944,-1.795192 0,-2.243411 0.64707,-2.867431 2.31112,-2.228901 1.27111,0.48753 1.7636,1.295591 1.09441,1.795141 z m -10.7040699,-0.22005 c -0.001,0.60197 -2.94414,2.952752 -6.5393295,5.224063 -6.3291,3.998503 -7.85246,7.693026 -4.44881,10.789378 0.68442,0.6226 0.772,0.31105 0.19468,-0.691971 -0.57731,-1.00318 -0.31546,-1.823981 0.58178,-1.823981 0.8973,0 1.17294,-0.741831 0.61261,-1.648501 -0.619,-1.001531 -0.22336,-1.380741 1.00826,-0.966291 1.11492,0.37503 2.827,-0.36013 3.8046495,-1.634701 1.53296,-1.997991 1.784,-1.778931 1.82399,1.591691 0.0276,2.149702 -0.8111,4.776233 -1.85923,5.836724 -1.0480695,1.060541 -2.4020695,3.237212 -3.0088895,4.837063 -1.06363,2.804282 -1.20983,2.778032 -4.06694,-0.72958 -1.92155,-2.359112 -2.67545,-2.740532 -2.14403,-1.084861 0.59342,1.848741 0.0221,2.553572 -2.07254,2.553572 -2.74059,0 -2.77996,-0.26859 -0.75209,-5.121924 2.04635,-4.897513 2.01878,-5.057063 -0.62871,-3.640142 -1.52287,0.815011 -3.19033,2.163821 -3.70549,2.997362 -1.41681,2.292491 3.56695,9.043496 5.98987,8.113715 2.40499,-0.92288 2.83913,1.387251 0.52889,2.814982 -0.85312,0.527241 -2.65885,-0.011 -4.01273,-1.200511 -3.34244,-2.931682 -9.02794,-4.570743 -9.02794,-2.602651 0,0.85665 -0.73703,1.557551 -1.63785,1.557551 -1.13163,0 -1.07643,-0.676531 0.17868,-2.188802 0.99905,-1.203821 2.56074,-2.188751 3.47039,-2.188751 0.90965,0 2.48132,-1.869321 3.49267,-4.153973 1.01129,-2.284711 3.3056,-4.917423 5.09853,-5.850574 1.79288,-0.93308 6.10155,-3.988572 9.57481,-6.789884 6.5780395,-5.305564 7.5490195,-5.820174 7.5446595,-3.999003 z M 8.0107964,33.56545 c 0.0331,0.802551 -0.87909,-0.18255 -2.02605,-2.188801 -1.14696,-2.006371 -2.05871,-4.961213 -2.02606,-6.566314 0.0386,-1.910952 0.73824,-1.155341 2.02606,2.188751 1.08171,2.808972 1.9934,5.763814 2.02605,6.566364 z m 7.4792096,2.139172 c -1.24458,3.004592 -2.4463,3.901162 -4.50677,3.362342 -3.8131496,-0.997171 -3.5306096,-2.515842 0.83822,-4.506433 2.22151,-1.012181 3.71416,-2.958152 3.81723,-4.976543 0.13512,-2.647382 0.30829,-2.777262 0.8588,-0.645481 0.37943,1.467931 -0.0739,4.512673 -1.00748,6.766115 z m -15.31043957,-10e-4 c -0.4787,0.77447 2.79352997,3.840662 7.27139997,6.813824 7.6186796,5.058544 8.0798496,5.694484 7.1800196,9.900637 -0.5289,2.472162 -1.1854,4.740613 -1.4589,5.040953 -0.27354,0.30057 -3.7644396,-1.801041 -7.7575996,-4.669903 -3.99321,-2.868812 -7.46839,-4.751253 -7.72264,-4.183203 -0.25424,0.568041 -3.2049999,3.179192 -6.5572499,5.802584 -6.0139795,4.706303 -6.1012795,4.725553 -6.5663095,1.448301 -0.32649,-2.300151 -1.51073,-3.373772 -3.85175,-3.491682 -1.85922,-0.0937 -4.15744,-0.996451 -5.10713,-2.006361 -1.34727,-1.432591 -1.24568,-1.677562 0.46216,-1.114541 1.20382,0.39709 3.45075,-0.34193 4.99314,-1.641601 2.25973,-1.904172 2.56294,-1.938032 1.56125,-0.17427 -0.68376,1.20382 0.82675,0.005 3.35672,-2.664642 2.72497,-2.875152 5.3030795,-4.418863 6.3249595,-3.787343 1.05679,0.653151 1.33828,0.440101 0.72666,-0.5493 -0.5681,-0.919301 0.74955,-2.563272 3.05775,-3.815023 4.87853992,-2.645661 5.2063599,-2.718521 4.08762993,-0.90843 z M 24.985996,37.048573 c -0.91252,4.738123 -4.13246,8.705035 -6.89698,8.496785 -3.71443,-0.27961 -2.46737,-2.838312 2.58142,-5.296083 2.34079,-1.139461 3.43735,-2.344662 2.43676,-2.678212 -1.0006,-0.33366 -1.44803,-1.206911 -0.99442,-1.940961 1.46854,-2.376092 3.41855,-1.413331 2.87322,1.418471 z m 5.07526,0.71624 c 0,0.30277 -1.14911,1.452101 -2.55357,2.553562 -2.31432,1.815051 -2.36594,1.763431 -0.55095,-0.550951 1.90627,-2.430641 3.10452,-3.203622 3.10452,-2.002671 z M -37.502683,48.52259 c 0.0166,5.198254 -0.24101,6.019054 -1.02717,3.283152 -0.94931,-3.304382 -1.157,-3.390142 -2.20508,-0.91064 -0.9814,2.321771 5.11745,23.243765 10.08418,34.593533 0.65242,1.490771 0.28402,2.310351 -1.03782,2.310351 -1.12694,0 -1.97697,-0.71138 -1.88906,-1.580771 0.16269,-1.607131 -8.36448,-24.577126 -10.60794,-28.575749 -1.29416,-2.306551 0.63952,-8.077365 3.82418,-11.412907 1.01255,-1.060491 1.84102,-2.537912 1.84102,-3.283162 0,-0.745191 0.22446,-1.354931 0.49856,-1.354931 0.2741,0 0.50793,3.118972 0.51896,6.931124 z m 12.11497,-3.972472 c 0,0.73002 -0.98118,0.95079 -2.18042,0.49084 -1.19919,-0.45996 -1.81047,-1.435231 -1.35835,-2.166801 0.94566,-1.530091 3.53877,-0.301671 3.53877,1.676181 z m 49.151079,5.125893 c -2.26,1.988111 -5.03775,6.399634 -6.17275,9.803347 l -2.06361,6.188644 0.76449,-5.836724 c 0.70174,-5.357524 7.24295,-13.956779 10.50966,-13.816149 0.58923,0.0276 -0.77778,1.672761 -3.03779,3.660882 z m -8.39017,19.333323 c 4.29973,5.447303 5.82558,8.560546 5.18495,10.579047 -0.49911,1.573161 -0.28347,2.860262 0.47981,2.860262 0.763,0 1.71771,1.149111 2.12152,2.553561 0.4037,1.404461 1.24838,3.866873 1.87682,5.471964 1.10681,2.827062 1.04918,2.836542 -1.84224,0.30222 -3.94054,-3.453622 -12.87847,-4.874293 -15.7375196,-2.501451 -1.82553,1.515031 -2.22978,1.360561 -2.36914,-0.905511 -0.0927,-1.502741 -0.0579,-3.839893 0.0761,-5.193723 0.30829,-3.110152 -4.94708997,-6.013864 -8.7183199,-4.816944 -2.22476,0.706091 -2.86323,2.228292 -2.86323,6.825845 0,5.108963 -0.30057,5.667574 -2.20116,4.090333 -3.0814095,-2.557372 -12.0315895,-0.835861 -16.2478795,3.125152 -4.1612,3.909212 -4.61762,1.522031 -1.24998,-6.537795 1.20382,-2.881222 2.15919,-6.408684 2.12295,-7.838955 -0.0441,-1.656771 -0.73565,-1.02988 -1.91167,1.727581 -1.46479,3.434483 -2.03676,3.830463 -2.77058,1.918242 -0.50849,-1.325371 -0.2184,-2.645292 0.64536,-2.933122 1.02028,-0.340271 0.72297,-2.161552 -0.84903,-5.201384 -1.33051,-2.572981 -1.99352,-4.678073 -1.47334,-4.678073 0.52006,0 0.1285,-0.984981 -0.87083,-2.188801 -0.9991,-1.203821 -1.57195,-2.233092 -1.27303,-2.287252 0.29891,-0.0552 2.79419,-0.38991 5.54508,-0.74569 6.21037,-0.803651 7.76472,-2.074202 2.53747,-2.074202 -3.8887,0 -5.18595,-1.945871 -2.43196,-3.647972 0.80254,-0.4958 1.45916,-0.19137 1.45916,0.67713 0,0.916111 1.53141,0.575551 3.64797,-0.81131 l 3.64797,-2.390212 v 5.274954 c 0,4.769403 1.94455,7.218184 3.1616,3.981302 0.26748,-0.71149 3.44121,-3.555372 7.0526695,-6.319674 l 6.5663599,-5.026013 5.29581,4.495693 c 2.9127,2.472611 8.0375396,7.969165 11.3885796,12.214578 z M -4.7767335,63.10616 c -2.23612,0.822341 -7.9963495,6.248304 -7.2351595,6.815254 5.5464595,4.130863 7.7697895,4.950234 10.0789894,3.714373 1.77021003,-0.947371 2.75806002,-0.829081 3.1606,0.37833 0.41253,1.238121 1.91774,0.911691 5.09936,-1.106041 4.3352596,-2.749351 4.4165496,-2.982692 2.05341,-5.896893 -2.52809,-3.117643 -9.5951,-5.215174 -13.1571999,-3.905133 z m 6.7486899,4.297313 c -1.40445998,0.3673 -3.70268,0.3673 -5.1071399,0 -1.40446,-0.36731 -0.25535,-0.667321 2.55356993,-0.667321 2.80896997,0 3.95807997,0.300011 2.55356997,0.667321 z M -26.117293,66.397582 c -0.4958,0.802551 -0.20626,1.459221 0.64344,1.459221 0.84992,0 1.54531,-0.65667 1.54531,-1.459221 0,-0.80255 -0.28954,-1.459171 -0.6435,-1.459171 -0.35406,0 -1.04929,0.656621 -1.54525,1.459171 z m 4.60367,2.668502 c -2.66007,2.939342 -3.24626,5.313453 -0.96359,3.902713 1.52215,-0.940751 4.89238,-6.571215 3.93332,-6.571215 -0.30498,0 -1.64149,1.200841 -2.96973,2.668502 z m 60.325019,-14.6161 c -0.011,1.858341 -8.83684,22.696945 -10.42583,24.611597 -1.74528,2.102941 -4.17338,1.25732 -4.13869,-1.441411 0.0165,-1.213911 0.3866,-1.163391 1.23084,0.16766 0.83365,1.314451 2.18009,-0.432931 4.34143,-5.633494 1.72317,-4.146363 2.80682,-8.066725 2.40808,-8.711876 -0.39873,-0.64515 0.0998,-1.505541 1.10814,-1.912001 1.07421,-0.43293 0.74028,-0.786721 -0.80663,-0.854231 -1.7444,-0.0761 -2.24688,-0.73382 -1.48156,-1.939191 0.63699,-1.003181 1.25031,-2.316421 1.36293,-2.918392 0.34469,-1.843341 0.47815,-1.925621 3.48792,-2.152351 1.6051,-0.12077 2.91607,0.23164 2.91337,0.78385 z m -71.047999,15.23081 c 1.26184,3.812093 1.97223,6.931125 1.57868,6.931125 -0.7892,0 -3.992,-7.427595 -5.66289,-13.132669 -1.92221,-6.563224 1.65909,-1.125401 4.08421,6.201544 z m 61.195849,0.364541 c -0.3833,2.006371 -1.27745,3.647972 -1.98646,3.647972 -0.70896,0 -1.28908,-1.641601 -1.28908,-3.647972 0,-2.104702 0.84038,-3.647973 1.98645,-3.647973 1.33199,0 1.75671,1.201781 1.28909,3.647973 z m -4.87678,4.276462 c -0.38384,0.383851 -1.56731,-0.7496 -2.62978,-2.518821 -1.84577,-3.073532 -1.81467,-3.104582 0.69792,-0.697981 1.44643,1.385371 2.31571,2.832902 1.93186,3.216802 z M 1.5982564,84.722264 c 1.99947,14.48959 2.25498,15.19518 5.82662,16.091586 1.92563,0.48313 4.0309396,0.55753 4.6784596,0.16491 0.64752,-0.39268 2.03135,0.21012 3.07512,1.33927 3.66441,3.96415 -2.25322,3.93597 -9.3753196,-0.0441 l -6.81443,-3.808687 -4.9757099,2.935767 c -5.2752295,3.11246 -9.9464095,3.78844 -11.2789995,1.63218 -0.44286,-0.71696 0.72473,-1.6876 2.59515,-2.15711 6.8644395,-1.722836 10.7301495,-6.265399 11.7270395,-13.780294 1.4335199,-10.806587 3.24752993,-11.754288 4.5420699,-2.373002 z m 51.8099896,1.287981 c 0,0.35407 -0.65668,1.049341 -1.45922,1.545311 -0.80255,0.4958 -1.45917,0.20626 -1.45917,-0.64344 0,-0.849921 0.65662,-1.545311 1.45917,-1.545311 0.80254,0 1.45922,0.28954 1.45922,0.64344 z m -66.307009,5.969304 c -1.55783,1.178291 -4.51267,2.121472 -6.56631,2.095931 -3.598,-0.0441 -3.63081,-0.12409 -0.90143,-2.188751 1.55789,-1.178341 4.51273,-2.121521 6.56636,-2.095981 3.598,0.0441 3.63076,0.12408 0.90138,2.188801 z m 29.462599,-1.315501 c 1.80573,0.483671 3.28315,1.788251 3.28315,2.898422 0,2.721952 -1.38411,2.532282 -6.56636,-0.89977 -4.3455096,-2.877912 -3.01655,-3.686913 3.28321,-1.998652 z m -25.9336995,4.075333 c -3.3410595,3.268152 -6.9905195,4.331063 -13.4642795,3.921573 -5.21843,-0.330351 -2.33264,-2.610102 3.59767,-2.842502 3.38314,-0.13236 7.13534,-1.225161 8.33817,-2.427932 1.2028295,-1.202831 2.8521495,-2.186991 3.6651195,-2.186991 0.81297,0 -0.14835,1.591141 -2.13668,3.535852 z m 27.3929695,1.741811 c 3.41088,-0.0937 6.2016,0.32704 6.20154,0.935681 -5e-5,0.60836 -2.94933,0.99458 -6.55395,0.85825 -4.64459,-0.17538 -7.3014,-1.1356 -9.1199196,-3.294952 -2.50669,-2.976572 -2.49853,-2.992462 0.35241,-0.68778 1.7690496,1.430151 5.3606596,2.292151 9.1200296,2.188801 z M 1.2985164,105.45432 c 4.40353,4.8658 20.7900496,12.15557 29.2984096,13.03367 6.92958,0.71525 7.96155,1.18138 6.50388,2.93775 -3.7109,4.47136 -10.22117,5.88856 -17.25382,3.7559 l -6.56636,-1.99121 -5.6237796,6.62394 c -3.09305,3.64313 -6.28151,6.62394 -7.08542998,6.62394 -0.80392999,0 0.60653998,-1.93202 3.13434998,-4.29334 4.09794,-3.82804 4.54951,-5.05348 4.16705,-11.30868 -0.29506,-4.82703 -1.33922,-7.79677 -3.3473,-9.52044 -3.84181998,-3.29765 -5.98121,-3.21746 -11.0833799,0.41584 -3.5469395,2.52566 -4.2380195,4.03545 -4.2380195,9.25858 0,4.38765 0.8665695,7.02504 2.9183795,8.8819 1.6051,1.45261 2.89368,3.36009 2.86357,4.23891 -0.0276,0.87882 -2.25013,-0.967 -4.93336,-4.10187 l -4.8785295,-5.69967 -7.74321,1.53103 c -8.33255,1.64756 -13.02319,0.5311 -17.77532,-4.23124 -3.44259,-3.44992 -3.26484,-3.73919 1.83733,-2.99036 2.41503,0.35462 5.25323,-0.0711 6.30715,-0.94588 1.05392,-0.87468 5.48023,-2.52683 9.83616,-3.67142 4.35594,-1.14459 7.76356,-2.77891 7.57258,-3.63186 -0.19744,-0.88059 0.69456,-1.15099 2.06333,-0.62574 1.71049,0.65634 2.07613,0.38385 1.25897,-0.93844 -0.86293,-1.39629 -0.32814,-1.60217 2.1321095,-0.82124 2.13834,0.67868 2.9549,0.51014 2.34086,-0.48367 -0.51897,-0.83916 0.22005,-2.20281 1.64121,-3.03028 3.5135199,-2.04553 3.9729699,-1.97753 6.6531699,0.98404 z m 0.85769,6.68984 c 0.89978,1.08414 1.99082,4.85979 2.42458,8.39029 0.61503,5.00649 0.15497,7.2178 -2.08937,10.04827 l -2.87790997,3.62918 -3.74552993,-3.51871 c -5.07487,-4.76763 -5.32845,-14.68249 -0.46216,-18.07695 4.10802993,-2.86561 4.72813993,-2.90901 6.7505599,-0.47208 z M -13.450933,129.457 c 0.48698,3.37542 8.7784895,9.89965 12.58148944,9.89965 1.20938999,0 4.71214996,-2.64192 7.78384996,-5.87103 4.5972196,-4.83272 6.2459896,-5.70514 9.3223296,-4.93303 5.51944,1.38532 3.78904,3.68471 -6.7274496,8.93976 -9.21808997,4.60626 -9.55069997,4.65964 -16.3263599,2.62046 -3.8040995,-1.14486 -9.2997695,-3.89934 -12.2126895,-6.12113 l -5.29614,-4.0396 4.21144,-1.79823 c 5.76067,-2.45976 6.13128,-2.38729 6.66353,1.30315 z m 48.619329,-0.31491 c -0.49581,0.80254 -2.34047,1.44913 -4.09883,1.43683 -2.59917,-0.0165 -2.78773,-0.28678 -1.00831,-1.43683 2.87476,-1.85785 6.25536,-1.85785 5.10714,0 z m -10.96813,5.13301 c -5.25764,5.59648 -17.7460896,10.94749 -25.05630956,10.73599 L -7.1479135,144.8291 0.14796643,143.71826 C 7.5246464,142.59512 21.357056,136.24523 24.391366,132.58904 c 0.90733,-1.09324 2.01205,-1.98773 2.45496,-1.98773 0.44286,0 -0.74784,1.65325 -2.64606,3.67384 z"
       id="path966"
       sodipodi:nodetypes="ccsssssssssssscsscccsccccsccsssssccccssssssccscccccccsssscsssssssssscsssscssscssssccsscsccscsssccccscccssssssscsssssssssssssssssssssssscccscsssscsssssscsssssssssscssssscssssscsssssssscsssssssscsssssssssssssscsccssscsscscsssscscscsscsscsssssssssssssssssssssscscssccssscsssscssscsccssscsscsssssccssssssscsscsscssssssccccssscccsssssssssscssssssssssssssscsssscssscsssssssssssssscssssssscsscsscssscsssscccsssssscsccsssccssssscsssscssssscssccssssssssssssccsssscssscsscscsssscscssssssscssssssssscssssscssssssssssscccscsssssssssssscsscccssssssssssssssssssssscscssscssssssscssssscsscsssssssssssssssssscsssccssssscsscscccsssssssscccssssssscsssssccssssscsssssssssssssssccsssssssssscssssssssscscscsssscssssssssssscsssssssssssssssssssscsssssssssscssccsscscscssssssccssssscsscsssccsssscssscsccscscssssssssssssssssscscssssssssccsssscssscsssscsssccsccsccsssssscscscssccccsscsscsssscssscsssssssscscssssscssscscccsccssccssssssscssscsssscsssss" /></g></svg>
