<?xml version="1.0" encoding="UTF-8" standalone="no"?>
<!-- Created with Inkscape (http://www.inkscape.org/) -->

<svg
   width="210mm"
   height="297mm"
   viewBox="0 0 210 297"
   version="1.1"
   id="svg1149"
   xml:space="preserve"
   inkscape:version="1.2.2 (732a01da63, 2022-12-09)"
   sodipodi:docname="Heimdall.svg"
   xmlns:inkscape="http://www.inkscape.org/namespaces/inkscape"
   xmlns:sodipodi="http://sodipodi.sourceforge.net/DTD/sodipodi-0.dtd"
   xmlns="http://www.w3.org/2000/svg"
   xmlns:svg="http://www.w3.org/2000/svg"><sodipodi:namedview
     id="namedview1151"
     pagecolor="#ffffff"
     bordercolor="#000000"
     borderopacity="0.25"
     inkscape:showpageshadow="2"
     inkscape:pageopacity="0.0"
     inkscape:pagecheckerboard="0"
     inkscape:deskcolor="#d1d1d1"
     inkscape:document-units="mm"
     showgrid="false"
     inkscape:zoom="1.6819304"
     inkscape:cx="87.399573"
     inkscape:cy="513.10089"
     inkscape:window-width="2560"
     inkscape:window-height="1494"
     inkscape:window-x="-11"
     inkscape:window-y="-11"
     inkscape:window-maximized="1"
     inkscape:current-layer="layer1" /><defs
     id="defs1146" /><g
     inkscape:label="레이어 1"
     inkscape:groupmode="layer"
     id="layer1"><path
       style="fill:#000000;stroke-width:1.49912"
       d="M -71.583131,-148.25437 -75,-143.23573 l 0.418716,93.538565 0.418716,93.538554 4.119167,6.885417 c 2.265541,3.786914 5.469936,8.107798 7.120832,9.60186 1.650953,1.494062 3.001666,3.878534 3.001666,5.298825 0,4.693425 4.128233,6.744957 9.489722,4.716025 4.074066,-1.541771 5.019321,-1.434401 6.625853,0.752791 2.914749,3.967994 2.223387,6.475366 -1.785407,6.475366 -4.567856,0 -5.254062,1.118802 -6.347143,10.348301 -0.789498,6.666027 -0.477642,7.793508 3.064615,11.076261 4.783843,4.433525 4.846225,5.746785 0.681957,14.349055 -2.161005,4.46405 -3.486334,10.61856 -3.92743,18.23818 -0.643429,11.11507 -0.512771,11.67113 3.893377,16.59719 l 4.559131,5.09684 4.240418,-3.14813 c 3.305928,-2.45428 4.344332,-4.56605 4.711828,-9.5822 0.315595,-4.31012 1.503751,-7.27008 3.598803,-8.96653 2.84098,-2.3005 3.6902,-2.32849 9.27294,-0.3054 8.39007,3.04059 35.46954,3.00813 43.92539,-0.051 6.02435,-2.18061 6.43044,-2.13914 9.33572,0.95335 2.02956,2.16033 2.96875,5.05831 2.83056,8.7339 -0.15582,4.13865 0.68802,6.24572 3.406889,8.50946 1.98751,1.6548 4.33068,3.03118 5.20709,3.0586 2.79163,0.0873 9.24518,-8.03119 10.08953,-12.69265 1.035,-5.71409 -2.74744,-22.46609 -6.53526,-28.94383 -3.71535,-6.35396 -3.65824,-7.19926 0.84877,-12.555486 2.98942,-3.552803 3.74781,-6.099206 3.74781,-12.584212 0,-8.456939 -0.51163,-9.002059 -7.87038,-8.385379 -3.18802,0.26744 -3.32485,-1.223961 -0.46631,-5.080005 1.83572,-2.476152 2.61496,-2.630603 5.22658,-1.036081 5.53357,3.378513 8.96511,2.284412 11.75413,-3.747824 1.42953,-3.091923 3.12128,-5.851946 3.75938,-6.133366 0.6381,-0.2816 3.50514,-3.582774 6.37128,-7.336437 L 75,47.159543 v -94.999866 -94.999867 l -3.37302,-5.20738 -3.37301,-5.20733 -68.210119,-0.0113 -68.210113,-0.0113 -3.416926,5.01871 z m 56.104752,-1.92882 -49.252544,1.12543 -4.553634,4.25341 c -4.409775,4.119 -4.342973,3.4354 0.35469,-3.62952 l 2.234549,-3.36055 50.234799,0.24307 50.2348,0.24307 z m 58.590869,-0.70553 c -0.49804,0.49804 -1.79119,0.5513 -2.87333,0.11842 -1.19592,-0.47877 -0.84066,-0.8338 0.90571,-0.9057 1.58035,-0.0652 2.46572,0.28896 1.96762,0.78734 z m 8.30491,0.0776 c -1.01495,0.41078 -3.03878,0.43571 -4.49737,0.0567 -1.45859,-0.38019 -0.62819,-0.71613 1.84541,-0.74667 2.47354,-0.0283 3.66691,0.28047 2.65196,0.69108 z m 18.25947,4.03028 3.82408,5.01365 v 93.713066 93.713015 l -5.3156,6.961627 c -2.92358,3.828904 -5.85697,6.961627 -6.51865,6.961627 -0.66167,0 -2.26305,2.698423 -3.55857,5.996536 -1.29547,3.298054 -3.04994,5.996476 -3.89871,5.996476 -2.89118,0 2.97935,-11.156091 9.30388,-17.680697 l 6.23983,-6.437357 v -95.205996 -95.206057 l -3.74782,-3.54271 c -2.06128,-1.94854 -5.43429,-3.84551 -7.49558,-4.21561 -2.76908,-0.49691 -2.29965,-0.72621 1.79759,-0.87704 4.64469,-0.17111 6.16657,0.61023 9.36955,4.80952 z m -26.90796,1.13353 c 5.77165,8.5e-4 10.4939,-0.0725 10.4939,-0.16318 0,-0.0907 2.50436,-0.35639 5.56529,-0.5913 3.06094,-0.23457 5.19537,0.17224 4.74311,0.90372 -0.45215,0.73171 -0.051,2.25829 0.88905,3.39239 1.92054,2.3141 1.82648,20.60906 -0.13315,25.91526 -1.06345,2.87951 -2.29314,3.35573 -8.40367,3.25471 -3.93689,-0.0652 -6.43927,-0.41702 -5.56088,-0.78225 0.96855,-0.40228 1.34947,-3.89887 0.96798,-8.88421 -0.52524,-6.85964 -0.12862,-8.65337 2.39524,-10.83602 4.13191,-3.57348 5.7619,-9.36168 2.63632,-9.36168 -1.50692,0 -2.34968,1.3442 -2.34968,3.74782 0,2.06129 -0.70015,3.74783 -1.55588,3.74783 -0.85573,0 -1.3617,-1.51786 -1.12436,-3.37308 0.65176,-5.09423 -2.44674,-5.36059 -3.37063,-0.28954 l -0.80389,4.41239 -1.78943,-5.00941 c -1.5429,-4.31929 -2.08168,-4.7171 -3.91089,-2.88789 -1.95708,1.95708 -1.95142,6.97959 0.017,13.10219 0.62388,1.94287 0.87551,1.94287 2.10418,0 1.00242,-1.58506 1.46533,-0.41192 1.6433,4.16461 0.13655,3.50424 0.31503,7.15025 0.39775,8.10231 0.0822,0.95205 -0.86196,1.91992 -2.09879,2.15075 -1.23677,0.23117 -4.44111,1.09138 -7.120829,1.91221 -5.94599,1.82127 -6.23479,0.0884 -0.82174,-4.93099 2.227749,-2.06566 3.521799,-4.2844 2.875659,-4.93049 -0.6461,-0.64609 -2.037149,0.005 -3.091309,1.44641 -1.05409,1.4416 -2.17953,2.62137 -2.5009,2.62165 -0.32126,2.8e-4 -0.43458,-5.39656 -0.25101,-11.99302 0.2748,-9.89337 -0.0668,-11.99352 -1.95221,-11.99352 -1.91833,0 -2.21279,2.2678 -1.83249,14.11056 0.2493,7.76081 0.11559,14.412 -0.29633,14.78041 -0.41248,0.36829 -2.43609,1.07172 -4.49737,1.56307 -3.61053,0.86061 -3.75655,0.60824 -3.98709,-6.88995 -0.20568,-6.69572 0.0283,-7.41331 1.69656,-5.13576 1.6518,2.25897 2.06281,2.31687 2.80052,0.39435 0.47538,-1.2392 -0.10822,-2.79758 -1.29728,-3.46299 -1.33626,-0.74779 -2.26407,-3.91174 -2.42946,-8.2848 -0.19264,-5.09922 -0.88208,-7.07501 -2.46815,-7.07501 -1.72246,0 -2.03483,1.47083 -1.43752,6.76978 0.41985,3.72334 0.15355,7.1465 -0.59176,7.60704 -0.74513,0.46065 -1.16945,0.0283 -0.94287,-0.96068 0.22664,-0.98882 -0.43118,-2.10712 -1.46199,-2.48504 -2.99294,-1.09738 -2.16322,3.79984 0.92372,5.45187 2.16939,1.16108 2.65848,2.75962 2.17806,7.11931 -0.34053,3.09216 -0.75641,5.71964 -0.92372,5.83897 -0.16715,0.11955 -2.8339,0.60728 -5.92588,1.08435 -6.45729,0.99648 -7.29778,-0.85227 -2.2486601,-4.94589 1.85516,-1.5041 2.8303801,-3.27925 2.1671801,-3.94472 -0.6632001,-0.66547 -1.8334501,-0.21757 -2.6005101,0.99529 -1.37661,2.17671 -2.24044,-5.60167 -1.96106,-17.65809 0.0737,-3.17081 -0.60116,-4.87219 -1.9319799,-4.87219 -1.5446,0 -2.04491,2.73939 -2.04491,11.19638 0,9.33647 -0.37339,11.05304 -2.24865999,10.33351 -2.94478001,-1.13002 -2.90239001,2.2473 0.0697,5.53114 2.11714999,2.33943 2.01963999,2.63043 -1.12435001,3.35573 -1.8934,0.43685 -9.05968,0.81778 -15.92503,0.84662 -10.36534,0.0453 -12.195227,-0.2935 -10.78853,-1.98871 2.20474,-2.65655 1.65078,-29.27518 -0.60927,-29.27348 -1.011091,8e-4 -1.697581,5.31589 -1.855605,14.36759 -0.137683,7.90149 -0.6351,14.75065 -1.104753,15.2203 -0.469709,0.46971 -8.548261,0.94718 -17.952484,1.06107 l -17.098508,0.2068 -0.910523,-6.64307 c -1.474005,-10.75399 -0.960724,-21.77394 1.143224,-24.54375 2.2571,-2.97147 20.88242,-3.75411 70.6537389,-2.96886 15.6658101,0.24704 33.2055901,0.44988 38.9771791,0.45101 z m -99.843622,3.84697 c -0.08329,0.68712 -0.02266,3.53689 0.133151,6.33288 0.226639,4.04851 -0.190377,4.90124 -2.048762,4.18806 -2.57496,-0.98809 -4.799197,1.25695 -2.594961,2.61922 0.760544,0.47028 1.030188,2.20322 0.59912,3.8514 -0.846157,3.23584 1.823992,4.21226 3.070564,1.12288 0.415883,-1.03064 0.809386,0.99314 0.874488,4.49737 0.06516,3.5042 0.82032,6.37129 1.678206,6.37129 0.873921,0 1.407486,-2.58272 1.213313,-5.8733 -0.349591,-5.92633 2.046382,-10.6171 5.423248,-10.6171 3.374771,0 7.037317,5.59885 6.533554,9.98778 -0.268567,2.33966 0.186411,4.25391 1.010868,4.25391 0.824513,0 1.270312,-2.25699 0.990696,-5.01559 -0.455545,-4.49641 -0.184144,-4.91269 2.623462,-4.02154 3.639427,1.15506 4.132537,-0.38132 0.895564,-2.79061 -1.358985,-1.01144 -2.337159,-4.47494 -2.49337,-8.82857 -0.316162,-8.8161 -3.515514,-8.76375 -3.515514,0.0578 0,3.35868 -0.562065,6.66897 -1.249235,7.35621 -0.687113,0.68723 -1.024409,0.2459 -0.749609,-0.98034 0.372822,-1.66308 -0.7657,-2.16412 -4.4789,-1.97125 -4.844015,0.25157 -4.966004,0.11219 -4.513009,-5.14601 0.286699,-3.32877 -0.24817,-5.64259 -1.392641,-6.02408 -1.022029,-0.34052 -1.926603,-0.0572 -2.010176,0.62983 z m 40.628243,7.99533 c 0,4.94714 -0.56603,8.99476 -1.25847,8.99476 -1.3072,0 -4.73801,6.56427 -4.73801,9.06529 0,2.89084 2.80523,1.32289 3.26876,-1.827 0.78542,-5.33781 4.22682,-5.15797 4.22682,0.22098 0,2.65241 0.63363,4.31923 1.45004,3.81462 0.79749,-0.49294 1.05047,-2.89384 0.56207,-5.33538 -1.18017,-5.90089 1.93459,-5.86146 3.2309701,0.0397 1.14651,5.22019 3.07753,6.93438 4.28036,3.79979 0.46348,-1.20822 -0.14052,-3.17992 -1.34204,-4.38169 -1.20176,-1.20175 -2.18498,-2.6187 -2.18498,-3.14869 0,-0.53034 -0.93777,-1.90151 -2.0838901,-3.04762 -1.44646,-1.44647 -1.86694,-4.3942 -1.37479,-9.63722 0.58099,-6.18918 0.28047,-7.55338 -1.66393,-7.55338 -1.90093,0 -2.37302,1.78937 -2.37302,8.99475 z m -35.229414,8.99476 c 0.509371,0.82451 1.224021,1.4991 1.587607,1.4991 0.363756,0 0.661106,-0.67459 0.661106,-1.4991 0,-0.82452 -0.714423,-1.49911 -1.587607,-1.49911 -0.873184,0 -1.170704,0.67459 -0.661106,1.49911 z m -20.619349,25.784075 c -0.272533,7.668518 -0.496906,1.799802 -0.498606,-13.041505 -0.0015,-14.84137 0.22154,-21.1156 0.495773,-13.94274 0.274234,7.17284 0.275367,19.31574 0.0028,26.984245 z m 33.225472,26.807137 c -0.185844,19.63417 -0.874883,36.566967 -1.530947,37.628548 -0.738051,1.194161 0.06459,3.268423 2.104571,5.440026 l 3.297429,3.509963 -6.116027,5.704906 c -12.859789,11.995512 -12.609806,11.2627912 -12.609806,36.964487 0,24.975155 -1.887112,33.601904 -8.050677,36.803517 -1.756057,0.912171 -2.69576,1.126292 -2.08831,0.475951 0.60745,-0.650461 -0.159781,-3.271603 -1.704723,-5.824806 -2.602158,-4.299914 -2.808173,-8.429738 -2.794178,-56.0125666 0.0057,-28.2537184 0.60677,-51.7360524 1.329976,-52.1830424 0.723205,-0.447051 1.314903,-0.051 1.314903,0.883551 0,2.049102 21.189743,25.462995 23.045181,25.464125 0.719353,4.6e-4 0.455545,-1.026501 -0.586826,-2.282202 -1.596956,-1.924162 -1.480577,-2.124062 0.740431,-1.271781 2.33308,0.895281 2.424812,0.61827 0.800432,-2.416883 -1.059481,-1.979752 -2.241574,-2.768293 -2.79786,-1.866322 -0.681051,1.104361 -0.840208,-47.963068 -0.220973,-68.102193 0.0039,-0.12919 1.40182,0.13032 3.106316,0.57601 3.035435,0.79375 3.092152,1.5437 2.760975,36.508822 z m -22.249563,30.350021 c 2.116753,1.866092 6.403689,6.221026 9.526551,9.677669 l 5.677877,6.284767 -7.052954,7.889658 -7.052898,7.889718 0.109354,24.360784 c 0.129184,28.777139 0.034,27.473688 1.721891,23.275244 0.737767,-1.833792 1.434513,-13.122363 1.548285,-25.085635 0.204542,-21.4954422 0.256669,-21.8143825 4.460146,-27.103528 2.339313,-2.943703 5.972395,-6.704327 8.073454,-8.357038 l 3.820116,-3.004903 -9.609727,-9.65716 c -5.285396,-5.311465 -10.838452,-9.63586 -12.34022,-9.60979 -2.323788,0.0397 -2.157265,0.552431 1.118181,3.440214 z m 48.140824,-66.618433 10.01399,0.16771 0.15128,51.642388 c 0.14959,51.1302414 0.11956,51.6591619 -3.0215499,53.3403736 -1.74501,0.933871 -3.39562,1.4746815 -3.66798,1.2017512 -0.27254,-0.2731002 -0.8360801,-4.4345344 -1.2526401,-9.2479598 -0.41645,-4.813424 -1.06311,-9.057469 -1.43678,-9.431149 -0.37395,-0.37338 -2.78794,1.094781 -5.36506,3.263273 -2.86177,2.408043 -4.68559,3.177253 -4.68559,1.976182 0,-1.081521 -2.02276,0.248171 -4.49505,2.954923 -4.730583,5.1793355 -7.753609,5.2933856 -6.432813,0.2425 0.43798,-1.674971 0.04533,-2.996733 -0.890295,-2.996733 -1.125604,0 -1.585455,4.297135 -1.403747,13.1173237 0.151282,7.3319474 0.513905,10.0796102 0.822134,6.2298563 0.454978,-5.6786157 1.591687,-7.902738 6.475871,-12.6720328 3.25811,-3.1815032 5.9239,-5.1053352 5.9239,-4.2752042 0,0.830061 -2.37371,3.8099137 -5.27486,6.6218366 l -5.274799,5.1125851 0.621388,12.0466723 c 0.599687,11.624902 0.552433,11.836752 -1.356039,6.050146 l -1.977427,-5.996486 -0.115019,7.870398 c -0.06346,4.328754 -0.754255,7.870388 -1.53531,7.870388 -1.962355,0 -2.764034,-42.404453 -0.828592,-43.826444 3.50979,-2.578593 6.746084,-1.152752 6.752996,2.975313 l 0.0057,4.122574 4.490402,-4.790875 c 5.37945,-5.739296 5.39401,-5.831826 1.11744,-7.114607 -3.2772,-0.983051 -3.28785,-1.048881 -0.37452,-2.318183 2.86404,-1.247931 2.84727,-1.311101 -0.37452,-1.411791 -3.88227,-0.12125 -4.674601,-3.103603 -0.82452,-3.103603 2.01228,0 2.1618,-0.386981 0.71052,-1.837982 -1.45123,-1.451292 -1.12005,-2.390592 1.57406,-4.464065 l 3.41211,-2.626012 -3.37301,-0.034 c -5.475146,-0.0567 -4.15838,-5.923116 3.01436,-13.435354 l 6.35513,-6.656007 1.24521,15.454656 1.24521,15.454596 -4.91229,5.068275 c -2.70176,2.787443 -4.20993,5.068175 -3.35148,5.068175 0.85845,0 2.78188,-1.349191 4.27424,-2.998273 1.49237,-1.649032 3.45206,-2.997813 4.35493,-2.997303 1.05863,5.6e-4 1.52897,-3.592914 1.32443,-10.11911 -0.17452,-5.565986 -0.35356,-20.913662 -0.39776,-34.105945 -0.0567,-16.059896 -0.56093,-23.242943 -1.53378,-21.737322 -0.7993,1.236771 -1.46358,5.082215 -1.47615,8.545489 -0.017,4.398164 -0.81404,6.757487 -2.64647,7.824788 -2.49853,1.455301 -2.49853,1.530211 0,1.573611 4.30824,0.0748 3.00903,4.178155 -3.70374,11.697312 -4.03026,4.514435 -4.71052,5.699586 -1.87391,3.264573 9.77223,-8.388608 9.95536,-7.479387 0.48558,2.410873 -5.48036,5.723666 -10.416731,11.924462 -10.969674,13.779674 -0.552999,1.855162 -1.634578,3.373023 -2.403508,3.373023 -1.860537,0 -1.788806,-2.579892 0.104254,-3.749864 0.826326,-0.51051 1.187702,-3.754853 0.803152,-7.209227 -0.496339,-4.457714 -0.388686,-5.016095 0.371689,-1.923832 1.01642,4.135714 1.184926,4.216234 3.31947,1.586142 1.292183,-1.592262 1.451567,-2.292013 0.374521,-1.645072 -3.216406,1.932392 -2.05488,-0.946841 2.154376,-5.340355 l 4.02828,-4.204615 h -3.93327 c -3.314136,0 -4.028503,-0.767 -4.537931,-4.872184 -0.458378,-3.693534 -0.662693,-3.128184 -0.844571,2.337162 -0.142216,4.282014 -0.837545,6.839977 -1.711692,6.299676 -2.154488,-1.331511 -0.943783,-49.182509 1.262946,-49.918069 0.939363,-0.31333 1.707953,-1.51684 1.707953,-2.67491 0,-1.49175 1.420348,-1.94123 4.872175,-1.54178 2.67966,0.30993 9.37844,0.63919 14.88617,0.73138 z m -19.458505,3.46565 c -1.18691,1.18691 -1.798949,7.562216 -1.798949,18.739048 0,17.408747 0.592152,18.933519 5.996474,15.441005 1.81838,-1.175131 1.60325,-1.457581 -1.1243,-1.476161 -4.028793,-0.0283 -4.497539,-3.716434 -0.749607,-5.899366 1.646537,-0.959021 1.886827,-1.545062 0.645297,-1.573612 -3.23006,-0.0742 -1.361874,-6.641726 2.35297,-8.271488 3.49897,-1.535092 4.55686,-3.767144 1.78546,-3.767144 -0.87318,0 -1.12407,-0.750011 -0.55753,-1.666712 0.5666,-0.9167 0.21474,-2.170692 -0.78202,-2.786702 -1.13314,-0.700311 -0.0816,-1.466012 2.80619,-2.043602 2.73559,-0.547331 4.61828,-1.855616 4.61828,-3.209786 0,-2.07856 5.28466,-3.19198 11.5051701,-2.42402 0.96849,0.11956 2.18888,-0.47537 2.71197,-1.32153 1.40969,-2.28095 -25.1200661,-2.02927 -27.4094051,0.26007 z m 6.507885,2.5987 c -0.54337,0.87936 -2.12893,1.57741 -3.52316,1.55117 -2.225654,-0.0397 -2.182479,-0.31446 0.35356,-2.23318 3.08082,-2.33082 4.80237,-1.96032 3.16932,0.68201 z m 16.9641101,6.471008 c -2.4240701,3.456873 -2.6476501,4.254754 -0.76978,2.746753 2.67168,-2.145422 6.18227,-7.618931 4.88657,-7.618931 -0.38529,0 -2.23766,2.192505 -4.11679,4.872178 z M 15.733011,-108.40348 c 0.48614,0.787 -2.14781,1.61899 -5.9330201,1.87385 l -6.8077899,0.45838 5.9182299,8.245196 c 5.6791801,7.912088 5.9198201,8.721989 5.9562501,20.04801 0.0453,14.557325 -1.04957,14.276185 -1.978,-0.50711 -0.37962,-6.041076 -1.23218,-11.520022 -1.89515,-12.175462 -1.1495701,-1.136542 -1.6846701,17.877028 -1.8704001,66.466417 -0.0453,12.161702 -0.59045,22.0906621 -1.20884,22.064422 -0.61838,-0.0283 -2.3171,-0.9527309 -3.7749,-2.058962 C 1.714691,-5.8286509 1.459161,-10.105105 1.141131,-54.16217 c -0.19265001,-26.680217 0.2357,-48.16195 0.96021,-48.16172 0.71935,2.8e-4 0.49294,-0.98191 -0.50371,-2.18259 -0.99647001,-1.20062 -1.37655,-2.88716 -0.84462001,-3.74776 1.20572001,-1.95098 13.78912001,-2.07637 14.98011001,-0.14958 z M 4.5412809,-98.009584 c 0,0.723611 1.12232,2.241472 2.49411,3.373073 2.26157,1.865642 2.32656,1.742972 0.6968,-1.315581 -1.85878,-3.488434 -3.19091,-4.347338 -3.19091,-2.057492 z m 37.8631891,5.131065 c 1.67991,31.010101 -0.56796,61.330832 -4.27226,57.626518 -0.47651,-0.47651 -1.076709,-66.160009 -0.670679,-73.395629 0.034,-0.5925 0.972619,-0.72724 2.087509,-0.29918 1.43967,0.55245 2.26719,5.2092 2.85543,16.068511 z m 15.7508,-15.550801 c 1.43173,0.76434 3.78368,1.75509 5.22658,2.20163 1.85,0.5726 2.62346,2.3728 2.62346,6.10594 0,2.911697 -0.69833,5.294019 -1.55185,5.294019 -0.97302,0 -1.0677,0.978511 -0.25384,2.623463 1.16464,2.353932 1.03654,10.978751 -0.31729,21.362521 -0.26857,2.061282 -0.57561,4.630865 -0.68196,5.710176 -0.10652,1.079311 -0.86792,1.545452 -1.69243,1.035861 -0.83023,-0.51334 -1.52035,0.617931 -1.54675,2.535013 -0.051,3.627873 -3.13595,8.708449 -5.28959,8.708449 -0.69238,0 -0.44931,-0.809551 0.53997,-1.798952 2.63893,-2.638933 2.19664,-4.894725 -0.51787,-2.641823 -1.27434,1.057621 -1.9559,2.863703 -1.51463,4.013564 0.44138,1.149851 -0.87727,3.901994 -2.93005,6.115746 l -3.7323,4.025114 -0.0453,-5.606375 c -0.0227,-3.083543 -0.0453,-15.050896 -0.0453,-26.594147 0,-38.515899 -0.5394,-34.479909 4.60854,-34.479909 2.48475,0 5.68909,0.62536 7.12083,1.38971 z m -114.205913,1.60857 h 8.122578 v 29.982517 c 0,16.490337 -0.505972,29.955041 -1.124357,29.921561 -0.618385,-0.034 -3.426444,-2.029392 -6.240169,-4.435225 -2.813725,-2.405892 -5.634193,-4.053954 -6.267706,-3.662434 -0.633513,0.391521 -1.639961,-0.0782 -2.236589,-1.043331 -0.677481,-1.096201 -0.435147,-1.353611 0.645978,-0.68553 0.951885,0.5883 1.73073,0.39492 1.73073,-0.429481 0,-0.824511 -0.684847,-1.922352 -1.521825,-2.439662 -3.985903,-2.463453 -5.654591,-11.357692 -5.600197,-29.84943 0.04533,-15.909005 0.40795,-18.878945 2.212451,-18.186505 1.186116,0.45498 5.811709,0.82752 10.279106,0.82752 z m 84.220584,-0.46914 c -1.43332,0.37508 -4.13174,0.38868 -5.99647,0.0283 -1.86479,-0.35866 -0.6921,-0.66559 2.60595,-0.68224 3.29811,-0.017 4.82379,0.27706 3.39052,0.65198 z m 6.35378,10.810807 c 0,7.831238 -0.36773,8.833159 -3.81831,10.405411 -2.10009,0.956871 -6.31637,1.669032 -9.36954,1.582562 l -5.55119,-0.156941 5.99653,-1.976242 5.99648,-1.976292 -5.71018,-0.11502 c -6.07109,-0.12239 -6.30827,-2.282202 -0.50767,-4.622654 2.5685,-1.036311 2.68908,-1.318252 0.59618,-1.394062 -3.77037,-0.13655 -3.23539,-3.205863 0.74955,-4.300424 3.12535,-0.858451 3.04274,-0.996365 -1.1243,-1.878445 -4.06557,-0.86055 -3.74442,-1.06418 3.34446,-2.12078 4.7567,-0.70898 7.46708,-1.77526 6.8892,-2.7102 -0.54846,-0.88747 -0.21814,-1.08759 0.77811,-0.47198 0.98526,0.60887 1.73073,4.80209 1.73073,9.735237 z m 0,18.89119 c 0,6.179606 -0.54111,8.245198 -2.16022,8.245198 -2.85208,0 -4.06755,2.150292 -2.91424,5.155705 0.84038,2.190072 1.13303,2.166552 2.98586,-0.23967 1.80541,-2.344473 2.02831,-1.624552 1.84037,5.944236 -0.17848,7.178007 -0.5615,8.323158 -2.30243,6.878397 -1.69311,-1.405172 -1.7203,-1.967062 -0.14391,-2.967113 1.06968,-0.678551 1.27025,-1.233711 0.44591,-1.233711 -2.8424,0 -5.65595,2.522612 -3.97333,3.562493 0.87653,0.541671 1.21366,1.975272 0.74922,3.185643 -0.46461,1.210362 -0.0578,2.200663 0.90349,2.200663 0.96141,0 1.32086,-0.843261 0.79879,-1.873912 -0.52183,-1.030641 0.11276,-0.564331 1.41066,1.036141 2.83237,3.492633 3.0611,12.854653 0.49408,20.21998 -2.30351,6.608857 -3.89752,7.832258 -7.61349,5.843556 -1.64756,-0.881741 -3.29721,-0.976591 -3.82862,-0.21984 -1.1243,1.600692 -4.00568,1.654922 -5.556,0.10482 -0.61839,-0.618391 0.29746,-1.124361 2.03527,-1.124361 3.50798,0 6.35451,-3.241563 3.64085,-4.146144 -1.20391,-0.401151 -1.00838,-1.669992 0.64654,-4.195775 2.16367,-3.302133 2.16361,-3.700623 -2.8e-4,-4.530974 -2.1418,-0.821901 -2.14678,-1.136201 -0.051,-3.231363 1.61157,-1.611582 1.81113,-2.635993 0.65294,-3.351834 -2.46062,-1.520741 0.82996,-9.564969 3.31755,-8.110168 1.03223,0.603591 0.5275,-0.48388 -1.12153,-2.416202 -1.64902,-1.932502 -2.04031,-2.949713 -0.86955,-2.260453 1.60313,0.943731 1.88495,0.618051 1.14152,-1.319321 -0.6653,-1.733622 -0.42098,-2.222422 0.74955,-1.499112 1.23031,0.760381 1.36715,0.236841 0.46915,-1.796051 -3.05822,-6.923897 -1.28119,-24.544715 2.25489,-22.359283 0.83732,0.517301 1.92711,-0.11389 2.42175,-1.402841 1.86751,-4.866575 3.57682,-2.046272 3.57682,5.901466 z m -6.73544,42.707923 c -0.52523,0.849781 0.0765,1.101071 1.41066,0.58915 2.59712,-0.996591 3.07227,-2.071142 0.91591,-2.071142 -0.77585,0 -1.8228,0.666881 -2.32657,1.481992 z m -8.55563,-28.166399 c 0.98945,0.989451 1.79895,2.758533 1.79895,3.931394 0,1.718492 -0.43344,1.772832 -2.23217,0.279901 -1.2277,-1.018862 -1.79804,-2.554903 -1.26748,-3.413414 0.56037,-0.906441 0.23911,-1.112401 -0.76609,-0.49124 -1.05218,0.65028 -1.76462,5.589945 -1.81714,12.599452 -0.0453,6.341307 -0.63136,14.228135 -1.29751,17.526188 -0.90367,4.474205 -1.24765,1.464772 -1.35507,-11.854652 -0.0793,-9.81813 0.20737,-18.419379 0.63646,-19.113809 1.12271,-1.816682 4.20993,-1.553892 6.30005,0.53601 z m 47.528049,5.687346 c -0.89794,1.452871 -0.86349,77.280178 0.0397,89.20724 0.65261,8.610489 -0.57368,14.489575 -3.91264,18.758329 -2.63865,3.373354 -3.0607,3.485654 -4.43034,1.179091 -0.83256,-1.402221 -2.55383,-3.589463 -3.82499,-4.860625 -1.27116,-1.271161 -1.89108,-2.991013 -1.37757,-3.821823 0.51334,-0.830861 0.38755,-1.510662 -0.27933,-1.510662 -0.667,0 -1.21281,-10.11905 -1.21281,-22.486883 0,-16.9900769 0.45782,-22.4868724 1.87391,-22.4868724 1.41333,0 1.87391,5.3646154 1.87391,21.8258224 0,13.898094 0.53487,21.495391 1.47174,20.916211 0.86894,-0.537131 1.46007,-11.072011 1.44318,-25.720116 l -0.0283,-24.810495 -6.83266,-6.974377 c -3.75796,-3.835864 -6.32697,-6.026846 -5.70893,-4.868775 0.74287,1.391731 0.53714,1.742911 -0.60694,1.035851 -3.21023,-1.984052 -1.76761,-4.528145 8.34814,-14.721985 5.54337,-5.586206 9.28609,-10.15673 8.3171,-10.15673 -0.96894,0 -6.53917,4.805944 -12.3783,10.67993 l -10.61657,10.679931 8.29596,8.697399 c 4.56275,4.783565 8.2959,9.4220795 8.2959,10.3078404 0,2.4124025 -2.96592,1.939862 -3.95197,-0.6296606 -0.47254,-1.2320712 -1.48018,-1.8565219 -2.23874,-1.3877114 -0.75856,0.4685705 -1.19382,0.2039702 -0.9673,-0.5879006 C 48.92467,-11.095356 37.252181,-24.36894 34.922221,-24.36894 c -2.81752,0 -2.31303,-1.909552 1.4748,-5.582305 1.855149,-1.798782 4.722249,-4.637325 6.371279,-6.307877 1.64902,-1.670511 5.63691,-5.581455 8.86193,-8.690888 3.22502,-3.109494 7.5528,-7.508788 9.61732,-9.7762 3.57568,-3.927154 7.45858,-5.781686 5.51254,-2.632813 z m -98.994853,35.820806 c -2.33427,2.234942 -2.454786,2.185422 -1.606079,-0.66071 0.504839,-1.692262 -0.02266,-4.362415 -1.171498,-5.933646 -1.14889,-1.571292 -1.749144,-3.742324 -1.333828,-4.824645 0.458378,-1.194842 1.909889,0.18698 3.695012,3.517503 2.753156,5.136725 2.779617,5.638786 0.416449,7.901498 z m 47.357164,-2.187072 c -0.74995,0.903671 -1.63775,4.332894 -1.97284,7.620528 -0.56433,5.537025 -0.62785,5.415945 -0.86129,-1.643022 -0.19377,-5.851436 0.2646,-7.620588 1.9729,-7.620588 1.44318,0 1.7458,0.577251 0.86123,1.643082 z M 37.90149,2.0702971 C 37.58363,20.930326 37.161911,24.30289 34.903221,26.061491 c -2.50243,1.948362 -2.50181,2.002252 0.0113,1.126121 1.95447,-0.68111 2.40906,-0.3173 1.74982,1.400802 -0.52864,1.377571 -1.85419,1.951192 -3.26117,1.411281 -1.56902,-0.60212 -2.00406,-0.31673 -1.28657,0.844231 0.707,1.143901 -0.12012,1.761842 -2.37756,1.776852 -2.86852,0.017 -3.07629,0.3003 -1.2128,1.640532 1.90354,1.369301 1.84949,1.489361 -0.35186,0.78241 -3.0683,-0.985371 -4.92351,1.930402 -6.46857,10.166201 -1.22045,6.505506 1.40233,6.495256 3.87763,-0.017 1.41536,-3.722784 5.949,-5.043915 5.93086,-1.728292 -0.0113,2.427582 -9.88549,9.166539 -11.745,8.017368 -1.80201,-1.113771 0.59747,-12.363582 3.62849,-17.012127 1.20969,-1.855152 3.17839,-3.373014 4.37498,-3.373014 1.1966,0 3.19227,-1.965982 4.43482,-4.368814 2.70851,-5.237695 4.16512,-17.7243379 2.20866,-18.9335091 -0.76593,-0.4731105 -1.4029,1.7089117 -1.41553,4.8495651 -0.034,8.334268 -1.48908,9.77581 -9.38048,9.290579 -3.75213,-0.23061 -7.72489,0.28216 -8.82839,1.139651 -5.0330901,3.911344 -5.7552801,3.750034 -5.6357801,-1.258581 0.0652,-2.728343 0.45837,-4.117364 0.8744801,-3.086713 0.92016,2.280502 6.50274,2.515522 6.50274,0.27366 0,-0.924511 1.28181,-1.193311 3.03594,-0.63657 1.66971,0.52977 2.8756,0.40682 2.67973,-0.273671 -0.19605,-0.68054 0.48557,-2.755192 1.51423,-4.610354 1.02871,-1.855152 1.41831,-3.373014 0.86587,-3.373014 -0.55243,0 0.7665,-1.3930412 2.93101,-3.0956729 2.16452,-1.7026217 4.61664,-2.6747327 5.44915,-2.1602122 0.95687,0.5913606 1.52108,-2.5432826 1.53406,-8.5225486 0.0227,-9.7715503 1.12356,-16.2029563 2.7778,-16.2055663 0.522409,-8.5e-4 0.782979,9.87366 0.579459,21.9434021 z m -51.963769,-5.8368659 c -0.43515,0.4351404 -2.47536,-0.3116303 -4.53335,-1.6602517 -4.60117,-3.014813 -5.34648,-3.0496631 -5.34648,-0.2498702 0,1.3670913 0.87568,1.8656418 2.31002,1.3151913 1.33236,-0.5110705 2.12542,-0.1626202 1.87391,0.8234308 -0.23967,0.940441 2.02616,3.1410532 5.03558,4.890255 l 5.4717001,3.1803232 4.504,-3.2071733 C 0.090941,-2.1194671 2.285431,-2.7967278 0.79482099,-0.38494539 0.275251,0.45600546 1.180111,0.94865596 2.860751,0.73941575 4.5058109,0.53430554 5.7255809,1.0414161 5.5713009,1.8659869 5.4171809,2.6904977 3.594501,3.1745982 1.521261,2.941728 c -2.07323999,-0.2328703 -5.10001,0.5496005 -6.7261399,1.7384917 -2.90552,2.1245222 -2.90744,2.2162523 -0.11219,5.3047254 4.41974991,4.8837949 1.8112399,5.2775749 -6.1393701,0.9269009 -3.9812,-2.1785722 -5.929,-3.0812831 -4.32841,-2.006042 1.60058,1.0752311 4.51918,3.493694 6.4858401,5.374405 4.46389,4.268815 11.6744099,3.370184 20.5864899,-2.565502 3.29811,-2.1966424 7.17704,-4.4467747 8.61999,-5.0003452 1.83578,-0.7042807 2.55598,-2.4833925 2.39881,-5.925706 -0.20794,-4.5552246 -0.27084,-4.6131347 -0.85041,-0.78293079 C 21.033191,2.8001878 19.282181,4.93581 16.058741,6.5889817 13.434541,7.934823 9.6786209,10.289825 7.7123009,11.822247 5.7459209,13.354729 2.710211,14.59354 0.96622099,14.57518 -2.070119,14.54118 -2.045649,14.41767 1.543181,11.610287 4.9874809,8.916114 5.0482209,8.6732638 2.292741,8.6112237 0.023461,8.5602237 0.47900099,7.959863 4.1666509,6.1419912 c 2.67966,-1.3210313 4.87217,-2.9098229 4.87217,-3.5307036 0,-0.6208806 3.6510401,-3.34168334 8.1134601,-6.0461761 5.88338,-3.5657136 7.96693,-5.6783357 7.58028,-7.6860775 -0.44194,-2.293593 -0.0453,-2.508843 2.29688,-1.254112 4.48179,2.3985329 4.90487,4.3370349 1.15218,5.2789458 -2.96348,0.7437708 -3.3971,1.6748617 -2.98745,6.41519651 0.46065,5.33072539 0.11615,5.77703589 -8.91253,11.54167169 -5.1655,3.298053 -9.7514901,7.346347 -10.1912201,8.996109 -0.55187,2.069612 -2.30991,3.150403 -5.67158991,3.485994 -2.77785999,0.27764 -4.87211989,-0.206801 -4.87211989,-1.125712 0,-0.88662 2.1587399,-1.612091 4.7971599,-1.612091 3.36587,0 4.3251799,-0.471971 3.2151,-1.582112 -0.87347,-0.873471 -3.35789,-1.136421 -5.54677,-0.58705 -3.1693199,0.79545 -3.9646499,1.884902 -3.9646499,5.430955 0,3.909084 -0.40059,4.312324 -3.37302,3.395404 -1.8551501,-0.572321 -5.3216001,-2.032622 -7.7032401,-3.245144 -2.40112,-1.222491 -6.15784,-1.839122 -8.43262,-1.384191 -3.84108,0.768251 -4.15441,0.43288 -4.918576,-5.264325 -0.448745,-3.346674 -0.431748,-8.453709 0.03966,-11.3490219 0.850406,-5.24041531 0.863096,-5.24812532 2.828456,-1.7106217 1.81748,3.2714833 1.90745,3.043823 1.13343,-2.8676729 -0.7878,-6.0167061 -0.43062,-6.845417 5.67073,-13.1553335 l 6.51157,-6.734087 0.46348,6.945197 c 0.25497,3.8198342 0.10709,7.3013078 -0.32806,7.7366182 z m -11.00413,13.3712135 c -1.03064,0.4158803 -1.87391,1.4571213 -1.87391,2.3138723 0,0.953811 0.85545,0.847801 2.20634,-0.2731 1.77673,-1.474572 3.25159,-1.185101 7.57445,1.486581 2.95248,1.824732 5.69907,2.986713 6.10362,2.582223 0.61073,-0.610741 -10.78656,-7.3516775 -11.80802,-6.9838372 -0.18074,0.0652 -1.17184,0.4583705 -2.20248,0.8744809 z m 58.09102,-24.9788357 c 0,3.562994 -3.34871,3.939954 -6.05313,0.681331 -1.05756,-1.274331 -2.86172,-1.956632 -4.00919,-1.516271 -1.14754,0.44025 -1.67424,0.13372 -1.17048,-0.681331 0.5037,-0.815111 3.2372,-1.482002 6.07432,-1.482002 4.15906,0 5.15848,0.580931 5.15848,2.998273 z m 12.587029,5.111626 c -0.44591,1.1623708 0.24647,4.1583738 1.53905,6.6578164 1.94864,3.76833377 2.18548,7.974528 1.38681,24.6286146 -0.92917,19.37433 -0.82809,20.379421 2.86035,28.435989 3.36259,7.344937 3.5873,8.807209 1.86377,12.129292 -1.07784,2.077602 -1.85584,4.001884 -1.72886,4.276175 0.12692,0.27423 -0.60541,-0.471981 -1.6275,-1.658492 -1.02214,-1.186451 -2.31098,-1.704662 -2.86415,-1.151501 -0.553,0.553 0.2833,2.527712 1.85844,4.387914 2.85707,3.373984 2.85656,3.375904 -0.21814,0.789441 -2.89673,-2.436652 -3.23544,-2.439832 -5.62173,-0.051 -1.7024,1.702342 -2.53926,1.915722 -2.53926,0.647331 0,-1.040611 1.75334,-3.516934 3.89632,-5.502966 l 3.89633,-3.610994 -3.41444,-4.795174 C 43.0207,52.282588 41.32357,48.711544 41.12724,46.984263 40.9312,45.256991 40.65923,42.831838 40.52302,41.595067 40.38704,40.358296 39.34637,41.467017 38.2104,44.05858 36.095971,48.882654 26.855441,55.779181 23.849011,54.77704 c -0.921,-0.3071 0.76213,-2.218012 3.74034,-4.246604 2.97821,-2.028652 5.41957,-4.170904 5.42518,-4.760615 0.006,-0.58966 1.99584,-3.333643 4.42269,-6.097676 L 41.84971,34.64664 41.02673,14.86777 c -0.88633,-21.3011015 -0.18358,-27.241208 3.22298,-27.241208 1.25388,0 1.83005,0.893981 1.3621,2.113413 z m -88.234252,2.0092117 c -1.155236,2.995153 -1.145377,48.6735293 0.01133,53.4472343 0.478775,1.974542 -1.066167,6.052236 -4.151293,10.958361 -5.761337,9.161889 -8.661299,11.017791 -8.661299,5.542975 0,-2.144412 -0.650738,-3.387073 -1.499105,-2.862743 -2.38736,1.475482 -1.759003,-0.72734 1.87391,-6.569086 3.112209,-5.004535 3.384062,-7.278578 3.515796,-29.41048 0.11502,-19.3318294 0.631644,-24.9318651 2.661934,-28.8581091 2.650205,-5.1248849 8.116629,-7.0916669 6.248555,-2.2481522 z m 55.683543,2.1550021 c -0.47878,1.1958612 -0.83375,0.8406609 -0.90571,-0.9057609 -0.0652,-1.5803016 0.28897,-2.4657325 0.7874,-1.967572 0.49804,0.4980405 0.5513,1.7911318 0.11842,2.8733329 z m 7.97067,-2.5825026 c 0,0.3830204 -1.334,1.4107214 -2.96449,2.2833423 -2.41858,1.2943913 -2.80313,1.1661112 -2.08831,-0.6968107 0.77658,-2.023602 5.0528,-3.3663338 5.0528,-1.5865316 z m 11.3242,5.4302855 c 0.55413,0.8963509 0.41928,2.2174923 -0.29916,2.93582298 -1.77295,1.77295182 -5.67511,-0.80791078 -4.38281,-2.89882288 1.30952,-2.1189122 3.38486,-2.1353422 4.68169,-0.034 z m -5.97835,28.5128193 c 0.71488,1.156601 1.41582,1.043051 2.31422,-0.374521 1.00395,-1.584491 1.29388,-1.454171 1.31173,0.589491 0.0113,1.442901 -1.05557,2.623462 -2.37382,2.623462 -2.76353,0 -11.43542,8.730829 -10.37537,10.445921 0.38982,0.630511 -0.62485,2.353032 -2.25444,3.827774 -2.55536,2.312512 -2.96603,4.659985 -2.98586,17.065487 -0.017,9.8408 -0.48217,13.673894 -1.47615,12.135462 -1.2523601,-1.937932 -1.4563901,-1.898332 -1.4761601,0.286141 -0.0283,3.062293 -2.40396,4.769454 -4.68038,3.362593 -1.1565999,-0.714821 -1.0431099,-1.415821 0.37452,-2.314222 1.58443,-1.003951 1.45411,-1.293882 -0.58955,-1.311732 -1.8050699,-0.017 -2.6234599,1.146172 -2.6234599,3.724874 0,2.061292 0.55753,3.747774 1.23949,3.747774 0.68173,0 1.0223699,1.855212 0.75703,4.122624 -0.43741,3.735244 0.4510099,4.588485 9.45176,9.080989 9.14586,4.564855 9.87025,4.713585 9.12761,1.873852 -0.62507,-2.390312 -0.098,-3.084453 2.34254,-3.084453 2.68613,0 2.40357,-0.55016 -1.92161,-3.741134 -2.78891,-2.057602 -5.57725,-4.560554 -6.1962,-5.562065 -0.85375,-1.381312 -1.78099,-1.257002 -3.84046,0.51503 -4.6862201,4.031744 -6.4627901,4.617495 -6.4627901,2.130812 0,-1.285441 0.97211,-2.337162 2.16021,-2.337162 1.1881,0 2.6415401,-0.778851 3.2298901,-1.730792 0.6627,-1.072291 0.41135,-1.323801 -0.6611,-0.66105 -0.9518901,0.5883 -1.7307301,0.40059 -1.7307301,-0.417011 0,-0.817661 1.4147901,-1.935672 3.1440501,-2.484482 2.89322,-0.918291 3.11686,-1.972722 2.80358,-13.218404 -0.41361,-14.846975 -0.29689,-15.824816 1.54795,-12.970003 0.7993,1.236771 1.46358,8.456989 1.47621,16.044936 l 0.0227,13.796274 5.93947,4.773085 c 4.88079,3.922334 5.67629,5.264835 4.46298,7.531908 -3.04427,5.688306 -7.01046,6.302156 -14.32048,2.216532 -11.05614,-6.179386 -14.85709999,-6.215586 -27.18882,-0.25894 -5.97772,2.887563 -10.86865,4.763565 -10.86865,4.168974 0,-0.594641 -1.67192,-2.884263 -3.71541,-5.088055 l -3.715469,-4.006984 5.964119,-4.723675 5.96413,-4.723675 -0.21984,-11.492261 -0.21984,-11.492202 -1.01926,11.128731 c -0.93992,10.262741 -1.41422,11.458552 -6.09478,15.366036 -5.193773,4.335954 -11.216311,5.755006 -10.030366,2.363402 0.360357,-1.030701 1.934479,-1.641151 3.497949,-1.356611 1.563527,0.28443 2.355574,0.0227 1.760193,-0.582861 -0.595381,-0.60507 0.556966,-3.048583 2.560854,-5.430045 2.3239,-2.761833 3.28173,-5.265346 2.64476,-6.912787 -0.78649,-2.034322 -1.28691,-1.582742 -2.35614,2.126162 -1.281697,4.445924 -8.513017,9.92924 -8.513017,6.455196 0,-0.83273 1.011944,-1.902352 2.248714,-2.376942 3.146828,-1.207531 2.800071,-3.046483 -0.749552,-3.974744 -1.649026,-0.43118 -2.998265,-1.907282 -2.998265,-3.280153 0,-2.472403 -3.356413,-6.779347 -5.283186,-6.779347 -0.550167,0 -2.959341,1.395131 -5.354067,3.100313 -5.318938,3.787484 -5.578327,2.872603 -0.683034,-2.409463 2.019015,-2.178572 4.372436,-3.527523 5.229756,-2.997643 0.929277,0.574301 1.205097,0.0397 0.682977,-1.319101 -0.914433,-2.382822 4.370226,-10.40388 5.867801,-8.906249 0.471976,0.471981 -0.450445,2.262942 -2.049668,3.979684 -3.268817,3.508714 -3.591947,4.954505 -1.408846,6.303797 0.824514,0.50938 1.499162,0.18811 1.499162,-0.713851 0,-1.175811 0.849104,-1.185891 2.998208,-0.034 1.649084,0.882531 2.998267,1.160961 2.998267,0.61873 0,-0.54224 0.958853,-0.19038 2.130748,0.782521 1.760759,1.461262 1.991365,1.167761 1.328105,-1.690332 l -0.802586,-3.458743 2.419373,3.251253 c 1.33066,1.788132 2.01001,4.317935 1.5097,5.621686 -0.60292,1.571292 -0.0754,2.370532 1.56517,2.370532 2.65525,0 2.72114,-4.418734 0.0946,-6.348286 -0.89001,-0.653851 0.48048,-2.968913 3.37302,-5.697716 2.67966,-2.527992 4.87217,-5.236785 4.87217,-6.019486 0,-0.782751 1.01189,-1.423181 2.24866,-1.423181 1.23677,0 2.24871,-1.090581 2.24871,-2.423513 0,-1.686022 -0.91307,-2.184742 -3.0003,-1.638941 -1.65022,0.43175 -2.64794,0.21418 -2.21721,-0.482741 0.43061,-0.696911 -0.41135,-1.962692 -1.87182,-2.812823 -1.52737,-0.889221 -1.84274,-1.565051 -0.74258,-1.591291 1.43491,-0.034 1.28912,-1.261982 -0.58394,-4.917735 -3.18428,-6.214737 -8.074526,-9.61948 -8.074526,-5.621736 0,0.824521 0.843266,1.504381 1.873906,1.510841 1.03064,0.006 2.69248,1.775212 3.69303,3.930544 1.72507,3.716324 1.68002,3.793044 -0.87126,1.484152 -2.8948,-2.619723 -4.709558,-1.864622 -4.672729,1.944282 0.02266,2.085532 0.211909,2.100722 1.579729,0.12522 1.29088,-1.864622 1.47763,-1.747792 1.09348,0.683831 -0.26063,1.651861 -2.04225,3.305303 -4.078825,3.786064 l -3.615688,0.85352 4.013043,2.629473 c 2.20718,1.446192 3.92652,2.103612 3.8208,1.460862 -0.98339,-5.976536 5.38715,-7.126848 6.52437,-1.178072 0.78995,4.132545 -2.20486,7.648518 -5.02844,5.903446 -1.13643,-0.70235 -1.40346,-0.47424 -0.72678,0.620541 1.69838,2.748003 -1.45094,2.020032 -7.104965,-1.642292 -5.999364,-3.886014 -7.970842,-9.78594 -4.222796,-12.637292 1.361873,-1.036142 1.852661,-1.905302 1.09053,-1.931532 -0.762131,-0.0283 0.198876,-1.734192 2.135224,-3.795474 3.451148,-3.673544 2.336536,-5.484736 -1.199318,-1.948872 -1.399157,1.399211 -1.798948,1.352631 -1.798948,-0.20965 0,-2.464643 4.410398,-5.974377 7.588843,-6.039087 1.28805,-0.0283 5.21837,1.342102 8.73411,3.040714 8.20235,3.962894 10.66127,9.667129 10.66127,24.731735 0,9.96386 0.42212,11.767851 3.2983401,14.096854 3.04767,2.467882 3.11272,2.856343 0.85664,5.112475 -2.98127,2.981273 -3.38214,3.000313 -6.0925701,0.2901 -1.49066,-1.490661 -1.9678,-4.484564 -1.55299,-9.7443 0.36432,-4.621234 -0.0113,-7.592537 -0.95358,-7.592537 -0.95478,0 -1.55231,5.168685 -1.55231,13.428213 v 13.428214 l -5.24687,4.186484 c -5.93149,4.732745 -5.91279,4.680895 -3.04943,8.460569 2.03199,2.682162 2.30617,2.660292 8.20621,-0.655731 4.21458,-2.368722 5.52127,-3.800574 4.22138,-4.625875 -1.30187,-0.826561 -0.95778,-1.209411 1.11563,-1.241141 1.6490301,-0.0227 3.9668101,-0.658781 5.1505501,-1.407821 1.78223,-1.127762 1.81566,-1.767562 0.19434,-3.721304 -1.65583,-1.995112 -1.29451,-3.228033 2.3398799,-7.984678 2.3639,-3.093913 4.07547999,-6.299837 3.80346,-7.124407 -0.27197,-0.824521 -0.0283,-1.033761 0.53939999,-0.465181 0.56875001,0.568751 2.48017001,-0.3122 4.24755991,-1.958052 2.74239,-2.553542 3.25272,-4.843455 3.48157,-15.621176 0.14732,-6.945987 0.69329,-13.316823 1.21286,-14.157544 0.5195701,-0.840661 0.14731,-1.528452 -0.8265,-1.528452 -2.87593,0 1.4247701,-4.327794 7.4838001,-7.530997 6.23597,-3.296753 8.5324,-3.597624 9.95008,-1.303691 z m -61.389067,11.458151 c -0.508805,1.442902 -1.318644,3.467184 -1.799232,4.498395 -0.582746,1.250201 -0.06119,1.563131 1.564717,0.939141 1.34125,-0.514471 2.095959,-1.278472 1.67713,-1.697252 -0.418716,-0.418711 -0.08669,-2.022012 0.737654,-3.562594 0.863381,-1.613221 0.915168,-2.801153 0.122385,-2.801153 -0.757372,0 -1.793453,1.180562 -2.302371,2.623463 z m -2.422603,9.209149 c 0,0.736301 1.107359,1.763652 2.460735,2.283003 2.057543,0.789551 2.150239,0.57016 0.566031,-1.338762 -2.158965,-2.601312 -3.026766,-2.872093 -3.026766,-0.944241 z m 21.7373,6.156887 c -0.50937,0.824521 -0.21191,1.499111 0.66111,1.499111 0.87318,0 1.58761,-0.67459 1.58761,-1.499111 0,-0.824511 -0.29747,-1.499162 -0.66111,-1.499162 -0.36376,0 -1.07801,0.674651 -1.58761,1.499162 z M -37.68862,67.827224 c 2.661309,5.871546 4.945152,7.063337 3.590813,1.873911 -0.82304,-3.153803 -3.773031,-7.120837 -5.295197,-7.120837 -0.370555,0 0.396619,2.361133 1.704384,5.246926 z M 2.668051,27.725653 c 0.39152,1.176541 -0.81726,1.873912 -3.24880999,1.873912 -3.78351991,0 -4.92951991,-1.441772 -2.82149001,-3.549804 1.54228,-1.542271 5.34868,-0.49124 6.0703,1.675892 z m 4.1218899,-1.124361 c 0.50937,0.824511 0.21191,1.499111 -0.66105,1.499111 -0.87319,0 -1.58761,-0.6746 -1.58761,-1.499111 0,-0.824511 0.29746,-1.499102 0.66105,-1.499102 0.36376,0 1.07807,0.674591 1.58761,1.499102 z M 2.801091,36.040371 c 2.4249799,3.252894 1.4079399,6.576847 -2.29076001,7.486468 -1.49331998,0.36715 -0.87629999,0.538831 1.37111001,0.38132 3.3012899,-0.23117 3.7593799,0.107651 2.3845899,1.763872 -1.0859999,1.308562 -3.2004299,1.721222 -5.8442899,1.140511 -3.4887699,-0.76627 -4.0295899,-0.47764 -3.4264999,1.828642 0.39378,1.506182 0.0453,4.415385 -0.7704,6.464947 -1.16017,2.908403 -1.50738,0.834371 -1.58155,-9.44764 l -0.0952,-13.174093 4.1225699,0.43175 c 2.26747,0.237401 5.02606,1.643362 6.13025,3.124503 z m 32.01267,1.364422 c -2.28583,2.285832 -6.28652,2.856343 -6.28652,0.896481 0,-0.839761 0.95608,-1.160001 2.12463,-0.711601 1.16855,0.44818 2.5336,-0.25043 3.03351,-1.553272 0.49974,-1.302721 1.35405,-1.923482 1.89804,-1.379491 0.54394,0.543931 0.19775,1.780592 -0.76966,2.747883 z M 6.0403909,53.614099 c 0,4.151584 -0.3411,4.453075 -4.1225699,3.644764 l -4.12262,-0.881231 4.12262,2.698993 c 4.8372699,3.166943 5.5857999,5.891376 0.93472,3.402193 -2.38391001,-1.275811 -4.13419,-1.274961 -6.9398099,0.003 -5.30574,2.417443 -5.37792,1.440692 -0.29576,-3.997464 2.4346699,-2.605162 4.4267099,-5.391645 4.4267099,-6.192136 0,-1.360451 2.29631,-2.815023 4.8721199,-3.086143 0.61839,-0.0652 1.12436,1.918332 1.12436,4.407564 z m 30.2027201,1.555832 c -7.6374,4.644574 -8.97428,9.6222 -5.41265,20.15294 0.55753,1.649032 -0.3054,0.956591 -1.91788,-1.538771 -2.36877,-3.665604 -3.3738,-10.465981 -1.82201,-12.328163 0.17168,-0.20624 0.39662,-1.021631 0.49974,-1.812262 0.29237,-2.244242 10.213329,-9.059229 11.779119,-8.091538 0.76995,0.475941 -0.63691,2.103842 -3.126319,3.617794 z m -12.09816,12.770223 c 0.87278,8.432568 1.75413,10.63573 6.0746,15.185965 2.77956,2.927333 4.37913,5.045955 3.55461,4.707985 -11.28736,-4.626395 -14.24166,-9.43103 -14.24166,-23.161474 0,-13.228543 3.13493,-11.007761 4.61245,3.267524 z M 40.68745,64.956891 c -1.76121,2.238972 -3.617439,6.667846 -4.124939,9.84188 -0.50768,3.174083 -1.49792,5.771025 -2.20084,5.771025 -2.14967,0 -0.2595,-12.040842 2.34158,-14.914795 1.343629,-1.484711 2.307689,-3.289843 2.142419,-4.011404 -0.16545,-0.72162 0.26403,-2.617232 0.9537,-4.212544 1.21586,-2.811633 1.29773,-2.803193 2.67224,0.27706 1.08798,2.438243 0.67272,4.125185 -1.78416,7.248668 z m -51.137439,17.112017 c 3.3210001,3.321003 2.7949101,3.797224 -1.59764,1.446411 -1.59486,-0.85352 -2.89974,-2.202762 -2.89974,-2.998273 0,-2.173012 1.17944,-1.766081 4.49738,1.551862 z M 39.7707,83.56807 c -0.50938,0.82451 0.46234,1.499101 2.16021,1.499101 2.08729,0 3.08671,0.970761 3.08671,2.998273 0,1.649032 -0.65091,2.998213 -1.44641,2.998213 -2.03228,0 -4.93847,5.789676 -6.02005,11.993023 l -0.914829,5.24692 -2.07992,-3.74782 c -2.72007,-4.901184 -2.13069,-11.884911 1.32465,-15.696305 1.51712,-1.673502 2.450759,-3.886014 2.074769,-4.916655 -0.37622,-1.030641 0.0867,-1.873912 1.02882,-1.873912 0.94192,0 1.29559,0.674651 0.78605,1.499162 z m -78.396813,4.872124 c 5.085045,6.766767 5.874656,9.57115 3.909298,13.884666 -2.220951,4.87444 -4.066416,4.76775 -3.520669,-0.20341 0.237405,-2.163444 -0.665186,-5.039777 -2.005926,-6.391798 -3.119235,-3.145523 -6.256148,-10.09208 -5.08584,-11.262332 1.694411,-1.694411 3.046314,-0.89313 6.703137,3.972984 z m -4.804581,-1.873911 c 0,0.82457 0.714424,1.499161 1.587608,1.499161 0.873184,0 1.170648,-0.674591 0.661106,-1.499161 -0.509371,-0.824511 -1.224021,-1.499112 -1.587607,-1.499112 -0.363756,0 -0.661107,0.674601 -0.661107,1.499112 z m 92.945684,1.384141 c 0,2.487372 -1.62064,6.308336 -3.74782,8.836389 -4.66673,5.546037 -4.675,7.768457 -0.0652,17.512307 2.02531,4.2811 4.12744,12.12804 4.67143,17.43747 0.92696,9.04762 0.73046,9.96092 -3.13005,14.54889 l -4.11911,4.89524 -3.55053,-3.33557 c -1.95284,-1.83459 -3.550589,-3.96737 -3.550589,-4.73948 0,-0.77216 1.30811,0.18868 2.906929,2.13523 l 2.90688,3.53909 3.37658,-3.3269 c 4.34682,-4.28286 4.41459,-15.39431 0.15015,-24.6412 -7.74568,-16.79602 -7.81186,-17.64773 -1.84507,-23.751697 2.9518,-3.019623 4.49737,-6.128606 4.49737,-9.046419 0,-2.445162 0.33712,-4.445704 0.74961,-4.445704 0.41248,0 0.74955,1.972042 0.74955,4.382354 z m -94.98538,8.487419 c 1.207477,-0.463481 1.830508,-0.252131 1.384482,0.46971 -0.445912,0.721681 0.193777,2.145762 1.421255,3.164687 3.21295,2.66646 2.766471,7.39988 -1.637298,17.35762 -4.994674,11.29385 -5.877774,18.80036 -2.891236,24.57576 3.883745,7.51032 10.120061,4.91411 8.732634,-3.63541 -0.520137,-3.20638 -0.0034,-5.58609 1.55072,-7.14027 1.282098,-1.2821 1.987116,-2.67515 1.566644,-3.09562 -1.268216,-1.26816 8.26247,-7.35178 9.9162,-6.32969 0.84361,0.52127 1.1894,1.50522 0.76842,2.18639 -0.42098,0.68116 0.27763,1.63871 1.55253,2.12791 1.32732,0.50937 1.92649,0.25611 1.40205,-0.59249 -0.5037,-0.81505 -0.24137,-1.48194 0.5832,-1.48194 0.82451,0 1.94445,0.7206 2.48878,1.60132 0.5445,0.88072 1.93335,1.23921 3.08671,0.79664 1.15343,-0.44251 2.0971,-0.15128 2.0971,0.64734 0,0.82123 5.3733301,1.4421 12.36775,1.42913 7.8846099,-0.017 11.59781,-0.51051 10.2436399,-1.36743 -1.4259,-0.90259 0.0941,-1.31099 4.6238401,-1.24249 3.71138,0.0567 8.87813,-0.96067 11.48171,-2.25954 4.46734,-2.2286 4.65329,-2.21115 3.30388,0.3105 -0.78649,1.46947 -3.31085,3.44622 -5.60982,4.39272 -11.05223,4.5503 -37.82467,4.19436 -47.49836,-0.63153 -4.21589,-2.10316 -4.54021,-2.00457 -8.687024,2.64013 -3.403837,3.81252 -4.110668,5.72167 -3.368822,9.09917 0.655214,2.98314 0.146749,5.14953 -1.683474,7.17183 -3.532738,3.90364 -5.846668,3.6485 -9.544399,-1.0524 -4.018312,-5.1085 -4.019559,-15.01587 -0.0032,-26.03253 6.147701,-16.86294 6.10379,-16.43623 2.076638,-20.168475 -2.024738,-1.876461 -3.603109,-4.346314 -3.507468,-5.488585 0.09575,-1.142201 0.491807,-0.846661 0.880664,0.656801 0.428914,1.659631 1.569306,2.402552 2.902227,1.891082 z m 17.780521,0.62235 c 1.39264,2.693163 3.51302,4.497377 5.2854,4.497377 1.62789,0 2.95973,0.5734 2.95973,1.27417 0,1.92315 -8.39403,13.11539 -11.573608,15.43176 -5.47294,3.98716 -9.349715,11.33073 -9.824581,18.6101 -0.564898,8.66125 -3.513303,10.49181 -4.909684,3.04842 -1.244532,-6.63374 1.637978,-19.07545 5.339959,-23.04907 1.538823,-1.6518 2.388777,-3.41233 1.888754,-3.91236 -0.500306,-0.49974 -0.195476,-0.90916 0.677084,-0.90916 2.004226,0 6.409128,-10.8392 6.409128,-15.771158 0,-4.881755 0.918909,-4.690524 3.747818,0.779921 z M 4.2189409,108.80652 c 0.38699,13.79322 0.17338,15.23572 -2.2487099,15.21498 -2.2805,-0.0227 -2.34362,-0.24137 -0.42722,-1.49916 1.99885,-1.31213 1.99885,-1.63849 0,-2.9373 -1.6705,-1.0855 -2.59671,-0.69998 -3.60209,1.4991 -0.74439,1.62818 -1.7563399,2.95646 -2.2487099,2.95175 -1.09988,-0.0113 -2.14582,-27.950528 -1.10906,-29.628 0.40909,-0.6623 2.6486799,-1.122031 4.97636991,-1.021751 L 3.7917309,93.56859 Z M -2.954359,97.060193 c 0,0.824521 1.01189,1.499112 2.24872001,1.499112 1.23676998,0 2.24864999,-0.674591 2.24864999,-1.499112 0,-0.824511 -1.01188001,-1.499161 -2.24864999,-1.499161 -1.23683001,0 -2.24872001,0.67465 -2.24872001,1.499161 z m 0.81358,7.392017 c -1.02401,1.6569 1.34086001,3.44599 2.72510999,2.06168 1.42539001,-1.42534 1.15971001,-3.45721 -0.45213999,-3.45721 -0.77584999,0 -1.79878,0.62802 -2.27314,1.39553 z m -0.064,9.09832 c -0.50938,0.82452 0.0855,1.49917 1.32221001,1.49917 1.23676999,0 2.66560999,-0.67465 3.17515999,-1.49917 0.50937,-0.82451 -0.0856,-1.4991 -1.32216001,-1.4991 -1.23676999,0 -2.66561999,0.67459 -3.17520999,1.4991 z m 15.6811,-13.11731 c 1.91986,3.50418 5.13933,8.59677 7.15438,11.31678 2.01499,2.72001 3.30417,5.88242 2.86472,7.02752 -1.22612,3.19533 -11.69464,5.67329 -14.0437001,3.32423 -3.39273,-3.39273 -3.85558,-28.03982 -0.52637,-28.03982 0.58331,0 2.6313401,2.867093 4.5512001,6.37129 z m 16.94865,-2.789146 c -0.43402,2.270252 1.03568,6.525286 4.01293,11.618276 9.711479,16.61289 12.505379,24.09658 11.115119,29.77334 -1.85504,7.57467 -5.92497,7.11414 -5.33537,-0.60372 0.37169,-4.86589 -0.38529,-6.75589 -4.497369,-11.22919 -3.60963,-3.92664 -3.83145,-4.40133 -0.82174,-1.75844 7.945689,6.97721 4.033099,0.47028 -4.76084,-7.91776 -4.88594,-4.66038 -8.54809,-8.47342 -8.1381,-8.47342 0.41022,0 -0.31446,-1.06005 -1.61044,-2.35575 -3.41851,-3.41851 -2.91821,-6.639 1.03143,-6.639 1.86298,0 4.22983,-1.349185 5.25962,-2.998217 2.55513,-4.091404 4.57822,-3.775984 3.74476,0.583881 z m -38.1913699,8.519886 c 0.2918,5.2994 -0.20397,11.56348 -1.10124,13.92014 -1.5082801,3.96125 -2.0540801,4.20767 -7.2286001,3.26366 -9.9473,-1.81481 -10.64716,-3.97786 -4.35373,-13.45643 3.02642,-4.55823 5.50262,-9.25374 5.50262,-10.434484 0,-2.224633 2.66976,-3.912474 5.1992201,-3.287064 0.79828,0.19718 1.69005,4.694788 1.98173,9.994178 z m 42.2901399,24.05392 c 0,0.82452 -0.6746,1.0822 -1.49911,0.57261 -0.82451,-0.50938 -1.4991,-1.6011 -1.4991,-2.42562 0,-0.82451 0.67459,-1.0822 1.4991,-0.5726 0.82451,0.50937 1.49911,1.6011 1.49911,2.42561 z"
       id="path1282" /></g></svg>
