<?xml version="1.0" encoding="UTF-8" standalone="no"?>
<!-- Created with Inkscape (http://www.inkscape.org/) -->

<svg
   width="210mm"
   height="297mm"
   viewBox="0 0 210 297"
   version="1.1"
   id="svg1292"
   xml:space="preserve"
   inkscape:version="1.2.2 (732a01da63, 2022-12-09)"
   sodipodi:docname="Hel.svg"
   xmlns:inkscape="http://www.inkscape.org/namespaces/inkscape"
   xmlns:sodipodi="http://sodipodi.sourceforge.net/DTD/sodipodi-0.dtd"
   xmlns="http://www.w3.org/2000/svg"
   xmlns:svg="http://www.w3.org/2000/svg"><sodipodi:namedview
     id="namedview1294"
     pagecolor="#ffffff"
     bordercolor="#000000"
     borderopacity="0.25"
     inkscape:showpageshadow="2"
     inkscape:pageopacity="0.0"
     inkscape:pagecheckerboard="0"
     inkscape:deskcolor="#d1d1d1"
     inkscape:document-units="mm"
     showgrid="false"
     inkscape:zoom="1.6819304"
     inkscape:cx="303.81756"
     inkscape:cy="511.31723"
     inkscape:window-width="2560"
     inkscape:window-height="1494"
     inkscape:window-x="-11"
     inkscape:window-y="-11"
     inkscape:window-maximized="1"
     inkscape:current-layer="layer1" /><defs
     id="defs1289" /><g
     inkscape:label="레이어 1"
     inkscape:groupmode="layer"
     id="layer1"><path
       style="fill:#000000;stroke-width:1.64835"
       d="M -70.732594,-152.33648 -75,-147.26494 v 94.75706 c 0,95.854592 1.634693,137.227751 5.899608,149.315813 1.288181,3.651087 2.342152,11.236857 2.342152,16.857307 0,9.60442 0.448186,10.79609 7.452719,19.81656 12.800944,16.48513 31.197394,23.89285 59.418433,23.92611 28.171899,0.0312 46.166439,-8.07868 56.663968,-25.54391 6.64797,-11.06055 8.04596,-18.85988 8.21267,-45.818138 0.11003,-17.794117 0.54332,-20.452519 5.06539,-31.079269 L 75,43.345902 V -52.68787 c 0,-94.65887 -0.0492,-96.09594 -3.41634,-100.37695 L 68.16732,-157.408 H 0.85106198 -66.465187 Z m 73.0250059,-0.856 c 0.40127,0.40121 -12.6974199,0.72953 -29.1081889,0.72953 -30.141965,0 -37.099307,1.06161 -40.936751,6.24614 -1.607923,2.1724 -2.11814,20.20375 -2.222212,78.534146 -0.07432,41.642859 -0.493602,76.0728722 -0.93182,76.5110826 -0.438217,0.4379704 -0.796735,-34.3344426 -0.796735,-77.2725036 v -78.069205 l 4.114722,-4.29484 4.114728,-4.2949 32.518338,0.5906 c 17.885089,0.32459 32.8466589,0.9188 33.2479189,1.32008 z m 54.4294381,0.0312 c 0.38265,0.38252 -11.481469,0.56756 -26.364709,0.41118 -18.963039,-0.19936 -23.8543592,-0.58998 -16.346159,-1.30506 10.826259,-1.03118 41.426259,-0.39062 42.710868,0.89382 z m 12.3703,1.75307 c 0.90391,2.35556 0.66011,2.41593 -1.88409,0.46663 -1.60729,-1.23162 -3.23142,-2.44915 -3.60916,-2.7057 -0.37773,-0.25667 0.47011,-0.46662 1.88408,-0.46662 1.41399,0 3.03812,1.21752 3.60917,2.70569 z m -83.721268,3.88776 h 13.80494002 v 14.83518 c 0,8.15936 0.68527998,14.83518 1.52282996,14.83518 2.11182992,0 3.01090992,-26.89452 0.94970002,-28.40885 -1.7755,-1.30443 13.56682,-1.92506 43.462879,-1.75816 13.973329,0.0779 19.101069,0.67832 20.167069,2.3611 2.48114,3.91655 1.77871,25.50592 -0.90226,27.73097 -2.78256,2.30933 -125.713403,2.88716 -127.92905,0.60119 -0.720018,-0.74286 -1.550302,-7.07541 -1.845086,-14.07239 -0.478712,-11.36264 -0.183785,-12.90082 2.760733,-14.3982 3.538946,-1.79959 21.683986,-3.20813 29.464286,-2.28715 2.60646,0.30838 10.95124,0.5607 18.543959,0.5607 z m 2.86256,4.12089 c -0.52182,1.35988 -0.48787,3.67371 0.0754,5.14175 0.81872,2.13358 0.18459,2.50869 -3.15969,1.86943 -4.682089,-0.89506 -7.139789,1.17012 -3.19431,2.68413 1.39721,0.5364 2.32014,2.28286 2.05097,3.88154 -0.34309,2.03771 0.41922,2.75129 2.54984,2.38684 2.59201,-0.44358 2.87595,0.22365 1.92947,4.53294 -0.90078,4.10121 -0.57882,5.05284 1.7093903,5.05284 2.2830999,0 2.6469999,-1.06097 1.9136999,-5.57977 -0.82575,-5.08854 -0.59079,-5.49872 2.6689399,-4.65923 3.17494,0.81769 3.32158,0.61241 1.31214,-1.83778 -1.47197,-1.79481 -1.61592,-2.7584 -0.41211,-2.7584 1.0176,0 1.85018,-0.74175 1.85018,-1.64833 0,-0.90659 -1.11264,-1.6484 -2.47252,-1.6484 -1.6483499,0 -2.4725299,-1.64833 -2.4725299,-4.94505 0,-5.17607 -2.7184402,-6.72161 -4.3489702,-2.47251 z m 19.1841398,11.53845 c 0,7.70607 0.57671,14.01102 1.28158,14.01102 0.7048699,0 2.9301502,-1.15473 4.9450602,-2.56601 4.03606,-2.82693 5.01521,-6.54717 1.35336,-5.14199 -2.88812,1.10825 -3.93599,-2.6541 -3.52005,-12.63854 0.22677,-5.44384 -0.31699,-7.67549 -1.8701003,-7.67549 -1.6491399,0 -2.1898499,3.45952 -2.1898499,14.01101 z m 65.8182082,2.06046 c -0.0786,8.66853 -0.57123,11.71507 -1.5325,9.47807 -1.99698,-4.64728 -1.99698,-22.25281 0,-22.25281 0.96708,0 1.60047,5.27992 1.5325,12.77474 z M 68.41273,52.7401 c -3.86888,8.992259 -5.28429,15.394635 -6.38094,28.863198 L 60.62253,98.910975 60.36847,81.603298 C 60.19441,69.747617 59.61104,65.074432 58.51651,66.768124 57.63768,68.128005 56.90728,79.092736 56.8934,91.134257 56.8647,116.06571 55.336581,121.57347 45.661301,131.61884 c -6.97427,7.24112 -24.8844,16.42282 -30.406339,15.588 -3.52316,-0.53266 -3.45926,-0.70187 1.22858,-3.25323 2.719779,-1.48025 9.024729,-4.65905 14.010989,-7.06401 11.15774,-5.38153 18.02341,-12.65045 20.86549,-22.09088 2.10915,-7.00595 3.41623,-35.836815 1.70239,-37.550626 -0.47229,-0.472231 0.23425,-3.474593 1.57007,-6.671697 3.263849,-7.811547 1.805889,-8.641628 -2.61482,-1.488781 -2.97613,4.815475 -3.25158,6.399946 -1.63707,9.416699 2.27738,4.255334 1.04782,29.511305 -1.80298,37.034525 -2.14422,5.65852 -7.92792,12.21833 -10.77282,12.21833 -1.10286,0 -5.23867,1.46722 -9.19069,3.26047 -3.95203,1.79331 -8.26105,3.27679 -9.57561,3.29673 -4.211219,0.0635 0.37424,-2.73615 9.12942,-5.57448 15.04244,-4.87665 20.79478,-14.40898 20.23853,-33.537689 -0.43149,-14.838484 -3.07558,-12.717852 -3.0829,2.472502 -0.005,9.826127 -0.76009,14.011257 -3.27248,18.131897 -1.79647,2.94642 -4.01897,5.35712 -4.93889,5.35712 -2.27819,0 -2.09999,-1.70198 0.50419,-4.81523 2.90348,-3.47117 5.56133,-13.33418 4.69898,-17.437515 -0.46813,-2.227283 -1.56815,-0.398711 -3.39123,5.638215 -3.09252,10.23999 -7.65153,13.92946 -5.97708,4.83709 0.56013,-3.04161 1.21233,-7.42721 1.4493,-9.745765 0.23699,-2.318562 3.53568,-7.414887 7.33047,-11.325201 3.79479,-3.910253 6.87494,-8.318228 6.84478,-9.795429 -0.0417,-2.029792 -0.86829,-1.679292 -3.38515,1.435021 -1.83166,2.266473 -4.37868,5.233505 -5.66002,6.593457 -3.18165,3.376653 -10.15377,9.443049 -8.61977,7.499977 0.67994,-0.861291 1.1596,-4.199204 1.0659,-7.417617 l -0.17039,-5.851646 -1.64173,6.181336 c -0.90296,3.399713 -2.12437,6.181466 -2.71425,6.181716 -1.71107,5.6e-4 -1.23912,-12.243622 0.52058,-13.505013 2.32155,-1.664161 5.82451,1.820652 5.82451,5.794396 0,2.476542 0.49852,2.925982 1.80106,1.623471 1.3025,-1.302501 1.29531,-2.746052 -0.0262,-5.214945 -1.63465,-3.054373 -1.1266,-3.734943 4.82473,-6.463246 3.65847,-1.677172 6.45176,-3.373043 6.20731,-3.768644 -0.24447,-0.39561 2.38228,-3.686233 5.83719,-7.312586 3.45491,-3.626354 5.747429,-5.194135 5.094479,-3.483874 -0.80648,2.112402 -0.53721,2.892893 0.83964,2.433933 1.72238,-0.574401 4.744,-7.150477 10.87808,-23.675353 1.97403,-5.317925 1.43293,-65.109942 -0.58923,-65.109942 -0.76805,0 -2.25548,1.668951 -3.30539,3.708773 -1.89418,3.680124 -1.90086,3.677694 -0.8634,-0.32022 0.57503,-2.215882 2.52361,-5.225715 4.33014,-6.688586 2.65217,-2.147602 3.0499,-3.728334 2.06562,-8.209698 -1.79236,-8.160608 -1.92308,-36.145195 -0.16372,-35.057064 0.85792,0.530801 0.90163,-0.0312 0.10292,-1.323681 -1.78326,-2.885423 -2.51195,-18.296387 -0.81554,-17.247936 0.70515,0.4361 1.28209,-1.034991 1.28209,-3.268383 0,-2.233453 -0.64904,-3.659624 -1.44231,-3.169383 -0.79327,0.4903 -1.44231,-0.309011 -1.44231,-1.775672 0,-1.469786 0.78947,-2.179196 1.7586,-1.580246 0.96722,0.598085 1.6211,0.0854 1.45305,-1.13897 -0.16808,-1.22419 -0.0399,-4.82201 0.28534,-7.99507 0.32495,-3.17313 0.79111,29.456664 1.03586,72.510555 l 0.44501,78.279834 z m -117.863279,-163.31356 6.593402,0.14391 0.48551,13.001447 0.4855,13.001443 -10.134775,-8.779929 c -5.574127,-4.828934 -10.482743,-9.937851 -10.908033,-11.353111 -0.425259,-1.41521 -1.510804,-3.94116 -2.412259,-5.6131 -1.490836,-2.76513 -1.144673,-2.92717 3.829114,-1.79194 3.007472,0.68642 8.435157,1.31266 12.061535,1.39159 z m 16.076422,-0.26851 c 0.54737,1.63027 1.54649,1.60529 4.78547,-0.11962 3.59892,-1.91659 4.87658,-1.73387 10.571919,1.51197 3.56305,2.0306 5.55107,2.67784 4.41783,1.43832 -1.13324,-1.23958 -2.06169,-2.66171 -2.06323,-3.1603 -0.002,-0.4984 7.2306102,-0.52644 16.07142999,-0.0623 8.84081981,0.46476 16.50441001,0.25418 17.03019001,-0.46787 0.52575,-0.72187 2.243449,-0.81844 3.817059,-0.21431 2.32536,0.89232 1.62896,1.83268 -3.719119,5.02188 -9.9473102,5.93188 -13.4165501,12.7518 -13.4165501,26.374623 0,11.548731 1.40257,15.173715 8.6911301,22.462252 1.71714,1.717111 2.674,3.570093 2.12635,4.117774 -0.54761,0.54762 -3.10431,-1.530082 -5.6815002,-4.617115 l -4.6857999,-5.612845 -0.21463,9.310729 c -0.18029,7.822127 0.47629,10.131899 4.1065199,14.446174 4.1731502,4.959514 4.2151402,5.215755 1.2258199,7.479237 -1.7024299,1.289111 -3.8370899,2.343852 -4.7436798,2.343852 -0.9066,0 -0.43286,-0.924971 1.0526899,-2.055532 2.45962,-1.871742 2.34912,-2.464642 -1.2362599,-6.632886 -3.1823199,-3.699684 -3.93730992,-6.429916 -3.93730992,-14.238224 0,-5.313495 0.76450002,-9.915719 1.69889992,-10.22716 1.096,-0.36508 0.84474,-2.900182 -0.7080299,-7.142876 -1.32381001,-3.617074 -2.52019998,-6.205696 -2.65862998,-5.752406 -0.13842999,0.45354 -0.60804002,3.049463 -1.04363992,5.769286 -0.4356,2.719772 -3.7564299,8.468128 -7.3796699,12.774112 -3.8067102,4.524034 -6.0844302,8.643498 -5.3955002,9.758169 0.7971,1.289731 0.30066,1.586962 -1.49794,0.896741 -3.249499,-1.246931 -4.831859,0.840241 -3.422149,4.513884 1.545909,4.028564 4.514459,2.184612 6.588369,-4.092484 2.56603,-7.766567 5.6489102,-8.403018 3.9370302,-0.8127 -1.6283502,7.219876 -4.5205002,10.93918 -8.0584202,10.363159 -2.123559,-0.34576 -2.664719,1.072551 -2.664719,6.983767 0,6.111316 -0.65314,7.704137 -3.70879,9.044709 -2.03983,0.894931 -3.65918,2.007552 -3.59854,2.472552 0.17624,1.351541 21.5449591,18.91009811 28.303409,23.2567023 6.9819198,4.4903342 6.9685198,4.4580042 3.6618599,8.8307087 -2.35126,3.109333 -2.70378,2.961743 -10.2497698,-4.2914044 -4.2981198,-4.131294 -9.4928601,-8.62362824 -11.5438801,-9.9828895 -2.051009,-1.3592513 -14.100669,-12.0380311 -26.777019,-23.7306131 -20.39099,-18.808418 -26.886739,-27.028405 -21.358943,-27.028405 1.149215,0 1.17368,-0.995241 0.07495,-3.048273 -1.795495,-3.354913 -2.88289,-42.553431 -1.226417,-44.209922 1.354873,-1.354836 12.429397,6.370176 18.53469,12.928862 5.91456,6.353846 2.48862,4.616554 -8.029177,-4.071554 -4.342607,-3.587163 -8.279544,-6.138226 -8.748749,-5.668985 -0.469181,0.46912 1.483423,2.516862 4.339163,4.550264 3.94177,2.806803 4.659347,4.034984 2.979518,5.099695 -1.217004,0.771271 -1.56559,1.413771 -0.774637,1.427661 0.790953,0.0125 0.541635,1.105391 -0.553971,2.425522 -1.095649,1.320202 -1.513576,3.174564 -0.928723,4.120894 0.607175,0.982411 -0.392739,1.720542 -2.330621,1.720542 -2.868973,0 -3.393986,1.034991 -3.393986,6.690706 0,3.836994 0.67234,6.275166 1.576362,5.716456 0.866996,-0.535781 1.187585,-1.987372 0.712418,-3.225643 -0.885874,-2.308522 5.185345,-9.089499 8.324231,-9.297339 0.962297,-0.0635 0.431801,-0.636701 -1.178907,-1.273281 -2.695678,-1.065331 -2.720212,-1.416582 -0.308571,-4.417064 1.850114,-2.301863 2.872119,-2.654293 3.477985,-1.199342 0.47186,1.133301 1.789627,2.060452 2.928301,2.060452 1.138664,0 4.481624,2.649863 7.428784,5.888586 3.01755,3.316043 6.35068,5.507875 7.62965,5.017085 1.24914,-0.479091 2.70958,-0.16198 3.24541,0.70479 0.53584,0.867031 -0.73848,1.587722 -2.83182,1.601612 -2.09334,0.0125 -4.91872,0.811951 -6.27861,1.773432 -1.83919,1.300451 -0.48375,1.558871 5.2916,1.008821 6.12253,-0.583131 8.35477,-0.0866 10.55767,2.347462 2.66756,2.947603 2.57759,3.096933 -1.99489,3.311303 -3.37727,0.15825 -3.78505,0.42302 -1.3837,0.898991 5.53631,1.096791 11.907929,-2.265162 14.765329,-7.790738 2.50113,-4.836654 2.48022,-5.309075 -0.33311,-7.525577 -5.758499,-4.536814 -15.260969,-8.882668 -19.007539,-8.692908 -3.14032,0.15887 -3.25075,0.32521 -0.65729,0.989821 1.71444,0.43922 5.36025,2.162742 8.10181,3.829954 l 4.98465,3.031392 -4.54964,1.141902 c -3.57404,0.89699 -5.42264,0.26913 -8.62076,-2.929223 -3.38307,-3.383073 -4.23257,-6.205826 -5.02636,-16.701566 -0.63029,-8.333931 -0.36607,-12.630441 0.77672,-12.630441 0.95258,0 1.34401,-1.48348 0.86985,-3.29666 -0.92411,-3.53385 2.0795,-4.68123 3.23617,-1.23629 z m 14.636019,7.82226 c 10.2582202,7.277259 11.2652502,9.425241 11.2980102,24.098315 0.0224,10.12137 -2.6739702,16.025915 -9.8262902,21.51616 -1.37976,1.059101 -1.953499,2.480783 -1.27498,3.159293 0.67852,0.678571 1.4421,0.924591 1.69684,0.546991 0.25475,-0.37753 3.10241,-3.709274 6.32814,-7.403407 5.6863701,-6.512096 5.8517401,-7.078277 5.4303301,-18.590998 -0.52188,-14.258093 -3.8680099,-20.924884 -13.1376701,-26.175394 -10.351609,-5.86336 -10.629099,-4.32629 -0.51441,2.84916 z m 27.8953298,-3.77693 c -1.6027,1.80626 -2.59074,2.05521 -3.02199,0.76149 -0.8809599,-2.64289 -8.7626797,-2.32429 -12.4982296,0.50525 -2.97489,2.25333 -2.96261,2.4682 0.41211,7.207546 2.3257199,3.266133 3.4783799,7.395187 3.4783799,12.460112 0,4.166374 0.7417599,7.575247 1.64834992,7.575247 0.90659998,0 1.64835996,-3.015822 1.64835996,-6.701796 0,-7.877707 1.86089992,-11.967761 8.76289972,-19.259789 2.7888403,-2.94641 4.3687803,-5.32888 3.5110003,-5.29443 -0.85779,0.0374 -2.63118,1.27036 -3.9408602,2.74637 z m -38.3756188,3.79051 c 2.96834,1.80981 5.99151,3.290565 6.71816,3.290565 0.72665,0 3.0633,1.854352 5.192539,4.120894 4.21283,4.484284 8.3673902,5.771965 4.81579,1.492581 -2.45384,-2.956762 -17.936679,-12.17092 -20.475129,-12.18525 -0.90659,-0.005 0.7803,1.4714 3.74864,3.28121 z m -35.442542,18.125739 c 0,4.079654 0.321468,5.748606 0.714344,3.708784 0.392863,-2.039832 0.392863,-5.377735 0,-7.417627 -0.392864,-2.039822 -0.714344,-0.370681 -0.714344,3.708843 z m 52.184731,-1.236281 c -1.07933,3.916304 -0.95302,9.643039 0.22882,10.37344 0.84322,0.52083 1.53312,-1.692432 1.53312,-4.919015 0,-3.226573 -0.37087,-5.866535 -0.82417,-5.866535 -0.45329,0 -0.87528,0.18565 -0.93775,0.4118 z m -10.600719,2.884613 c 0.56033,0.906591 1.7605,1.648331 2.66709,1.648331 0.9066,0 1.18992,-0.74174 0.62962,-1.648331 -0.56033,-0.906591 -1.7605,-1.648332 -2.66709,-1.648332 -0.9066,0 -1.18993,0.741741 -0.62962,1.648332 z m -35.439559,23.941943 c 0,1.902451 8.710821,4.095784 10.502699,2.644502 1.02297,-0.828521 3.34345,-1.871052 5.15664,-2.316742 1.81319,-0.445451 -0.96841,-0.896371 -6.181313,-1.001541 -5.212913,-0.10528 -9.478026,0.19812 -9.478026,0.673781 z m -2.428201,10.60177 c -0.495035,0.80099 1.516018,3.347313 4.469059,5.658395 4.522093,3.539073 5.512032,3.794754 6.274745,1.620362 0.817892,-2.331583 1.117143,-2.326663 3.090236,0.0498 1.80368,2.173272 1.80561,2.632292 0.0112,2.632292 -1.19544,0 0.34277,2.596163 3.41822,5.769226 3.07547,3.173123 6.74433,5.749295 8.15303,5.724935 1.62539,-0.0311 0.45323,-1.840472 -3.20797,-4.959895 -3.23879,-2.759512 -4.37849,-4.421984 -2.59845,-3.790323 2.45042,0.869521 2.94239,0.53017 2.16548,-1.494702 -0.75432,-1.965691 0.51173,-3.023482 5.07097,-4.236644 l 6.07628,-1.616941 -5.25986,-0.17007 c -2.89292,-0.0935 -5.7119,-0.901801 -6.2644,-1.795742 -1.08195,-1.750692 -8.8291,-1.391471 -11.979173,0.5551 -1.059173,0.654581 -3.409282,-0.29344 -5.222469,-2.106492 -1.813189,-1.813241 -3.701748,-2.641392 -4.196802,-1.840341 z m 4.900727,0.0716 c 0.560326,0.906591 1.34584,1.648331 1.745637,1.648331 0.399779,0 0.726891,-0.74174 0.726891,-1.648331 0,-0.906581 -0.785533,-1.648332 -1.745631,-1.648332 -0.960097,0 -1.287196,0.741751 -0.726897,1.648332 z m 24.725283,26.373695 c 0.56032,0.906591 1.34583,1.648332 1.74563,1.648332 0.39978,0 0.7269,-0.741741 0.7269,-1.648332 0,-0.906651 -0.78554,-1.648392 -1.74564,-1.648392 -0.9601,0 -1.2872,0.741741 -0.72689,1.648392 z m 66.710498,-89.075489 c 1.33363,0.84341 2.07539,1.75923 1.64835,2.03522 -0.42706,0.27599 -5.80714,3.00572 -11.95578,6.06614 -6.14863,3.06048 -11.812249,6.769268 -12.585809,8.24179 -0.77357,1.472521 -1.9143,7.133286 -2.5349803,12.579422 -1.0202499,8.952318 -0.7167699,10.50882 3.1640703,16.227515 2.3609,3.479023 3.34004,6.012576 2.17585,5.630175 -1.16419,-0.38252 -3.75631,-3.114933 -5.7602603,-6.072255 -3.0882399,-4.557555 -3.5353899,-7.030667 -2.9339199,-16.227146 0.61639,-9.424609 1.38548,-11.547361 5.8541202,-16.157865 2.82947,-2.919256 7.673089,-6.669526 10.763599,-8.333866 3.0905,-1.66434 5.61909,-3.5992 5.61909,-4.29957 0,-1.73232 3.58443,-1.5623 6.54567,0.31025 z m 21.888399,0.0436 c 4.05637,0.0125 6.18132,0.7818 6.18132,2.23134 0,3.63476 -19.528869,22.252357 -20.550089,19.591095 -1.30987,-3.413483 -1.06143,-21.067555 0.31586,-22.444815 0.65689,-0.65689 2.69672,-0.79065 4.53296,-0.29717 1.83624,0.49341 6.12021,0.90727 9.519939,0.91961 z m -19.368139,14.783408 c 0,6.428236 -0.51347,7.486087 -4.12088,8.489548 -3.36243,0.935251 -3.51412,1.183701 -0.82417,1.349671 1.87146,0.115881 -0.81906,1.895912 -6.2234,4.118274 -5.23606,2.153152 -10.613799,4.822585 -11.950549,5.931956 -1.65203,1.371031 -2.43045,1.434641 -2.43045,0.19874 0,-1.000231 3.52336,-3.652653 7.829669,-5.894325 4.30632,-2.241612 6.71704,-4.083954 5.35715,-4.094044 -1.35989,-0.0125 -4.32692,1.041721 -6.59341,2.337372 -5.823519,3.328993 -6.593409,3.073883 -6.593409,-2.185232 0,-6.871437 14.974919,-19.008468 22.252749,-18.035658 2.73741,0.3657 3.2967,1.68646 3.2967,7.783948 z m -14.32005,4.496994 c 1.1899,0.475971 2.6116,0.417411 3.15934,-0.1302 0.54774,-0.54762 -0.42582,-0.937311 -2.16346,-0.865721 -1.92024,0.0791 -2.31083,0.469741 -0.99588,0.995861 z m 19.38408,13.442773 c -11.72028,11.626801 -21.86732,22.562682 -22.54898,24.301973 -1.19773,3.056003 -1.24508,3.051513 -1.40899,-0.13457 -0.11115,-2.159932 7.09579,-10.48676 20.90062,-24.148393 11.58864,-11.468551 21.811999,-20.92089 22.718599,-21.00537 0.90659,-0.0841 -7.940969,9.359319 -19.661249,20.98618 z m 22.165319,16.635026 c -1.04103,1.860222 -2.12043,1.125141 -4.81099,-3.276353 -1.90786,-3.121103 -3.12888,-6.578126 -2.71339,-7.682327 0.41548,-1.104211 -0.0685,-2.516923 -1.07559,-3.139303 -1.185909,-0.732951 -1.361189,-0.371301 -0.497529,1.026081 0.889029,1.438451 0.690229,1.760101 -0.5964,0.964971 -1.06146,-0.656021 -1.36667,-2.068732 -0.67824,-3.139303 0.68842,-1.070621 1.28147,-3.584424 1.3179,-5.586246 0.0361,-2.001882 1.895979,-5.710665 4.132349,-8.241788 l 4.06612,-4.602034 1.09894,15.638975 c 0.60444,8.601438 0.49498,16.718256 -0.24321,18.037327 z M 37.087911,-81.869418 c 0,0.748591 -1.66896,2.901933 -3.70879,4.785325 -3.00245,2.772032 -4.94836,3.216483 -10.21737,2.333562 l -6.508579,-1.090681 6.508579,-2.758523 c 11.18162,-4.739214 13.92616,-5.383585 13.92616,-3.269683 z m -73.965568,6.326436 c 2.05135,2.486702 1.91648,2.558163 -1.44652,0.766221 -3.83564,-2.043812 -4.78011,-3.508604 -2.26227,-3.508604 0.79559,0 2.46454,1.234102 3.70879,2.742383 z m 86.898168,16.940106 c 0.65871,14.505114 -2.26796,27.225516 -9.2193,40.070338 -6.01216,11.1093911 -10.01308,9.95043 -8.91926,-2.583702 0.19948,-2.285542 -0.52021,-2.747683 -3.03554,-1.949362 -1.89141,0.600571 -3.29696,0.29654 -3.29696,-0.713031 0,-0.9677 1.06653,-1.759411 2.37008,-1.759411 1.35396,0 2.26362,-1.413402 2.12175,-3.296723 -0.14871,-1.974292 -1.43001,-3.296663 -3.19426,-3.296663 -1.62026,0 -2.94593,-0.741811 -2.94593,-1.648402 0,-0.906591 1.16563,-1.648332 2.59027,-1.648332 2.35479,0 2.35479,-0.23549 0,-2.590302 -2.83824,-2.838203 -3.46894,-4.740725 -1.0827,-3.265953 2.71399,1.677361 2.96974,-3.153753 0.28546,-5.392375 -1.43946,-1.200462 -1.76542,-1.759602 -0.72435,-1.242572 2.91963,1.450092 12.66346,-8.435478 11.44479,-11.611221 -0.64626,-1.684151 0.53821,-4.119834 3.20581,-6.592016 2.32694,-2.156582 3.73087,-3.920974 3.11986,-3.920974 -0.61104,0 -0.16142,-1.144081 0.99906,-2.542402 3.61925,-4.360934 5.65386,0.16821 6.28122,13.983103 z m 8.199139,-3.335353 c 5.17938,10.79079 5.41996,12.092672 4.4932,24.312813 -0.53858,7.101317 -2.49827,16.991186 -4.35491,21.977491 -4.507779,12.1062518 -16.781139,35.208324 -23.909579,45.004743 l -5.76072,7.916838 -7.92942,-6.638937 c -4.361189,-3.651343 -8.405199,-6.163085 -8.986689,-5.581645 -0.58151,0.581261 -1.05725,0.31836 -1.05725,-0.58499 0,-0.903161 3.90336,-6.033696 8.674139,-11.401081 20.54058,-23.109422 26.52982,-32.694832 31.76459,-50.837149 2.68771,-9.314899 2.55175,-25.712494 -0.27424,-33.076981 -0.52619,-1.371282 -0.32109,-2.493053 0.45585,-2.492863 0.77694,2.4e-4 3.8752,5.130955 6.885019,11.401701 z M 47.437191,-8.4552679 c -1.92238,3.9567938 -6.76924,11.2138007 -10.7708,16.1266554 -10.56487,12.9708525 -13.48469,17.8294365 -11.75452,19.5596385 0.90222,0.902221 5.45776,-3.898114 11.42148,-12.035231 12.3578,-16.8613664 18.10775,-27.336666 16.10472,-29.339738 -0.90862,-0.908581 -2.89159,1.347111 -5.00088,5.6886751 z M -13.400428,-69.697936 c -1.14616,1.854481 -12.149029,1.620611 -12.149029,-0.258551 0,-0.85861 2.91469,-1.444791 6.47708,-1.302751 3.562399,0.14204 6.114769,0.844541 5.671949,1.561052 z m 37.870439,-0.757761 c 0.4199,0.679951 -1.6981,1.236281 -4.70669,1.236281 -3.008589,0 -6.028149,-0.55633 -6.710149,-1.236281 -0.68199,-0.679941 1.43601,-1.236281 4.70669,-1.236281 3.270669,0 6.290229,0.55634 6.710149,1.236281 z m -30.4379988,32.766541 c -2.01994,2.150162 -4.6997302,3.909324 -5.9550902,3.909324 -1.25536,0 -1.80539,0.771961 -1.2223,1.715432 0.58307,0.94347 2.66671,1.265751 4.6302502,0.7162 2.9312199,-0.820431 3.1276199,-0.6625 1.09754,0.882601 -1.86609,1.420251 -1.9671699,2.086862 -0.41211,2.717843 1.13324,0.45977 2.06044,1.504041 2.06044,2.320422 0,0.816381 -2.59615,0.24608 -5.7692302,-1.266871 -3.17308,-1.513142 -5.76923,-3.365944 -5.76923,-4.117464 0,-0.751401 2.347,-3.463324 5.21557,-6.026406 4.2352902,-3.784224 5.2966202,-6.095796 5.6467802,-12.298692 0.66782,-11.829961 3.0758599,-13.249522 3.6492999,-2.151282 0.42177,8.162978 -0.0779,10.30553 -3.1719499,13.598893 z m 18.0241798,-8.865408 c 1.87978,4.306304 2.77822,7.829677 1.99655,7.829677 -2.52022,0 -8.6386001,-11.532291 -7.5808402,-14.288743 1.26572,-3.298414 1.38547,-3.159923 5.5842902,6.459066 z m 4.47848,-2.143242 c -0.60674,0.981721 -1.87283,1.309231 -2.81356,0.72779 -1.10748,-0.68443 -0.93889,-1.533891 0.47821,-2.409762 2.64521,-1.634811 3.84926,-0.767601 2.33532,1.681972 z m 4.069719,14.917974 c 0,3.519393 -0.73326,6.852066 -1.62947,7.405907 -0.962709,0.594971 -1.192479,-0.13145 -0.561509,-1.775982 0.587359,-1.530651 0.368689,-2.496362 -0.48594,-2.146042 -11.8892702,4.873845 -17.01841002,7.409577 -16.68443,8.248328 0.22291,0.560071 5.7830598,5.675146 12.35587,11.367251 6.572799,5.6920954 11.950549,10.98267045 11.950549,11.7568112 0,3.198103 -3.74867,0.8718808 -13.904099,-8.6280482 l -10.72800002,-10.03553 -4.83401988,3.442134 c -4.9021199,3.490673 -8.4459701,4.4294639 -8.4459701,2.237442 0,-2.736713 14.8485699,-14.738234 22.87687,-18.490498 7.60728,-3.555463 8.517589,-4.503794 7.64818,-7.967797 -0.63034,-2.511493 -0.3675,-3.549164 0.727559,-2.872403 0.94293,0.58251 1.71443,3.939104 1.71443,7.458427 z m -75.824173,1.812802 c 7.421765,6.853316 7.799585,7.426097 2.083315,3.158173 -3.840445,-2.867413 -7.407569,-5.900986 -7.926951,-6.741417 -1.592672,-2.576972 -4.046472,-1.697361 -4.046472,1.450592 0,1.716121 1.921179,3.737623 4.532965,4.769694 l 4.532965,1.791182 -4.532965,0.17569 c -3.064569,0.11837 -4.599801,1.109811 -4.739284,3.059983 -0.113448,1.586531 -0.752053,-0.45354 -1.419061,-4.532944 -1.195629,-7.312957 -0.683822,-11.555901 1.389649,-11.520321 0.58294,0.0125 5.139574,3.785403 10.125839,8.389748 z m 59.3406539,-4.384295 c 0,1.306372 -0.74175,2.833713 -1.64835,3.393984 -0.9065899,0.56007 -1.64834992,-0.508371 -1.64834992,-2.375253 0,-1.866691 0.74176002,-3.393973 1.64834992,-3.393973 0.9066,0 1.64835,1.068871 1.64835,2.375242 z m -4.94504988,2.667123 c 0,0.853081 -0.74176002,1.551082 -1.64834992,1.551082 -0.9066,0 -1.64835,-1.156472 -1.64835,-2.569873 0,-1.413331 0.74175,-2.111342 1.64835,-1.551021 0.9065899,0.56008 1.64834992,1.716741 1.64834992,2.569812 z M -11.949708,-18.626668 c -2.29845,2.298493 -4.06394,2.739763 -6.845089,1.710942 -3.35631,-1.241581 -3.47437,-1.613322 -1.13033,-3.558703 1.439589,-1.194722 2.617429,-3.211183 2.617429,-4.480985 0,-1.859401 0.82268,-1.769631 4.22765,0.461641 4.1369302,2.710612 4.1611802,2.836523 1.13034,5.867415 z m 35.147619,5.061995 c 4.01313,2.828663 7.29659,6.2009661 7.29659,7.4939374 0,2.3657722 -7.148,-2.1678521 -16.483519,-10.4546804 -2.26648,-2.011852 -5.2335102,-3.999033 -6.5934002,-4.415954 -1.74125,-0.53391 -1.00998,-1.530141 2.4725299,-3.368863 4.8469703,-2.559222 4.9556203,-2.529502 5.4781303,1.495691 0.34327,2.644323 3.13143,5.938186 7.829669,9.249869 z m -1.83974,-7.143877 c 0.52158,0.843911 0.1945,2.000322 -0.72689,2.569813 -0.92138,0.56942 -1.67524,-0.12086 -1.67524,-1.534452 0,-2.895392 0.9891,-3.321703 2.40213,-1.035361 z m -83.223781,3.932934 c 0.02866,-1.072621 2.092261,-2.007862 4.585391,-2.078392 2.493129,-0.0704 5.645604,-0.16385 7.005492,-0.20683 9.48467,-0.30216 12.34575,4.623774 4.12088,7.094527 -2.71978,0.817001 -7.782987,2.6858823 -11.25157,4.1529837 -7.436291,3.145273 -9.285975,1.6105715 -9.327585,-7.7392777 -0.02367,-5.339665 0.116625,-5.484575 2.394864,-2.472502 1.331056,1.759792 2.443695,2.322112 2.472528,1.249491 z m -3.24428,5.149595 c 0,1.306361 0.672583,2.7909127 1.49463,3.2989632 0.822041,0.5077505 1.106409,-0.5607005 0.631927,-2.3752422 -1.006505,-3.848894 -2.126557,-4.335394 -2.126557,-0.923721 z m 31.318683,0.786661 c 0,0.832451 0.43286,2.6415723 0.96192,4.0202737 0.71013,1.8505617 -0.8081,2.9832928 -5.80033,4.3276041 -3.71924,1.0014709 -10.211041,3.29916314 -14.426227,5.1060449 -9.70929,4.1618839 -12.760066,1.3969513 -5.828878,-5.2826651 2.469014,-2.3794223 4.68902,-4.1575239 4.933348,-3.9513737 0.24434,0.2062101 4.323999,-0.947521 9.065937,-2.5637025 10.26564,-3.4988334 11.09423,-3.6225634 11.09423,-1.6561814 z M 8.7751618,-3.0269527 C 14.374652,2.1023322 18.956041,6.9237868 18.956041,7.6873375 18.956041,10.36823 15.400922,9.0255988 8.5571918,3.7601938 -4.6675979,-6.414696 -5.8766778,-7.7647372 -3.8984679,-10.1484 c 1.00628,-1.212481 1.97881,-2.204482 2.1611799,-2.204482 0.18235,0 4.9129599,4.1966544 10.5124498,9.3259293 z M 67.33407,-9.9331493 c 0.51067,1.3308513 0.21917,2.8581327 -0.64782,3.3939732 -0.867,0.5357805 -1.57636,-0.5532205 -1.57636,-2.4197223 0,-3.9800936 0.91666,-4.3816246 2.22418,-0.9742509 z m -8.68645,9.1298687 c -1.01397,4.6161244 -0.60624,6.4923462 2.05577,9.460379 4.23416,4.7208446 2.64036,6.4424966 -2.71544,2.9332726 -5.074569,-3.325013 -7.203289,-0.759191 -2.729299,3.289743 4.162799,3.767284 4.113429,7.392147 -0.20024,14.703294 -3.32452,5.634656 -6.43203,6.487607 -6.43203,1.765512 0,-1.241631 -1.23958,-3.497083 -2.7546,-5.012155 -2.57391,-2.573862 -2.56655,-3.041173 0.1122,-7.123187 1.57673,-2.402782 4.04146,-7.150226 5.47717,-10.5499996 1.43571,-3.3997132 3.1469,-6.1812759 3.80264,-6.1812759 0.65575,0 1.661019,-2.3437922 2.233939,-5.2083449 0.57291,-2.8646128 1.35061,-4.8993947 1.7282,-4.5217943 0.3776,0.3775403 0.11738,3.2776631 -0.57826,6.4445561 z m -83.495217,-0.5594505 c 1.41017,3.6748935 -0.78721,5.5937253 -5.11085,4.4630442 -3.30863,-0.8652208 -3.3581,-1.109501 -0.79575,-3.92950373 3.48409,-3.83444367 4.60121,-3.93536377 5.9066,-0.53329047 z M 67.52242,2.996083 c 0.0856,3.3438932 -0.29686,6.0798558 -0.84993,6.0798558 -2.04917,0 -5.26174,-8.11219772 -4.25329,-10.7401402 1.77577,-4.6276344 4.93946,-1.7385417 5.10322,4.6602844 z M -33.758657,5.8400157 c 1.44608,2.7020726 0.86018,5.3569853 -3.00109,13.5989633 -2.63888,5.632725 -5.12799,11.28153 -5.53136,12.552822 -0.45678,1.439621 -3.63682,-1.550962 -8.431295,-7.929048 -6.555637,-8.720928 -7.411426,-10.6992 -5.767244,-13.332003 1.783016,-2.8550223 6.999343,-5.5514849 9.923709,-5.1297745 0.67995,0.0978 1.23626,-0.5638205 1.23626,-1.4700914 0,-3.21773306 9.70112,-1.7847717 11.57102,1.7091316 z m 18.732469,0.8599909 c 0.54226,1.4130213 0.23674,5.9118354 -0.67883,9.9973394 -0.91558,4.085504 -1.24667,8.104598 -0.73574,8.931319 1.00297,1.622851 -2.28785,15.542844 -3.409329,14.421383 -0.37256,-0.37255 -1.4503,-6.196046 -2.39499,-12.941132 -1.11795,-7.982058 -2.6801,-12.983122 -4.4744,-14.324194 -2.31198,-1.728021 -2.35354,-2.060452 -0.25761,-2.060452 1.37454,0 3.92703,-1.439441 5.6722,-3.1987227 3.921759,-3.9535637 5.022809,-4.0983439 6.278699,-0.8255407 z M -70.510887,25.971565 c -0.365638,2.946413 -0.664815,0.53578 -0.664815,-5.357175 0,-5.892826 0.299164,-8.303588 0.664815,-5.357105 0.365638,2.946413 0.365638,7.767867 0,10.71428 z M 14.010982,12.654952 c 0,2.796023 -5.0589402,7.959438 -7.7984302,7.959438 -1.6865999,0 -1.2689499,-1.358951 1.49174,-4.853855 4.0785402,-5.163225 6.3066902,-6.2603958 6.3066902,-3.105583 z m -18.3182899,3.426494 c 1.11045,2.039821 5.6863499,6.211615 10.1686497,9.270668 4.5086902,3.077003 8.1496402,6.841977 8.1496402,8.427198 0,1.575932 2.22528,5.665426 4.945059,9.087879 2.71978,3.422383 4.89803,7.789487 4.84058,9.704649 -0.10417,3.470734 -0.10897,3.471044 -1.47614,0.0953 -0.75441,-1.862701 -4.071109,-5.756955 -7.370459,-8.653838 -8.5580202,-7.514057 -17.4949299,-7.367027 -27.741,0.456661 -5.7352,4.379124 -7.707529,5.171765 -8.397179,3.374543 -0.52201,-1.360321 1.19064,-4.109184 4.069339,-6.531466 2.73389,-2.300433 4.53946,-4.880395 4.01238,-5.733216 -0.52706,-0.852831 -0.15388,-2.047742 0.82929,-2.655412 0.98318,-0.607431 1.38944,-2.142432 0.90279,-3.410614 -0.48662,-1.268181 -0.12086,-2.305782 0.8128,-2.305782 1.0778803,0 1.2915502,-2.707872 0.5853103,-7.417627 -0.8819603,-5.881296 -0.6192003,-7.417557 1.2688099,-7.417557 1.30964,0 3.2897099,1.668952 4.4001599,3.708784 z M -48.116977,41.63091 c 7.76952,11.764971 9.83806,13.562823 11.85324,10.30223 1.54416,-2.498533 3.1092,-1.998512 5.44333,1.739041 1.84118,2.948163 1.62544,3.795944 -1.66393,6.538577 -2.07867,1.733121 -4.38361,3.175803 -5.12208,3.206013 -2.54177,0.10404 -20.910069,-24.343394 -20.910069,-27.830137 0,-3.001113 -3.032006,-3.462943 -5.636341,-0.858621 -2.374984,2.375003 -2.605413,2.308022 -2.605413,-0.75732 0,-2.456483 0.737706,-3.079613 2.737483,-2.312263 2.244516,0.861361 2.534204,0.332681 1.60867,-2.936322 -0.620818,-2.192773 -1.542016,-6.212116 -2.047037,-8.931879 -0.839348,-4.520304 -0.515843,-4.307924 3.765923,2.472562 2.576282,4.079644 8.235579,12.795283 12.576224,19.368119 z M 64.15923,35.775644 c -4.51771,8.869089 -13.855949,20.91298 -19.629089,25.316344 -5.30199,4.044074 -5.46699,4.062574 -10.52479,1.183572 -2.8261,-1.608642 -5.14305,-3.673644 -5.14878,-4.588765 -0.0162,-2.545892 6.24871,-5.979736 7.42802,-4.071554 1.70277,2.755093 5.32127,1.777482 6.22598,-1.682101 0.47417,-1.813232 2.08796,-3.296723 3.58623,-3.296723 1.49827,0 2.3161,-0.660251 1.81738,-1.467162 -0.49871,-0.806911 1.23116,-3.588543 3.84414,-6.181346 C 57.07004,35.717214 63.46154,24.528944 63.46154,20.50144 c 0,-1.448842 0.55633,-3.197733 1.23626,-3.886334 2.64384,-2.677523 2.18002,13.823493 -0.53859,19.160538 z M -27.852987,21.02651 c 0.093,2.039822 0.7559,9.82831 1.47326,17.307677 0.91432,9.533199 0.76567,13.598953 -0.49722,13.598953 -2.86328,0 -10.21099,-10.64961 -10.21099,-14.799534 0,-11.477531 8.75046,-26.739646 9.23492,-16.107096 z m 70.787278,13.125973 c 1.06787,4.862014 0.506,5.866545 -6.85094,12.248861 -4.40782,3.823904 -8.28523,6.681547 -8.61649,6.350296 -0.33124,-0.33144 -0.95869,-3.247013 -1.3943,-6.479506 -0.63216,-4.690934 -0.30278,-5.689485 1.63181,-4.947114 1.56228,0.59932 4.10018,-1.438692 7.13995,-5.734156 2.59386,-3.665353 5.2135,-6.680176 5.82141,-6.699486 0.60792,-0.0187 1.62877,2.348152 2.26856,5.261105 z m -112.88679,13.607873 c -1.233713,4.241444 -1.454529,3.501573 -1.460453,-4.893165 -0.0059,-8.321838 0.224591,-9.114169 1.453475,-4.996955 0.844986,2.831093 0.847933,6.999027 0.0069,9.89012 z m 92.20524,-10.56514 c 0,0.85307 -0.74175,1.551081 -1.64835,1.551081 -0.90659,0 -1.64835,-1.156411 -1.64835,-2.569812 0,-1.413402 0.74176,-2.111402 1.64835,-1.551082 0.9066,0.560081 1.64835,1.716742 1.64835,2.569813 z M 11.880792,55.609843 c -0.30365,4.030674 -6.2094702,3.722544 -7.2823101,-0.38003 -1.09143,-4.173664 -3.1427199,-4.241634 -4.21539991,-0.13956 -0.45403999,1.736361 -2.57283989,3.405323 -4.70836989,3.708783 -2.1355399,0.303401 -4.1358199,1.879032 -4.4450799,3.501254 -0.46145,2.420542 0.20061,2.758022 3.6919499,1.881711 2.75375,-0.69115 4.25423992,-0.38875 4.25423992,0.856621 0,1.058351 -0.74176002,1.465862 -1.64834992,0.905601 -0.9066,-0.56008 -1.64835,-0.29531 -1.64835,0.589351 0,0.88454 0.9272,1.932551 2.06044,2.328962 1.51024991,0.5283 1.29016992,1.589961 -0.82418,3.975924 -1.63807,1.848561 -2.8846199,5.883915 -2.8846199,9.338199 0,5.673725 -0.2786,6.013005 -4.1422799,5.043304 -2.2782603,-0.57191 -5.1546903,-0.19936 -6.3920703,0.827471 -3.225949,2.677343 -4.659319,-3.709963 -1.70636,-7.603707 2.65091,-3.495463 3.04083,-6.054936 0.70225,-4.609574 -0.90659,0.56007 -1.648349,-0.0249 -1.648349,-1.305122 0,-3.920293 3.530809,-12.705892 5.106299,-12.705892 0.81791,0 1.48711,-1.130991 1.48711,-2.513302 0,-1.382382 1.86769,-3.223463 4.1504402,-4.091364 2.28274,-0.867901 4.8443099,-3.403013 5.6923699,-5.633606 l 1.54193993,-4.055603 6.53918987,3.581883 c 4.0809298,2.235382 6.4566001,4.678344 6.3194901,6.498566 z M -4.1208779,47.610396 c 0,0.34203 -1.29808,1.640361 -2.8846199,2.884612 -2.6143799,2.050362 -2.6726799,1.992042 -0.62237,-0.62237 2.1533599,-2.745753 3.5069599,-3.618944 3.5069599,-2.262302 z m -59.3057691,7.409147 c 0.01931,-1.244252 2.13237,1.817421 4.695955,6.803716 3.429983,6.671397 4.90616,12.376392 5.589011,21.599771 0.707291,9.553389 2.129709,14.844904 5.981864,22.25274 6.93114,13.32889 10.93985,17.43297 22.37604,22.90813 11.005009,5.26878 9.878569,7.58658 -1.56337,3.21687 -9.20969,-3.51722 -20.1166,-14.94739 -26.272062,-27.53242 -5.02848,-10.28092 -6.361262,-11.681242 -5.24172,-5.507316 1.851415,10.209966 16.828232,27.550726 30.303322,35.086466 5.97047,3.33884 10.069969,6.33248 9.110009,6.65245 -3.943339,1.31448 -22.239439,-11.58692 -29.759539,-20.98475 -4.266583,-5.33193 -7.895229,-9.55288 -8.063656,-9.37999 -0.906812,0.93113 1.616707,9.2253 2.618446,8.60623 0.654747,-0.40495 5.57679,3.51833 10.93788,8.71782 5.36109,5.1995 12.58927,10.7949 16.06262,12.43433 3.47335,1.63936 5.98905,3.30682 5.59044,3.70542 -1.57716,1.57718 -16.14012,-6.06273 -22.4875,-11.79725 -7.523502,-6.79705 -9.373877,-5.70886 -2.04879,1.20488 5.8173,5.49056 16.02098,10.8805 26.24593,13.86392 7.670379,2.23813 7.692689,2.26386 1.219899,1.40648 -8.140589,-1.07828 -14.628129,-3.50804 -22.664839,-8.48855 -3.39972,-2.10693 -6.18131,-3.25972 -6.18131,-2.56178 0,1.8067 13.09514,9.48094 20.15215,11.80996 3.27464,1.08078 10.011229,2.20342 14.970209,2.49486 4.9589802,0.29157 9.8252801,1.02983 10.81401,1.64093 0.98873,0.61116 3.2143699,0.35261 4.9458599,-0.57379 1.7314899,-0.92672 7.0590901,-2.07416 11.8391101,-2.55 24.079529,-2.39693 40.139189,-17.7515 44.211718,-42.27059 l 1.47275,-8.866835 0.18771,9.890045 c 0.16472,8.68013 -0.56793,11.14403 -5.988619,20.13897 -9.94498,16.50239 -24.94451,24.25656 -50.6843291,26.20174 -24.4493289,1.84763 -48.2605889,-7.18399 -61.3986059,-23.28853 -5.377198,-6.59134 -6.961055,-9.88526 -6.814288,-14.17138 0.119055,-3.47664 0.490487,-4.33987 0.984176,-2.28734 0.436099,1.81318 1.298723,3.83736 1.916881,4.49818 1.509389,1.61358 0.785695,-24.476909 -0.747767,-26.958121 -0.757386,-1.225441 -0.498088,-1.513332 0.697522,-0.774391 1.110433,0.686231 1.903031,0.16198 1.903031,-1.258901 0,-3.801974 -1.835604,-7.649687 -3.649409,-7.649687 -0.906595,0 -1.221396,1.112681 -0.699554,2.472562 0.521824,1.359881 0.284711,2.472502 -0.526932,2.472502 -0.811668,0 -1.870169,-1.298081 -2.352226,-2.884612 -0.482077,-1.586532 -0.494413,-0.288451 -0.02741,2.884612 1.158965,7.875958 2.249942,19.951936 1.340239,14.835176 -0.402956,-2.26647 -1.944486,-7.891219 -3.425623,-12.499423 -2.81945,-8.772089 -1.985435,-17.924448 1.526703,-16.753706 1.074798,0.35822 2.377196,2.443342 2.89421,4.633434 0.517027,2.190152 1.355783,3.247753 1.86392,2.350322 1.495104,-2.640582 -1.915616,-13.321412 -3.457358,-10.82686 -1.880354,3.042483 -2.811732,0.48843 -3.209772,-8.801429 -0.307014,-7.165116 -0.04984,-7.859447 2.215484,-5.979485 2.106279,1.748071 2.569018,1.723961 2.597694,-0.13519 z m 4.910161,68.810997 c 0,0.90659 1.089046,3.08821 2.420107,4.84806 1.331056,1.75978 2.420102,2.45786 2.420102,1.55126 0,-0.90658 -1.089046,-3.0882 -2.420102,-4.84799 -1.331061,-1.75985 -2.420107,-2.45792 -2.420107,-1.55133 z m 42.593878,-65.300454 c -2.56197,3.465253 -4.033699,4.341814 -4.909819,2.924173 -0.92543,-1.497382 -2.66789,-0.993621 -6.69289,1.934972 -2.99294,2.177702 -6.04362,4.957084 -6.77929,6.176426 -0.73566,1.219391 -2.06129,1.769751 -2.94584,1.223071 -2.44538,-1.511342 12.06948,-12.442172 15.43136,-11.621001 1.70487,0.41616 3.602619,-0.591231 4.590959,-2.438233 0.92663,-1.731441 2.42264,-3.148013 3.32448,-3.148013 0.90184,0 -0.007,2.226842 -2.01896,4.948605 z M 59.17087,54.955063 c 0.46694,0.75551 -0.19843,1.373651 -1.47857,1.373651 -1.28013,0 -1.945479,-0.618011 -1.478559,-1.373651 0.466939,-0.755451 1.132279,-1.373582 1.478559,-1.373582 0.34627,0 1.01164,0.618011 1.47857,1.373582 z m -8.120129,6.921406 c -3.85482,4.259504 -13.86113,10.48801 -15.00758,9.341569 -0.47921,-0.47909 1.71762,-2.099882 4.8819,-3.601443 3.16428,-1.501552 7.04828,-4.161074 8.6311,-5.910086 1.58282,-1.749002 3.24874,-3.179973 3.70204,-3.179973 0.45329,0 -0.54008,1.507471 -2.20746,3.349933 z m -51.46282899,-0.60992 c -1.13324001,0.45728 -2.98763991,0.45728 -4.12087991,0 -1.1332399,-0.457281 -0.20603,-0.831391 2.06044,-0.831391 2.26647991,0 3.19367988,0.37442 2.06043991,0.831391 z m 8.24175979,0 c -1.13324,0.45728 -2.9876399,0.45728 -4.1208799,0 -1.13325,-0.457281 -0.20603,-0.831391 2.0604399,-0.831391 2.26648,0 3.19368,0.37442 2.06044,0.831391 z m 6.3413102,6.243456 c 0.90908,0.95649 1.48836,0.1545 1.48836,-2.060382 0,-6.350546 2.67797,-3.903094 4.515449,4.126744 l 1.77417,7.753107 -3.10816,-4.044324 -3.108159,-4.044334 -0.0368,3.708784 c -0.0199,2.039822 -0.54518,3.708783 -1.16667,3.708783 -0.62151,0 -2.94429,-1.668961 -5.1617302,-3.708783 -3.8548799,-3.546114 -3.9384899,-3.555704 -1.90653,-0.21805 1.16884,1.919711 1.61976,4.807504 1.00204,6.417266 -1.3029,3.395293 -2.41152,2.767052 -3.1163699,-1.766012 -0.27337,-1.758172 -1.12694,-4.206744 -1.8968,-5.441405 -1.8536899,-2.972643 2.3105399,-5.583756 5.1486299,-3.228323 1.6466602,1.366551 2.1581202,0.52332 2.3069402,-3.803104 0.11955,-3.475893 0.48837,-4.323614 0.98417,-2.262292 0.4361,1.813172 1.46272,4.001404 2.28132,4.862635 z m 13.763979,-5.827606 c 0.51248,0.829221 0.15239,1.767392 -0.80013,2.084872 -0.95253,0.31773 -1.85675,2.235262 -2.0094,4.261694 -0.4042,5.365895 -2.87269,4.518674 -2.87269,-0.985961 0,-6.188876 3.26604,-9.270049 5.68222,-5.360605 z m -50.899038,7.868798 c -0.56512,2.572862 -3.22202,6.138975 -5.92135,7.947547 -2.69297,1.804272 -4.89843,4.207734 -4.90104,5.340975 -0.006,2.733223 -0.98611,2.599283 -4.78621,-0.65446 -1.7711,-1.516502 -2.74722,-3.818744 -2.21125,-5.215505 0.56955,-1.484232 0.26528,-2.071472 -0.74862,-1.444802 -0.9395,0.580641 -3.10539,-0.58312 -4.81309,-2.585822 -3.053876,-3.581684 -3.052424,-3.601374 0.0883,-1.197401 2.89406,2.215142 3.09195,2.173892 2.11218,-0.440461 -0.59459,-1.586531 -0.36259,-2.884613 0.51553,-2.884613 0.87814,0 1.59662,0.691781 1.59662,1.537252 0,0.845531 1.62291,2.052412 3.60647,2.681952 2.555,0.810891 4.36312,0.209951 6.20172,-2.060322 2.74603,-3.391233 8.72187,-7.255206 9.70307,-6.273985 0.32047,0.32023 0.12142,2.682822 -0.44239,5.249645 z m -23.69417,10.81571 c 1.49479,2.946483 3.0462,8.794698 3.44756,12.996082 0.40134,4.201384 3.03221,12.246551 5.84633,17.878101 2.86806,5.73951 4.00012,9.3126 2.57603,8.1307 -4.91728,-4.08095 -12.03416,-21.612287 -16.168733,-39.829044 -1.400945,-6.172496 0.980893,-5.715835 4.298813,0.824161 z m 50.7791189,2.777332 c 0,9.54996 2.4826599,14.671144 7.7713701,16.030656 l 4.59127,1.180275 -4.12088,1.25048 c -3.0683602,0.93114 -2.12629,1.18856 3.68848,1.00795 4.295139,-0.13332 7.856489,0.45978 7.914099,1.31833 0.1674,2.49418 -11.426099,4.26362 -24.38113899,3.72124 -6.57490981,-0.27537 -11.95266001,0.0561 -11.95055001,0.73576 0.004,1.39128 8.7102801,2.04918 19.7114298,1.48953 l 7.3449502,-0.3738 -6.9520202,6.41808 -6.95201982,6.41809 -5.86743988,-5.53374 c -3.2270899,-3.04354 -6.5563801,-5.53366 -7.3984301,-5.53366 -0.84204,0 -1.53098,-1.03225 -1.53098,-2.2939 0,-1.26157 -1.90709,-2.77247 -4.23798,-3.35746 -2.347129,-0.58936 -3.909939,-1.95585 -3.502749,-3.06329 0.40439,-1.09984 1.75515,-1.71524 3.001719,-1.36767 12.4342302,3.46724 26.1675798,4.4332 26.1675798,1.84053 0,-0.94098 -5.1284799,-1.67799 -11.9505497,-1.71742 l -11.9505501,-0.0692 5.67575,-3.022606 c 6.4079701,-3.412603 8.0527101,-6.490846 8.2193901,-15.383235 0.0945,-5.043745 0.7225299,-6.181276 3.41254988,-6.181276 2.73816992,0 3.29669992,1.098911 3.29669992,6.486116 z m -28.0219689,3.404014 c 0,4.533004 -0.43741,8.241788 -0.97205,8.241788 -1.572,0 -7.15512,-7.243307 -7.21487,-9.360329 -0.0646,-2.287843 4.45385,-7.123187 6.6563,-7.123187 0.84184,0 1.53062,3.708783 1.53062,8.241728 z M 21.515881,83.34803 c 2.34545,2.591672 2.65854,4.051794 1.32549,6.181336 C 18.330992,96.734662 5.0109119,90.828447 8.9925418,83.38871 11.352882,78.978366 17.543192,78.958245 21.515881,83.34511 Z m -8.054349,1.002401 c -1.90126,1.901271 -1.19299,7.144056 0.96154,7.117646 3.77664,-0.0436 6.673919,-2.906912 5.649069,-5.577655 -1.03186,-2.688992 -4.624629,-3.525923 -6.610609,-1.539991 z m -50.607439,8.682868 c 0.93849,1.753622 1.71092,5.276935 1.7165,7.829681 0.006,2.55274 1.11935,6.86663 2.47502,9.58641 l 2.46487,4.94505 -3.24657,-3.8264 c -1.78562,-2.10456 -3.72369,-6.36967 -4.30682,-9.47807 -0.58313,-3.108335 -1.56051,-5.651598 -2.17194,-5.651598 -0.61141,0 -1.11168,-1.483491 -1.11168,-3.296673 0,-4.183314 1.97242,-4.234464 4.18062,-0.1084 z m 31.3766692,-1.582292 c 0,1.935162 -8.6993002,6.635757 -12.2807802,6.635757 -1.404899,0 -2.554379,-0.741811 -2.554379,-1.648392 0,-0.906591 1.66896,-1.671951 3.708789,-1.700791 2.03984,-0.0312 5.14864,-1.141462 6.9084603,-2.472503 3.7748099,-2.855143 4.2179099,-2.940683 4.2179099,-0.814071 z m 29.1158188,4.163194 c -0.7241,2.198752 -5.377399,2.995943 -10.290139,1.762902 -6.4496102,-1.618741 -4.5846602,-3.502063 3.42124,-3.454903 4.186109,0.0249 7.175499,0.76105 6.868899,1.692001 z m -52.538798,6.594769 c 0.27991,4.34211 -0.2325,7.41624 -1.23626,7.41624 -0.94291,0 -1.77114,-0.92721 -1.8405,-2.06045 -0.0693,-1.13323 -0.3981,-3.51869 -0.73057,-5.30103 -0.4627,-2.480665 1.62475,-7.481789 3.11896,-7.472389 0.11563,7.5e-4 0.42538,3.338663 0.68837,7.417629 z m 59.248408,2.56364 c -1.96279,3.67725 -6.7468,9.29011 -10.63113,12.47301 -7.708789,6.31678 -8.327739,8.72891 -4.556099,17.75568 2.44004,5.83987 2.40322,6.03773 -1.39257,7.48086 -2.14438,0.81532 -5.1619502,2.74543 -6.7056902,4.28916 -1.5437499,1.54379 -3.0440599,2.53305 -3.3340299,2.1985 -0.28994,-0.33455 -1.01139,-5.05888 -1.6031599,-10.49842 -1.01291002,-9.31079 -0.78587,-10.2418 3.8756698,-15.8934 2.72339,-3.30184 9.0944402,-8.75314 14.1578992,-12.1141 5.65344,-3.75252 8.87964,-6.96202 8.35986,-8.31655 -0.4655,-1.21316 0.41056,-2.537045 1.94684,-2.941925 1.53629,-0.404951 2.94127,-0.822301 3.12219,-0.927461 0.18092,-0.10529 -1.27698,2.817396 -3.23978,6.494646 z m -33.1934089,21.64456 c 1.5182499,2.93595 2.28768992,8.02287 1.9843399,13.11869 l -0.49547,8.32328 -4.3808698,-3.45759 c -4.7192102,-3.72467 -8.9175802,-4.65699 -7.0001902,-1.55457 0.72871,1.17903 0.45218,1.45558 -0.72689,0.72692 -2.49688,-1.54317 -2.40632,-3.53958 0.28247,-6.22838 1.20204,-1.20208 2.67961,-4.65592 3.28349,-7.67536 1.1711202,-5.85557 -1.74423,-9.92781 -12.725849,-17.77573 -2.87954,-2.05784 -4.30475,-4.19497 -3.57979,-5.36802 1.53857,-2.48944 19.8479392,13.10162 23.3587391,19.89076 z m -15.5537701,-8.25331 c 2.57399,2.88306 4.68,6.55639 4.68,8.16285 0,2.76369 -0.39336,2.77509 -7.307659,0.21244 -7.56426,-2.80349 -9.84277,-6.24196 -7.23006,-10.91059 2.21693,-3.96146 4.60602,-3.347 9.857719,2.53524 z m 50.187609,-0.70898 c 1.20436,1.58653 2.21333,3.35929 2.24216,3.93936 0.0598,1.20457 -13.88546,8.01121 -16.413119,8.01121 -4.06681,0 -1.2108,-6.78409 4.485539,-10.65485 7.31698,-4.97203 6.93363,-4.92076 9.68542,-1.29572 z m 7.23964,12.79554 c 0,0.74599 -17.58084,9.04515 -19.16115,9.04515 -0.34047,0 -0.61907,-0.67994 -0.61907,-1.51096 0,-1.16021 8.83229,-4.92188 19.36813,-8.24902 0.22665,-0.0716 0.41212,0.24983 0.41212,0.71483 z m -44.9519288,18.2828 c -0.54774,0.54762 -1.96943,0.60618 -3.1593399,0.13021 -1.3149403,-0.52644 -0.9243503,-0.91681 0.9958899,-0.99587 1.73763,-0.0716 2.71119,0.31836 2.16345,0.86572 z"
       id="path1425" /></g></svg>
