<?xml version="1.0" encoding="UTF-8" standalone="no"?>
<!-- Created with Inkscape (http://www.inkscape.org/) -->

<svg
   width="210mm"
   height="297mm"
   viewBox="0 0 210 297"
   version="1.1"
   id="svg1444"
   xml:space="preserve"
   inkscape:version="1.2.2 (732a01da63, 2022-12-09)"
   sodipodi:docname="Idun.svg"
   xmlns:inkscape="http://www.inkscape.org/namespaces/inkscape"
   xmlns:sodipodi="http://sodipodi.sourceforge.net/DTD/sodipodi-0.dtd"
   xmlns="http://www.w3.org/2000/svg"
   xmlns:svg="http://www.w3.org/2000/svg"><sodipodi:namedview
     id="namedview1446"
     pagecolor="#ffffff"
     bordercolor="#000000"
     borderopacity="0.25"
     inkscape:showpageshadow="2"
     inkscape:pageopacity="0.0"
     inkscape:pagecheckerboard="0"
     inkscape:deskcolor="#d1d1d1"
     inkscape:document-units="mm"
     showgrid="false"
     inkscape:zoom="1.1893044"
     inkscape:cx="365.76002"
     inkscape:cy="488.52085"
     inkscape:window-width="2560"
     inkscape:window-height="1494"
     inkscape:window-x="-11"
     inkscape:window-y="-11"
     inkscape:window-maximized="1"
     inkscape:current-layer="layer1" /><defs
     id="defs1441" /><g
     inkscape:label="레이어 1"
     inkscape:groupmode="layer"
     id="layer1"><path
       style="fill:#000000;stroke-width:1.51514"
       d="M -70.928686,-150.65094 -75,-146.40142 l 0.01145,74.916307 c 0.01145,72.8531089 0.09506,75.0414865 3.09506,79.4617116 7.238642,10.6650284 9.724288,25.0151124 6.020386,34.7570314 -1.213904,3.192746 0.01145,8.047321 6.811217,26.95587 6.282202,17.47274 8.530598,26.008141 9.277449,35.21927 0.904844,11.16014 1.539283,12.96553 7.732553,22.00595 7.932982,11.57983 20.681494,21.53225 33.0187339,25.77685 8.57738009,2.95103 8.6793101,2.95086 17.7727702,-0.0344 11.7364099,-3.85285 23.8413699,-13.23457 32.2126009,-24.9658 5.71969,-8.01544 6.80767,-10.80144 8.0269,-20.55458 1.0097,-8.077043 4.04549,-17.690002 10.68537,-33.836024 9.55237,-23.228164 10.73186,-29.254838 7.00225,-35.77909 -3.63289,-6.355093 -2.71053,-13.869635 3.03029,-24.687553 L 75,2.8412143 V -71.545573 c 0,-74.141627 -0.0115,-74.401607 -3.31518,-78.870847 l -3.31525,-4.48408 H 0.75709901 -66.855711 Z m 23.443155,-1.31114 c -18.142762,0.82428 -18.80549,0.97551 -22.348305,5.10059 -2.008055,2.33807 -3.651046,3.739 -3.651046,3.11315 0,-0.62585 1.83208,-3.05022 4.071314,-5.38743 4.05591,-4.23348 4.140261,-4.24848 22.348248,-3.96267 l 18.276989,0.28689 z m 53.1665701,-0.29835 c -6.0416401,0.28747 -15.9278701,0.28747 -21.9695001,0 -6.04163,-0.28747 -1.09846,-0.52283 10.9847499,-0.52283 12.0832002,0 17.0263201,0.23536 10.9847502,0.52283 z m 15.8773499,-0.20959 c -0.50336,0.50336 -1.81026,0.55719 -2.90402,0.11969 -1.20864,-0.48389 -0.84964,-0.84266 0.91544,-0.91539 1.59718,-0.0658 2.49206,0.29263 1.98858,0.79582 z m 40.211561,0.0785 c -1.02579,0.41517 -3.07124,0.44036 -4.54541,0.0573 -1.47418,-0.38425 -0.6349,-0.72372 1.86506,-0.75458 2.49996,-0.0286 3.70614,0.28346 2.68035,0.69846 z m 6.81643,2.03639 c 1.04085,1.66664 1.65141,3.03029 1.35683,3.03029 -0.29434,0 -1.7696,-1.36365 -3.2779,-3.03029 -1.50831,-1.66663 -2.11892,-3.03029 -1.3569,-3.03029 0.76203,0 2.23712,1.36366 3.27797,3.03029 z m -118.131219,3.71478 c 2.750497,0.43407 4.690349,0.2869 4.310911,-0.32698 -0.379667,-0.614 5.211003,-1.0168 12.423247,-0.89511 7.21224,0.12197 22.48809,0.36878 33.9463,0.54917 11.45822,0.18038 20.83313,0.93319 20.83313,1.67328 0,0.74015 -0.7705,1.34567 -1.71216,1.34567 -1.13196,0 -1.45287,2.30091 -0.94694,6.78973 0.52913,4.69173 0.1214,7.32396 -1.31807,8.51874 -2.95613,2.4534 -2.58271,4.75099 0.60764,3.73843 2.33493,-0.74107 2.61329,-0.0401 2.10386,5.30239 -0.55776,5.84703 -0.82616,6.14086 -5.34248,5.8452 -2.61547,-0.17122 -5.9779499,0.20787 -7.4722299,0.84317 -4.3914801,1.86621 -4.8975901,-0.42834 -1.1981,-5.43243 3.5761499,-4.83706 5.6411199,-10.22186 7.6402499,-19.92346 1.02075,-4.9537 0.80858,-5.68177 -1.65605,-5.68177 -2.35268,0 -2.8382799,1.20715 -2.8951499,7.19689 -0.0401,3.95833 -1.00494,9.24233 -2.14967,11.7423 -1.98446,4.33392 -2.08702,3.99903 -2.20436,-7.19689 -0.10308,-9.83646 -0.52741,-11.7423 -2.6148401,-11.7423 -2.15212999,0 -2.36589999,1.34814 -1.56831,9.8896 0.51023,5.46107 0.2428,11.68062 -0.59715999,13.88927 -1.06920002,2.81217 -1.01795001,4.31045 0.17294,5.04631 0.93129999,0.57557 -1.24512002,1.44061 -4.83649011,1.92232 -3.59143,0.4816 -6.6948499,0.71083 -6.8965399,0.50909 -1.52073,-1.52072 3.2659899,-11.27341 6.4945399,-13.23238 l 3.97488009,-2.41178 -4.70157009,-5.35478 c -2.58586,-2.94509 -4.70158,-6.45789 -4.70158,-7.80625 0,-1.3483 -0.6817899,-2.45146 -1.5151199,-2.45146 -0.90839,0 -1.51511,6.02651 -1.51511,15.04929 0,13.69601 -0.27144,15.13535 -3.01672,16.0067 -1.6592,0.52684 -3.72664,0.51882 -4.59438,-0.0172 -0.86768,-0.536 -12.06167,-0.92683 -24.875581,-0.86797 l -23.297931,0.10709 -0.01145,-14.75998 c -0.01145,-20.17726 0.63381,-20.78261 19.129725,-17.86329 z m 27.574598,16.86579 c 0,10.94379 0.46671,14.36406 1.89393,13.88664 1.33129,-0.44552 1.89392,-4.75849 1.89392,-14.51902 0,-10.09776 -0.51653,-13.88583 -1.89392,-13.88658 -1.38347,-8e-4 -1.89393,3.91245 -1.89393,14.51896 z m 58.18052,-17.60818 c 2.479801,0.94282 4.157101,0.93257 4.751451,-0.0286 0.9297,-1.50435 16.34086,-0.72812 19.07343,0.96068 0.80292,0.49649 2.39173,0.12885 3.53068,-0.81631 1.73152,-1.43707 2.03096,0.96176 1.82755,14.64214 -0.19813,13.32269 -0.66524,16.39862 -2.51594,16.56475 -1.24998,0.11223 -2.61363,0.36477 -3.03029,0.56176 -0.41689,0.19642 -3.9195,0.56693 -7.78409,0.82325 -6.52873,0.43234 -6.9758,0.23191 -6.31032,-2.83434 0.67888,-3.1281 0.55662,-3.10324 -2.34907,0.47817 -2.73314,3.36855 -3.17511,3.49172 -4.07893,1.13631 -1.08786,-2.83485 -6.750061,-3.70476 -6.750061,-1.03701 0,0.88251 -0.63466,1.2123 -1.41043,0.73287 -0.77571,-0.47931 -1.83867,-0.17866 -2.36213,0.66811 -2.32341,3.75939 -4.58538,1.12783 -5.00284,-5.82036 -0.38826,-6.45862 0.0286,-7.66852 3.4091,-9.88301 2.11812,-1.38787 3.85119,-3.64921 3.85119,-5.02528 0,-2.07872 -0.60902,-1.92978 -3.60054,0.88062 l -3.60048,3.38252 1.10893,-6.06447 c 0.70156,-3.83652 0.49363,-6.72777 -0.56635,-7.86992 -1.27111,-1.37007 -0.8533,-1.60738 1.7325,-0.98399 1.87417,0.45182 3.78934,0.20386 4.25605,-0.55146 1.05099,-1.7006 1.12864,-1.69946 5.82036,0.0842 z m -1.23721,24.0967 c -0.65265,1.05602 -0.77749,2.32925 -0.27716,2.8294 1.35603,1.35598 2.834501,-0.63833 2.10208,-2.83553 -0.51309,-1.53962 -0.87008,-1.53842 -1.82464,0.006 z M 73.4834,-72.003032 V 0.10963732 L 68.31924,9.346017 c -6.75321,12.078497 -7.98492,18.853119 -4.85155,26.68415 1.342,3.354017 2.44006,8.059871 2.44006,10.457499 0,2.397577 -4.09995,14.463984 -9.11092,26.81415 -6.74817,16.631571 -9.36215,25.158042 -10.07968,32.878394 -0.85903,9.24239 -1.74229,11.47424 -7.7956,19.69702 -3.754751,5.10042 -8.252861,10.47354 -9.995901,11.9402 -8.09813,6.81425 -14.82872,10.66148 -21.9279799,12.53422 -6.54464009,1.72642 -8.8124501,1.70787 -14.9331702,-0.12255 -10.9366999,-3.27052 -22.3157799,-11.9295 -30.5446469,-23.24321 -7.010212,-9.63816 -7.422005,-10.75179 -8.469268,-22.90387 -1.048866,-12.171095 -2.77701,-17.981658 -13.731751,-46.170967 -3.28037,-8.441141 -3.430061,-10.017759 -1.918493,-20.202278 1.898793,-12.792985 0.582958,-19.005028 -6.445064,-30.4269857 -2.442067,-3.9688656 -4.440158,-8.07648098 -4.440158,-9.1280398 0,-3.1937764 4.382836,1.29149856 7.792109,7.9742611 1.663892,3.2614764 3.344105,5.6110534 3.733851,5.2213044 0.946534,-0.946529 -2.694777,-9.0389801 -4.926453,-10.94853801 -2.405932,-2.05861769 -4.486313,-12.10913699 -2.216099,-10.70608799 0.922425,0.5703593 1.677121,2.1003076 1.677121,3.4004461 0,1.3000886 2.386348,6.29216302 5.30297,11.0934877 2.91668,4.8013246 5.278862,10.3449682 5.249313,12.3192962 l -0.05154,3.589596 -2.282241,-3.787796 -2.282183,-3.787846 1.199531,3.787846 c 1.678438,5.299994 1.112316,26.91001 -0.764545,29.181938 -1.800012,2.179107 -1.037929,4.452015 13.274891,39.590306 3.734366,9.168059 4.726197,13.582845 4.254734,18.939237 -0.493625,5.60945 0.272581,8.62496 3.891272,15.31769 12.67126,23.43351 33.4392299,34.01516 51.27505,26.12554 6.62459,-2.93037 20.93397,-15.12431 20.93397,-17.83924 0,-0.72818 2.12207,-3.51338 4.71572,-6.18932 5.701361,-5.88236 4.741771,-9.20849 -1.69619,-5.87927 -2.41132,1.24694 -4.92943,2.237 -5.59577,2.20018 -0.66639,-0.0344 1.36635,-1.42762 4.51718,-3.0906 3.150891,-1.66303 6.309291,-2.66494 7.018691,-2.22652 0.7094,0.43865 1.31761,-3.11389 1.35163,-7.89408 0.0676,-9.460748 5.92967,-28.112518 14.01756,-44.598129 4.98177,-10.154279 6.90324,-18.64243 4.54942,-20.097138 -0.78688,-0.486179 -1.8925,-3.963586 -2.4569,-7.727211 -1.15303,-7.689252 3.45995,-22.9522548 8.60659,-28.4764886 2.70921,-2.90797678 2.85724,-6.0781633 2.6946,-57.7063054 -0.2554,-81.031688 -0.0515,-92.057828 1.671,-90.992528 0.97579,0.60306 1.51517,26.60833 1.51517,73.049128 z M -6.5666911,-130.05797 c 0.27773,1.58017 -0.34703,3.17105 -1.38851,3.53532 -1.26504,0.44208 -1.89392,-0.98966 -1.89392,-4.31252 0,-5.15579 2.33601,-4.60266 3.28243,0.7772 z m -52.5243989,20.6115 c -0.581354,0.94069 2.256987,1.51512 7.486257,1.51512 8.712587,0 10.202451,1.18217 5.943937,4.71645 -3.715698,3.08372 -10.178857,13.803657 -10.402019,17.253013 -0.741639,11.462557 -0.142017,11.062558 -6.816027,4.545405 -5.791383,-5.655144 -6.060529,-6.338023 -6.060529,-15.376153 0,-8.775905 0.300641,-9.616555 4.166603,-11.652905 5.092178,-2.68212 6.919791,-3.00412 5.681778,-1.00093 z m 36.994579,0.9707 c 0.34703,0.29949 -2.15723,0.54459 -5.56547,0.54459 -9.808412,0 -19.266018,9.768937 -23.945086,24.73336 -1.162365,3.717416 -2.020138,4.997225 -2.079693,3.102907 -0.261701,-8.332511 10.229079,-24.337097 18.625277,-28.413847 4.046862,-1.96493 10.667672,-1.94798 12.964972,0.0344 z m 31.1865901,-0.9707 c -0.51481,0.83332 -2.43021,1.44714 -4.25605,1.36411 -3.0902501,-0.1403 -3.0579001,-0.23479 0.46843,-1.36411 2.0833,-0.6672 3.99853,-1.28108 4.25605,-1.36411 0.25769,-0.083 0.0458,0.53084 -0.46843,1.36411 z m 15.4732399,0.57442 c 0.51767,0.51711 -2.24107,0.9407 -6.12988,0.9407 -3.88887,0 -7.07063,-0.61045 -7.07063,-1.35661 0,-1.47973 11.67268,-1.11198 13.20051,0.41574 z m 17.102201,-0.74639 c 0,1.85453 9.47759,3.14396 11.45936,1.55904 0.886,-0.70865 4.12463,-0.88051 7.19689,-0.38196 5.39403,0.87536 5.58598,1.12234 5.58598,7.18927 0,3.455486 -0.94201,7.627582 -2.09332,9.27131 -1.15132,1.643738 -2.32433,3.670456 -2.60665,4.503775 -0.28232,0.833319 -2.52579,3.208556 -4.98555,5.278284 -3.51218,2.955337 -4.62839,3.294626 -5.19972,1.580748 -2.70274,-8.108321 -10.88671,-20.920727 -15.026121,-23.524227 -5.84973,-3.67921 -6.3575,-5.98933 -1.022,-4.65025 2.538501,0.63713 3.572361,0.42834 2.940841,-0.59332 -0.535431,-0.86671 0.0888,-1.57582 1.38816,-1.57582 1.29917,0 2.36213,0.60443 2.36213,1.34315 z m -42.849531,2.31545 c -2.45134,1.85956 -2.17378,2.14468 3.03024,3.11298 8.33211,1.55028 19.33336,6.586846 23.06589,10.559942 l 3.24149,3.450386 -3.65718,2.396257 c -3.57333,2.341338 -10.82188,1.937218 -9.30402,-0.518819 0.4209,-0.680999 0.11911,-1.637318 -0.66994,-2.125158 -2.65945,-1.643678 -3.47868,2.359138 -1.03541,5.058955 3.04908,3.369236 3.06591,4.709414 0.059,4.709414 -1.29917,0 -1.94071,0.68185 -1.42572,1.515169 1.47646,2.388927 -0.99693,1.768168 -4.0831099,-1.024809 -1.97805,-1.790108 -3.281,-2.065488 -4.4135901,-0.932909 -1.13265,1.132589 -0.67762,2.258017 1.5412901,3.812186 3.43481,2.405817 2.73698,4.206055 -1.6303401,4.206055 -1.96156,0 -2.77774999,1.126229 -2.77774999,3.832806 v 3.832795 L -13.524721,-65.631339 c -11.46182,-0.17122 -14.12304,-0.62653 -13.47898,-2.304908 0.44151,-1.150229 -0.32011,-2.522177 -1.69281,-3.048786 -3.43109,-1.316639 -4.711367,0.376799 -2.39494,3.168066 1.65714,1.996718 1.17365,2.309327 -3.571905,2.309327 -5.262485,0 -5.48851,0.21818 -5.48851,5.302965 0,2.916616 0.511377,5.229204 1.136367,5.139064 2.907804,-0.41918 7.954458,2.256697 7.954458,4.217855 0,1.201989 -0.6818,1.764048 -1.51512,1.249009 -2.338073,-1.444969 -1.815186,0.640219 1.66475,6.639292 l 3.17993,5.481804 -3.22918,-3.787846 c -1.77601,-2.083297 -4.222662,-5.833293 -5.437024,-8.33325 -1.888887,-3.888866 -2.083417,-3.998296 -1.346702,-0.757559 2.229385,9.806339 15.431946,22.712824 25.622546,25.047922 12.86499001,2.947886 19.0093001,1.814438 30.14357,-5.560604 8.11668,-5.376204 15.38619,-15.130543 13.98927,-18.770939 -0.50393,-1.313889 -0.31439,-2.016528 0.42261,-1.561329 1.72248,1.064499 3.49483,-3.467046 2.18495,-5.586423 -0.58731,-0.950259 -0.27831,-1.168549 0.75263,-0.53142 1.17938,0.728869 1.74922,-0.458119 1.74922,-3.643136 0,-3.023246 0.594581,-4.356835 1.651241,-3.703786 3.95907,2.446878 -3.332251,22.489665 -11.198411,30.782946 -15.68351,16.535032 -43.80527,16.093172 -58.74572,-0.923049 -5.731541,-6.527923 -11.999657,-19.978598 -12.032527,-25.820541 -0.01718,-2.877397 -0.415171,-3.504616 -1.320875,-2.075628 -0.725261,1.144439 -0.695713,4.486315 0.067,7.575642 0.750458,3.040366 1.633771,6.654412 1.962873,8.031241 0.329274,1.376818 1.690578,4.615385 3.025541,7.196882 2.34758,4.539745 1.788157,5.840173 -1.520387,3.533996 -0.878388,-0.612219 -3.121287,-4.083626 -4.984233,-7.714281 -1.862946,-3.630596 -7.173933,-11.721507 -11.802206,-17.97982 -4.628217,-6.258313 -7.686341,-10.928448 -6.795755,-10.378009 0.890585,0.55031 4.814671,5.232294 8.720203,10.404179 9.145568,12.111086 9.640853,12.654235 9.640853,10.572258 0,-0.940459 -1.020062,-2.729997 -2.266836,-3.976766 -3.278709,-3.278706 -5.510041,-9.767509 -3.735798,-10.864018 0.801481,-0.495349 1.457223,-2.183807 1.457223,-3.752056 0,-1.568318 0.787165,-3.337926 1.749274,-3.932565 1.157441,-0.715349 1.334504,-0.41001 0.523403,0.902269 -0.811102,1.312338 -0.634039,1.617618 0.523402,0.902269 2.145434,-1.325969 2.322555,-5.447674 0.234214,-5.447674 -3.381786,0 -1.420345,-6.026623 2.262197,-6.950872 2.077575,-0.52112 3.419352,-1.527379 2.98179,-2.235398 -0.437505,-0.708029 -1.908357,-0.860349 -3.268401,-0.338439 -1.652898,0.634269 -2.109472,0.361339 -1.377167,-0.82376 0.602543,-0.974928 2.890109,-1.772628 5.083531,-1.772628 3.831889,0 3.872891,-0.0871 1.046919,-2.224517 -2.293693,-1.734848 -2.43153,-2.235108 -0.626308,-2.272678 1.273116,-0.0286 3.531019,-1.468668 5.017505,-3.204776 1.486543,-1.736098 3.661645,-2.788576 4.833625,-2.338867 1.17199,0.449529 2.53386,0.165489 3.0264,-0.631239 0.49248,-0.79695 0.17351,-1.44897 -0.70905,-1.44897 -2.81046,0 -1.72317,-2.64588 1.42572,-3.46929 1.66664,-0.43578 3.0303,-0.27601 3.0303,0.35447 0,0.631 2.38629,0.40028 5.30297,-0.51252 2.91662,-0.91285 5.30297,-2.17475 5.30297,-2.8042 0,-0.6294 3.57952,-1.12268 7.9544499,-1.09623 7.00735011,0.0401 7.6332001,0.29206 5.2560701,2.09533 z m -19.67391,4.55039 c -5.30675,2.66998 -10.45522,4.585607 -11.44104,4.257017 -0.98576,-0.328699 -1.844506,-0.0286 -1.908299,0.665139 -0.643144,7.005103 -7.162195,16.984492 -10.490037,16.058293 -1.745381,-0.48561 -1.818508,-0.31209 -0.314958,0.747939 1.473658,1.039189 1.606628,2.943076 0.537719,7.699901 -0.831946,3.702866 -0.858346,6.666383 -0.06356,7.157492 0.745877,0.46098 1.402134,0.627389 1.458368,0.36993 0.05727,-0.25769 0.395129,-2.720147 0.75355,-5.472464 1.900569,-14.602224 16.826297,-30.383757 31.117297,-32.901477 6.2545399,-1.10195 6.8671099,-1.6404 3.0125999,-2.64838 -1.72689,-0.45182 -7.1311599,1.28411 -12.6614699,4.06661 z m 13.6532899,3.890298 c -3.3344799,2.622907 -4.0623799,2.722147 -5.6789699,0.774279 -1.01989,-1.228849 -2.50328,-1.833168 -3.29646,-1.342979 -0.82582,0.51023 -0.43464,2.004618 0.91544,3.496426 2.15838,2.384968 2.00668,2.861067 -1.7952,5.633664 -4.7593,3.470836 -10.00792,5.700614 -8.79362,3.735796 0.45068,-0.729379 -0.13514,-2.118288 -1.30157,-3.086527 -3.29377,-2.733537 -4.70988,1.047839 -1.65605,4.422235 2.40341,2.655717 2.34775,2.927267 -0.98794,4.821705 -1.94409,1.104129 -4.480012,2.014298 -5.635277,2.022598 -1.27764,0.0115 -2.322785,2.089487 -2.667806,5.310014 l -0.567497,5.294834 3.804117,-4.402305 c 2.092293,-2.421217 3.804173,-3.803596 3.804173,-3.071917 0,0.731729 1.05305,-0.17294 2.34008,-2.010637 1.28709,-1.837518 5.20751,-5.378204 8.71207,-7.868202 9.21572,-6.547732 20.29071,-16.639482 18.31856,-16.692282 -0.92929,-0.0229 -3.4107601,1.30862 -5.5143301,2.963298 z m 11.8594802,1.358668 c -0.50451,0.816189 -0.22448,1.912248 0.6227,2.435647 2.49074,1.539399 1.77876,2.923667 -2.5339201,4.926275 -3.42176001,1.588928 -4.48322,1.488718 -6.8420901,-0.646009 -1.96774,-1.780768 -3.26639,-2.052318 -4.39904,-0.919729 -1.13259,1.132648 -0.58467,2.323127 1.85596,4.032595 l 3.4629901,2.425577 -4.3145801,4.503425 -4.3145699,4.503435 -3.74422,-2.945136 c -5.01298,-3.943206 -7.52119,-2.083068 -3.27945,2.432047 l 3.36672,3.583746 -3.63157,3.024107 c -2.78491,2.319117 -3.06053,3.035906 -1.18218,3.074556 2.26598,0.0458 11.4183599,-7.644011 28.5212401,-23.966073 3.7993099,-3.625786 5.6281799,-6.170813 4.0642699,-5.655594 -1.56396,0.51538 -3.7191299,0.21016 -4.7892999,-0.678079 -1.24752,-1.035289 -2.27491,-1.082249 -2.86296,-0.13114 z m -14.2766902,27.37494 c 0.33328,0.999958 1.10035,1.767018 1.70449,1.704488 1.8117,-0.18726 1.46084,-2.265568 -0.49247,-2.916617 -0.99997,-0.33328 -1.54542,0.21188 -1.21208,1.212129 z M 32.195939,-103.47145 c 3.98433,3.32389 4.2182,4.125888 1.20297,4.125888 -1.21333,0 -1.88373,-0.521689 -1.48975,-1.158928 0.39398,-0.63748 -0.81047,-2.22836 -2.67651,-3.53537 -1.86598,-1.30696 -2.72971,-2.35364 -1.91929,-2.32593 0.81041,0.0286 3.00756,1.33015 4.88258,2.89434 z m 9.469581,12.206599 c 0,0.833319 -0.72206,1.515118 -1.60457,1.515118 -0.88251,0 -1.18315,-0.681799 -0.66811,-1.515118 0.51481,-0.833319 1.23704,-1.515118 1.60457,-1.515118 0.36764,0 0.66811,0.681799 0.66811,1.515118 z m -9.201351,7.943221 c -0.52569,4.030136 0.19699,5.693004 2.47471,5.693004 1.78993,0 2.24994,1.319318 1.89393,5.431974 l -0.47015,5.431924 -17.02168,0.445529 c -9.3619799,0.24509 -16.66166,-0.13687 -16.22158,-0.848839 0.44037,-0.712089 5.0316501,-4.532065 10.20354,-8.48885 5.17189,-3.956836 11.08777,-8.734161 13.14639,-10.616288 3.14184,-2.872527 3.94367,-3.063337 4.99316,-1.187909 0.6877,1.228739 1.13849,3.091456 1.0018,4.139285 z m -10.93063,3.656256 c -0.88005,1.424009 9.4213,11.127558 11.81309,11.127558 0.52225,0 -0.5068,-2.045448 -2.28705,-4.545405 -1.78014,-2.499967 -4.15613,-4.545405 -5.2799,-4.545405 -1.12382,0 -2.31619,-0.818719 -2.64971,-1.819308 -0.40772,-1.223469 -0.93067,-1.294649 -1.59643,-0.21761 z m -8.42832,8.021501 c 0.33328,1.000019 1.10034,1.767028 1.70449,1.704548 1.81169,-0.187249 1.46083,-2.265567 -0.49248,-2.916616 -0.99996,-0.33328 -1.54541,0.211879 -1.21207,1.212068 z M 38.68522,-84.446768 c 2.05604,2.803066 2.02391,2.874356 -0.42892,0.950888 -1.458311,-1.143698 -2.651481,-2.791446 -2.651481,-3.661585 0,-0.870199 0.19298,-1.298079 0.42891,-0.950879 0.23593,0.347019 1.42894,1.994937 2.651491,3.661576 z m 6.01059,-2.272678 c 0,0.833319 -0.6416,1.515118 -1.42573,1.515118 -0.78413,0 -1.84708,-0.681799 -2.36212,-1.515118 -0.51481,-0.833319 0.12655,-1.515118 1.42573,-1.515118 1.29917,0 2.36212,0.681799 2.36212,1.515118 z m 20.2701,4.957885 c -1.56528,0.829549 -4.71388,3.242286 -6.99687,5.361604 -2.28293,2.119377 -4.66361,3.340616 -5.29031,2.713847 -0.62677,-0.62677 -0.12255,-1.711359 1.1205,-2.410228 1.24305,-0.698919 4.26298,-2.995296 6.711,-5.103054 2.44803,-2.107808 5.09235,-3.435946 5.87631,-2.951427 0.78402,0.48446 0.14488,1.559718 -1.42063,2.389258 z m -133.466387,2.617817 c -0.435787,1.666638 -1.053791,3.030226 -1.373273,3.030226 -0.319539,0 -0.580839,-1.363588 -0.580839,-3.030226 0,-1.666699 0.617947,-3.030297 1.373273,-3.030297 0.755325,0 1.016683,1.363598 0.580839,3.030297 z m 7.329923,2.651477 c 1.884649,2.403067 1.831049,2.456667 -0.572078,0.572079 -1.458311,-1.143699 -2.651485,-2.336867 -2.651485,-2.651487 0,-1.246999 1.244254,-0.44437 3.223563,2.079468 z m 128.593424,0.143739 c 0,1.537449 -1.50733,4.094266 -3.34961,5.681714 l -3.3496,2.886327 2.62698,-4.166605 c 2.33452,-3.702866 2.36012,-4.166656 0.22963,-4.166656 -1.31841,0 -1.9757,-0.681789 -1.46066,-1.515108 1.58824,-2.569827 5.30297,-1.672998 5.30297,1.280328 z m -24.56378,4.987315 c -0.37852,1.134769 -1.06507,0.447819 -1.60078,-1.600778 -0.65907,-2.520237 -0.46213,-3.111777 0.66244,-1.987438 0.88045,0.880449 1.30272,2.495147 0.93834,3.588216 z m 18.13967,1.686798 c -0.15461,3.007617 -15.2002,23.863393 -17.21524,23.863393 -0.98994,0 0.71158,-3.016596 3.6022,-6.386242 1.26579,-1.475489 1.91174,-4.258226 1.49479,-6.439333 -0.49477,-2.589747 -0.0624,-3.840926 1.32838,-3.840926 1.13442,0 2.06262,-0.795409 2.06262,-1.767658 0,-0.972189 0.39628,-1.371498 0.88028,-0.887319 0.48446,0.483889 0.0458,2.472817 -0.97803,4.419135 -1.8543,3.531126 -1.8512,3.532506 1.40277,0.643139 1.79359,-1.592588 3.11338,-3.638036 2.93283,-4.545405 -0.33157,-1.666008 2.92538,-8.46782 4.05453,-8.46782 0.33557,0 0.53142,1.534068 0.43464,3.409036 z m -115.347389,17.80288 c 10.818966,15.653373 15.503073,28.529628 18.464191,50.7570237 2.249484,16.8852013 1.373616,25.4677813 -3.323491,32.5654933 -2.250859,3.401247 -4.734386,7.872502 -5.518974,9.936099 -1.881156,4.947925 0.899175,19.026049 9.709686,49.164086 2.227036,7.618011 -7.617337,-5.178875 -11.057762,-14.374254 -1.78014,-4.757855 -4.925651,-11.675917 -6.989998,-15.373573 -4.225299,-7.568142 -4.884649,-15.911533 -1.480701,-18.736529 1.249981,-1.037349 2.272734,-2.529958 2.272734,-3.316837 0,-0.786939 1.748702,-3.723486 3.886062,-6.525692 3.356932,-4.401156 3.900263,-6.670673 3.989883,-16.666452 0.05727,-6.3643128 -0.615714,-12.2908862 -1.495018,-13.1701952 -0.879305,-0.879299 -1.238185,-2.53837719 -0.797473,-3.6867759 0.440941,-1.1484487 0.119684,-2.0881077 -0.713866,-2.0881077 -0.83332,0 -1.871306,0.928149 -2.306578,2.0624577 -0.956497,2.4926272 -6.105768,4.0390655 -8.507177,2.5549372 -0.953806,-0.58948938 -1.299114,-2.20561758 -0.767351,-3.591376 0.685233,-1.785578 2.134725,-2.2918575 4.975529,-1.7379381 3.751889,0.7315592 3.790314,0.6854692 0.599622,-0.7195292 -1.874972,-0.8256491 -3.409044,-2.1835176 -3.409044,-3.0175766 0,-1.6197382 4.07097,-0.5792394 7.196896,1.8395179 2.694892,2.0851877 2.382511,0.1254099 -1.758437,-11.0332381 -4.729862,-12.745405 -9.428228,-22.282485 -13.942201,-28.301138 -2.956536,-3.942006 -3.617374,-6.641483 -3.617374,-14.776944 v -9.953849 l 4.939223,5.686124 c 2.716595,3.127357 7.059804,8.75427 9.651619,12.504266 z M 65.14,-56.795749 c -0.77732,10.756528 -3.28118,19.046088 -5.36396,17.75889 -0.67905,-0.41975 -1.72797,0.0344 -2.33097,1.010899 -0.68472,1.107909 -0.4398,1.368058 0.65287,0.692849 0.96206,-0.594579 1.74922,-0.35905 1.74922,0.523399 0,0.882509 -1.06295,1.604569 -2.36212,1.604569 -1.29917,0 -1.94942,0.667819 -1.44497,1.483958 1.33164,2.154658 -2.42214,13.667435 -4.45631,13.667435 -0.94773,0 -1.89398,2.535977 -2.10271,5.635494 -0.20902,3.099526 -0.85949,5.9971928 -1.44606,6.4393323 -0.58656,0.4420895 -1.30415,3.5310161 -1.59466,6.8643524 C 46.15,2.218705 45.27774,5.7215511 44.50231,6.66951 c -0.77542,0.947909 -1.28004,5.696664 -1.12136,10.552788 0.24051,7.355402 1.25702,10.355679 6.0903,17.97324 3.48309,5.489644 5.78314,10.960458 5.75525,13.689355 -0.0584,5.732344 -6.50462,20.906007 -8.21861,19.346228 -0.70391,-0.640569 -0.85165,0.0286 -0.32813,1.486879 0.5234,1.458308 0.2909,2.651487 -0.51596,2.651487 -0.80721,0 -1.46759,2.252797 -1.46759,5.006324 0,4.926965 -7.672371,19.235819 -10.314231,19.235819 -0.70951,0 1.2332,-10.056699 4.317271,-22.348275 C 45.9041,45.548067 46.93922,38.483005 44.33418,35.802318 34.570269,25.755009 33.172539,18.000697 36.608729,-7.0556947 38.18695,-18.563892 39.93669,-24.265136 45.17294,-34.960794 c 9.12375,-18.636369 17.59382,-32.062194 20.22738,-32.062194 0.26342,0 0.1466,4.602215 -0.25998,10.227179 z m -73.8527611,-4.821255 c 4.65021,0.971729 4.27879,4.563385 -1.01983,9.861999 -5.8600399,5.860034 -12.4674499,5.957383 -17.7954499,0.26227 -2.14389,-2.291628 -4.47314,-4.004366 -5.17613,-3.805996 -0.702925,0.19814 -0.961706,-0.653909 -0.57505,-1.893928 0.38654,-1.240008 0.97574,-3.155236 1.30902,-4.256105 0.58989,-1.948498 14.26472,-2.047388 23.2574399,-0.16836 z m -13.7624999,7.725611 c -1.8228,1.822808 -1.06318,3.168017 2.2831,4.043086 4.65318,1.216819 6.48692,-0.41346 3.23679,-2.877737 -3.13721,-2.378557 -4.10281,-2.582427 -5.51989,-1.165349 z m 54.11424,-4.138475 c -1.35523,2.716587 -2.56135,6.874542 -2.68029,9.23993 -0.27429,5.455684 -5.14045,11.992716 -11.72129,15.746312 -4.43884,2.531857 -4.11294,1.969688 2.45862,-4.241215 5.57,-5.264254 6.66479,-6.909872 4.13511,-6.215593 l -3.44066,0.944239 3.63433,-3.921446 c 1.99889,-2.156827 4.06255,-6.062693 4.58595,-8.67976 0.91802,-4.589965 3.81511,-9.48875 4.94398,-8.359881 0.30121,0.30121 -0.56063,2.770877 -1.91575,5.487414 z m -5.87842,-2.675647 c 0.48446,0.48446 -0.24739,3.698966 -1.62576,7.143862 -2.69752,6.741803 -5.78588,8.355351 -14.3408199,7.492542 -5.58431,-0.56291 -7.9068101,2.481467 -3.06505,4.018225 2.99662,0.951059 3.01328,1.116779 0.46213,4.601695 -3.9549501,5.402554 -10.1891701,7.636462 -15.0855002,5.405524 -4.7470399,-2.162897 -11.0060499,-7.861271 -10.9609299,-9.979159 0.0172,-0.833319 4.37225,-3.529586 9.6766499,-5.991633 9.3400401,-4.335245 9.61955011,-4.629755 8.8566101,-9.33127 l -0.78786,-4.854694 12.99504,0.307519 c 7.14731,0.16893 13.39125,0.70338 13.87543,1.187619 z m -15.53411,6.807482 c -3.0750199,1.240759 -2.1769299,3.509367 2.02105,5.105405 5.48233,2.084387 7.49004,0.2428 3.50405,-3.214457 -1.83552,-1.591908 -3.40343,-2.840576 -3.48423,-2.774777 -0.0807,0.0659 -0.99922,0.46328 -2.04087,0.883829 z m -10.56546,5.557334 c 0.69623,2.088688 3.95833,2.379588 4.5048701,0.402 0.20845,-0.753889 -0.8529601,-1.551478 -2.3584601,-1.772458 -1.5422,-0.2262 -2.47929001,0.372219 -2.14641,1.370688 z m -7.8919801,10.042039 c -1.10349,0.681969 -1.60697,1.886198 -1.11884,2.676057 0.95117,1.539048 6.4144801,1.584798 7.9328701,0.0664 1.55314,-1.553198 -4.6795301,-4.061745 -6.8140301,-2.742527 z M 43.22736,-53.632553 c -0.81568,4.301005 -2.53724,9.858569 -3.8257,12.350166 -2.132841,4.124506 -15.917791,20.710667 -15.917791,19.152439 0,-0.36421 -3.41637,0.635519 -7.59191,2.222108 -4.17559,1.586638 -11.1073499,2.884716 -15.40388999,2.884716 -9.89247011,0 -9.03419011,-0.917729 1.78391999,-1.907437 11.05988,-1.011869 18.10337,-4.137046 26.25178,-11.647977 6.96486,-6.420033 12.343011,-16.610672 13.636121,-25.838062 0.96737,-6.902782 0.90055,-6.685802 1.78563,-5.800773 0.4209,0.420899 0.0974,4.283875 -0.71816,8.58482 z m -64.149761,10.309409 c -0.93738,0.937319 -8.62349,-2.743507 -8.62349,-4.129716 0,-0.635699 2.08789,-0.11396 4.63984,1.158809 2.55191,1.273059 4.34453,2.609967 3.98365,2.970907 z M 47.7261,-44.380023 c 0,2.074078 -7.47085,10.254898 -7.52783,8.243291 -0.0458,-1.677518 5.63963,-9.67394 6.88022,-9.67394 0.35619,0 0.64761,0.64377 0.64761,1.430649 z m -34.462091,7.673621 c -2.98574,3.325887 -5.6904199,6.047064 -6.0104199,6.047064 -0.32011,0 1.53883,-3.082177 4.1306399,-6.849293 2.59187,-3.767056 5.29656,-6.488293 6.01042,-6.047063 0.71387,0.440939 -1.1449,3.523346 -4.13064,6.849292 z m -37.45997,-1.604628 c -0.48904,0.791519 0.49305,2.179108 2.18329,3.083607 2.2398,1.198668 3.07272,1.182748 3.07272,-0.0584 0,-0.936679 2.18489,0.13515 4.85533,2.382397 4.1902599,3.525856 5.8629099,3.988676 12.21034,3.378806 5.19411,-0.499359 6.8817101,-0.233649 5.7441901,0.903919 -2.2924301,2.292488 -13.0348302,1.930808 -16.0107801,-0.538859 -1.37854,-1.144099 -3.80326,-2.175728 -5.38824,-2.292488 -3.52014,-0.259409 -9.2227,-5.174634 -8.1038,-6.985062 0.44609,-0.721939 1.15217,-1.312628 1.56883,-1.312628 0.41689,0 0.35734,0.647609 -0.13171,1.439128 z m -43.484538,12.954656 c 0.155188,7.753161 -0.345308,12.878655 -1.257998,12.878655 -0.892476,0 -1.516092,-5.297464 -1.516092,-12.878655 0,-7.083222 0.566351,-12.878606 1.257998,-12.878606 0.691876,0 1.374132,5.795384 1.516092,12.878606 z M 61.85493,-28.007901 c -4.47142,9.157359 -7.25009,16.735861 -12.36037,33.7117721 l -1.59638,5.3029639 0.8288,-6.0605231 C 49.18281,1.6130356 50.54051,-4.1823479 51.7441,-7.9323437 54.58078,-16.770734 64.57926,-38.23502 65.85959,-38.23502 c 0.54402,0 -1.25806,4.602215 -4.00466,10.227119 z M 40.1504,-30.732158 c 0,0.793289 -3.116081,3.586266 -6.924601,6.206603 -3.80853,2.620327 -6.55227,5.136554 -6.09718,5.591634 0.45526,0.455259 1.86667,-0.0344 3.13675,-1.089119 1.86884,-1.550969 2.30932,-1.538539 2.30932,0.0653 0,2.644667 -6.06969,8.99524 -8.59736,8.99524 -1.1047,0 -2.00858,0.895109 -2.00858,1.9892074 0,1.0941088 -2.13518,3.9917656 -4.7448,6.4393329 -2.60963,2.44755723 -4.46278,3.7682658 -4.11805,2.93494669 2.17126,-5.24845419 4.97588,-9.84837899 6.0047,-9.84837899 0.66044,0 2.35554,-2.433297 3.76684,-5.407354 4.18309,-8.81531 17.272961,-20.847477 17.272961,-15.877342 z m -68.514571,6.760412 c 6.56773,6.963072 6.23359,8.85614 -0.42433,2.403177 -8.867088,-8.59432 -5.924638,-3.395236 4.37362,7.727852 8.82144,9.5279692 9.84214,11.3287872 11.54944,20.3771072 1.03008,5.4590038 1.49427,12.2582468 1.03157,15.1094728 -0.95919,5.910944 -10.98143,20.053898 -12.08138,17.048751 -0.57036,-1.557778 -1.10641,-1.552628 -2.77729,0.0286 -1.61951,1.530579 -1.66218,2.209458 -0.19585,3.115727 1.43323,0.885719 1.09033,3.015516 -1.4555,9.0414 -3.11402,7.370632 -3.21395,8.68148 -1.53837,20.177587 2.5393,17.422011 0.16263,20.623807 -4.304212,5.798994 -1.873253,-6.216733 -3.811389,-11.644077 -4.306961,-12.060737 -0.495342,-0.416889 -0.990284,-2.121157 -1.099374,-3.787856 -0.371077,-5.674663 -1.831163,-14.289494 -2.644498,-15.605502 -0.740494,-1.198209 5.720032,-12.154997 8.219307,-13.939605 2.879918,-2.056447 4.059058,-18.574689 1.988758,-27.8605486 -0.39227,-1.759868 -0.92409,-5.5860838 -1.18167,-8.5027005 -0.257688,-2.9166168 -1.356145,-8.4364409 -2.441318,-12.2662159 -1.901257,-6.709733 -1.382492,-11.975927 1.179774,-11.975927 0.676071,0 3.424734,2.327587 6.108064,5.172454 z m 95.187301,1.992878 c -1.5402,1.540138 -2.81097,-0.778629 -1.5473,-2.823277 0.95461,-1.544608 1.31148,-1.545758 1.82469,-0.006 0.35104,1.052699 0.2262,2.325927 -0.27716,2.829407 z m -29.703021,0.410589 c 0,0.83332 -0.6818,1.515169 -1.51512,1.515169 -0.83332,0 -1.51512,-0.681849 -1.51512,-1.515169 0,-0.833319 0.6818,-1.515118 1.51512,-1.515118 0.83332,0 1.51512,0.681799 1.51512,1.515118 z m -45.5803901,2.485868 c 0.34703,0.299499 0.23708,0.938689 -0.24452,1.420578 -0.48217,0.48217 -2.8113699,-0.20215 -5.1766999,-1.519988 l -4.3006,-2.396078 4.54541,0.975509 c 2.50002,0.53657 4.8294999,1.220539 5.1767599,1.519979 z M 16.031289,-9.2370723 C 11.840119,-3.1026791 6.6914191,3.961753 4.5896191,6.4617102 L 0.76826901,11.007125 -2.373001,7.3002493 C -4.9222111,4.2920027 -5.7644711,3.998173 -6.8417411,5.741211 c -0.73013,1.1813687 -1.64974,1.825658 -2.04356,1.4318484 -0.39398,-0.3939795 0.19757,-1.9655578 1.31424,-3.4927061 1.92725,-2.635617 2.1602,-2.5784671 4.5872701,1.1257188 1.40631,2.1462876 3.11974,3.554486 3.80766001,3.1293565 C 1.511739,7.5105191 0.38980901,5.3446515 -1.669161,3.122884 c -2.05908,-2.22176757 -3.4315501,-4.8531546 -3.0499901,-5.8475035 0.38138,-0.9943489 -0.071,-2.5727972 -1.00598,-3.5076461 -1.25628,-1.2562786 -0.53371,-1.7123381 2.7698601,-1.7479581 4.25776,-0.0458 4.33021,-0.1534698 1.52857,-2.2727273 -2.8150301,-2.129168 -2.7621201,-2.224518 1.23595,-2.224518 2.29742,0 5.5385001,-0.728639 7.2025101,-1.619168 1.66401,-0.890529 5.0047299,-1.675458 7.4238999,-1.744228 2.41916,-0.0687 4.06673,-0.661869 3.66123,-1.317958 -0.71128,-1.150909 4.11398,-4.672365 5.07941,-3.706926 0.26113,0.261119 -2.9539,5.494284 -7.14501,11.6286767 z m -33.45612,-2.8693167 c 0,0.845169 -1.00494,0.681109 -2.27268,-0.37108 -1.24998,-1.037359 -2.27273,-2.567987 -2.27273,-3.401306 0,-0.845179 1.00494,-0.681109 2.27273,0.37107 1.24999,1.037359 2.27268,2.567997 2.27268,3.401316 z m 84.549461,-1.318009 c -0.25254,1.770798 -1.40397,3.219657 -2.55849,3.219657 -1.15452,0 -2.6351,-1.448859 -3.29016,-3.219657 -1.01222,-2.736297 -0.62814,-3.219666 2.55849,-3.219666 2.95705,0 3.65242,0.680479 3.29016,3.219666 z m -78.899231,-1.167918 c -0.50336,0.503359 -1.81026,0.557179 -2.90403,0.11968 -1.20869,-0.48389 -0.84964,-0.84271 0.91538,-0.915439 1.59724,-0.0658 2.49212,0.292629 1.98865,0.795809 z m 45.94435,4.177415 c -0.83601,2.1989176 -2.57652,3.9980156 -3.86773,3.9980156 -1.29127,0 -2.94165,1.5620682 -3.66754,3.4712861 -1.58424,4.1668854 -4.35793,6.5976627 -8.45358,7.4084218 -1.86208,0.3687896 -2.93391,1.6910381 -2.78033,3.4304061 0.13744,1.5567383 -0.64595,3.7263354 -1.74091,4.8213044 -1.64437,1.644418 -2.16376,1.301859 -2.98454,-1.968258 -0.8349299,-3.3266358 -0.0727,-4.7070643 4.77121,-8.6413899 3.17065,-2.57526714 8.82728,-7.5405416 12.5703,-11.0338777 3.74295,-3.4933864 7.00065,-6.1563234 7.23927,-5.9177034 0.2388,0.2388 -0.25025,2.232937 -1.08615,4.431795 z m -90.230545,-2.062568 c 0.514812,0.833319 0.214171,1.515179 -0.668169,1.515179 -0.882511,0 -1.604566,-0.68186 -1.604566,-1.515179 0,-0.833319 0.300642,-1.515118 0.668169,-1.515118 0.367641,0 1.089524,0.681799 1.604566,1.515118 z M 67.42287,-4.8116972 c 0,1.5218783 -1.30215,5.0218544 -2.89361,7.7777913 -4.25868,7.3746919 -7.50429,18.0818099 -7.92089,26.1309109 -0.20158,3.897686 -0.91922,7.428012 -1.59432,7.845241 -0.6751,0.41746 -1.22742,-0.0802 -1.22742,-1.105438 0,-1.025219 -1.1477,-3.132227 -2.55041,-4.682215 -2.6374,-2.914267 -5.32072,-17.513341 -3.43338,-18.679769 0.58702,-0.36249 1.37934,3.102956 1.76073,7.701681 0.38138,4.598715 1.58028,9.18959 2.66431,10.201919 1.58882,1.483738 1.81169,1.179888 1.14954,-1.566939 -0.45182,-1.874108 -0.20387,-3.789335 0.55146,-4.256045 0.7551,-0.466709 1.37293,-1.530298 1.37293,-2.363617 0,-0.833319 -0.68186,-1.093759 -1.51518,-0.57872 -2.74551,1.696818 -1.57771,-3.149286 1.57416,-6.532442 1.69911,-1.823768 2.38097,-3.315927 1.51518,-3.315927 -0.86579,0 -1.57416,-0.681849 -1.57416,-1.515168 0,-0.8333191 0.95884,-1.5151183 2.13083,-1.5151183 1.30994,0 1.8547,-1.0559688 1.41404,-2.7410469 -0.4919,-1.8812079 0.52971,-3.3089964 3.25758,-4.551815 3.95576,-1.80235796 4.06725,-5.4157239 0.12026,-3.9011756 -1.139,0.4369295 -2.52104,0.0664 -3.07118,-0.8237591 -0.55032,-0.890129 -0.27831,-1.6184282 0.60432,-1.6184282 0.88251,0 1.60456,-0.9588989 1.60456,-2.1308776 0,-1.3848985 1.06084,-1.853438 3.0303,-1.3383985 1.66664,0.4357795 3.03023,2.0375377 3.03023,3.559356 z M 32.613059,0.2999471 c -2.27857,5.9932333 -5.17624,9.9493289 -7.28737,9.9493289 -1.08603,0 -1.83724,0.852279 -1.66928,1.893928 0.60678,3.762936 -2.08319,7.196882 -5.63763,7.196882 -4.18527,0 -4.77029,2.239177 -1.11895,4.282565 1.75998,0.984959 2.14154,2.248678 1.28067,4.241895 -1.13963,2.638827 -1.27111,2.650737 -1.86386,0.16894 -0.35104,-1.468568 -1.26796,-2.280577 -2.03823,-1.804538 -0.77028,0.47587 -1.48157,0.31381 -1.58069,-0.360199 -0.95558,-6.499743 0.17237,-8.627541 9.83704,-18.5565397 5.72794,-5.8846035 10.65416,-10.6992681 10.94724,-10.6992681 0.2932,0 -0.0979,1.6591382 -0.86894,3.6868959 z m -81.206439,6.269713 c 5.203844,5.2038339 1.763533,14.1826339 -4.511568,11.7747069 -3.436245,-1.318639 -2.005936,-5.552354 2.212263,-6.548083 3.384992,-0.799129 3.463216,-1.032479 1.128407,-3.367286 -2.416069,-2.4160073 -3.215946,-4.2402452 -1.859338,-4.2402452 0.357334,0 1.720757,1.0714288 3.030236,2.3809073 z M 7.8889491,11.243285 c 0.10708,3.778566 -0.27144,4.862194 -1.19163,3.409036 -1.02121,-1.613098 -1.35432,-1.302608 -1.3719,1.278729 -0.0114,2.144057 0.88898,3.409036 2.43502,3.409036 2.00531,0 2.11325,0.415749 0.58588,2.256127 -2.47883,2.986707 -0.82439,11.776597 3.7817299,20.092158 4.41639,7.973051 3.59481,8.383761 -1.46776,0.733789 -5.2568799,-7.943681 -8.56737,-25.830041 -5.9380999,-32.083204 1.07189,-2.5493272 2.18758,-4.6350849 2.47935,-4.6350849 0.29148,0 0.60105,2.4927472 0.68741,5.5394139 z m 23.5086599,5.445324 c -0.66273,7.415462 -1.17376,8.061301 -4.6403,5.864103 -1.6419,-1.040679 -1.40459,-2.511417 1.24202,-7.699331 1.79939,-3.527066 3.44484,-6.1763732 3.65655,-5.8872436 0.21188,0.2891897 0.0956,3.7641956 -0.25827,7.7224716 z M -9.8927611,29.278655 c -1.7913099,3.700346 -3.8983699,6.727942 -4.6822699,6.727942 -0.78396,0 -0.005,-1.921298 1.73129,-4.269565 1.87486,-2.535917 3.5851299,-7.919111 4.2119599,-13.257465 1.02515,-8.7305604 1.06879,-8.8009403 1.52565,-2.458387 0.31496,4.374645 -0.60455,8.74986 -2.78663,13.257475 z M 3.018959,26.915787 c 0.9558101,5.748944 4.7915301,14.967974 11.49618,27.63063 2.40897,4.549585 1.56551,4.468555 -4.5373399,-0.43579 C 2.204359,47.863704 -2.914671,48.871683 -12.231521,58.483662 l -6.85102,7.068042 2.41939,-6.060523 c 1.33067,-3.333276 4.55796,-9.810519 7.1717599,-14.393774 3.70751,-6.501123 4.73651,-10.073189 4.68016,-16.247272 -0.0401,-4.352705 0.49477,-7.563381 1.1883601,-7.134922 0.69331,0.42834 1.72832,-1.084549 2.30005,-3.362376 0.92390999,-3.681276 1.1599,-3.814416 2.12385001,-1.198319 C 1.397439,18.773277 2.395509,23.165842 3.018959,26.915787 Z m -49.231374,-4.897134 c 0,2.525387 -6.873521,13.987944 -8.387894,13.987944 -0.386539,0 -0.634955,-2.556827 -0.552035,-5.681773 0.132855,-5.002265 0.289188,-5.228745 1.306616,-1.893928 1.002252,3.285406 1.306158,3.433556 2.291174,1.117069 0.641482,-1.508639 0.365923,-3.598066 -0.633065,-4.801895 -1.389021,-1.673678 -1.18155,-2.472637 0.966862,-3.722446 3.904444,-2.271417 5.008227,-2.052098 5.008227,0.995029 z m 74.787494,4.098115 c 2.72404,2.063308 2.69884,2.302908 -0.75166,7.148722 -1.96362,2.757597 -3.40241,5.184255 -3.19728,5.392584 0.99744,1.013249 0.1947,3.409047 -1.14227,3.409047 -0.83332,0 -1.51512,-0.79856 -1.51512,-1.774588 0,-0.976079 -1.1284,-3.021467 -2.50752,-4.545405 -1.37917,-1.523939 -1.78678,-2.770817 -0.90581,-2.770817 0.88096,0 2.31482,-2.045398 3.18628,-4.545415 1.7688,-5.073905 2.75084,-5.406494 6.83338,-2.314128 z m -6.60633,7.569562 c 0,1.351628 0.88876,1.884078 2.26398,1.356378 1.24522,-0.477589 1.88682,-1.479148 1.42572,-2.225137 -1.32213,-2.139248 -3.6897,-1.581778 -3.6897,0.868759 z m 12.83751,-5.188774 c -0.53772,0.869969 0.063,3.169506 1.33427,5.110154 1.369891,2.090688 1.930981,4.984974 1.377051,7.103202 -1.054821,4.033686 -6.458001,10.477998 -6.458001,7.702482 0,-0.990459 -1.75094,-1.800868 -3.89105,-1.800868 h -3.89098 l 3.17402,-4.457506 c 1.74573,-2.451627 4.18762,-6.883422 5.4265,-9.848369 1.23887,-2.965006 2.62445,-5.390864 3.07908,-5.390864 0.45468,0 0.38654,0.7118 -0.15118,1.581769 z m -1.23807,9.850199 c 0.46155,1.202738 1.44955,1.809638 2.19554,1.348538 1.878921,-1.161218 1.70598,-1.716228 -0.83917,-2.692887 -1.46455,-0.561769 -1.91614,-0.11453 -1.35637,1.344349 z M -6.2013411,32.237302 c -0.52569,2.093547 -3.9475099,9.621319 -7.6045699,16.728471 -3.65706,7.107092 -6.65963,14.428194 -6.6724,16.269092 -0.0458,6.566912 -2.31162,7.416322 -4.96139,1.859728 -3.14665,-6.598523 -2.09962,-12.673016 3.8568,-22.375995 5.94045,-9.67692 6.79604,-9.16273 1.26063,0.757559 -2.4412,4.374985 -4.57101,9.318099 -4.73284,10.984738 -0.53256,5.482723 0.0344,9.848429 1.27782,9.848429 0.67275,0 1.08156,-2.045448 0.90845,-4.545405 -0.17294,-2.500018 0.28632,-4.545405 1.02069,-4.545405 0.73442,0 1.76193,-1.699858 2.28339,-3.777376 0.52168,-2.077568 1.48236,-3.447176 2.13541,-3.043567 0.65311,0.40371 1.62163,-1.580688 2.1523,-4.409575 0.53085,-2.828897 2.00107,-5.541014 3.26749,-6.027023 1.26641,-0.48618 2.1278499,-1.744918 1.91431,-2.797737 -0.33614,-1.657138 3.2510499,-8.73234 4.4272699,-8.73234 0.23193,0 -0.006,1.712918 -0.53313,3.806406 z m 21.2255101,0.198139 c 1.392,3.627386 0.30694,3.905926 -1.83764,0.47186 -1.0172,-1.628728 -1.2348,-2.961337 -0.48331,-2.961337 0.7512,0 1.79577,1.120269 2.32118,2.489527 z M 42.21916,47.841544 c -1.40632,5.890394 -2.27085,6.934842 -3.8193,4.614355 -0.917271,-1.374528 -1.079271,-0.787219 -0.48904,1.772348 0.65992,2.861587 -0.0933,4.745205 -2.984251,7.460992 -3.02354,2.840407 -3.86717,3.107086 -3.86717,1.222438 0,-1.325798 0.85228,-2.728907 1.89393,-3.118016 1.30352,-0.48676 1.09239,-1.039529 -0.67744,-1.772758 -2.23088,-0.924249 -1.82968,-2.024088 3.03029,-8.307021 6.005151,-7.763411 8.479351,-8.433531 6.912861,-1.872338 z m -16.826761,8.450931 c -1.31177,2.122417 -4.85161,-3.598866 -3.84683,-6.217313 0.69869,-1.820798 1.28382,-1.555889 2.79327,1.264588 1.05018,1.962298 1.52428,4.191046 1.05356,4.952725 z m 4.6813,-5.940774 c 1.32242,3.446087 -1.21585,3.995886 -3.26914,0.70808 -1.48374,-2.375868 -1.42831,-2.932257 0.29205,-2.932257 1.16792,0 2.50752,1.000879 2.97698,2.224177 z m -14.24691,18.05713 c 4.78244,5.585224 6.27682,8.561111 6.08682,12.121037 -0.36822,6.896362 -0.0641,8.010971 1.50647,5.527334 1.1248,-1.778368 1.72448,-1.380999 3.0071,1.992537 2.14784,5.649354 2.02329,10.034079 -0.29205,10.271099 -10.10837,1.034659 -19.3180099,-2.485587 -19.3180099,-7.384032 0,-2.083758 0.4501,-1.932578 2.35863,0.792489 2.3449999,3.347937 8.2664299,4.427785 13.4252099,2.448188 4.29471,-1.648079 -4.7282,-7.260732 -11.43514,-7.113223 -5.2739299,0.11625 -5.6533699,-0.135719 -4.2259299,-2.802886 2.16685,-4.048866 -3.3458201,-8.530701 -9.3998801,-7.642182 -3.3551001,0.49248 -4.3591301,1.443538 -4.3591301,4.129435 0,1.919228 0.51138,3.775536 1.13637,4.125076 0.62499,0.349319 0.28403,0.427769 -0.75756,0.17352 -1.04165,-0.25369 -1.89392,0.198709 -1.89392,1.005909 0,0.807149 -1.8749799,1.490268 -4.1666699,1.517978 -5.54772,0.067 -12.49912,5.652914 -9.41041,7.561841 1.48345,0.916809 2.61523,0.52398 3.5774,-1.241618 1.62736,-2.986427 4.2978,-5.001865 5.29976,-3.999896 0.37967,0.37966 -0.62298,1.684848 -2.22881,2.899727 -2.86205,2.165238 -2.85804,2.209798 0.20386,2.257038 1.71784,0.0286 4.61557,-1.342009 6.4393399,-3.041117 2.61444,-2.435767 3.31593,-2.603377 3.31593,-0.792489 0,6.462753 -17.2458699,10.154674 -22.3205299,4.778305 -1.47354,-1.561159 -1.82692,-2.361318 -0.78527,-1.778079 1.04165,0.58319 1.97913,0.33844 2.0833,-0.544019 0.26342,-2.232467 0.59968,-3.327316 2.35376,-7.665141 0.84243,-2.083298 2.8112,-7.412552 4.37511,-11.842797 2.36224,-6.691813 4.36359,-9.18455 11.8261399,-14.730094 l 8.9827101,-6.675082 4.1383101,4.124105 c 2.27611,2.268318 6.9907399,7.455382 10.4770399,11.526857 z M -8.5912411,66.859413 c -2.4479099,3.372276 -2.3841699,3.571436 1.96419,6.140113 3.2819701,1.938708 5.0236901,2.215298 6.4572001,1.025559 1.07968001,-0.896019 2.40748,-1.184699 2.9507,-0.641479 0.54344,0.543449 2.3609801,-0.2554 4.0395301,-1.774238 2.85684,-2.585397 2.89085,-2.939697 0.53199,-5.546174 C 3.646699,61.968528 -5.3678511,62.418738 -8.5913011,66.859413 Z m 13.3455602,0.2073 c -0.47988,1.249978 -0.0401,2.283147 0.97425,2.295867 1.16677,0.0172 1.00986,0.56177 -0.42606,1.486879 -1.5928201,1.025788 -2.7759201,0.792259 -3.9548901,-0.78081 -0.92516999,-1.234398 -2.62972,-2.233957 -3.7878,-2.221187 -1.7117001,0.0172 -1.6886801,0.2869 0.12312,1.432768 2.99714001,1.895408 0.93623,3.739396 -2.2109401,1.978158 -2.0171,-1.128859 -2.10936,-1.695328 -0.49248,-3.023987 1.09433,-0.899179 3.6941701,-1.948327 5.77753011,-2.331317 2.08329999,-0.3831 4.03122009,-0.789279 4.32872009,-0.902779 0.2972,-0.11339 0.14831,0.816429 -0.331,2.066408 z m 20.8663999,1.935148 c -2.46744,3.765745 -2.69501,3.829485 -3.70774,1.038388 -1.36314,-3.756695 -0.26915,-5.113874 1.75105,-2.172117 1.12371,1.636458 1.38478,0.725149 0.98221,-3.429026 -0.30179,-3.111777 0.16607,-5.902414 1.03861,-6.201333 2.73349,-0.936229 2.68883,6.562502 -0.0641,10.764088 z m -3.07388,-6.401873 c 0.51768,1.348358 0.26342,1.956508 -0.59544,1.425718 -0.82381,-0.509079 -1.49776,-1.567278 -1.49776,-2.351407 0,-2.179388 1.08597,-1.699168 2.0932,0.925689 z m 15.070901,5.603033 c -1.379521,3.541607 -3.805431,7.701042 -5.390931,9.24319 -3.26857,3.179067 -2.42369,5.428034 0.97843,2.604527 1.91861,-1.592258 1.97484,-1.315488 0.41517,2.044988 -3.50857,7.560922 -6.53932,3.187936 -4.91609,-7.093182 0.77829,-4.929315 2.13736,-7.179362 5.851,-9.686769 2.66053,-1.796288 5.002211,-3.330357 5.203791,-3.409037 0.20157,-0.0785 -0.76214,2.754667 -2.1416,6.296283 z M 3.469579,85.261442 c 0.7208501,7.425152 3.4098401,12.607396 8.07425,15.560678 l 4.3952,2.78284 -9.1255799,2.73354 c -6.5758601,1.96975 -9.6703401,2.28138 -11.0753402,1.11535 -1.07234,-0.88995 -4.92038,-2.09315 -8.5511599,-2.67376 -6.17569,-0.98753 -6.54808,-0.85153 -5.77403,2.10839 0.51939,1.98623 -0.002,3.48244 -1.40179,4.01942 -3.54814,1.36159 -8.0419,0.99292 -8.0419,-0.65969 0,-0.83332 1.54284,-1.51511 3.42857,-1.51511 2.07025,0 4.0211,-1.32156 4.92417,-3.33575 0.82261,-1.83471 3.57866,-3.86516 6.12455,-4.51224 7.2286699,-1.837183 11.65492,-7.538767 11.55356,-14.882428 -0.0699,-5.065775 0.39627,-6.151854 2.47167001,-5.758504 1.59070999,0.30121 2.72415999,2.198518 2.99782999,5.017264 z m 13.1962,5.290025 c 1.1922,1.929027 -2.31797,1.929027 -5.30297,0 -1.8477099,-1.194089 -1.6519199,-1.473079 1.04692,-1.491979 1.82578,-0.0115 3.74101,0.658599 4.25605,1.491979 z m -56.124815,1.410438 c 0.479308,0.775709 0.178666,1.838668 -0.668111,2.362127 -0.84695,0.5234 -1.539857,-0.1111 -1.539857,-1.410438 0,-2.661387 0.90914,-3.053257 2.207968,-0.951689 z m 3.852562,7.680381 c 0,0.833324 -0.982438,1.515104 -2.183287,1.515104 -1.20079,0 -2.604642,-0.68178 -3.119684,-1.515104 -0.514812,-0.833379 0.467283,-1.515178 2.183286,-1.515178 1.715833,0 3.119685,0.681799 3.119685,1.515178 z m 74.241754,0.757554 c -1.03741,1.24998 -3.336771,2.29437 -5.109761,2.32089 -3.16028,0.0458 -3.16584,0.0916 -0.28231,2.27268 2.75988,2.08748 2.602,2.22451 -2.56204,2.22451 -3.02674,0 -5.92453,-0.6818 -6.43957,-1.51512 -0.51481,-0.83332 0.0515,-1.51511 1.25789,-1.51511 1.2068,0 3.80383,-1.34098 5.77117,-2.9799 4.42624,-3.687461 10.288231,-4.33055 7.364741,-0.80795 z m -66.666051,5.39235 c 0,0.78419 -1.70455,1.42573 -3.78785,1.42573 -4.312057,0 -5.145091,-2.49985 -1.13637,-3.41019 3.13383,-0.71157 4.92422,0.0115 4.92422,1.98446 z m -9.848381,-0.0893 c 0.514814,0.83332 0.214171,1.51518 -0.668168,1.51518 -0.882511,0 -1.604566,-0.68186 -1.604566,-1.51518 0,-0.83332 0.300641,-1.51512 0.668168,-1.51512 0.367642,0 1.089525,0.6818 1.604566,1.51512 z m 78.029552,0.75762 c 0,1.24998 -0.66044,2.27267 -1.46759,2.27267 -0.80715,0 -1.07515,-1.02269 -0.59544,-2.27267 0.47988,-1.25004 1.14003,-2.27274 1.46753,-2.27274 0.32756,0 0.5955,1.0227 0.5955,2.27274 z m -13.636231,4.26726 c 1.24998,0.48733 -0.96538,0.74949 -4.92296,0.58222 -3.95765,-0.16722 -7.19627,-0.76804 -7.19696,-1.33508 -0.002,-1.45601 6.50897,-2.34448 8.33206,-1.13699 0.83332,0.55204 2.53787,1.40236 3.78786,1.88985 z m -59.09035,1.0357 c -1.201706,0.74267 -2.525845,1.00947 -2.942505,0.59281 -0.41689,-0.41689 0.225624,-1.36526 1.427387,-2.10799 1.201708,-0.74266 2.525848,-1.00946 2.942508,-0.59279 0.41689,0.41687 -0.22563,1.36524 -1.42739,2.10797 z m 24.8376699,-0.6337 c 1.28669,3.35321 1.39555,3.20163 -3.5326199,4.91958 -3.42021,1.19232 -4.85602,1.06553 -6.19424,-0.54688 -1.3916,-1.67677 -0.95318,-2.29695 2.17956,-3.08326 2.15683,-0.54115 3.92157,-1.59214 3.92157,-2.3351 0,-2.26728 2.6474199,-1.50371 3.6257299,1.04572 z m -30.1406409,0.63364 c -0.514812,0.83332 -1.618252,1.51518 -2.451573,1.51518 -0.83332,0 -1.093762,-0.68186 -0.57872,-1.51518 0.514813,-0.83332 1.618195,-1.51512 2.451573,-1.51512 0.833321,0 1.093706,0.6818 0.57872,1.51512 z m 49.241961,0 c 0,0.83332 1.42041,1.51518 3.15651,1.51518 1.87148,0 2.88455,0.77101 2.48839,1.89386 -0.68305,1.93636 -1.77006,1.96631 -9.0539999,0.24968 -2.64387,-0.62304 -4.1666,-0.36363 -4.1666,0.70991 0,0.9305 0.70579,1.69179 1.56843,1.69179 1.0562,0 1.03134,1.00356 -0.0762,3.07271 -0.90444,1.68995 -2.2920901,2.67245 -3.0835501,2.18329 -2.48416,-1.53533 -1.61647999,-9.54756 1.21236,-11.19519 3.4270201,-1.99608 7.95445,-2.06514 7.95445,-0.1214 z m 22.72706,-0.84695 c 0,0.36764 -0.68185,1.08953 -1.51518,1.60451 -0.83332,0.51481 -1.51511,0.21417 -1.51511,-0.66811 0,-0.88251 0.68179,-1.60457 1.51511,-1.60457 0.83333,0 1.51518,0.30064 1.51518,0.66817 z m -54.54493,5.58391 c 0,0.88532 -1.40391,1.0822 -3.33844,0.46843 -3.14459,-0.99807 -3.18857,-0.90977 -0.75756,1.52125 2.88484,2.88483 3.4544,5.93837 0.95209,5.10425 -0.89586,-0.29835 -1.40723,-0.93245 -1.13637,-1.40855 0.27087,-0.47587 -0.39742,-1.93808 -1.48551,-3.24887 -1.65862,-1.99854 -1.54157,-2.62749 0.7252,-3.89602 2.90454,-1.62547 5.04059,-1.00689 5.04059,1.45969 z m 19.69675999,1.18104 c 0,4.09134 -0.25253999,4.28364 -3.57013009,2.71801 l -3.57008,-1.68478 3.19133,-2.66763 c 4.10785009,-3.43373 3.94888009,-3.49953 3.94888009,1.6344 z M 24.143339,116.46762 c -1.32214,2.13925 -3.6897,1.58177 -3.6897,-0.86883 0,-1.35162 0.88875,-1.88407 2.26397,-1.35632 1.24523,0.47759 1.88677,1.4791 1.42573,2.22515 z m 11.46165,2.90607 c -3.75143,2.96874 -18.74599,10.65415 -21.86556,11.20722 -0.89047,0.15805 -4.2215199,1.17004 -7.4023699,2.24925 -3.1807801,1.07928 -6.0704301,1.67518 -6.4214101,1.3242 -0.35103001,-0.35104 3.9602801,-2.14567 9.5805501,-3.98822 5.6202799,-1.84251 14.3053199,-5.69357 19.3000899,-8.55779 10.328551,-5.92297 12.278021,-6.56279 6.8087,-2.23466 z m -67.88832,1.12807 c 2.38229,3.22219 6.6341,5.99948 20.21221,13.20284 9.93668,5.27146 10.43454,5.37431 15.1608,3.13159 5.4687501,-2.59513 23.82792,-8.50792 24.45858,-7.8772 0.93399,0.93393 -13.57868,11.92354 -18.4140899,13.94391 -10.10785011,4.22334 -25.6387501,1.06759 -31.5703201,-6.41482 -1.50624,-1.90005 -3.4611,-3.29732 -4.34412,-3.10491 -0.88303,0.19241 -1.81147,-0.87902 -2.06315,-2.38079 -0.61456,-3.66742 -4.955826,-10.14816 -6.797984,-10.14816 -0.81408,0 -1.480187,-0.68179 -1.480187,-1.51511 0,-2.40513 2.67588,-1.7621 4.838261,1.16265 z m 42.1309701,3.48452 c -2.74798,2.1535 -2.9917,2.68424 -0.88778,1.93338 1.8828699,-0.67195 2.5481199,-0.46557 1.8966699,0.58845 -0.55203,0.89288 -3.0499899,2.33692 -5.5514999,3.20895 -3.7435301,1.30496 -4.54821009,1.18155 -4.54821009,-0.69783 0,-1.25581 0.60070999,-1.91201 1.33489999,-1.4583 0.7342,0.45353 2.9440501,-1.52336 4.9107601,-4.39366 2.41029,-3.5175 4.0741799,-4.7184 5.1044399,-3.68403 1.02933,1.03341 0.29147,2.50409 -2.2592799,4.50304 z m -18.5910902,-2.08766 c 0.55776,1.67266 -4.0145099,4.12755 -5.2975899,2.84447 -0.40028,-0.40028 -0.30236,-1.83672 0.21761,-3.19195 0.99773,-2.59995 4.1698099,-2.38297 5.0799199,0.3476 z m 34.5000601,-1.0444 c -0.51482,0.83332 -2.12345,1.51518 -3.57426,1.51518 -1.45081,0 -3.44466,0.80681 -4.43071,1.79291 -0.9861,0.9861 -2.24839,1.33742 -2.80501,0.78081 -0.55662,-0.55662 1.30696,-2.01859 4.14135,-3.24876 6.13595,-2.66305 7.93533,-2.88976 6.66863,-0.84014 z"
       id="path1577" /></g></svg>
