<?xml version="1.0" encoding="UTF-8" standalone="no"?>
<!-- Created with Inkscape (http://www.inkscape.org/) -->

<svg
   width="210mm"
   height="297mm"
   viewBox="0 0 210 297"
   version="1.1"
   id="svg1587"
   xml:space="preserve"
   inkscape:version="1.2.2 (732a01da63, 2022-12-09)"
   sodipodi:docname="Loki.svg"
   xmlns:inkscape="http://www.inkscape.org/namespaces/inkscape"
   xmlns:sodipodi="http://sodipodi.sourceforge.net/DTD/sodipodi-0.dtd"
   xmlns="http://www.w3.org/2000/svg"
   xmlns:svg="http://www.w3.org/2000/svg"><sodipodi:namedview
     id="namedview1589"
     pagecolor="#ffffff"
     bordercolor="#000000"
     borderopacity="0.25"
     inkscape:showpageshadow="2"
     inkscape:pageopacity="0.0"
     inkscape:pagecheckerboard="0"
     inkscape:deskcolor="#d1d1d1"
     inkscape:document-units="mm"
     showgrid="false"
     inkscape:zoom="1.6819304"
     inkscape:cx="295.49379"
     inkscape:cy="608.22968"
     inkscape:window-width="2560"
     inkscape:window-height="1494"
     inkscape:window-x="-11"
     inkscape:window-y="-11"
     inkscape:window-maximized="1"
     inkscape:current-layer="layer1" /><defs
     id="defs1584" /><g
     inkscape:label="레이어 1"
     inkscape:groupmode="layer"
     id="layer1"><path
       style="fill:#000000;stroke-width:1.44231"
       d="M -70.312499,-143.57653 -75,-138.11462 v 68.54017 68.5401 l 13.038911,39.83413 c 13.513252,41.28323 17.224397,49.89803 21.495395,49.89803 2.792175,0 8.257931,5.2847 6.885361,6.65727 -0.47867,0.4786 -4.927558,3.23312 -9.886389,6.12097 -9.930711,5.78326 -21.437127,18.52754 -21.437127,23.74327 0,4.16077 12.950139,16.89392 21.558837,21.19767 10.150799,5.07472 28.92193,2.68348 28.92193,-3.68432 0,-1.02402 -4.841871,-4.25426 -10.759711,-7.17829 -13.396242,-6.61922 -14.325652,-7.66646 -10.86976,-12.24805 l 2.68665,-3.56173 3.3416,3.05384 c 3.22907,2.95102 9.25659,6.00229 25.4559709,12.88644 l 7.6912702,3.2685 14.6644899,-7.53164 c 8.065491,-4.14239 16.117521,-8.462 17.893431,-9.59918 2.90638,-1.86106 3.52918,-1.7673 6.23507,0.93859 l 3.00614,3.00613 -6.95622,6.19287 c -3.82595,3.4061 -9.06563,7.46127 -11.64374,9.01155 -2.57811,1.55028 -4.68752,3.38075 -4.68752,4.06777 0,4.3479 14.12345,5.59504 22.76269,2.00997 5.97952,-2.48134 24.833461,-20.35152 24.833461,-23.53765 0,-4.31728 -16.125481,-20.48068 -24.802501,-24.8608 -8.59584,-4.33917 -10.17114,-7.38571 -4.26783,-8.25366 4.71604,-0.69339 7.21614,-6.79349 21.699601,-52.94575 L 75,-4.41962 v -67.28343 -67.28337 l -3.24523,-5.08705 -3.24518,-5.08703 -67.067272,0.061 -67.067317,0.0611 -4.6875,5.46191 z m 15.86538,-1.80354 c -1.784851,0.34397 -4.705529,0.34397 -6.490385,0 -1.784851,-0.34397 -0.324512,-0.62509 3.245195,-0.62509 3.569713,0 5.030046,0.28129 3.24519,0.62509 z m 15.14423,0.0164 c -2.181489,0.33034 -5.751202,0.33034 -7.93269,0 -2.181489,-0.33034 -0.396632,-0.60083 3.966345,-0.60083 4.362982,0 6.147839,0.27039 3.966345,0.60083 z m 10.066106,-0.1619 c -0.47927,0.47916 -1.72325,0.5304 -2.76442,0.11393 -1.15058,-0.46062 -0.80882,-0.80214 0.87139,-0.87137 1.52044,-0.0627 2.3723,0.27856 1.89303,0.75755 z m 5.76923,0 c -0.47927,0.47916 -1.72326,0.5304 -2.76442,0.11393 -1.15058,-0.46062 -0.80881,-0.80214 0.87139,-0.87137 1.52043,-0.0627 2.3723,0.27856 1.89303,0.75755 z m 6.520431,0.084 c -0.99158,0.40012 -2.614181,0.40012 -3.605761,0 -0.99159,-0.40011 -0.18028,-0.72746 1.80288,-0.72746 1.983171,0 2.794471,0.32707 1.802881,0.72746 z m -1.01077,4.60117 c 2.53434,0.18262 2.86971,0.98368 2.35312,5.62147 -0.33133,2.97475 -1.29511,6.26941 -2.14168,7.32145 -1.036611,1.28824 -1.059541,2.23016 -0.0702,2.88463 0.80794,0.53477 1.39817,4.05473 1.31161,7.82273 -0.14048,6.11608 0.17826,6.85096 2.97147,6.85096 2.48042,0 5.1136198,-2.613 4.7389598,-4.70263 -0.0327,-0.19024 0.70724,-2.29256 1.64736,-4.67235 4.0117901,-10.15517 5.6598602,-18.6067 3.8523401,-19.75527 -1.13577,-0.72169 -0.65039,-1.12176 1.37846,-1.13609 3.0198701,-0.0218 3.1188101,0.46499 2.77468012,13.63969 -0.36251001,13.87132 0.43881998,17.7781 3.28530008,16.01889 0.93679,-0.57898 1.29423,-3.44666 0.87699,-7.03575 l -0.70435,-6.0584 2.8579201,3.60578 c 1.57192,1.98316 2.8724198,5.0661 2.8900298,6.85095 0.0218,2.32844 0.89057,3.24518 3.07101,3.24518 2.17854,0 2.79109,-0.64592 2.16349,-2.2814 -0.48134,-1.25477 -0.87547,-3.24022 -0.87547,-4.41202 0,-1.24325 -0.69356,-1.70203 -1.66519,-1.10152 -1.00995,0.62422 -1.2745,0.39685 -0.67225,-0.57734 1.26284,-2.04345 -2.07174,-7.49305 -4.5850398,-7.49305 -1.04587,0 -1.5005,-0.64908 -1.01022,-1.44234 0.49007,-0.79327 0.21914,-1.44229 -0.60296,-1.44229 -0.8290301,0 -1.3485801,-2.47339 -1.1668901,-5.55492 l 0.32761,-5.55491 20.0642209,-0.91908 c 13.08108,-0.5992 20.69166,-0.39849 21.86679,0.5769 1.24621,1.03421 2.09104,1.0292 2.73723,-0.0164 1.28513,-2.07943 12.769531,-1.91104 14.899061,0.2186 2.42673,2.42671 2.36458,29.16257 -0.072,31.024 -1.07128,0.81834 -28.286541,1.48769 -67.0673321,1.64949 l -65.2644229,0.27201 -0.05855,-3.99689 c -0.03216,-2.19827 -0.139988,-8.9928 -0.239528,-15.09894 -0.109515,-6.71815 0.496172,-11.91804 1.533936,-13.16843 1.374906,-1.65669 6.069346,-1.9999 23.677009,-1.73099 12.079145,0.18425 23.292105,0.43119 24.917666,0.54829 z m -11.001891,6.23687 c -0.28701,12.10636 0.4186,23.65263 1.51386,24.7723 1.61649,1.65271 9.887621,-6.48925 9.048021,-8.90665 -0.496991,-1.43095 -1.435761,-1.18276 -3.752641,0.99223 l -3.08984,2.90055 v -10.59077 c 0,-5.82492 0.57097,-10.23753 1.26884,-9.80584 0.69786,0.43174 0.9686,-0.11666 0.60163,-1.21874 -0.36697,-1.10202 -1.74924,-2.21352 -3.07173,-2.47 -1.83917,-0.35651 -2.43123,0.66068 -2.51814,4.32692 z m 46.643471,9.8567 c -0.0272,7.94113 0.39358,14.7132 0.93718,15.04905 2.698201,1.66753 3.734921,-2.61359 3.734921,-15.42344 0,-11.93456 -0.34943,-14.06118 -2.31068,-14.06249 -1.962171,-0.001 -2.318301,2.17596 -2.361421,14.43688 z m -24.1367302,-14.49896 c -0.4699,0.76 -1.18532,4.76236 -1.59018,8.89406 -0.82739,8.44249 -3.2704298,14.44522 -3.5956098,8.8346 -0.4856,-8.378 -0.40334,-9.9171 0.61818,-11.56997 0.6021,-0.97425 0.54645,-1.77133 -0.12364,-1.77133 -0.6701,0 -1.21836,-1.2981 -1.21836,-2.88463 0,-2.06443 0.96154,-2.88462 3.3818098,-2.88462 1.86002,0 2.99753,0.62188 2.5278,1.38189 z M 66.47568,12.03378 C 63.35795,22.07223 58.1591,38.7052 54.922759,48.99587 c -3.23635,10.29063 -5.88429,19.296 -5.88429,20.01191 0,3.32722 -7.82679,18.24883 -9.572,18.24883 -3.06976,0 -7.76709,5.45145 -6.82125,7.91634 0.61152,1.5936 0.19897,1.96304 -1.47505,1.32072 -2.67808,-1.02772 -2.91238,-0.0491 -0.8928,3.72303 0.78721,1.47085 3.76353,3.44398 6.6141,4.38475 5.98808,1.97624 15.03158,9.41957 15.03158,12.37185 0,1.10769 0.89787,2.01401 1.99526,2.01401 1.09739,0 2.31803,1.23443 2.712591,2.74323 1.0087,3.85729 -12.328361,16.71887 -20.212661,19.49203 -6.72094,2.36393 -8.10784,1.2914 -2.67601,-2.06946 4.74024,-2.93292 16.73853,-14.17593 16.73853,-15.68488 0,-2.20732 -12.72516,-13.01968 -16.14069,-13.71448 -1.83178,-0.37232 -7.33552,-1.02833 -12.23057,-1.45712 -4.895051,-0.42901 -11.598661,-1.85937 -14.8969308,-3.17906 -5.7885702,-2.31611 -6.1900002,-2.29087 -11.5605603,0.72753 -3.0600501,1.71986 -8.0391099,3.15054 -11.0645999,3.17927 -8.310281,0.079 -24.15604,2.90566 -26.554739,4.73712 -1.167012,0.89106 -3.529095,4.03876 -5.249076,6.99497 l -3.127241,5.37486 3.051103,2.1371 c 1.678105,1.1754 3.69465,1.73933 4.48121,1.25324 0.786559,-0.48625 0.993145,-0.17662 0.459103,0.68729 -1.168877,1.89125 7.384149,8.71483 11.760869,9.38277 4.90571,0.74867 5.55554,2.47939 0.90387,2.40732 -5.38995,-0.0834 -14.544681,-4.97376 -21.962872,-11.73214 -7.105661,-6.47361 -6.786529,-9.29087 2.037892,-17.99038 5.346654,-5.27091 17.68626,-12.35075 20.51031,-11.76769 2.10126,0.43392 8.90986,-2.09742 8.90986,-3.31244 0,-0.70725 0.4868,-1.15289 1.08174,-0.99028 1.548671,0.42302 12.2825808,-3.28828 14.4230709,-4.98716 0.99158,-0.787 1.80289,-1.00412 1.80289,-0.48244 0,0.52168 1.2980401,0.25403 2.884570099999,-0.59527 C 1.8851781,89.13227 2.8846081,89.10223 2.8846081,90.05454 c 0,1.67271 10.4154099,6.66424 19.7974309,9.48782 5.62977,1.69436 6.29068,1.66301 5.55149,-0.26329 -0.46172,-1.2026 -0.36905,-2.93926 0.20551,-3.85925 0.57457,-0.92001 1.23864,-2.91991 1.47571,-4.44418 0.67846,-4.36262 3.48787,-6.85864 6.78772,-6.03043 2.71892,0.68239 3.45375,-0.64788 7.31857,-13.24862 2.36289,-7.7039 4.13487,-15.18065 3.93775,-16.61498 -0.21913,-1.59351 0.26166,-2.22448 1.23624,-1.62229 1.06217,0.65649 1.28267,0.003 0.66031,-1.95824 -0.51406,-1.61913 -0.28728,-3.34379 0.50369,-3.83261 0.79092,-0.48897 1.03639,-1.93534 0.54551,-3.21453 -0.50206,-1.30764 0.0621,-3.0238 1.28785,-3.92015 1.19917,-0.87689 2.16927,-1.91883 2.1558,-2.31546 -0.1341,-3.93378 2.267941,-12.98076 3.446221,-12.98076 0.83072,0 1.19317,-0.51295 0.80553,-1.14049 -0.38758,-0.62728 1.82552,-8.544 4.91822,-17.59278 4.77469,-13.96987 6.05132,-19.83692 3.74343,-17.20419 -1.18794,1.35511 -12.453961,27.40258 -12.453961,28.79395 0,0.82853 -3.014,-0.79495 -6.69778,-3.60773 -7.16991,-5.47462 -10.77443,-6.7126 -7.5413,-2.5901 1.77885,2.2682 1.73235,2.33062 -0.459,0.61571 -3.68825,-2.88658 -1.86274,-5.20538 6.98522,-8.87264 4.90329,-2.03227 10.283611,-5.77449 13.823261,-9.61456 3.1874,-3.45794 6.72988,-6.28712 7.87225,-6.28712 1.44556,0 1.78822,-0.9097 1.12715,-2.99251 -1.03465,-3.25989 -1.44976,-89.03298 -0.43555,-90.04691 0.34179,-0.34179 0.43282,-7.29392 0.20224,-15.44945 -0.23059,-8.15554 0.06,-15.80182 0.64559,-16.99172 0.58552,-1.18989 1.23334,27.91648 1.43962,64.6808 l 0.37504,66.84422 z M -64.105035,-103.00208 c 0.532968,0.86239 2.193879,1.24768 3.690888,0.85618 3.648565,-0.95412 3.440731,-0.0436 -1.244507,5.45614 -2.181494,2.56039 -4.70531,5.89131 -5.608482,7.40191 -1.524396,2.5497 -1.64537,2.4881 -1.68723,-0.85912 -0.02453,-1.98316 -0.497317,-5.39062 -1.05004,-7.57209 -0.82739,-3.26557 -0.529261,-3.97025 1.687224,-3.98846 2.266032,-0.0164 2.349725,-0.24312 0.528716,-1.4202 -1.864455,-1.20488 -1.826384,-1.40118 0.275451,-1.42021 1.341404,-0.0109 2.87499,0.68348 3.407969,1.54585 z m 16.530966,0.23495 c 0.01635,1.32689 0.303308,1.36085 1.087283,0.12865 0.729583,-1.14666 3.012787,-1.31799 7.246624,-0.54402 8.208249,1.50099 9.349099,2.93712 2.341119,2.94709 -9.692363,0.0164 -15.982174,2.56825 -20.509251,8.32916 -6.314047,8.03496 -8.891024,13.88598 -8.155144,18.51626 2.357018,14.83079 2.613696,15.32701 6.11632,11.82438 0.938704,-0.9387 2.12594,-1.28752 2.638308,-0.77516 0.512362,0.51241 -0.787274,1.71474 -2.888095,2.67197 -2.692728,1.22685 -4.416699,3.68962 -5.843245,8.34726 l -2.023572,6.60684 0.08597,-6.49041 c 0.04743,-3.56968 -0.06798,-8.43747 -0.256154,-10.81726 -0.339012,-4.28805 -0.352477,-4.29454 -1.496883,-0.72119 -0.905081,2.82613 -1.185852,1.95012 -1.298535,-4.05148 -0.0791,-4.21145 0.342992,-7.35758 0.937957,-6.99148 0.594954,0.36633 1.224545,-1.30321 1.399094,-3.70983 0.403064,-5.55764 5.327977,-14.93949 7.568661,-14.41813 0.936867,0.21805 1.339468,-0.19243 0.89468,-0.91221 -1.030596,-1.66753 4.757021,-9.13082 6.327889,-8.15995 0.646626,0.39957 1.547841,-0.24313 2.002704,-1.42861 1.001932,-2.61097 3.793431,-2.86811 3.824253,-0.35215 z m -9.156701,4.92787 c -0.528825,0.52877 -0.961539,1.63221 -0.961539,2.4519 0,0.90377 0.671784,0.81862 1.70673,-0.21641 0.938704,-0.93869 1.371396,-2.04203 0.961539,-2.4519 -0.409879,-0.40994 -1.177882,-0.31236 -1.70673,0.21641 z m 54.5673079,-4.57664 c 0.7932601,0.27637 -3.10099,0.48952 -8.6538499,0.47262 -6.0723,-0.0164 -8.699911,-0.42029 -6.59288,-1.0087 3.26719,-0.9128 11.9680299,-0.60704 15.2467299,0.53586 z m -21.9677409,0.2344 c -0.9765,0.39521 -2.92361,0.4192 -4.32693,0.0545 -1.40332,-0.36578 -0.60437,-0.68893 1.77543,-0.71836 2.37981,-0.0273 3.52798,0.26983 2.5515,0.66489 z m 48.257662,0.10684 c -2.99246,0.31236 -7.535691,0.30691 -10.096141,-0.0109 -2.56044,-0.3189 -0.11229,-0.57407 5.440831,-0.56769 5.55286,0.005 7.64777,0.26711 4.65531,0.5793 z m 19.14274,0.46554 c 1.55017,1.05596 0.52823,1.19987 -3.60572,0.50751 -7.15492,-1.19802 -8.30649,-2.03265 -2.76444,-2.00354 2.31367,0.0109 5.18026,0.68527 6.37016,1.49581 z m 22.799981,6.42297 0.44428,6.70741 -6.46997,-6.75244 c -3.55846,-3.71381 -7.120961,-6.35003 -7.916681,-5.85827 -0.79566,0.4917 -1.82186,0.28728 -2.28041,-0.45464 -0.49334,-0.79811 2.55815,-1.14481 7.472451,-0.84903 l 8.30622,0.49988 z m -81.934572,-2.8928 c 0.86277,-0.53313 2.63839,-0.10248 3.94582,0.95756 1.30742,1.05989 1.9353197,1.18957 1.39532,0.28837 -0.56672,-0.94606 0.23059,-1.95601 1.8866198,-2.389 1.57759,-0.41266 2.86839,-0.22241 2.86839,0.42192 0,0.64472 1.2981101,0.83279 2.8846401,0.41811 2.00611008,-0.5244 2.884570099999,-0.0436 2.884570099999,1.57738 0,1.28239 -0.920440019999,2.33164 -2.045470099999,2.33164 -1.12502,0 -3.23438,0.38595 -4.6875201,0.85721 -2.14468,0.69585 -2.24258,0.57489 -0.52005,-0.6427 1.1669,-0.82499 1.6693901,-1.95224 1.11658,-2.50505 -0.55281,-0.55281 -1.98594,-0.19134 -3.18472,0.80378 -1.2275698,1.01878 -3.7105498,1.42462 -5.6847098,0.92916 -1.92783,-0.48407 -3.776991,-0.39413 -4.109261,0.19951 -0.33226,0.59359 -0.40634,0.26766 -0.16463,-0.72365 0.24171,-0.99157 -0.552,-1.80288 -1.76382,-1.80288 -1.21182,0 -1.78271,-0.68053 -1.26863,-1.51234 0.64253,-1.0396 1.55102,-1.00079 2.90655,0.12429 1.084541,0.90011 2.677781,1.20026 3.540541,0.66702 z m -8.105831,1.51119 c 1.3633,3.55273 -13.776705,3.99575 -17.025781,0.49825 -1.161867,-1.25068 -0.374828,-1.44993 3.136426,-0.79387 2.578125,0.48189 4.687495,0.28619 4.687495,-0.43392 0,-1.99194 8.41348,-1.32481 9.20186,0.72965 z m -7.75955,0.73738 c 0,0.84009 0.64904,1.12634 1.44231,0.63605 0.79327,-0.49006 1.4423,-1.17762 1.4423,-1.52743 0,-0.34997 -0.64903,-0.63605 -1.4423,-0.63605 -0.79327,0 -1.44231,0.68735 -1.44231,1.52743 z m 41.907671,-0.77019 c -0.0747,0.77341 -1.8216498,1.85717 -3.8823798,2.40829 -3.6614901,0.97921 -3.6854701,0.94028 -1.0542701,-1.71114 2.7884801,-2.81 5.1728499,-3.14672 4.9366499,-0.69715 z m 10.015401,-0.0382 c 0,1.18988 -0.9205,2.16342 -2.045471,2.16342 -1.12503,0 -3.23444,0.43446 -4.68752,0.96574 -2.49591,0.91227 -2.49008,0.79267 0.10575,-2.16349 3.17197,-3.61247 6.627401,-4.116 6.627401,-0.96567 z m 9.70572,0.27092 c 0.28128,0.84319 -1.13871,1.8484 -3.15502,2.23386 -4.14185,0.79179 -4.43055,0.40339 -1.86318,-2.50691 1.97771,-2.24188 4.22057,-2.11988 5.0182,0.27311 z m 3.99619,-0.99223 c -0.49007,0.79326 -0.24258,1.44234 0.5509,1.44234 0.79327,0 1.8863,-0.71836 2.42891,-1.59628 0.69111,-1.11827 1.33981,-1.02478 2.16605,0.31235 1.40893,2.2797 -1.0384,5.69992 -3.4484,4.81927 -2.51084,-0.9175 -5.83386,1.65091 -4.63846,3.58511 0.77184,1.24882 1.62115,1.19824 3.3463,-0.19951 1.733,-1.40396 2.04067,-1.42152 1.22877,-0.0703 -1.64077,2.73101 0.21913,2.17438 5.31316,-1.59013 6.99219,-5.16728 8.28621,-5.72924 7.30504,-3.17229 -0.48952,1.27499 -0.0959,2.23844 0.91428,2.23844 1.37115,0 1.35464,0.50424 -0.073,2.2246 -1.28088,1.54335 -2.30664,1.76417 -3.34968,0.72113 -2.19265,-2.19264 -5.25342,-1.83765 -5.25342,0.60929 0,1.16199 1.29805,2.80739 2.88458,3.65647 5.85638,3.13424 2.65383,3.98125 -4.16322,1.10115 -9.6983,-4.09742 -12.03078,-2.94933 -11.0253,5.42687 0.96144,8.00939 6.07862,26.86171 7.59767,27.99061 0.60525,0.44973 1.1875,1.46693 1.29385,2.26019 0.1063,0.79327 0.92431,5.75274 1.81777,11.02103 0.89346,5.26834 1.21459,10.64692 0.71362,11.95237 -1.077,2.80657 -8.41786,6.91037 -9.83186,5.49638 -0.54021,-0.54022 -1.43389,-0.33743 -1.98572,0.45136 -0.55183,0.78863 -2.86773,2.62177 -5.14646,4.07365 -3.52052,2.24313 -4.658471,2.36404 -7.572161,0.80471 -4.35745,-2.33204 -4.42106,-4.02191 -0.12047,-3.19982 5.508921,1.05307 9.545671,-3.62032 9.900051,-11.46149 0.16954,-3.75279 -0.13682,-7.2684 -0.68086,-7.81249 -0.54403,-0.54403 -0.98923,-0.20551 -0.98923,0.75184 0,3.66671 -6.269911,10.31363 -8.931751,9.46879 -1.43368,-0.45518 -2.60673,-0.13464 -2.60673,0.71215 0,2.37346 7.19384,1.82152 8.132271,-0.62395 0.45681,-1.18989 1.4098,-2.16349 2.11819,-2.16349 2.19461,0 1.41896,3.76135 -1.27914,6.20313 -2.510671,2.27207 -6.103751,2.68124 -23.9579811,2.72834 -5.0845901,0.0109 -7.7210099,0.50152 -6.5655899,1.21557 1.4235398,0.87982 0.8139298,1.68699 -2.32104,3.07302 -2.33844,1.03388 -5.09189,3.01427 -6.11877,4.40089 -3.851931,5.20125 -14.431731,11.22518 -19.714786,11.22518 -6.188805,0 -18.066078,-5.74532 -20.617871,-9.9733 -2.399756,-3.97613 -0.773395,-3.8519 2.500337,0.19079 2.216585,2.73739 2.925612,2.91985 4.918689,1.26572 1.577742,-1.30938 2.328776,-1.40178 2.328776,-0.28619 0,3.14461 7.877169,-0.0436 12.412464,-5.02674 5.85161,-6.42706 7.76332,-6.34076 2.82955,0.12756 -2.11769,2.77642 -3.545891,5.04806 -3.173762,5.04806 0.372102,0 1.703232,0.39412 2.958012,0.87547 1.2765,0.48952 2.28143,0.13464 2.28143,-0.80635 0,-0.92491 -0.8113,-1.26365 -1.80289,-0.75271 -0.99158,0.51078 0.30647,-1.06419 2.88461,-3.50034 2.57813,-2.43611 4.68751,-5.41199 4.68751,-6.61305 0,-1.20113 0.64904,-2.18383 1.4423,-2.18383 1.66651,0 1.90496,-5.71474 0.33847,-8.11203 -0.58281,-0.89193 -3.17065,-2.07971 -5.75077,-2.63944 -3.55971,-0.77232 -5.91758,-0.26002 -9.776302,2.12506 -5.770166,3.56615 -7.724332,2.76901 -11.432065,-4.66331 -2.018714,-4.04662 -1.915386,-4.8521 1.566518,-12.21223 2.050283,-4.33396 4.631985,-8.2269 5.73711,-8.65095 1.10513,-0.42411 2.009327,-1.99968 2.009327,-3.50133 0,-1.50165 0.649036,-2.7303 1.442306,-2.7303 0.79327,0 1.442306,0.59593 1.442306,1.32431 0,0.7284 0.437189,2.46369 0.971553,3.85616 0.740943,1.93088 0.414785,2.31819 -1.374182,1.63172 -2.877449,-1.10421 -9.693523,6.46592 -9.693523,10.76591 0,2.79038 0.138626,2.76732 2.83663,-0.47154 1.560145,-1.87271 2.858222,-2.57695 2.884617,-1.56505 0.08689,3.33098 8.573635,-2.26923 9.592845,-6.33008 0.65975,-2.62868 1.2713,-3.1689 2.08919,-1.8455 0.63601,1.02907 0.77441,2.48908 0.30756,3.24445 -0.46685,0.75544 -0.12784,0.92792 0.75332,0.38323 0.8812,-0.54458 1.23656,-1.94299 0.7897,-3.10747 -0.58029,-1.51218 0.21401,-2.11726 2.77947,-2.11726 2.68605,0 3.76577,-0.90938 4.28122,-3.60578 0.37908,-1.98315 0.17401,-3.60577 -0.45583,-3.60577 -0.62981,0 -1.60084,-1.46033 -2.15785,-3.24518 -0.55701,-1.78483 -1.41204,-3.56968 -1.90008,-3.96631 -0.48805,-0.39685 -1.61322,-2.01925 -2.50041,-3.60578 -1.2696,-2.27038 -3.11231,-2.88462 -8.653846,-2.88462 -3.872425,0 -7.898423,-0.81131 -8.946675,-1.80289 -1.910644,-1.80736 -1.798741,-1.97957 1.545329,-2.37854 0.991586,-0.11829 1.712742,-1.33522 1.602567,-2.7043 -0.11017,-1.36908 0.376626,-2.48925 1.081728,-2.48925 2.517077,0 3.465206,-0.46118 4.887822,-2.37882 1.999755,-2.6953 23.798076,-4.53215 23.798076,-2.00544 0,1.0148 0.94934,1.44397 2.16346,0.97806 1.1899,-0.45682 2.16343,-0.16463 2.16343,0.64863 0,0.81333 1.4425098,0.46826 3.2055998,-0.76643 1.7630401,-1.23487 3.8724001,-2.23528 4.6874201,-2.22313 0.8151201,0.0109 0.5086001,0.65126 -0.68146,1.42021 -1.89578,1.22517 -1.88095,1.40085 0.12047,1.42021 1.2559601,0.0109 2.7111701,-0.40557 3.23367011,-0.92796 0.52278002,-0.52223 7.10483019,-1.07858 14.62731999,-1.23569 13.903551,-0.29055 18.629511,-1.9064 17.115261,-5.85238 -0.43446,-1.1319 -0.0327,-2.05801 0.89204,-2.05801 0.92497,0 1.28061,0.64902 0.79032,1.44229 z m -17.668231,13.95494 c 3.261471,3.48011 3.966321,5.54706 3.966321,11.63145 0,8.04346 -1.798421,14.09237 -5.359881,18.02773 -2.16142,2.38834 -2.37516,2.38845 -4.30119,0.003 -1.8327098,-2.27028 -1.9160598,-2.1654 -0.8703497,1.09514 0.6360497,1.98317 1.1392597,6.36422 1.1182097,9.73558 -0.0218,3.37138 0.45355,6.12981 1.05427,6.12981 1.55257,0 3.0599,-6.7905 2.07627,-9.35378 -0.46444,-1.21011 0.79752,-3.88901 2.889,-6.13302 4.806191,-5.15697 6.278301,-9.17371 6.278301,-17.13082 0,-7.57667 -3.03852,-14.21088 -7.587041,-16.56521 -2.85258,-1.47653 -2.76656,-1.17714 0.73609,2.56023 z m -34.68752,-0.68528 c -0.951931,0.95195 -1.730771,2.93734 -1.730771,4.41206 0,1.7263 -0.64209,2.31874 -1.80289,1.6634 -1.38181,-0.78013 -1.41116,-0.59359 -0.12565,0.79882 2.15617,2.33548 4.813171,0.69738 4.813171,-2.96744 0,-1.60331 1.41694,-3.41546 3.2452,-4.15034 3.06155,-1.23062 3.07788,-1.30961 0.28848,-1.39585 -1.6262,-0.0491 -3.73558,0.68746 -4.6875,1.63935 z m 16.0328199,0.71695 c -2.07981,0.40448 -3.4649701,2.04704 -4.0773101,4.83508 -0.51023,2.32244 -1.53152,4.59593 -2.26984,5.0522 -1.4658898,0.90599 1.9438,4.97267 4.1693301,4.97267 0.75281,0 2.22002,-1.02576 3.2604901,-2.27943 1.10654999,-1.33332 3.2804001,-2.01402 5.2372801,-1.6399 2.6931901,0.5146 3.0274001,0.25621 1.71398,-1.32634 -2.28183,-2.74949 -4.71837008,-2.4518 -7.7995202,0.95282 -3.42436,3.78387 -5.6908301,1.57999 -3.4447501,-3.34956 1.9842501,-4.35494 8.3315103,-6.31454 12.7659904,-3.9413 3.6244198,1.93972 3.9130098,3.18353 0.44536,1.91889 -2.4038901,-0.87661 -2.4038901,-0.78318 0,1.96174 1.41122,1.61144 2.5240398,5.19104 2.5240398,8.11907 0,4.29071 -1.0747198,6.22476 -5.9479599,10.70376 -3.27140008,3.00669 -6.4932502,5.31228 -7.1596602,5.12351 -0.66642,-0.18862 -0.83791,0.63076 -0.38104,1.82126 0.45681,1.19049 -0.0218,3.29205 -1.06774,4.67017 -1.04407,1.37813 0.25294,0.4023 2.8818001,-2.16898 2.62908,-2.57102 5.3503901,-4.32218 6.0473901,-3.89142 0.697,0.43064 0.93254,-0.0889 0.52332,-1.15501 -0.41539,-1.08261 1.2426101,-3.4068 3.7561801,-5.26518 4.2015998,-3.10633 4.4446698,-3.77187 3.6656798,-10.03572 -0.45899,-3.68978 -0.88032,-7.893 -0.93657,-9.34042 -0.0616,-1.58004 -2.0685897,-3.45325 -5.0225598,-4.68751 -2.7061001,-1.1307 -5.1033402,-1.96741 -5.3271202,-1.85942 -0.22349998,0.10794 -1.82436002,0.47208 -3.5567701,0.80902 z m -12.4303499,9.42687 c -2.22297,2.37641 -3.75214,4.61033 -3.39816,4.96433 0.8658,0.86582 8.16107,-6.50953 8.16107,-8.25061 0,-1.7928 -0.0327,-1.76985 -4.76291,3.28628 z m 0.61479,8.67825 c -2.05563,5.59591 -3.04356,12.62021 -1.77495,12.62021 0.66898,0 1.58444,-2.74448 2.03436,-6.09879 0.44989,-3.35436 1.50892,-6.3291 2.35336,-6.6106 1.9635997,-0.65453 2.0090597,-3.15599 0.0573,-3.15599 -0.8129,0 -2.01445,1.46033 -2.67012,3.24517 z m 5.6917998,3.45146 c 0.0556,1.47313 0.65917,3.97645 1.34095,5.56298 1.08196,2.51793 1.25243,2.35793 1.3409,-1.25831 0.0878,-3.5747 0.4083001,-3.88847 2.3372201,-2.2874 1.8417501,1.52853 2.63387008,1.45761 4.49384013,-0.4023 2.04907007,-2.04906 1.94228007,-2.24961 -1.15414004,-2.16757 -1.87664009,0.0491 -4.54786009,-0.40829 -5.93613019,-1.01763 -1.90766,-0.83748 -2.49923,-0.45409 -2.42264,1.57028 z m -20.9903408,14.35865 c -1.4532,2.69841 -3.26849,4.90622 -4.03398,4.90622 -0.76548,0 -0.63177,-0.91575 0.29715,-2.03506 1.01037,-1.21742 1.14205,-2.37302 0.32773,-2.87633 -1.32184,-0.81693 -3.79576,3.09411 -3.33476,5.27199 0.29878,1.4116 -0.27327,1.36772 -4.849213,-0.37177 -2.926505,-1.11266 -3.680182,-1.02805 -3.212133,0.36032 0.381641,1.13217 3.415518,1.83969 8.069336,1.88177 7.14459,0.0649 7.52978,-0.13192 9.17194,-4.67291 1.15372,-3.19055 2.08546,-4.15569 2.84989,-2.95206 0.81882,1.28928 1.14191,1.12705 1.15784,-0.58143 0.0425,-4.53886 -3.76374,-3.90734 -6.44381,1.06926 z m 33.7827111,1.54466 c -4.94373012,3.28944 -7.1336502,6.31564 -7.0680702,9.76703 0.0436,2.23577 0.55989,1.81129 2.09387008,-1.71796 1.12056003,-2.57815 2.96281012,-4.68751 4.09383012,-4.68751 2.19167,0 6.1478002,-3.95421 5.0522601,-5.04975 -0.35923,-0.35923 -2.23659,0.40067 -4.1718901,1.68819 z m 15.1172209,2.58127 c -0.48952,1.95062 -1.800001,4.30173 -2.912101,5.22468 -1.11206,0.92289 -2.00143,2.40988 -1.97635,3.30432 0.0796,2.8324 7.165931,-6.33635 7.165931,-9.27146 0,-3.89899 -1.2117,-3.50399 -2.27748,0.74246 z m -29.934041,0.29927 c -1.76449,1.76446 -0.98929,11.43096 1.1441897,14.26757 1.8979001,2.52338 1.9562801,2.24379 0.5915601,-2.83268 -1.0650101,-3.96168 -1.0570501,-6.63557 0.0273,-9.01443 1.44038,-3.16123 0.40285,-4.58596 -1.7625798,-2.42046 z m 12.7403901,6.24995 c 0.49007,0.79326 1.50215,1.44234 2.24859,1.44234 0.74643,0 1.3571901,-0.64908 1.3571901,-1.44234 0,-0.79326 -1.0118601,-1.44229 -2.2485801,-1.44229 -1.23672,0 -1.8474801,0.64903 -1.3572,1.44229 z m 4.3335801,4.30599 c -1.0729201,3.38036 -8.9066203,4.08264 -12.3001304,1.10267 -1.12917,-0.99157 -0.80537,-0.31127 0.7195601,1.51228 1.96605,2.35074 4.0053001,3.18996 7.0095902,2.88463 4.4429801,-0.45136 9.4851599,-5.93791 6.9162601,-7.52559 -0.78269,-0.48352 -1.8381,0.42792 -2.34528,2.02601 z m -37.5066612,21.65552 c -0.49028,0.79325 -0.20404,1.44233 0.63604,1.44233 0.84008,0 1.52742,-0.64908 1.52742,-1.44233 0,-0.79327 -0.28619,-1.44229 -0.63603,-1.44229 -0.3498,0 -1.03716,0.64902 -1.52743,1.44229 z m 83.116652,-85.45659 c 1.79405,2.2876 1.74303,2.33857 -0.54458,0.54457 -1.38822,-1.08872 -2.52404,-2.22454 -2.52404,-2.52403 0,-1.18712 1.18439,-0.42301 3.06856,1.97946 z m 5.585281,3.13331 c 0,1.33075 0.81131,3.27477 1.80289,4.31994 1.49054,1.5712 1.26556,1.5766 -1.29843,0.0327 -1.70569,-1.02793 -2.768901,-2.73515 -2.362681,-3.79373 0.40612,-1.05863 -0.145,-3.05231 -1.2256,-4.43043 -1.7771,-2.2669 -1.72374,-2.31705 0.55979,-0.52605 1.388211,1.08873 2.524031,3.06828 2.524031,4.39904 z m -99.828689,-0.0976 c 0.44891,1.34809 -0.18507,1.69386 -2.043943,1.11467 -1.482073,-0.46172 -3.668238,-0.21533 -4.858141,0.54774 -1.440098,0.92344 -1.560657,1.39464 -0.360599,1.40936 0.991586,0.0109 1.802883,0.92197 1.802883,2.02186 0,1.89349 -8.517057,4.22466 -10.091262,2.76203 -0.393961,-0.36578 1.75046,-2.92611 4.765356,-5.68901 5.482199,-5.02407 9.561335,-5.8435 10.785684,-2.16665 z m -1.132855,3.7299 c 0,0.34997 -0.649036,1.03714 -1.442306,1.52743 -0.79327,0.49007 -1.442306,0.20388 -1.442306,-0.63605 0,-0.84008 0.649036,-1.52743 1.442306,-1.52743 0.79327,0 1.442306,0.28619 1.442306,0.63605 z m 99.519203,4.31558 c 0,1.38379 -1.49986,2.02431 -4.5381,1.93791 -4.16208,-0.11829 -4.31848,-0.28946 -1.88777,-2.06695 3.45903,-2.52932 6.42587,-2.46974 6.42587,0.1292 z m 8.673851,15.54692 c 1.05176,14.17353 1.03699,14.93436 -0.75009,38.63599 -1.11532,14.79236 -1.25776,15.2543 -6.13112,19.88196 -10.508741,9.97908 -24.033111,14.08408 -29.529811,8.96313 -1.70237,-1.58597 -4.03392,-2.88359 -5.18119,-2.88359 -1.32961,0 -0.83878,-0.96285 1.35366,-2.65535 4.00977,-3.09537 9.93009,-4.87138 9.93009,-2.97888 0,0.71901 -1.29805,1.30731 -2.88458,1.30731 -1.69932,0 -2.88464,0.96155 -2.88464,2.34006 0,1.9668 0.36251,2.03909 2.27339,0.45354 1.87288,-1.55437 2.47928,-1.55366 3.44202,0.004 0.92442,1.49582 2.78477,1.13391 8.9045,-1.73224 9.85764,-4.61687 17.926461,-10.64708 15.388791,-11.50085 -1.52133,-0.51187 -1.53343,-1.05819 -0.0632,-2.84037 1.48252,-1.79684 1.41552,-2.54283 -0.36033,-4.0169 -1.19965,-0.99589 -2.18126,-2.92094 -2.18126,-4.27813 0,-3.95312 -1.741781,-4.60493 -3.935631,-1.47281 -1.11701,1.59475 -2.63556,2.52588 -3.37459,2.06917 -0.73897,-0.45681 -1.34362,0.18153 -1.34362,1.4182 0,2.67634 1.65636,2.89989 4.01446,0.54185 2.53548,-2.53548 3.93214,-0.20442 1.59972,2.66985 -1.74009,2.14457 -1.71938,2.31361 0.15536,1.26555 1.54766,-0.86526 1.74587,-0.75226 0.69628,0.39686 -2.13018,2.33269 -7.51513,0.47425 -8.39698,-2.89826 -0.81834,-3.12917 0.17771,-6.93903 1.81379,-6.93903 0.55881,0 2.40182,-1.29102 4.09547,-2.86894 3.05918,-2.85006 7.560651,-2.60339 7.560651,0.4143 0,1.67015 4.20378,-3.31958 4.28108,-5.08142 0.0272,-0.57511 -2.06352,-0.72006 -4.64168,-0.32217 -3.854521,0.595 -4.137061,0.47862 -1.58985,-0.65617 4.32152,-1.92489 5.41798,-4.15896 5.90821,-12.03855 0.27529,-4.42336 -0.15754,-6.85095 -1.22118,-6.85095 -1.12966,0 -1.19181,-0.56666 -0.19788,-1.80289 2.1244,-2.64189 1.71823,-13.76725 -0.57206,-15.66804 -1.55578,-1.29119 -1.9668,-0.99257 -1.9668,1.42898 0,1.68362 -0.62373,3.06119 -1.38615,3.06119 -1.970781,0 -7.419681,-6.11361 -6.333851,-7.10661 0.49661,-0.45408 1.17742,-0.0621 1.51234,0.87204 0.4421,1.23274 1.7474,1.30126 4.762971,0.25021 2.99311,-1.04342 3.91759,-2.12254 3.30819,-3.86159 -0.67666,-1.93094 -0.46826,-2.0639 1.04299,-0.66495 1.1289,1.04511 2.28865,7.13774 2.88272,15.14424 z M -49.038463,-83.3103 c -1.189902,0.46281 -2.861956,1.78903 -3.715669,2.94747 -1.007477,1.36706 -2.652487,1.75705 -4.687496,1.11113 -6.372229,-2.02247 -2.563964,-4.19003 8.403165,-4.78297 1.923078,-0.10411 1.923078,-0.0218 0,0.72437 z m 90.085682,6.97676 c 1.6381,2.50003 3.21765,3.41922 4.8195,2.80454 1.71114,-0.65666 1.47761,0.0491 -0.82854,2.50386 -1.7662,1.88003 -3.21127,4.79845 -3.21127,6.48534 0,1.68694 -0.6922,3.49495 -1.53828,4.01783 -2.79071,1.72477 -2.94842,-0.34779 -0.42847,-5.63189 1.36602,-2.86467 1.95405,-5.70341 1.30666,-6.30833 -0.64744,-0.60493 -1.46687,-0.28837 -1.82104,0.70305 -1.30704,3.65974 -4.02029,1.64256 -4.36895,-3.24806 -0.43883,-6.15309 2.48871,-6.79267 6.07039,-1.32634 z m -4.20678,-0.93391 c -0.45627,0.73842 -0.17008,1.75034 0.636,2.24858 0.80624,0.49824 1.46584,-0.10575 1.46584,-1.34264 0,-2.53346 -0.86544,-2.90649 -2.10184,-0.90594 z m -94.922512,1.09385 c 0.281448,0.84423 -0.356566,1.86818 -1.417748,2.27539 -1.173439,0.45027 -2.01262,-0.36414 -2.14176,-2.07839 -0.215324,-2.85825 2.620123,-3.01519 3.559508,-0.19679 z m 7.601305,-1.10486 c 0,2.85328 -7.399958,10.04394 -9.504993,9.23619 -1.632968,-0.62662 -0.827782,-2.01102 3.313319,-5.69671 6.023901,-5.3614 6.191674,-5.45728 6.191674,-3.53948 z m 15.865375,7.39999 c 0,0.65105 -2.710745,1.14629 -6.02389,1.10055 -5.661288,-0.078 -5.821718,-0.19133 -2.665199,-1.88062 3.424639,-1.83282 8.689089,-1.36019 8.689089,0.78007 z m -14.918184,1.11473 c -2.27869,2.51792 -2.096597,2.6186 4.103383,2.26858 3.623037,-0.20443 6.487882,0.2731 6.487882,1.08147 0,0.79621 -2.109374,1.33217 -4.6875,1.19104 -6.875133,-0.37668 -7.611579,-0.14827 -5.697114,1.76637 2.678255,2.67823 2.113566,3.58886 -2.956731,4.76797 -3.195774,0.74317 -3.884261,1.2932 -2.163462,1.72837 3.63202,0.91842 3.118475,3.57884 -0.587082,3.0414 -1.711119,-0.24803 -3.410625,0.42847 -3.776676,1.50378 -0.509909,1.49778 0.386439,1.72395 3.832278,0.96716 3.157774,-0.69356 4.497831,-0.45245 4.497831,0.8094 0,0.98853 -0.401811,1.39552 -0.892859,0.90441 -0.491048,-0.49115 -1.83551,0.0491 -2.98764,1.20195 -2.427652,2.42764 -3.29139,2.53198 -6.123528,0.7399 -1.771729,-1.12105 -1.682176,-2.17363 0.619147,-7.27707 1.479761,-3.28149 3.872197,-6.59883 5.31652,-7.37182 1.444328,-0.77298 2.626048,-2.11104 2.626048,-2.97359 0,-1.11031 -0.565075,-1.09919 -1.935588,0.0382 -3.790893,3.14613 -3.579155,-0.16953 0.224754,-3.51942 4.577707,-4.0313 7.528301,-4.65601 4.100348,-0.86816 z m 110.064627,1.33151 c -0.0436,3.75808 -0.15482,3.82268 -2.11727,1.2298 -2.08608,-2.75592 -1.7076,-5.19617 0.80597,-5.19617 0.74644,0 1.33654,1.7849 1.3113,3.96637 z m -91.997403,2.11535 c -2.45177,2.45181 -2.12093,3.56969 1.323,4.47029 1.66636,0.43556 2.60983,1.47172 2.0966,2.30216 -0.6368,1.03034 -1.81392,0.9598 -3.70662,-0.22241 -3.60889,-2.25375 -4.25941,-5.70673 -1.47447,-7.8265 2.72519,-2.0743 4.10926,-1.07143 1.76149,1.2763 z m 69.625882,-1.85446 c 0.45627,0.73848 0.17008,1.75034 -0.63599,2.24859 -0.80624,0.49824 -1.46584,-0.10576 -1.46584,-1.34264 0,-2.53346 0.86544,-2.90649 2.10183,-0.90595 z m 8.71545,0.0998 c -0.49007,0.79327 -1.54041,1.44235 -2.33368,1.44235 -0.79326,0 -1.04118,-0.64908 -0.5509,-1.44235 0.49007,-0.79325 1.54041,-1.44228 2.33368,-1.44228 0.79326,0 1.04118,0.64903 0.5509,1.44228 z m -74.278832,2.88464 c 0,0.79326 -0.68734,1.44228 -1.52742,1.44228 -0.84009,0 -1.12631,-0.64902 -0.63604,-1.44228 0.49029,-0.79327 1.17761,-1.44229 1.52743,-1.44229 0.34981,0 0.63603,0.64902 0.63603,1.44229 z m 88.744523,7.14258 c -1.66416,2.6927 -5.488801,1.74713 -4.72634,-1.16852 0.3854,-1.47386 0.0327,-3.90772 -0.782961,-5.40861 -0.94427,-1.73665 -0.0436,-1.31178 2.479771,1.16848 2.17995,2.14358 3.54325,4.57745 3.02953,5.40865 z m -13.023351,-5.7003 c -0.49006,0.79327 -1.50214,1.44235 -2.24858,1.44235 -0.74649,0 -1.35719,-0.64908 -1.35719,-1.44235 0,-0.79326 1.01185,-1.44228 2.24858,-1.44228 1.23672,0 1.84742,0.64902 1.35719,1.44228 z m -91.586553,1.44235 c 0,0.79326 -0.610736,1.44228 -1.357185,1.44228 -0.746455,0 -1.758314,-0.64902 -2.248582,-1.44228 -0.490285,-0.79327 0.120472,-1.44235 1.357184,-1.44235 1.236723,0 2.248583,0.64908 2.248583,1.44235 z m 82.390533,6.15384 c -1.42447,1.41383 -1.59013,1.24817 -0.80744,-0.80744 0.54185,-1.42239 1.34815,-2.2229 1.7922,-1.77885 0.44428,0.44428 9.3e-4,1.6079 -0.98476,2.58629 z m -86.717456,-0.38486 c 0,0.79327 -0.28619,1.44229 -0.636034,1.44229 -0.349807,0 -1.037159,-0.64902 -1.527427,-1.44229 -0.490285,-0.79326 -0.20404,-1.44229 0.636034,-1.44229 0.840085,0 1.527427,0.64903 1.527427,1.44229 z m 89.666026,3.21857 c -1.07029,1.0703 -1.25798,0.50696 -0.63065,-1.8919 0.51024,-1.95023 1.16384,-2.60406 1.52389,-1.52384 0.3467,1.04053 -0.0551,2.57761 -0.89324,3.41574 z m 5.06922,-1.50584 c -0.46063,1.15058 -0.8022,0.80884 -0.87138,-0.87138 -0.0627,-1.52041 0.27801,-2.37227 0.75751,-1.89306 0.47916,0.47917 0.5304,1.72331 0.11393,2.76444 z m 7.0043,0.8113 c -0.0638,4.45666 -4.78979,7.53109 -6.73599,4.38209 -0.73782,-1.19383 -0.0927,-2.22378 1.84061,-2.93899 1.85599,-0.68658 2.66533,-1.91206 2.14992,-3.25525 -0.46336,-1.20723 -0.0273,-2.15417 0.98782,-2.15417 1.0317,0 1.78997,1.71115 1.75764,3.96632 z m 7.875851,1.80289 c 0,2.70239 -5.75957,7.21198 -9.014451,7.05809 -2.98548,-0.14119 -2.9271,-0.2791 0.7291,-1.72352 2.896191,-1.14415 3.750131,-2.27626 3.147991,-4.17346 -0.61463,-1.93661 -0.0627,-2.6034 2.15553,-2.6034 1.64,0 2.98183,0.64902 2.98183,1.44229 z m -101.744301,1.34264 c 1.06665,1.72586 -1.646569,3.43591 -3.567701,2.24858 -1.613017,-0.99687 -0.554086,-3.59122 1.465839,-3.59122 0.699634,0 1.645473,0.60421 2.101862,1.34264 z m -14.722058,6.82412 c -0.991586,0.40012 -1.802884,1.64693 -1.802884,2.7707 0,2.5243 -1.686473,2.6197 -4.250737,0.2404 -1.582637,-1.46845 -1.78581,-1.35425 -1.095345,0.61572 0.466245,1.3302 -0.04797,3.16193 -1.142743,4.07049 -1.624448,1.3482 -1.906408,0.90343 -1.533424,-2.41861 0.346863,-3.08953 1.194771,-4.0429 3.518482,-3.95595 1.683801,0.0627 3.061461,-0.42357 3.061461,-1.08175 0,-0.65791 1.135815,-1.14498 2.52404,-1.08234 1.507841,0.0681 1.798185,0.40666 0.72115,0.84134 z m 99.158668,2.88998 c 0,1.39202 0.81457,1.92002 2.16343,1.40243 1.1899,-0.45681 2.16349,-0.27093 2.16349,0.41266 0,1.20837 -4.34153,3.45979 -5.13731,2.66407 -0.21859,-0.21859 -0.86941,-2.27785 -1.44621,-4.57598 -0.74829,-2.98139 -0.57527,-3.88591 0.60394,-3.15714 0.90894,0.56175 1.65266,2.02612 1.65266,3.25407 z m -111.159075,11.02409 c 0.05577,3.02157 -0.492247,5.12688 -1.217747,4.67852 -0.725517,-0.44863 -1.681043,5e-5 -2.123389,0.9966 -0.679705,1.53125 -0.176893,-14.11472 0.521193,-16.21693 0.661404,-1.99188 2.731475,5.74669 2.819959,10.54181 z m 10.947407,-4.80199 c -0.294639,3.99935 -1.046824,4.41316 -5.740131,3.15795 l -4.124098,-1.10295 4.91775,-2.42225 c 2.704764,-1.33228 4.971544,-2.43708 5.037291,-2.45513 0.06574,-0.0163 0.02508,1.25199 -0.09081,2.82238 z m 1.413578,7.24093 c -1.444601,1.59623 -2.957665,2.57112 -3.36237,2.16648 -0.84696,-0.84701 4.500894,-6.39124 5.3968,-5.59504 0.325658,0.28946 -0.589829,1.83228 -2.03443,3.42856 z m -6.129807,-0.48734 c -0.991587,0.40012 -2.614181,0.40012 -3.605767,0 -0.991587,-0.40012 -0.180273,-0.72747 1.802883,-0.72747 1.983173,0 2.79447,0.32708 1.802884,0.72747 z m 30.831875,2.92109 c -4.64167,2.43202 -4.95048,3.88069 -0.54344,2.54917 2.12829,-0.64303 2.74879,-0.49389 1.80289,0.43337 -0.79327,0.77751 -3.56452,1.81036 -6.15832,2.29519 -4.114003,0.76901 -4.482228,0.6004 -2.884611,-1.32083 4.653551,-5.59613 7.365571,-7.55601 9.383981,-6.7815 1.68012,0.64477 1.30856,1.3005 -1.60052,2.82471 z m -10.19408,2.65994 c -2.746968,2.07774 -6.575293,2.8637 -6.575293,1.35 0,-0.8728 5.749604,-3.35306 7.93269,-3.42202 0.79327,-0.0273 0.182453,0.90736 -1.357397,2.07202 z m -23.161834,3.55993 c 1.23065,2.37978 1.838131,4.32691 1.349961,4.32691 -1.53139,0 -6.165016,-6.42171 -5.458491,-7.56489 1.114185,-1.80284 1.768519,-1.2871 4.10853,3.23798 z m 5.408656,-3.3717 c -0.991587,0.40012 -2.614187,0.40012 -3.605773,0 -0.991586,-0.40012 -0.180272,-0.72753 1.802889,-0.72753 1.983173,0 2.79447,0.32762 1.802884,0.72753 z m 5.408651,0.48679 c 0,0.79327 -0.649035,1.44229 -1.442305,1.44229 -0.793271,0 -1.442306,-0.64902 -1.442306,-1.44229 0,-0.79326 0.649035,-1.44229 1.442306,-1.44229 0.79327,0 1.442305,0.64903 1.442305,1.44229 z m 3.007025,3.0358 c -0.760029,1.90002 -1.423008,2.69634 -1.473296,1.76968 -0.122108,-2.25092 1.55803,-6.52142 2.281208,-5.7982 0.315681,0.31562 -0.04797,2.12849 -0.807912,4.02852 z m 103.061894,-0.24694 c -0.52277,0.84608 -2.45932,1.53827 -4.30315,1.53827 -2.18737,0 -3.62633,1.04741 -4.1406,3.01394 -0.59675,2.28195 -1.51332,2.78379 -3.77395,2.06624 -1.74658,-0.55434 -2.98586,-0.30854 -2.98586,0.59184 0,0.84673 -0.64903,1.53953 -1.44229,1.53953 -0.79327,0 -1.44229,-0.97359 -1.44229,-2.16348 0,-1.1899 0.87296,-2.16343 1.93988,-2.16343 1.06697,0 3.16177,-1.35011 4.65503,-3.0002 1.86689,-2.06285 3.96442,-2.81676 6.71397,-2.4132 2.1993,0.32271 3.99881,-0.0578 3.99881,-0.84603 0,-0.78809 0.38922,-1.04337 0.86555,-0.56732 0.47589,0.4759 0.43773,1.55781 -0.085,2.40384 z M -53.365385,-16.636 c 0,0.76835 -0.973559,1.02341 -2.163462,0.56682 -1.189903,-0.45682 -2.163462,-1.08529 -2.163462,-1.39705 0,-0.31181 0.973559,-0.56681 2.163462,-0.56681 1.189903,0 2.163462,0.62863 2.163462,1.39704 z m 11.538462,0.92071 c 0,0.31181 -1.336383,0.56682 -2.969738,0.56682 -1.633356,0 -2.586129,-0.62067 -2.117273,-1.37932 0.769639,-1.24529 5.087011,-0.5557 5.087011,0.8125 z m 4.261568,1.36674 c -2.778776,3.34821 -6.651796,5.0685 -9.205162,4.08869 -2.92445,-1.12223 -2.937511,-3.44626 -0.01963,-3.44626 1.236718,0 1.847453,0.64902 1.357185,1.44229 -1.605195,2.59723 1.654484,1.5107 4.326922,-1.44229 3.048978,-3.36909 6.291667,-3.95749 3.540418,-0.64243 z m 40.9941531,2.73827 c 1.99505,3.04478 5.1904601,22.01072 8.8809999,52.71173 0.42902,3.56974 1.16722,8.43693 1.64023,10.81596 0.85377,4.29404 0.80874,4.27567 -6.1844398,-2.52327 -3.8744101,-3.7668 -7.47605019,-6.84915 -8.00362021,-6.84958 -0.52768001,-4.4e-4 -3.58021009,2.97692 -6.78369019,6.61627 -5.5344998,6.2875 -9.8080298,7.46911 -8.2316998,2.276 0.4011,-1.32149 1.10481,-5.97237 1.56376,-10.33538 0.45894,-4.36295 1.10376,-8.90623 1.43292,-10.09612 0.64283,-2.32386 2.3971597,-18.06288 2.4114997,-21.63458 0.005,-1.1899 0.5407601,-4.11056 1.1916401,-6.49035 0.65066,-2.37984 1.58228,-6.12834 2.07038,-8.32997 0.75636,-3.41199 5.3835902,-9.6989 7.13851021,-9.6989 0.30527001,0 1.59847009,1.5922 2.87351009,3.53819 z m -67.9224251,5.22069 c 2.620739,5.03258 4.992084,7.1862 11.193073,10.16546 8.343168,4.00851 9.681933,6.43808 4.983247,9.04343 -1.58654,0.87973 -3.403646,2.41082 -4.038018,3.4024 -1.966126,3.07323 -4.977153,1.99083 -6.018362,-2.16344 -1.946235,-7.76533 -6.881445,-17.62139 -8.364554,-16.70482 -0.886017,0.54764 -1.060353,0.21969 -0.427595,-0.80405 0.587578,-0.95069 0.07261,-3.24822 -1.14439,-5.10557 -1.216989,-1.85735 -1.813802,-3.7759 -1.326243,-4.26346 1.158465,-1.1585 1.251937,-1.04162 5.142842,6.43005 z m 14.012859,-6.68054 c 0,0.34997 -0.649042,1.03721 -1.442312,1.52744 -0.79327,0.49007 -1.442305,0.20388 -1.442305,-0.63599 0,-0.8401 0.649035,-1.52744 1.442305,-1.52744 0.79327,0 1.442312,0.28619 1.442312,0.63599 z m 42.0563958,7.02021 c -0.86135,1.03781 -3.2198598,14.18084 -5.2411498,29.20668 -2.0213,15.02583 -3.96632,28.11664 -4.32227,29.09067 -0.35597,0.97402 2.55466,6.41882 6.46804,12.09955 3.9133898,5.68068 6.7278099,10.95534 6.2543699,11.72146 C -5.7390922,76.83456 -11.564892,72.05105 -18.212072,65.43838 -30.218343,53.4945 -31.543323,50.86521 -28.226213,45.56612 c 0.86909,-1.38837 0.74415,-1.70193 -0.39712,-0.99659 -2.63576,1.62898 -1.93468,-0.7895 0.81082,-2.79709 1.76502,-1.29058 2.40424,-3.60936 2.22615,-8.07535 -0.15351,-3.8496 0.21402,-5.51441 0.9533,-4.31819 1.13853,1.84219 2.90757,-4.8318 3.10522,-11.71491 0.0398,-1.38822 0.71948,-2.52404 1.51026,-2.52404 0.79079,0 1.02688,-0.66483 0.52463,-1.4775 -1.51348,-2.44886 0.765031,-10.21354 2.663151,-9.07549 0.92704,0.55581 0.78174,-0.10357 -0.32287,-1.46458 -1.10463,-1.36133 -1.59141,-2.89221 -1.08174,-3.40184 0.5097,-0.50969 0.92669,-0.13138 0.92669,0.84112 0,0.97229 0.65963,1.36014 1.46583,0.8619 0.80621,-0.49824 1.11115,-1.47985 0.67764,-2.18131 -1.05391,-1.70526 3.73928,-7.17917 6.2863898,-7.17917 1.50007,0 1.61673,0.48516 0.45354,1.887 z M 14.543668,-1.703 c 2.88409,3.5474 4.615951,8.98451 7.661831,24.0545 2.16447,10.70911 4.63115,21.85416 5.4816,24.76675 1.35703,4.64783 1.15397,5.79472 -1.65979,9.37503 -7.737281,9.84515 -19.0189508,20.49735 -20.9313009,19.7635 -1.11608,-0.42847 -1.67773,-1.69484 -1.24806,-2.81452 0.42956,-1.11968 1.36227,-1.67669 2.0724001,-1.23781 0.71013,0.43882 1.29118,-0.53859 1.29118,-2.17172 0,-1.63336 0.54589,-2.96977 1.21306,-2.96977 0.66724,0 2.9928498,-3.26999 5.1681098,-7.26661 l 3.95498,-7.2666 -2.32255,-14.00738 C 13.947738,30.8183 12.607168,21.91883 12.246078,18.74572 11.885208,15.57267 10.967708,9.73135 10.207698,5.76497 7.5899582,-7.89576 8.3893782,-9.27264 14.543668,-1.703 Z M -64.40614,13.69766 c 8.436533,25.10953 15.993115,51.76045 14.073967,49.63686 -1.177615,-1.30312 -21.78321,-64.05853 -21.78321,-66.34195 0,-3.61972 3.237089,3.39471 7.709243,16.70509 z M -20.192313,1.87917 c 0,0.63922 -1.33534,5.02026 -2.96742,9.73557 -2.46495,7.1216 -4.33396,9.67229 -11.03766,15.06367 -4.43863,3.56969 -9.088876,7.62617 -10.333885,9.01444 -3.197044,3.56477 -4.233042,3.19677 -6.931657,-2.46227 -1.307791,-2.74246 -2.851877,-4.6933 -3.4313,-4.3352 -0.579429,0.35814 -1.407408,-0.27148 -1.839953,-1.39836 -0.483144,-1.25901 1.266488,-3.52111 4.536366,-5.86503 l 5.322821,-3.81554 -4.993594,4.43098 c -2.746477,2.43704 -4.430339,4.43098 -3.741911,4.43098 2.168814,0 10.986398,-7.34548 10.249282,-8.53821 -0.387039,-0.62623 0.898871,-2.64417 2.857595,-4.48429 1.958723,-1.84012 3.561317,-2.60635 3.561317,-1.7027 0,0.9036 -1.353663,2.36742 -3.008142,3.25287 -1.654479,0.88544 -2.6457,1.97236 -2.202715,2.41533 1.440414,1.44043 11.084186,-6.90906 10.054716,-8.70524 -0.53869,-0.9399 -0.45278,-1.2322 0.19096,-0.64957 0.6437,0.58263 2.09396,-0.0665 3.22281,-1.44229 1.36951,-1.66922 1.74131,-1.78174 1.11736,-0.33797 -0.51432,1.18995 0.46526,0.37886 2.1768,-1.80289 2.92026,-3.72205 7.19822,-5.38855 7.19822,-2.80406 z m 46.153822,2.23555 c 0,1.07553 5.84139,6.25579 12.98077,11.51165 7.13943,5.25586 12.97194,10.37947 12.96109,11.38582 -0.0382,3.47609 -1.7631,8.32006 -2.96406,8.32006 -0.66271,0 -5.394,-2.92836 -10.51392,-6.50741 -6.03174,-4.21647 -9.83785,-8.02466 -10.81139,-10.81727 -0.8263,-2.37046 -2.34747,-4.31983 -3.38032,-4.33198 -1.35174,-0.0164 -1.27172,-0.41375 0.28565,-1.42022 1.44229,-0.9321 1.56249,-1.40549 0.36087,-1.42021 -1.03677,-0.0109 -1.80289,-1.86082 -1.80289,-4.34904 0,-2.3798 0.64903,-4.32692 1.44229,-4.32692 0.79327,0 1.44229,0.88 1.44229,1.95552 z m -55.197142,27.25121 c -0.39914,1.78484 -1.92185,7.61908 -3.38375,12.965 l -2.65799,9.71981 8.62426,8.90552 c 4.74335,4.89799 6.74032,7.49212 4.43773,5.76473 -5.62733,-4.22159 -6.42216,-2.82662 -1.82417,3.20168 l 3.76655,4.93816 -3.18504,2.11481 c -2.74045,1.81957 -2.91333,2.44216 -1.23854,4.46014 1.07057,1.28998 2.57658,1.95602 3.34668,1.48007 0.79273,-0.49007 1.19112,0.56295 0.91831,2.42695 -0.78403,5.3567 -3.84841,4.85944 -6.52537,-1.05885 -1.373,-3.03553 -3.4339,-6.65487 -4.57978,-8.04314 -1.87169,-2.26749 -1.76756,-2.52403 1.02474,-2.52403 3.45804,0 3.74205,-1.02952 1.73809,-6.30037 -0.87037,-2.28918 -0.86546,-3.7717 0.0136,-4.06471 0.76094,-0.25348 -2.67902,-4.62543 -7.64436,-9.71508 -10.141452,-10.39539 -12.303033,-17.29164 -5.061539,-16.14825 0.594949,0.0938 0.919472,-0.43719 0.72115,-1.18029 -0.387964,-1.45379 8.915449,-10.03164 10.985449,-10.12872 0.68743,-0.0327 0.92328,1.40167 0.52414,3.18657 z m 61.712682,-1.84361 c -0.47644,0.77092 2.40596,3.75246 6.40526,6.62571 7.61016,5.46731 8.69877,7.74266 5.12395,10.70948 -1.18117,0.9803 -1.82404,2.30582 -1.4286,2.94569 0.7823,1.26578 -26.961081,26.14559 -27.998291,25.10838 -0.34833,-0.34834 3.73994,-5.16308 9.084991,-10.69957 5.34499,-5.53643 9.33596,-10.6848 8.86879,-11.44066 -0.46718,-0.75593 -0.18971,-1.78207 0.61637,-2.28037 0.80624,-0.49824 1.46584,-1.55496 1.46584,-2.34823 0,-0.79326 -0.55527,-1.09913 -1.23395,-0.67966 -0.67868,0.4192 -0.9091,-0.93679 -0.51187,-3.01387 0.46336,-2.42319 0.17826,-3.44055 -0.79501,-2.83895 -0.94535,0.58426 -1.23247,-0.14991 -0.76203,-1.94909 0.41539,-1.58767 0.16845,-2.88664 -0.54888,-2.88664 -0.71706,0 -1.4521,-1.94708 -1.63341,-4.32693 -0.23713,-3.11559 0.30636,-4.32691 1.94178,-4.32691 1.24932,0 1.88166,0.63076 1.40523,1.40162 z m -79.197791,19.63131 c 0.08482,1.52084 2.152859,7.03062 4.595582,12.24396 5.788807,12.35468 7.018297,17.20382 4.361985,17.20382 -1.272762,0 -2.971167,-3.57634 -4.598259,-9.68264 -1.419029,-5.32542 -3.826395,-12.26222 -5.349695,-15.41511 -3.228236,-6.68163 -3.461854,-8.54611 -0.966756,-7.7154 0.991586,0.33034 1.8723,1.84453 1.957143,3.36537 z m 56.8169,10.18427 c 0,3.44398 -3.3905098,3.9136 -5.4845999,0.75974 -2.57037,-3.8712 -4.85362011,-3.96305 -8.1436602,-0.32762 -2.08816,2.30734 -3.0206401,2.50108 -5.2716301,1.09536 -1.5040998,-0.93934 -2.7347398,-2.05745 -2.7347398,-2.48472 0,-0.42737 2.3752898,-3.22233 5.2783998,-6.21124 l 5.27844017,-5.4344 5.53890013,5.40862 c 3.0463701,2.97467 5.5388899,6.21211 5.5388899,7.19421 z m 31.871671,9.25728 c -2.76029,8.14262 -4.93763,12.33162 -6.57982,12.65908 -1.9794,0.39466 -2.17798,-0.0273 -1.0263,-2.17881 0.78536,-1.46752 1.12628,-4.28391 0.75761,-6.25861 -0.44373,-2.37592 0.57751,-5.27081 3.01863,-8.55811 2.02895,-2.73222 3.73012,-4.35483 3.78038,-3.60578 0.0491,0.74905 0.71329,-0.19243 1.47331,-2.09261 0.76001,-1.90003 1.67881,-3.15763 2.04176,-2.79469 0.36305,0.36305 -1.19655,6.13623 -3.46557,12.82953 z m -2.59545,-4.09109 c -2.62455,3.38886 -3.49435,5.44349 -2.30446,5.44349 1.43145,0 5.20997,-5.79897 4.34328,-6.66566 -0.33852,-0.33852 -1.25602,0.21151 -2.03882,1.22217 z M 4.9587481,66.90792 c -0.30909,0.31127 -1.55137,-0.25512 -2.76045,-1.25831 -1.75541009,-1.4569 -2.63415011,-1.46273 -4.3617602,-0.0272 -2.89237,2.40044 -2.76645,0.17225 0.17389,-3.07674 2.23708011,-2.47191 2.44827011,-2.4458 4.9239502,0.6076 1.42261,1.75464 2.33362,3.44502 2.02442,3.75639 z m 23.6745209,4.84255 c -0.23058,1.78484 0.0327,3.96822 0.58181,4.85192 0.55063,0.8837 -0.35923,4.45339 -2.02181,7.93264 -3.78103,7.91252 -3.65091,7.78659 -6.01708,5.82289 -1.08376,-0.89945 -2.538371,-1.15419 -3.232531,-0.56611 -0.69411,0.58803 -0.30963,-0.22895 0.853881,-1.81542 1.16373,-1.58653 3.02637,-3.59743 4.13913,-4.46871 2.1008,-1.64474 0.8891,-5.53932 -1.30208,-4.18512 -0.68364,0.42247 -1.70346,0.0218 -2.2663,-0.88752 -0.56453,-0.91346 0.10248,-2.2857 1.48759,-3.06092 1.38096,-0.77283 3.56347,-2.63447 4.84997,-4.137 3.00952,-3.5149 3.4382,-3.43973 2.92742,0.51351 z M 1.8751481,70.8787 c -1.22980008,0.49988 -1.33343009,1.74816 -0.3581501,4.31313 1.4240301,3.74554 0.4497301,10.62113 -1.50503,10.62113 -1.58479,0 -2.9489101,-5.96245 -1.7897,-7.82241 0.53204,-0.85394 0.77897997,-3.01296 0.54839,-4.79779 -0.30526,-2.36181 0.29600998,-3.21416 2.20798003,-3.13131 1.44496007,0.0627 1.84846007,0.43065 0.89662007,0.81725 z M -12.259622,81.30398 c 3.8459298,4.31219 3.9796498,4.74584 1.20311,3.90046 -1.7181,-0.52332 -3.54988,-0.26166 -4.07062,0.58083 -0.58373,0.94448 -1.96866,0.27583 -3.61147,-1.74418 -2.436501,-2.99572 -2.469491,-3.49309 -0.385351,-5.80911 1.253631,-1.39306 2.337391,-2.36338 2.408361,-2.15624 0.071,0.20715 2.07615,2.55985 4.45596,5.22824 z m 2.3474397,-3.06317 c 1.7940601,2.28762 1.7430301,2.33864 -0.5445797,0.54458 -2.40249,-1.88416 -3.16653,-3.06861 -1.97946,-3.06861 0.29949,0 1.43532,1.13582 2.5240397,2.52403 z m 29.3899313,1.81358 c 1.10469,1.78745 -3.433301,4.76726 -8.025751,5.27003 -3.9199398,0.42901 -4.1108898,0.24203 -2.4561698,-2.4077 0.9867801,-1.58015 2.6499598,-2.87302 3.6958298,-2.87302 1.04593,0 1.53791,-0.58851 1.09341,-1.30775 -0.44482,-0.71929 0.50097,-0.96547 2.1008,-0.54709 1.6,0.41866 3.216341,1.25788 3.591881,1.86553 z M 5.9314682,83.343 c -1.1778501,1.17785 -1.6045701,1.0165 -1.6045701,-0.60699 0,-1.21633 0.47316,-2.68478 1.0517,-3.26322 0.5784401,-0.57843 1.3005101,-0.30526 1.6045801,0.607 0.30418,0.91227 -0.16899,2.38071 -1.05171,3.26321 z M -4.3269521,81.48605 c 0,0.79325 -0.68735,1.44228 -1.5273801,1.44228 -0.84009,0 -1.12634,-0.64903 -0.63605,-1.44228 0.49006,-0.79327 1.1775701,-1.44235 1.5274301,-1.44235 0.34997,0 0.636,0.64908 0.636,1.44235 z m -33.2672239,3.49227 c 1.395353,1.68127 1.170633,1.91121 -1.249484,1.27832 -1.622949,-0.42411 -2.595298,-1.3469 -2.160769,-2.05 1.056881,-1.71005 1.418511,-1.62823 3.410253,0.77168 z m 52.875444,5.4061 c 2.71047,3.08692 2.70862,3.11364 -0.13682,1.97738 -1.58653,-0.63349 -4.18268,-1.3385 -5.7692097,-1.56669 C 4.8751781,90.14789 4.8007681,89.93158 8.6540382,88.69754 10.637248,88.06241 12.321468,87.4781 12.396858,87.399 c 0.0752,-0.079 1.37344,1.26436 2.88463,2.98542 z m -26.81974,-0.39904 c 0,1.38724 -3.50768,3.06764 -6.24776,2.99306 -0.92671,-0.0272 -0.42504,-0.99877 1.11478,-2.16349 3.17826,-2.40387 5.13298,-2.71977 5.13298,-0.82957 z m 17.1433001,19.0059 c -1.28142,0.79196 -0.65475,1.44212 2.0425301,2.11911 4.9904398,1.25253 4.8357898,2.14855 -1.01312,5.87006 l -4.7821002,3.04276 -1.46495999,-5.2062 -1.46497001,-5.2062 -0.18207,5.63222 c -0.17989,5.55142 -0.22405,5.59449 -3.0879701,3.00258 -1.5980801,-1.44625 -4.3565201,-2.73645 -6.1298099,-2.86712 -5.19555,-0.38268 -3.2123,-2.5864 4.2634698,-4.73713 3.8145101,-1.09743 7.5013502,-2.53885 8.1929403,-3.20308 0.69166,-0.66429 2.20639,-0.84369 3.36615,-0.39849 1.6631701,0.63823 1.7180601,1.05056 0.26002,1.95165 z m 10.9816899,8.02634 c -3.17306,2.81779 -8.0788498,6.96564 -10.9016598,9.21743 l -5.13246019,4.0941 -6.74820021,-5.76817 c -3.7114801,-3.17251 -7.4160798,-5.35535 -8.2324098,-4.85083 -0.81633,0.50478 -1.10428,1.53207 -0.63989,2.28347 0.46439,0.75139 1.34036,1.05961 1.9466,0.68494 0.60625,-0.3745 1.10227,0.24531 1.10227,1.37797 0,1.54373 -1.75124,1.10605 -6.996031,-1.74854 -3.84781,-2.09426 -7.66087,-4.60881 -8.47347,-5.5879 -2.05561,-2.47688 -9.691514,1.42822 -11.787396,6.02814 -0.864333,1.89702 -2.116368,3.4491 -2.782308,3.4491 -1.794969,0 -1.475106,-1.86541 0.901744,-5.25886 1.161899,-1.65881 1.648679,-3.52989 1.081733,-4.15787 -0.566945,-0.62803 -0.219521,-0.67502 0.772071,-0.10412 1.008294,0.58022 1.802883,0.29001 1.802883,-0.65818 0,-0.98553 1.208003,-1.37971 2.884613,-0.94126 1.58654,0.41484 2.88462,0.16626 2.88462,-0.55298 0,-1.5626 7.19147,-1.7861 7.25686,-0.22568 0.0251,0.59495 1.65336,2.25224 3.61873,3.68285 4.046201,2.94531 7.615141,2.00453 4.883221,-1.28725 -2.02184,-2.43616 -4.829441,-2.74508 -3.361471,-0.37014 0.637611,1.03164 0.39566,1.27362 -0.63603,0.63605 -2.45026,-1.51435 -2.02576,-3.74353 0.71288,-3.74353 1.307921,0 5.925751,2.92067 10.2618408,6.49041 7.5886802,6.24738 10.4163402,7.71017 10.4553702,5.4086 0.0109,-0.59495 3.5798301,-3.31794 7.9327003,-6.05114 4.3528797,-2.73319 7.9143297,-5.49157 7.9143297,-6.1298 0,-0.63818 1.13583,-1.13337 2.524041,-1.10034 1.8248,0.0436 0.92578,1.47936 -3.245181,5.18332 z m 12.217871,-3.85735 c 1.16689,0.73799 1.81597,1.62158 1.44229,1.96354 -1.81205,1.65832 -17.265941,9.80311 -17.265941,9.09985 0,-0.96645 11.947381,-12.3712 12.980771,-12.39126 0.39685,-0.005 1.67593,0.58988 2.84288,1.32787 z m 7.30695,2.84064 c -0.81954,1.53136 -3.27625,4.04449 -5.45936,5.58468 -3.36805,2.3762 -27.4981909,14.70792 -28.779781,14.70792 -0.23658,0 -0.4301,-0.91919 -0.4301,-2.04258 0,-1.12345 1.9470701,-2.90448 4.3269202,-3.95786 2.3798,-1.0534 4.3273598,-2.24363 4.3279098,-2.64495 6e-4,-0.40121 1.53883,-0.81796 3.41831,-0.92594 3.45527,-0.19843 18.523971,-9.06219 20.304781,-11.9436 1.76473,-2.85536 3.8718,-1.7312 2.2911,1.22233 z M 61.2915,129.27913 c -12.227081,13.53389 -18.076921,17.20213 -26.941891,16.89441 -4.7513,-0.16518 -5.20049,-0.35324 -1.89769,-0.79582 7.31617,-0.98024 13.75828,-4.74209 23.26328,-13.58454 10.599121,-9.86029 13.322511,-11.08813 5.576301,-2.51405 z m -65.6184521,2.05141 c 0,1.23672 -0.6596,1.84088 -1.4658401,1.34264 -0.80618,-0.49825 -1.09237,-1.5101 -0.63599,-2.24858 1.2363901,-2.00055 2.1018301,-1.62752 2.1018301,0.90594 z m -36.0576649,12.1749 c 1.189902,0.769 1.51442,1.39813 0.721155,1.39813 -0.79327,0 -2.41587,-0.62913 -3.605772,-1.39813 -1.189903,-0.76896 -1.51442,-1.39814 -0.72115,-1.39814 0.793264,0 2.415864,0.62918 3.605767,1.39814 z m 22.481005,-0.36578 c -1.589661,1.58969 -15.305501,4.4754 -14.413791,3.03257 0.41625,-0.67355 1.97834,-1.22461 3.47124,-1.22461 1.49291,0 3.02537,-0.50315 3.40546,-1.11822 0.38012,-0.615 2.47552,-1.26588 4.65651,-1.44637 2.180971,-0.18044 3.477241,0.15972 2.880581,0.75663 z"
       id="path1720" /></g></svg>
