<?xml version="1.0" encoding="UTF-8" standalone="no"?>
<!-- Created with Inkscape (http://www.inkscape.org/) -->

<svg
   width="210mm"
   height="297mm"
   viewBox="0 0 210 297"
   version="1.1"
   id="svg1730"
   xml:space="preserve"
   inkscape:version="1.2.2 (732a01da63, 2022-12-09)"
   sodipodi:docname="Mimir.svg"
   xmlns:inkscape="http://www.inkscape.org/namespaces/inkscape"
   xmlns:sodipodi="http://sodipodi.sourceforge.net/DTD/sodipodi-0.dtd"
   xmlns="http://www.w3.org/2000/svg"
   xmlns:svg="http://www.w3.org/2000/svg"><sodipodi:namedview
     id="namedview1732"
     pagecolor="#ffffff"
     bordercolor="#000000"
     borderopacity="0.25"
     inkscape:showpageshadow="2"
     inkscape:pageopacity="0.0"
     inkscape:pagecheckerboard="0"
     inkscape:deskcolor="#d1d1d1"
     inkscape:document-units="mm"
     showgrid="false"
     inkscape:zoom="2.3786088"
     inkscape:cx="272.84857"
     inkscape:cy="346.00057"
     inkscape:window-width="2560"
     inkscape:window-height="1494"
     inkscape:window-x="-11"
     inkscape:window-y="-11"
     inkscape:window-maximized="1"
     inkscape:current-layer="layer1" /><defs
     id="defs1727" /><g
     inkscape:label="레이어 1"
     inkscape:groupmode="layer"
     id="layer1"><path
       style="fill:#000000;stroke-width:1.48589"
       d="m -69.418442,-152.67649 c -1.228222,1.43017 -2.791627,3.57048 -3.474239,4.75618 -1.363578,2.36855 -2.944281,166.264542 -1.590486,164.91075 0.461185,-0.461071 0.889987,-15.1949719 0.952909,-32.741857 0.0629,-17.546826 0.733751,-32.882528 1.490729,-34.07941 0.867333,-1.371252 1.391315,11.012346 1.416857,33.485519 l 0.04044,35.661551 9.792619,11.509417 c 5.385937,6.330179 10.493994,11.075916 11.351229,10.546105 0.857241,-0.52959 3.362267,1.246632 5.566721,3.947706 4.164707,5.102797 7.429483,5.064277 7.429483,-0.0876 0,-1.586292 0.74019,-2.884154 1.64487,-2.884154 0.90468,0 1.24667,-1.037662 0.75997,-2.305984 -0.5074,-1.322342 -0.25834,-1.918752 0.58397,-1.398212 0.80787,0.499261 1.46888,-0.46893 1.46888,-2.151653 0,-1.682722 0.5015,-3.060434 1.11441,-3.061554 0.61294,-0.001 0.88662,3.655275 0.60816,8.125272 -0.40429,6.490679 0.14226,9.038043 2.71441,12.650248 3.27029,4.592697 3.20033,10.241265 -0.2074,16.745424 -2.15772,4.118376 -3.79489,3.095085 -6.53743,-4.086196 -2.55742,-6.69651 -6.024669,-9.637374 -3.94167,-3.343255 1.92915,5.829179 0.002,18.945158 -2.783942,18.945158 -0.752311,0 -1.367834,0.785221 -1.367834,1.744942 0,0.959722 1.671631,0.174661 3.714736,-1.744942 2.0431,-1.919383 3.71473,-4.376207 3.71473,-5.459648 0,-1.083382 0.65211,-1.969803 1.44912,-1.969803 0.94156,0 0.94156,1.334972 0,3.811456 -2.20256,5.793178 -1.91783,5.723038 4.65361,-1.146562 3.35651,-3.508815 5.65733,-5.543828 5.11294,-4.522277 -0.55368,1.039022 -0.13281,1.876533 0.95528,1.900903 1.06979,0.0225 -0.29326,2.078763 -3.02901,4.566247 -3.38666,3.079314 -4.73512,5.436458 -4.22533,7.38593 0.41182,1.574783 0.1427,2.863264 -0.59803,2.863264 -0.74073,0 -1.34678,-1.002961 -1.34678,-2.228823 0,-1.225912 -1.07547,-2.228873 -2.38993,-2.228873 -1.86507,0 -2.16483,0.897381 -1.36496,4.086246 l 1.02496,4.086196 -3.57443,-3.356845 c -4.817151,-4.523957 -6.255292,-2.541744 -2.31377,3.189095 l 3.18123,4.625446 -4.711029,-4.364246 c -5.223983,-4.839407 -6.385767,-2.691294 -1.739237,3.215835 5.034796,6.400704 3.93261,11.417984 -3.714737,16.909924 -3.677594,2.64103 -6.686531,5.77341 -6.686531,6.9608 0,1.47914 0.58482,1.72046 1.857369,0.76647 1.021553,-0.7658 4.866306,-3.63837 8.543899,-6.38342 l 6.686526,-4.991 -7.03037,7.33888 c -5.696017,5.94598 -7.319638,8.86417 -8.554396,15.37502 -1.952369,10.29478 -3.293617,11.74028 -2.043044,2.20174 1.483905,-11.31813 -0.613788,-7.04986 -2.495418,5.07754 -1.794582,11.56635 -0.734037,15.09954 4.532374,15.09954 3.139734,0 7.970615,-6.81983 6.507657,-9.18697 -0.601175,-0.97269 -0.370543,-1.26327 0.550759,-0.69391 1.873964,1.15818 11.349088,-10.25441 10.139058,-12.21232 -1.92316,-3.11171 13.71164,-4.33364 16.75796,-1.3097 1.50028,1.48925 1.67404,1.33975 0.87675,-0.75439 -0.56787,-1.49162 0.0709,-4.2375 1.48913,-6.40212 1.36593,-2.08467 2.71518,-7.14091 2.99835,-11.23604 0.57731,-8.34913 2.42578,-10.9691 12.0157301,-17.030835 4.40464,-2.784184 6.10946,-4.669867 5.11816,-5.661148 -1.86145,-1.861473 -1.95986,-4.331886 -0.12743,-3.199375 0.74744,0.462201 1.63973,-1.1e-4 1.98286,-1.026711 0.36544,-1.093382 5.1788799,2.624353 11.6195599,8.974523 8.82592,8.701926 10.56042,11.116466 8.78988,12.235956 -3.15817,1.99687 -4.87503,1.75926 -3.98814,-0.55205 0.42047,-1.09568 0.31915,-2.60015 -0.22509,-3.34331 -0.84335,-1.15157 -15.7753899,-9.523608 -16.9858999,-9.523608 -0.22997,0 -0.48932,1.838853 -0.57636,4.086256 -0.0871,2.247402 0.15045,2.916042 0.52779,1.485882 0.90676,-3.436655 0.90964,-3.435585 7.4434999,2.77283 3.11014,2.95526 4.95422,5.00532 4.09796,4.55576 -0.85626,-0.44928 -2.52231,-0.22071 -3.70232,0.5088 -1.66796,1.03087 -1.74887,1.72259 -0.36351,3.10796 1.38535,1.38535 2.29204,1.35867 4.07379,-0.12019 1.87048,-1.55238 2.29182,-1.53738 2.29182,0.0814 0,1.0909 -1.8388,3.53184 -4.08622,5.4242 l -4.08621,3.4407 3.57662,-0.41278 c 4.34333,-0.5015 5.56026,2.12492 2.4333,5.25191 -1.26235,1.26231 -2.29518,3.01157 -2.29518,3.88722 0,0.87559 -0.89935,1.59202 -1.99855,1.59202 -2.2941899,0 -8.0709999,5.85534 -6.0326999,6.11469 3.06175,0.38975 6.8120099,-0.48634 10.6466899,-2.48676 2.23909,-1.16807 4.85118,-2.12784 5.80464,-2.13289 0.95345,-0.005 2.07268,-0.84499 2.48719,-1.86654 0.58034,-1.43022 1.08687,-1.38046 2.20271,0.21678 0.84375,1.20761 2.5172,1.66402 4.00615,1.09264 2.80043,-1.07462 4.29183,0.34483 15.26339,14.52948 5.37742,6.95215 6.97989,8.24433 7.6952,6.2051 0.4969,-1.41652 1.54598,-2.55437 2.33132,-2.52859 1.51035,0.0505 1.44533,-10.98196 -0.1299,-22.03935 -0.73089,-5.13049 -2.22849,-7.79179 -6.68928,-11.8872 -5.58171,-5.12449 -5.70345,-5.44825 -4.21897,-11.2203 0.84073,-3.26902 1.8865,-7.615235 2.32396,-9.658388 l 0.79535,-3.714695 -2.66999,3.714695 c -1.46849,2.043153 -3.04306,4.049076 -3.49905,4.457696 -0.45602,0.408841 -0.89108,3.642802 -0.96686,7.187122 -0.12698,5.93835 0.36413,6.81304 6.25711,11.1442 3.51719,2.58505 6.42097,5.22327 6.45284,5.86265 0.032,0.63944 -3.66363,-1.64722 -8.21223,-5.08145 -7.3299,-5.53418 -8.14987,-6.67995 -7.21205,-10.07797 0.58197,-2.10863 1.12744,-5.20108 1.21216,-6.87201 0.0847,-1.670981 1.3242,-4.823575 2.75437,-7.005779 3.61604,-5.517378 3.24485,-6.681569 -0.8914,-2.795754 -2.86635,2.692814 -3.78913,2.921945 -5.15226,1.279492 -2.07395,-2.498943 -0.63314,-12.293068 2.148,-14.601181 1.32701,-1.101352 1.98148,-4.609607 1.87548,-10.053644 l -0.1628,-8.361933 -1.24401,6.30564 c -2.13781,10.836225 -3.40087,11.873777 -7.44888,6.119078 -1.9326,-2.747404 -4.37778,-5.884948 -5.43375,-6.97243 -1.05596,-1.087421 -1.45937,-2.759074 -0.89645,-3.714755 0.56291,-0.955611 2.50778,-4.125226 4.32192,-7.04346 2.50005,-4.021556 3.16585,-6.98888 2.75062,-12.258648 -0.32522,-4.127136 0.0731,-6.95276 0.98006,-6.95276 0.84034,0 1.12881,0.645721 0.64106,1.434942 -0.98084,1.587022 4.58943,13.426539 6.31377,13.419749 0.59631,-0.002 2.42151,-2.000252 4.056,-4.439836 2.2075,-3.294845 3.73609,-4.201666 5.94358,-3.525885 1.63448,0.500381 2.56696,0.477351 2.07216,-0.0505 C 51.2931,40.410214 72.09182,18.438032 73.69232,19.427184 74.43936,19.888814 75,-15.708207 75,-63.605206 75,-146.17444 74.9551,-147.5051 71.92036,-151.36087 L 68.84073,-155.276 H 0.82775005 c -62.93303105,0 -68.17985305,0.19431 -70.24618705,2.60032 z m 1.51408,3.14748 c -1.900954,2.34401 -3.737521,4.01302 -4.081265,3.70886 -0.62899,-0.55654 5.826994,-7.97072 6.940593,-7.97072 0.32831,0 -0.958373,1.9178 -2.859328,4.26186 z m 92.788212,-0.66246 c 18.80464,-0.18589 32.26382,0.27406 33.32861,1.13892 0.98234,0.79792 3.09919,1.03402 4.70412,0.52454 1.68778,-0.53577 3.42717,-0.11738 4.12563,0.99167 1.81845,2.88802 2.0372,22.16132 0.3027,26.68483 -1.49616,3.90228 -1.75713,3.96967 -16.62063,4.29562 -32.07626,0.7034 -106.444888,0.25047 -111.396771,-0.67869 l -5.203591,-0.97617 -0.600921,-14.44686 c -0.686111,-16.4949 0.603943,-19.32104 7.404961,-16.2223 2.974803,1.35542 3.955792,1.3334 4.433381,-0.0994 0.852529,-2.55758 20.666441,-2.54157 21.593181,0.0169 0.49763,1.37412 1.39971,1.44668 3.46709,0.27911 4.191,-2.36742 16.39293,-2.68983 17.76519,-0.46949 0.65864,1.06569 0.40368,2.1238 -0.59165,2.45559 -0.96193,0.32067 -1.74897,1.23541 -1.74897,2.03276 0,0.79736 0.7089,1.01167 1.57534,0.47624 1.03731,-0.64106 1.4447,1.23204 1.19281,5.48447 -0.78588,13.2675 0.10047,22.00626 2.1521501,21.21896 1.3163,-0.50488 1.91894,-3.57391 1.85737,-9.45823 -0.05,-4.79078 -0.59263,-8.4058 -1.20556,-8.03334 -0.61294,0.37234 -1.11443,0.0803 -1.11443,-0.64876 0,-0.7293 0.50151,-1.82722 1.11443,-2.43987 1.62715,-1.62639 1.56725,-8.88062 -0.0825,-9.98804 -0.77697,-0.52173 -0.87027,-1.82593 -0.20734,-2.89858 0.69213,-1.11989 1.4198,-1.30696 1.709,-0.43918 0.32466,0.97399 11.7141,1.40013 32.0461899,1.19919 z m -52.99454,4.69452 c -1.35201,3.52331 -1.04562,4.62893 0.58397,2.10735 1.03424,-1.60039 1.44681,-0.0943 1.46315,5.34181 0.0174,5.7031 -0.71034,8.23412 -2.94904,10.26009 -3.56018,3.22195 -4.01188,9.65838 -0.67781,9.65838 1.26169,0 2.18544,-0.83583 2.05279,-1.85738 -0.61587,-4.74276 0.35459,-6.43003 3.86547,-6.7206 3.09136,-0.25609 3.91361,0.48466 4.65503,4.19166 0.49527,2.47632 1.64749,4.25367 2.5605,3.94973 3.18042,-1.05884 2.58102,-5.46408 -1.26705,-9.31216 -3.18611,-3.18612 -3.89164,-5.30441 -3.97068,-11.9219 -0.0801,-6.70556 -0.53948,-8.04733 -2.75527,-8.04733 -1.46252,0 -3.06501,1.05766 -3.56106,2.35035 z m 30.0092901,6.49731 c 0.4508,6.23229 0.11811,8.98312 -1.08643005,8.98312 -1.93385995,0 -6.18261995,8.9853 -5.08701995,10.75805 1.34656,2.17872 3.49425995,1.10011 3.49425995,-1.755 0,-1.58624 0.66865,-3.29732 1.4859,-3.80242 0.84739005,-0.52397 1.48589005,0.76877 1.48589005,3.00793 0,2.48372 0.68241,3.69667 1.85737,3.3013 1.05912,-0.35605 1.67817,-2.48502 1.44041,-4.95297 -0.39817,-4.13281 -0.31438,-4.19795 1.85737,-1.44376 1.25088,1.58641 2.27433,3.75952 2.27433,4.82919 0,1.06968 0.5971099,1.94488 1.3269199,1.94488 2.46635,0 2.91991,-4.09754 0.79013,-7.13821 -1.16404,-1.66188 -1.71917,-4.24614 -1.23363,-5.74269 0.7167,-2.20905 0.59206,-2.3098 -0.6624599,-0.5352 -0.8499,1.20222 -1.94536,1.78572 -2.43435,1.29673 -1.48399,-1.48397 -2.38762,-8.68316 -1.08989,-8.68316 0.66688,0 1.18145,-1.83879 1.14348,-4.08626 -0.05,-2.9699 -0.90813,-4.20615 -3.14055,-4.52542 -2.87349,-0.41109 -3.02961,0.13984 -2.42173,8.54395 z m 14.6562599,-7.85705 c -1.41154,1.41152 -1.23202,28.40276 0.19476,29.28453 2.95466,1.8261 4.01527,-2.34434 4.01527,-15.78846 0,-13.56436 -0.98479,-16.72134 -4.21003,-13.49607 z m 7.42948,0 c -1.85202,1.85204 -0.99853,4.71552 2.72414,9.13969 2.90089,3.44754 3.71474,6.07684 3.71474,12.0012 0,5.86097 0.52369,7.58648 2.30263,7.58648 1.92585,0 2.14376,-1.40422 1.33171,-8.5818 -0.9023,-7.97533 -0.72376,-8.71433 2.52653,-10.45698 3.50358,-1.87843 5.72428,-10.6792 2.69469,-10.6792 -0.78434,0 -1.42608,1.25546 -1.42608,2.78986 0,1.5344 -0.96015,3.58671 -2.13367,4.56063 -1.79005,1.4856 -2.04072,1.03632 -1.55649,-2.78985 0.41283,-3.26194 -0.0376,-4.56064 -1.58107,-4.56064 -1.32481,0 -2.15825,1.46836 -2.15825,3.80242 0,2.1566 -0.64316,3.40498 -1.4859,2.88409 -0.81724,-0.50487 -1.48589,-2.21618 -1.48589,-3.80242 0,-2.88431 -1.6016,-3.759 -3.46709,-1.89348 z m -54.48285,15.44195 c 0,0.86548 0.66865,1.16032 1.4859,0.65528 0.81724,-0.50488 1.48589,-1.21323 1.48589,-1.5736 0,-0.36055 -0.66865,-0.65528 -1.48589,-0.65528 -0.81725,0 -1.4859,0.70812 -1.4859,1.5736 z m 5.44828,6.84652 c -0.5448,0.54475 -0.99059,2.27217 -0.99059,3.83853 0,3.84948 3.31544,2.53337 3.94079,-1.56434 0.48466,-3.17562 -0.94597,-4.27843 -2.9502,-2.27419 z m -45.567466,4.95296 c 0,13.07594 -0.501508,23.774797 -1.114419,23.775247 -0.612935,5.1e-4 -0.99563,-2.506924 -0.850429,-5.572067 0.145173,-3.06516 0.312361,-13.76407 0.371441,-23.77531 0.05914,-10.01123 0.44181,-18.20221 0.850429,-18.20221 0.408619,0 0.742949,10.69846 0.742949,23.77434 z M 73.10517,-129.67164 c -0.33078,2.67062 -0.6081,0.84385 -0.61641,-4.05964 -0.006,-4.90343 0.26226,-7.08856 0.60124,-4.85575 0.33921,2.23275 0.34595,6.2447 0.0169,8.91539 z m 0.29147,33.459286 c -0.14096,24.516726 -0.91075,24.206895 -1.77937,-0.716151 -0.56609,-16.241385 -0.31899,-19.714935 1.40135,-19.714935 0.27238,0 0.44254,9.194 0.37796,20.431086 z M -32.21408,-111.42456 c 0.39857,0.39874 -3.44299,0.72469 -8.536825,0.72469 h -9.261522 l 0.592026,6.62008 c 0.325615,3.64107 0.03538,6.276204 -0.644451,5.855903 -0.680062,-0.42008 -1.236477,-3.687173 -1.236477,-7.259683 0,-5.59948 0.461185,-6.56346 3.343263,-6.98831 4.207686,-0.62018 14.779736,0.0831 15.743986,1.04732 z m 52.70395,0.74744 c 8.06721,0.0281 9.83896,1.28555 8.88114,6.29614 -0.82865,4.33476 -3.40576,5.671033 -3.40576,1.76584 0,-1.2741 -0.59598,-1.94819 -1.3244,-1.49802 -0.72842,0.45041 -4.57318,-0.65224 -8.5439,-2.44991 -3.97073,-1.79768 -7.7209899,-3.38027 -8.3339199,-3.51691 -0.61293,-0.13646 -1.48821,-0.3319 -1.94507,-0.43411 -0.45686,-0.10221 -0.43316,-0.82881 0.0528,-1.61482 0.56544,-0.91491 2.23576,-0.91491 4.6421099,0 2.06738,0.78601 6.55711,1.43932 9.9772,1.45184 z m 23.30613,-1.50863 c 1.66714,1.07737 0.88181,1.44612 -3.11615,1.46314 l -5.34499,0.0225 0.22261,6.593 c 0.12243,3.6262 -0.3141,6.261334 -0.97006,5.855913 -1.95587,-1.208781 -1.38492,-13.609573 0.66468,-14.436643 3.02233,-1.21951 6.16602,-1.03486 8.54391,0.50207 z m 24.91651,15.366876 c 0.21959,7.48449 -0.41446,16.617104 -1.40944,20.294679 -1.66121,6.141589 -9.62042,20.80259 -11.29331,20.80259 -0.39328,0 -0.27097,-10.865656 0.27182,-24.145845 0.54278,-13.280199 0.97007,-25.67396 0.9495,-27.54156 -0.0432,-3.94731 5.32597,-6.64097 8.83513,-4.43231 1.68569,1.06097 2.3468,4.81386 2.6463,15.022446 z M -56.922142,-109.47738 c 1.101114,1.0927 1.805696,8.63262 3.426469,36.66794 l 0.944934,16.344894 -3.79654,-4.457697 c -2.088096,-2.451773 -4.644817,-6.296479 -5.681601,-8.543942 -1.036789,-2.247413 -2.402866,-4.086196 -3.035726,-4.086196 -0.632865,0 -1.10609,-4.847727 -1.051615,-10.772765 0.05447,-5.925039 -0.111141,-14.599562 -0.368016,-19.276664 l -0.467025,-8.50391 4.481712,0.78534 c 2.464946,0.43187 4.96129,1.2613 5.547436,1.843 z m 46.341842,-1.32487 c 3.9990201,0.0949 3.6400601,0.5397 -4.8793,6.04601 -5.05773,3.26896 -9.50764,5.943573 -9.88869,5.943573 -1.45077,0 -0.61477,-9.884993 0.97003,-11.469763 0.91456,-0.91457 3.42201,-1.42871 5.57211,-1.14252 2.1501,0.28642 5.85173,0.56643 8.22585,0.6227 z m 32.50257,15.811268 c -0.18055,1.575672 0.0421,2.029053 0.49528,1.007512 1.09032,-2.459134 4.2518,-2.360964 6.37546,0.19768 1.31537,1.584942 1.18698,2.254373 -0.56098,2.925144 -1.24673,0.478481 -2.26677,1.641333 -2.26677,2.584314 0,1.199352 0.55806,1.253432 1.85737,0.18027 1.44228,-1.191492 1.82802,0.0112 1.72603,5.390168 -0.0722,3.808545 -0.23941,7.458211 -0.37149,8.110392 -0.13209,0.652241 -3.08192,-0.760621 -6.55521,-3.139675 -3.47328,-2.379043 -7.86788,-4.811837 -9.76578,-5.406228 -2.09839,-0.657241 -3.1428899,-1.883042 -2.66521,-3.127834 0.43203,-1.125832 0.20318,-2.406904 -0.5085899,-2.846804 -0.71174,-0.439731 -1.54629,-0.0449 -1.85453,0.881551 -0.33129,0.993801 -5.09225,-1.138872 -11.6426,-5.215298 -6.09519,-3.793205 -10.9385101,-7.25434 -10.7629301,-7.69149 0.17556,-0.43692 3.49304,-2.98204 7.3721401,-5.65525 l 7.05289995,-4.86042 11.20155995,6.90054 c 8.26953,5.094271 11.11564,7.650385 10.87333,9.765428 z m 30.38668,-16.297048 c -0.49376,0.49364 -1.77534,0.54643 -2.84797,0.11737 -1.18535,-0.47455 -0.83325,-0.82645 0.89773,-0.89771 1.56638,-0.0646 2.44399,0.28641 1.95024,0.78039 z m -82.80774,5.82558 c 0,1.24607 -1.67163,2.90122 -3.71474,3.67797 -2.04311,0.7768 -3.71474,1.835701 -3.71474,2.353152 0,0.51724 1.67163,0.52117 3.71474,0.0112 4.19634,-1.053232 5.19812,1.986993 1.63039,4.947967 -1.60091,1.328632 -2.24709,1.284652 -2.78605,-0.18926 -0.56188,-1.536933 -1.09404,-1.549283 -2.67052,-0.0618 -1.08285,1.021551 -3.171987,1.857382 -4.642532,1.857382 -2.123112,0 -2.59741,-1.041211 -2.303138,-5.055907 0.203804,-2.780704 0.82587,-4.775724 1.38233,-4.433434 0.556488,0.34258 1.431739,-0.0573 1.945062,-0.88777 0.513301,-0.83106 -0.109118,-1.5106 -1.383222,-1.5106 -1.274099,0 -2.316537,-0.6687 -2.316537,-1.48594 0,-0.81723 3.343262,-1.48587 7.429477,-1.48587 5.66699,0 7.42948,0.53745 7.42948,2.2656 z m 84.69606,1.44915 c 0,1.48588 -1.48589,2.22882 -4.45769,2.22882 -5.58781,0 -5.86814,-2.56073 -0.37149,-3.39341 2.24742,-0.34033 4.25338,-0.71918 4.45768,-0.84167 0.20431,-0.12243 0.3715,0.7804 0.3715,2.00626 z m -0.43883,16.964 -0.30411,12.753978 -5.94358,0.464441 c -5.60537,0.43805 -5.77448,0.33471 -2.97179,-1.810143 2.65295,-2.030463 2.69281,-2.279593 0.3715,-2.321763 -2.92482,-0.0562 -3.63781,-2.993775 -0.74295,-3.064205 1.02156,-0.0225 0.64057,-0.752881 -0.84662,-1.617792 -2.53818,-1.476112 -2.54817,-1.686482 -0.16304,-3.430585 2.33196,-1.705132 2.34049,-1.934933 0.10367,-2.793284 -5.59042,-2.145253 -0.50914,-10.934566 6.3215,-10.934566 h 4.47953 l -0.30411,12.753979 z m -70.24448,-10.110415 c -0.35217,0.569861 2.36876,2.799514 6.04653,4.954877 6.3708101,3.733516 8.6190101,6.76525 5.0168401,6.76525 -0.91851,0 -5.6752701,2.674614 -10.5705901,5.943629 -4.89533,3.268954 -9.49305,5.943578 -10.21717,5.943578 -0.72411,0 -1.31657,-4.006846 -1.31657,-8.904103 0,-6.94024 0.69428,-9.702584 3.14792,-12.524508 2.71783,-3.125804 9.66321,-5.042938 7.89304,-2.178723 z m 52.85256,11.152576 c 0,5.069947 -0.56409,7.823811 -1.48589,7.254121 -0.81724,-0.504881 -1.4859,-4.595957 -1.4859,-9.090774 0,-5.069947 0.5641,-7.823861 1.4859,-7.25412 0.81724,0.504881 1.48589,4.595907 1.48589,9.090773 z m -67.14417,-0.743611 c 0.19414,2.547864 -0.45647,5.607788 -1.44577,6.79984 -1.42514,1.717152 -1.35565,2.443013 0.33455,3.494605 1.75258,1.090462 1.79957,1.865803 0.26333,4.344476 -1.37165,2.213153 -1.40927,3.017135 -0.14118,3.017135 1.0003,0 0.6073,1.239231 -0.93262,2.940814 -2.39273,2.643954 -2.42107,3.033034 -0.2808,3.854315 1.56802,0.601751 2.31866,2.561394 2.19913,5.741119 -0.21206,5.640978 1.30185,8.730062 3.58652,7.31803 0.88704,-0.54812 1.20119,-0.33078 0.69809,0.483531 -1.1923,1.929213 8.43601,11.270626 10.07832,9.778004 0.69022,-0.627301 0.76723,-0.29371 0.17112,0.741091 -1.37423,2.385734 -2.99124,1.355022 -10.35053,-6.597329 -5.37644,-5.809749 -9.98463,-8.775553 -7.57348,-4.874237 0.65103,1.053391 -1.52374,1.224791 -6.748123,0.53184 l -7.708746,-1.022621 5.349921,7.446751 c 5.659488,7.877611 6.257718,9.320643 3.864018,9.320643 -0.81724,0 -1.485891,-1.023971 -1.485891,-2.275493 0,-1.251522 -0.999139,-2.658894 -2.220307,-3.127485 -1.221173,-0.46838 -1.892278,-1.382772 -1.491353,-2.031533 0.400926,-0.648701 -0.829385,-2.679333 -2.734029,-4.512506 -2.457628,-2.365404 -3.250206,-4.446127 -2.730048,-7.16718 0.65328,-3.417395 0.843414,-3.519266 1.749199,-0.937032 0.98268,2.801364 1.073024,2.791034 2.734384,-0.31337 1.466187,-2.739594 1.282522,-3.348595 -1.25255,-4.153196 -3.203677,-1.016832 -4.182802,-3.956866 -1.113301,-3.342925 1.326675,0.26508 1.716907,-1.598922 1.365768,-6.5246 -0.276307,-3.875985 0.211722,-7.33078 1.114419,-7.888671 2.256873,-1.394842 2.015447,-4.195536 -0.251316,-2.915764 -1.485894,0.838911 -1.485894,0.648421 0,-0.952422 1.021553,-1.100561 1.857369,-3.499495 1.857369,-5.330917 0,-4.403057 1.89412,-5.380298 5.353206,-2.762004 3.49716,2.647154 7.00217,2.859324 6.13216,0.37121 -0.35718,-1.021541 -1.75023,-1.660872 -3.09561,-1.420732 -1.3454,0.240371 -2.44617,-0.26114 -2.44617,-1.114431 0,-0.853072 1.52941,-1.551033 3.39868,-1.551033 2.73872,0 3.46722,0.899522 3.75165,4.632417 z m -39.94971,16.331194 c -0.07346,20.78697 -1.937486,22.600822 -2.395807,2.331303 -0.281136,-12.432398 0.456804,-20.323089 1.900562,-20.323089 0.307362,0 0.530205,8.096291 0.495217,17.991786 z m 22.3981,-13.62182 c 0,2.403483 -0.557218,4.714407 -1.238246,5.135267 -0.681033,0.421201 -1.238246,-1.545582 -1.238246,-4.369976 0,-2.824394 0.557218,-5.135257 1.238246,-5.135257 0.681034,0 1.238246,1.966493 1.238246,4.369966 z m 52.3628501,-0.875581 c 0.87663,-0.541951 1.16046,-0.289231 0.63333,0.563841 -0.54301,0.878571 4.5607,4.641396 11.8258499,8.718992 7.0296,3.945356 13.12012,8.056872 13.53448,9.136663 1.14316,2.979005 -2.68341,15.146102 -5.20776,16.558804 -1.55376,0.869532 -6.07736,-1.301442 -15.0259599,-7.21115 -7.04163,-4.650387 -16.07531,-10.363305 -20.0748401,-12.695408 l -7.27186,-4.240237 4.30008,-3.508765 c 2.36503,-1.929872 6.0961201,-3.890925 8.2912901,-4.357946 2.19518,-0.467251 4.44614995,-1.944203 5.00215995,-3.282665 0.71212,-1.714282 1.21692005,-1.881862 1.70780005,-0.566991 0.38329,1.026662 1.41172,1.424833 2.28543,0.884862 z m -4.81418005,18.794077 c 0,0.817241 0.66865,1.485882 1.4859,1.485882 0.81724005,0 1.48589005,-0.668641 1.48589005,-1.485882 0,-0.817291 -0.66865,-1.485932 -1.48589005,-1.485932 -0.81725,0 -1.4859,0.668641 -1.4859,1.485932 z M -50.31697,-70.209126 c -0.412213,1.021551 -0.749464,0.18589 -0.749464,-1.857383 0,-2.043093 0.337239,-2.878924 0.749464,-1.857372 0.412213,1.021551 0.412213,2.693204 0,3.714755 z m 85.29318,10.528865 c -1.11767,1.117692 -1.5812,-0.39369 -1.5812,-5.154867 0,-8.759153 2.0903,-10.861556 2.69562,-2.711174 0.2567,3.456645 -0.24475,6.9964 -1.11442,7.866041 z m -48.92197,-7.18561 c 4.3432201,2.860394 8.4135001,5.200687 9.0450701,5.200687 2.2243,0 1.11649,3.076895 -1.45201,4.032906 -1.43018,0.532391 -5.1299801,2.981354 -8.2217801,5.442338 l -5.62147,4.474487 -3.48644,-3.631576 c -2.17969,-2.270493 -3.81095,-6.201349 -4.35222,-10.487645 -0.86634,-6.86055 -0.52796,-7.436691 5.95031,-10.131245 0.13299,-0.0562 3.79532,2.239714 8.13854,5.100048 z m 67.27587,-1.857373 c -0.20392,1.838843 -0.42654,4.847777 -0.4946,6.68656 -0.0997,2.693664 -0.98664,3.343265 -4.56453,3.343265 -4.24148,0 -10.41825,-3.758226 -10.41825,-6.33894 0,-0.67145 1.15514,-1.024361 2.56697,-0.784221 1.41183,0.240361 2.66556,-0.3993 2.78605,-1.420732 0.12052,-1.021551 0.30265,-2.526013 0.4048,-3.343255 0.10216,-0.817301 2.41428,-1.485942 5.13806,-1.485942 4.255,0 4.90009,0.470621 4.5815,3.343265 z m 20.18407,14.735181 c 0,16.695895 -1.31178,19.432339 -1.7468,3.643876 -0.26732,-9.693254 -2.59464,-15.725053 -2.82562,-7.322521 -0.82173,29.891233 -0.77091,29.445773 -3.30928,29.003062 -1.55835,-0.27181 -2.18845,0.307761 -1.70472,1.568542 0.42204,1.099892 -2.76472,7.00169 -7.08174,13.115089 -4.317,6.1134491 -9.15296,13.43142971 -10.74658,16.2622238 -1.5936,2.8307441 -3.4552,5.8154784 -4.13689,6.6327096 -0.68168,0.8172412 -2.16492,2.8221536 -3.29609,4.4553966 -1.13117,1.633182 -2.4415,2.584644 -2.91183,2.114303 -0.91451,-0.914501 15.6771,-34.859131 18.34038,-37.522404 2.52872,-2.528714 1.84536,-4.379687 -1.31211,-3.553966 -1.5953,0.417261 -3.21414,-0.006 -3.59743,-0.941131 -0.38374,-0.935901 -0.7496,-0.656731 -0.81419,0.621241 -0.11923,2.358323 -6.16043,7.488921 -10.89005,9.248583 -4.28021,1.592413 -3.12833,-3.137714 2.97179,-12.203657 3.06466,-4.554627 5.94033,-8.615503 6.39037,-9.024113 0.45007,-0.408851 4.69864,-5.938689 9.44131,-12.289028 8.4012,-11.249056 12.89703,-15.322512 14.80528,-13.414249 0.51611,0.51611 0.93832,-0.510491 0.93832,-2.281164 0,-1.770662 0.33415,-3.219424 0.74294,-3.219424 0.40884,0 0.74294,6.797989 0.74294,15.106631 z m -134.484071,-9.180073 c 0.547278,0.885531 -0.155563,1.062382 -1.769681,0.445351 -3.243562,-1.239952 -3.668125,-1.879283 14.672404,22.095332 8.871228,11.596467 13.217738,18.633867 13.935948,22.563602 l 1.04374,5.710959 -10.66213,-5.517658 c -5.864172,-3.034775 -10.962637,-5.217198 -11.329934,-4.849917 -0.773646,0.773661 7.546597,16.6921338 11.266467,21.5552408 1.385329,1.81110263 3.049075,2.8140641 3.69721,2.2288232 0.648137,-0.58519081 0.729177,-0.27968037 0.180049,0.679251 -0.549075,0.9588214 0.412718,4.134946 2.137388,7.0580702 1.72466,2.9230638 2.51667,5.3146978 1.76002,5.3146978 -0.75665,0 -7.676393,-9.1940034 -15.377204,-20.4310996 l -14.001468,-20.4310894 -0.74295,-18.205756 c -0.467081,-11.446287 -0.19128,-18.436737 0.74295,-18.827888 2.512496,-1.051991 3.502948,-0.915691 4.447169,0.612141 z m 71.393751,13.208479 c 4.4617,2.760424 8.09937,5.435048 8.08369,5.943569 -0.0157,0.508811 -2.33954,3.572895 -5.16412,6.80968 l -5.1356199,5.885108 -4.20403,-4.027736 c -4.78937005,-4.588486 -6.27027,-5.002337 -6.27027,-1.752242 0,4.836827 -4.52777,3.954276 -10.3168401,-2.010983 -4.90533,-5.054617 -5.49256,-6.288559 -3.70046,-7.775901 1.17158,-0.972292 2.13013,-1.223832 2.13013,-0.558791 0,0.664941 0.83582,0.16511 1.85737,-1.110392 3.4705501,-4.333696 13.7125201,-10.336625 14.1762501,-8.308862 0.23744,1.038232 4.08219,4.146286 8.5438999,6.90672 z m 25.94294,-3.043364 c 0,0.677961 -3.73369,5.358558 -8.2971,10.401265 -4.5634,5.042717 -7.53288,9.168613 -6.59883,9.168613 0.93404,0 1.31826,0.614841 0.85381,1.366322 -0.46444,0.751531 1.6544,3.426145 4.70855,5.943629 3.05415,2.517473 4.64841,4.577256 3.5428,4.577256 -1.42276,0 -1.75991,1.251352 -1.15373,4.282247 1.35245,6.762219 -0.44433,6.575209 -7.27237,-0.756922 -3.49228,-3.750135 -7.00131,-6.415649 -7.79783,-5.923358 -0.79653,0.492521 -1.8679,-0.1988 -2.38084,-1.535302 -0.61985,-1.615323 1.03549,-4.477737 4.93598,-8.535403 11.57545,-12.041817 16.48777,-17.685655 16.48777,-18.942967 0,-0.702951 0.66866,-1.278092 1.4859,-1.278092 0.81724,0 1.48589,0.554861 1.48589,1.232712 z m 12.75165,0.25328 c 4.81468,0 4.59045,3.206065 -0.6459,9.235164 -2.33152,2.684443 -4.50464,5.549498 -4.82917,6.366739 -1.95645,4.926857 -8.41444,12.596168 -10.61984,12.611778 -1.43018,0.0112 -2.60032,-0.605241 -2.60032,-1.367382 0,-0.762201 -1.2934,-1.796273 -2.87424,-2.298013 -1.67565,-0.531831 -2.78305,-2.122673 -2.65558,-3.814886 0.23666,-3.142034 4.0055,-4.102086 4.10342,-1.045241 0.0326,1.021541 1.17574,-0.148831 2.54005,-2.600324 1.36432,-2.451774 2.31548,-5.034337 2.1137,-5.739088 -0.20178,-0.704811 0.82832,-2.187994 2.2891,-3.296025 2.15572,-1.635152 2.23617,-2.051023 0.42716,-2.207763 -1.22587,-0.10614 0.78009,-1.064852 4.45768,-2.130203 4.09206,-1.185482 5.3893,-1.993733 3.34327,-2.082973 -1.83879,-0.0803 -3.34327,-0.886092 -3.34327,-1.790773 0,-0.904671 1.05767,-1.238992 2.35038,-0.742931 1.2927,0.495891 3.96731,0.901921 5.94358,0.901921 z m -78.13106,7.501231 c 0,0.694921 2.17312,3.324885 4.82916,5.844339 l 4.82916,4.580796 -5.5673,5.168448 c -4.86037,4.512116 -5.94163,4.934657 -8.51521,3.327424 -3.4662,-2.164683 -5.29933,-6.093238 -3.1738,-6.801759 0.8181,-0.272931 1.14578,-1.386252 0.72817,-2.474514 -0.41761,-1.088272 0.77171,-3.051004 2.64294,-4.361716 2.64043,-1.849403 2.84877,-2.382984 0.93045,-2.382984 -1.35947,0 -2.88502,0.668641 -3.3901,1.485882 -0.5051,0.817242 -1.6294,1.485933 -2.49848,1.485933 -0.99642,0 -0.89682,-0.823352 0.26962,-2.228874 1.51951,-1.830922 1.4037,-2.228813 -0.6487,-2.228813 -1.374163,0 -2.167887,-0.534641 -1.763828,-1.188742 0.994818,-1.609652 11.327908,-1.815252 11.327908,-0.2252 z m -5.94359,14.628251 c 0,0.729801 1.09756,1.748093 2.43902,2.262854 2.03935,0.782591 2.13128,0.56514 0.56103,-1.326952 -2.13987,-2.578354 -3.00002,-2.846745 -3.00002,-0.935902 z m 108.2946,5.731069 c -0.10895,7.14556 -0.53183,9.881164 -1.11444,7.20846 -0.94809,-4.350766 -0.41783,-18.724167 0.69071,-18.724167 0.32966,0 0.5206,5.182097 0.42401,11.515707 z m -86.01418,-3.532796 c -0.004,0.921472 -3.27547,4.828067 -7.26904,8.681253 -6.32364,6.101439 -7.25081,6.580989 -7.18186,3.714755 0.0438,-1.810092 -0.40149,-4.375086 -0.9889,-5.699948 -1.50716,-3.399255 10.59974,-12.395058 13.47273,-10.010674 1.0863,0.901531 1.97148,2.393133 1.96707,3.314614 z m 12.36514005,2.788954 c -0.33831,5.985689 -1.95386995,11.516597 -3.36395995,11.516597 -0.58383,0 -1.95614,-1.671592 -3.04958,-3.714745 -2.00575,-3.747776 -4.4576801,-4.973747 -4.4576801,-2.228824 0,2.227644 0.65054,3.745526 1.4858901,3.467086 0.88136,-0.293711 1.38199,4.743606 2.1659,21.793201 0.32494,7.06778 0.10311,10.666955 -0.50376,8.172392 -0.59644,-2.451724 -1.71591,-4.3447064 -2.4877201,-4.2066662 -0.79579,0.1420902 -1.18622,-3.5389152 -0.90187,-8.50350234 0.40255,-7.02870016 -0.11002,-9.61329386 -2.60032,-13.11053846 -3.17801,-4.463087 -3.96527,-6.73683 -1.98731,-5.739659 0.61293,0.308881 3.78903,-2.244373 7.0580001,-5.674168 7.29161,-7.650391 8.99439995,-7.999362 8.64237995,-1.771173 z m 8.97334005,0.222391 c 3.3631899,4.409396 3.5699599,5.285207 1.6282399,6.89672 -1.8698999,1.551872 -2.0685799,1.398212 -1.2473199,-0.964602 0.95154,-2.737624 0.92074,-2.738524 -1.18822,-0.0337 -1.70822,2.189453 -2.10104,7.416541 -1.86157,24.7709061 l 0.30354,21.9959919 -5.0182,-0.25384 -5.01821,-0.253851 -0.14444,-11.144256 c -0.20111,-15.51642238 0.24076,-24.235475 1.31642,-25.975987 1.45779,-2.358774 2.96327995,5.0865769 3.12428995,15.4508818 0.0814,5.2439972 0.48264005,9.2000132 0.89149005,8.7911132 0.40885,-0.408851 0.78348,-10.5500957 0.83248,-22.536083 0.0488,-11.986037 0.6381,-21.792742 1.3091,-21.792742 0.67101,0 2.9536,2.272844 5.07244,5.050798 z m -13.90098,-3.003885 c 0,0.308321 -1.01829,1.406132 -2.26286,2.439034 -1.89206,1.570232 -2.10949,1.478352 -1.32692,-0.561041 0.79926,-2.082863 3.58978,-3.542735 3.58978,-1.877993 z m -60.3819991,8.683223 c -0.616855,0.998081 -1.061219,5.340198 -0.987476,9.649064 0.07374,4.3089262 -0.463992,7.4647807 -1.194986,7.0130301 -1.532023,-0.9468614 -1.823414,-16.0012531 -0.338475,-17.4862351 1.718266,-1.718273 3.693189,-1.072652 2.520925,0.824141 z M 59.76664,-9.2212478 C 54.66053,-2.442638 49.26792,4.7453824 47.78304,6.7521453 45.7578,9.4891592 45.83041,9.1014287 48.07361,5.200163 c 4.33163,-7.5333409 18.56031,-26.662929 19.86547,-26.707909 0.61124,-0.0225 -3.06635,5.507878 -8.17245,12.2864982 z M 14.41471,-10.174729 c -3.11975,2.6700636 -3.57402,4.0156556 -2.74877,8.1419516 1.13696,5.6847882 -0.4636,26.7842384 -1.9615799,25.8584374 -0.54947,-0.339771 -1.08965,-7.845371 -1.20045,-16.6794342 -0.18859,-15.0360917 0.0489,-16.4417237 3.7180299,-22.0056518 3.87341,-5.873768 3.93129,-5.899939 4.92483,-2.228823 0.7787,2.877244 0.16275,4.435906 -2.73206,6.91352 z m 29.42196,0.4425404 c -3.12233,5.6802382 -6.9904,12.1996177 -8.5957,14.487461 -3.28462,4.6811467 -6.85488,24.1596546 -6.42596,35.0585606 0.34156,8.678613 -0.95278,13.336179 -3.32793,11.975537 -0.96271,-0.55149 -1.27243,-0.47343 -0.68825,0.173531 2.03318,2.252183 -2.1015,7.02763 -8.55715,9.883254 -3.57385,1.580902 -6.9061299,3.534875 -7.4050799,4.342166 -1.42762,2.309974 -3.64865,0.1112 -2.61325,-2.586724 0.51178,-1.333741 0.31545,-2.116613 -0.43637,-1.739722 -9.92711,4.976837 -9.46172,4.902087 -15.9166301,2.557354 -4.1304,-1.500313 -7.63485,-4.244786 -10.32431,-8.085342 -5.23333,-7.473141 -8.62225,-13.98646 -7.27727,-13.98646 1.94644,0 1.37102,-6.59941 -1.68428,-19.316648 -3.1908,-13.2812594 -13.809601,-33.999499 -19.451194,-37.951025 -1.648898,-1.154932 -2.616448,-2.481424 -2.150113,-2.947774 0.466351,-0.466131 1.805791,0.0225 2.976572,1.080231 1.170776,1.060472 5.009806,4.602757 8.531175,7.8717116 4.40598,4.0902359 5.86612,4.9010771 4.68245,2.6003738 -3.0157,-5.8617484 0.88392,-3.7651354 11.23203,6.0387087 9.16427,8.6823226 9.98833,9.9843944 11.0493,17.4592749 0.63056,4.442527 1.1953,11.096186 1.25496,14.785842 0.16168,9.998874 9.1587201,25.270896 14.8549701,25.215526 2.0542,-0.0225 2.068,-0.19937 0.11243,-1.463142 -1.48153,-0.957471 -1.607,-1.448022 -0.37419,-1.463132 3.22433,-0.0393 10.7515899,-13.70751 9.7498199,-17.703686 -0.53869,-2.148903 -0.31691,-3.208474 0.55828,-2.667534 0.90667,0.560471 1.40659,-4.020885 1.33114,-12.198557 L 14.82126,8.5916679 21.13632,1.728358 c 3.47328,-3.7747855 6.31506,-7.5468809 6.31506,-8.3823721 0,-0.8354912 1.3373,-1.5190722 2.97179,-1.5190722 3.87196,0 3.75521,0.9386013 -0.96368,7.74799119 -2.16452,3.12339451 -3.49491,6.11946881 -2.95644,6.65792961 1.26947,1.2695018 4.52865,-3.0354944 8.73408,-11.5366467 2.61952,-5.2952678 11.52255,-14.7564718 13.8859,-14.7564718 0.21481,0 -2.16408,4.647517 -5.28641,10.3278054 z M -31.09279,-4.0450058e-4 C -29.99737,4.9926527 -28.0597,7.7144467 -26.62318,6.2779346 -26.09898,5.7539638 -27.11025,3.12365 -28.87043,0.43336613 L -32.07076,-4.4581009 Z M -16.3825,33.432324 c -0.5051,0.817241 -0.24969,1.485882 0.56756,1.485882 0.81725,0 1.89915,-0.668641 2.40423,-1.485882 0.50511,-0.817241 0.24969,-1.485882 -0.56756,-1.485882 -0.81724,0 -1.89914,0.668641 -2.40423,1.485882 z m -0.62564,12.753968 c 0.0713,1.730963 0.42339,2.083033 0.89773,0.897722 0.42923,-1.072652 0.37644,-2.354224 -0.11732,-2.847985 -0.49376,-0.49364 -0.84494,0.383571 -0.78042,1.950263 z m -0.97451,-58.311904 c -0.42019,1.094892 0.26945,2.8484241 1.53253,3.8966556 1.26306,1.0482215 2.29646,3.6122052 2.29646,5.6976982 v 3.7918655 l -3.793,-3.5633451 c -2.92519,-2.748074 -4.06789,-3.1185645 -4.99448,-1.6193224 -0.89354,1.4457821 -1.40569,1.1631917 -1.99819,-1.1025816 -0.46759,-1.7879125 -0.12024,-2.9141442 0.84073,-2.7258939 0.90059,0.1763402 1.75141,-0.5149808 1.89071,-1.5367022 0.13934,-1.0215511 0.33685,-2.5260141 0.439,-3.3432551 0.10216,-0.817301 1.16774,-1.485942 2.36795,-1.485942 1.21329,0 1.84302,0.883901 1.41827,1.990823 z m -43.719672,0.981001 c 0,0.817232 -0.294839,1.4858725 -0.655256,1.4858725 -0.360378,0 -1.068503,-0.6686405 -1.573588,-1.4858725 -0.505101,-0.817241 -0.210206,-1.485882 0.655257,-1.485882 0.865473,0 1.573587,0.668641 1.573587,1.485882 z m 84.696062,2.3709538 c 0,1.3039819 -1.48118,4.4510665 -3.29151,6.9934301 l -3.29152,4.6225167 -0.94398,-3.65016527 c -0.67156,-2.59678373 -0.0432,-4.58910663 2.17709,-6.90367993 3.76137,-3.9209254 5.34992,-4.2362564 5.34992,-1.0621016 z m 47.02,1.342732 c -0.17129,2.9645142 -0.96371,3.6791453 -3.929,3.5423951 -2.8679,-0.1325402 -3.07279,-0.3358305 -0.89878,-0.8924313 2.06881,-0.5295908 2.31401,-1.0312715 0.92405,-1.8903527 -2.21895,-1.371362 -0.73918,-4.4732969 2.13407,-4.4732969 1.18262,0 1.89742,1.4999726 1.76966,3.7136858 z m -126.909656,2.8644341 c 0.721884,1.0542915 1.09938,0.9354514 1.114425,-0.3510005 0.03033,-2.6002638 2.569133,-0.8988413 4.688661,3.1422645 1.615652,3.0804245 1.554544,3.1322546 -1.106433,0.93747139 -1.54909,-1.27769189 -4.98965,-2.28065329 -7.64569,-2.22887319 -4.394261,0.0859 -6.200574,-1.7538226 -3.940944,-4.0134158 1.139169,-1.1392017 5.470946,0.4408606 6.889981,2.5133836 z M 73.1182,9.9901599 c -0.31394,3.4948851 -0.57514,1.0050911 -0.58053,-5.532878 -0.005,-6.5379094 0.2516,-9.3973535 0.5707,-6.3543191 0.31955,3.0430744 0.32348,8.3923121 0.0112,11.8871971 z M -53.603337,0.6236964 c 0.475674,0.7696111 0.185327,1.8193526 -0.645266,2.3326534 -2.505588,1.5485622 -1.700065,3.7297554 1.377399,3.7297554 3.079019,0 7.905941,5.5927378 6.621127,7.6716108 -0.422771,0.684081 -0.06054,1.243772 0.804917,1.243772 2.353659,0 1.921379,3.224485 -1.553084,11.585007 -2.233319,5.373998 -3.902109,7.465231 -5.840646,7.31921 -1.492683,-0.11232 -2.376819,-0.749961 -1.964746,-1.416742 0.412045,-0.666731 -2.136023,-4.706986 -5.662434,-8.978403 -3.526411,-4.271356 -5.247188,-6.84842 -3.823951,-5.726798 1.540172,1.213792 2.587699,1.399622 2.587699,0.459391 0,-0.869072 -0.66865,-1.993393 -1.485894,-2.498494 -0.817243,-0.504881 -1.485899,-2.255663 -1.485899,-3.890145 0,-1.634483 -0.592633,-2.6055443 -1.31696,-2.157834 -0.724333,0.447591 -1.718182,-0.6830206 -2.208558,-2.5126532 -1.236848,-4.6147167 -1.150985,-5.5553881 0.507067,-5.5553881 0.791595,0 1.080335,0.9353414 0.641648,2.078533 -1.061904,2.767274 0.946996,3.7695055 4.605618,2.2976633 2.52329,-1.0150814 2.579354,-1.2113117 0.371498,-1.2999818 -2.359023,-0.0949 -3.579606,-3.0875045 -1.931422,-4.73574688 1.34664,-1.34660194 9.562499,-1.30336188 10.401881,0.0562001 z m 2.302289,13.4919196 c 0,0.817231 0.66865,1.485872 1.485894,1.485872 0.817244,0 1.485894,-0.668641 1.485894,-1.485872 0,-0.817301 -0.66865,-1.485942 -1.485894,-1.485942 -0.817244,0 -1.485894,0.668641 -1.485894,1.485942 z m 0,4.049856 c 0,0.729121 1.022632,2.623624 2.272525,4.210026 2.200707,2.793174 2.259406,2.770594 1.857369,-0.714011 -0.383067,-3.320405 -4.129894,-6.49215 -4.129894,-3.496015 z m -9.429198,1.522942 c -0.379079,0.613381 0.915462,3.120804 2.876721,5.572138 1.961253,2.451324 3.569244,3.840946 3.573304,3.088064 0.004,-0.752881 -1.099233,-2.591673 -2.451759,-4.086195 -1.471331,-1.625833 -1.769765,-2.717354 -0.742949,-2.717354 0.943906,0 1.716194,-0.668641 1.716194,-1.485882 0,-1.725013 -3.952372,-2.019733 -4.971511,-0.370651 z M 69.29601,8.5046178 c 0.4476,8.2202922 0.0904,9.6720842 -3.21127,13.0645992 -2.04313,2.099143 -5.39443,5.823608 -7.44736,8.276562 -2.05293,2.452953 -4.72755,5.060407 -5.94359,5.794298 -1.83394,1.106862 -1.89643,0.945741 -0.36649,-0.944891 1.01446,-1.253602 1.40451,-2.719264 0.86677,-3.256995 -0.53773,-0.537451 -0.0698,-0.977741 1.03984,-0.977741 1.35894,0 1.13781,-0.643251 -0.6774,-1.970593 -3.11134,-2.275044 -2.02771,-8.430672 1.48413,-8.430672 1.17079,0 2.12871,-0.668641 2.12871,-1.485883 0,-0.817291 -0.80238,-1.485932 -1.78307,-1.485932 -4.36083,0 1.56767,-2.822094 6.98371,-3.324445 l 5.94356,-0.55149 -6.48528,-1.251072 c -4.98192,-0.961062 -5.92916,-1.562312 -4.08622,-2.593694 1.3195,-0.738441 2.3991,-2.4058334 2.3991,-3.7052553 0,-2.5297237 4.08546,-6.28002909 6.92599,-6.35780921 1.0781,-0.0281 1.91432,3.42238491 2.22887,9.20073331 z M -15.45002,3.3428503 c 1.84826,2.3566934 1.79571,2.4092535 -0.56098,0.5610308 -1.43017,-1.1216816 -2.60031,-2.2918233 -2.60031,-2.6003737 0,-1.22293178 1.22019,-0.43580065 3.16132,2.0393429 z m -29.256768,5.0906174 c 2.269465,4.5492863 2.257553,4.5992663 -0.500721,2.1030733 -1.55401,-1.4063623 -3.164107,-3.8519558 -3.577988,-5.4345981 -1.07851,-4.12426599 1.348044,-2.1422231 4.078709,3.3315248 z m 6.778798,9.2149433 c 0,1.125782 1.00298,2.879264 2.22885,3.896656 1.22586,1.017391 2.22884,2.553143 2.22884,3.412775 0,0.859591 -1.67164,-0.006 -3.71474,-1.926843 -3.770006,-3.541785 -4.936328,-7.429511 -2.22885,-7.429511 0.81725,0 1.4859,0.921081 1.4859,2.046923 z m 6.51054,3.230875 c 0.50741,1.322342 0.25834,1.918762 -0.58397,1.398212 -0.80788,-0.499261 -1.46888,-1.536983 -1.46888,-2.306034 0,-2.137333 1.06504,-1.666382 2.05285,0.907822 z m 73.05828,-0.701381 c 0.54542,0.882551 -0.46607,2.625763 -2.24785,3.873745 -1.78176,1.247982 -3.85808,3.702006 -4.61404,5.453348 -1.07226,2.484184 -1.24215,1.915343 -0.77269,-2.587284 0.72004,-6.90582 5.12735,-10.796575 7.63458,-6.739809 z M 50.3534,30.46045 51.33433,34.175205 49.2568,30.46045 c -1.14264,-2.043093 -2.47665,-5.720669 -2.96446,-8.172442 l -0.88694,-4.457697 1.98354,4.457697 c 1.09093,2.451773 2.42494,6.129349 2.96446,8.172442 z m -89.57775,-6.40128 c 1.75896,2.168453 1.7329,2.333504 -0.18954,1.200652 -1.890291,-1.113932 -1.932927,-0.948211 -0.280688,1.090842 1.111198,1.371372 1.749568,5.008847 1.485898,8.466782 l -0.46226,6.062529 -4.161277,-3.589806 c -2.684356,-2.315643 -3.571311,-3.954385 -2.499017,-4.617076 0.914242,-0.565021 1.303335,-1.962673 0.864648,-3.105865 -0.438665,-1.143191 -0.110467,-2.078533 0.729342,-2.078533 0.839825,0 1.113706,-0.668701 0.608621,-1.485942 -0.816901,-1.321772 0.162077,-4.457686 1.391646,-4.457686 0.260301,0 1.391007,1.131341 2.512627,2.514103 z m 84.90759,3.058025 c 0.41121,1.430172 1.18269,3.648705 1.71437,4.930107 1.19893,2.889484 -4.46556,10.445635 -7.07885,9.442793 -2.47109,-0.948211 -2.19607,-11.488916 0.38076,-14.593781 2.55448,-3.077954 4.05432,-3.011514 4.98372,0.220711 z m -77.6904,1.733542 c -0.0124,0.476801 -0.5884,1.759103 -1.27974,2.849784 -0.96997,1.530133 -1.42717,1.332222 -2.00222,-0.866771 -0.46535,-1.779602 0.0152,-2.849784 1.27974,-2.849784 1.11374,0 2.01474,0.389751 2.00222,0.866771 z m 39.8720901,6.243749 c 3.3528199,2.093863 4.2215599,4.986267 1.92411,6.40616 -0.72464,0.44816 -2.14382,-0.181391 -3.15373,-1.398213 -2.19404,-2.643673 -6.16166005,-2.872354 -8.54164,-0.49252 -1.30287,1.302852 -2.27601,1.258772 -4.01192,-0.18196 -2.5078,-2.081284 -3.21433,-6.74138 -0.79543,-5.246398 0.82301,0.508801 1.8743,-0.0601 2.3362,-1.263712 0.93274,-2.430663 6.43017,-1.453362 12.24241,2.176473 z m -2.70194,9.481984 c 1.58824,1.913763 1.06302,2.228873 -3.71474,2.228873 -4.77776,0 -5.30298,-0.31505 -3.71474,-2.228873 1.01738,-1.225862 2.68900995,-2.228813 3.71474,-2.228813 1.02573,0 2.69736,1.002951 3.71474,2.228813 z m -2.22884,6.68657 c -0.5051,0.817241 -1.54753,1.485882 -2.31654005,1.485882 -0.76901,0 -1.3982,-0.668641 -1.3982,-1.485882 0,-0.817242 1.04244,-1.485883 2.31653005,-1.485883 1.2741,0 1.90329,0.668641 1.39821,1.485883 z M -15.22227,67.381383 c 1.08691,2.167723 3.27647,5.921838 4.86568,8.342502 l 2.8894701,4.401196 -4.4576901,-2.974844 c -2.45173,-1.636162 -5.795,-3.689145 -7.42948,-4.562097 -2.69682,-1.440392 -4.30806,-7.13461 -2.75729,-9.744534 1.14179,-1.921562 4.8876,0.545881 6.88931,4.537777 z m 40.8253,7.30287 c -1.17778,1.455613 -1.99453,1.479933 -3.64682,0.108951 -1.6731,-1.388552 -3.08512,-1.202322 -6.59227,0.869411 -2.45471,1.449992 -4.73132,2.368213 -5.05912,2.040403 -0.3278099,-0.327971 2.13914,-3.743116 5.48209,-7.589561 l 6.0781,-6.99354 2.62786,4.844467 c 1.8441,3.399585 2.1752,5.403878 1.11016,6.720149 z M 6.1925301,71.450619 c 1.35881,2.928074 1.36667,4.710197 0.0337,7.635791 -1.7257,3.787535 -1.75196,3.767035 -3.48398,-2.716684 l -1.74518005,-6.53297 -0.19313,5.943569 c -0.18387,5.658728 -0.30276,5.801158 -2.47959995,2.971814 -1.25756,-1.634472 -2.90793,-2.804624 -3.66749,-2.600313 -2.277,0.61248 -1.56067,-2.090723 1.13306,-4.275737 2.16678,-1.757632 2.34185,-1.731462 1.26737,0.189261 -0.68569,1.225861 0.21498,0.724351 2.00149995,-1.114442 4.12259005,-4.243276 4.96007005,-4.184636 7.13376005,0.499261 z m -12.91671,-1.701533 c 0,1.568323 -2.8516,2.227194 -3.6997501,0.854872 -0.51331,-0.830612 0.10911,-1.510143 1.3832201,-1.510143 1.27409,0 2.31653,0.294841 2.31653,0.655271 z M 33.31857,81.428953 c 1.43298,1.522382 0.14921,8.467392 -1.56516,8.467392 -0.71233,0 -1.13587,-1.409832 -0.9412,-3.132994 0.44142,-3.906986 -4.33239,-7.484761 -6.13456,-4.597587 -0.9583,1.535193 -1.59743,1.452752 -3.13922,-0.40491 -1.75857,-2.118973 -2.26511,-2.117003 -5.52905,0.0225 -1.97622,1.294832 -4.72362,2.109873 -6.1053299,1.811162 -1.72933,-0.37403 -0.5627,-1.560182 3.7436399,-3.806745 6.83028,-3.563235 8.48923,-3.997686 7.18066,-1.880343 -1.81336,2.934074 2.41407,3.140235 6.27852,0.306071 3.67476,-2.694944 4.10815,-2.740044 4.575,-0.475681 0.28366,1.375642 1.02015,3.037074 1.6367,3.692065 z m -43.0145399,3.149955 c 0,0.565581 -1.4627701,0.004 -3.2505901,-1.248492 -3.0101,-2.108363 -3.62404,-1.991993 -8.29812,1.573092 -3.022,2.305024 -5.58864,3.308825 -6.39597,2.501474 -0.80732,-0.807301 1.06429,-3.202745 4.66399,-5.969409 l 6.01242,-4.620946 3.63413,3.367964 c 1.99878,1.852433 3.6341401,3.830786 3.6341401,4.396317 z m 6.84709,3.460125 c -0.0883,3.064644 -0.75445,5.682148 -1.48032,5.816648 -0.72588,0.13422 -1.72886,0.826221 -2.22885,1.537152 -0.49999,0.710871 -2.91503,2.826645 -5.3667601,4.701647 -2.45173,1.87501 -4.79201,4.67369 -5.20063,6.21932 -0.52959,2.00317 -1.353,2.43032 -2.86729,1.48757 -1.75973,-1.09557 -1.48593,-2.17176 1.59528,-6.27049 5.05708,-6.727107 6.24721,-10.363183 3.92265,-11.984515 -1.25961,-0.878511 -0.81163,-1.023692 1.31866,-0.427381 2.36744,0.662851 3.9497301,-0.0899 5.9435801,-2.827764 3.71334,-5.098877 4.55129,-4.763257 4.36368,1.747643 z M 20.62277,84.861158 c 0.67247,1.752423 0.28417,2.150763 -1.44845,1.485942 -1.30197,-0.49983 -2.68632,-0.908441 -3.07633,-0.908441 -0.39003,0 -0.29585,-0.668641 0.20919,-1.485882 1.36298,-2.205343 3.27517,-1.802843 4.31557,0.908381 z m 1.96551,8.007002 c 2.07791,1.634482 4.85799,2.986704 6.17796,3.004844 3.56757,0.0505 9.67757,5.237916 8.46952,7.192556 -1.70515,2.75904 -4.59965,1.94854 -8.55857,-2.39645 -2.04774,-2.247402 -5.6687,-5.553537 -8.04658,-7.34689 -2.37786,-1.793412 -3.76021,-3.297884 -3.07187,-3.343314 0.68834,-0.0449 2.95163,1.254781 5.02954,2.889254 z m -42.99022,4.836387 c -2.42775,3.068573 -5.85981,6.592443 -7.6268,7.830773 -2.95058,2.06775 -3.32218,2.00653 -4.55421,-0.75019 -0.73781,-1.65088 -1.90796,-3.00158 -2.60031,-3.00158 -0.69236,0 -1.25883,-0.70812 -1.25883,-1.5736 0,-0.865481 0.6351,-1.181041 1.41134,-0.701321 0.77624,0.479601 2.1471,-0.50264 3.04635,-2.182773 0.89925,-1.680252 2.20976,-2.699774 2.91225,-2.265663 1.71871,1.062271 6.16526,-0.727551 5.29717,-2.132163 -0.37891,-0.613041 1.21821,-1.044462 3.54911,-0.958702 l 4.238,0.156121 z m 57.51169,-1.864573 c 0.50511,0.817241 0.21021,1.485882 -0.65525,1.485882 -0.86548,0 -1.57359,-0.668641 -1.57359,-1.485882 0,-0.817231 0.29484,-1.485932 0.65525,-1.485932 0.36038,0 1.06851,0.668701 1.57359,1.485932 z M -19.5599,112.92781 c -0.47039,1.22587 -0.11507,2.22883 0.78959,2.22883 2.34818,0 2.03189,4.72979 -0.56416,8.43617 -1.47684,2.10853 -3.81622,3.16068 -7.058,3.17444 -7.84507,0.0337 -12.4628,2.64395 -17.419545,9.84837 -2.563006,3.72521 -5.378411,6.77306 -6.256465,6.77306 -1.031493,0 -0.947399,-0.78203 0.237613,-2.20989 1.008737,-1.21547 1.477189,-3.13996 1.041001,-4.27664 -0.436194,-1.13668 -0.07127,-2.78851 0.810914,-3.67066 1.148053,-1.14808 1.120322,-2.18682 -0.09755,-3.65428 -1.325215,-1.59679 -0.966219,-2.71201 1.623159,-5.04254 1.828593,-1.64577 4.327694,-3.48416 5.553557,-4.0853 1.225863,-0.60108 0.557218,0.34258 -1.485894,2.09724 l -3.714743,3.19022 4.829162,-2.35647 c 2.656041,-1.29606 4.829161,-3.23863 4.829161,-4.31684 0,-1.07822 1.50447,-3.23415 3.34327,-4.79101 l 3.34327,-2.83063 -2.83061,3.34331 c -3.20734,3.78822 -2.66868,4.09266 2.81811,1.5927 2.20235,-1.00347 3.52039,-2.58886 3.08834,-3.71476 -0.51942,-1.35356 0.60305,-1.96419 3.61069,-1.96419 3.26901,0 4.14975,0.55935 3.50913,2.22887 z m -5.95226,7.42845 c 0.24435,4.23486 1.29818,4.6569 3.87501,1.55203 2.02267,-2.43722 0.89177,-5.26578 -2.10533,-5.26578 -1.18264,0 -1.89741,1.49999 -1.76968,3.71375 z m -6.47224,1.61078 c 0,2.62396 3.19877,2.16698 4.11716,-0.58822 0.32348,-0.97044 -0.4705,-1.76449 -1.76449,-1.76449 -1.29397,0 -2.35267,1.05873 -2.35267,2.35271 z m 68.3512,-7.55334 c 1.06621,1.28471 1.21062,2.22881 0.34089,2.22881 -0.82987,0 -1.89373,-1.00296 -2.36415,-2.22881 -0.47039,-1.22587 -0.62381,-2.22888 -0.34089,-2.22888 0.28294,0 1.34678,1.00301 2.36415,2.22888 z m -8.30531,0.5279 c 0.43199,0.69896 5.08356,3.47541 10.3368,6.16979 9.30945,4.77483 9.5894,5.09067 11.0547,12.47362 0.82685,4.16616 1.34221,7.74086 1.14524,7.94382 -0.19695,0.20274 -2.4621,-2.56072 -5.03362,-6.14154 -4.05228,-5.64267 -5.61526,-6.65141 -11.72587,-7.56777 -4.62861,-0.69408 -8.21251,-2.3112 -10.43359,-4.70778 -3.97988,-4.29437 -4.13947,-4.98334 -1.15436,-4.98334 1.22586,0 2.22885,-0.70812 2.22885,-1.57361 0,-0.86548 -0.77197,-1.09646 -1.71548,-0.5133 -1.06286,0.6569 -1.31214,0.40772 -0.65526,-0.65522 1.24102,-2.00805 4.8211,-2.27543 5.95259,-0.44478 z m -2.92703,4.81527 c -0.55357,0.89569 0.17056,2.73448 1.60916,4.08624 2.38505,2.24107 2.54176,2.2445 1.77783,0.0393 -0.46079,-1.33059 -0.0877,-3.16938 0.82917,-4.08624 1.23201,-1.23198 1.03075,-1.66694 -0.77137,-1.66694 -1.34108,0 -2.89124,0.73283 -3.44479,1.62847 z m 6.09516,2.72656 c -0.47017,0.76074 -0.24536,1.75989 0.49954,2.22029 0.74494,0.46051 1.73784,-0.16231 2.20645,-1.38323 0.92378,-2.40729 -1.30872,-3.09795 -2.706,-0.83706 z m -69.15761,13.98837 c 0,0.28192 -1.50447,1.78645 -3.343264,3.34331 l -3.343263,2.83057 2.830613,-3.34325 c 2.660074,-3.14187 3.855914,-4.01971 3.855914,-2.83063 z m -12.860313,15.15334 c -0.483929,1.26114 -1.198558,1.97431 -1.588054,1.58479 -0.389469,-0.38975 -0.267433,-1.4213 0.271252,-2.29296 1.465171,-2.37068 2.321535,-1.91011 1.316796,0.70817 z M 40.95168,80.980903 c -0.0449,1.225921 0.56649,3.231834 1.35871,4.457696 1.75532,2.716174 1.75532,0.370091 0,-3.714695 -0.84203,-1.959533 -1.30485,-2.212594 -1.35871,-0.743001 z m -87.034069,2.942674 c -0.603016,0.975661 -0.427713,2.442673 0.389525,3.259915 1.936447,1.936442 3.475625,-0.553741 1.909007,-3.088855 -0.913322,-1.477792 -1.465508,-1.518902 -2.29851,-0.17129 z m 30.442839,45.118763 c 0,4.44035 0.54206,5.4309 2.97179,5.4309 1.63449,0 2.9717901,0.66869 2.9717901,1.48593 0,0.81724 3.00894,1.48588 6.68653,1.48588 3.67759995,0 6.68653,-0.66864 6.68653,-1.48588 0,-0.81724 -2.71857005,-1.48593 -6.04126,-1.48593 -6.51871,0 -11.7894901,-2.09763 -11.7894901,-4.69189 0,-1.0594 0.76731,-0.97875 2.22885,0.23419 3.3589501,2.78767 2.6775601,-0.61922 -0.74295,-3.71475 -2.92029,-2.64284 -2.97179,-2.59533 -2.97179,2.7415 z"
       id="path1863" /></g></svg>
