<?xml version="1.0" encoding="UTF-8" standalone="no"?>
<!-- Created with Inkscape (http://www.inkscape.org/) -->

<svg
   width="210mm"
   height="297mm"
   viewBox="0 0 210 297"
   version="1.1"
   id="svg237"
   xml:space="preserve"
   inkscape:version="1.2.2 (732a01da63, 2022-12-09)"
   sodipodi:docname="odin.svg"
   xmlns:inkscape="http://www.inkscape.org/namespaces/inkscape"
   xmlns:sodipodi="http://sodipodi.sourceforge.net/DTD/sodipodi-0.dtd"
   xmlns="http://www.w3.org/2000/svg"
   xmlns:svg="http://www.w3.org/2000/svg"><sodipodi:namedview
     id="namedview239"
     pagecolor="#ffffff"
     bordercolor="#000000"
     borderopacity="0.25"
     inkscape:showpageshadow="2"
     inkscape:pageopacity="0.0"
     inkscape:pagecheckerboard="0"
     inkscape:deskcolor="#d1d1d1"
     inkscape:document-units="mm"
     showgrid="false"
     inkscape:zoom="2.3786088"
     inkscape:cx="367.44167"
     inkscape:cy="642.39231"
     inkscape:window-width="2560"
     inkscape:window-height="1494"
     inkscape:window-x="-11"
     inkscape:window-y="-11"
     inkscape:window-maximized="1"
     inkscape:current-layer="layer1" /><defs
     id="defs234" /><g
     inkscape:label="레이어 1"
     inkscape:groupmode="layer"
     id="layer1"><path
       style="fill:#000000;stroke-width:1.45095"
       d="m -71.204321,-152.22059 c -2.980888,2.86408 -4.533657,4.74111 -3.450638,4.17117 1.445069,-0.76051 1.733129,-0.29285 1.08241,1.75753 -1.50999,4.75755 -1.57772,176.758592 -0.0696,176.793852 0.753979,0.0165 4.750317,3.171619 8.880684,7.008928 4.130418,3.837248 8.047955,6.761047 8.705695,6.497217 0.657789,-0.26378 1.269739,-2.111959 1.359949,-4.107008 0.28846,-6.377178 0.53194,-7.254757 2.012429,-7.254757 0.798019,0 1.450929,0.870569 1.450929,1.934609 0,2.509709 7.887335,10.398465 10.396554,10.398465 1.062999,0 1.933568,1.30418 1.934608,2.898129 10e-4,1.59741 0.97871,2.908829 2.178319,2.921879 1.701929,0.0165 2.067539,1.559079 1.677029,7.065907 -0.34274,4.833998 -0.002,6.734447 1.088229,6.060918 2.933009,-1.81276 1.622459,3.165418 -1.363629,5.179597 -2.759558,1.86135 -2.800138,2.20437 -0.624449,5.282038 1.279719,1.81024 5.573396,4.936558 9.541494,6.947347 7.145135,3.620739 7.252675,3.629679 11.143833,0.92809 5.2762268,-3.663188 13.6060017,-7.659917 12.6117723,-6.051267 -1.1282593,1.825589 7.3533055,5.924867 10.0877439,4.875578 1.2475892,-0.47875 2.2683686,-1.37734 2.2683686,-1.99691 0,-0.619569 1.3058192,-1.467989 2.9019082,-1.885369 1.786929,-0.46723 2.901868,-0.0439 2.901868,1.10035 0,1.022579 -2.121998,2.286839 -4.715557,2.809509 -3.7021776,0.746029 -4.2478873,1.247969 -2.5391583,2.335539 3.2256883,2.053179 3.4231683,1.970309 12.0433623,-5.051608 7.626356,-6.212388 7.992295,-6.347838 8.818885,-3.264619 1.233219,4.600168 1.103199,5.688778 -0.557,4.662688 -0.802399,-0.49575 -4.297517,1.424329 -7.766905,4.267248 -3.469388,2.842909 -6.743386,5.168908 -7.275606,5.168908 -0.531939,0 -3.5533474,-1.632339 -6.7137155,-3.627388 -7.53301536,-4.755368 -13.3610418,-4.582898 -21.8607065,0.646939 l -6.946616,4.274369 -6.596866,-5.037068 c -5.055607,-3.860289 -7.453165,-4.822108 -10.262464,-4.117049 -2.782148,0.69832 -3.665607,0.35755 -3.665607,-1.413689 0,-1.283559 0.979379,-2.333729 2.176398,-2.333729 3.691378,0 2.413249,-3.955868 -2.539158,-7.858987 -2.593549,-2.044009 -4.114078,-3.723678 -3.378848,-3.732508 0.735169,-0.011 2.534718,1.068099 3.998967,2.393289 1.46426,1.325129 3.027559,2.044119 3.473888,1.597729 0.44639,-0.44639 -0.909719,-2.407709 -3.013568,-4.358498 -2.103899,-1.950779 -4.015637,-5.281488 -4.248377,-7.401567 -0.43761,-3.986248 1.603989,-5.331778 2.913218,-1.920019 0.40855,1.064039 1.631399,1.934609 2.717988,1.934609 1.08663,0 1.678229,-0.70737 1.31471,-1.571909 -0.66048,-1.57081 -12.808093,-11.003006 -14.170572,-11.003006 -1.251919,0 -2.333348,8.817676 -3.532898,28.805298 l -1.162639,19.374082 -5.482037,4.602418 c -5.461036,4.584816 -5.480116,4.639436 -4.985637,14.254856 0.2731,5.30881 0.011,10.13524 -0.576579,10.72531 -0.59006,0.59012 -1.07287,4.84316 -1.07287,9.45118 0,8.78911 -2.269678,12.92577 -3.311228,6.03493 -0.333969,-2.2081 -0.704689,-0.0587 -0.824239,4.77642 -0.13874,5.61107 0.52756,9.80993 1.842099,11.60761 2.015169,2.75588 2.143658,2.73844 5.974716,-0.8109 2.153359,-1.99505 7.840225,-8.75983 12.637432,-15.03286 l 8.722255,-11.40548 7.497266,7.86496 c 7.262765,7.61901 30.0628013,21.47529 35.336838,21.47529 7.4963255,0 30.481011,-17.39641 38.340807,-29.019 1.951558,-2.88585 2.468578,-3.10823 2.529128,-1.08774 0.0439,1.39681 4.744397,8.44971 10.450064,15.67312 8.852724,11.2075 10.927223,13.06923 14.146771,12.69534 3.175398,-0.36852 3.771828,-1.16347 3.766778,-5.01887 -0.003,-2.51942 0.48643,-4.27641 1.088229,-3.90449 2.577379,1.59291 0.81145,-2.88617 -2.052079,-5.20493 -2.484808,-2.0121 -3.126538,-4.04378 -3.052278,-9.66374 0.0494,-3.91386 -0.584589,-7.94832 -1.413859,-8.96547 -1.640509,-2.01204 -2.087619,-14.32587 -0.575099,-15.83839 2.099238,-2.09918 0.544549,-4.87733 -7.047476,-12.591364 -5.644087,-5.735018 -8.011155,-9.285956 -8.085845,-12.130015 -0.0581,-2.211659 -0.0883,-10.876936 -0.0674,-19.256172 0.0439,-16.992483 -1.465079,-14.094024 13.860611,-26.643599 3.764588,-3.082669 8.754175,-8.240827 11.087954,-11.462565 L 75,19.152427 v -83.437705 -83.437692 l -3.701198,-4.85254 -3.701247,-4.85249 H 0.90644514 -65.784714 Z m 18.575289,-1.2199 c -11.712683,0.36523 -15.855881,1.04134 -18.136849,2.95862 -2.942938,2.47379 -2.943818,2.47028 -0.19249,-0.77964 2.580178,-3.04746 3.786688,-3.24428 18.136859,-2.95862 l 15.372861,0.306 z m 30.778291,-0.0614 c -1.795539,0.34604 -4.733757,0.34604 -6.529296,0 -1.795539,-0.34603 -0.32629,-0.62884 3.264678,-0.62884 3.591078,0 5.060157,0.28297 3.264618,0.62884 z m 17.4389794,-0.0724 c -0.9823294,0.39759 -2.9411282,0.42172 -4.3528474,0.0548 -1.411719,-0.36797 -0.6079996,-0.69311 1.7861089,-0.72267 2.3940486,-0.0274 3.5490679,0.27146 2.5667385,0.66888 z m 12.3223825,0.0439 c -1.3872092,0.36303 -3.9989176,0.37619 -5.8037765,0.0274 -1.80486889,-0.34714 -0.6698596,-0.6442 2.5222085,-0.66027 3.192128,-0.0165 4.6688271,0.26762 3.281568,0.63098 z m 7.9632851,-0.0384 c -0.997519,0.40252 -2.629808,0.40252 -3.627328,0 -0.997519,-0.40252 -0.18152,-0.73188 1.813689,-0.73188 1.995049,0 2.811208,0.32958 1.813639,0.73188 z m -51.954988,5.00351 c 0.488619,0.48752 3.351878,0.43543 6.362646,-0.11516 3.010768,-0.55053 7.073685,-0.82884 9.028694,-0.61842 5.756347,0.61952 62.202092,0.50068 72.503876,-0.153 5.796657,-0.36742 10.853794,0.0949 13.058542,1.19412 3.480028,1.73516 3.598158,2.28312 3.598158,16.68642 0,13.71611 -0.22923,14.94188 -2.901918,15.51928 -1.596039,0.34494 -13.852172,0.80608 -27.235854,1.02499 -18.109109,0.29614 -23.769375,-0.0164 -22.126946,-1.21276 2.709548,-1.97777 3.076688,-8.48261 0.3932,-6.96757 -1.43508,0.81019 -1.44227,0.62325 -0.0329,-0.89552 1.302699,-1.40541 1.352219,-2.43387 0.184799,-3.84021 -1.355019,-1.63267 -0.865909,-2.69902 0.71461,-1.55804 0.27639,0.19962 1.582219,-0.53358 2.901918,-1.62861 3.040218,-2.5232 3.206988,-6.60925 0.22319,-5.46416 -1.509059,0.57905 -2.227718,-0.1519 -2.343758,-2.38396 -0.35481,-6.82696 -0.62396,-7.57184 -2.734549,-7.57184 -1.267939,0 -1.998449,1.05993 -1.750079,2.53915 0.23471,1.39653 -0.12394,2.53915 -0.796869,2.53915 -0.67276,0 -0.95721,2.27862 -0.63207,5.06362 0.43158,3.69588 -0.0384,5.30546 -1.742289,5.95904 -1.283399,0.49245 -2.3334583,1.80497 -2.3334583,2.91661 0,2.48229 1.7404289,2.60228 4.0626973,0.28023 1.354189,-1.35425 1.718429,-0.78996 1.639139,2.53916 -0.17494,7.34568 -1.861079,9.73386 -7.2444054,10.26125 -4.1393075,0.40526 -4.6098172,0.18536 -2.7689883,-1.2953 3.222238,-2.59169 3.1843981,-30.80275 -0.0439,-30.80275 -1.7110889,0 -2.1053187,1.70615 -1.8437989,7.98023 0.4880697,11.71318 -1.11103928,24.71107 -2.58850838,21.03877 -0.64210962,-1.59609 -1.21341922,-2.08575 -1.26951922,-1.08822 -0.0559,0.99752 -1.0813793,1.81369 -2.2783986,1.81369 -1.1970293,0 -2.1763987,0.62116 -2.1763987,1.38041 0,0.81041 -5.8418865,1.19028 -14.1467715,0.91992 -21.724697,-0.70726 -20.701127,-0.53084 -19.658968,-3.38856 0.88187,-2.41824 0.78788,-2.41824 -1.973489,0 -3.552578,3.11119 -7.198935,3.26484 -8.818054,0.37181 -1.06388,-1.90111 -1.635799,-1.87133 -4.653587,0.24239 -1.892329,1.3254 -5.786177,2.46403 -8.652995,2.53016 l -5.212447,0.1201 -0.72547,-15.65599 c -0.520419,-11.2261 -0.224839,-16.15273 1.04331,-17.41139 1.836069,-1.82214 31.237631,-2.59729 32.97043,-0.86926 z m 5.076557,7.09414 c -0.36961,25.13887 -0.52864,23.94069 3.179298,23.94069 2.185548,0 3.443288,-0.85225 3.457158,-2.3425 0.011,-1.28838 0.743129,-3.24718 1.624609,-4.35284 2.649108,-3.32287 5.028626,-12.27518 3.985367,-14.99388 -0.58266,-1.51833 -0.16451,-3.04603 1.036619,-3.78845 1.52162,-0.94038 1.6041,-1.65301 0.33781,-2.91918 -2.716008,-2.71601 -4.829887,-0.13435 -4.829887,5.89832 0,3.09303 -0.757159,7.46173 -1.682679,9.70826 l -1.682679,4.08458 -0.962049,-4.35285 c -0.52919,-2.39411 -0.35974,-5.57428 0.3762,-7.06711 0.922889,-1.87138 0.849789,-2.4122 -0.23526,-1.74158 -1.06558,0.65857 -1.288059,-0.45626 -0.68889,-3.45228 0.69607,-3.48035 0.38168,-4.42495 -1.472759,-4.42495 -1.769269,0 -2.379128,1.44874 -2.443188,5.80377 z m 17.433659,-3.62739 c -0.3751,12.93621 -0.0164,28.29355 0.6624,28.29355 0.468319,0 1.504559,0 2.302578,0 0.7980197,0 1.4509293,-1.20597 1.4509293,-2.67988 0,-3.46878 4.5499472,-8.65392 6.8920058,-7.85426 3.8348976,1.30945 1.61659899,-5.68801 -3.1222081,-9.84876 -3.4652179,-3.04253 -4.711707,-5.19085 -4.1836075,-7.21041 0.5209697,-1.99218 0.0329,-2.87662 -1.5933495,-2.87662 -1.290139,0 -2.374038,0.97937 -2.408748,2.17638 z m 6.3562261,15.61707 c -0.5708797,0.92366 -1.4650791,0.21936 -2.1820487,-1.71893 -0.6681594,-1.80618 -0.7795894,-3.98822 -0.2478698,-4.84903 0.5708196,-0.9236 1.4650791,-0.21936 2.1820486,1.71898 0.6681596,1.80618 0.7795296,3.98823 0.2478699,4.84898 z m 37.2353069,-1.74739 c 0,0.84512 0.65292,1.13303 1.45099,0.63986 0.798019,-0.493 1.450929,-1.18469 1.450929,-1.53659 0,-0.35207 -0.65291,-0.63986 -1.450929,-0.63986 -0.79807,0 -1.45099,0.69146 -1.45099,1.53659 z m -75.804853,5.83235 c -2.408639,4.23199 -2.408639,4.4249 0,3.96108 1.392579,-0.26816 2.531918,-1.24046 2.531918,-2.16055 0,-0.92009 0.48971,-2.16258 1.088229,-2.76109 0.59851,-0.59851 1.08822,-1.63234 1.08822,-2.29737 0,-2.57629 -2.289469,-0.99209 -4.708367,3.25793 z m 118.908607,-4.12121 c -0.34714,1.80487 -0.644199,0.66986 -0.660319,-2.52227 -0.0165,-3.19207 0.267609,-4.66877 0.631029,-3.28151 0.36304,1.38721 0.3762,3.99892 0.0274,5.80378 z m -131.76079,19.8446 c 1.38271,0.87551 0.28516,1.28362 -3.452057,1.28362 -3.019659,0 -6.036577,0.87929 -6.720636,1.9588 -0.68275,1.07731 -1.344,8.488035 -1.469519,16.468262 -0.22375,14.225194 -0.24788,14.319794 -1.21759,4.826388 -1.383479,-13.540144 -0.591549,-22.75754 2.126819,-24.75472 1.996519,-1.46678 8.273785,-1.3395 10.732983,0.21771 z m 19.011479,0.12284 c 1.673749,1.0817 1.171089,1.41622 -2.176389,1.44857 -2.394108,0.0219 -5.985186,0.36688 -7.980235,0.76353 -3.202048,0.63684 -3.116938,0.47216 0.72547,-1.40531 5.199506,-2.54053 6.567356,-2.6575 9.431154,-0.80679 z m 13.784011,0 c 2.188739,0.94055 1.29727,1.24704 -3.627327,1.24704 -4.924657,0 -5.816117,-0.30655 -3.627378,-1.24704 1.596029,-0.68582 3.228368,-1.24698 3.627378,-1.24698 0.399229,0 2.031288,0.56116 3.627327,1.24698 z m 81.97863,0.41623 c 0,0.65714 -8.015485,1.03004 -17.812199,0.82862 -9.796724,-0.20126 -18.611218,0.12777 -19.587788,0.73111 -0.976579,0.60356 -1.775639,0.45407 -1.775639,-0.33287 0,-0.78661 1.14263,-1.73889 2.539159,-2.11619 4.306837,-1.16352 36.636467,-0.37893 36.636467,0.88927 z m -71.459246,0.58415 c -1.396529,0.36522 -3.681778,0.36522 -5.078307,0 -1.396539,-0.36523 -0.25391,-0.66356 2.539149,-0.66356 2.793118,0 3.935687,0.29833 2.539158,0.66356 z m 26.051114,2.70186 c -0.16342,0.10145 -3.2348979,-0.15739 -6.8260357,-0.57477 -6.0583963,-0.70446 -6.2153462,-0.82357 -2.1763887,-1.65191 2.3940486,-0.49081 5.4657467,-0.23252 6.8260259,0.57476 1.3602292,0.80707 2.3395985,1.55041 2.1763985,1.65192 z m 53.751127,-2.70186 c -1.396589,0.36522 -3.681787,0.36522 -5.078366,0 -1.39653,-0.36523 -0.25391,-0.66356 2.539208,-0.66356 2.793058,0 3.935688,0.29833 2.539158,0.66356 z m -89.674795,6.00674 c -3.547818,2.25777 -7.340755,5.188755 -8.428705,6.513335 -1.087949,1.324529 -2.657888,1.988079 -3.488808,1.474569 -0.830919,-0.5133 -1.095629,-0.26213 -0.588259,0.55886 0.507259,0.820939 -0.6976,3.240718 -2.677729,5.377298 -1.980078,2.136589 -3.600188,4.868938 -3.600188,6.071947 0,1.203 -0.489709,1.904009 -1.088219,1.557749 -0.598519,-0.346029 -2.394058,-0.0439 -3.990087,0.66964 -2.671759,1.19615 -2.643029,1.25006 0.363029,0.67979 4.129818,-0.7836 4.230228,1.842869 0.26323,6.886077 -2.245608,2.854759 -2.428268,3.595749 -0.725469,2.942339 1.251759,-0.48039 2.275928,-0.15081 2.275928,0.73281 0,0.883409 -0.732869,1.606179 -1.628609,1.606179 -1.191869,0 -1.198449,0.51823 -0.0219,1.932749 1.18447,1.427129 1.09908,2.623279 -0.32629,4.572648 -1.340049,1.832659 -2.246098,2.129009 -2.962898,0.96917 -0.567969,-0.91894 -3.496978,-1.67078 -6.508956,-1.67078 -6.926116,0 -7.815985,-0.934849 -4.992107,-5.244587 1.24726,-1.90363 1.594169,-3.461109 0.77087,-3.461109 -0.82335,0 -1.826249,0.81617 -2.228769,1.813689 -0.40251,0.99752 -0.783369,0.27474 -0.846379,-1.606179 -0.0795,-2.380899 0.509999,-3.180119 1.941788,-2.630739 1.131,0.43377 2.384789,-0.0669 2.786209,-1.113019 0.48423,-1.26217 2.721388,-1.73324 6.649396,-1.4002 3.255688,0.27584 5.919436,-0.13271 5.919436,-0.90819 0,-0.775529 -4.407247,-1.487349 -9.793924,-1.581719 -7.567725,-0.13271 -8.804515,-0.42336 -5.441017,-1.279339 l 4.352848,-1.10759 -4.870857,-0.17164 c -3.809388,-0.13436 -4.678867,-0.67178 -3.990088,-2.466719 0.48423,-1.262339 0.88072,-2.894629 0.88072,-3.627378 0,-0.73276 1.059319,-1.33232 2.354068,-1.33232 1.862009,0 1.998889,-0.42774 0.655,-2.047199 -1.01644,-1.224769 -1.148879,-2.387299 -0.32958,-2.893579 0.75316,-0.46558 1.743769,0.12942 2.201349,1.32179 1.035799,2.699229 6.726826,2.879759 6.726826,0.21332 0,-1.07512 -1.46908,-2.663199 -3.264618,-3.529169 -2.937899,-1.416869 -2.674829,-1.584299 2.628318,-1.672699 4.025517,-0.0669 6.899186,0.839309 9.068404,2.860239 2.696489,2.512179 3.175508,2.601129 3.175508,0.589629 0,-1.302809 -1.305829,-2.710249 -2.901918,-3.127628 -1.596039,-0.41733 -2.901858,-1.40553 -2.901858,-2.195809 0,-0.79034 1.142619,-0.99232 2.539158,-0.44859 3.020309,1.175479 3.172049,1.194069 6.891996,0.843099 l 2.901919,-0.273649 -2.901919,-1.24698 c -1.596029,-0.685876 -4.697457,-1.292886 -6.891996,-1.348986 -2.194548,-0.0559 -3.990147,-0.63246 -3.990147,-1.28088 0,-0.64836 3.427878,-1.12365 7.617525,-1.05614 4.189588,0.0675 8.483375,-0.50288 9.541714,-1.26695 1.25724,-0.90797 2.263209,-0.84222 2.901919,0.18975 0.690809,1.11603 2.254648,1.01677 5.330456,-0.33836 7.214906,-3.17836 7.475006,-2.39351 0.64683,1.95178 z m -9.352524,3.149726 c -0.493,0.79802 -0.2051,1.450929 0.639859,1.450929 0.84513,0 1.536589,-0.652909 1.536589,-1.450929 0,-0.798016 -0.287899,-1.450976 -0.639859,-1.450976 -0.35207,0 -1.04337,0.65296 -1.536589,1.450976 z m 30.1072214,-6.293816 c -0.9975194,0.40252 -2.6298584,0.40252 -3.6273778,0 -0.9975194,-0.40252 -0.1815199,-0.73183 1.8136889,-0.73183 1.9950488,0 2.8112183,0.32904 1.8136889,0.73183 z m -12.5286324,4.05255 c -9.410044,4.609495 -18.925818,14.160911 -21.920637,22.002838 -1.334999,3.495558 -2.965038,6.355517 -3.622337,6.355517 -1.726599,0 0.011,-6.088937 2.590108,-9.068456 1.208159,-1.396529 1.636499,-2.539159 0.951839,-2.539159 -2.210558,0 10.026604,-11.846485 16.67687,-16.14438 3.547818,-2.29288 7.791866,-4.14847 9.431165,-4.12352 1.913878,0.0274 0.444199,1.28784 -4.107008,3.51716 z m 45.295552,1.4001 c 2.926269,1.867696 6.952826,5.245404 8.947865,7.505973 3.145788,3.564489 2.869458,3.465889 -2.081519,-0.742679 -3.139918,-2.669079 -9.016254,-6.452308 -13.058542,-8.407204 -4.555157,-2.20289 -5.786676,-3.21165 -3.239018,-2.65312 2.260909,0.49575 6.504896,2.42926 9.431214,4.29703 z m 23.457336,-2.78621 c 0,1.19702 -0.979369,2.1764 -2.176389,2.1764 -2.265788,0 -2.878668,-1.71603 -1.209149,-3.38555 1.669519,-1.66952 3.385538,-1.05664 3.385538,1.20915 z m 21.362927,11.244853 c -0.3219,2.593549 -0.58524,0.47161 -0.58524,-4.715608 0,-5.187115 0.26323,-7.309115 0.58524,-4.715555 0.32191,2.593556 0.32191,6.837604 0,9.431163 z M 11.549299,-100.0732 c 5.620336,1.410616 6.944755,4.148675 1.419729,2.935195 -3.8516779,-0.84594 -4.9721972,-0.2369 -9.6766243,5.259068 -5.7803065,6.752927 -6.4364561,12.032835 -1.8429689,14.828854 2.0684688,1.259109 3.0240382,1.059659 4.5128073,-0.94186 2.5080684,-3.371938 3.4492679,-3.201558 4.0069775,0.72547 0.2549994,1.795589 1.1058894,2.938159 1.8908484,2.539159 0.78491,-0.39923 1.23355,-1.868099 0.99698,-3.264629 -0.29449,-1.736639 0.51548,-2.539159 2.562948,-2.539159 1.646219,0 2.993118,0.65292 2.993118,1.45094 0,0.798069 0.97937,1.450979 2.176399,1.450979 3.113868,0 2.685139,4.765678 -0.830759,9.235496 -3.466808,4.407308 -5.846497,4.743688 -10.7640738,1.52157 -1.9318688,-1.26585 -4.1941474,-1.88021 -5.0272569,-1.36533 -0.8331195,0.51494 -1.5147691,-0.0636 -1.5147691,-1.285099 0,-1.7985 -1.2835592,-1.53873 -6.7453659,1.365329 -3.7099677,1.972609 -6.9491453,3.586579 -7.1982253,3.586579 -0.24897,0 -1.784129,-1.42899 -3.411258,-3.175509 -3.345998,-3.591459 -3.749998,-7.203987 -1.252799,-11.202625 1.464919,-2.345689 1.993348,-2.443459 3.744357,-0.69245 2.161919,2.161919 5.348727,1.322879 3.8969679,-1.0261 -0.4710697,-0.762639 -0.005,-1.207219 1.0300994,-0.987919 1.0544993,0.22264 2.1239087,-1.2018 2.4238785,-3.228709 0.2950398,-1.995039 1.4670591,-4.157178 2.6041484,-4.804768 1.1370293,-0.64754 1.67861897,-1.806349 1.2034893,-2.575079 -0.4748998,-0.76874 -0.0806,-1.218309 0.87632943,-0.999059 3.48924787,0.799439 2.95209817,-3.234519 -0.64912963,-4.875358 -3.205668,-1.46058 -4.5000372,-1.16253 -9.5960043,2.209799 -3.239778,2.143989 -6.561106,3.483698 -7.380785,2.977098 -2.556809,-1.580189 -12.503733,10.420566 -15.685271,18.923963 -5.077547,13.571014 -3.302908,24.751539 2.767719,17.436952 2.667428,-3.214068 6.512576,-2.647029 8.608634,1.26958 3.673498,6.863977 -3.595308,12.898025 -7.695015,6.387807 -1.952819,-3.100979 0.41349,-5.994117 3.830458,-4.682978 2.417568,0.92766 1.845929,5.005768 -0.70167,5.005768 -0.798019,0 -1.015949,-1.142579 -0.48423,-2.539159 0.77504,-2.035899 0.60455,-2.179689 -0.860419,-0.72547 -1.468809,1.45806 -1.466569,2.16938 0.011,3.627389 1.473529,1.453399 2.231899,1.281309 3.817898,-0.86652 2.240828,-3.034678 1.395319,-6.750957 -1.53599,-6.750957 -3.995787,0 -9.344184,3.455249 -9.344184,6.036688 0,1.467929 -0.591819,2.669008 -1.315099,2.669008 -0.72332,0 -0.973659,-1.305879 -0.55628,-2.901918 0.4409,-1.68663 0.0439,-2.901909 -0.946909,-2.901909 -0.93824,0 -1.367139,-0.54785 -0.95316,-1.21787 0.41404,-0.669859 0.91329,-5.566817 1.10956,-10.882145 0.19633,-5.315328 0.831469,-9.664226 1.411559,-9.664226 1.211669,0 3.352088,-5.482318 3.398918,-8.705697 0.0165,-1.197029 0.707699,-2.176399 1.533959,-2.176399 0.826319,0 3.763608,-2.123749 6.527386,-4.719398 2.763768,-2.595639 6.167626,-5.088128 7.564165,-5.538797 1.39658,-0.45077 2.539149,-1.53724 2.539149,-2.414449 0,-0.87726 0.40965,-1.18562 0.909779,-0.68527 0.50014,0.50068 3.181488,-0.0384 5.9579366,-1.199486 2.7764983,-1.16007 5.5714766,-1.78584 6.2110062,-1.39061 0.6395397,0.39539 2.6921584,0.14642 4.5614573,-0.55245 1.8692488,-0.69909 3.7316377,-0.75212 4.1386474,-0.1179 0.4069098,0.63426 2.5351585,1.60382 4.7292675,2.15451 z m 58.372084,9.748182 c -0.59616,11.328646 -1.044519,14.193104 -4.485837,28.656248 -4.783767,20.105462 -4.940667,20.526522 -6.905876,18.537233 -1.005799,-1.01819 -2.290569,-3.157139 -2.854918,-4.753168 -0.81699,-2.310479 -0.43762,-2.162639 1.862609,0.725459 2.263478,2.842259 2.895718,3.096329 2.920998,1.17383 0.0165,-1.349419 -0.62067,-2.857059 -1.418689,-3.350279 -1.831619,-1.131989 -1.913279,-11.876055 -0.0987,-12.997454 0.790399,-0.48862 0.536879,-2.407429 -0.61069,-4.619038 -2.439948,-4.703048 -1.394109,-7.759177 2.678399,-7.826517 2.985928,-0.0494 2.969808,-0.12887 -0.40636,-1.998989 l -3.515508,-1.947609 3.344468,-1.06152 c 2.597068,-0.82429 2.896318,-1.34537 1.339109,-2.331649 -1.102969,-0.69854 -3.800948,-1.28011 -5.995496,-1.29228 -6.349806,-0.0329 -4.618267,-2.423829 1.943609,-2.680918 6.522336,-0.25555 8.575784,-1.07172 8.575784,-3.408409 0,-0.99363 -0.752289,-0.91866 -2.112838,0.21058 -1.1621,0.964459 -2.776779,1.343229 -3.588178,0.84178 -0.81134,-0.50123 -3.923288,-1.22521 -6.915416,-1.60826 -2.992078,-0.38333 -6.084776,-1.341149 -6.872646,-2.129019 -0.942629,-0.94263 0.90413,-1.112189 5.400927,-0.49574 7.956545,1.09053 8.815975,-0.0735 2.117829,-2.867919 l -4.715608,-1.967409 6.368567,-0.12503 c 3.502737,-0.0686 7.061185,-0.817599 7.907675,-1.664089 0.846499,-0.846496 2.675598,-1.539106 4.064667,-1.539106 2.218739,0 2.458269,1.277846 1.971959,10.519382 z m -4.963377,16.444084 c 0.0696,1.690309 0.41349,2.034089 0.87661,0.876659 0.418969,-1.047429 0.367419,-2.298849 -0.11462,-2.780999 -0.48203,-0.48203 -0.82505,0.37455 -0.76204,1.90434 z m -2.625088,9.209776 c 0.11626,1.540759 0.728429,2.481579 1.360779,2.090799 1.608869,-0.99435 1.440729,-4.892198 -0.21113,-4.892198 -0.74839,0 -1.265799,1.260639 -1.149759,2.801399 z M -64.683965,-95.614926 c -0.48203,0.48204 -1.733569,0.53359 -2.780998,0.11462 -1.157479,-0.463389 -0.81364,-0.806959 0.876609,-0.876609 1.529569,-0.0631 2.386539,0.28023 1.904389,0.762099 z m 90.536875,1.66256 c 1.841979,2.348699 1.773709,2.379519 -0.91055,0.41074 -1.596039,-1.1707 -3.173978,-2.313329 -3.506467,-2.539149 -0.33232,-0.22594 0.0773,-0.41075 0.910549,-0.41075 0.83334,0 2.411219,1.142629 3.506468,2.539209 z m 17.226299,1.088169 c 1.874289,1.9951 3.081299,3.627379 2.682289,3.627379 -0.39923,0 -2.258979,-1.632279 -4.133218,-3.627379 -1.874289,-1.995049 -3.081288,-3.627378 -2.682288,-3.627378 0.39923,0 2.258989,1.632329 4.133217,3.627378 z m -50.7885486,2.907619 c -2.3106484,2.459529 -4.8343974,3.567669 -7.8650754,3.453379 -2.454428,-0.0927 -3.320008,-0.46668 -1.923479,-0.83191 1.39654,-0.36523 2.539159,-1.300119 2.539159,-2.078119 0,-1.510329 9.0158143,-5.796328 10.0414637,-4.773578 0.3356198,0.33452 -0.9207994,2.238309 -2.7920683,4.230228 z m 15.9657703,0.71976 c -4.7346871,3.703558 -6.9790258,3.703558 -3.6273778,0 1.4444091,-1.596029 3.6676377,-2.887379 4.940497,-2.869609 1.6847191,0.0219 1.3274891,0.8041 -1.3131192,2.869609 z m 10.9271733,-0.0729 c -0.53413,0.8641 -1.648569,1.152389 -2.476638,0.64063 -0.97482,-0.60246 -0.82643,-1.35025 0.421159,-2.12118 2.328469,-1.439079 3.388288,-0.675719 2.055639,1.48055 z m 4.587827,2.584399 c -0.36797,1.411719 -0.693049,0.608 -0.722609,-1.786109 -0.0274,-2.394049 0.271449,-3.549069 0.668869,-2.566739 0.39759,0.982329 0.42171,2.941128 0.0548,4.352848 z m 16.00828,10.376416 c 3.218338,6.814797 3.581598,9.080686 2.851689,17.787482 -1.775309,21.175761 -15.575271,36.068945 -35.5113986,38.324424 -11.9264928,1.34937 -23.9036154,-2.202339 -31.2385514,-9.263406 -6.060256,-5.833997 -11.938672,-14.455464 -10.700523,-15.693673 0.43104,-0.43103 1.831739,1.242099 3.112278,3.718418 l 2.328309,4.502388 3.076738,-2.866429 c 1.692229,-1.576519 3.630838,-2.524029 4.307987,-2.105489 0.67716,0.41842 1.277099,-0.746689 1.333199,-2.589339 0.096,-3.146388 0.17329,-3.173698 1.27846,-0.448579 0.948879,2.340359 0.389359,3.244878 -2.892819,4.674418 -2.238088,0.974879 -4.427917,2.352819 -4.866297,3.062108 -1.065029,1.72331 10.601144,12.103135 12.372553,11.008326 0.763419,-0.47161 2.338778,-0.0686 3.500868,0.895689 1.6560286,1.37443 2.590988,1.35672 4.3243369,-0.0817 1.2163293,-1.009479 2.5999184,-1.446979 3.0746582,-0.972239 0.4749097,0.4749 1.8174188,-0.091 2.98378814,-1.25752 1.16636928,-1.166369 2.80567826,-1.697319 3.64284776,-1.179909 0.8670095,0.53577 1.2302593,0.0729 0.8439195,-1.07485 -0.3729098,-1.108629 0.2911898,-2.730219 1.4766491,-3.603578 4.4754673,-3.297809 -1.4876691,-14.009784 -7.7989352,-14.009784 -4.1567375,0 -6.640456,2.582259 -6.0661264,6.306867 0.5149397,3.338819 -2.440608,3.821298 -3.079698,0.50288 -0.29449,-1.52787 -1.795709,-3.871369 -3.336628,-5.207738 -1.781389,-1.545029 -2.238419,-2.777979 -1.254989,-3.385709 0.850609,-0.525899 1.153259,-1.592299 0.672539,-2.370139 -1.194719,-1.933079 2.241059,-5.833827 4.117148,-4.674318 0.877369,0.54236 1.076709,0.23142 0.47546,-0.741479 -1.723759,-2.789109 3.4448174,-1.92035 7.485795,1.258289 l 3.72921768,2.933389 3.29922802,-3.099499 3.299278,-3.099559 -0.8846595,3.430789 c -0.8190795,3.176109 -0.6879596,3.269229 1.7663089,1.254269 1.4581191,-1.197019 3.0404379,-2.157089 3.5162779,-2.133559 0.476,0.0219 0.70951,-0.635149 0.51933,-1.463879 -0.19029,-0.82873 1.931698,-2.219659 4.715607,-3.090999 4.065267,-1.272429 5.061587,-1.198449 5.061587,0.37565 0,1.967239 -1.753099,2.569809 -5.803837,1.994879 -1.596579,-0.22649 -1.355019,0.5973 0.90693,3.092699 4.280517,4.722408 6.662176,9.699436 5.523326,11.542135 -0.542349,0.87748 -2.934818,1.19154 -5.508186,0.72311 -4.389818,-0.79917 -4.657377,-0.54921 -7.6261357,7.124407 -2.1971286,5.679248 -2.5590084,7.952647 -1.2658492,7.952647 0.9959294,0 2.6236589,0.979379 3.6170679,2.176459 1.931379,2.327089 6.533026,3.079159 5.150157,0.841609 -0.45352,-0.734069 0.913289,-2.702028 3.037748,-4.373138 4.214987,-3.315508 6.383596,-2.941619 3.448828,0.59451 -1.316359,1.586169 -1.360279,2.211499 -0.1552,2.211499 0.924099,0 2.939598,-2.938169 4.478927,-6.529247 1.539329,-3.591079 3.513428,-6.529298 4.386908,-6.529298 0.873469,0 1.118489,0.81617 0.544549,1.81369 -0.596379,1.036399 -0.48533,1.303409 0.25884,0.623079 0.7163,-0.654829 1.349419,-1.960719 1.406949,-2.901918 0.0576,-0.9412 1.634749,-4.969238 3.504928,-8.951267 4.165787,-8.869606 5.087357,-18.179852 2.171789,-21.940871 -1.734009,-2.236889 -1.966969,-2.287559 -1.26859,-0.275839 1.16681,3.360808 -4.022827,8.779116 -7.229815,7.548476 -2.920238,-1.120579 -2.531649,-5.164907 0.57767,-6.012717 1.788908,-0.48752 1.820388,-0.34439 0.177129,0.80575 -1.156059,0.808989 -1.521669,2.172449 -0.866729,3.232218 1.410899,2.282889 5.042727,-2.138229 5.042727,-6.138737 0,-3.280149 -1.256199,-3.267859 -5.575427,0.0548 -2.291998,1.763019 -3.237098,3.760798 -2.901868,6.134287 0.70277,4.976048 6.643476,5.620348 10.280784,1.11499 2.647628,-3.279429 2.688478,-3.285349 1.162529,-0.16781 -2.625358,5.363918 -6.464146,6.564237 -10.596873,3.313428 -1.973489,-1.552319 -3.981918,-2.428649 -4.463128,-1.947379 -1.033489,1.03344 1.286749,-7.449227 2.633589,-9.628536 0.509459,-0.824009 2.356488,-1.508179 4.104977,-1.520409 2.374199,-0.0164 2.672749,-0.34274 1.179419,-1.28872 -1.099789,-0.696619 -1.550949,-1.992409 -1.002559,-2.879708 1.597459,-2.584779 -0.54966,-4.933098 -2.801678,-3.064069 -1.14789,0.952659 -2.254809,1.046979 -2.756759,0.23471 -0.461189,-0.74636 0.20401,-2.222459 1.47879,-3.280309 1.961868,-1.628229 2.627338,-1.499569 4.336897,0.83838 1.110649,1.518989 2.019389,3.536408 2.019389,4.483148 0,0.94685 0.979429,2.534269 2.176448,3.527738 4.113418,3.413839 2.467269,-3.396728 -2.117438,-8.760486 -2.361649,-2.762949 -4.296968,-5.676438 -4.300698,-6.474457 -0.011,-2.794929 7.445606,7.328687 11.098873,15.064334 z m 6.169177,-3.227929 c -0.0439,1.584569 -5.696787,-5.624458 -5.739287,-7.316517 -0.0165,-0.70616 1.273579,0.3762 2.869608,2.405239 1.596039,2.029049 2.887389,4.239118 2.869679,4.911278 z M 9.8162197,-84.48504 c -0.0598,0.57856 -0.3350698,0.88873 -0.6112896,0.68922 -0.2763898,-0.19961 -1.598009,0.546749 -2.9369582,1.657729 -1.3390092,1.111199 -2.9073983,1.547499 -3.4853479,0.96955 -0.5780096,-0.57794 0.2275799,-1.98566 1.7900489,-3.128229 2.8406083,-2.077089 5.4486471,-2.170749 5.2435468,-0.1881 z m 12.9497423,3.228379 c 1.041119,1.254499 1.182109,2.176399 0.33287,2.176399 -0.81035,0 -1.849219,-0.97937 -2.308559,-2.176399 -0.45955,-1.19703 -0.60915,-2.17645 -0.33287,-2.17645 0.27639,0 1.315099,0.97942 2.308559,2.17645 z m 26.842553,-0.72547 c 0.493,0.79802 0.20509,1.450929 -0.639869,1.450929 -0.84512,0 -1.536589,-0.652909 -1.536589,-1.450929 0,-0.79802 0.28791,-1.45098 0.639869,-1.45098 0.35206,0 1.04336,0.65296 1.536589,1.45098 z m -76.614173,7.556927 c -3.066708,1.949589 -3.987397,1.227629 -2.161979,-1.69524 1.24606,-1.995259 2.092879,-2.331479 2.837589,-1.126499 0.583819,0.9446 0.27968,2.214399 -0.67561,2.821739 z m 76.594483,12.756334 c 0.0274,14.492744 -3.419217,23.140041 -13.389771,33.605907 -7.985055,8.381706 -21.242337,15.486703 -25.702885,13.775014 -1.180739,-0.45297 -2.5326882,-0.19961 -3.0043579,0.5638 -0.4716097,0.763139 -2.2880986,1.311859 -4.0365875,1.219289 -2.4816885,-0.13161 -2.61812841,-0.31477 -0.6220896,-0.835309 1.4063391,-0.36687 2.1839586,-1.27051 1.7280789,-2.00809 -0.4584497,-0.741869 1.9734388,-1.341149 5.4426671,-1.341149 7.902635,0 18.348968,-6.706257 27.551123,-17.687013 8.892144,-10.610805 12.158802,-24.28223 9.294884,-38.900014 -0.879729,-4.490158 -0.779859,-4.742198 0.86218,-2.176449 1.080169,1.687889 1.865348,7.454547 1.876758,13.784014 z m -79.723271,-4.883858 c -0.830809,4.428579 -0.62434,5.132828 1.289489,4.398419 1.25323,-0.48094 2.278609,-0.24184 2.278609,0.530839 0,2.25636 -4.362877,1.6166 -5.280337,-0.774269 -0.914549,-2.383249 0.46175,-9.427926 1.842099,-9.427926 0.47271,0 0.41403,2.372779 -0.12997,5.272777 z m 103.683587,-0.834269 c 0,1.643149 -0.60591,2.613029 -1.346459,2.155339 -2.054819,-1.26996 -2.881459,2.939599 -3.691378,18.797782 -0.40745,7.980227 -2.396139,22.018141 -4.418987,31.195397 -2.022899,9.1772665 -4.084788,18.6411626 -4.582068,21.0308316 -0.497389,2.389719 -2.699128,6.6337674 -4.893127,9.4311564 -2.193938,2.797449 -4.420247,6.538407 -4.947357,8.313216 -0.947839,3.191469 -6.372786,7.769817 -11.324093,9.556856 -2.155058,0.77783 -2.407208,0.32574 -1.603879,-2.874938 0.98683,-3.931909 8.971665,-15.805704 14.680411,-21.8303815 3.602708,-3.8021484 4.254738,-5.5305077 1.450929,-3.8460184 -1.430259,0.8592697 -1.426969,0.6118898 0.0164,-1.1699395 1.00608,-1.2428195 3.111459,-9.2386762 4.678648,-17.7687226 1.567189,-8.529997 3.289078,-16.220513 3.826447,-17.089983 0.53742,-0.86947 1.20191,-3.282559 1.476709,-5.362268 1.40942,-10.667015 5.931277,-29.125778 7.639016,-31.183447 2.540968,-3.061669 3.039678,-2.955829 3.039678,0.64512 z m -116.318499,6.806347 c -0.10364,11.025175 4.787287,23.69035 12.408812,32.131397 4.218658,4.672288 4.906227,5.938957 2.343269,4.316768 -10.057254,-6.365607 -19.618878,-29.994428 -16.75497,-41.405173 1.399659,-5.576638 2.086079,-3.877718 2.002889,4.957008 z m 20.555857,-3.990088 c 0,1.501829 -0.628449,3.119028 -1.396579,3.593768 -0.796159,0.49191 -1.264039,-0.969939 -1.088229,-3.400348 0.33068,-4.573849 2.484808,-4.741488 2.484808,-0.19358 z m -45.259632,0.763859 c -0.44693,0.44693 -1.258059,-0.35865 -1.802939,-1.789509 -0.78738,-2.067869 -0.62072,-2.234529 0.812279,-0.81222 0.9916,0.98425 1.43738,2.15501 0.99066,2.601729 z m 121.735176,3.934809 c -0.34713,1.804859 -0.64414,0.669859 -0.66026,-2.522269 -0.0165,-3.192069 0.26761,-4.668778 0.63103,-3.281509 0.363029,1.3872 0.376199,3.998908 0.0274,5.803778 z m -69.242988,-0.62292 c 0.011,1.04463 -0.6307,1.495789 -1.428719,1.00257 -0.79807,-0.493 -1.440949,-2.327319 -1.428779,-4.075749 0.0164,-2.584449 0.285169,-2.771999 1.428779,-1.002569 0.773559,1.197029 1.416489,3.031118 1.428719,4.075748 z m 19.1583982,0.85966 c -0.3942898,0.719379 -1.5965291,0.10474 -2.6717584,-1.36555 -2.8420283,-3.886718 -2.39393856,-5.438058 0.7167995,-2.481629 1.4694691,1.39653 2.3491986,3.127739 1.9549589,3.847179 z m 68.9703778,9.936836 c -0.3219,2.593548 -0.58524,0.471609 -0.58524,-4.715619 0,-5.187107 0.26323,-7.309157 0.58524,-4.715548 0.32191,2.593559 0.32191,6.837548 0,9.431167 z m -138.204146,-2.751389 c 1.706479,9.694606 3.702838,10.007626 2.237259,0.35097 l -0.966699,-6.370158 5.153826,-0.83635 c 2.834629,-0.460099 5.739397,-0.250609 6.455046,0.46504 1.627079,1.62702 -4.530857,10.604766 -6.457236,9.414216 -0.756779,-0.467779 -1.201579,-0.312039 -0.988529,0.34548 0.5808,1.79313 -4.055078,7.854977 -5.161227,6.748827 -0.52701,-0.527009 -0.968079,-2.318329 -0.980309,-3.980878 -0.011,-1.662559 -0.7032,-4.002208 -1.535549,-5.199238 -2.178639,-3.133168 -0.59209,8.179627 5.063237,36.102405 4.421557,21.8314213 5.147736,23.9478705 11.489323,33.484707 6.564946,9.872785 8.213675,14.955043 5.413046,16.685933 -2.869558,1.773489 -19.825728,-25.4624198 -19.158998,-30.7742376 0.22539,-1.7955393 -0.22868,-3.2646287 -1.009149,-3.2646287 -0.78041,0 -1.07747,-1.30587946 -0.66009,-2.9019188 0.41732,-1.5960293 0.12009,-2.9019088 -0.6601,-2.9019088 -0.780469,0 -1.151289,-1.4690894 -0.824179,-3.2646287 0.32739,-1.7955394 -0.33671,-6.3147674 -1.475879,-10.0427254 -1.138839,-3.727959 -1.572779,-7.319037 -0.96429,-7.980227 0.60849,-0.66114 0.61091,-4.140298 0.005,-7.731377 -1.081099,-6.410957 -1.107909,-6.437227 -1.480269,-1.450979 -0.30765,4.118078 -0.505619,4.404498 -1.047149,1.514759 -0.36743,-1.959999 0.10145,-6.132377 1.042269,-9.271906 0.9406,-3.139539 1.16686,-6.106388 0.50287,-6.593027 -0.6641,-0.48642 -1.119479,-1.86414 -1.012049,-3.061219 0.10748,-1.19703 0.270899,-3.693359 0.363029,-5.547408 0.11736,-2.364659 0.91357,-3.227339 2.666719,-2.889689 1.802609,0.34713 2.914968,2.842249 3.990137,8.950387 z m -5.038507,-6.231418 c 0,0.84513 0.65292,1.13303 1.45099,0.63981 0.798019,-0.493 1.450929,-1.18463 1.450929,-1.536589 0,-0.35207 -0.65291,-0.63981 -1.450929,-0.63981 -0.79807,0 -1.45099,0.69147 -1.45099,1.536589 z m 99.29428,4.992658 c 0.981339,5.230818 3.687208,7.053667 3.769248,2.539159 0.0274,-1.396529 1.072319,-3.844988 2.326488,-5.441018 2.215609,-2.819498 2.251199,-2.798928 1.253729,0.72546 -0.564619,1.995049 -2.019008,5.197048 -3.231878,7.115587 -2.001078,3.165149 -2.335208,3.256009 -3.608247,0.98123 -2.264299,-4.046079 -3.939578,-10.998736 -2.650199,-10.998736 0.65351,0 1.616869,2.285259 2.140859,5.078318 z m -77.235663,1.29201 c -0.34658,2.966518 0.63224,7.642476 2.467758,11.792035 1.672919,3.781868 3.041699,8.368496 3.041699,10.192436 0,2.941618 -5.934627,13.527964 -12.168393,21.7065006 -2.150459,2.8212988 -2.213689,2.7910888 -2.276479,-1.0882296 -0.0384,-2.194549 -0.554309,-3.996068 -1.152879,-4.003298 -0.59852,-0.005 -1.225219,-3.999469 -1.392749,-8.871587 -0.18261,-5.310397 -1.259869,-10.316375 -2.689638,-12.498534 -1.31186,-2.00206 -1.728089,-3.234079 -0.92502,-2.737729 0.80306,0.496299 2.142669,-1.05559 2.976938,-3.448719 0.83421,-2.393119 2.116949,-4.351148 2.850419,-4.351148 0.733469,0 3.061938,-2.611709 5.174386,-5.803778 2.112399,-3.192118 4.026838,-5.803827 4.254308,-5.803827 0.22758,0 0.15519,2.212149 -0.16013,4.915878 z m 101.304348,10.042015 c 0.0164,0.95041 1.220489,3.273179 2.672849,5.161608 2.335318,3.036719 2.422848,4.043009 0.756889,8.705697 -1.036019,2.899669 -1.962529,7.230917 -2.058879,9.624966 -0.0965,2.394109 -0.960779,6.959947 -1.920948,10.1463156 l -1.745809,5.7935276 -5.587817,-9.1985362 c -4.041527,-6.653067 -5.930456,-8.657766 -6.826146,-7.244397 -1.591539,2.511239 -1.633159,4.518238 -0.0735,3.554449 0.66498,-0.41075 1.20909,0.203449 1.20909,1.365319 0,2.586709 -1.855589,2.785719 -2.787199,0.29888 -1.477579,-3.944139 0.0658,-8.769477 4.892137,-15.295154 2.778969,-3.757518 5.912087,-8.945566 6.962416,-11.528975 1.793349,-4.410928 4.435437,-5.222048 4.507117,-1.38376 z m -71.066056,5.294158 c -2.521339,2.464629 -5.209817,4.094499 -5.974497,3.621899 -0.764669,-0.47271 -1.008099,-1.47769 -0.540709,-2.233599 0.467229,-0.7559 1.362309,-1.0574 1.989178,-0.66996 0.62686,0.38771 2.651959,-0.90518 4.500148,-2.872529 1.848178,-1.967289 3.641577,-3.295658 3.985257,-2.951979 0.34384,0.34384 -1.437939,2.641479 -3.959217,5.106168 z m 15.8977199,-2.926268 c 0,3.266438 -2.2803187,5.167097 -3.6127378,3.011208 -0.5012297,-0.811059 -0.15026,-1.474619 0.7804095,-1.474619 0.9305094,0 1.3160292,-0.97942 0.8566995,-2.176449 -0.4595498,-1.19703 -0.2028999,-2.176399 0.5702196,-2.176399 0.7729495,0 1.4054092,1.267329 1.4054092,2.816259 z m 20.8610971,6.638047 c -4.045637,3.225848 -8.662645,3.329878 -7.139326,0.16068 0.43213,-0.8992 1.17437,-2.722099 1.649279,-4.050849 0.71982,-2.014189 1.58863,-2.163129 5.224347,-0.895689 l 4.360968,1.520249 z m -31.640531,1.683339 c -0.492999,1.28493 -1.310709,1.921999 -1.817028,1.415669 -0.50617,-0.506159 -1.901709,-0.110229 -3.100819,0.88055 -1.928198,1.592799 -1.943608,1.38162 -0.13326,-1.826299 3.566668,-6.320918 7.434686,-6.680767 5.051387,-0.46997 z m 12.188363,0.52646 c -2.7712383,1.752599 -7.2127056,1.776999 -7.2127056,0.0384 0,-1.29392 7.23836558,-2.850479 8.66363471,-1.863039 0.37564979,0.26048 -0.27693983,1.080929 -1.45092911,1.823339 z m -23.535926,12.994924 c 0.99752,0.004 1.863649,0.49684 1.924739,1.09514 0.0609,0.59851 0.32959,2.230849 0.59709,3.627379 0.717839,3.749948 -3.683368,3.171338 -8.277125,-1.08822 -4.528607,-4.199138 -5.489557,-4.453148 -5.489557,-1.450939 0,2.260629 -1.715089,2.879548 -3.376328,1.218359 -0.526999,-0.527 0.36468,-1.884759 1.981939,-3.017299 2.598988,-1.820429 3.533058,-1.709329 8.053935,0.95804 6.086966,3.591408 8.566455,4.034898 3.457218,0.61837 -1.973109,-1.31943 -5.319877,-3.992779 -7.437215,-5.940768 l -3.849808,-3.541888 -8.179955,12.421144 c -4.498997,6.8316276 -8.803745,12.80672518 -9.566174,13.27790499 -0.83284,0.51493978 -0.56325,2.41669901 0.675399,4.76452801 3.072028,5.822808 9.535294,14.142164 9.535294,12.273525 0,-0.89607 -0.876269,-2.505489 -1.947278,-3.576499 -3.167498,-3.167558 -5.604487,-8.4166361 -3.907548,-8.4166361 0.82609,0 1.501979,-0.9095596 1.501979,-2.0211992 0,-2.29945901 3.919408,-4.2217882 5.993746,-2.93975875 0.75848,0.46886981 0.98206,2.10318915 0.49684,3.63209855 -0.48533,1.5296793 -0.19961,2.7797888 0.63536,2.7797888 1.030319,0 0.999939,1.1362095 -0.0949,3.5385987 -1.302969,2.859689 -1.148379,4.002478 0.805859,5.956667 1.32996,1.32996 2.064529,3.532079 1.632449,4.893508 -0.481489,1.5169 0.93879,4.406979 3.667798,7.463647 4.291268,4.806588 4.341557,5.014698 1.380789,5.714668 -2.861498,0.67649 -2.703118,1.075449 2.304619,5.804768 2.957518,2.793058 4.848147,4.098938 4.201327,2.901858 -0.685929,-1.269469 -0.633289,-1.680269 0.12613,-0.985779 0.7163,0.654829 1.310649,2.060079 1.320849,3.122808 0.011,1.06272 2.830959,4.935838 6.268377,8.606987 3.437418,3.671138 5.893106,7.252077 5.457026,7.957637 -0.435969,0.705559 0.17933,2.089689 1.367579,3.075858 1.18825,0.98617 2.160489,2.376999 2.160489,3.090789 0,1.786539 -17.908119,-12.433215 -22.437986,-17.816603 -2.023509,-2.404859 -3.679098,-5.301727 -3.679098,-6.437497 0,-1.135829 -1.267329,-2.065129 -2.816258,-2.065129 -1.548979,0 -3.282168,-0.75382 -3.851558,-1.675109 -0.601089,-0.97257 -0.40197,-1.28368 0.4749,-0.74181 1.341749,0.82928 3.828098,-3.905578 3.465338,-6.599277 -0.0768,-0.56983 0.832069,-0.66317 2.019499,-0.20729 3.526207,1.353099 2.467098,-1.54586 -2.197399,-6.014688 -3.180008,-3.046639 -3.865658,-4.485338 -2.539159,-5.327558 1.31087,-0.832349 1.12914,-1.160069 -0.652199,-1.176079 -1.358199,-0.011 -4.584817,-3.123629 -7.170256,-6.914217 -2.585438,-3.7905787 -5.228517,-7.1096573 -5.873536,-7.3756272 -1.671329,-0.6893797 -1.453229,-5.70095764 0.29504,-6.7815572 0.807279,-0.4990398 3.818547,-4.6182181 6.691675,-9.1540666 2.873129,-4.535788 6.787756,-10.331395 8.699115,-12.879104 l 3.475198,-4.632258 5.430817,4.988048 c 2.986918,2.743428 6.246986,4.991117 7.244515,4.994957 z M 73.286851,-7.6176619 73.024721,8.7055614 72.160952,-6.5294323 c -0.47491,-8.3792367 -0.64502,-15.7246537 -0.37729,-16.3231637 1.393839,-3.119518 1.741899,0.4069 1.503629,15.2349341 z M -18.783703,-20.321807 c -0.45736,1.19247 -1.486189,1.76379 -2.285798,1.26958 -0.89393,-0.55251 -0.69569,-1.37888 0.514939,-2.145849 2.641929,-1.67402 2.732469,-1.62922 1.771029,0.876269 z m 53.157218,0.46503 c 0,1.12777 -9.163215,6.072498 -11.253123,6.072498 -1.29783,0 8.734804,-7.090087 10.164903,-7.183587 0.59857,-0.0384 1.08822,0.460649 1.08822,1.111089 z m 35.726418,4.258858 c -0.42774,2.19455 -0.939879,10.5193361 -1.137959,18.4995628 -0.28352,11.4237952 -0.88823,15.0375242 -2.843629,16.9923732 -1.401349,1.400859 -2.160658,3.717808 -1.742509,5.316808 0.50013,1.912839 -0.284059,3.382578 -2.412308,4.521638 -4.701577,2.516239 -8.727635,6.247927 -8.727635,8.089586 0,0.89596 -1.305879,2.810829 -2.901918,4.255229 -2.856998,2.585609 -2.901918,2.534279 -2.901918,-3.316829 0,-3.268679 0.602519,-6.315427 1.338949,-6.770587 0.73644,-0.45517 4.283037,-5.725748 7.881355,-11.712465 6.047976,-10.062366 8.163995,-16.4882936 10.499594,-31.885227 0.905279,-5.967968 1.654379,-7.980227 2.970738,-7.980227 0.41513,0 0.40526,1.795539 -0.0219,3.990138 z m -77.8039026,-0.276939 c 0,1.244139 -0.6529696,1.858549 -1.4509891,1.365329 -0.7980095,-0.493 -1.4509293,-1.511139 -1.4509293,-2.262059 0,-0.75091 0.6529198,-1.36532 1.4509293,-1.36532 0.7980195,0 1.4509891,1.01797 1.4509891,2.26205 z m 7.25470557,0.639859 c 0,0.79802 -0.65290957,1.45094 -1.45092907,1.45094 -0.7980196,0 -1.4509292,-0.65292 -1.4509292,-1.45094 0,-0.798009 0.6529096,-1.450929 1.4509292,-1.450929 0.7980195,0 1.45092907,0.65292 1.45092907,1.450929 z M -20.488532,-7.274502 c 2.943758,1.5182694 4.958647,3.4496486 4.477547,4.2919782 -0.480939,0.8423797 -3.081958,4.907538 -5.779646,9.0337963 l -4.904857,7.5021965 4.628907,14.262045 c 3.021898,9.310786 6.342566,16.358153 9.565184,20.299981 6.6283963,8.107677 4.1630478,8.963276 -4.219537,1.46442 -7.738765,-6.922928 -18.513099,-27.062509 -21.478847,-40.1487539 -0.994729,-4.3891482 -2.521498,-9.28610616 -3.392898,-10.8821455 -2.428648,-4.4483182 -2.430078,-9.0384566 -0.003,-11.0523656 1.773929,-1.472269 2.453329,-1.421979 3.559328,0.26377 1.154469,1.759349 1.602499,1.683179 2.882388,-0.48971 1.448359,-2.459039 1.688329,-2.456349 5.414537,0.0609 2.144479,1.44863 6.307586,3.8761386 9.251344,5.394408 z m -20.291757,0.8111797 c -0.97411,1.5597793 -1.1825,2.8359388 -0.46284,2.8359388 1.302589,0 3.545998,-4.3599182 2.685898,-5.2200178 -0.24842,-0.2484199 -1.248789,0.8243396 -2.222898,2.384079 z M 21.314973,-13.20052 c 0,0.32081 -1.958789,1.2664 -4.352848,2.10099 -2.394048,0.834539 -4.352847,0.943839 -4.352847,0.242939 0,-1.095679 1.419569,-1.604369 7.617475,-2.729718 0.59857,-0.10859 1.08822,0.0647 1.08822,0.386059 z m -30.8629015,1.74405 c -0.4820395,0.48203 -1.7335785,0.53358 -2.7809485,0.11461 -1.157479,-0.46339 -0.813699,-0.80701 0.87661,-0.8766 1.5295087,-0.0631 2.3864782,0.27968 1.9043385,0.76204 z m 40.9264655,2.0828389 c -1.46398,0.9047896 -1.34399,1.9239192 0.570549,4.845908 3.315838,5.06053788 3.249048,11.3226653 -0.11461,10.7578255 C 29.221498,5.7913926 29.150648,6.1862024 30.717287,12.42636 32.334656,18.870497 14.188647,50.459264 6.5083817,54.569662 1.3876849,57.310191 0.69106528,53.828403 5.3970224,49.015025 10.545689,43.748827 19.904514,18.705047 16.191366,20.129927 c -1.172069,0.44968 -2.141029,0.0219 -2.153199,-0.95041 -0.0164,-1.119099 -0.52426,-0.97367 -1.390549,0.39594 -1.006189,1.591479 -1.796419,1.736199 -2.9859382,0.54674 -1.1895093,-1.18951 -0.6155096,-1.86913 2.1688282,-2.567949 l 3.786418,-0.9503 -5.118567,-5.400168 C 4.8827327,5.2791328 4.2357431,3.6271635 7.5310811,3.6271635 c 1.1970193,0 2.2279987,-0.8161097 2.2909486,-1.8136892 0.0916,-1.45092945 0.2610403,-1.45092945 0.8464393,0 0.40252,0.9975795 1.679779,1.8136892 2.838358,1.8136892 1.648959,0 1.773009,0.6232997 0.57099,2.8692888 -1.252799,2.3408591 -1.128589,2.7130489 0.67446,2.0211492 1.727599,-0.6629497 2.209958,0.2944899 2.209958,4.3855285 0,6.106607 2.224549,7.007337 3.308058,1.339389 0.71664,-3.748848 -4.409117,-14.240434 -8.143815,-16.669143 -0.824999,-0.5363298 0.7417,-1.9988792 3.481568,-3.2497087 3.518688,-1.6063393 3.916378,-2.0477391 1.354189,-1.5031393 l -3.627377,0.7710896 3.627377,-2.1855491 c 4.228918,-2.5479885 6.351896,-2.8980285 5.078317,-0.8374496 -1.230209,1.9905992 0.74943,1.7364293 5.060157,-0.6495699 3.679378,-2.036549 7.654266,-1.379529 4.277938,0.7071499 z M 8.9819002,5.0783129 c -0.4929997,0.7980197 0.1595799,1.4509294 1.4509888,1.4509294 1.29118,0 1.944149,-0.6529097 1.450929,-1.4509294 -0.493009,-0.7980097 -1.146139,-1.4509794 -1.450929,-1.4509794 -0.304909,0 -0.9577691,0.6529697 -1.4509888,1.4509794 z M 0.11053563,11.93204 c 0.76242953,16.937203 0.58024965,20.503932 -1.01610938,19.891332 -2.88288825,-1.10627 -9.70031425,1.887119 -9.70031425,4.259178 0,1.13144 -1.090419,2.475539 -2.423168,2.986969 -2.560599,0.982609 -4.787117,-1.33001 -4.787117,-4.972248 0,-1.892939 0.174389,-1.900449 1.340099,-0.0576 1.156119,1.827779 1.716739,1.777989 4.082157,-0.36249 1.508079,-1.364829 3.4128582,-2.481469 4.2328077,-2.481469 1.3743191,0 4.1420474,-22.9158004 2.9158482,-24.1420599 -0.2988698,-0.2988699 -2.9721682,1.8159992 -5.9409859,4.6993179 -5.310667,5.157618 -6.322667,9.141836 -1.12798,4.440708 1.464249,-1.325189 3.590308,-2.401679 4.7244873,-2.392299 1.1341793,0.011 -1.0392593,2.045439 -4.8298373,4.524548 -7.055095,4.614159 -7.900275,6.162538 -5.441076,9.967866 0.978879,1.51471 1.468429,1.62499 1.610129,0.36249 0.11187,-0.997519 0.285169,-2.555059 0.384969,-3.461168 0.0998,-0.9061 1.665029,-2.196359 3.478438,-2.867149 2.8414885,-1.05115 3.1106883,-0.87139 1.948109,1.300949 -2.168009,4.050959 -7.108236,7.931477 -8.781155,6.897547 -2.365538,-1.461959 -1.834088,-6.755787 0.99681,-9.928996 2.450368,-2.746718 2.424978,-2.810718 -0.72547,-1.830139 -1.981169,0.61661 -3.264678,0.4069 -3.264678,-0.53249 0,-0.851809 0.75201,-1.385509 1.671169,-1.185999 0.9191,0.19961 3.226338,-1.922499 5.127177,-4.715608 5.5956067,-8.2220767 7.6972054,-10.3365058 9.2933444,-9.3500562 0.9974094,0.6164397 1.1735593,-0.8356997 0.5226197,-4.3070083 -0.9833194,-5.2415078 1.5342291,-10.9791055 3.7433677,-8.5313564 0.5707097,0.6322897 1.45569914,10.43668566 1.96662883,21.7874309 z M 7.5356811,-9.808341 c -2.3914685,0.3515199 -4.8299471,1.3962595 -5.4188567,2.3217691 -0.6950896,1.0923995 -1.0784693,0.7919897 -1.0928893,-0.8564197 -0.0164,-2.0089694 1.1138893,-2.4937494 5.4188067,-2.3217694 4.9346872,0.19742 5.0364172,0.27693 1.0929393,0.85642 z m -76.7110731,3.0165888 c -1.620759,2.7660189 2.387698,19.2611622 6.958476,28.6348582 4.657367,9.551146 6.675716,18.057993 4.284457,18.057993 -0.493,0 -3.431058,-2.534929 -6.529236,-5.633118 -4.586137,-4.586128 -5.637237,-6.676107 -5.655337,-11.244856 -0.0164,-4.157568 -0.386609,-5.047767 -1.428719,-3.435338 -0.993079,1.536649 -1.413039,-0.42993 -1.428719,-6.689477 -0.0274,-11.7962055 1.507029,-22.4523611 3.095988,-21.4703615 0.70507,0.4359699 1.02149,1.2368895 0.70309,1.7802993 z m 81.05921,0.2626699 c -0.493009,0.7980197 -2.0008083,1.4409594 -3.3502775,1.4287294 -2.1144287,-0.0165 -2.1527087,-0.2166199 -0.2769398,-1.4287294 2.8415383,-1.8363392 4.7622773,-1.8363392 3.6273773,0 z m 33.76576,3.7170985 c -0.48643,0.4864298 -1.666399,-0.6407298 -2.622299,-2.504599 -1.661509,-3.2397887 -1.622579,-3.2786687 0.88428,-0.8842796 1.442269,1.3775494 2.224379,2.9025188 1.738019,3.3888786 z m -56.573036,0.2643299 c -1.228939,1.4014694 -3.271748,4.5068381 -4.539687,6.9009471 -1.267879,2.394049 -3.709368,5.9851278 -5.425447,7.9801768 l -3.120228,3.627378 2.621419,-4.352848 c 1.441719,-2.3940488 3.326098,-5.6586775 4.187397,-7.2547068 3.197338,-5.9248176 7.010506,-10.9493855 7.7490855,-10.2108658 0.4189697,0.4189698 -0.2434899,1.9085092 -1.4725395,3.3099187 z M 38.049493,7.6179119 c -0.54993,2.9925691 -1.52327,5.9826071 -2.163019,6.6445171 -0.6397,0.66196 -0.47875,-1.786549 0.35755,-5.4410176 1.825099,-7.97557675 3.221078,-8.90602637 1.805629,-1.2034995 z m 5.094816,7.5296771 c -4.176977,5.634437 -7.896105,10.244426 -8.264685,10.244426 -0.665189,0 3.907288,-8.766187 5.297727,-10.156636 0.39923,-0.39922 0.77987,-1.86809 0.84639,-3.264619 C 41.36538,4.792333 41.80793,3.8000134 44.892908,3.2918836 51.102165,2.2691841 50.707375,4.945553 43.144309,15.147589 Z M 3.9035833,6.5296823 c 0.8541795,1.5960393 1.2265893,2.9019188 0.8275795,2.9019188 -0.3992297,0 -1.4243391,-1.3058795 -2.2785086,-2.9019188 C 1.5984847,4.933653 1.2260749,3.6277735 1.6250847,3.6277735 c 0.3992198,0 1.4243291,1.3058795 2.2784986,2.9019088 z M 5.3104225,18.500007 c -0.0384,5.050398 -0.3224498,5.687958 -1.5818791,3.522309 -1.4074991,-2.420379 -0.7112095,-9.688846 0.9281495,-9.688846 0.3838697,0 0.6779695,2.774959 0.6537296,6.166537 z m 7.1420755,13.175675 c -1.731329,4.524228 -4.0161374,8.225857 -5.0773768,8.225857 -1.1426893,0 -1.579259,0.912689 -1.0705693,2.238309 0.7490395,1.952049 0.2039998,1.926059 -4.2610474,-0.20345 -4.943407,-2.357369 -5.2997568,-2.330439 -10.3356238,0.781899 -6.0985967,3.769189 -7.4501557,1.10012 -1.8906787,-3.733778 5.6761664,-4.935348 6.6791658,-5.142148 9.98837381,-2.059149 3.51583789,3.275538 5.54899659,3.802928 5.54899659,1.439359 0,-0.845119 0.5844697,-1.175359 1.2988592,-0.7338 1.5592391,0.96363 3.4063884,-3.240328 2.2475787,-5.115327 -0.4485798,-0.72596 -1.756659,-1.31998 -2.9066283,-1.31998 -2.7841783,0 -2.6738983,-2.367669 0.1612199,-3.455518 1.2912393,-0.49574 1.8736389,-0.25226 1.3653292,0.570219 -0.4875197,0.78892 0.1316199,1.43432 1.3755892,1.43432 2.6912787,0 2.7831887,-0.668 0.6423196,-4.668228 -1.3674092,-2.555009 -1.2543793,-2.886289 0.7254691,-2.126549 1.33517,0.512189 2.345249,0.169449 2.345249,-0.79566 0,-1.16413 0.46887,-1.22681 1.495509,-0.20016 1.026759,1.02675 0.50891,4.074038 -1.652299,9.721366 z m 19.019159,-3.381759 c -0.92738,1.73275 -2.012539,2.823999 -2.411549,2.424989 -0.39923,-0.39923 0.0329,-2.143169 0.960559,-3.875918 0.92733,-1.732749 2.012539,-2.823989 2.411549,-2.424979 0.39923,0.39923 -0.0329,2.143159 -0.960559,3.875908 z m -42.077545,0.54785 c 0,0.30106 -1.142619,1.443909 -2.539158,2.539149 -2.301319,1.804759 -2.352589,1.753479 -0.54784,-0.54784 1.895459,-2.416919 3.086948,-3.185538 3.086948,-1.991309 z m 44.717603,9.260886 c 0.31478,2.205569 -0.28297,3.249809 -1.859209,3.249809 -1.277579,0 -2.670158,0.90496 -3.094618,2.011009 C 27.924829,46.576826 2.5502741,72.727525 2.4990542,70.837826 2.4716542,69.897286 3.3212537,68.259137 4.382933,67.197507 5.4445624,66.135878 6.014452,64.370938 5.6493323,63.275529 5.2841025,62.180059 7.0110414,59.247761 9.4868599,56.759222 11.962618,54.270683 17.323955,48.116485 21.400913,43.083247 29.086818,33.594501 33.236545,31.968472 34.111715,38.102659 Z m 10.685003,2.091389 c -0.446389,3.042859 -3.112888,7.115147 -7.728905,11.804546 -6.684326,6.790607 -8.445755,9.667186 -5.919546,9.667186 0.620179,0 3.231888,-1.922 5.803786,-4.271079 l 4.676227,-4.271028 v 3.631219 c 0,2.068309 -0.628889,3.242518 -1.461179,2.728128 -0.803669,-0.496839 -1.839799,0.0834 -2.302478,1.28921 -0.46284,1.205809 -3.099118,3.914468 -5.858727,6.019357 -3.876567,2.956759 -5.468216,3.452939 -6.999536,2.18204 -2.241438,-1.86025 -4.505197,0.358099 -2.943658,2.884698 0.50562,0.81782 0.0548,1.30753 -1.002619,1.08823 -1.056799,-0.21936 -1.766139,0.39374 -1.576179,1.362809 0.19522,0.99554 -0.5638,1.41259 -1.745419,0.95913 -1.589019,-0.60976 -0.69744,-2.564989 3.715348,-8.147597 3.715837,-4.700858 5.303866,-7.847526 4.411027,-8.740416 -1.734669,-1.734609 -4.931127,0.0439 -3.689568,2.052519 1.151019,1.862329 -5.478416,8.902956 -13.8474614,14.706344 l -6.457836,4.478108 2.8304582,-4.832528 c 1.5567691,-2.657939 4.1363975,-5.554428 5.7324362,-6.436727 1.596029,-0.88226 3.365138,-2.252739 3.931298,-3.045549 1.999649,-2.800019 29.407262,-29.753958 30.254792,-29.753958 0.472719,0 0.552729,2.090409 0.177679,4.645358 z m -45.71704174,5.015038 c -0.52535966,0.52481 -0.29942986,1.74432 0.50176969,2.709369 1.00311939,1.20866 0.81364951,2.288049 -0.60886965,3.468629 -1.4339391,1.190059 -2.3569885,1.241659 -3.0200481,0.1689 -0.5253497,-0.84978 -1.5626891,-1.16944 -2.3055886,-0.71033 -0.7429096,0.45901 -1.3506892,-0.29174 -1.3506892,-1.669079 0,-1.37717 0.4041597,-2.099729 0.8982094,-1.60569 0.4940997,0.4941 1.8464789,-0.0494 3.0055082,-1.209139 1.1590793,-1.15903 2.4959985,-2.107299 2.9710082,-2.107299 0.47490971,0 0.43377974,0.42939 -0.0909999,0.954689 z M -48.330585,71.667155 c 0,15.003694 -0.47326,20.339692 -1.850819,20.868282 -1.418409,0.54401 -1.671759,-1.19916 -1.084599,-7.462217 0.42116,-4.494878 0.43816,-13.886344 0.0384,-20.869922 -0.5501,-9.580056 -0.28352,-12.697104 1.084599,-12.695844 1.363849,10e-4 1.813689,5.001488 1.813689,20.159701 z m 20.200888,-12.540534 c 1.005859,1.795539 5.033787,5.723007 8.950884,8.727746 6.689756,5.131558 8.892255,8.320887 5.746357,8.320887 -3.002818,0 -18.296599,-14.196675 -18.522319,-17.193673 -0.30545,-4.052609 1.512129,-3.983729 3.825078,0.14532 z m 27.68477297,0 c 1.89029883,2.332249 2.21587863,3.783628 1.1401493,5.081877 -0.82816949,0.99956 -1.11113932,3.790429 -0.62882961,6.201968 0.76313953,3.815588 0.55117966,4.217238 -1.63305896,3.094409 -1.3804592,-0.70968 -3.383018,-0.97872 -4.4501273,-0.59786 -1.4132592,0.50452 -1.8097989,-0.54982 -1.4602591,-3.882168 0.3054598,-2.913049 -0.3070899,-5.061198 -1.687229,-5.914388 -1.8724793,-1.15765 -1.7941093,-1.692059 0.5764696,-3.931408 1.9710188,-1.86184 2.4664985,-1.97876 1.759619,-0.41513 -0.5512997,1.219399 -0.1661599,1.059929 0.8763794,-0.36249 2.3405286,-3.194539 2.3285186,-3.196129 5.50688667,0.72552 z M 41.62828,75.691574 c 0,7.714267 -0.482579,13.543274 -1.072489,12.953424 -0.58984,-0.589909 -1.161979,-2.820698 -1.271379,-4.957448 -0.10913,-2.136699 -0.39155,-6.496617 -0.62742,-9.688746 -0.39977,-5.413217 0.91521,-12.333024 2.343599,-12.333024 0.34549,0 0.627689,6.311587 0.627689,14.025794 z m -70.257177,-5.804488 c -0.19523,1.32963 -1.802779,2.953139 -3.572488,3.607809 -2.378528,0.879889 -2.950448,0.722389 -2.192788,-0.60384 3.207858,-5.615348 6.392086,-7.274447 5.765276,-3.003969 z m 64.453401,-0.46613 c 0,0.27529 -1.305879,1.68235 -2.901918,3.126759 -3.419268,3.094399 -3.938538,1.969379 -0.62182,-1.347289 2.178259,-2.178319 3.523738,-2.857769 3.523738,-1.77947 z m -80.527701,3.851779 c 0.493,0.798019 0.2051,1.450989 -0.63986,1.450989 -0.845129,0 -1.536539,-0.65297 -1.536539,-1.450989 0,-0.79802 0.2879,-1.45093 0.63981,-1.45093 0.35206,0 1.043359,0.65291 1.536589,1.45093 z m 21.168897,0.56868 c -0.921889,1.110819 -3.123848,2.390599 -4.893227,2.843958 -3.057328,0.78337 -3.036928,0.68466 0.4102,-1.987369 4.222217,-3.272738 6.915256,-3.787348 4.482977,-0.856589 z m -20.271628,7.048797 c 0.0943,1.795589 0.0576,3.864888 -0.0817,4.598468 -0.139839,0.733579 0.7626,0.49026 2.004649,-0.54016 1.387639,-1.15168 2.258269,-1.27934 2.258269,-0.33123 0,0.84863 -0.66355,1.953089 -1.474619,2.454369 -0.81102,0.50123 -1.10359,1.511699 -0.65012,2.245389 0.45352,0.73375 -0.12449,0.96994 -1.284439,0.52481 -2.179579,-0.83635 -4.108048,-12.215995 -2.070229,-12.215995 0.61963,0 1.203879,1.469079 1.298369,3.264619 z m 79.630432,1.813689 c 0,1.995099 -0.56243,3.627378 -1.249779,3.627378 -0.68735,0 -0.93769,-1.632279 -0.55629,-3.627378 0.38113,-1.995049 0.943729,-3.627329 1.249729,-3.627329 0.306,0 0.55634,1.63228 0.55634,3.627329 z m -73.795225,10.556295 c -2.384289,2.972269 -9.281725,10.239374 -15.327671,16.149104 -9.993374,9.76821 -10.992593,10.40549 -10.992593,7.01068 0,-2.05383 -0.43049,-4.9303 -0.95667,-6.39209 -0.526449,-1.46179 -0.521519,-2.27253 0.011,-1.80158 0.53139,0.47107 3.737008,-1.71328 7.123146,-4.8538 8.088595,-7.501705 14.985371,-12.434753 13.574092,-9.709084 -0.5978,1.15447 0.916629,-0.16178 3.365358,-2.924458 2.448728,-2.762949 4.472067,-5.701118 4.496357,-6.529298 0.0219,-0.828179 0.71889,-0.34658 1.543669,1.07029 1.185289,2.036179 0.59111,3.708488 -2.835508,7.980236 z m -13.446802,5.766928 c -1.804809,2.301256 -1.753479,2.352586 0.54784,0.54784 1.396529,-1.09525 2.539158,-2.237869 2.539158,-2.539159 0,-1.19423 -1.191489,-0.42555 -3.086998,1.991319 z m 94.563362,-0.960669 c 12.398673,10.353875 14.442902,12.676975 14.442902,16.412775 0,4.16475 -0.6703,3.70032 -15.600551,-10.80988 C 30.396647,92.403937 26.54695,87.771629 27.007489,85.64322 c 0.3411,-1.57542 0.8619,-2.138449 1.1577,-1.2511 0.295589,0.88735 7.037055,7.040837 14.98065,13.674335 z M -7.7039696,89.233198 c -3.5132074,4.933818 -4.6298974,5.519108 -3.4603984,1.813689 0.60679,-1.922649 0.0987,-1.746509 -2.091838,0.72547 -3.452498,3.895818 -6.886346,4.491808 -4.843047,0.84063 1.223619,-2.186489 9.341494,-7.183147 12.3077422,-7.575577 0.6528596,-0.0861 -0.2078398,1.801739 -1.9124588,4.195788 z m 5.8020265,-2.539159 c -9.9e-4,0.99753 -1.633329,3.710799 -3.6273878,6.029448 -4.5084271,5.242338 -4.6828671,3.905028 -0.3608398,-2.767179 3.6183878,-5.586178 3.9909076,-5.890868 3.9883376,-3.262269 z m 25.6006041,5.995058 c -0.705059,5.998847 -0.415129,8.226023 1.251159,9.608843 1.19296,0.99006 2.168989,2.40886 2.168989,3.15297 0,3.0303 -5.786286,13.74393 -9.101134,16.85132 l -3.546558,3.32456 -0.93094,-6.7917 c -1.500449,-10.94724 -1.143889,-13.63172 2.949299,-22.202515 6.792026,-14.222224 8.528884,-15.172314 7.209185,-3.943478 z m -52.485598,-2.367669 c 0.54784,2.194549 2.406169,6.275337 4.129818,9.068396 2.505208,4.059516 3.035988,6.824886 2.645598,13.784016 -0.26872,4.78816 -0.734629,8.96201 -1.035589,9.27519 -1.305109,1.35831 -5.592097,-3.98004 -9.034235,-11.25 l -3.725047,-7.86749 3.279758,-2.6558 c 1.947448,-1.576946 2.838958,-3.369025 2.194608,-4.411575 -1.455049,-2.354349 -1.845119,-9.932886 -0.5111,-9.932886 0.58326,0 1.50856,1.79554 2.056299,3.990149 z m 38.4943568,2.246199 c 0,2.970469 -0.0384,2.974149 -2.1302787,0.2073 -2.7563183,-3.644109 -2.7729883,-5.113028 -0.0439,-4.066649 1.1970293,0.45955 2.1763987,2.195979 2.1763987,3.859139 z M -23.68664,93.948756 c -0.0164,2.639949 -0.29119,2.848169 -1.428719,1.08822 -1.817969,-2.813019 -1.817969,-4.352848 0,-4.352848 0.79802,0 1.440949,1.469089 1.428719,3.264628 z M 0.41478544,92.359297 c 0.68580956,1.109609 0.39264976,1.277919 -0.86842947,0.49849 -1.41791917,-0.87638 -1.69496897,-0.37839 -1.08586937,1.950789 0.94157946,3.600458 -1.3135592,5.659604 -3.6449277,3.328238 -1.1399394,-1.139939 -0.8398095,-2.398769 1.0768193,-4.516598 3.1062381,-3.432438 3.16952807,-3.450038 4.52240724,-1.261029 z m 6.39071606,2.855359 c 0,0.700299 -0.7617695,1.273309 -1.6927689,1.273309 -0.9310595,0 -1.2631592,-0.42939 -0.7380796,-0.954749 0.5253597,-0.52481 0.1442299,-1.99417 -0.8463795,-3.264619 -1.593569,-2.043799 -1.508569,-2.080489 0.7380696,-0.31862 1.3965391,1.09525 2.5391584,2.564329 2.5391584,3.264629 z m 42.8942635,0.0921 4.261598,4.622708 -4.635327,-3.534479 c -2.549409,-1.943989 -4.671408,-4.024258 -4.715607,-4.622768 -0.13436,-1.823619 0.655769,-1.274789 5.089336,3.534539 z m -3.320178,18.069514 c 8.436825,8.68612 13.023883,14.56777 13.296222,17.04863 0.22867,2.08318 -0.14752,3.78763 -0.835639,3.78763 -0.68829,0 -1.257129,-0.48971 -1.264039,-1.08823 -0.005,-0.59851 -2.133739,-3.37348 -4.726308,-6.16654 -2.592568,-2.79306 -9.218164,-10.46498 -14.723611,-17.04863 -5.505456,-6.5837 -10.499703,-11.970375 -11.098323,-11.970375 -0.598629,0 -0.721789,-1.4019 -0.27365,-3.115349 0.78327,-2.995309 0.92903,-2.953359 3.779838,1.088229 1.630859,2.311959 8.761355,10.171045 15.84557,17.464635 z m -81.01807,-16.525685 c -0.55711,1.795539 -7.620046,11.197305 -15.695481,20.892905 -14.644371,17.58244 -14.687041,17.61825 -16.41315,13.78401 -1.668319,-3.70592 -1.159189,-4.40796 14.146762,-19.50685 8.732574,-8.61444 15.87738,-16.286315 15.87738,-17.048634 0,-0.76237 0.6969,-1.38611 1.548709,-1.38611 0.93896,0 1.149869,1.28548 0.53578,3.264679 z m 48.076881,-0.16781 c 0,1.842429 -3.4472384,6.543995 -8.5108553,11.607565 -4.68094715,4.681 -7.9278552,8.51085 -7.2152856,8.51085 0.7125796,0 3.17221806,-1.95879 5.4658667,-4.35285 2.2936386,-2.39405 4.7010771,-4.35285 5.3497667,-4.35285 0.6487396,0 1.1872593,5.38668 1.1967493,11.97033 0.011,6.58369 0.9341292,15.41492 2.0548692,19.62497 l 2.037658,7.65464 -7.4959452,3.94463 c -4.1227474,2.1696 -7.9856651,4.16607 -8.5841747,4.43664 -0.5985097,0.27036 -1.0881694,-7.99712 -1.0881694,-18.37261 0,-18.55681 -0.6916795,-24.09534 -2.8430782,-22.76571 -0.5983997,0.36962 -2.5571385,-0.89141 -4.3527875,-2.80282 -3.344958,-3.56054 -2.824488,-7.40689 0.8133196,-6.01091 1.1163593,0.42829 2.0296988,0.22594 2.0296988,-0.45023 0,-0.67616 1.9217288,-2.02543 4.2705374,-2.99832 2.4002985,-0.99424 4.5377072,-3.136466 4.880727,-4.891585 0.5901797,-3.020539 0.6166096,-3.014289 0.8077795,0.19084 0.1403799,2.358949 -1.26535921,4.176695 -4.880727,6.309825 -2.7931183,1.64797 -5.0883569,3.74792 -5.1005769,4.66664 -0.011,0.93852 -0.6135996,0.73523 -1.3720192,-0.46394 -0.7424095,-1.17394 -1.8048692,-1.67939 -2.3609882,-1.12326 -0.55612,0.55612 -0.18645,2.0048 0.821489,3.21927 3.9619578,4.7739 15.5559707,-1.45609 20.4074677,-10.965886 3.3467683,-6.560237 3.6686783,-6.787047 3.6686783,-2.584899 z m -20.3572381,2.803589 c 1.5615991,2.526706 -0.2171599,3.061826 -2.2069986,0.663996 -1.1444293,-1.378986 -1.2544993,-2.211495 -0.2922899,-2.211495 0.8486395,0 1.9733288,0.696349 2.4993485,1.547499 z m 9.5555942,5.965446 c -6.8469258,6.11768 -8.6541447,4.94281 -2.17299869,-1.41265 3.08896809,-3.02904 5.87265639,-4.871626 6.18600619,-4.094666 0.3131299,0.776956 -1.492559,3.255246 -4.0130075,5.507316 z m -18.2025591,0.68187 c -0.46832,1.22001 1.311589,4.214 4.253918,7.15639 l 5.0588465,5.05879 v 18.17223 18.17217 l -7.3063655,-4.07377 c -7.300716,-4.07065 -7.305546,-4.07833 -6.252256,-9.8776 0.579709,-3.19213 1.092669,-7.27292 1.139829,-9.06846 0.0494,-1.79555 0.57543,-3.26463 1.173939,-3.26463 1.562969,0 1.34778,-18.53065 -0.22648,-19.50361 -0.723109,-0.44694 -0.975369,-2.11042 -0.560509,-3.6967 0.41458,-1.58627 1.377389,-2.49896 2.139109,-2.02822 0.761709,0.47052 1.022689,1.79982 0.580029,2.95341 z m 49.14076,3.53109 c -0.814529,1.31789 3.767818,7.2472 21.213867,27.44973 7.563346,8.75839 11.429003,15.96046 8.566685,15.96046 -0.668989,0 -2.616588,-1.96647 -4.328007,-4.36996 -1.711359,-2.40343 -3.815538,-3.93486 -4.675797,-3.40314 -0.90435,0.55886 -1.1463,0.29064 -0.57367,-0.63602 0.54455,-0.88154 -4.622107,-8.88387 -11.482083,-17.78299 -7.507955,-9.73968 -12.148653,-17.02445 -11.658723,-18.30121 0.44749,-1.16654 1.482079,-1.70807 2.298799,-1.20333 0.816659,0.50452 1.104179,1.53363 0.638929,2.28646 z m -74.863274,8.94172 c -1.828169,2.59821 -8.858315,11.86508 -15.622491,20.59305 -12.099242,15.61184 -12.316782,15.80104 -13.421191,11.67149 -1.21282,-4.5348 2.164058,-10.17757 5.030556,-8.40599 0.89409,0.55261 1.15951,0.0329 0.65472,-1.28274 -0.55344,-1.44238 1.758909,-4.65101 6.645446,-9.22135 4.121868,-3.85508 6.514876,-6.49761 5.317847,-5.87228 -1.197019,0.62533 0.577839,-1.53928 3.944187,-4.81026 3.366348,-3.27103 6.928856,-7.41209 7.916726,-9.20237 1.549859,-2.80875 1.868968,-2.90806 2.327148,-0.72426 0.2923,1.39193 -0.964779,4.65655 -2.792948,7.25471 z m 8.873774,0.37127 c 0,0.79801 -0.566649,0.55645 -1.259209,-0.53688 -1.016769,-1.60497 -1.562809,-1.4653 -2.835568,0.72547 -1.234419,2.12473 -1.585939,2.22541 -1.620489,0.46448 -0.0675,-3.42991 3.133668,-6.16906 4.568637,-3.90947 0.63065,0.99308 1.146629,2.45854 1.146629,3.25656 z m 63.011242,-3.86917 c 0.4113,0.66497 -0.17438,1.20909 -1.301489,1.20909 -1.126839,0 -1.712519,-0.54401 -1.301499,-1.20909 0.411299,-0.66504 0.996699,-1.20915 1.301499,-1.20915 0.3049,0 0.890469,0.544 1.301489,1.20915 z m -9.969014,11.16209 c -3.883098,3.56509 -7.313285,6.2289 -7.622625,5.9196 -0.3093,-0.30929 2.571018,-3.52297 6.400806,-7.14147 3.829738,-3.61844 7.259915,-6.28224 7.622625,-5.91953 0.36249,0.36248 -2.517658,3.57631 -6.400806,7.1414 z m -42.026104,2.46348 c 0.645449,1.99927 -2.416979,11.14758 -4.712757,14.0785 -0.80279,1.02484 -9.155765,-7.53779 -12.284383,-12.59274 -1.606179,-2.5951 -2.591358,-5.53326 -2.189339,-6.52931 0.44858,-1.1118 0.77515,-0.86377 0.84545,0.64255 0.0631,1.34948 0.870359,2.92068 1.794059,3.49155 1.168899,0.7224 1.420659,-0.0219 0.828129,-2.45355 l -0.851429,-3.4915 2.436548,3.59586 c 3.532188,5.21283 7.260636,8.73723 9.243115,8.73723 0.950579,0 0.460649,-0.95864 -1.08822,-2.13028 -2.746008,-2.07703 -2.734768,-2.13148 0.44803,-2.17645 4.348187,-0.0614 4.150168,-2.60678 -0.36303,-4.66302 -1.995048,-0.90901 -3.627327,-2.17048 -3.627327,-2.80327 0,-2.03737 8.684584,3.70427 9.520764,6.29443 z m -15.324551,0.84107 c 0,2.13022 9.814544,10.71769 10.669044,9.33514 0.461739,-0.74713 -0.75969,-2.21424 -2.714309,-3.26035 -1.954579,-1.04605 -3.935087,-3.10323 -4.401107,-4.57149 -0.83416,-2.62827 -3.553628,-3.77868 -3.553628,-1.5033 z m 70.811877,-3.87542 c -2.012979,5.77449 -12.891232,17.21864 -16.36715,17.21864 -1.878229,0 -1.217529,-0.94817 2.290469,-3.28695 2.711568,-1.80777 7.184515,-6.70473 9.939893,-10.88209 2.755339,-4.17737 5.169847,-7.59521 5.365567,-7.59521 0.19577,0 -0.357,2.04549 -1.228779,4.54561 z m -5.773177,2.92648 c -1.855368,3.31168 -4.702557,6.88949 -6.327106,7.95079 -2.626078,1.71553 -2.953688,1.61095 -2.953688,-0.94285 0,-1.57986 0.76199,-2.87247 1.693269,-2.87247 0.931329,0 3.436378,-2.28525 5.566757,-5.07831 5.217386,-6.8404 6.140106,-6.40987 2.020768,0.94284 z m 38.080657,8.12562 c -0.0559,2.59355 0.55096,4.71555 1.348979,4.71555 1.722499,0 1.722499,-2.52073 0,-6.52925 -1.045009,-2.43183 -1.263489,-2.13801 -1.348979,1.8137 z"
       id="path424" /></g></svg>
