<?xml version="1.0" encoding="UTF-8" standalone="no"?>
<!-- Created with Inkscape (http://www.inkscape.org/) -->

<svg
   width="210mm"
   height="297mm"
   viewBox="0 0 210 297"
   version="1.1"
   id="svg1873"
   xml:space="preserve"
   inkscape:version="1.2.2 (732a01da63, 2022-12-09)"
   sodipodi:docname="Skadi.svg"
   xmlns:inkscape="http://www.inkscape.org/namespaces/inkscape"
   xmlns:sodipodi="http://sodipodi.sourceforge.net/DTD/sodipodi-0.dtd"
   xmlns="http://www.w3.org/2000/svg"
   xmlns:svg="http://www.w3.org/2000/svg"><sodipodi:namedview
     id="namedview1875"
     pagecolor="#ffffff"
     bordercolor="#000000"
     borderopacity="0.25"
     inkscape:showpageshadow="2"
     inkscape:pageopacity="0.0"
     inkscape:pagecheckerboard="0"
     inkscape:deskcolor="#d1d1d1"
     inkscape:document-units="mm"
     showgrid="false"
     inkscape:zoom="1.1893044"
     inkscape:cx="471.7043"
     inkscape:cy="673.50293"
     inkscape:window-width="2560"
     inkscape:window-height="1494"
     inkscape:window-x="-11"
     inkscape:window-y="-11"
     inkscape:window-maximized="1"
     inkscape:current-layer="layer1" /><defs
     id="defs1870" /><g
     inkscape:label="레이어 1"
     inkscape:groupmode="layer"
     id="layer1"><path
       style="fill:#000000;stroke-width:1.48551"
       d="m -70.21877,-153.55607 -4.78123,4.933 0.40481,91.996782 0.40481,91.996846 6.94956,11.523387 c 6.92121,11.476517 6.95383,11.594088 8.01834,28.880028 1.17024,19.003592 4.55446,29.994107 12.74967,41.405777 3.22049,4.48445 4.82794,9.0297 6.01002,16.99432 1.62794,10.96835 7.40153,22.39994 12.25356,24.26183 1.19427,0.45815 6.442851,-2.09944 11.712711,-5.70779 6.95821,-4.76439 11.64124,-6.81583 17.26156,-7.56138 7.69293,-1.02051 7.73105,-1.00507 14.83906,5.99605 5.17525,5.09743 8.076509,6.88235 10.596879,6.51954 5.39158,-0.77615 11.49172,-10.85588 13.78762,-22.78234 1.10101,-5.7192 3.96818,-13.74098 6.37154,-17.82617 6.70067,-11.38978 10.93448,-22.317015 10.75465,-27.757399 -0.16114,-4.881453 -0.17349,-4.872693 -1.37247,1.018141 -1.31886,6.478394 -5.1752,15.227478 -11.74825,26.654138 -2.56731,4.46294 -4.59758,10.64736 -5.17711,15.76956 -0.75185,6.64532 -2.19899,10.09657 -6.84429,16.32271 -6.9668,9.3376 -7.79225,8.35382 -1.37792,-1.64208 3.22987,-5.03328 4.73642,-9.50509 5.29883,-15.72791 0.50418,-5.57732 2.18737,-11.09203 4.69448,-15.37991 9.01869,-15.42415 11.95891,-23.237356 12.90013,-34.280313 0.5171,-6.065334 1.32414,-14.036019 1.79368,-17.712641 0.46937,-3.676682 0.78384,-8.188925 0.69856,-10.027236 -0.0853,-1.838311 0.50587,-3.342392 1.31375,-3.342392 0.80787,0 1.30178,-0.835611 1.09753,-1.856891 -0.20437,-1.021291 0.46432,-1.689811 1.48549,-1.485561 1.02128,0.20437 1.8569,-0.30374 1.8569,-1.129191 0,-0.82528 2.4988,-6.914984 5.55289,-13.532678 4.75753,-10.308746 5.69375,-11.530017 6.53672,-8.526635 0.54124,1.928041 1.05048,-36.500183 1.13189,-85.396042 0.14598,-87.61615 0.10387,-88.96392 -2.92411,-93.21604 L 68.95933,-158.489 H 1.761061 -65.43721 Z m 42.87362,-0.84835 -34.85769,0.42839 -4.13702,3.96353 -4.13707,3.96353 v 86.2001 c 0,82.09571 0.12408,86.076423 2.59964,83.599901 2.27361,-2.274161 2.32021,-2.777001 0.37169,-4.009342 -1.22554,-0.774971 -1.55983,-1.418061 -0.74275,-1.429071 0.81703,-0.0112 1.48549,-3.530812 1.48549,-7.821725 0,-4.2909124 0.66847,-7.9384046 1.4855,-8.1054847 0.81703,-0.1673201 1.26675,1.0594006 0.99944,2.7256317 -0.69867,4.3541926 6.62392,14.152409 15.69499,21.001133 6.04669,4.565303 7.81656,6.810324 7.81656,9.915006 0,2.207351 0.95127,6.973534 2.11399,10.591486 1.16271,3.617963 3.57225,15.93682 5.35447,27.375277 3.37771,21.678243 5.35279,26.629878 14.072731,35.280928 3.98363,3.95219 7.81212,5.62752 5.9408,2.59965 -0.50475,-0.81704 -0.20999,-1.4855 0.6551,-1.4855 0.8652,0 1.57314,1.0027 1.57314,2.22825 0,2.094 2.27265,2.68139 9.65588,2.49572 2.27277,-0.0573 2.3868,0.0977 0.4851,0.65869 -4.16155,1.22779 -7.50058,7.5647 -5.72958,10.87379 2.01062,3.75692 12.62973,3.01491 16.81992,-1.17529 3.44867,-3.44867 2.3878,-5.72464 -3.95494,-8.48491 -2.55731,-1.11286 -3.60532,-2.04959 -2.32897,-2.08154 4.72318,-0.11846 14.40955,-5.99942 18.31524,-11.1201 5.190139,-6.804604 8.755029,-15.383289 7.842559,-18.872551 -0.3947,-1.509131 -0.20156,-3.062792 0.42951,-3.452662 0.63079,-0.389651 0.82483,-2.393262 0.4312,-4.452113 -0.39358,-2.058851 0.43063,-6.158644 1.83135,-9.110656 1.40082,-2.951961 2.88463,-8.803825 3.29742,-13.004118 0.41266,-4.200292 1.34951,-8.762725 2.08164,-10.138856 1.70317,-3.201072 1.69694,-4.584213 -0.0168,-3.525702 -0.74084,0.45758 -0.99714,-0.50531 -0.56948,-2.140601 0.42782,-1.635181 1.43951,-2.973072 2.24862,-2.973072 0.80917,0 1.08641,-1.002701 0.61614,-2.228241 -0.4705,-1.225541 -0.13644,-2.228302 0.74213,-2.228302 2.29157,0 23.3357,-20.710912 24.37664,-23.9906545 1.66953,-5.2602632 3.64316,-2.7002016 3.64316,4.7255925 0,5.127374 -0.67015,7.731395 -2.13443,8.293295 -1.174,0.450291 -1.77093,1.766452 -1.3266,2.924392 0.44411,1.157941 -0.0449,2.105342 -1.08417,2.105342 -1.04059,0 -1.47477,0.41716 -0.96485,0.92718 0.5098,0.5098 -0.54854,2.167551 -2.35205,3.683592 -2.81282,2.364392 -2.96228,2.968802 -1.05098,4.249363 1.49588,1.002251 1.61794,1.500431 0.37168,1.515701 -1.02128,0.0112 -1.87817,1.526821 -1.90411,3.365192 -0.0449,3.307022 -0.0713,3.310952 -2.34901,0.37112 -1.26597,-1.634061 -3.23476,-4.267672 -4.37513,-5.852433 -3.34256,-4.645183 -4.07172,-1.654211 -1.67156,6.856424 2.50739,8.890855 2.16401,20.939043 -1.18731,41.659845 -1.71558,10.607047 -3.65001,16.12923 -9.62798,27.484463 -4.11455,7.81573 -7.48103,15.45127 -7.48103,16.96787 0,1.51661 -0.51654,2.75742 -1.14773,2.75742 -0.63118,0 -2.40768,2.3397 -3.94769,5.19929 -2.93994,5.45919 -5.030059,6.36374 -7.952319,3.44149 -0.96682,-0.96682 -2.23492,-1.28085 -2.81799,-0.69778 -0.58307,0.58307 0.71557,2.83579 2.88582,5.00609 l 3.94595,3.94591 3.402859,-4.27469 c 1.87155,-2.35109 3.83753,-5.65115 4.36889,-7.33338 0.86869,-2.75039 0.98041,-2.68436 1.10859,0.65516 0.15216,3.96937 -4.84338,13.36963 -7.10525,13.36963 -0.74825,0 -4.476579,-3.16076 -8.285149,-7.02391 -6.76288,-6.85978 -7.1395,-7.02468 -16.11586,-7.05618 -8.36566,-0.0281 -9.54499,0.36775 -13.13133,4.4242 -2.1671,2.45114 -6.00537,5.66087 -8.5295,7.13283 l -4.58932,2.67623 -2.612111,-5.64728 c -1.4367,-3.10597 -3.01635,-5.83772 -3.51037,-6.07044 -0.49408,-0.233 -0.56427,-2.17047 -0.15609,-4.30596 0.51149,-2.67454 0.21279,-3.55563 -0.95862,-2.83152 -0.9355,0.57813 -1.70093,0.39919 -1.70093,-0.39807 0,-0.79721 0.83561,-1.80059 1.8569,-2.22977 1.30397,-0.54798 1.0297,-1.29999 -0.92101,-2.52559 -2.24604,-1.41116 -2.3882,-1.99108 -0.74275,-3.02899 1.67959,-1.05935 1.54136,-2.132 -0.79109,-6.13983 -7.5031,-12.89239 -11.1809,-21.906766 -11.98159,-29.3672 -1.51166,-14.084859 -2.48089,-17.872371 -4.29534,-16.78528 -0.93174,0.55808 -0.69132,-0.224591 0.5345,-1.740062 1.61962,-2.002481 1.74387,-2.918161 0.45478,-3.352162 -0.97536,-0.32845 -1.40521,-1.556691 -0.9552,-2.729451 0.45028,-1.172771 0.0393,-2.132292 -0.91388,-2.132292 -0.96812,0 -1.24654,-0.78564 -0.6313,-1.781161 0.60541,-0.97957 1.26293,-4.987503 1.46107,-8.906515 0.19819,-3.918953 1.41638,-9.242316 2.70711,-11.829667 1.29078,-2.587292 2.07732,-4.973703 1.74791,-5.303104 -0.74735,-0.74735 -8.32709,7.321975 -8.32709,8.864966 0,3.666522 -3.01804,-0.10724 -6.45346,-8.069045 -2.98648,-6.921494 -4.39085,-8.776265 -5.67383,-7.493335 -2.05026,2.050312 2.70077,15.65974 8.59721,24.626945 2.06396,3.138812 3.36833,6.091274 2.89862,6.560984 -1.0666,1.066651 -0.53619,1.789191 -8.77412,-11.949317 l -6.93502,-11.565387 v -89.954335 -89.954322 l 4.08031,-4.32315 4.08036,-4.32313 35.65714,0.34248 35.657151,0.34249 z M 48.36414,49.570627 c 0,0.865261 0.66847,1.160021 1.4855,0.655051 0.81702,-0.504751 1.48549,-1.212851 1.48549,-1.573141 0,-0.360451 -0.66847,-0.655101 -1.48549,-0.655101 -0.81703,0 -1.4855,0.707931 -1.4855,1.573191 z M 30.03217,112.37023 c -1.71608,3.18659 -5.00233,6.08447 -8.900499,7.84873 -6.18037,2.79716 -9.3221,7.99624 -4.83199,7.99624 2.38399,0 4.91823,-1.77769 14.045389,-9.85229 4.41707,-3.90767 5.03113,-5.16493 3.8336,-7.84874 -1.36809,-3.06599 -1.53641,-2.99064 -4.1465,1.85606 z m -61.76053,0.61844 c 1.77026,4.70459 11.518391,15.22653 14.106751,15.22653 0.95969,0 2.49285,-0.90126 3.40707,-2.00278 1.26939,-1.52957 0.94453,-2.65225 -1.37489,-4.7513 -1.67038,-1.51166 -4.12506,-2.90816 -5.45486,-3.10332 -1.32975,-0.19539 -4.02007,-2.40224 -5.978421,-4.90458 -4.43363,-5.66514 -6.74856,-5.89365 -4.70565,-0.46432 z m 14.378711,22.6115 c -4.57472,3.59846 -5.59084,3.74119 -5.59084,0.78536 0,-1.22554 -0.66852,-2.2283 -1.48555,-2.2283 -1.65977,0 -1.971711,4.43195 -0.56926,8.08679 0.70917,1.84802 1.38062,2.00225 2.97105,0.68233 1.13009,-0.93791 2.05475,-1.28921 2.05475,-0.7807 0,0.50868 1.25344,-0.32845 2.78537,-1.86066 1.53193,-1.53193 3.70447,-3.1196 4.82789,-3.52812 1.47426,-0.53619 1.59671,-1.21959 0.44018,-2.45653 -1.19876,-1.28213 -2.56736,-0.95475 -5.43359,1.29983 z m 72.104369,-290.0124 c -7.51512,0.26894 -20.21627,0.27006 -28.22473,0.003 -8.008519,-0.26782 -1.85982,-0.48791 13.66382,-0.48903 15.52363,-0.001 22.07602,0.21728 14.56091,0.48678 z m 11.66027,6.77603 c 0.67363,1.20381 1.40004,8.78018 1.61418,16.83649 l 0.38965,14.64784 -17.4433,0.2111 c -12.76173,0.1544 -17.15146,-0.24423 -16.35571,-1.48555 0.59817,-0.93309 1.10084,-7.87996 1.11707,-15.43752 0.0225,-10.07434 -0.46994,-13.74103 -1.84185,-13.74103 -1.38589,0 -1.87127,4.04601 -1.87127,15.59793 v 15.59787 h -6.71308 c -6.572429,0 -6.692469,-0.0853 -5.725709,-4.08515 0.54293,-2.24682 3.06262,-5.86652 5.598989,-8.04372 l 4.61156,-3.95859 -4.87718,-5.07606 c -3.387249,-3.52536 -4.568999,-5.87909 -3.868419,-7.70483 0.77503,-2.01966 0.36326,-2.50447 -1.77683,-2.09231 -2.24256,0.43176 -2.79161,1.88514 -2.81642,7.45448 -0.0337,7.71764 -0.77638,9.12678 -4.12849,7.84043 -2.64012,-1.01309 -4.25318,-12.22668 -1.88238,-13.0857 0.83791,-0.30375 1.05098,-1.06042 0.4733,-1.68172 -2.47803,-2.66584 -5.39293,0.66234 -4.99312,5.70105 0.28915,3.64317 -0.13755,4.95057 -1.45136,4.44644 -3.10607,-1.19191 -4.32942,2.74299 -1.49672,4.81431 1.43216,1.04727 2.16334,2.61704 1.62479,3.48842 -0.53843,0.87143 -0.38852,1.58437 0.33407,1.58437 0.72231,0 1.2631,2.33772 1.20179,5.1949 l -0.11173,5.19492 -36.098951,0.004 -36.09895,0.004 0.27174,-13.42089 c 0.14935,-7.38155 -0.15721,-13.84961 -0.6811,-14.37356 -0.52384,-0.52384 0.36045,-2.35059 1.96576,-4.05915 2.8806,-3.06627 3.74147,-3.10305 66.361651,-2.83433 54.142779,0.23245 63.622709,0.59307 64.668019,2.46086 z m -88.795819,3.2009 c -0.5098,1.32919 -0.53788,4.81812 -0.0612,7.75312 l 0.86599,5.3364 -3.64732,-3.42645 c -2.006021,-1.88457 -4.120511,-2.9533 -4.698861,-2.37495 -1.87885,1.87885 -1.80165,20.45889 0.0825,19.81092 1.02376,-0.35204 1.60868,-3.63138 1.47005,-8.24193 -0.24647,-8.20424 0.85987,-9.6898 3.220391,-4.32336 0.80647,1.83354 2.49179,3.52593 3.74507,3.7609 1.79513,0.33631 2.35232,-1.33312 2.6258,-7.86879 0.1909,-4.56276 0.5025,-9.01268 0.69233,-9.88866 0.57431,-2.64967 -3.29787,-3.13403 -4.29439,-0.53731 z m 9.11728,12.25722 c 0.18865,12.24228 0.61322,14.61611 2.68521,15.01795 2.02218,0.39189 2.30853,-0.40256 1.6057,-4.45655 -0.4705,-2.71362 -1.11078,-5.76939 -1.42295,-6.79067 -0.87149,-2.85118 0.79367,-2.21359 3.87959,1.48549 1.53355,1.83831 2.81058,4.90222 2.83775,6.80858 0.0623,4.36178 3.57635,3.51466 4.24314,-1.02285 0.32059,-2.18237 -1.31207,-5.05803 -4.92092,-8.66694 -4.51319,-4.51315 -5.32567,-6.27364 -4.94338,-10.71098 0.33463,-3.88324 -0.16675,-5.43027 -1.86543,-5.75743 -1.99108,-0.38347 -2.29084,1.62962 -2.09871,14.0934 z m 36.621159,-0.46881 c 0.2723,1.54927 -0.34024,3.10905 -1.361359,3.46619 -1.24031,0.43344 -1.8569,-0.9703 -1.8569,-4.2282 0,-5.055 2.2904,-4.51275 3.218259,0.76201 z m -9.040479,5.28923 c 3.20192,-1.71356 3.76483,-0.12127 1.47416,4.16947 -0.7574,1.41874 -1.73916,3.74933 -2.18164,5.17913 -0.44243,1.42981 -1.91013,2.59965 -3.26138,2.59965 -2.11774,0 -2.17546,-0.3408 -0.41772,-2.46984 1.38516,-1.67802 1.51273,-2.64714 0.39751,-3.02287 -0.92988,-0.31329 -1.30616,-2.30084 -0.86829,-4.58635 0.42502,-2.2183 1.0502,-3.20303 1.38943,-2.18826 0.44917,1.34423 1.39067,1.43081 3.46793,0.3189 z m -65.111001,15.87276 c 3.06385,0.50643 5.57068,1.64073 5.57068,2.5207 0,0.87991 -2.46337,4.12259 -5.47417,7.20592 -7.75626,7.94312 -5.58108,8.19191 2.96998,0.33968 3.93102,-3.60981 7.77383,-6.56322 8.53954,-6.56322 0.76571,0 1.39218,-1.0027 1.39218,-2.2283 0,-1.55394 1.46102,-2.18344 4.82794,-2.08019 4.57428,0.14037 4.63284,0.21055 1.11415,1.33744 -3.31443,1.06149 -3.11472,1.20533 1.8569,1.33744 3.06385,0.0814 5.570631,-0.52047 5.570631,-1.33744 0,-0.81703 1.04217,-1.48549 2.31594,-1.48549 1.27377,0 1.8875,0.69322 1.36388,1.54051 -0.63483,1.02718 1.56354,1.25294 6.59714,0.6774 4.15207,-0.47499 7.5492,-0.26725 7.5492,0.46039 0,0.72804 -5.41141,4.23628 -12.02539,7.79612 -9.996401,5.380368 -13.100291,7.987759 -18.395921,15.453644 -3.50381,4.939723 -6.86663,11.320987 -7.47295,14.180589 -0.60626,2.859591 -1.85392,5.700663 -2.77257,6.313433 -1.19702,0.798451 -1.10825,1.476791 0.31329,2.394152 1.55573,1.004001 1.64343,2.511391 0.40706,6.990384 -0.86723,3.140722 -1.07777,6.074204 -0.4677,6.518934 2.41639,1.762181 10.96537,20.724793 10.02751,22.242234 -1.51149,2.445691 0.57751,7.533874 3.09316,7.533874 1.2681,0 1.77235,0.717531 1.179,1.677561 -2.17535,3.519813 -17.45161,-16.010869 -27.40506,-35.037321 -6.2546,-11.956047 -7.36779,-15.317249 -7.26853,-21.946453 0.0646,-4.305513 0.46376,-6.964665 0.88727,-5.909244 0.93729,2.335931 4.93753,-0.42222 4.93753,-3.404432 0,-1.025441 1.0027,-2.696672 2.2283,-3.713802 1.22554,-1.017071 2.22824,-2.560952 2.22824,-3.430822 0,-0.869861 -1.87492,0.21448 -4.16643,2.410161 -2.29158,2.195451 -4.63127,3.991712 -5.19929,3.991712 -0.56808,0 -1.03285,-5.189353 -1.03285,-11.531877 0,-10.478137 0.30543,-11.683127 3.34239,-13.187207 4.15279,-2.05672 6.32927,-2.23038 13.36962,-1.06671 z m -13.4439,3.8002 c -1.03622,1.03622 -1.76055,5.85669 -1.72995,11.512728 0.0505,9.138286 0.17966,9.504236 2.13824,6.016314 1.1471,-2.042561 1.70917,-5.258803 1.24901,-7.147195 -0.64259,-2.637041 -0.105,-3.624747 2.31824,-4.258407 1.73523,-0.45366 3.15492,-1.45501 3.15492,-2.22493 0,-0.76998 -0.77177,-0.92298 -1.71502,-0.34024 -0.9593,0.59289 -1.31543,0.41323 -0.80815,-0.40762 0.49857,-0.80703 3.03668,-1.15474 5.6398,-0.77267 3.25789,0.47836 4.41168,0.17461 3.70206,-0.97345 -0.65836,-1.06525 -0.19763,-1.34839 1.2745,-0.7834 1.26798,0.48679 2.30538,0.14486 2.30538,-0.75975 0,-2.25441 -15.25672,-2.13415 -17.52903,0.13811 z m 81.406131,-3.2159 c 0,1.06003 0.89266,1.06003 2.87336,0 3.697839,-1.97901 4.985759,-1.95234 3.731359,0.0775 -0.64264,1.03982 0.51654,1.51284 3.25475,1.32812 14.48815,-0.9776 15.49208,-0.49857 26.79364,12.791448 15.80448,18.584911 17.72437,22.684984 14.03129,29.965078 -0.71967,1.418801 -2.84836,5.921944 -4.73036,10.007086 -1.88205,4.085193 -5.76079,11.096407 -8.61938,15.58046 -5.72969,8.987705 -5.9079,9.232835 -11.3517,15.615329 -3.69885,4.336673 -3.78981,4.360363 -3.37933,0.880871 0.23188,-1.966611 -0.41379,-3.860673 -1.43508,-4.208943 -1.02128,-0.3481 -1.85689,0.13868 -1.85689,1.082141 0,0.94347 -1.0027,2.718172 -2.22824,3.943712 -1.9807,1.980641 -2.2283,1.890141 -2.2283,-0.81467 0,-1.673581 1.60362,-4.093563 3.56354,-5.377834 3.48057,-2.280511 7.33023,-9.367235 7.33023,-13.494038 0,-1.1361 0.4458,-2.065651 0.99035,-2.065651 1.18051,0 1.26855,-0.57964 2.23369,-14.706619 0.64488,-9.438766 0.25153,-12.063907 -2.78363,-18.568971 -4.23887,-9.085276 -13.16138,-18.288462 -22.543999,-23.253069 -3.77797,-1.99906 -8.29385,-4.43695 -10.03537,-5.41753 -4.46445,-2.51379 -5.09457,-1.0502 -1.29095,2.99862 3.93355,4.18705 3.96622,7.244557 0.31778,29.752181 -3.20668,19.782612 -2.6404,23.330384 4.29653,26.917627 2.46865,1.27658 6.00694,4.980103 7.86277,8.230025 3.172879,5.556253 5.602569,7.565474 5.602569,4.633062 0,-0.71434 2.41465,-3.889642 5.36587,-7.056194 4.99835,-5.363003 5.21024,-5.452113 3.0935,-1.300891 -1.24985,2.451142 -4.98442,7.082415 -8.29907,10.291737 -5.583209,5.405853 -6.220679,5.662153 -8.664129,3.483262 -1.45063,-1.293531 -5.6457,-3.012142 -9.32232,-3.819173 -6.08274,-1.33514 -6.24999,-1.48163 -1.8569,-1.626371 3.23044,-0.10667 4.82794,-0.89642 4.82794,-2.387361 0,-1.225541 0.70794,-2.228291 1.5732,-2.228291 2.59324,0 0.15271,-2.662872 -6.86692,-7.492495 l -6.62768,-4.559963 -6.73481,5.518704 c -3.97391,3.256322 -6.4022,6.335723 -5.92345,7.511744 0.44636,1.096191 1.21718,2.995752 1.71311,4.221293 0.62754,1.550851 -0.0281,2.228301 -2.15441,2.228301 -1.68088,0 -3.7193,1.169851 -4.52975,2.599642 -1.30449,2.301231 -2.33223,1.757241 -8.95267,-4.738333 -4.113491,-4.035903 -7.130681,-7.686475 -6.704821,-8.112285 0.42614,-0.42614 2.32498,1.170471 4.22028,3.547382 l 3.445981,4.321683 3.9391,-4.250373 c 2.42851,-2.620422 3.62216,-5.248983 3.11264,-6.854344 -0.45477,-1.432221 -0.13081,-3.033932 0.71951,-3.559452 0.85026,-0.525521 1.5459,-0.2476 1.5459,0.61776 0,2.687742 2.94011,1.739161 6.90813,-2.228851 3.52807,-3.528072 3.73193,-4.464683 2.82883,-12.998288 -0.53506,-5.057853 -1.58201,-9.410306 -2.32605,-9.671996 -0.74403,-0.26164 -0.96109,-2.434302 -0.48228,-4.827943 0.52215,-2.610712 0.24367,-4.352063 -0.69565,-4.352063 -1.00421,0 -1.34238,-3.580332 -0.94256,-9.979396 0.50137,-8.0257 1.31582,-10.67162 4.15964,-13.51549 2.06845,-2.06845 4.69471,-3.26429 6.32753,-2.88127 2.38646,0.55977 2.21718,0.89187 -1.16665,2.28899 -4.06885,1.67998 -6.63447,6.51456 -4.92502,9.280497 0.53058,0.858351 4.08312,1.365681 7.89483,1.127461 5.79864,-0.3627 7.00475,-0.955541 7.38621,-3.632158 0.28016,-1.96627 -0.78362,-4.06718 -2.76067,-5.45195 -4.16649,-2.91832 -2.31886,-5.93221 3.14498,-5.13028 2.31117,0.33912 3.86376,0.0691 3.45019,-0.59997 -0.41379,-0.6692 0.29027,-1.21673 1.56399,-1.21673 1.27377,0 2.31594,0.69199 2.31594,1.53777 z m 42.587399,0.13475 c -1.49645,0.87003 -4.00255,1.24671 -5.56918,0.83702 -4.02551,-1.05267 -5.10136,1.61137 -2.02398,5.01187 1.4467,1.59857 1.85673,2.87745 0.92252,2.87745 -2.3421,0 -6.67136,-6.95911 -5.50415,-8.84772 0.5272,-0.85296 4.09434,-1.53053 7.927,-1.50565 5.65406,0.0393 6.45531,0.34361 4.24779,1.62709 z m 8.10952,0.92741 c 1.8478,2.35614 1.79525,2.40864 -0.56089,0.56089 -1.42985,-1.12133 -2.5997,-2.29118 -2.5997,-2.59964 0,-1.22268 1.21993,-0.43569 3.16054,2.03875 z m 2.02101,7.42759 c -0.27343,1.4298 -0.54854,5.774888 -0.61131,9.65583 -0.0662,4.099963 -0.8026,7.056184 -1.75813,7.056184 -0.90445,0 -1.2388,-1.05704 -0.74303,-2.348951 0.49576,-1.291961 -0.10106,-3.780382 -1.32661,-5.529873 -2.70822,-3.866513 -2.90883,-8.45348 -0.37112,-8.48459 1.23795,-0.0168 1.11415,-0.5025 -0.37112,-1.46275 -1.74618,-1.12847 -1.37286,-1.44496 1.72546,-1.46276 2.97082,-0.0168 3.83002,0.6235 3.45609,2.57691 z m -4.5133,13.488373 c -0.59121,0.54742 -1.38163,0.13475 -1.75645,-0.916401 -0.37449,-1.051491 -2.36771,-4.059653 -4.42875,-6.684844 -2.99227,-3.811368 -2.63838,-3.626768 1.75645,0.9164 3.02702,3.129212 5.01996,6.137374 4.42875,6.684845 z m -46.719129,3.392752 c 0,2.544121 1.39858,7.114074 3.10793,10.155416 3.275519,5.828063 13.464669,13.443688 17.986619,13.443688 1.4705,0 2.67364,0.63702 2.67364,1.415651 0,1.172371 -2.78352,8.490585 -3.88565,10.215766 -0.87447,1.368821 -7.99842,-4.893013 -7.99842,-7.030414 0,-4.441163 -7.900439,-12.399938 -12.309029,-12.399938 -3.8121,0 -5.0697,-1.971831 -4.02652,-6.313444 0.19651,-0.81703 0.55865,-4.159422 0.80501,-7.427584 0.54573,-7.233895 0.36775,-6.684784 2.16092,-6.684784 0.81703,0 1.4855,2.081531 1.4855,4.625643 z m -31.19578,5.030183 c 0,4.493712 0.16732,8.671715 0.37112,9.284485 0.20437,0.612771 -1.29982,1.338061 -3.34244,1.611821 -4.45912,0.597561 -11.884071,7.259385 -11.884071,10.662637 0,1.338781 -1.70643,4.037242 -3.79206,5.996553 -3.19748,3.003892 -4.00906,3.219212 -5.17655,1.373091 -0.7615,-1.20409 -1.39476,-2.805191 -1.40722,-3.557882 -0.0112,-0.75268 -0.99911,-2.447371 -2.19248,-3.766002 -1.94123,-2.145091 -1.76016,-2.431382 1.72035,-2.719402 6.20749,-0.51374 19.596931,-11.712107 19.711581,-16.48598 0.0281,-1.131781 -1.316,-0.32115 -2.98582,1.801481 -1.66937,2.122242 -5.178901,5.327303 -7.798931,7.122215 -4.16722,2.854881 -3.92669,2.353951 1.92113,-4.001153 3.676621,-3.995582 7.229341,-7.514774 7.894941,-7.820435 0.66555,-0.30543 1.81888,-2.156881 2.56287,-4.113772 2.32666,-6.119514 4.3973,-3.947583 4.3973,4.612343 z m 85.594189,2.973121 c 0.0977,2.858482 -0.40368,5.197214 -1.11409,5.197214 -0.71024,0 -1.29134,-2.339692 -1.29134,-5.199284 0,-6.778884 2.17434,-6.776984 2.40543,0.001 z m -39.5433,7.731565 c 0,1.681271 -3.33739,-0.29869 -7.25129,-4.301862 -6.760689,-6.914985 -5.672919,-8.381776 1.30926,-1.765442 3.26811,3.096872 5.94203,5.827174 5.94203,6.067304 z m 4.64603,-5.876743 c 1.8478,2.356091 1.79525,2.408641 -0.56089,0.56089 -1.4298,-1.121331 -2.59964,-2.291181 -2.59964,-2.599642 0,-1.22262 1.21987,-0.43569 3.16048,2.038812 z m 5.80156,10.027176 c 2.01584,2.748261 1.98435,2.818161 -0.42053,0.9323 -1.4298,-1.12134 -2.59964,-2.736861 -2.59964,-3.589992 0,-0.85319 0.18921,-1.272711 0.42053,-0.9323 0.23132,0.34024 1.40105,1.955941 2.59964,3.589992 z m -53.035489,1.591281 c -0.3335,0.87519 -2.50026,1.313241 -4.81547,0.97339 -4.13623,-0.60705 -5.38575,0.20324 -9.79226,6.348414 -1.94134,2.707392 -2.13459,2.734392 -2.17766,0.30375 -0.082,-4.635422 6.17774,-9.479535 12.07154,-9.341535 3.12685,0.073 5.07004,0.78054 4.71385,1.715811 z m 34.739619,2.691491 c 1.81119,2.382082 2.85864,5.033893 2.32768,5.893024 -0.60587,0.980301 -1.21499,0.75942 -1.63563,-0.59306 -0.36888,-1.185341 -1.4161,-3.095242 -2.32768,-4.244263 -1.342039,-1.691601 -1.798729,-1.305321 -2.400159,2.029831 l -0.74274,4.118993 -3.7138,-3.094562 -3.71379,-3.094572 3.34239,-0.0505 c 1.83832,-0.0281 3.34239,-0.801471 3.34239,-1.720631 0,-1.064631 -1.61754,-1.347661 -4.45654,-0.779861 -2.45108,0.490151 -4.45653,0.350911 -4.45653,-0.30936 0,-5.097443 10.14165,-3.801832 14.434409,1.843981 z m 47.95714,5.548404 c 0,2.451141 -0.6057,4.082222 -1.34603,3.624692 -0.74034,-0.45758 -0.98361,-2.335371 -0.54068,-4.172843 1.23312,-5.115063 -1.61856,-1.687051 -7.10666,8.543146 -5.87578,10.952796 -9.83302,16.44162 -21.19286,29.395208 -8.27353,9.4342853 -20.891249,18.80917107 -22.777109,16.9232399 -0.45983,-0.4598303 1.54658,-1.8318011 4.458899,-3.0486418 9.53904,-3.9857025 27.61903,-24.9246251 37.79965,-43.7768571 7.90673,-14.641489 10.70479,-16.59877 10.70479,-7.487944 z m -86.159749,-3.198602 c 0,1.746681 -5.87926,5.066733 -6.99554,3.950502 -0.43962,-0.43962 -0.40313,-1.830621 0.0803,-3.091422 0.95065,-2.477191 6.91497,-3.218202 6.91497,-0.85908 z m -49.074201,8.867715 c 2.40527,4.494273 1.82175,5.266723 -1.65056,2.184792 l -3.18827,-2.829902 0.85812,6.607584 c 0.55416,4.268912 0.37674,5.846253 -0.5025,4.456543 -1.58234,-2.501162 -1.86481,-10.853247 -0.41604,-12.302078 1.70755,-1.707551 3.30674,-1.092921 4.89942,1.883061 z m 94.19937,0.899111 c 0.48285,1.257891 0.059,3.597522 -0.94117,5.199293 -1.97413,3.161102 -2.09237,3.194512 -5.92648,1.676281 -2.36035,-0.934651 -2.30752,-1.206231 0.58672,-3.013722 2.80418,-1.751231 3.06947,-1.696041 2.23975,0.46601 -0.55191,1.437991 -0.3335,2.077102 0.52721,1.544951 1.42996,-0.88373 2.11235,-5.188793 0.82247,-5.188793 -0.3554,0 -2.3288,0.639781 -4.38546,1.421721 -2.979189,1.132731 -3.577129,0.998881 -2.941229,-0.65819 0.738759,-1.925062 3.275629,-3.139322 7.442409,-3.562203 0.93392,-0.0949 2.09293,0.856831 2.57561,2.114652 z m -60.72303,0.68402 c -0.50474,0.817031 -1.58661,1.485551 -2.40364,1.485551 -0.81702,0 -1.07237,-0.66852 -0.5674,-1.485551 0.50475,-0.81702 1.58656,-1.485491 2.40358,-1.485491 0.81703,0 1.07238,0.668471 0.56746,1.485491 z m 101.29615,5.570694 c -0.37337,1.4298 -0.67936,0.25996 -0.67936,-2.599642 0,-2.859602 0.30599,-4.029442 0.67936,-2.599642 0.37393,1.429791 0.37393,3.769483 0,5.199284 z m -96.359339,-0.619671 c 0.27231,1.404141 -0.46264,2.476572 -1.69795,2.476572 -2.349911,0 -4.362381,-3.580672 -2.858021,-5.085033 1.502791,-1.502791 4.040441,-0.0505 4.555971,2.608461 z m 32.00932,2.767182 c 0.87514,0.56836 1.18871,1.435801 0.69688,1.927641 -1.44496,1.444951 -5.83059,-3.783422 -4.70341,-5.607243 0.70243,-1.136551 1.24822,-0.980861 1.72192,0.49127 0.38123,1.185341 1.40953,2.620142 2.28461,3.188502 z m -6.49315,1.937631 c 0,2.859652 -0.55247,5.199343 -1.22824,5.199343 -0.67549,0 -0.93387,-2.005451 -0.57414,-4.456542 0.72624,-4.948264 -0.27231,-5.564854 -3.60914,-2.228292 -1.22554,1.225541 -3.35036,2.213412 -4.72177,2.195221 -1.93073,-0.0281 -1.65533,-0.68868 1.22021,-2.937971 5.92086,-4.631383 8.91308,-3.883303 8.91308,2.228241 z m 64.406939,1.856901 c -6.70336,11.673637 -12.6742,20.040542 -19.61175,27.482057 -6.94889,7.4535845 -9.14288,8.57429523 -9.14288,4.6702828 0,-2.3298614 4.81183,-6.9417038 11.01769,-10.5597168 1.7021,-0.99237 2.28006,-1.827981 1.28444,-1.856901 -2.96038,-0.0859 -0.34586,-4.509202 2.66533,-4.509202 1.73231,0 2.47349,-0.760881 1.9839,-2.036732 -0.79586,-2.074011 2.96897,-6.876354 5.39085,-6.876354 0.73304,0 0.94802,-1.002701 0.4778,-2.228241 -0.4705,-1.225541 -0.1151,-2.228302 0.7894,-2.228302 0.90445,0 1.64445,-1.35849 1.64445,-3.018882 0,-2.431041 3.052,-4.917663 7.11884,-5.800043 0.23861,-0.0505 -1.38938,3.081152 -3.61796,6.962034 z m -122.51292,-0.74275 3.35879,4.827943 -3.51852,-3.815023 c -1.93522,-2.098271 -4.32365,-3.546592 -5.30771,-3.218592 -0.984,0.327891 -1.78912,-0.12801 -1.78912,-1.01292 0,-3.247062 3.98946,-1.477521 7.25656,3.218592 z m 21.90551,-0.618951 c 1.21903,3.229602 1.15491,4.208943 -0.27567,4.208943 -1.04526,0 -1.4892,-0.977101 -1.01056,-2.224371 0.61524,-1.603281 0.26444,-1.882442 -1.2558,-0.999781 -1.16014,0.67358 -1.61373,0.67762 -1.00809,0.0112 0.60569,-0.66858 0.35652,-2.112691 -0.55304,-3.209162 -1.25041,-1.506601 -1.14542,-1.993491 0.43008,-1.993491 1.14649,0 2.79941,1.894001 3.6732,4.208932 z m 73.33833,-2.224481 c 0,1.988451 -10.16063,16.14855 -12.25547,17.0796 -0.61282,0.272311 -1.11415,1.442211 -1.11415,2.599652 0,2.471632 -2.3672,2.797832 -3.774869,0.5199 -0.53844,-0.87137 1.396219,-3.959702 4.299499,-6.862984 2.90327,-2.903282 6.81397,-7.533654 8.69046,-10.289606 3.82395,-5.616334 4.15453,-5.858774 4.15453,-3.046782 z m 33.94421,7.299974 c -0.15777,4.479563 -0.40313,5.119504 -0.84387,2.203092 -0.89692,-5.933904 -3.39011,-3.435372 -3.39011,3.397412 0,3.971162 -0.98002,6.709544 -3.1122,8.695965 -2.05947,1.918721 -2.79767,3.890493 -2.18231,5.829244 0.67077,2.113431 -0.3015,3.9660622 -3.49022,6.6490238 -2.4311,2.0456013 -4.11883,4.0205125 -3.75063,4.3887727 0.36832,0.3683102 -0.82719,1.9466212 -2.6564,3.5075722 -2.69229,2.2974114 -2.94236,2.3428314 -1.31274,0.2386201 1.29286,-1.66948102 1.42671,-2.5996416 0.37393,-2.5996416 -0.90153,0 -2.0474,1.626701 -2.54642,3.6148622 -0.5838,2.3261014 -1.65915,3.326392 -3.01618,2.8056417 -1.42334,-0.5462903 -1.82905,-0.0803 -1.248,1.4341809 0.4733,1.2338508 0.0449,2.7485417 -0.95543,3.365912 -1.15497,0.713841 -1.43423,0.50419 -0.76689,-0.5754903 0.67436,-1.0911307 0.24199,-1.3882508 -1.20903,-0.8313405 -1.24211,0.4766703 -2.11247,1.5552808 -1.93404,2.3969618 0.17854,0.84162 -0.51093,1.836681 -1.53249,2.211111 -1.02129,0.37449 -1.8569,-0.34417 -1.8569,-1.597391 0,-1.252991 -1.14991,-2.9217517 -2.5554,-3.7083422 -2.19006,-1.2256008 -0.74039,-3.200962 10.13812,-13.8148085 6.98145,-6.8115643 14.59308,-15.7271193 16.91463,-19.8123123 3.80217,-6.690404 9.41435,-14.112368 10.67116,-14.112368 0.26613,0 0.38348,2.841061 0.26108,6.313433 z m -75.538609,-2.772911 c 0,1.13026 -1.33694,2.404651 -2.97099,2.831972 -1.63406,0.42727 -2.97105,0.17125 -2.97105,-0.569481 0,-0.74056 1.0027,-1.346481 2.2283,-1.346481 1.22554,0 2.22824,-0.66846 2.22824,-1.485491 0,-0.81703 0.33407,-1.4855 0.74275,-1.4855 0.40874,0 0.74275,0.92472 0.74275,2.054981 z m -59.918741,1.338451 c 0.95149,0.59486 2.11516,0.24199 2.58588,-0.784521 0.4705,-1.026391 0.4924,-0.39246 0.0505,1.408521 -0.45197,1.832251 0.28354,4.940403 1.67011,7.056184 1.43479,2.189782 1.79867,3.781513 0.86452,3.781513 -0.88726,0 -2.94516,-2.841072 -4.57315,-6.313444 -2.36827,-5.051403 -2.97077,-5.608754 -3.01422,-2.788292 -0.0713,4.651763 10.86188,19.782272 21.30644,29.485548 8.7114,8.093085 9.5894,10.0340862 6.46901,14.301529 -1.73803,2.376861 -2.36428,2.201291 -8.26033,-2.3157216 -12.27832,-9.40659578 -23.74832,-27.6732874 -23.12381,-36.8261624 0.19539,-2.859602 0.40649,-5.975724 0.46938,-6.924754 0.12127,-1.832921 2.69553,-1.870152 5.55816,-0.0803 z m 34.63153,3.095971 c -0.14092,0.668691 1.553101,3.104442 3.764661,5.412814 2.21151,2.308361 3.57427,4.919793 3.02826,5.803243 -1.71805,2.779812 -4.03197,1.742921 -3.04561,-1.36484 1.59571,-5.027654 -0.29981,-3.309553 -4.356711,3.949492 -3.73861,6.689164 -3.77701,7.005204 -1.14756,9.4548857 1.49622,1.3939208 4.182331,3.316852 5.969211,4.2731126 1.78683,0.9563306 3.2488,2.4477815 3.2488,3.31432203 0,0.86655053 -3.17525,-0.80580053 -7.056181,-3.71632223 -3.88088,-2.9105218 -6.87248,-6.0324241 -6.64801,-6.9375441 0.22458,-0.905121 -0.20156,-1.268781 -0.947,-0.808101 -0.74539,0.460391 -4.55974,-2.913441 -8.47644,-7.497944 -3.91664,-4.584493 -5.83019,-7.515065 -4.25228,-6.512364 1.57796,1.0027 4.75321,4.499833 7.05612,7.771425 l 4.18721,5.948383 3.61172,-3.393092 c 1.98648,-1.866221 3.61178,-4.239823 3.61178,-5.274753 0,-2.891822 -3.1442,-4.174123 -4.59988,-1.875931 -0.91326,1.441871 -1.30336,0.77796 -1.31941,-2.245592 -0.0112,-2.369501 1.14194,-5.175533 2.5769,-6.263123 2.73619,-2.073852 5.22781,-2.093672 4.79442,-0.0393 z m -2.91478,3.355923 c 0.0449,2.555341 2.56837,5.340833 3.48898,3.851182 0.50138,-0.811691 -0.0831,-2.301852 -1.29982,-3.311512 -1.21656,-1.009661 -2.20169,-1.252491 -2.18916,-0.53956 z m -21.81086,1.12571 c 3.11658,4.756533 1.32273,6.192114 -2.17731,1.742531 -3.06004,-3.890252 -3.44537,-5.286033 -1.45917,-5.286033 0.7231,0 2.35951,1.594591 3.63648,3.543502 z m -1.24783,6.838124 c 0.52047,0.842071 -0.0758,1.091071 -1.39785,0.583801 -2.57353,-0.987541 -3.04443,-2.052341 -0.90759,-2.052341 0.7688,0 1.80625,0.66083 2.30544,1.46854 z m 75.028921,1.488191 c 0,0.634331 1.30084,1.493471 2.890759,1.909281 1.78672,0.467131 2.80362,1.912482 2.66264,3.784083 -0.1252,1.665501 -0.76251,2.697901 -1.41571,2.294221 -0.65325,-0.40369 -1.57302,0.27006 -2.04402,1.4976211 -1.484769,3.8692624 -8.655879,4.3821527 -14.180189,1.0141506 -5.9865,-3.6496727 -6.72998,-3.7377627 -6.72998,-0.7973205 0,1.2430608 2.2329,3.6401323 4.96201,5.3268533 l 4.96208,3.06666186 -2.73962,3.95763244 c -1.50683,2.1767013 -3.23043,5.2945732 -3.83023,6.9286242 -1.08928,2.967572 -1.09315,2.967572 -3.27053,0.0112 C 1.348061,8.0296117 0.837361,4.1297594 1.141331,-3.2416351 l 0.42895,-10.4075069 7.42758,-0.4559 c 4.08514,-0.25097 7.65178,-1.09056 7.92582,-1.866161 0.27399,-0.77553 1.10966,-1.032231 1.8569,-0.57043 2.0168,1.24642 1.64551,-1.423461 -0.49801,-3.583092 -1.48881,-1.499871 -1.34159,-1.674481 0.7428,-0.880921 1.4298,0.54405 2.59965,1.508681 2.59965,2.143011 z m -63.282851,3.876673 c 2.94128,2.941291 5.34784,5.9494433 5.34784,6.6847838 0,0.7353404 1.0237,1.3369908 2.2749,1.3369908 1.25114,0 2.64989,0.9772706 3.10827,2.1717013 0.45814,1.1944407 2.09495,2.5721316 3.63698,3.0615519 1.541981,0.4895903 2.650061,1.684701 2.462371,2.6561916 -0.18753,0.9714806 0.82865,1.673521 2.25845,1.560051 1.42979,-0.1134101 2.57881,0.2206501 2.55332,0.7427504 C -20.114619,5.25101 -26.94467,15.136706 -32.91483,21.89594 l -6.26054,7.087905 -4.77584,-3.737603 c -2.62671,-2.055701 -4.87988,-5.149883 -5.00699,-6.875954 -0.12745,-1.726081 0.16001,-2.934842 0.63775,-2.686112 12.115,6.304514 11.40779,6.160054 15.51701,3.169802 2.11253,-1.537321 3.55395,-3.609312 3.20304,-4.604432 -0.35091,-0.995121 0.001,-2.204382 0.78272,-2.687282 0.78132,-0.48285 1.42065,-2.5865117 1.42065,-4.674613 0,-2.7931817 -2.84606,-6.46784391 -10.76795,-13.9029585 -5.92239,-5.5585035 -11.06126,-9.8130355 -11.41975,-9.4546055 -0.35877,0.35877 1.64607,2.616271 4.45452,5.017213 2.80845,2.4009513 4.69555,4.3925325 4.19344,4.4257225 -0.50194,0.0337 -3.04353,-1.7999711 -5.64777,-4.0736925 -3.27682,-2.861002 -4.43352,-4.919573 -3.75613,-6.684834 1.39561,-3.636932 2.65399,-3.231562 8.68272,2.797162 z m -5.05079,36.246522 c 0,0.81703 0.70794,1.485491 1.5732,1.485491 0.86525,0 1.16007,-0.668461 0.6551,-1.485491 -0.50475,-0.817031 -1.21291,-1.485491 -1.57319,-1.485491 -0.36046,0 -0.65511,0.66846 -0.65511,1.485491 z m 81.72505,-35.693102 c -0.91102,1.702271 -2.2913,2.702622 -3.06734,2.222971 -2.18304,-1.34918 -1.66639,-3.667702 0.81725,-3.667702 1.22555,0 2.28108,-1.169841 2.34559,-2.599641 0.0646,-1.429861 0.44186,-1.801152 0.83909,-0.825121 0.39695,0.975981 -0.0225,3.167282 -0.93459,4.869493 z m -45.372429,0.36832 c 5.50264,1.544781 6.7023,2.335312 4.70644,3.101192 -1.47331,0.56532 -3.961,1.0279108 -5.52824,1.0279108 -1.56724,0 -2.84949,1.0027006 -2.84949,2.2282413 0,2.7855917 -1.69531,2.8012017 -8.21806,0.0758 -3.29433,-1.3764009 -5.151561,-3.1616022 -5.151561,-4.9516832 0,-5.564183 1.907601,-5.730033 17.040911,-1.481451 z m 79.172669,4.1291028 c -1.02049,1.634051 -2.36877,2.9710418 -2.99619,2.9710418 -0.62743,0 -0.306,-1.3369908 0.71467,-2.9710418 1.0205,-1.6340608 2.36877,-2.9710518 2.9962,-2.9710518 0.62742,0 0.30599,1.336991 -0.71468,2.9710518 z m -70.642109,9.28352563 c -0.52889,9.70198597 -1.51957,14.48467857 -3.00097,14.48467857 -0.62759,0 -1.24688,-1.404421 -1.37618,-3.121012 -0.12913,-1.7165907 -1.47685,-5.6307731 -2.99451,-8.6982749 l -2.75938,-5.5772034 3.79251,-2.3072915 c 6.09194,-3.7062222 6.79336,-3.1286519 6.33853,5.21910323 z M -66.49111,-3.7169254 c -0.47443,1.1850607 -0.82624,0.8330805 -0.89754,-0.8974906 -0.0646,-1.5659509 0.2869,-2.4433315 0.78025,-1.9497612 0.49352,0.4935203 0.5463,1.7749311 0.11734,2.8472518 z m 31.01718,1.4602809 4.36311,4.7098128 -4.82794,-3.325492 c -2.65534,-1.8289911 -4.82789,-3.9484224 -4.82789,-4.7098129 0,-2.1225713 0.58801,-1.753081 5.29272,3.3254921 z m -24.60443,-1.7388211 c 0,0.8170305 -0.29476,1.4855509 -0.65504,1.4855509 -0.36046,0 -1.06823,-0.6685204 -1.5732,-1.4855509 -0.50474,-0.8170305 -0.20998,-1.4854909 0.65511,-1.4854909 0.8652,0 1.57313,0.6684604 1.57313,1.4854909 z m 123.42332,1.1141507 c -0.8054,1.4298008 -3.22196,4.6051028 -5.37019,7.0561843 -2.95622,3.373102 -2.73232,2.7410817 0.92118,-2.5996416 4.77067,-6.9738843 7.28654,-9.4940258 4.44901,-4.4565427 z M 36.98881,-2.991365 c 0.55191,0.5519103 -0.42559,2.52548155 -2.17261,4.3851827 -3.04336,3.239532 -3.11112,4.5711328 -0.59469,11.6943073 0.85027,2.406781 0.46545,2.265751 -2.02673,-0.742751 C 28.41215,7.7788416 28.26454,4.3319695 31.65185,-0.32675337 34.41117,-4.1215657 35.37637,-4.603466 36.98853,-2.991365 Z M 66.77196,2.2582382 C 63.89867,7.8146116 43.85241,28.686044 41.38898,28.686044 c -2.08025,0 -18.28672,-21.3304827 -18.25668,-24.0288843 0.0112,-1.0822007 0.84762,-0.5317003 1.85689,1.2230707 5.3954,9.3816156 7.8877,12.3975776 9.67733,11.7108076 1.08232,-0.415471 1.57106,-0.11341 1.08619,0.67145 -1.03319,1.671731 3.39129,8.938005 5.4424,8.938005 0.77126,0 0.96311,-0.71057 0.42614,-1.579081 -1.17905,-1.907771 3.43048,-7.333994 6.23011,-7.333994 1.09894,0 1.99805,-0.65573 1.99805,-1.457201 0,-0.80148 1.67122,-1.876661 3.71379,-2.389321 2.04257,-0.512611 3.71379,-1.790031 3.71379,-2.838662 0,-2.1665914 9.04957,-13.9183386 10.8081,-14.0353387 0.63377,-0.0449 0.0449,2.06895131 -1.31335,4.6913429 z M -47.8495,10.110453 c 4.30405,3.870552 6.27245,6.241234 4.37423,5.268293 -4.40982,-2.260301 -15.13174,-13.2636279 -15.07239,-15.46800922 0.0225,-0.92275058 0.68132,-0.58874036 1.45888,0.74236045 0.7775,1.33104077 4.93518,5.58691337 9.23928,9.45735577 z m 121.24898,0.37786 -0.21841,10.027226 -1.02016,-8.913075 C 71.20402,3.2421788 71.40418,0.46107712 72.96278,0.46107712 c 0.36045,0 0.55696,4.51224278 0.43681,10.02723588 z m -104.96059,0.798951 c -1.6098,3.639112 -3.65798,7.068474 -4.55159,7.620724 -0.89361,0.552471 -0.62175,-0.86554 0.60407,-3.150712 1.22588,-2.285121 2.90266,-6.0858833 3.72625,-8.4460147 0.8236,-2.3601814 1.8688,-3.9197824 2.32274,-3.4658521 0.45421,0.4536603 -0.49184,3.8027823 -2.10147,7.4418548 z M -58.23802,6.836561 c 0.35428,-0.6469104 0.40031,-0.2363801 0.10274,0.9116806 -0.29757,1.1482907 0.93106,3.6550724 2.73069,5.5706434 4.72907,5.033933 2.19411,4.287483 -3.13679,-0.923591 -4.58471,-4.4817523 -6.60864,-9.5849854 -2.42396,-6.1120533 1.1461,0.9511606 2.37349,1.2001707 2.7276,0.5536003 z m 49.097561,5.508643 c -0.42727,1.634061 -1.70738,2.971052 -2.84455,2.971052 -1.6957,0 -1.73388,-0.53451 -0.21223,-2.971052 1.0205,-1.634051 2.30056,-2.9710414 2.84455,-2.9710414 0.54405,0 0.6395,1.3369904 0.21223,2.9710414 z m 21.85229,1.526541 c 0,1.810971 -0.7464,2.550352 -2.06413,2.044702 -1.18815,-0.455901 -1.74691,-2.005122 -1.31661,-3.650463 0.91258,-3.4897118 3.38074,-2.3173411 3.38074,1.605761 z m 36.395059,-0.6569 c -5.58113,4.676013 -9.67278,7.018404 -9.60041,5.496073 0.0691,-1.449171 10.54213,-9.0889853 12.57145,-9.1703453 0.81703,-0.0337 -0.5199,1.6206413 -2.97104,3.6742723 z m -50.136309,3.416732 c -2.05279,2.439571 -4.43722,8.199865 -5.5343,13.369618 -1.0602,4.995823 -2.45811,9.083266 -3.10647,9.083266 -0.64837,0 -0.60368,-2.005462 0.0994,-4.456543 0.70294,-2.451082 0.85684,-4.456543 0.34193,-4.456543 -0.51485,0 -0.13419,-0.8022 0.84645,-1.782611 0.98046,-0.98047 1.78261,-3.222522 1.78261,-4.982403 0,-1.759881 1.63934,-4.968593 3.64288,-7.130464 4.91396,-5.302263 6.44993,-5.018843 1.92759,0.3554 z m 25.814799,1.284321 c 1.8478,2.356091 1.79525,2.408641 -0.56089,0.56089 -1.429799,-1.121331 -2.599639,-2.291181 -2.599639,-2.599641 0,-1.222621 1.21987,-0.435691 3.160479,2.038811 z m -34.356249,0.99265 c 0,2.994462 -2.45894,5.320794 -5.62414,5.320794 -4.53655,0 -13.687571,3.109662 -13.687571,4.651252 0,0.595871 2.16817,0.461511 4.818121,-0.29869 2.64995,-0.76004 6.56816,-1.381851 8.70708,-1.381851 3.31695,0 3.78751,0.530571 3.19916,3.608463 -0.4486,2.346991 -1.42109,3.327792 -2.78183,2.805641 -1.44822,-0.55584 -1.8094,-0.0662 -1.17355,1.590821 0.72444,1.887891 -0.0668,2.393702 -3.74355,2.393702 -2.77375,0 -5.00845,-0.902591 -5.51719,-2.228292 -1.235361,-3.219322 -3.508241,-2.738101 -3.508241,0.742741 0,1.634061 -0.2796,2.971052 -0.62125,2.971052 -0.34192,0 -1.75578,0.43513 -3.14245,0.9675 -2.07373,0.795741 -2.33071,0.367191 -1.44788,-2.414311 0.73292,-2.309202 0.55191,-3.059422 -0.57128,-2.365352 -0.92842,0.573811 -1.64467,0.0281 -1.64467,-1.25283 0,-1.498411 0.83253,-1.949872 2.45058,-1.328961 2.04043,0.783 2.29898,0.2156 1.5445,-3.388992 -0.49857,-2.381182 -0.54124,-3.489102 -0.0949,-2.462032 0.59362,1.366751 2.05756,0.979851 5.46008,-1.442941 2.556921,-1.820741 5.913341,-3.503362 7.458691,-3.739172 1.5454,-0.23581 3.90833,-1.070241 5.25099,-1.854251 2.601,-1.518851 4.66945,-1.915121 4.66945,-0.894571 z m 26.47395,3.380742 c 1.62131,1.602331 1.29802,1.940052 -1.8569,1.940052 -2.10096,0 -3.8199,-0.279611 -3.8199,-0.621311 0,-0.34136 -0.40874,-1.686211 -0.90816,-2.987832 -0.70013,-1.824561 -0.27455,-2.126621 1.8569,-1.31874 1.52081,0.57627 3.64844,1.920841 4.72806,2.987831 z m 14.377649,0.454781 c 1.47881,1.634051 2.35451,2.971042 1.946,2.971042 -0.40874,0 -1.95274,-1.336991 -3.43149,-2.971042 -1.47882,-1.634061 -2.35452,-2.970992 -1.946,-2.970992 0.40874,0 1.95268,1.336931 3.43149,2.970992 z m -7.12737,4.730083 c -1.278769,0.79036 -1.03628,1.632091 0.87233,3.027691 2.20202,1.610201 2.32486,2.333692 0.7355,4.331623 -1.67667,2.107811 -11.563869,5.160213 -11.563869,3.570062 0,-0.33351 2.11926,-4.016082 4.70953,-8.182915 3.20192,-5.150783 5.078969,-6.978204 5.863599,-5.708583 0.64387,1.04178 0.37112,2.351421 -0.61709,2.962122 z M 3.798751,25.715113 c 0,0.81703 -0.70794,1.4855 -1.5732,1.4855 -0.86525,0 -1.16002,-0.66847 -0.6551,-1.4855 0.50475,-0.817031 1.21291,-1.485491 1.57319,-1.485491 0.36046,0 0.65511,0.66846 0.65511,1.485491 z m 12.05783,1.4855 c 0.84011,0 0.76942,1.208691 -0.17348,2.971042 -1.8624,3.479952 -5.18806,4.049043 -3.8897,0.665611 0.50755,-1.322001 0.25827,-1.918271 -0.58386,-1.397861 -0.80765,0.49914 -1.46848,-0.20605 -1.46848,-1.567291 0,-1.646471 0.78654,-2.173061 2.3498,-1.573201 1.29235,0.49577 2.98704,0.9017 3.76601,0.9017 z m -7.65357,4.358903 c 0.84578,1.580321 1.53777,3.943543 1.53777,5.251563 0,1.960542 -0.55135,2.083052 -3.14015,0.697661 -1.72709,-0.924321 -5.28267,-1.430471 -7.90129,-1.124761 -4.24026,0.4952 -4.69201,0.19426 -4.12927,-2.749782 1.00349,-5.249253 11.11078,-6.787364 13.63294,-2.074681 z m 24.713349,3.880602 c 1.10449,4.400623 0.40368,5.534364 -2.6883,4.347903 -1.43558,-0.55079 -1.97469,-2.138801 -1.52496,-4.491463 0.90349,-4.726272 3.009,-4.654512 4.21326,0.14373 z M 11.513071,49.130837 c 8.79584,8.385765 13.230149,15.100989 15.089739,22.851694 1.1594,4.832263 -2.86499,7.151464 -5.694599,3.281752 -1.26355,-1.728041 -2.69026,-2.130271 -4.63918,-1.307911 -1.54793,0.65309 -4.48568,1.229921 -6.52825,1.281751 -2.81648,0.0713 -3.7545,-0.695481 -3.88234,-3.174412 -0.0926,-1.797771 0.40874,-3.268672 1.11415,-3.268672 2.78043,0 1.07282,-3.124382 -2.43699,-4.458783 -5.88892,-2.238971 -11.13548,0.881541 -11.13548,6.623134 0,3.895653 -0.54742,4.628123 -3.34239,4.472993 -1.83832,-0.10218 -4.60892,-0.743031 -6.15685,-1.424521 -1.90305,-0.8378 -3.34626,-0.5418 -4.45654,0.913321 -2.13212,2.794581 -6.864951,1.809511 -6.760581,-1.407181 0.26164,-8.068825 12.284731,-25.460256 20.723261,-29.976429 1.67606,-0.89697 2.68448,-2.218021 2.24099,-2.935671 -0.44355,-0.717591 0.7076,-1.520081 2.55804,-1.783291 1.85044,-0.263321 3.59005,0.0337 3.86589,0.65544 0.27567,0.62367 4.52431,4.969263 9.44113,9.656786 z m -18.84082,3.308032 c -2.34014,2.442551 -3.96931,4.646933 -3.62037,4.898523 0.34923,0.25153 2.47534,1.248111 4.72531,2.214481 3.56641,1.531821 4.32639,1.379951 5.928,-1.184721 1.01045,-1.61794 2.80687,-2.941741 3.99205,-2.941741 1.55191,0 1.34799,0.61025 -0.72871,2.181031 -2.17811,1.647411 -2.33846,2.181021 -0.65533,2.181021 2.73647,0 7.42758,-3.416672 7.42758,-5.409723 0,-2.635242 -5.35498,-6.379914 -9.12351,-6.379914 -2.15829,0 -5.4566,1.843641 -7.94502,4.441043 z m 13.35474,0.0168 c 0.55135,0.89231 -1.34143,1.476451 -4.74024,1.462751 -4.2003,-0.0168 -5.08419,-0.39358 -3.43009,-1.462751 2.90524,-1.877511 7.00997,-1.877511 8.17033,0 z m -23.61177,-9.994566 c 1.89659,1.896541 -3.89964,2.906372 -6.11738,1.06576 -2.26799,-1.882221 -2.748371,-1.17687 -2.28708,3.358112 0.14542,1.429801 -0.20493,2.599642 -0.779301,2.599642 -1.18051,0 -4.96561,-4.665903 -5.03781,-6.210074 -0.10218,-2.191351 12.143231,-2.891771 14.221571,-0.81344 z m 40.695179,0.54012 c 0,1.297191 -1.045479,2.042121 -2.476569,1.764601 -3.62116,-0.70233 -4.00289,-3.521392 -0.51261,-3.784312 1.77571,-0.13363 2.989009,0.68609 2.989009,2.019711 z m 6.72577,-0.37224 c 1.75229,1.752351 1.61884,2.453551 -0.90125,4.734233 -1.62704,1.472421 -2.62446,3.547102 -2.21645,4.610333 0.79468,2.070811 -4.077949,1.993331 -6.169419,-0.0983 -0.63383,-0.633821 -0.17574,-0.929541 1.01847,-0.657241 1.436989,0.32789 2.655509,-1.388081 3.604419,-5.075483 1.60896,-6.252694 1.7893,-6.388564 4.66423,-3.513692 z m -61.68974,4.506343 c 0,1.15873 0.38853,3.331272 0.86402,4.827883 0.79064,2.490051 0.66448,2.476301 -1.48555,-0.162261 -2.65034,-3.252782 -3.09939,-6.772254 -0.86402,-6.772254 0.81703,0 1.48555,0.948071 1.48555,2.106802 z m 63.79771,5.849963 c -1.4303,1.318291 -1.62799,1.089271 -0.88204,-1.02208 0.52889,-1.496611 1.03891,-3.502063 1.13369,-4.456533 0.0949,-0.954421 0.49183,-0.49465 0.8821,1.02207 0.39021,1.516591 -0.11959,3.522053 -1.13375,4.456543 z m -47.457099,-4.501913 c 0,0.266131 -1.83831,2.104442 -4.08514,4.085193 l -4.08514,3.601342 3.60134,-4.085202 c 3.36597,-3.818163 4.56894,-4.766353 4.56894,-3.601333 z m -8.91308,3.972743 c 0,0.81702 -0.70794,1.485491 -1.57314,1.485491 -0.865251,0 -1.160071,-0.668471 -0.655101,-1.485491 0.504751,-0.817031 1.212851,-1.485501 1.573191,-1.485501 0.36046,0 0.65505,0.66847 0.65505,1.485501 z M -53.32626,81.423607 c 1.19983,12.496347 2.03089,15.853669 3.67303,14.838789 0.78374,-0.484541 1.06924,0.0449 0.6345,1.17933 -0.43456,1.132961 1.61362,6.591644 4.55193,12.130384 6.36201,11.99221 5.99757,14.31523 -0.62635,3.99273 -7.20396,-11.22633 -10.07479,-21.404707 -10.95105,-38.826018 -0.81663,-16.236409 0.92949,-11.941737 2.71794,6.684785 z M 31.56741,66.911588 c -0.37674,1.445361 -0.70957,0.62249 -0.73983,-1.828591 -0.0281,-2.451092 0.27792,-3.633683 0.68481,-2.627942 0.40705,1.005731 0.43175,3.011182 0.0561,4.456533 z m -29.159379,0.0281 c 0.66459,7.808195 1.21094,11.085347 1.97536,11.849827 0.50475,0.50474 4.26469,1.086581 8.35589,1.293471 5.34824,0.27062 7.16314,-0.11453 6.45863,-1.370001 -0.6505,-1.159121 -0.30712,-1.121901 1.02066,0.11061 1.10029,1.021341 3.243239,1.856891 4.762139,1.856891 1.62345,0 2.34699,0.670771 1.75567,1.627601 -0.96542,1.562081 -4.964819,1.302691 -14.767299,-0.95778 -4.10838,-0.947341 -4.27441,-0.835671 -2.12494,1.42985 1.28242,1.351651 5.28154,2.813112 8.88703,3.247672 3.60543,0.434571 6.707689,0.942521 6.893869,1.128701 0.1864,0.1864 -0.0612,1.867331 -0.54967,3.735852 -0.69311,2.650682 -1.57796,3.181372 -4.026239,2.414822 -1.72579,-0.54012 -4.80902,-1.345081 -6.85159,-1.788291 -2.04256,-0.442991 -5.85893,-2.833492 -8.48081,-5.311753 -4.23858,-4.006423 -5.06201,-4.274343 -7.42759,-2.416662 -1.46326,1.149131 -3.53401,3.259122 -4.60161,4.688983 -1.06766,1.429801 -3.53093,2.599641 -5.47401,2.599641 -1.94302,0 -5.34027,0.687171 -7.54931,1.527041 -4.63951,1.763981 -4.3804,1.917592 -5.64216,-3.344352 -0.78699,-3.281922 -0.53057,-3.876902 1.35934,-3.151722 2.76527,1.061151 20.11447,-5.511853 19.05843,-7.220584 -0.40088,-0.64904 -0.18865,-1.180511 0.47275,-1.181071 0.661,-5.6e-4 1.29819,-1.671791 1.41604,-3.713792 0.1179,-2.042011 -0.51148,-3.712732 -1.39808,-3.712732 -0.88676,0 -0.31441,-0.981481 1.2713,-2.181022 3.20995,-2.427901 5.0637,-2.841351 5.20664,-1.16137 z m -10.49341,11.588527 c 0,2.169281 -10.9589,5.152963 -15.67612,4.268062 -7.619661,-1.42947 -6.325621,-3.963812 1.43008,-2.800761 3.83428,0.57498 7.68467,0.3234 9.28448,-0.606541 3.04089,-1.767791 4.96156,-2.101021 4.96156,-0.86076 z m 10.71434,17.01548 c -0.36944,2.517622 -1.41015,4.331453 -2.31252,4.030683 -2.46467,-0.821581 -4.07756,-10.460797 -1.97334,-11.793238 2.65629,-1.682001 5.03871,2.633002 4.28586,7.762555 z m 13.05049,0.19033 c 0.002,0.517661 1.4783,1.326611 3.28091,1.798001 1.80266,0.471621 2.82456,1.310101 2.27085,1.863752 -1.21307,1.213132 -14.46147,-2.304492 -14.46147,-3.839733 0,-0.59357 2.00394,-1.00803 4.45317,-0.92106 2.44923,0.087 4.45468,0.58161 4.45654,1.09904 z m -23.1456,1.245031 c -0.74909,0.739601 -5.0386,1.763751 -9.53231,2.276021 -7.25684,0.827193 -7.87663,0.692331 -5.54362,-1.20606 2.84326,-2.313642 17.3807,-3.345372 15.07593,-1.069961 z m 2.35182,3.686284 c 0,1.55056 -3.5188,8.23838 -4.32365,8.21744 -0.48172,-0.0112 -1.85599,-0.64276 -3.05414,-1.40049 -1.35248,-0.85544 -2.83556,-0.83247 -3.91164,0.0606 -1.17181,0.97255 -2.009,0.71984 -2.5846,-0.78014 -0.46825,-1.22026 -0.10892,-2.67757 0.79878,-3.23846 0.99928,-0.61755 1.23205,-0.34305 0.5902,0.69519 -1.28534,2.07974 0.52833,2.19629 3.57197,0.22963 1.98064,-1.28006 1.98064,-1.46208 0,-1.63854 -1.22554,-0.10949 -0.2229,-0.70878 2.22824,-1.3325 5.94518,-1.512782 6.68484,-1.602732 6.68484,-0.81265 z m 16.92446,1.67689 c 0.49576,1.29236 0.9017,3.37967 0.9017,4.63845 0,1.86594 -0.41155,1.94707 -2.2283,0.43906 -1.85471,-1.53928 -2.22824,-1.34979 -2.22824,1.13037 0,3.39557 -3.84725,4.89831 -8.19408,3.20064 -2.369,-0.92529 -2.00002,-1.17165 1.88064,-1.25554 4.96786,-0.10723 5.66748,-0.93779 3.57225,-4.23993 -0.73141,-1.15272 -2.33845,-1.49588 -4.0624,-0.8675 -2.17108,0.79137 -1.96531,0.28297 0.8615,-2.12853 4.43127,-3.780262 8.25651,-4.149763 9.49693,-0.9173 z m -13.21067,0.62125 c -0.50475,0.81703 -1.58661,1.48555 -2.40364,1.48555 -0.81703,0 -1.07238,-0.66852 -0.5674,-1.48555 0.50474,-0.81703 1.58655,-1.48549 2.40358,-1.48549 0.81703,0 1.07238,0.66846 0.56746,1.48549 z m 19.75335,-0.21728 c 1.53928,0.97648 1.46455,1.60649 -0.37168,3.13022 -1.26423,1.04918 -2.2986,1.54618 -2.2986,1.10449 0,-0.44187 -0.40593,-1.86055 -0.90169,-3.15296 -0.98075,-2.55585 0.52777,-3.0127 3.57169,-1.08175 z m -22.95453,6.9664 c -0.48398,1.2608 -1.19826,1.97375 -1.58763,1.58437 -0.38965,-0.38965 -0.26725,-1.42098 0.27118,-2.29236 1.46478,-2.37006 2.32094,-1.90962 1.31645,0.70799 z m 10.46976,10.45602 c 1.63855,4.26986 0.9547,5.07779 -4.29759,5.07779 -2.8596,0 -5.19929,-0.66846 -5.19929,-1.48549 0,-0.81703 0.70794,-1.4855 1.5732,-1.4855 0.86525,0 1.09618,-0.77177 0.51316,-1.71507 -0.63264,-1.02359 -0.40986,-1.3133 0.55248,-0.71849 0.88681,0.54798 2.03229,0.31722 2.54551,-0.51317 1.36894,-2.21499 3.28333,-1.84213 4.31253,0.83999 z m -42.648931,14.26942 c -0.47443,1.18506 -0.82618,0.83303 -0.89748,-0.89749 -0.0646,-1.56595 0.28634,-2.44333 0.78025,-1.94976 0.49352,0.49352 0.5463,1.77493 0.11735,2.84725 z m 2.33717,7.98247 c 0.86767,4.5388 -1.05874,2.95881 -2.60133,-2.13358 -0.66544,-2.19669 -0.51485,-3.1862 0.39863,-2.6216 0.80704,0.49857 1.79834,2.63861 2.20292,4.75518 z m 32.476451,-1.4869 c 1.39633,-1.35254 11.70805,-2.1584 11.70805,-0.91495 0,0.76251 -3.1753,1.77543 -7.05618,2.25093 -3.88088,0.47555 -8.8945,1.46113 -11.14138,2.1903 -4.67635,1.51755 -5.10867,0.7204 -1.66987,-3.07942 1.75381,-1.93797 3.12415,-2.28944 5.00395,-1.28337 1.42379,0.762 2.84377,1.1384 3.15543,0.83651 z m -13.54569,6.59552 c 0,0.81703 -0.70794,1.48555 -1.57314,1.48555 -0.86526,0 -1.16007,-0.66852 -0.6551,-1.48555 0.50474,-0.81703 1.21285,-1.4855 1.57319,-1.4855 0.36045,0 0.65505,0.66847 0.65505,1.4855 z m -8.91308,6.68484 c -2.070081,2.49431 -4.456541,2.95038 -4.456541,0.85167 0,-0.75713 1.16985,-1.68229 2.599641,-2.05594 1.42986,-0.37336 2.84865,-0.75689 3.15296,-0.85167 0.30431,-0.0949 -0.27904,0.83039 -1.29606,2.05594 z M 70.86114,32.773177 c -1.62102,3.788132 -1.58431,3.875492 0.50419,1.201571 1.23885,-1.585941 2.25238,-3.424252 2.25238,-4.085143 0,-2.257831 -1.00764,-1.203811 -2.75668,2.883572 z m -3.74456,7.113624 c -1.4335,3.735642 -1.01061,4.699483 0.74056,1.688071 0.86706,-1.491111 1.26355,-3.024052 0.88109,-3.406512 -0.38235,-0.38235 -1.11224,0.39077 -1.62165,1.718441 z"
       id="path2006" /></g></svg>
