<?xml version="1.0" encoding="UTF-8" standalone="no"?>
<!-- Created with Inkscape (http://www.inkscape.org/) -->

<svg
   width="210mm"
   height="297mm"
   viewBox="0 0 210 297"
   version="1.1"
   id="svg2016"
   xml:space="preserve"
   inkscape:version="1.2.2 (732a01da63, 2022-12-09)"
   sodipodi:docname="Skuld.svg"
   xmlns:inkscape="http://www.inkscape.org/namespaces/inkscape"
   xmlns:sodipodi="http://sodipodi.sourceforge.net/DTD/sodipodi-0.dtd"
   xmlns="http://www.w3.org/2000/svg"
   xmlns:svg="http://www.w3.org/2000/svg"><sodipodi:namedview
     id="namedview2018"
     pagecolor="#ffffff"
     bordercolor="#000000"
     borderopacity="0.25"
     inkscape:showpageshadow="2"
     inkscape:pageopacity="0.0"
     inkscape:pagecheckerboard="0"
     inkscape:deskcolor="#d1d1d1"
     inkscape:document-units="mm"
     showgrid="false"
     inkscape:zoom="1.1893044"
     inkscape:cx="289.2447"
     inkscape:cy="-5.8857934"
     inkscape:window-width="2560"
     inkscape:window-height="1494"
     inkscape:window-x="-11"
     inkscape:window-y="-11"
     inkscape:window-maximized="1"
     inkscape:current-layer="layer1" /><defs
     id="defs2013" /><g
     inkscape:label="레이어 1"
     inkscape:groupmode="layer"
     id="layer1"><path
       style="fill:#000000;stroke-width:1.37552"
       d="m -64.961345,-145.7823 c -1.322989,0.50117 -3.952898,2.57561 -5.844245,4.61017 l -3.438811,3.69923 -0.3778,74.542454 L -75,11.611935 l 6.044442,12.418979 c 5.893378,12.108598 6.061186,12.829738 6.714467,28.855816 0.532933,13.073719 1.383046,18.347778 4.154805,25.775827 l 3.48478,9.338869 -2.576387,9.918439 c -3.958394,15.238725 -3.234248,21.090015 3.024526,24.439565 2.218031,1.18711 3.358396,1.04206 5.247289,-0.66737 2.209661,-1.99968 2.596506,-1.97993 4.583501,0.23447 1.1936,1.33007 2.611895,4.79779 3.151742,7.70607 1.345926,7.25098 6.176528,12.78612 9.523796,10.91288 1.85588,-1.03857 4.50661,-0.61284 10.28611,1.65214 12.0186596,4.71009 22.6677495,5.43824 31.2960494,2.13994 6.8200396,-2.60701 14.7131696,-2.92751 19.8508696,-0.80597 2.90131,1.19802 8.07483,-5.19556 8.07483,-9.97912 0,-1.91889 1.07501,-4.67676 2.38892,-6.12859 2.12315,-2.34608 2.15585,-2.8172 0.29373,-4.23492 -1.81283,-1.38024 -2.20451,-6.40949 -0.49909,-6.40949 0.33325,0 2.37717,1.98195 4.54155,4.4043 l 3.93526,4.40435 4.2985,-4.29855 c 5.30042,-5.30043 5.6359,-11.09759 1.34868,-23.305595 C 51.40368,90.111586 51.34166,89.176676 53.30141,84.916496 54.46236,82.392877 57.41619,73.918978 59.86546,66.085688 63.60774,54.11724 64.17649,50.58567 63.4276,43.966521 62.6054,36.699122 63.01845,34.961202 68.76821,21.501004 L 75,6.9121855 V -64.961216 -136.83469 l -3.09492,-4.54617 c -1.7022,-2.50038 -3.71389,-4.56978 -4.47043,-4.59863 -16.30495,-0.62162 -130.683608,-0.45126 -132.396026,0.19756 z m 92.850015,2.35799 c -1.32378,0.52409 -22.3692895,1.14618 -46.767839,1.38247 l -44.361034,0.42942 -4.470458,4.29278 c -5.77759,5.54799 -5.840689,3.23451 -0.07403,-2.71514 l 4.396405,-4.53593 46.841887,0.0967 c 25.7630394,0.053 45.758849,0.52545 44.435069,1.04949 z m 42.04725,3.46289 3.5155,4.60908 -0.41902,71.388674 -0.41903,71.3886715 -6.39498,14.3510185 c -6.12849,13.752998 -6.33957,14.650678 -5.06559,21.542247 1.2119,6.555739 0.85547,8.671249 -4.03269,23.937467 -2.94909,9.210409 -6.11575,17.654468 -7.03704,18.764518 -1.33506,1.60868 -1.09274,3.74831 1.19392,10.542669 4.93801,14.672145 4.97086,16.962175 0.31349,21.835935 -2.25516,2.3598 -4.10022,3.77435 -4.10022,3.14352 0,-0.63087 1.24959,-2.47714 2.77685,-4.10286 2.293,-2.44081 2.58554,-3.87672 1.67886,-8.24073 -0.60395,-2.90667 -1.91847,-5.55828 -2.92122,-5.89257 -1.22511,-0.40863 -1.58601,0.23551 -1.10023,1.9622 0.39771,1.41346 1.12331,3.9626 1.61257,5.66486 0.6627,2.30558 0.31921,3.09492 -1.34759,3.09492 -1.23041,0 -1.85458,-0.61898 -1.387,-1.37551 0.46738,-0.75659 0.2979,-1.37556 -0.37743,-1.37556 -2.35195,0 -2.95549,1.75689 -1.59786,4.65134 1.21595,2.59225 1.11239,2.56672 -0.93751,-0.23134 l -2.30438,-3.14556 -3.45531,3.14556 -3.45525,3.1455 3.22755,-4.47048 c 1.77514,-2.45874 4.19436,-4.47989 5.37606,-4.49148 1.87028,-0.0208 1.88447,-0.1882 0.10917,-1.31042 -1.70979,-1.08115 -1.43212,-1.923 1.71936,-5.21246 3.82156,-3.988795 4.82104,-7.767835 2.44309,-9.237485 -0.72347,-0.4471 -0.92778,-1.82318 -0.45386,-3.057859 0.57583,-1.50064 0.32805,-1.91514 -0.74785,-1.25031 -0.8851,0.54702 -1.6093,2.815009 -1.6093,5.040009 0,2.65572 -0.69976,4.04537 -2.03706,4.04537 -1.1204,0 -2.42546,1.547475 -2.90017,3.438815 -0.52836,2.10506 -1.842,3.43882 -3.38704,3.43882 -1.38814,0 -3.49944,1.39272 -4.69169,3.09492 -1.1923,1.7022 -2.46534,2.9402 -2.82905,2.75107 -0.36392,-0.18924 -0.50636,-0.0946 -0.31765,0.21003 0.71172,1.14676 -8.82304,9.2285 -10.30497,8.73451 -0.85173,-0.28386 -2.79796,-2.95424 -4.32497,-5.93406 -1.52695,-2.97981 -3.27017,-5.6242 -3.8738,-5.87634 -2.0878596,-0.87226 -1.0882796,-4.35663 1.30969,-4.56536 4.40975,-0.38367 5.13088,-0.60858 9.66905,-3.01402 2.48099,-1.315046 5.04152,-2.063005 5.69013,-1.662175 1.48676,0.918895 4.53676,-2.61423 3.31306,-3.83788 -0.49805,-0.49753 0.72612,-0.90507 2.71982,-0.90507 2.37103,0 3.39229,-0.60613 2.95252,-1.75226 -0.41694,-1.08687 1.47356,-2.523259 4.97903,-3.782679 5.07516,-1.82344 6.06709,-2.98111 9.72848,-11.354149 2.24236,-5.128029 5.20107,-13.749768 6.57486,-19.159368 2.14764,-8.456889 2.26181,-10.851058 0.81419,-17.078488 -0.92602,-3.983549 -1.27766,-7.741529 -0.78144,-8.351149 0.49597,-0.60956 2.32113,-4.822229 4.0553,-9.361488 1.73418,-4.5392 4.35684,-11.206809 5.82811,-14.8168287 2.30079,-5.6454693 2.66799,-9.87908884 2.62442,-30.2615363 -0.026,-13.033819 0.0795,-44.433845 0.23863,-69.777912 0.21003,-33.442957 -0.13621,-46.080077 -1.26145,-46.080077 -0.85282,0 -2.06643,-0.5635 -2.69689,-1.25219 -0.66598,-0.72752 -0.42579,-0.83758 0.57317,-0.26254 1.84392,1.06113 2.45447,-1.30725 0.62796,-2.43612 -0.60025,-0.3712 -8.36461,-0.81991 -17.2541,-0.9975 -8.88954,-0.1778 -16.48176,-0.83909 -16.87162,-1.46992 -0.38992,-0.63083 6.99155,-1.14697 16.4031,-1.14697 h 17.11202 z m -30.43154,1.84761 c 21.1067,-0.69092 23.82101,-0.52597 25.39392,1.54307 1.17098,1.54036 1.77576,7.27176 1.80488,17.10359 l 0.0416,14.78689 H 8.9727104 c -54.0431924,0 -57.7823504,-0.15544 -57.9316094,-2.40716 -0.151806,-2.29258 -0.189757,-2.29258 -0.788611,0 -0.510006,1.95096 -2.173893,2.40716 -8.781353,2.40716 h -8.152283 l -0.216687,-9.28481 c -0.11921,-5.10666 -0.144944,-10.21326 -0.05729,-11.34806 0.08765,-1.13481 0.313802,-4.10594 0.502468,-6.60252 0.188666,-2.49654 1.034043,-5.11264 1.878578,-5.81355 0.84453,-0.70091 7.989009,-1.04528 15.87663,-0.76532 17.601538,0.62474 16.080725,0.3348 16.831748,3.20883 0.52222,1.99822 0.6562,1.93256 0.78866,-0.3868 0.15441,-2.70022 0.8444,-2.77644 20.63096,-2.27724 14.3738895,0.36235 20.760819,0.0468 21.443109,-1.05578 0.7254,-1.17374 1.46597,-1.16199 2.92206,0.0468 1.41174,1.17161 8.47691,1.40498 25.58316,0.84502 z m -62.166579,8.41229 c 0,4.90063 -0.60296,7.07644 -2.12264,7.6596 -1.67022,0.64096 -1.80649,1.40514 -0.63935,3.586 2.22952,4.16588 3.8082,3.35818 4.66502,-2.38679 1.57868,-10.58477 1.53049,-14.55726 -0.18352,-15.1297 -1.22214,-0.40811 -1.71941,1.40561 -1.71941,6.27089 z m 8.55047,8.17106 c 0.23759,9.005 0.9283,14.64148 1.76594,14.41502 0.76589,-0.20692 1.16709,-3.40774 0.90522,-7.2215 -0.2589,-3.76728 0.052,-6.83439 0.68776,-6.81578 1.4258796,0.0416 5.9724195,8.95952 5.9724195,11.71464 0,2.45198 2.30027,2.66519 3.10032,0.2875 0.79646001,-2.36713 -0.40551,-6.53374 -1.8852,-6.53374 -0.66831,0 -1.21512,-0.88354 -1.21512,-1.96344 0,-1.07991 -1.62916,-3.24496 -3.6203699,-4.81121 -3.1342696,-2.46545 -3.5211696,-3.58689 -2.8819196,-8.35302 0.56527,-4.21439 0.2745,-5.50521 -1.24049,-5.50521 -1.62308,0 -1.90876,2.65921 -1.58856,14.78689 z m 16.1209595,-13.86987 c -0.3218,4.18943 0.36912,27.33314 0.82953,27.79349 0.31193,0.31193 1.59552,-0.28541 2.85198,-1.3284 3.3012099,-2.73974 7.3692395,-12.9751 8.2302695,-20.70759 0.60806,-5.46065 0.35093,-6.67452 -1.41372,-6.67452 -1.64142,0 -2.18189,1.56142 -2.26154,6.53374 -0.0962,5.99919 -3.4224995,17.96686 -4.1100395,14.78689 -0.16377,-0.75654 -0.46218,-5.68919 -0.66405,-10.96143 -0.20639,-5.39551 -1.02407,-9.80501 -1.87054,-10.08715 -0.82714,-0.27553 -1.54348,0.0156 -1.59189,0.64497 z m 17.5113495,0 c -1.17754,1.17749 -1.20577,27.22172 -0.0312,28.39671 0.48713,0.48713 2.76412,-0.94982 5.05935,-3.1938 2.29524,-2.24402 3.71972,-4.53343 3.16557,-5.08758 -0.55414,-0.55419 -1.55923,-0.11489 -2.23352,0.97603 -2.05188,3.32003 -2.66523,1.03275 -2.87911,-10.73653 -0.19132,-10.52946 -0.81414,-12.6222 -3.08146,-10.35483 z m 14.33194,2.1779 c -0.65329,1.73017 -0.63374,4.11654 0.0468,5.41167 1.659,3.16864 1.53111,3.87313 -0.70315,3.87313 -2.33225,0 -3.98111,3.71998 -2.15039,4.85145 0.72352,0.4471 1.37717,0.003 1.45255,-0.98757 0.16273,-2.13402 2.30013,4.15205 2.42812,7.14034 0.0468,1.1492 -0.71151,0.62064 -1.71707,-1.19308 -1.63592,-2.9506 -1.89487,-3.02333 -2.75783,-0.77452 -0.63893,1.66503 0.0842,3.50323 2.19807,5.58526 l 3.15044,3.1035 3.86232,-3.36313 c 2.1243,-1.84969 3.45759,-4.01797 2.96287,-4.81838 -0.56886,-0.9204 -1.62646,-0.54032 -2.87745,1.03415 -1.75118,2.20389 -1.93324,1.02984 -1.58736,-10.23484 0.29581,-9.63635 -0.0364,-12.72415 -1.37307,-12.72358 -0.97005,3.7e-4 -2.28962,1.39339 -2.9324,3.0956 z m -68.09258,3.59811 c -0.592563,0.95872 -0.705898,2.11463 -0.251624,2.56864 1.231033,1.23103 2.573265,-0.57951 1.908389,-2.5742 -0.465816,-1.39776 -0.789963,-1.39667 -1.656557,0.005 z m 2.538381,7.7916 c -0.760327,4.05285 -1.361832,4.7129 -3.636947,3.99078 -2.618965,-0.83119 -2.612623,-0.75186 0.161164,2.02167 1.587776,1.58778 2.886809,4.48587 2.886809,6.44027 0,2.2317 0.639564,3.34009 1.719414,2.97976 1.13709,-0.37952 1.65593,-3.21345 1.53194,-8.36779 -0.14713,-6.11393 0.25994,-7.79409 1.88785,-7.79409 1.68874,0 1.75632,-0.38419 0.36288,-2.06326 -2.65712,-3.20165 -3.92341,-2.48182 -4.9129,2.79266 z m -39.448916,92.46245 c -0.216168,18.724328 -0.393084,3.404399 -0.393084,-34.044236 0,-37.448664 0.176864,-52.768594 0.393084,-34.044256 0.216167,18.724328 0.216167,49.364184 0,68.088492 z M 22.45261,-99.914172 c 0.80083,0.80083 -12.21627,0.99921 -48.770889,0.74327 l -23.601156,-0.16532 -1.061291,4.5494 c -1.271635,5.451079 -0.897007,9.678769 1.469711,16.585318 1.817669,5.304479 0.945668,6.689079 -1.987203,3.155179 -0.914319,-1.10169 -1.289519,-2.606389 -0.833789,-3.343789 0.455938,-0.7374 0.277098,-1.68172 -0.397191,-2.09846 -0.674289,-0.41695 -1.238207,-2.16173 -1.253127,-3.87771 -0.0156,-1.716029 -0.234468,-3.738999 -0.488171,-4.495589 -0.253183,-0.75653 0.584661,-3.95569 1.862483,-7.109249 l 2.323255,-5.733738 36.000739,0.52732 c 19.8003895,0.29009 36.331909,0.85848 36.736689,1.263258 z m 7.15511,0.20847 c 0,0.29009 -1.23795,0.52732 -2.75102,0.52732 -1.51306,0 -2.75106,-0.56106 -2.75106,-1.246728 0,-0.68573 1.238,-0.92306 2.75106,-0.52737 1.51307,0.39563 2.75102,0.956738 2.75102,1.246778 z m 16.5063,-0.848188 c -1.89133,0.605718 -6.22425,1.101268 -9.62866,1.101268 -5.04541,0 -5.55407,-0.2038 -2.75106,-1.101268 1.89138,-0.60572 6.22425,-1.10132 9.62871,-1.10132 5.04541,0 5.55407,0.20379 2.75101,1.10132 z m -103.164334,0.966928 c 0,1.86675 -3.446048,7.019049 -4.329382,6.473119 -0.646839,-0.399789 -0.984815,5.04038 -0.751024,12.089219 0.35872,10.813319 1.049697,14.104178 4.422286,21.058968 2.198535,4.533599 7.150738,11.337828 11.004946,15.120498 3.854261,3.782729 8.742674,9.192839 10.863175,12.022468 2.120553,2.82965 4.250884,4.90123 4.734114,4.6036 1.18351,-0.72904 2.22312,8.977709 2.06664,19.2959874 -0.14245,9.37807892 -2.92591,19.9808376 -8.908258,33.9306156 -2.200511,5.13125 -4.321948,11.630569 -4.714304,14.442989 -0.392512,2.812409 -1.004935,6.459909 -1.361315,8.105609 -0.35664,1.64569 -0.02599,9.073519 0.729344,16.506298 1.017049,9.978589 2.371813,15.536148 5.178456,21.242797 3.513841,7.144499 3.582778,7.585619 0.912188,5.8358 -4.577627,-2.99942 -11.593039,-13.657809 -14.576183,-22.145378 -2.370773,-6.745219 -2.653641,-10.293949 -2.106724,-26.428017 0.435143,-12.839038 1.325131,-20.293387 2.860503,-23.962727 1.225782,-2.929379 2.20675,-5.714869 2.179924,-6.189829 -0.107096,-1.90054 -4.114462,6.350059 -5.540919,11.408479 -1.132618,4.016359 -1.837528,4.894859 -2.759073,3.438819 -1.565942,-2.47418 -1.636698,-4.401859 -0.127372,-3.469079 0.633894,0.391989 0.482452,-1.42864 -0.336365,-4.04537 -0.819024,-2.61673 -1.956685,-4.757719 -2.528089,-4.757719 -1.40379,0 -1.307507,1.054589 0.384714,4.216989 2.96947,5.548559 0.02599,2.37665 -3.272792,-3.529229 -1.902769,-3.40441 -2.978756,-6.1898898 -2.391085,-6.1898898 0.587671,0 1.627324,1.1624098 2.310337,2.5830898 0.926359,1.9269 1.940756,2.29669 3.992892,1.45573 2.666327,-1.09269 2.655721,-1.15601 -0.343643,-2.05578 -4.180316,-1.2539 -3.935232,-3.0724596 0.350402,-2.6020097 1.895079,0.20795 3.090292,-0.19652 2.656033,-0.8993499 -0.434103,-0.7026799 -1.365786,-0.9214399 -2.070072,-0.4860899 -0.704287,0.4351399 -1.280474,0.13569 -1.280474,-0.6653499 0,-0.8011899 -0.928512,-1.4567099 -2.063313,-1.4567099 -1.134792,0 -2.063267,-0.8426299 -2.063267,-1.8725197 0,-1.2477699 1.262074,-1.7045898 3.782677,-1.3692199 l 3.782725,0.50325 -3.782725,-1.4964799 c -4.514486,-1.78595975 -5.433032,-6.9433091 -1.031604,-5.7923393 1.538075,0.40239 2.751015,0.0416 2.751015,-0.8165299 0,-0.8447599 -1.237946,-1.5359398 -2.751015,-1.5359398 -1.528385,0 -2.751073,-0.9170199 -2.751073,-2.0633097 0,-1.1348095 1.165776,-2.0632695 2.590636,-2.0632695 1.481409,0 2.916599,-1.24663 3.352002,-2.91166 0.636129,-2.43258 1.571763,-2.81709 5.686018,-2.33677 3.062166,0.35768 4.73983,0.026 4.43601,-0.87101 -0.26878,-0.795269 -2.872045,-1.486969 -5.785212,-1.537089 -2.913115,-0.052 -5.548665,-0.84725 -5.856696,-1.7714 -0.383674,-1.15086 0.982944,-1.57629 4.337596,-1.3504 5.540347,0.37328 7.978861,-1.11837 4.955062,-3.03066 -2.676984,-1.692999 -4.461068,-1.664769 -3.398998,0.0536 0.481932,0.78014 -0.673457,1.37551 -2.669862,1.37551 -1.935994,-5e-5 -3.519976,-0.2589 -3.519976,-0.5753 0,-0.31661 -0.375875,-1.55435 -0.834933,-2.751069 -0.681723,-1.7765 0.252144,-2.17577 5.089452,-2.17577 4.378563,0 5.521735,-0.40239 4.381215,-1.54317 -0.84871,-0.84871 -1.262589,-2.2741 -0.919778,-3.16757 0.425784,-1.108969 -1.027342,-1.506829 -4.577939,-1.253809 l -5.20133,0.370679 5.120956,-1.457489 5.120957,-1.45745 -2.847402,-5.718139 c -1.566097,-3.14499 -4.938841,-7.57512 -7.495005,-9.844779 l -4.647551,-4.12657 -0.582145,-21.320627 -0.582144,-21.320638 h 5.363342 c 2.949866,0 5.363373,0.12582 5.363373,0.27918 z m 11.004167,62.140993 c 0,0.66509 1.626664,4.762399 3.614802,9.105069 3.323148,7.258719 3.562346,8.986029 2.964168,21.4083872 -0.580086,12.0461086 -1.196304,14.6314883 -5.678116,23.8226668 -2.877711,5.90156 -4.987607,12.257919 -4.934318,14.865399 0.07746,3.795719 0.290614,4.096519 1.277405,1.804199 0.651362,-1.513069 1.522271,-4.343729 1.935319,-6.290379 0.412787,-1.94666 2.194012,-5.665749 3.957613,-8.264589 3.364582,-4.957979 7.011306,-14.9537181 8.587021,-23.5371571 0.661239,-3.6019596 0.03639,-7.8032889 -2.146392,-14.4430379 -4.305571,-13.093819 -9.577502,-23.261018 -9.577502,-18.470558 z m -1.211797,23.550137 c -0.195996,0.37847 -0.562358,3.70895 -0.814085,7.4015291 -0.251624,3.6925696 -1.291599,7.24228918 -2.310831,7.8882391 -1.547641,0.9807599 -1.54395,1.1778499 0.0208,1.1954699 1.298773,0.0156 1.689257,1.2899898 1.269867,4.1476295 -0.820272,5.5887494 1.32955,5.2778594 2.378,-0.34364 0.761941,-4.0852995 0.283336,-21.8880776 -0.545358,-20.2890276 z m -8.914287,6.1898293 c -0.435662,1.1348099 -0.192357,2.0633197 0.540575,2.0633197 0.732828,0 1.332358,-0.9285098 1.332358,-2.0633197 0,-1.1347999 -0.243306,-2.0632598 -0.540575,-2.0632598 -0.297373,0 -0.896903,0.9284599 -1.332358,2.0632598 z M 57.6912,-98.293752 c 1.26374,3.29315 0.27866,3.54602 -1.6683,0.42839 -0.92347,-1.47866 -1.12103,-2.688478 -0.43878,-2.688478 0.68198,0 1.6303,1.017048 2.10729,2.260138 z m 7.79269,-0.88463 c 0.71781,0 1.26301,10.157329 1.26301,23.529247 0,22.884748 -0.091,23.637648 -3.32933,27.485977 -7.76972,9.233759 -13.67383,32.324516 -14.91671,58.339023 L 48.17229,17.053454 46.27971,6.7762356 C 42.8934,-11.612662 44.79976,-22.979191 56.27457,-52.816997 c 3.85031,-10.011919 4.57841,-18.560928 1.99402,-23.411758 -1.48947,-2.795669 -1.42802,-2.861959 0.88463,-0.953309 2.37415,1.959439 2.4511,1.478029 1.71998,-10.761689 -0.65749,-11.007389 -0.47569,-12.701737 1.29119,-12.023759 1.13106,0.4341 2.62484,0.78913 3.3195,0.78913 z m -60.6606795,4.12657 c 2.9138399,0 5.5338495,0.70777 5.8221695,1.57276 0.39356,1.180029 1.25817,1.180029 3.463,0 1.61632,-0.86499 3.92975,-1.57276 5.14087,-1.57276 1.77587,0 1.91717,0.53252 0.72981,2.751069 -0.80977,1.51307 -2.37899,2.75102 -3.48722,2.75102 -1.10819,0 -2.01486,0.6852 -2.01486,1.52268 0,0.83748 0.97909,1.14697 2.17576,0.68781 1.19672,-0.45906 5.06538,-0.91926 8.59706,-1.02225 3.72023,-0.10865 4.97471,-0.4471 2.98241,-0.80426 -7.07099,-1.26851 -6.00637,-3.135 1.78819,-3.135 4.31228,0 7.84047,0.61897 7.84047,1.37551 0,0.75653 -1.39272,1.45983 -3.09492,1.56282 l -3.09492,0.18716 3.20009,0.60987 c 2.0119,0.38368 2.93168,1.30933 2.47725,2.49368 -0.46894,1.222659 -0.026,1.615379 1.27034,1.118889 1.09627,-0.420579 1.99323,-1.248859 1.99323,-1.840389 0,-0.59152 1.05952,-0.98954 2.35445,-0.88447 1.29498,0.10501 2.58985,-0.95196 2.8775,-2.34894 0.41799,-2.02921 -0.0556,-2.35632 -2.35445,-1.62672 -2.09658,0.6654 -2.8775,0.31921 -2.8775,-1.27512 0,-1.708799 1.11884,-2.065079 5.10572,-1.625719 2.80815,0.30933 5.33567,1.252499 5.61672,2.095699 0.73205,2.19619 2.75247,1.89149 3.27584,-0.49389 0.29737,-1.354659 1.07683,-1.631759 2.35034,-0.835399 5.288,3.306929 -5.72225,17.038038 -17.1665,21.408647 -8.61011,3.28826 -20.53025,11.437119 -28.01065,19.148708 -3.3727996,3.477089 -7.0867395,6.273069 -8.2531495,6.213339 -1.55305,-0.0796 -1.63441,-0.3031 -0.30413,-0.83488 1.20093,-0.47986 0.5648,-1.37582 -1.87663,-2.64242 -4.77674,-2.478229 -6.17382,-2.382049 -2.77222,0.1908 1.46856,1.11073 2.00857,2.01954 1.20009,2.01954 -0.80852,0 -2.24059,-0.92851 -3.18241,-2.06331 -0.94177,-1.134809 -1.25126,-2.063319 -0.68775,-2.063319 0.56355,0 0.25422,-0.92846 -0.68776,-2.06326 -0.94182,-1.1348 -2.33136,-2.06331 -3.0878999,-2.06331 -0.75653,0 -0.52602,1.02983 0.5120899,2.28852 3.35132,4.062529 -4.3080695,-0.58668 -10.1227595,-6.144449 -2.82312,-2.6984 -5.55698,-4.48222 -6.0752,-3.96395 -0.51833,0.51832 -0.21991,0.94229 0.66248,0.94229 0.88266,0 1.60478,0.79958 1.60478,1.77685 0,2.021879 9.50337,11.429958 16.1066695,15.945248 l 4.41469001,3.018699 -5.57939001,5.04064 -5.5793895,5.040629 -5.99805,-6.814009 c -6.50463,-7.389469 -11.81378,-17.318198 -14.377793,-26.887847 -0.893212,-3.333649 -2.230717,-7.209129 -2.972279,-8.612239 -1.010445,-1.911819 -0.924924,-2.289459 0.341564,-1.50688 1.023807,0.63275 1.337452,0.47465 0.795942,-0.401869 -0.49129,-0.79527 -0.04679,-3.45473 0.983307,-5.90988 1.224219,-2.911559 2.140829,-3.798059 2.635809,-2.549249 0.52815,1.332509 0.79189,1.147899 0.86743,-0.60717 0.1414,-3.2852 -2.484631,-2.33963 -5.787139,2.083639 -1.809091,2.42312 -2.60732,5.70759 -2.569628,10.573599 0.03639,4.81329 -0.500128,7.058609 -1.690038,7.058609 -2.202486,0 -8.039531,-6.106029 -6.913515,-7.232049 0.461137,-0.46113 0.329606,-1.65297 -0.291655,-2.64901 -1.889672,-3.029469 -1.981016,-6.623989 -0.168962,-6.646299 1.129083,-0.0156 1.009198,-0.47465 -0.352481,-1.35445 -1.749408,-1.130539 -1.684734,-1.336619 0.425265,-1.354499 1.368593,-0.0104 2.140308,-0.58414 1.71494,-1.27242 -0.994174,-1.60862 0.529501,-5.62623 2.133758,-5.62623 0.675588,0 1.228329,0.92846 1.228329,2.06326 0,2.58564 1.021311,2.61403 3.537079,0.0983 2.291699,-2.2917 2.54405,-4.490229 0.590224,-5.141859 -0.756119,-0.25214 5.583393,-0.65973 14.087853,-0.90574 8.50447,-0.2459 15.6861396,-0.6707 15.9592796,-0.94379 0.2729399,-0.27294 2.0206899,0.0832 3.8834799,0.7911 1.86285,0.70829 5.77102,1.28776 8.68486,1.28776 z m -23.6167495,3.690709 c 0.99292,0.39719 2.17935,0.34832 2.63643,-0.10866 0.45698,-0.45697 -0.35508,-0.78216 -1.8054,-0.72243 -1.60238,0.066 -1.92835,0.39199 -0.83103,0.83104 z m 12.2937395,-0.0312 c 0.94566,0.38159 2.49315,0.38159 3.43882,0 0.94567,-0.3816 0.17208,-0.69379 -1.71941,-0.69379 -1.89134,0 -2.66508,0.31245 -1.71941,0.69379 z m -19.9189295,1.41777 c 1.33834,0.34884 3.19531,0.32597 4.12658,-0.052 0.93127,-0.37691 -0.16376,-0.66217 -2.43337,-0.6341 -2.2696,0.026 -3.03154,0.33636 -1.69321,0.68505 z m 59.465269,7.299889 c -0.46737,0.75654 -0.19443,1.37551 0.6066,1.37551 0.80119,0 1.45672,-0.61897 1.45672,-1.37551 0,-0.75653 -0.27294,-1.37551 -0.6066,-1.37551 -0.33377,0 -0.98914,0.61898 -1.45672,1.37551 z m -61.582489,2.85396 c 0.82651,3.16058 1.20951,3.282179 2.20093,0.69872 0.41122,-1.07221 -0.0712,-2.26389 -1.07268,-2.64818 -1.24304,-0.47726 -1.60103,0.1414 -1.12825,1.94946 z m 42.669019,2.37222 c -2.837,0.24331 -5.1582296,1.061549 -5.1582296,1.818759 0,1.15342 11.9980796,0.38628 13.4706996,-0.86139 0.98409,-0.833689 -3.59749,-1.361319 -8.31247,-0.957369 z m -39.546339,4.402479 c 0.80977,1.51307 1.7818,2.75107 2.16006,2.75107 0.37848,0 0.026,-1.238 -0.78455,-2.75107 -0.80977,-1.51307 -1.7818,-2.75101 -2.16007,-2.75101 -0.37847,0 -0.026,1.23794 0.78456,2.75101 z m -2.06326,2.75107 c 1.17364,2.269599 2.4434,4.126569 2.82167,4.126569 0.37847,0 -0.27242,-1.85697 -1.44616,-4.126569 -1.17369,-2.2696 -2.44346,-4.12658 -2.82172,-4.12658 -0.37848,0 0.27241,1.85698 1.44621,4.12658 z m 31.6370395,0 c 0.46738,0.75653 2.01507,1.37551 3.4388199,1.37551 1.42381,0 2.9712396,-0.61898 3.4388296,-1.37551 0.49752,-0.80468 -0.92982,-1.37551 -3.4388296,-1.37551 -2.5090099,0 -3.9361399,0.57083 -3.4388199,1.37551 z m -22.7916895,6.448689 c 2.50022,3.16853 5.52153,6.135349 6.71403,6.592949 1.7622,0.67621 1.70663,0.32181 -0.29685,-1.89154 -1.35565,-1.497989 -2.05817,-3.381589 -1.56111,-4.185789 0.50533,-0.81742 -0.14608,-1.46223 -1.47636,-1.46223 -1.30902,0 -3.62785,-1.08323 -5.15293,-2.40716 -1.52513,-1.323939 -0.72727,0.18508 1.77296,3.35377 z m 14.5385395,-2.71681 c -4.1813199,1.00577 -5.8486399,3.14576 -2.45089,3.14576 3.84012,0 7.26522,-1.36636 7.26522,-2.89824 0,-1.29249 -0.38731,-1.31235 -4.81433,-0.24747 z M -46.822957,-91.071893 c 0.418506,0.67725 -0.13257,1.57421 -1.224326,1.99323 -1.324299,0.50845 -1.73064,0.0983 -1.220426,-1.23139 0.886661,-2.31063 1.39048,-2.46768 2.444752,-0.76184 z m -5.48893,20.234178 c 3.77659,5.863559 12.565949,16.482848 22.447838,27.121537 12.17599,13.108378 13.56725,16.439218 11.72941,28.081796 -0.80759,5.11576 -3.54935,13.7889286 -6.09288,19.2736979 -5.06159,10.9147391 -7.62284,13.4131981 -4.2305,4.1268295 4.04256,-11.0663886 1.94124,-41.5770854 -2.66731,-38.7288154 -1.007175,0.62245 -1.216948,0.37847 -0.57193,-0.66523 1.2721,-2.05832 -1.769422,-5.940189 -3.713059,-4.738939 -0.801088,0.49493 -1.02417,0.22511 -0.506366,-0.61305 0.512605,-0.82953 -1.738335,-3.72517 -5.04365,-6.488089 -3.283221,-2.74442 -7.11679,-6.96306 -8.519072,-9.374699 -1.40223,-2.41158 -2.933287,-4.69424 -3.402274,-5.0725 -0.468935,-0.37848 -2.217875,-3.044339 -3.886285,-5.924599 -2.314002,-3.99473 -3.033521,-7.447639 -3.033521,-14.557668 0,-11.774899 1.519828,-13.475279 3.441681,-3.85052 0.815854,4.08577 2.63737,9.220399 4.047814,11.410249 z m 106.679057,-5.68384 c 0,0.3582 -1.18991,3.2982 -2.64428,6.53374 -1.45443,3.235499 -3.39531,7.915799 -4.31311,10.400688 -0.93059,2.51936 -5.55412,7.929 -10.45184,12.229009 -8.12386,7.132339 -21.10545,23.551167 -21.10545,26.693707 0,2.48889 -6.9047896,15.019178 -8.2763396,15.019178 -0.7437999,0 -1.3523199,0.79313 -1.3523199,1.7625098 0,0.9694299 -2.98933,8.861519 -6.64292,17.5379582 -6.59077,15.651458 -6.72152,15.834868 -16.6403795,23.340787 -5.4986,4.160989 -10.98322,9.422369 -12.18805,11.691979 -1.38148,2.602479 -2.49965,9.460938 -3.027485,18.569557 l -0.836909,14.443039 -3.900218,-8.091259 c -3.181219,-6.59961 -3.975705,-10.280379 -4.309678,-19.966488 -0.395112,-11.461919 -0.213673,-12.281469 5.22249,-23.545837 3.097622,-6.418789 5.68799,-11.980039 5.75636,-12.358359 0.0681,-0.37847 1.75143,-2.854209 3.74014,-5.502079 6.35964,-8.4675991 9.07296,-15.3360983 11.68293,-29.573777 0.41591,-2.269609 1.63103,-5.105309 2.69991,-6.301509 1.06893,-1.1962 1.6106,-2.50776 1.20374,-2.914619 -0.40655,-0.40707 2.4575896,-3.76105 6.3653495,-7.45376 3.90781,-3.692679 10.27446,-9.772668 14.1481099,-13.510938 3.8736496,-3.73833 7.5532796,-6.663189 8.1769396,-6.499689 0.6236,0.16376 0.80265,-0.23863 0.39771,-0.89358 -1.07632,-1.7415 5.69589,-6.336749 18.67817,-12.674079 6.28492,-3.067989 12.3335,-6.480189 13.44127,-7.582659 1.95908,-1.949669 4.17571,-2.668199 4.17571,-1.35352 z m -12.69893,15.855309 c -0.94494,1.513069 -2.41419,2.751069 -3.26497,2.751069 -0.85079,0 -3.12071,1.23794 -5.04428,2.75106 -1.92357,1.51307 -4.94726,2.75336 -6.71923,2.75617 -5.22998,0.0104 -12.47196,5.107019 -11.51891,8.109819 0.62709,1.975759 -0.82978,3.577259 -6.4506596,7.090999 -8.1978899,5.124749 -13.4505799,9.486339 -13.4505799,11.168788 0,2.26836 4.8843,1.06535 6.55843,-1.615329 0.94489,-1.51307 2.90859,-2.75101 4.36375,-2.75101 1.4551499,0 3.9680095,-1.85695 5.5841195,-4.12656 3.99042,-5.604029 6.03174,-5.317779 4.9051,0.68776 -0.56423,3.00766 -0.3634,4.8143 0.5347,4.8143 0.7908,0 1.45749,-1.08323 1.48157,-2.40716 0.026,-1.32392 0.91005,-3.550519 1.96879,-4.948019 1.0588,-1.39745 1.58887,-3.41704 1.1779,-4.48795 -0.9715,-2.531729 1.71926,-5.688199 7.01651,-8.230949 8.91803,-4.280829 11.77292,-6.283829 14.58512,-10.233229 1.59818,-2.244439 2.2499,-4.080779 1.44824,-4.080779 -0.80166,0 -2.23066,1.23795 -3.1756,2.75102 z M 3.8265405,-24.964781 c -1.6968,2.15175 -3.46944,4.91389 -3.93921,6.13816 -0.46997,1.224219 -1.55747,2.117279 -2.41704,1.984609 -3.7414,-0.57765 -11.1477095,4.91555 -9.7269195,7.2144195 0.29321,0.47413 2.08801,0.56511 3.9885496,0.20171 1.9005899,-0.36339 3.1167999,-1.2087795 2.7027199,-1.8787995 -0.41435,-0.67003 0.22822,-1.21825 1.42687,-1.21825 1.96916,0 1.95975,0.42579 -0.0972,4.4032093 -2.82422,5.4613794 -5.2748899,7.97651909 -7.7720995,7.97651909 -2.17556,0 -6.77097,4.66028941 -9.15541,9.28480891 -1.38554,2.6870697 -1.24907,3.0949197 1.03519,3.0949197 3.02416,0 6.33644,-3.3900597 5.16473,-5.2859695 -0.43514,-0.7039699 0.13049,-2.0448597 1.25708,-2.9797596 1.70938,-1.4186098 2.04813,-1.1941299 2.04813,1.3572598 0,1.6813498 -2.1664,5.2234693 -4.81433,7.8713393 -2.64787,2.647869 -4.81433,5.125739 -4.81433,5.506349 0,0.38056 -2.73978,3.73931 -6.08846,7.463809 -5.803561,6.454979 -9.084442,14.078449 -6.921622,16.083018 0.553884,0.51312 1.306311,0.0905 1.672101,-0.93928 0.365998,-1.029889 2.138071,-3.153249 3.938271,-4.718509 1.80026,-1.56527 3.27314,-3.83867 3.27314,-5.051919 0,-2.61735 13.69612,-21.199498 14.80664,-20.088968 0.42111,0.4211 -0.2459,1.88353 -1.48213,3.24968 -2.19817,2.428949 -6.44687,12.901948 -6.44687,15.891488 0,0.82849 2.08401,-0.64206 4.63118,-3.26788 4.2968796,-4.429509 4.6286196,-5.414429 4.5953996,-13.642108 -0.0208,-5.5302596 0.56428,-9.0679692 1.55866,-9.3994391 0.8769399,-0.29218 1.5944899,-1.3326199 1.5944899,-2.3117198 0,-2.15163971 3.86533,-5.5878593 5.0044,-4.4488494 0.44606,0.4460599 -0.49701,2.474909673024 -2.09654,4.5081194 -3.00706,3.8228096 -3.6892,8.2179489 -1.74987,11.2740389 1.3544,2.13428 3.70058,-2.43139 5.10993,-9.944069 0.71187999,-3.79447958 0.35144,-5.6386094 -1.5034,-7.6879391 -1.4002,-1.5472198 -1.76292,-2.6960097 -0.85115,-2.6960097 0.87382,0 1.51541,-0.4642599 1.42583001,-1.0316599 -0.0894,-0.5673999 -0.0104,-1.4959098 0.17207999,-2.0633093 0.18404,-0.5674 0.43255,-1.49586 0.55181,-2.06326 0.11905,-0.5674 1.7441,-3.65759 3.61074,-6.867039 3.63565,-6.25124 6.3958699,-8.046449 3.87922,-2.52305 -0.88074,1.93309 -1.11603,5.480879 -0.55997,8.444729 l 0.9588199,5.1111293 1.77146,-3.4144393 C 12.41945,-16.924992 13.47102,-24.863351 11.63953,-27.0702 9.2797204,-29.91355 7.3106605,-29.3829 3.8266605,-24.964781 Z M 57.64218,-67.199986 c -0.52051,3.97186 -2.74109,11.554409 -4.93463,16.850198 -4.58792,11.076539 -8.58489,23.314838 -10.635,32.563246 -1.92871,8.7006695 1.15664,28.901207 6.60101,43.218335 6.07682,15.980378 7.44671,22.347658 6.47552,30.098957 -1.27262,10.156659 -8.59955,27.631396 -12.71667,30.329016 -1.88904,1.23779 -3.70105,1.98414 -4.02665,1.65859 -0.32545,-0.32545 1.59958,-4.23134 4.27812,-8.679509 7.50681,-12.466239 7.98687,-15.653428 5.68093,-37.716246 -0.27658,-2.647869 -2.13439,-7.846709 -4.12804,-11.552958 -1.99364,-3.70625 -3.62483,-7.583279 -3.62483,-8.615659 0,-1.03244 -0.61445,-2.95195 -1.36542,-4.2656 -3.64553,-6.377099 -5.21943,-14.9118678 -4.95486,-26.868716 0.24591,-11.113239 0.81216,-13.741409 4.63726,-21.523678 2.39645,-4.875619 4.06497,-9.156909 3.70786,-9.514019 -0.93376,-0.93377 -1.08578,-0.69893 -8.01889,12.389009 l -6.29964,11.892128 1.88318,11.633379 c 1.70506,10.5329987 4.17399,18.617908 13.01169,42.609075 1.98315,5.383449 2.9009,11.105439 2.9009,18.086018 0,8.721619 -0.61429,11.385188 -4.21126,18.260078 -2.31619,4.426909 -5.14238,8.977399 -6.28035,10.112248 -1.84091,1.83571 -1.96105,1.60811 -1.08942,-2.063309 0.53881,-2.2696 1.60457,-5.67406 2.36828,-7.565399 0.76371,-1.89133 1.46706,-4.05779 1.56298,-4.81433 0.0957,-0.75653 0.73023,-4.779959 1.40956,-8.940899 C 41.54934,50.11726 41.43892,49.69298 32.7722,33.092482 27.30703,22.624314 25.10938,16.854594 24.97733,12.627945 24.87595,9.3905753 24.42937,6.7401556 23.98445,6.7381356 23.53943,6.7371356 23.23,3.329986 23.2967,-0.83111353 23.3632,-4.992153 22.97281,-8.3966126 22.42943,-8.3965126 c -0.5437,1.6e-4 -0.65625,-0.8656499 -0.25007,-1.9239294 0.40603,-1.05827 0.0951,-2.32159 -0.69061,-2.80732 -4.82691,-2.98319 -2.63019,22.9479672 2.96438,34.992996 7.56877,16.295488 12.02989,27.395567 11.97843,29.804346 -0.0364,1.63904 -0.70356,1.02786 -1.91177,-1.74754 -1.02183,-2.347369 -3.91348,-6.370809 -6.42582,-8.940899 -2.51233,-2.570099 -4.41755,-4.842819 -4.23382,-5.050509 0.79625,-0.90018 -7.1262,-9.938829 -8.71148,-9.938829 -0.96408,0 -2.14276,-1.016 -2.61928,-2.257799 -0.75347,-1.96355 -0.54853,-2.01522 1.57228,-0.39615 1.34125,1.023759 0.70611,-0.0364 -1.41148,-2.35824 -3.1168096,-3.416 -3.8042496,-5.370969 -3.6091896,-10.263909 0.27762,-6.9619091 2.6163696,-16.360678 4.0713696,-16.360678 0.54499,0 1.75154,-1.8363897 2.68124,-4.0808295 0.92966,-2.2444895 2.90262,-4.4656395 4.38434,-4.9358695 1.88052,-0.59688 2.6226,-1.96069 2.45738,-4.516229 -0.12997,-2.01362 -0.17104,-4.34774 -0.091,-5.18698 0.28594,-2.995629 9.62663,-13.445938 14.81278,-16.572878 6.25472,-3.771189 14.57166,-16.729018 17.12039,-26.673717 2.30428,-8.990758 4.32195,-8.724839 3.12461,0.41175 z m -116.042787,20.327288 c 1.499188,2.10537 2.723461,4.660909 2.720654,5.678949 -0.0029,1.01798 -1.231708,-0.16065 -2.730844,-2.619539 -1.663368,-2.72809 -3.836429,-4.47043 -5.575616,-4.47043 -2.803591,0 -2.843061,0.45646 -2.427383,28.069007 0.232388,15.4379479 -0.04159,27.7811765 -0.609101,27.4293165 -1.187814,-0.7365699 -1.425999,-54.2456635 -0.255055,-57.2971135 1.126838,-2.936509 5.670703,-1.29358 8.877345,3.20981 z m 32.299588,1.34 c 1.36932,1.51307 2.18018,2.751069 1.80191,2.751069 -0.37847,0 -1.8081,-1.237999 -3.17742,-2.751069 -1.36932,-1.51307 -2.18019,-2.75102 -1.80192,-2.75102 0.37848,0 1.8081,1.23795 3.17743,2.75102 z m -34.072911,2.20659 c -0.456978,0.456979 -1.643456,0.505849 -2.636418,0.10866 -1.097303,-0.4393 -0.771367,-0.76506 0.831018,-0.83104 1.450059,-0.0598 2.262481,0.26566 1.8054,0.72243 z m 126.92083,1.589129 c 0,0.57452 -1.09347,1.72752 -2.42999,2.56219 -3.79031,2.36709 -10.63286,25.669487 -11.93335,40.6391652 -0.1674,1.9255498 -2.14203,2.8843197 -2.12487,1.0316599 0.0312,-3.15942965 5.12033,-26.9396371 6.96831,-32.5486561 2.51894,-7.645849 9.5199,-16.238538 9.5199,-11.684359 z m 1.37556,8.583999 c 0,0.75654 -0.61903,1.37556 -1.37556,1.37556 -0.75653,0 -1.37551,-0.61902 -1.37551,-1.37556 0,-0.75653 0.61898,-1.3755 1.37551,-1.3755 0.75653,0 1.37556,0.61897 1.37556,1.3755 z M 64.51239,8.6270253 C 58.87945,25.541173 55.73951,32.043723 54.03034,30.334503 52.11317,28.417323 50.33288,16.471234 51.82676,15.547975 c 0.64071,-0.39615 1.16491,2.065499 1.16491,5.469899 0,3.404459 0.61897,6.572419 1.3755,7.039999 1.46446,0.90507 1.51692,0.50689 1.66124,-12.597968 0.0795,-7.2087596 0.52633,-8.6812194 2.99874,-9.8794493 1.59797,-0.7744199 2.18964,-1.4499598 1.31478,-1.5011598 -2.04912,-0.1201 -0.67907,-5.5880793 1.40723,-5.6162493 0.85739,-0.0104 0.63046,-0.63057 -0.50429,-1.3755599 -1.29404,-0.8494399 -1.55045,-1.7390698 -0.68776,-2.3861097 2.34208,-1.7565298 1.5033,-6.206059 -1.38221,-7.332389 -2.54686,-0.99417 -2.55902,-1.07824 -0.16896,-1.16792 2.14836,-0.0806 2.28723,-0.44398 0.83706,-2.19146 -1.43831,-1.73309 -1.37982,-1.957159 0.33845,-1.29774 2.54961,0.97837 4.00367,-3.488409 2.19042,-6.728589 -0.9911,-1.77098 -0.65531,-2.258629 1.55539,-2.258629 1.6576,0 2.93895,-0.99194 3.10947,-2.40717 0.15961,-1.32393 0.49181,4.022239 0.73798,11.880378 0.39407,12.5692289 0.001,15.6276485 -3.26258,25.4291673 z M -60.489136,-16.646692 c -0.467375,0.75653 -1.432591,1.3755 -2.144483,1.3755 -0.711892,0 -1.294343,-0.61897 -1.294343,-1.3755 0,-0.75654 0.965007,-1.375509 2.144472,-1.375509 1.17946,0 1.761886,0.618969 1.294354,1.375509 z m -8.597989,30.949337 c 0.860287,2.269599 1.908794,4.436059 2.330014,4.814329 1.341081,1.20431 5.582873,11.031559 5.512117,12.770259 -0.150247,3.693459 -10.793489,-19.252428 -10.708483,-23.0867277 0.05875,-2.6500997 0.308083,-3.1422796 0.696841,-1.3754998 0.332934,1.5130598 1.309223,4.6079795 2.169511,6.8776395 z M 51.89123,9.7633852 c -1.2838,1.2838498 -1.65063,0.9170198 -1.65063,-1.6506298 0,-2.5676497 0.36704,-2.9344296 1.65063,-1.6506298 1.28385,1.2838498 1.28385,2.0174598 0,3.3012596 z M 6.8101005,13.779065 c -1.07065,1.73231 2.5721699,9.416029 6.8624595,14.474858 1.83337,2.16178 5.87547,6.926979 8.98239,10.589349 6.88134,8.111489 11.55332,16.944778 10.46386,19.783857 -0.44399,1.15736 -0.0842,2.9754 0.79911,4.04012 1.16937,1.40899 1.20556,2.76531 0.13309,4.983859 -0.8105,1.67642 -1.83493,6.09408 -2.27652,9.816959 -0.83036,6.999709 -2.08744,9.638639 -3.16022,6.633869 -0.33948,-0.9504 -1.18304,-1.378099 -1.87496,-0.95045 -0.69191,0.42787 -1.25806,0.17364 -1.25806,-0.564539 0,-0.73818 0.76875,-1.59833 1.70839,-1.91156 1.35388,-0.45126 1.36376,-2.21221 0.0468,-8.487929 C 24.8719,60.914509 10.63962,38.558272 7.1863505,40.692502 c -0.76345,0.472049 -1.00021,0.230309 -0.52607,-0.53688 0.47413,-0.76709 -0.97775,-3.03399 -3.22629,-5.03747 -7.37211,-6.568569 -3.81637,0.85219 4.9371199,10.303679 C 14.54125,52.08398 23.26588,67.714798 22.34922,70.464768 c -0.29373,0.88141 -1.32409,0.12685 -2.28952,-1.6773 C 19.09428,66.983528 13.80296,59.557359 8.3012904,52.28486 -1.1624095,39.775112 -5.6746295,30.121143 -2.0579595,30.121143 c 0.86129,0 1.21533001,-0.56741 0.78669,-1.26093 -1.10288,-1.78455 6.19727,-18.110398 7.68658,-17.189998 0.67559,0.41747 0.85302,1.36656 0.39407,2.10885 z m -14.30532,26.553317 C -10.968249,50.4269 -12.386339,52.83505 -18.671319,59.311299 c -3.48556,3.59166 -6.01245,7.856939 -7.06662,11.928149 l -1.64085,6.337329 -1.08422,-8.253149 c -0.59631,-4.539259 -0.6537,-9.181609 -0.12737,-10.316469 0.52617,-1.1348 1.06108,-2.682229 1.18866,-3.438769 1.00951,-5.98697 4.48737,-10.739649 11.70533,-15.995928 4.49081,-3.27027 8.1650296,-6.46168 8.1650296,-7.092039 0,-0.63036 0.5811799,-0.78695 1.2914499,-0.3478 0.75586,0.467369 0.2355,3.867619 -1.25521,8.199909 z M -55.604674,68.755288 c 0.811227,4.98319 2.636174,10.969749 4.055456,13.303509 2.549665,4.192649 2.539579,4.404139 -0.845331,17.743467 -2.683431,10.574846 -3.10438,14.205556 -1.942649,16.755326 l 1.483124,3.25509 2.816053,-3.58002 c 3.513165,-4.46622 4.516644,-4.47802 6.522147,-0.0764 1.956946,4.29501 2.031133,6.32755 0.110735,3.03024 -1.789959,-3.07319 -4.875052,-3.0866 -6.586352,-0.0312 -1.250424,2.23441 -1.504595,2.22146 -4.194888,-0.21315 -3.608616,-3.26576 -3.671678,-9.1904 -0.238627,-22.407295 2.519252,-9.698419 2.519356,-10.044459 0.0046,-15.130738 -3.551532,-7.183179 -5.413443,-18.091738 -5.205178,-30.496417 l 0.175721,-10.472588 1.185022,9.628718 c 0.651778,5.29574 1.84881,13.705789 2.660088,18.688978 z M -3.6217795,48.749501 c -1.58133,2.680149 -3.11072,4.637519 -3.39863,4.349599 -1.1793599,-1.1794 2.65052,-9.222679 4.3915,-9.222679 1.40592,0 1.15461,1.23332 -0.99287,4.87308 z m 4.34347,0.629009 c 0,0.75653 -0.61897,1.3755 -1.37551,1.3755 -0.75653,0 -1.3755,-0.61897 -1.3755,-1.3755 0,-0.756539 0.61897,-1.375509 1.3755,-1.375509 0.75654,0 1.37551,0.61897 1.37551,1.375509 z m 6.34788,11.277199 c 4.1206995,3.93282 7.2253995,7.845879 6.8992695,8.695729 -0.32596,0.84986 0.53309,2.24834 1.90928,3.10776 1.45967,0.91162 3.20846,4.718879 4.19748,9.138199 1.41081,6.304159 1.37182,7.969919 -0.23238,9.925258 -1.73189,2.11119 -1.61341,2.26877 1.16734,1.55221 2.02204,-0.52108 3.09492,-0.18248 3.09492,0.97655 0,0.97577 -1.33002,2.12191 -2.95559,2.54701 -8.31548,2.17452 -16.8727195,-3.9992 -16.5735195,-11.957209 0.11385,-3.035029 -0.75571,-5.504629 -2.49232,-7.076239 -2.49435,-2.25734 -2.89304999,-2.26628 -6.1416,-0.13777 -2.73318,1.79089 -3.4740699,3.42161 -3.4740699,7.646859 0,6.808029 -4.7983696,11.072329 -12.4591096,11.072329 h -5.21053 l 0.7857,-10.660319 c 0.43202,-5.863189 1.31291,-10.866659 1.9572,-11.118798 0.64435,-0.25214 1.17151,-1.59745 1.17151,-2.98944 0,-3.50422 6.58989,-11.019189 8.88907,-10.136889 1.07029,0.41071 3.2294696,-1.10127 5.0080395,-3.50693 1.71962,-2.325909 3.99063,-4.228889 5.04672,-4.228889 1.05609,0 5.29168,3.21777 9.41244,7.150579 z m -16.3101499,4.47043 c -2.3944796,2.132769 -3.2202096,3.701359 -2.2606096,4.294449 0.8315,0.51364 3.0183896,-0.69046 4.8597695,-2.67626 3.57701,-3.857689 5.31326,-4.438969 6.67536,-2.235029 0.46737,0.75653 -0.26982,1.40343 -1.63821,1.43758 -1.70953,0.0416 -1.19682,0.693059 1.63821,2.078289 3.46778,1.6943 3.59697,1.9153 0.80924999,1.38408 -3.70947999,-0.70688 -8.37464989,1.28183 -8.37464989,3.56999 0,1.03727 0.5827399,1.01196 1.9015299,-0.0827 1.04585,-0.86795 3.76962,-1.43576 6.05284,-1.26181 5.26575,0.40135 9.2522199,-2.56115 7.03751,-5.22966 -0.85157,-1.026099 -2.11249,-1.516919 -2.80207,-1.090769 -0.68957,0.4263 -1.08364,-0.0468 -0.87579,-1.04679 0.72388,-3.48873 -8.85107,-2.85754 -13.0231399,0.85849 z m -8.5868096,1.747379 -2.41543,3.82562 3.18434,-3.05671 c 1.75138,-1.681199 2.83835,-3.402739 2.41543,-3.825619 -0.42267,-0.42266 -1.85583,0.95264 -3.18434,3.056709 z m -2.1387,20.653358 c -3.20388,3.741859 -3.04579,4.910199 0.71874,5.311549 2.22729,0.23759 3.46274,-0.31817 3.46274,-1.55705 0,-1.059469 0.82932,-1.608049 1.84293,-1.219129 1.01362,0.38887 2.60784,-0.21471 3.5428,-1.34104 1.4017096,-1.68894 1.2594196,-2.02962 -0.81128,-1.94223 -1.38112,0.0582 -3.44812,-0.29634 -4.59338,-0.78788 -1.20363,-0.51677 -2.95995,0.13101 -4.16255,1.53578 z m 32.377209,-1.00504 c -0.52992,0.8574 -1.82932,1.22667 -2.8876396,0.82054 -3.1057899,-1.19178 -2.2208399,2.93807 1.1329796,5.287159 4.01703,2.81366 7.57402,2.94332 5.29142,0.19288 -1.27823,-1.54011 -1.13755,-2.044499 0.67123,-2.407169 2.01907,-0.40499 1.96282,-0.75248 -0.4783,-2.95559 -1.92596,-1.73823 -3.0591,-2.02312 -3.72985,-0.93787 z M 0.75195049,82.816167 c 0.0468,4.626129 4.80575001,14.083168 8.32972991,16.551418 l 3.1555396,2.210235 -4.2653396,-0.30829 c -2.3459199,-0.16949 -4.1866699,-0.61804 -4.0905399,-0.99631 0.28697,-1.129185 -3.7401,-6.877635 -4.81817999,-6.877635 -0.54822001,0 -3.18169001,1.91842 -5.85223001,4.26315 -2.7763799,2.437725 -6.6367295,4.386455 -9.0156595,4.551105 -4.67984,0.32389 -4.9286,-2.369886 -0.2823,-3.055295 4.23882,-0.62527 11.3064295,-9.242129 11.3064295,-13.784869 0,-4.015369 2.40041,-7.483929 4.3468,-6.281029 0.6354,0.39252 1.1689,2.07023 1.18553999,3.72783 z M -41.919572,89.956506 c 1.776858,1.891329 2.921122,3.438819 2.542855,3.438819 -0.378475,0 -2.141556,-1.54749 -3.918362,-3.438819 -1.776858,-1.89134 -2.921122,-3.43882 -2.542855,-3.43882 0.378475,0 2.141557,1.54748 3.918362,3.43882 z m -2.079378,2.048129 c 4.361043,4.09699 23.749891,13.770415 27.600621,13.770415 1.85063,0 3.33687,0.77374 3.30276,1.71941 -0.10293,2.84631 -3.82551,10.13455 -4.04001,7.90924 -0.12321,-1.28016 -0.67096,-0.88894 -1.44257,1.03073 -1.22027,3.0358 -1.33501,3.05041 -6.10266,0.77686 -2.67246,-1.27439 -4.85904,-2.7924 -4.85904,-3.37332 0,-0.58092 -2.01169,-2.01528 -4.470422,-3.18741 -2.45879,-1.17212 -6.448636,-3.98662 -8.866354,-6.2544 -2.417719,-2.26779 -4.684151,-4.1232 -5.036476,-4.1232 -0.893992,0 -0.330126,3.10121 0.931164,5.11935 1.159028,1.85479 -2.688786,8.63589 -4.900319,8.63589 -1.676,0 -0.162203,-11.05398 1.779926,-12.9987 0.717855,-0.71874 1.305167,-3.658935 1.305167,-6.533735 0,-5.958439 0.713228,-6.328699 4.798213,-2.49113 z m 18.585681,6.89277 c 0,0.756539 -0.27294,1.375555 -0.6066,1.375555 -0.33377,0 -0.98913,-0.619016 -1.45666,-1.375555 -0.46738,-0.75653 -0.19444,-1.37551 0.60655,-1.37551 0.80119,0 1.45671,0.61898 1.45671,1.37551 z m 27.3473795,1.719405 c -0.15596,0.94567 1.05474,4.71093 2.69071,8.36722 1.63602,3.65623 2.9745099,7.79149 2.9745099,9.18941 0,2.76094 -5.5453899,12.20821 -7.2214899,12.30283 -0.5674,0.0312 -1.03166,-6.85378 -1.03166,-15.30183 0,-8.44801 -0.46425,-14.89867 -1.03165,-14.33486 -0.5674,0.56387 -1.3411,7.20715 -1.71941,14.76282 l -0.68776,13.73767 -4.3178899,-4.23118 c -3.2433496,-3.17826 -4.5039096,-3.74638 -5.0654296,-2.28307 -0.88084,2.29544 3.5842296,6.8111 5.2450496,5.30448 0.62729,-0.56902 0.7508699,-0.35092 0.2745,0.48453 -0.47622,0.83571 0.6373199,2.93173 2.4746399,4.65774 l 3.34051,3.13828 7.24578,-6.98474 c 4.9323395,-4.7547 7.5784995,-6.46138 8.2879295,-5.3455 0.57322,0.90158 1.05172,1.99953 1.06332,2.43987 0.0312,1.10215 -15.1604795,12.26686 -16.6889395,12.26686 -0.67835,0 -4.08727,-2.63067 -7.5754299,-5.84599 -3.4882096,-3.21527 -6.7085796,-5.64479 -7.1564096,-5.39894 -0.44762,0.24591 -1.03607,-0.21835 -1.30714,-1.0316 -0.27086,-0.81331 0.21419,-1.47871 1.07845,-1.47871 0.8642,0 1.23987,-0.53626 0.83483,-1.19167 -0.40499,-0.65542 0.48661,-2.29882 1.9821,-3.65203 1.49524,-1.35315 2.72243,-3.13812 2.72705,-3.9665 0.005,-0.82844 0.92987,-3.27288 2.0560396,-5.43211 1.12612,-2.15918 1.78211,-4.35522 1.4578,-4.87999 -0.83186,-1.34598 0.8222499,-3.54259 4.0430899,-5.36899 3.66387,-2.077665 6.37647,-2.043555 6.02675,0.0759 z M -31.754189,117.3646 c -0.443456,1.15503 0.72321,2.92783 2.8382,4.31358 3.12887,2.05011 3.34655,2.6382 1.69249,4.57284 -1.04398,1.2211 -2.3021,3.35486 -2.79573,4.74176 -0.49389,1.38684 -1.67101,2.26404 -2.616262,1.94935 -2.496689,-0.83124 -2.691022,-17.53843 -0.203795,-17.53843 1.025837,0 1.505327,0.86639 1.085307,1.9609 z m 62.049719,8.3512 c 0,4.15886 -0.49285,7.56342 -1.09566,7.56566 -0.6026,0.002 -2.15003,-1.8486 -3.43882,-4.11306 -2.77477,-4.87542 -4.92382,-4.6801 -5.53551,0.50325 -0.3608,3.05608 -1.86878,4.39021 -8.25315,7.30119 -4.2965296,1.95903 -8.8721795,4.08821 -10.1681495,4.73151 -4.80627,2.3858 -1.02042001,-2.32455 4.04236,-5.02946 2.7810599,-1.48587 8.0117195,-5.60242 11.6236595,-9.14787 5.98537,-5.87525 10.3369,-9.22044 12.13746,-9.33071 0.37848,-0.026 0.68781,3.36063 0.68781,7.51949 z m -50.206719,-0.87163 c 0,1.40956 3.06846,5.43293 6.81874,8.9409 6.8717195,6.42774 6.6029395,8.00064 -0.76142,4.45525 -2.19671,-1.05755 -5.54149,-2.32134 -7.43282,-2.80841 l -3.43883,-0.88563 3.43883,2.07195 c 3.06913,1.84917 3.14306,2.07516 0.68775,2.10189 -4.10656,0.0468 -8.94091,-1.46966 -8.94091,-2.80077 0,-0.64455 0.92852,-0.81565 2.06332,-0.38004 1.35939,0.52165 2.06326,-0.0468 2.06326,-1.66492 0,-3.46695 3.08618,-11.59294 4.40289,-11.59294 0.60458,0 1.09919,1.15331 1.09919,2.56282 z m 54.235969,12.22407 c -1.31957,2.45874 -2.92071,4.47048 -3.55814,4.47048 -1.75081,0 -1.40051,-1.79402 1.02709,-5.25987 1.20228,-1.7165 1.90261,-3.86591 1.55627,-4.77654 -0.34624,-0.91057 0.0312,-3.20305 0.83826,-5.09439 1.44663,-3.38886 1.47569,-3.36884 2.00181,1.37551 0.32025,2.88712 -0.42631,6.60393 -1.86529,9.28481 z m -8.80574,-1.76506 c -1.59266,1.91905 -21.9415195,9.54985 -22.9028395,8.58853 -0.32181,-0.32181 4.12293,-2.30199 9.8769495,-4.40061 5.75402,-2.09861 10.78561,-4.6593 11.18135,-5.69049 0.39563,-1.03113 1.3036,-1.51374 2.01761,-1.07246 0.79127,0.48921 0.72373,1.49451 -0.17312,2.57503 z"
       id="path2247" /></g></svg>
