<?xml version="1.0" encoding="UTF-8" standalone="no"?>
<!-- Created with Inkscape (http://www.inkscape.org/) -->

<svg
   width="210mm"
   height="297mm"
   viewBox="0 0 210 297"
   version="1.1"
   id="svg2257"
   xml:space="preserve"
   inkscape:version="1.2.2 (732a01da63, 2022-12-09)"
   sodipodi:docname="Thor.svg"
   xmlns:inkscape="http://www.inkscape.org/namespaces/inkscape"
   xmlns:sodipodi="http://sodipodi.sourceforge.net/DTD/sodipodi-0.dtd"
   xmlns="http://www.w3.org/2000/svg"
   xmlns:svg="http://www.w3.org/2000/svg"><sodipodi:namedview
     id="namedview2259"
     pagecolor="#ffffff"
     bordercolor="#000000"
     borderopacity="0.25"
     inkscape:showpageshadow="2"
     inkscape:pageopacity="0.0"
     inkscape:pagecheckerboard="0"
     inkscape:deskcolor="#d1d1d1"
     inkscape:document-units="mm"
     showgrid="false"
     inkscape:zoom="1.6819304"
     inkscape:cx="307.3849"
     inkscape:cy="259.22595"
     inkscape:window-width="2560"
     inkscape:window-height="1494"
     inkscape:window-x="-11"
     inkscape:window-y="-11"
     inkscape:window-maximized="1"
     inkscape:current-layer="layer1" /><defs
     id="defs2254" /><g
     inkscape:label="레이어 1"
     inkscape:groupmode="layer"
     id="layer1"><path
       style="fill:#000000;stroke-width:1.59937"
       d="m -73.635065,-153.27612 -4.140621,4.92084 v 90.317369 90.317362 l 6.648277,12.319842 c 3.656547,6.775892 8.267399,14.119099 10.246432,16.318232 3.978497,4.421107 10.011763,23.089231 11.256283,34.828998 0.779616,7.354507 0.585757,7.766167 -7.3253,15.551367 -9.231315,9.0845 -12.284522,12.31918 -22.477033,23.81287 -10.514344,11.85666 -11.304013,13.09293 -10.200429,15.96882 0.835935,2.17841 3.782281,2.60179 18.106645,2.60179 h 17.108275 l 5.425582,-5.59787 c 7.780908,-8.02783 13.303811,-7.66005 22.277484,1.48348 6.630876,6.75638 7.489307,7.13189 18.7092602,8.18327 6.4677239,0.60605 15.8260448,0.59361 20.7962038,-0.0301 8.01738,-1.00168 9.760955,-1.92481 15.456624,-8.18326 8.186099,-8.99489 12.129107,-9.12117 20.509489,-0.65667 l 6.333887,6.39751 h 16.56048 c 13.62564,0 16.732583,-0.44855 17.531293,-2.52985 1.721951,-4.48725 1.041178,-6.14808 -5.332788,-13.01021 -3.445034,-3.70899 -8.508649,-10.00655 -11.252485,-13.9946 -2.743824,-3.98806 -5.951052,-7.25094 -7.127088,-7.25094 -1.176024,0 -3.201239,-1.61938 -4.500407,-3.5986 -1.299109,-1.97933 -4.723045,-5.90426 -7.608696,-8.72228 -4.8015,-4.68895 -5.16456,-5.72208 -4.279764,-12.177476 1.711295,-12.485465 7.623011,-28.003538 11.681063,-30.66244 4.450717,-2.916294 10.15908,-13.65147 14.83848,-27.905666 3.24144,-9.874079 3.356904,-13.187166 3.356904,-96.350287 v -86.124511 l -3.598584,-5.55561 -3.598632,-5.55556 -70.6301037,-0.0181 -70.6301123,-0.0181 z m 146.142664,1.39534 c 3.329759,4.67621 3.354779,5.49166 2.907828,94.763019 l -0.45095,90.046257 -5.282256,11.995289 c -3.050002,6.92617 -7.221876,13.52398 -9.871955,15.612668 -4.585884,3.614357 -8.441976,13.083366 -12.990203,31.898681 l -2.012821,8.326656 7.481628,7.99845 c 4.114872,4.39913 7.478484,8.56907 7.474668,9.26648 -0.0036,0.69746 -3.107004,-2.1506 -6.895991,-6.32901 -3.788989,-4.17835 -7.744333,-7.59703 -8.789617,-7.59703 -2.729928,0 -2.44878,-2.28642 2.872104,-23.354664 4.426416,-17.52684 5.23674,-19.308577 11.170032,-24.561093 3.518532,-3.114809 7.197636,-7.822511 8.175756,-10.461456 5.866668,-15.828718 6.095472,-19.812844 6.21594,-108.227401 0.11484,-84.417946 0.02424,-87.229706 -2.997228,-89.961386 -2.905776,-2.6297 -7.365504,-2.75278 -66.126852,-1.82475 -39.381048,0.62189 -64.465299,0.41407 -66.889175,-0.55494 -2.599659,-1.03893 18.628319,-1.58333 64.38604733,-1.65128 l 68.26432667,-0.10146 z m -38.419249,2.01689 c 29.892275,-0.43403 32.000615,-0.27323 33.51486,2.55582 1.638876,3.06229 1.008887,28.7828 -0.748056,30.5421 -0.522887,0.52408 -10.248432,1.0555 -21.611652,1.1814 -11.363279,0.12574 -21.7398,0.64312 -23.058912,1.14938 -3.760584,1.44303 -2.840064,-0.77041 2.695656,-6.4818 l 5.094131,-5.25586 -3.439835,-3.6615 c -3.436812,-3.65836 -3.437053,-3.66581 -0.306468,-8.41507 3.395099,-5.15062 4.059852,-8.75194 1.615489,-8.75194 -0.846337,0 -2.982841,3.05886 -4.747825,6.79738 l -3.208992,6.79733 0.333083,-6.2698 c 0.203101,-3.82533 -0.440075,-6.52739 -1.649651,-6.93061 -1.489765,-0.49627 -1.982544,3.34768 -1.982544,15.46623 v 16.12702 H 1.6153782 -13.356878 l 0.835524,-4.37075 c 0.45942,-2.40393 2.518848,-5.69489 4.5763442,-7.31328 4.92186,-3.87158 4.719288,-6.10788 -1.0163879,-11.2184 -3.1472043,-2.80417 -4.4141523,-5.13265 -3.7435923,-6.88011 0.670368,-1.74703 0.311304,-2.40744 -1.059972,-1.95027 -1.540116,0.51322 -1.992216,4.72283 -1.757424,16.36303 l 0.316141,15.67185 -18.089725,-0.49266 c -10.051356,-0.27383 -18.622752,-1.22923 -19.289258,-2.15029 -0.815999,-1.12761 -1.583034,-1.0836 -2.399032,0.13782 -1.559396,2.33388 -14.727559,2.32148 -15.008465,-0.0121 -0.864659,-7.18764 -0.445507,-28.17062 0.562778,-28.17062 0.68815,0 1.071212,-0.8996 0.851301,-1.99923 -0.309498,-1.547 7.276644,-2.01843 33.538547,-2.08414 18.666109,-0.0483 34.48494133,-0.63158 35.15290923,-1.29953 0.6679561,-0.66796 1.40857197,-0.6297 1.64583607,0.0847 0.2369639,0.71475 14.7858347,1.09092 32.3303037,0.83602 z m -35.2032597,4.06209 c -0.2998202,3.29217 0.38688004,28.40033 0.78789603,28.80105 1.84228777,1.84229 5.54635167,-2.70347 8.50809667,-10.44164 4.232207,-11.0573 5.134883,-18.23554 2.408651,-19.15287 -1.341852,-0.45154 -1.999224,1.13332 -1.999224,4.81978 0,6.71533 -2.923068,15.566 -5.140872,15.566 -1.0068959,0 -1.3763517,-3.97129 -0.9672959,-10.39592 0.4962839,-7.79319 0.1426559,-10.39596 -1.4130479,-10.39596 -1.14128387,0 -2.12418,0.53983 -2.1842039,1.19956 z m -8.000088,15.99374 c 0.061679,1.09958 -0.607332,1.99923 -1.4869803,1.99923 -0.879648,0 -1.548756,-2.33907 -1.48692,-5.198 0.09432,-4.35593 0.334884,-4.67977 1.48692,-1.99915 0.7560243,1.75928 1.4251323,4.09837 1.4869803,5.19792 z m 32.5557717,6.31688 c -1.599048,4.16713 -3.65322,1.93029 -3.597973,-3.91779 0.05436,-5.91625 0.0864,-5.94447 2.226397,-2.0798 1.193315,2.15482 1.8105,4.85373 1.371576,5.99759 z m -91.131308,20.07286 c 1.759544,17.230039 1.306178,33.907458 -1.007862,37.072019 -1.969903,2.694015 -2.283573,0.08161 -2.545256,-21.19803 -0.174697,-14.220769 0.321588,-24.270769 1.198639,-24.270769 0.823374,0 1.88286,3.77855 2.354479,8.39678 z m 7.770511,15.365191 c 0.144472,12.001154 0.126338,25.059019 -0.04232,29.017453 -0.330051,7.8503 0.328841,9.318911 5.878401,13.11081 3.575058,2.442614 9.892623,2.223854 9.892623,-0.342745 0,-0.689173 2.69898,-1.240166 5.99766,-1.224459 3.298693,0.01812 9.425845,-0.510791 13.615909,-1.169856 6.264012,-0.985443 7.28964,-1.594406 5.76972,-3.425825 -1.016628,-1.224997 -1.444369,-2.631398 -0.950496,-3.125321 2.601587,-2.601542 4.372979,7.229436 3.984899,22.115755 l -0.42858,16.444928 -8.396699,3.87471 c -8.183796,3.7764886 -8.3967,4.0452408 -8.3967,10.5999494 0,6.2992519 2.619191,10.845435 5.829264,10.1178732 2.018016,-0.4575969 6.965687,1.9437976 6.965687,3.3805374 0,1.257097 -10.840523,-2.0242467 -16.247604,-4.9179921 -2.238539,-1.1980328 -2.944884,-1.0130049 -2.944884,0.7715058 0,1.2911308 1.619364,2.8514913 3.598644,3.4674043 1.979208,0.615914 8.646048,3.440273 14.815272,6.276344 9.864385,4.534878 11.7443536,6.126128 15.5938454,13.198951 2.407499,4.42329 4.361255,10.104144 4.341671,12.624076 l -0.036241,4.581666 -3.12762,-3.998452 c -1.7201844,-2.199125 -3.1436363,-4.639326 -3.1632203,-5.422629 -0.018119,-0.78329 -1.6001399,-4.556933 -3.5123761,-8.385826 -2.894773,-5.79632 -4.837416,-7.470754 -11.60466,-10.002711 -4.4703,-1.672562 -14.440069,-5.998099 -22.154964,-9.6122758 -7.714948,-3.6142363 -16.887205,-7.4639256 -20.382835,-8.5549074 -3.495632,-1.09098082 -6.355645,-2.9760755 -6.355645,-4.1890973 0,-1.8702983 0.410445,-1.8718703 2.698493,-0.01212 2.354843,1.9155027 2.568891,1.8489507 1.680839,-0.5222767 -0.726171,-1.9390224 -0.356649,-2.4637111 1.290703,-1.8316582 1.269665,0.4872127 1.932547,1.4940499 1.473136,2.237391 -1.211334,1.9600586 4.973545,4.8706621 7.934991,3.73422528 1.383189,-0.5301369 2.51491,-0.14991697 2.51491,0.84579682 0,2.9694395 7.547931,5.0652561 11.601807,3.2215124 3.204876,-1.4576657 3.532512,-2.5866755 3.037979,-10.4693902 -0.44491,-7.0952369 0.03025,-9.3096599 2.39909,-11.2426339 1.62432,-1.323891 2.103372,-1.982052 1.064627,-1.462683 -1.038815,0.519254 -2.3439,0.207949 -2.90028,-0.692376 -0.556128,-0.900206 0.186181,-2.096425 1.650253,-2.658182 1.507895,-0.578498 3.247547,-0.0738 4.012836,1.16448 1.788552,2.893996 3.481547,1.07213 2.172888,-2.338275 -0.631692,-1.646029 -2.090797,-2.337926 -3.791832,-1.798058 -2.186977,0.694141 -2.793817,-0.131772 -2.902381,-3.950752 -0.129971,-4.576458 0.191017,-4.828412 6.153265,-4.828412 3.45978,0 6.290472,-0.635797 6.290472,-1.412868 0,-2.019663 -7.245996,-3.132941 -10.077468,-1.548339 -1.595425,0.892826 -2.701644,0.511393 -3.339924,-1.151977 -0.524689,-1.367896 -1.603765,-2.085725 -2.397457,-1.595188 -0.793691,0.490849 -1.855775,-0.183755 -2.36016,-1.497973 -0.504143,-1.314409 -2.061732,-2.389911 -3.460692,-2.389911 -1.399032,0 -2.115588,0.692618 -1.5924,1.539206 0.523476,0.846528 1.224325,10.562716 1.558128,21.591544 0.564589,18.6472673 0.400164,20.052397 -2.34529,20.052397 -3.832758,0 -12.636156,-5.8819153 -17.384104,-11.614946 -3.390029,-4.093411 -3.79431,-6.376689 -4.322813,-24.412988 -0.508978,-17.369747 -0.194646,-20.560899 2.476466,-25.121709 2.546887,-4.349166 3.136927,-9.011099 3.521867,-27.826657 0.35846,-17.509137 0.921541,-22.426047 2.50004,-21.820287 1.494294,0.57366 2.107606,6.5998 2.300135,22.602198 z m 16.530865,45.011255 c 0.543431,0.879649 1.708223,1.599349 2.587871,1.599349 0.879649,0 1.154569,-0.7197 0.610896,-1.599349 -0.543431,-0.879661 -1.708164,-1.599424 -2.58781,-1.599424 -0.879649,0 -1.15457,0.719763 -0.610957,1.599424 z m 13.594691,18.970714 c 0,0.75767 1.799317,1.033623 3.998448,0.613203 2.199121,-0.42012 3.998436,-1.040271 3.998436,-1.377579 0,-0.337296 -1.799315,-0.613248 -3.998436,-0.613248 -2.199131,0 -3.998448,0.619968 -3.998448,1.377624 z m 8.796565,-85.99121 c 2.105315,0.88448 -0.901715,1.32134 -8.796565,1.27794 -6.597384,-0.0362 -14.792064,-0.0121 -18.210323,0.0484 l -6.215035,0.11724 0.986465,7.19722 c 0.590584,4.308793 0.356647,7.19716 -0.582123,7.19716 -1.767098,0 -2.179058,-14.85034 -0.460015,-16.56969 1.53292,-1.53293 29.343828,-0.92347 33.277475,0.72925 z m 49.852536,-0.69178 c -0.583333,0.58332 -7.390776,1.19537 -15.127188,1.35968 -15.3916559,0.32702 -22.2386877,2.36173 -44.849003,13.327753 -7.327298,3.553793 -14.116429,6.726092 -15.086989,7.049613 -0.970512,0.3234 -2.256372,4.142863 -2.857475,8.487443 l -1.092913,7.899335 -0.205523,-8.796576 c -0.202512,-8.668487 -0.11844,-8.837326 5.783974,-11.594523 5.385565,-2.515755 4.821817,-2.54326 -2.807063,-0.136608 -1.319532,0.415886 -0.67074,-0.276252 1.441644,-1.538785 2.889636,-1.727092 3.285696,-2.542899 1.599361,-3.294461 -1.232738,-0.549483 -0.697825,-0.621303 1.18872,-0.159588 2.019046,0.49386 4.515646,-0.246638 6.069058,-1.799751 1.815636,-1.815702 4.113661,-2.344082 7.365684,-1.693642 4.947433,0.98948 6.798553,-1.4746 1.927837,-2.56618 -1.539397,-0.34517 1.879285,-1.19768 7.59702,-1.89483 5.717784,-0.69711 11.1248043,-1.85343 12.0155882,-2.56956 2.857524,-2.29718 39.3010668,-4.34271 37.0372678,-2.07884 z m 17.074056,0.93828 c -0.407425,0.65974 -2.678125,1.27131 -5.045233,1.35896 l -4.303896,0.15959 3.998448,1.28054 c 2.199121,0.70429 2.918821,1.35671 1.599349,1.44981 -1.319472,0.0931 -4.48536,1.25727 -7.035264,2.58708 -5.848056,3.049768 -7.389805,1.75054 -2.724313,-2.29584 2.978497,-2.58322 3.166308,-3.29108 1.169689,-4.40841 -1.524217,-0.853 0.398352,-1.33109 5.352071,-1.33109 4.25178,0 7.396873,0.53981 6.989149,1.19954 z m 15.441157,19.974545 c 0,17.993267 0.366323,20.621104 3.598632,25.818731 3.358295,5.400259 3.598583,7.575272 3.598583,32.574317 0,24.0889407 -0.272628,26.7879124 -2.704537,26.7895444 -1.487471,0.00103 -3.167399,0.7508407 -3.7332,1.6662742 -0.565798,0.9154448 -2.407558,1.2268097 -4.092803,0.6919568 -2.215152,-0.7030808 -3.064152,-0.2043119 -3.064152,1.80083072 0,1.52536968 -0.411047,2.36270658 -0.91278,1.86068568 -0.50172,-0.50233193 -2.841084,0.0888 -5.19792,1.3131257 l -4.285225,2.2258476 -0.448523,-21.0678751 -0.448536,-21.067876 7.347132,-7.45933 7.347121,-7.45927 -0.50112,-29.62901 c -0.392917,-23.208547 -0.06829,-29.462227 1.497863,-28.859557 1.452035,0.55915 1.999224,6.25254 1.999224,20.801605 z m 7.644539,1.897131 c 0.34758,16.486569 -9.12e-4,21.060436 -1.565388,20.538949 -1.47906,-0.493271 -2.021652,-6.256338 -2.046672,-21.74068 -0.04836,-28.246535 3.012468,-27.229185 3.61206,1.201731 z m -14.042016,7.385457 v 28.057635 l -7.416036,7.928349 c -7.337088,7.843966 -11.380751,10.1733 -9.598728,5.529319 0.695772,-1.813154 -0.336696,-2.429918 -4.22712,-2.525367 -2.831293,-0.06948 -4.068203,-0.531949 -2.74872,-1.027693 1.319471,-0.495685 4.309451,-2.238304 6.6444,-3.872176 2.334899,-1.633924 6.201564,-2.97075 8.592552,-2.97075 3.682847,0 4.042945,-0.366924 2.356176,-2.399042 -1.619904,-1.951887 -1.542108,-2.399093 0.417096,-2.399093 3.347773,0 4.124904,-4.171937 4.124904,-22.143807 0,-14.421703 -0.236951,-15.597621 -3.191688,-15.820186 -2.545621,-0.191628 -2.819819,0.207937 -1.354788,1.972924 1.543932,1.860313 1.199976,1.912729 -2.156508,0.328846 -2.210004,-1.042991 -3.257221,-2.339618 -2.344932,-2.903425 1.109064,-0.685431 1.069284,-1.376775 -0.1215,-2.112809 -3.097573,-1.914411 -1.908673,-4.103933 2.228328,-4.103933 2.199121,0 3.998448,-0.796715 3.998448,-1.770545 0,-0.97371 -1.079557,-1.35617 -2.3991,-0.84985 -1.319472,0.50656 -2.399027,0.30043 -2.399027,-0.4576 0,-1.95588 4.755083,-3.53505 6.813612,-2.26278 1.094664,0.67655 1.352964,0.0931 0.705551,-1.59421 -0.561565,-1.46378 -0.324,-2.66145 0.527724,-2.66145 0.940452,0 1.549176,11.024906 1.549176,28.057643 z m -42.662749,-16.80218 c 8.950225,3.551427 19.511833,8.160224 23.470261,10.241664 l 7.197155,3.784516 -5.699831,-0.154137 c -3.79806,-0.10272 -7.533492,1.21266 -11.195605,3.942652 -3.022679,2.25335 -7.441067,4.556573 -9.818698,5.118208 -2.377634,0.561567 -8.855077,4.521212 -14.3943609,8.798929 -9.2514479,7.144389 -10.0562039,8.254716 -9.8842199,13.637082 0.225468,7.061638 1.337544,8.46816 4.572228,5.783637 3.10815613,-2.579536 3.12616803,-4.830236 0.03624,-4.830236 -1.319472,0 -2.3990881,-0.719699 -2.3990881,-1.599348 0,-0.879663 1.1220481,-1.599365 2.4934441,-1.599365 1.371408,0 2.099088,-0.638218 1.6170119,-1.418186 -0.4817759,-0.779976 0.195252,-2.307518 1.50499213,-3.394562 1.30979997,-1.087058 2.38143597,-1.533232 2.38143597,-0.991492 0,0.541623 3.2109238,-1.466004 7.1354398,-4.461665 3.924516,-2.9956 9.322403,-5.92695 11.995332,-6.514028 2.672928,-0.586957 4.859844,-1.729922 4.859844,-2.539696 0,-0.809713 1.295471,-1.472291 2.878872,-1.472291 1.583389,0 3.7425,-0.863643 4.798116,-1.91926 1.492728,-1.49272 1.919256,-0.970741 1.919256,2.34887 0,3.032536 -0.658356,4.015495 -2.274085,3.395465 -2.611391,-1.002063 -8.92152,1.952319 -8.92152,4.177013 0,0.820597 1.917745,2.496844 4.261705,3.724985 4.197863,2.199495 4.124484,2.250086 -4.89678,3.377212 -7.293324,0.91127 -9.44754,1.851255 -10.577569,4.615458 l -1.419035,3.47121 -1.06788,-3.598577 c -1.127136,-3.798244 -2.067048,-4.199082 -6.161856,-2.627775 -1.594152,0.611689 -2.5298398,2.90771 -2.5298398,6.207679 0,4.105447 -1.20939587,6.15925 -5.597796,9.506486 -4.21068,3.211647 -5.5977959,5.461914 -5.5977959,9.080807 0,2.646089 -0.6242521,4.425341 -1.3872363,3.953789 -2.074008,-1.28183 -3.213708,-14.705887 -1.78602,-21.036087 1.515024,-6.717622 -0.267792,-8.028995 -12.943715,-9.520395 -11.184481,-1.315908 -13.103304,-1.969116 -11.831101,-4.027587 0.718679,-1.162852 1.74582,-1.105431 3.300143,0.184368 1.784929,1.481364 2.256672,1.330415 2.256672,-0.722054 0,-1.427198 0.762193,-2.594895 1.693776,-2.594895 0.931573,0 1.190053,0.899665 0.574261,1.999226 -0.615672,1.099563 0.241801,0.713666 1.904796,-0.857533 2.627471,-2.481962 2.709504,-3.061731 0.625165,-4.419112 -1.319472,-0.859274 -3.513338,-1.29844 -4.875253,-0.975939 -1.499557,0.355441 -2.563272,-0.569438 -2.696929,-2.344274 -0.1215,-1.611867 0.27324,-2.860744 0.876817,-2.775267 3.145333,0.445512 4.023108,-0.465457 1.897248,-1.968999 -2.132521,-1.508139 -2.132521,-1.616463 0,-0.975097 1.319472,0.397149 2.238419,1.473373 2.042015,2.392322 -0.196452,0.918937 3.402241,3.887945 7.996897,6.597814 4.594643,2.709853 9.540684,5.776915 10.99128,6.815791 2.0989562,1.503184 3.5473082,1.292509 7.0946883,-1.031809 l 4.4573159,-2.920529 -11.8928162,-6.200958 c -6.541044,-3.410585 -14.36022,-7.681655 -17.37594,-9.491377 -4.374744,-2.625229 -6.233724,-2.948391 -9.196381,-1.598509 -3.287268,1.497805 -3.727811,2.842731 -3.83958,11.722297 -0.151128,12.01222 -1.0089,10.590217 -1.852092,-3.07061 -0.336096,-5.446269 -0.0864,-9.578004 0.554316,-9.181705 0.641232,0.396541 2.129965,-0.243611 3.308292,-1.421942 1.178341,-1.17833 3.058176,-1.837155 4.177381,-1.46412 1.119203,0.372959 1.832508,-0.288951 1.585092,-1.470844 -0.247236,-1.182025 0.989604,-2.25257 2.7489,-2.378967 1.759308,-0.126336 4.140864,-0.30648 5.29236,-0.399563 1.151484,-0.09372 1.695397,-0.814371 1.208724,-1.601835 -0.486613,-0.787476 0.227891,-1.858802 1.588056,-2.38072 1.416071,-0.543444 2.055312,-0.273228 1.4958,0.632053 -1.357189,2.196039 -0.486,2.023335 7.875576,-1.560853 4.0313883,-1.728052 7.3297681,-3.887168 7.3297681,-4.798118 0,-2.36478 0.165036,-2.321 18.1134839,4.801023 z m -23.711279,2.304121 c -4.398252,2.117044 -8.896488,3.89073 -9.996047,3.941454 -3.272342,0.150516 -2.325049,7.802134 1.199483,9.68844 2.088325,1.117574 3.198768,1.151366 3.198768,0.09731 0,-0.888061 2.18268,-2.743287 4.850412,-4.122857 2.6677203,-1.379559 4.4747762,-3.116021 4.0156682,-3.85893 -0.4594079,-0.74286 0.05436,-1.25202 1.1472,-1.131419 1.0901279,0.120288 2.1004681,-0.420122 2.2452481,-1.201299 0.2877359,-1.552994 3.82381194,-4.113738 5.73441603,-4.152786 0.65973577,-0.01212 1.19954387,1.009083 1.19954387,2.272275 0,1.263205 2.8267678,3.885473 6.2817118,5.827206 3.799272,2.135358 6.681287,5.122616 7.292844,7.559316 0.992868,3.956022 1.064136,3.973542 3.947064,0.97008 1.614767,-1.682234 3.383735,-4.565213 3.931044,-6.406602 0.8652,-2.911158 -0.496284,-4.006734 -10.435452,-8.396773 -6.28674,-2.776781 -12.59698767,-5.023062 -14.02273166,-4.991694 -1.42574424,0.03024 -6.19086014,1.789107 -10.58917234,3.90615 z m 0.79968,6.261536 c 0,0.345769 -1.116912,1.057189 -2.482092,1.581098 -1.42332,0.546457 -2.065356,0.278064 -1.504992,-0.628609 0.939252,-1.519742 3.987084,-2.247781 3.987084,-0.952489 z m -42.976484,16.363017 c -0.435232,15.747656 -0.103974,18.855878 2.28938,21.500573 2.385673,2.636116 2.435412,3.091661 0.337297,3.091661 -1.353204,0 -2.894344,-1.619367 -3.424783,-3.598638 -1.376298,-5.135744 -1.240953,-41.949943 0.149309,-40.5598 0.636464,0.636468 0.928432,9.441264 0.648735,19.566204 z m 103.752716,2.354487 -0.79968,11.667485 -10.749612,1.976978 c -5.912304,1.087345 -12.749616,2.933884 -15.194041,4.103383 -4.386287,2.09861 -4.450475,2.343001 -4.902095,18.668603 -0.303444,10.968687 0.17712,17.306686 1.425744,18.811441 1.520111,1.831599 1.377024,2.07503 -0.741888,1.261933 -2.220216,-0.851964 -2.625289,-3.801328 -2.625289,-19.114896 0,-19.26239 1.369345,-23.134076 8.182225,-23.134076 1.735668,0 7.801825,-1.167085 13.480439,-2.593503 l 10.324837,-2.59349 0.02424,-12.200765 c 0.01213,-6.71036 0.553105,-11.372667 1.199485,-10.360635 0.646319,1.012034 0.81522,7.090474 0.375382,13.507542 z m -6.960924,5.405335 c -1.143144,2.978982 -7.433448,4.238622 -7.433448,1.488616 0,-1.237142 1.155179,-2.249356 2.567076,-2.249356 2.029392,0 2.43954,-1.337017 1.958243,-6.383829 -0.334884,-3.511168 0.129362,-6.634629 1.031496,-6.941035 1.71342,-0.582121 3.20603,10.621225 1.876633,14.085604 z m -92.312663,-2.759968 c -0.09792,3.839707 -0.27564,3.992048 -1.399261,1.199547 -0.707735,-1.75931 -0.974556,-3.738522 -0.593004,-4.398319 1.354778,-2.34179 2.103012,-1.140313 1.992144,3.198772 z m 6.509915,8.583192 c 0,2.051691 -2.146837,1.735059 -5.661576,-0.834984 -2.875487,-2.102582 -2.791883,-2.193926 1.293672,-1.41293 2.402352,0.459409 4.367904,1.470782 4.367904,2.247914 z m 13.569901,2.972211 c 0.400175,0.647522 -1.060513,0.835527 -3.246037,0.417699 -2.185524,-0.417699 -4.301112,-1.289439 -4.701349,-1.936958 -0.400164,-0.647534 1.060512,-0.835527 3.246049,-0.417709 2.185524,0.417709 4.301112,1.289436 4.701337,1.936968 z m -7.605601,4.205119 c -0.531349,0.531348 -1.910904,0.588169 -3.065485,0.126348 -1.275827,-0.510792 -0.896879,-0.889511 0.966336,-0.966276 1.685977,-0.06948 2.630617,0.308893 2.099149,0.839988 z m 49.701827,22.776655 c -0.589979,13.587209 -1.005203,15.220111 -4.566779,17.956571 l -3.917868,3.0102279 4.5093,3.6529249 4.509241,3.65286434 L 6.378922,1.5126117 C -0.00210177,3.3967464 -1.8493578,3.3097584 -9.3259097,0.77326688 -14.31239,-0.91845981 -16.647397,-2.3463775 -15.00023,-2.6966825 c 1.539384,-0.3276239 2.798892,-1.3047854 2.798892,-2.1718587 0,-0.8670851 0.719712,-1.1316734 1.59936,-0.5881686 0.8796483,0.5434327 1.5994083,0.2448125 1.5994083,-0.6642128 0,-2.0501908 8.76030003,-6.7153884 11.5471677,-6.1492274 1.126104,0.229103 1.896096,-0.397753 1.711128,-1.392854 -0.18498,-0.994814 1.07448,-3.085613 2.798892,-4.646166 2.263032,-2.047948 3.1353,-4.919084 3.1353,-10.319834 0,-8.688672 -0.877416,-10.092903 -4.782528,-7.65409 -2.173368,1.357261 -2.650488,3.17242 -2.03676,7.748219 0.919728,6.857253 -1.3593119,9.467495 -15.850212,18.153695 -12.404628,7.4356296 -12.290208,10.87214593 0.563989,16.9403128 5.5606793,2.6251125 8.3109833,4.3202702 6.1118511,3.7669862 C -14.61935,8.1083115 -27.788234,0.26972197 -28.726514,-3.318271 c -1.04946,-4.0130213 1.339237,-6.3403044 5.047164,-4.9174024 1.56708,0.6014648 2.003208,0.2708162 1.250208,-0.9476532 -1.027752,-1.6629504 1.86732,-2.6862284 5.829672,-2.0605824 0.659736,0.10404 1.199484,-0.573049 1.199484,-1.504383 0,-0.931584 0.724849,-1.245792 1.610664,-0.698317 2.62632,1.623123 3.731136,-3.817037 1.367172,-6.731877 -1.824768,-2.249966 -1.82598,-2.473634 -0.006,-1.378716 1.659384,0.999216 1.916532,0.506555 1.091761,-2.092023 -1.612825,-5.081563 0.429191,-4.099338 2.7307194,1.313557 1.711548,4.025285 2.3896558,4.424129 4.6493519,2.734766 2.171808,-1.623719 2.3987879,-3.255291 1.2676079,-9.110914 -1.2092759,-6.259844 -0.9752159,-7.426678 1.91218824,-9.532118 1.80958786,-1.319474 5.55747556,-4.647425 8.32868356,-7.395488 4.777992,-4.738113 5.067852,-4.820804 5.606808,-1.599363 0.312516,1.868415 0.276253,10.122951 -0.08039,18.343453 z m 25.257744,-4.679527 c 1.865448,-1.548158 2.243556,-0.713186 2.243556,4.954928 0,4.616597 -0.903406,7.502612 -2.798904,8.941533 -2.657867,2.0176 -2.654484,2.127255 0.06708,2.175556 2.543197,0.04236 2.81352,1.433006 2.399028,12.3176686 -0.256906,6.7467571 -1.206502,12.5110371 -2.110149,12.809537 -1.006465,0.33246 -1.40531,-1.9497266 -1.029505,-5.8905679 0.397752,-4.1710852 -0.313115,-7.8477103 -2.022012,-10.4556497 -1.449552,-2.212311 -2.203296,-4.721791 -1.675032,-5.576588 0.528324,-0.854809 0.198275,-1.554205 -0.733188,-1.554205 -2.371033,0 -2.122777,-4.354436 0.305268,-5.356855 1.206444,-0.498095 0.558552,-1.262594 -1.63308,-1.928018 -2.8683,-0.87077 -3.247608,-1.566231 -1.803372,-3.306377 1.005875,-1.21205 1.269371,-2.203718 0.585755,-2.203718 -0.683916,0 0.109445,-1.494662 1.762441,-3.321487 1.771092,-1.957034 3.250812,-2.586602 3.602207,-1.532616 0.433416,1.300741 1.208424,1.280786 2.839764,-0.07308 z m -79.324523,18.788473 c 0,10.2626416 -0.494471,18.1650604 -1.098528,17.5608105 -1.503121,-1.5030617 -1.5999,-36.2181105 -0.10092,-36.2192625 0.659737,-4.82e-4 1.199546,8.395797 1.199546,18.658452 z M 26.170463,-0.45553489 C 26.182583,4.0233623 25.350778,4.9037321 18.206218,7.9772586 13.818598,9.8647772 7.884166,11.878022 5.01853,12.451142 0.07018623,13.440807 -0.05197367,13.353459 2.587762,10.71372 4.116454,9.1849653 6.092458,8.3823935 6.978886,8.9302414 7.865302,9.4778983 8.59051,9.2197893 8.59051,8.3565815 c 0,-0.8633418 2.412997,-2.3660926 5.362164,-3.3393774 3.026063,-0.9987378 6.135732,-3.4674764 7.137732,-5.66659996 C 22.67749,-4.1327 22.36303,-4.8433412 18.12727,-7.3454403 c -7.119839,-4.2058487 -5.701224,-5.5651027 1.645656,-1.5768019 5.338716,2.8980996 6.386472,4.2847254 6.397537,8.46670731 z m 8.3079,0.34757993 c -0.498709,5.23123906 -1.42871,6.72699376 -5.136697,8.26287446 -2.490133,1.0314368 -4.916544,2.8890265 -5.391972,4.1279945 -0.475128,1.238953 -1.786621,2.241627 -2.913816,2.228139 -1.433052,-0.01812 -1.327872,-0.490836 0.349404,-1.574872 4.143635,-2.677826 0.30042,-1.747273 -9.897228,2.396439 C 6.079522,17.530292 1.3157981,18.989831 0.90208633,18.576119 0.48861423,18.162645 2.2288182,17.055524 4.769902,16.11645 16.513894,11.776526 27.149374,7.3623797 28.857286,6.1192969 c 1.030775,-0.7502889 2.354063,-4.2046372 2.9406,-7.6763976 1.368251,-8.0983906 3.481787,-6.9556651 2.680236,1.44914574 z M 68.285254,3.4617864 C 67.367879,4.3791632 59.498962,7.6041076 50.798746,10.628303 42.09853,13.6525 29.832081,18.438717 23.540038,21.264398 12.554133,26.197998 11.957507,26.753889 8.515367,35.263028 6.543898,40.136595 4.314838,44.807721 3.561958,45.643426 1.1805702,48.286547 2.0675382,34.618952 4.503022,31.141863 5.773474,29.327976 7.08793,25.790875 7.423966,23.281517 c 0.336097,-2.509289 1.555896,-4.87731 2.710764,-5.262249 1.353504,-0.450949 1.657321,0.01812 0.854868,1.314398 -0.777792,1.258477 -0.516227,1.771456 0.696973,1.367054 1.068132,-0.356052 1.823495,-1.284362 1.678727,-2.062945 -0.367537,-1.97722 4.510872,-4.483003 6.42492,-3.300019 1.760868,1.088259 20.406179,-5.28837 21.730968,-7.4319444 0.464855,-0.7519209 2.781731,-1.3989128 5.148853,-1.4377208 5.123088,-0.084 18.864058,-3.5605013 20.486686,-5.18318 0.6291,-0.6290409 1.515637,-0.77187687 1.970089,-0.31736395 0.454572,0.45457195 0.0756,1.57693375 -0.84156,2.49429955 z M -63.381321,5.2796691 c 0,0.6924358 0.539808,1.0944238 1.199546,0.8932568 0.659739,-0.201301 6.861904,2.4878305 13.782497,5.9755521 10.479888,5.28153 11.966988,6.486826 8.8974,7.211481 -4.082233,0.963672 -14.010332,13.560677 -14.176991,17.988191 -0.09672,2.576091 0.353625,2.628195 5.203488,0.602066 4.391663,-1.834984 6.119963,-1.861156 9.99612,-0.151117 2.577467,1.136917 3.86455,2.125623 2.860127,2.197071 -1.004412,0.07128 -5.592541,3.516138 -10.195776,7.654821 l -8.369552,7.524923 -2.599176,-3.425943 c -1.429553,-1.884314 -4.9675,-7.405224 -7.862091,-12.268818 -4.597612,-7.72507 -5.320943,-10.468056 -5.722684,-21.70048 -0.252677,-7.07173 -0.15354,-13.1637648 0.220637,-13.5378908 1.155841,-1.1558407 6.766756,-0.2955839 6.766756,1.0373659 z M 68.741517,15.669797 c 0.551893,6.151042 -1.307747,15.673365 -4.463903,22.856382 -4.12932,9.398102 -6.911052,14.394379 -8.014057,14.394379 -0.649043,0 -4.521443,-2.118973 -8.605307,-4.708902 -4.083865,-2.589925 -9.506725,-5.166138 -12.050832,-5.724929 -5.747772,-1.262416 -5.931168,-3.543331 -0.452148,-5.626402 5.195268,-1.975225 13.999573,-1.17138 17.315975,1.580978 3.405625,2.826412 3.173858,-0.169859 -0.310103,-4.011807 -1.546403,-1.705264 -4.09704,-5.102672 -5.668104,-7.549763 -1.571004,-2.447091 -3.544476,-4.023954 -4.385497,-3.504147 -0.841018,0.519851 -1.529111,-0.17712 -1.529111,-1.548461 0,-1.371409 -0.719701,-2.493459 -1.599361,-2.493459 -2.530139,0 -1.929215,1.522348 3.115176,7.891415 l 4.714585,5.952585 -8.600533,-0.713174 -8.600531,-0.713246 -1.580437,6.186406 c -0.869256,3.402483 -2.043407,8.465315 -2.609266,11.250734 -0.565813,2.785373 -2.012342,5.441791 -3.21449,5.903072 -2.503427,0.960661 -2.16486,-6.979906 0.705925,-16.554706 2.139335,-7.135378 2.132568,-7.179322 -0.740017,-4.795279 -1.328363,1.102467 -3.537407,5.864625 -4.908983,10.582658 -2.274875,7.825404 -3.169512,8.901635 -10.194024,12.263443 l -7.70026777,3.685202 -4.58401203,-3.668152 c -2.52126,-2.01749 -5.4836762,-3.671729 -6.5832362,-3.676085 -1.09962,-0.0048 -1.999224,-0.813457 -1.999224,-1.797985 0,-2.182325 -11.305488,-21.024544 -12.123852,-20.20612 -0.320376,0.320376 0.960408,5.101939 2.846412,10.62546 2.895263,8.479333 3.077208,10.260281 1.168656,11.43982 -3.158689,1.9522 -4.875372,-0.30768 -5.69772,-7.499649 -1.492055,-13.050245 -1.694555,-13.36137 -8.694648,-13.36137 -3.545556,0 -8.749776,1.185278 -11.565,2.633993 -4.945313,2.544902 -4.875012,2.368994 2.078652,-5.197927 7.574652,-8.242751 7.064352,-8.086188 23.525759,-7.218562 2.717653,0.143256 4.871689,2.863574 9.329065,11.781723 3.1875243,6.377529 7.3367882,13.253225 9.2204883,15.279359 3.00200404,3.228925 3.64712403,3.380113 5.2234438,1.224384 0.9891239,-1.352726 2.2576439,-2.000309 2.8189079,-1.439044 0.560964,0.560966 3.467701,-4.349715 6.458772,-10.913257 4.983636,-10.935807 5.970516,-12.093222 11.801953,-13.840375 3.499991,-1.048596 7.302995,-1.90655 8.451166,-1.90655 1.148161,0 3.29742,-1.094918 4.776181,-2.433123 2.714268,-2.456405 30.624071,-12.1761044 31.766377,-11.0628156 0.33912,0.3300499 0.859883,3.3153186 1.157591,6.6332966 z M 3.987934,24.449273 c -0.715344,1.933936 -2.2031157,3.817038 -3.30605967,4.184695 -1.287504,0.42918 -1.023768,-0.82967 0.73649997,-3.516199 C 4.765366,20.009603 5.72239,19.760675 3.987934,24.449273 Z m -45.210972,26.444926 -8.092762,7.569826 0.959205,8.823781 c 1.435416,13.205058 -1.095934,14.916115 -4.900402,3.312413 -3.148052,-9.601574 -2.403384,-13.73265 0.952552,-5.284497 1.66736,4.197391 1.714928,4.126602 1.041715,-1.548878 -0.649283,-5.473352 -0.06288,-6.524732 7.355651,-13.194905 10.707348,-9.626843 13.023205,-9.34878 2.684041,0.3222 z m 73.829124,-5.2009 c -1.097448,1.322375 -1.700917,5.149218 -1.3659,8.662018 0.330047,3.461174 0.04836,5.951312 -0.62886,5.533544 -1.505892,-0.930721 -1.643292,-14.017664 -0.1626,-15.498297 2.148648,-2.148652 4.062696,-0.992929 2.15742,1.302735 z m -65.306748,10.061952 c -0.982656,0.327635 -4.361256,2.34275 -7.5081,4.478238 -6.818148,4.626929 -9.5118,5.05425 -4.2579,0.675457 2.046312,-1.705514 3.263388,-3.84069 2.704547,-4.744939 -0.611255,-0.988946 0.933325,-1.644026 3.876396,-1.644026 2.780401,0 4.947012,-0.863089 5.01876,-1.999226 0.08219,-1.297897 0.446713,-1.18571 1.039596,0.319776 0.502333,1.275471 0.109445,2.587082 -0.873299,2.914599 z m 22.7864043,2.478278 c -0.8030643,2.092684 5.3702759,5.882708 9.58203593,5.882708 1.1672761,0 5.35564777,-1.807119 9.30748877,-4.015865 l 7.185059,-4.015853 7.010904,3.18106 c 5.222664,2.369655 6.07674,3.18994 3.348504,3.216124 -2.014213,0.01811 -6.642348,1.555466 -10.284696,3.413672 -5.467284,2.789159 -7.548539,3.094249 -11.931624,1.749084 -3.60467967,-1.106341 -7.0135678,-1.106341 -10.6183077,0 -4.3830843,1.345165 -6.4643283,1.040075 -11.9315653,-1.749084 -3.642335,-1.858206 -9.649919,-3.37856 -13.350226,-3.37856 -10.602961,0 -7.881013,-1.119684 11.398463,-4.688839 10.5075122,-1.945237 11.1758883,-1.918885 10.2839643,0.405613 z m 60.0885117,0.294996 c 0,3.083741 -10.168512,40.282278 -11.346,41.506005 -0.810673,0.84253 -0.31494,-2.371537 1.101984,-7.142396 1.788985,-6.024099 2.03712,-8.853891 0.812183,-9.262225 -0.970078,-0.323402 -1.763771,-1.29016 -1.763771,-2.148412 0,-0.858254 0.719699,-1.115641 1.599359,-0.57185 0.879648,0.543446 1.599349,-0.133584 1.599349,-1.504994 0,-1.371396 -0.831228,-2.493446 -1.847256,-2.493446 -1.029324,0 -0.5265,-1.459538 1.135956,-3.296405 2.567928,-2.837524 2.658061,-3.526396 0.647711,-4.948999 -1.954739,-1.383132 -1.904627,-1.515577 0.30708,-0.812196 3.419773,1.087477 4.973605,-0.505956 2.913805,-2.987682 -2.042437,-2.460938 -0.330047,-7.147232 2.611632,-7.147232 1.225356,0 2.227968,0.364502 2.227968,0.810012 z m -84.09798,6.558334 c 1.391472,0.533772 2.529901,1.757439 2.529901,2.718928 0,1.237153 -0.524689,1.223665 -1.794241,-0.04836 -0.986881,-0.986833 -2.904265,-1.368325 -4.260852,-0.847801 -1.619364,0.621411 -2.06934,0.304058 -1.31004,-0.924624 1.338756,-2.166244 1.471919,-2.191036 4.835232,-0.900386 z m -7.49952,1.594827 c -0.531336,0.531348 -1.910904,0.58817 -3.065472,0.126336 -1.27584,-0.510794 -0.896881,-0.8895 0.966336,-0.966276 1.685976,-0.06948 2.630604,0.30889 2.099136,0.84006 z m 15.545436,1.069284 c -0.429792,1.119566 1.431,3.34227 4.134756,4.939446 2.703756,1.597132 4.63842,3.73641 4.29924,4.753951 -0.33912,1.017531 1.51908,5.741553 4.12938,10.497898 4.5109203,8.219548 4.5768123,8.603628 1.330176,7.754628 -1.878696,-0.491449 -3.415847,-0.362689 -3.415847,0.28593 0,0.64867 -1.761109,2.12193 -3.913574,3.2739 -2.152524,1.151977 -4.310184,3.127927 -4.794851,4.390947 -0.688393,1.79389 0.430391,2.18342 5.113116,1.78004 5.097036,-0.43886 5.994408,-0.0362 5.994408,2.6766 0,2.94792 -1.151496,3.2107 -14.993904,3.42183 -8.246664,0.12574 -15.44382,0.92838 -15.99372,1.78362 -0.55008,0.85523 -2.442613,2.00433 -4.205965,2.55342 -1.76335,0.54947 -6.352137,4.2448 -10.197343,8.21247 -6.578945,6.78852 -11.496453,9.71201 -8.667449,5.15276 2.310836,-3.72406 17.562481,-17.13133 19.488024,-17.13133 1.035972,0 2.318989,-1.13467 2.851189,-2.52156 0.531948,-1.38688 2.655024,-3.16311 4.717356,-3.94724 2.460875,-0.93563 3.426599,-2.26786 2.809535,-3.87593 -0.516827,-1.34764 -0.143256,-2.450227 0.830209,-2.450227 0.973764,0 1.77048,0.879837 1.77048,1.955217 0,1.07539 1.216116,0.17591 2.702364,-1.999227 1.48632,-2.17494 3.609947,-4.510079 4.71918,-5.189289 1.109232,-0.67914 3.166068,-2.38404 4.570716,-3.78869 2.338884,-2.338889 2.32734,-2.804099 -0.13722,-5.527324 -1.480031,-1.635447 -2.943863,-4.60874 -3.252936,-6.607305 -0.308893,-1.998555 -1.015475,-5.612973 -1.569732,-8.03202 -0.6222,-2.715242 -0.343345,-4.398257 0.7278,-4.398257 0.954612,0 1.384163,0.915987 0.954552,2.035551 z m 58.979867,2.362755 c -3.856571,6.164576 -4.315007,6.497289 -3.30588,2.399043 1.340941,-5.445666 -1.334039,-4.307584 -3.759131,1.59935 -1.173672,2.858933 -3.42012,6.593218 -4.992156,8.298479 -3.96738,4.303782 -3.625537,9.975757 0.740496,12.285147 1.97922,1.046909 6.427032,4.310969 9.8841,7.253426 3.457068,2.94255 7.235544,5.35003 8.396699,5.35003 1.161156,0 2.111173,0.71971 2.111173,1.59936 0,0.87965 -1.756824,1.59935 -3.90402,1.59935 -2.147208,0 -4.340412,0.70604 -4.87368,1.5689 -1.326132,2.14575 -17.327041,1.65756 -18.787009,-0.57307 -1.855103,-2.83443 -1.417031,-5.97106 0.775201,-5.55034 2.937756,0.56399 9.196439,-1.82707 9.196439,-3.5131 0,-2.679107 -8.373911,-6.978276 -12.917842,-6.632027 l -4.493761,0.34213 2.459052,-7.216928 c 1.352485,-3.969245 3.11094,-6.813971 3.907643,-6.321562 0.796776,0.492662 1.448665,0.17591 1.448665,-0.7041 0,-0.87965 -0.721703,-2.045415 -1.603703,-2.590539 -3.233172,-1.998195 1.665,-6.994594 9.995987,-10.19651 11.67828,-4.488331 13.067328,-4.345062 9.721727,1.002781 z m -64.546775,2.304676 c 0.03024,-1.167025 0.865991,-1.589859 1.892531,-0.955394 1.276128,0.788677 0.936648,1.79999 -1.105367,3.293129 -3.61176,2.640951 -6.128244,2.810391 -4.58196,0.308292 0.690995,-1.118126 0.440676,-1.41335 -0.635436,-0.748476 -0.977161,0.603886 -1.371216,2.154578 -0.875724,3.445888 0.495684,1.29131 0.10392,2.347838 -0.869556,2.347838 -0.973764,0 -1.77048,0.736322 -1.77048,1.636225 0,0.899966 1.794839,0.460009 3.988523,-0.977099 3.789061,-2.482695 4.181005,-2.428107 7.838402,1.092071 l 3.849983,3.705451 -5.803452,5.315698 c -6.281532,5.753709 -10.637952,6.237709 -10.732681,1.19248 -0.03024,-1.74468 -0.507168,-3.896419 -1.054283,-4.781749 -0.547056,-0.885277 -1.500097,-4.30312 -2.1177,-7.595098 -0.88866,-4.737079 -0.626256,-5.985462 1.258356,-5.985462 1.309632,0 3.283764,-1.087597 4.386948,-2.416815 1.775988,-2.139952 2.250636,-2.094184 4.143408,0.400175 1.413347,1.862308 2.154876,2.107312 2.188488,0.723026 z m -5.813065,16.371484 c 1.007628,2.135059 2.08518,3.628749 2.394624,3.319249 0.992689,-0.99263 -1.49508,-7.201214 -2.885459,-7.201214 -0.737605,0 -0.51684,1.746915 0.490835,3.881965 z M -41.423246,71.47988 c -0.531336,0.531336 -1.910904,0.588157 -3.065472,0.126335 -1.27584,-0.510791 -0.896881,-0.889573 0.966336,-0.966337 1.685976,-0.06948 2.630604,0.308892 2.099136,0.840061 z m 43.0775521,1.70489 c -0.5893679,0.589381 0.024239,2.748736 1.3696559,4.798135 1.342872,2.049457 1.776708,3.726302 0.964152,3.726302 -0.8163,0 -1.21212,4.830955 -0.884424,10.795747 0.453972,8.267106 1.319844,11.390606 3.696204,13.335136 2.778468,2.27355 3.075024,4.47895 2.833656,21.07164 -0.26658,18.3219 -1.410995,23.30103 -4.304256,18.72618 -1.452036,-2.29608 -1.726176,-2.03646 -2.136684,2.02359 -0.311304,3.0782 -4.6387197,3.08321 -8.4919678,0.012 -3.156996,-2.51793 -3.5610959,-4.6192 -4.189644,-21.78369 -0.6446882,-17.60485 -0.4739159,-19.05494 2.328132,-19.78771 2.3662681,-0.61882 2.626068,-1.27004 1.194888,-2.99446 -1.425804,-1.71808 -1.257036,-2.20372 0.766008,-2.20372 3.0388199,0 3.521808,-4.219627 0.5954161,-5.204467 -1.5888361,-0.534969 -1.5791041,-1.182019 0.048359,-3.153009 1.651464,-2.0014 1.657752,-3.363679 0.03024,-7.057464 -1.10766,-2.517472 -2.7275159,-5.077903 -3.5995439,-5.689835 -1.8829204,-1.32107 -1.5337081,-1.691739 4.7192399,-5.00978 5.255172,-2.788623 6.7043637,-3.247612 5.05908,-1.602314 z m -5.4589439,3.186136 c -2.2878,0.923185 -2.717772,3.738893 -0.5706359,3.738893 0.785532,0 1.8425399,-1.079557 2.3488559,-2.399042 0.5065679,-1.319475 0.7632839,-2.342272 0.570636,-2.272817 -0.1922281,0.06948 -1.249296,0.489037 -2.348856,0.932966 z m 2.50452,37.458584 c -0.54948,1.39258 -0.88842,5.89952 -0.752472,10.01547 0.17832,5.4045 -0.3082921,7.27001 -1.752048,6.71478 -2.921244,-1.12349 -2.4412799,3.04269 0.79968,6.94123 2.97328813,3.57654 4.118856,3.2246 9.1964278,-2.82508 l 3.198708,-3.81118 -3.670992,1.14304 c -3.5841237,1.11593 -3.6454799,0.95061 -2.592888,-6.98463 0.705504,-5.3181 0.494472,-8.12764 -0.609924,-8.12764 -0.9284998,0 -1.94216367,-1.25952 -2.25256767,-2.79894 -0.492048,-2.43904 -0.692856,-2.47337 -1.56392413,-0.26717 z M 36.568258,78.492126 c 0.560364,0.90661 -0.08161,1.174763 -1.504993,0.628547 -1.365179,-0.5241 -2.482152,-0.155963 -2.482152,0.818052 0,0.973766 1.156633,1.770482 2.57022,1.770482 1.837525,0 2.228929,0.79781 1.373161,2.79891 -0.658345,1.539384 -1.536792,4.778118 -1.952017,7.197157 -0.817751,4.763739 -3.149196,5.810519 -4.588368,2.0601 -0.493259,-1.28599 -2.261448,-2.77115 -3.92886,-3.30039 -2.957999,-0.938829 -2.953656,-1.115099 0.180133,-7.258028 3.124536,-6.124617 8.067492,-8.380092 10.332755,-4.71483 z m -78.686172,14.412698 c 0.50112,3.078779 0.540408,4.698139 0.0864,3.598579 -1.595964,-3.868599 -3.196836,-1.940829 -2.656236,3.19877 0.525299,4.992417 0.478139,5.039857 -1.186369,1.199547 -1.970327,-4.545807 -0.425567,-19.79718 1.613438,-15.929719 0.677087,1.284228 1.641179,4.854044 2.142479,7.932823 z m 68.301552,0 c 0,0.87965 -0.317352,1.59936 -0.705312,1.59936 -0.38808,0 -1.150105,-0.71971 -1.693777,-1.59936 -0.543432,-0.87966 -0.22608,-1.59936 0.705312,-1.59936 0.931585,0 1.693777,0.7197 1.693777,1.59936 z m 9.089448,8.296786 c -0.510792,1.27584 -0.889572,0.89689 -0.966336,-0.96634 -0.06948,-1.685967 0.308291,-2.630617 0.840048,-2.099147 0.531347,0.53135 0.588168,1.910907 0.126347,3.065487 z m -14.32074,2.26574 c -0.531348,0.53135 -1.910916,0.58816 -3.065483,0.12635 -1.275829,-0.5108 -0.896882,-0.88952 0.966335,-0.96629 1.685976,-0.0695 2.630616,0.3089 2.099148,0.84006 z m 34.741476,16.22704 c 2.806944,2.85884 5.778912,5.19799 6.604392,5.19799 0.825553,0 2.39988,1.4394 3.4986,3.19869 3.101016,4.96558 -0.04236,3.77552 -5.847084,-2.2141 -3.338773,-3.44475 -6.29496,-5.13871 -8.13012,-4.65881 -1.586064,0.41468 -3.325836,0.0362 -3.866124,-0.83544 -0.590592,-0.95529 0.454572,-1.25022 2.618399,-0.73912 3.552145,0.8389 3.557592,0.81593 0.401977,-1.6977 -1.759296,-1.40145 -4.098359,-2.57096 -5.197932,-2.59895 -2.108268,-0.0543 -2.665609,-2.05013 -1.029133,-3.6866 1.144417,-1.14443 3.975048,0.93296 10.946965,8.03404 z m -89.153365,-3.10619 c -3.123264,0.61853 -2.743763,3.4421 1.653277,12.30261 l 2.381136,4.79814 -3.383437,-3.53174 c -1.860851,-1.94245 -3.383376,-4.59894 -3.383376,-5.9033 0,-1.30431 -0.7197,-2.81632 -1.59936,-3.35999 -0.879647,-0.54342 -1.599407,-0.28351 -1.599407,0.57849 0,0.8617 -2.339064,2.0561 -5.197931,2.65427 -2.858929,0.59842 -8.076864,3.80385 -11.595468,7.12381 -6.074255,5.73128 -18.392809,10.0129 -18.392809,6.39284 0,-2.08858 5.017006,-4.20186 9.196374,-3.87368 1.979275,0.15536 3.598637,-0.19827 3.598637,-0.78596 0,-0.58756 2.353755,-3.63818 5.230513,-6.77891 3.48856,-3.80865 6.648997,-5.71041 9.489672,-5.71041 2.342508,0 6.190981,-1.51964 8.552112,-3.37695 2.361132,-1.85721 5.10804,-2.86375 6.104232,-2.23659 1.173132,0.73851 0.801731,1.3401 -1.054165,1.70762 z m 18.728305,-0.32158 c 2.05308,0.78781 2.5299,3.74197 2.5299,15.67386 0,9.11769 0.712872,15.41595 1.876632,16.57971 1.4359083,1.4359 0.6854283,1.79273 -3.195564,1.51939 -2.798892,-0.19706 -5.073647,-1.25324 -5.0754,-2.35643 -0.0012,-1.09957 0.716568,-1.99922 1.596216,-1.99922 0.896388,0 1.599349,-4.41292 1.599349,-10.04008 0,-10.5031 -2.860981,-17.14932 -7.382245,-17.14932 -1.321536,0 -1.957932,-0.71971 -1.41432,-1.59936 1.108992,-1.79436 5.642893,-2.09539 9.465432,-0.62855 z m -11.660448,3.42745 c 1.989432,2.53673 1.932852,2.59325 -0.603888,0.60388 -2.664156,-2.08936 -3.511344,-3.40271 -2.195016,-3.40271 0.331871,0 1.59162,1.25951 2.798904,2.79889 z m 52.575324,-2.08161 c 0,0.39473 -1.783115,2.64132 -3.962472,4.99288 -4.489117,4.84382 -6.439488,12.69565 -5.141113,20.69672 0.710089,4.3757 0.296197,5.62242 -2.122655,6.39006 -1.652737,0.52469 -2.642461,1.89815 -2.199492,3.05246 1.23576,3.22051 -10.6861918,4.48599 -22.6437477,2.4037 -5.6717883,-0.98775 -10.3123803,-2.05103 -10.3123803,-2.36288 0,-0.31193 5.614848,-0.42134 12.4774082,-0.2436 9.6375361,0.24964 13.4597758,-0.31978 16.7934608,-2.50442 4.147811,-2.71777 4.315979,-3.37697 4.315979,-16.91889 0,-7.75003 0.479964,-14.57078 1.06626,-15.15719 1.178268,-1.17826 11.728752,-1.49218 11.728752,-0.34877 z m 16.805736,0.86216 c -0.536796,0.86874 1.93962,2.7462 5.503429,4.17212 3.563759,1.42595 6.502294,3.05426 6.530099,3.61848 0.03024,0.56399 1.847136,3.06855 4.042945,5.56511 3.567503,4.05611 4.498354,4.36283 8.746031,2.88207 4.212192,-1.46829 4.753632,-1.30218 4.753632,1.45845 0,2.39548 -1.109003,3.1156 -4.798129,3.1156 -2.639015,0 -4.798115,0.7922 -4.798115,1.7604 0,1.09943 2.645053,1.54985 7.044515,1.19955 3.874465,-0.30829 6.741613,-0.0707 6.371364,0.52832 -0.369947,0.59903 0.06048,1.54106 0.952369,2.09357 3.936,2.43259 0.821256,3.39681 -9.870444,3.05558 -10.747727,-0.34274 -11.788596,-0.70212 -15.99372,-5.51851 -2.4738,-2.83333 -4.497865,-5.77377 -4.497865,-6.53422 0,-2.00992 -9.212459,-1.69813 -10.48122,0.35483 -0.699144,1.13124 0.474528,1.54974 3.364644,1.19957 2.767644,-0.3355 4.722253,0.30647 5.192485,1.70544 0.587568,1.74734 -0.487824,2.0418 -4.862976,1.33183 -4.997004,-0.81092 -6.300696,-0.20615 -11.810125,5.48025 -6.834767,7.05415 -11.7909,10.37569 -11.7909,7.90207 0,-0.85132 1.439413,-2.00472 3.198769,-2.56311 1.759308,-0.55852 3.198708,-1.95852 3.198708,-3.11148 0,-1.15288 1.619363,-3.30401 3.598643,-4.78022 3.062088,-2.28386 3.135049,-2.54113 0.489636,-1.72563 -2.854211,0.87984 -2.906928,0.72334 -0.642996,-1.90926 3.574213,-4.15629 4.660416,-8.14158 2.462677,-9.03568 -1.050167,-0.42737 -0.573048,-0.8336 1.060632,-0.90304 1.959456,-0.0833 2.656788,-0.94252 2.049396,-2.5253 -0.560965,-1.46136 -0.0024,-2.39903 1.428288,-2.39903 1.291848,0 2.348855,-0.83971 2.348855,-1.86596 0,-1.02629 0.408037,-1.45773 0.907224,-0.95871 0.498698,0.49871 -0.988883,4.64894 -3.306311,9.22214 -4.749157,9.37208 -4.280736,12.83885 0.618696,4.57863 1.75452,-2.95805 3.980856,-6.27798 4.947372,-7.37753 2.088564,-2.37612 4.829917,-2.63157 4.829917,-0.44974 0,0.85202 0.899591,1.23642 1.999223,0.85414 1.099561,-0.38203 4.514855,2.51926 7.58958,6.44771 5.82744,7.44563 8.004264,8.75396 8.004264,4.81104 0,-4.07103 -11.936761,-15.26142 -16.279212,-15.26142 -2.18874,0 -4.433989,-0.45457 -4.989504,-1.01001 -1.0413,-1.04134 1.534188,-6.98691 3.026603,-6.98691 0.46062,0 0.398364,0.71077 -0.13842,1.57947 z m -16.054236,7.44029 c -2.172649,3.20156 -3.950268,7.51992 -3.950268,9.59626 0,2.07637 -0.672072,3.77528 -1.493449,3.77528 -0.821375,0 -1.136975,-1.96598 -0.701267,-4.36883 0.925596,-5.10436 6.613103,-14.82367 8.674463,-14.82367 0.781429,0 -0.356651,2.6194 -2.529479,5.82096 z m -44.891437,-0.59903 c 0.619237,-0.61925 0.691957,0.004 0.161402,1.38711 -0.678481,1.76807 -2.244528,2.25131 -5.28251,1.63006 -2.869798,-0.58695 -3.409127,-1.07731 -1.607927,-1.46244 1.707311,-0.3651 2.398847,-1.57819 1.868652,-3.2782 -0.766488,-2.45796 -0.6375,-2.45126 1.44636,0.0756 1.258357,1.52573 2.794548,2.26737 3.413843,1.64814 z m -18.291923,4.26924 c 3.069348,5.73516 2.08584,6.98028 -4.661629,5.90127 -5.935824,-0.94916 -6.62791,-0.62353 -11.463264,5.39344 -5.037438,6.26841 -5.361988,6.40357 -15.379438,6.40357 -5.628386,0 -11.609308,0.73633 -13.290995,1.63635 -2.467095,1.32033 -2.877059,1.16589 -2.122839,-0.79967 0.514418,-1.33987 1.937382,-2.4361 3.162799,-2.4361 1.225357,0 2.048005,-0.8996 1.828093,-1.99922 -0.269601,-1.34702 2.302615,-2.15558 7.884999,-2.47874 6.838874,-0.39595 9.141852,-1.35605 13.19482,-5.50159 2.70049,-2.76208 4.910013,-5.68902 4.910013,-6.50423 0,-0.81523 1.752769,-1.14715 3.89502,-0.73762 2.142241,0.40986 4.841222,0.14449 5.997661,-0.58876 3.147204,-1.99579 4.223988,-1.69094 6.04476,1.71124 z m 19.248768,6.18277 c 0,4.31662 -2.461596,8.31674 -5.118024,8.31674 -0.703681,0 -1.279452,-0.76221 -1.279452,-1.69377 0,-0.93157 0.7197,-1.24892 1.599347,-0.70525 0.87966,0.54343 1.599361,0.22609 1.599361,-0.7053 0,-3.16912 -0.70212,-4.09357 -2.751637,-3.62291 -2.57832,0.59181 -2.646444,-1.62934 -0.127548,-4.14848 3.322513,-3.32253 6.077653,-2.16251 6.077653,2.55897 z m -9.824989,4.89047 c -0.882491,0.31432 0.01213,2.29098 1.984058,4.39194 1.973711,2.1009 3.236603,4.17176 2.806511,4.60191 -0.430392,0.43039 -3.251845,-1.77036 -6.270529,-4.88995 -3.457127,-3.57268 -4.384295,-5.25009 -2.504999,-4.53219 2.556432,0.97661 2.818908,0.58998 1.833768,-2.70081 -1.117691,-3.7338 -1.081488,-3.75163 1.303044,-0.64179 1.422048,1.85459 1.77846,3.43913 0.848147,3.77089 z m -10.260276,-1.22121 c -0.594816,0.96249 -2.846711,1.41252 -5.004119,1.00014 -2.6748,-0.51141 -4.518252,0.20372 -5.795113,2.24845 -1.029802,1.64902 -2.452643,2.99824 -3.161771,2.99824 -0.709128,0 0.0036,-1.77664 1.584241,-3.94813 2.035306,-2.79644 4.417475,-3.96286 8.165963,-3.99847 3.43398,-0.0301 4.91256,0.56399 4.210799,1.69977 z m 124.044589,11.8447 c -2.571313,3.09818 -4.966044,3.09818 -3.777144,0 0.506568,-1.31953 2.01132,-2.39908 3.344388,-2.39908 1.973111,0 2.053571,0.4461 0.432816,2.39908 z m -17.193264,1.85892 c -1.09962,0.44369 -2.898876,0.44369 -3.998448,0 -1.099559,-0.44369 -0.200088,-0.80674 1.999223,-0.80674 2.199133,0 3.098784,0.36269 1.999225,0.80674 z"
       id="path2390" /></g></svg>
