<?xml version="1.0" encoding="UTF-8" standalone="no"?>
<!-- Created with Inkscape (http://www.inkscape.org/) -->

<svg
   width="210mm"
   height="297mm"
   viewBox="0 0 210 297"
   version="1.1"
   id="svg2400"
   xml:space="preserve"
   inkscape:version="1.2.2 (732a01da63, 2022-12-09)"
   sodipodi:docname="Thrymr.svg"
   xmlns:inkscape="http://www.inkscape.org/namespaces/inkscape"
   xmlns:sodipodi="http://sodipodi.sourceforge.net/DTD/sodipodi-0.dtd"
   xmlns="http://www.w3.org/2000/svg"
   xmlns:svg="http://www.w3.org/2000/svg"><sodipodi:namedview
     id="namedview2402"
     pagecolor="#ffffff"
     bordercolor="#000000"
     borderopacity="0.25"
     inkscape:showpageshadow="2"
     inkscape:pageopacity="0.0"
     inkscape:pagecheckerboard="0"
     inkscape:deskcolor="#d1d1d1"
     inkscape:document-units="mm"
     showgrid="false"
     inkscape:zoom="2.3786088"
     inkscape:cx="248.04415"
     inkscape:cy="433.86706"
     inkscape:window-width="2560"
     inkscape:window-height="1494"
     inkscape:window-x="-11"
     inkscape:window-y="-11"
     inkscape:window-maximized="1"
     inkscape:current-layer="layer1" /><defs
     id="defs2397" /><g
     inkscape:label="레이어 1"
     inkscape:groupmode="layer"
     id="layer1"><path
       style="fill:#000000;stroke-width:1.53061"
       d="M -70.107923,-150.15915 -75,-145.11182 v 101.430693 c 0,63.113506 0.565194,102.486462 1.495651,104.22543 0.822626,1.537069 4.565862,4.593906 8.318354,6.793014 7.986179,4.680166 11.858131,9.670182 15.222333,19.617753 l 2.439299,7.212894 -6.248425,9.055016 c -6.032935,8.74261 -6.196361,9.29907 -4.738601,16.13397 l 1.509767,7.07897 -7.468596,5.48249 c -7.352376,5.3971 -7.468539,5.61213 -7.468539,13.81848 0,6.34155 0.605457,8.56837 2.530702,9.30711 2.639807,1.01301 32.517027,-8.79902 38.280147,-12.57164 1.821,-1.192 3.76985,-4.25699 4.33082,-6.81101 1.16637,-5.3105 1.86091,-5.55133 6.54635,-2.26951 1.86427,1.30579 7.19271,3.68261 11.8410097,5.28187 7.74332981,2.66404 8.99212979,2.71691 14.9042197,0.63108 3.5489696,-1.25215 8.6478096,-3.57182 11.3307096,-5.15477 5.20013,-3.06812 6.6646,-2.71431 6.6646,1.61037 0,4.20637 6.97328,8.11911 25.25796,14.17229 19.732779,6.53252 21.532139,6.70104 22.756879,2.13089 2.50496,-9.34726 1.41327,-11.53161 -9.0737,-18.15466 -7.51285,-4.7448 -9.79057,-6.96501 -9.05345,-8.82471 2.88717,-7.28388 2.39337,-11.89902 -2.2068,-20.62497 -2.596939,-4.926101 -4.721709,-9.858376 -4.721709,-10.960765 0,-1.10233 1.4934,-5.906755 3.318679,-10.676471 2.86414,-7.484564 4.48869,-9.409282 11.86223,-14.053878 4.69898,-2.959947 9.40455,-6.482474 10.45684,-7.827953 C 74.57387,59.038694 75,35.687835 75,-43.910846 75,-144.98611 74.9595,-146.37335 71.83451,-150.76108 l -3.16543,-4.44542 H 1.7266115 -65.215846 Z m 40.546935,-2.52723 c -0.54436,0.54436 -8.407727,1.26945 -17.474485,1.61158 -15.301646,0.57734 -16.787058,0.91148 -20.694125,4.65395 -5.424007,5.19562 -5.505691,2.68407 -0.09603,-2.96214 4.038559,-4.21534 4.430434,-4.29292 21.683647,-4.29292 9.663943,0 17.125483,0.44545 16.581233,0.98953 z m 78.362619,-0.3014 c -1.09794,1.09799 -74.789289,1.38544 -75.878659,0.29619 -0.54147,-0.54148 16.46478,-0.9842 37.791319,-0.9842 21.32648,0 38.46579,0.3095 38.08734,0.68812 z m 12.058059,0.36329 c -1.46343,0.38297 -4.21853,0.39686 -6.12249,0.0289 -1.90396,-0.36619 -0.70658,-0.67956 2.66075,-0.69651 3.36733,-0.0174 4.92511,0.2823 3.46174,0.66562 z m 12.60966,108.624214 c 0,98.790484 -0.0816,101.629812 -2.99773,104.546139 -1.64872,1.648719 -5.60918,4.330526 -8.80099,5.959575 -7.85347,4.008186 -11.04679,7.863123 -14.420599,17.408235 -2.00918,5.684385 -2.5679,6.489884 -1.88827,2.722187 1.1375,-6.306154 5.204349,-15.312226 6.914509,-15.312226 0.65948,0 0.8026,-1.033199 0.31817,-2.295938 -0.61842,-1.611529 0.12148,-2.295888 2.48205,-2.295888 1.84969,0 6.04132,-1.894129 9.31476,-4.209217 l 5.95166,-4.209156 0.13652,-94.132588 c 0.0752,-51.772896 0.29966,-97.232007 0.49925,-101.020307 0.20594,-3.91094 -0.60286,-8.54148 -1.87145,-10.71426 l -2.23422,-3.82653 3.2982,2.9158 3.29814,2.91581 z M 53.3547,-147.58484 l 11.26286,0.0289 -0.99259,3.95479 c -0.64364,2.56443 -0.43272,3.60886 0.59938,2.97089 0.94735,-0.5855 1.59197,0.63866 1.59197,3.02328 0,2.79843 -0.57734,3.66045 -1.91327,2.85779 -1.49559,-0.89853 -1.4898,-0.6264 0.0289,1.24626 1.06681,1.31764 1.50635,3.52496 0.97674,4.90515 -0.52933,1.38018 -0.17297,3.46126 0.7926,4.62468 2.04777,2.46747 1.67626,5.33862 -1.07312,8.2929 -1.57889,1.69661 -2.40273,1.73086 -4.27406,0.1776 -1.75581,-1.45718 -2.74787,-1.49403 -4.08993,-0.15214 -2.49814,2.49812 -5.7515,2.2017 -5.7515,-0.52412 0,-2.59197 -0.26842,-2.68424 -3.829659,-1.31759 -2.05784,0.78965 -2.15578,1.25794 -0.50792,2.42865 1.426,1.01312 0.91183,1.19893 -1.7053,0.61638 -2.06079,-0.45874 -4.47151,-0.23718 -5.35714,0.49288 -1.09463,0.90194 -1.70252,-2.01021 -1.8984,-9.09393 -0.24586,-8.88435 0.11744,-10.52677 2.4625,-11.14003 2.57819,-0.67419 5.74415,-8.25142 4.12441,-9.8711 -1.40605,-1.40604 -4.00287,1.29301 -4.00287,4.16039 0,1.58428 -0.59655,3.24919 -1.32563,3.69979 -0.72902,0.45065 -1.08688,-1.23065 -0.79515,-3.73617 0.38586,-3.31486 -0.1128,-4.55545 -1.83187,-4.55545 -1.48686,0 -2.18476,1.10863 -1.88336,2.99165 0.26321,1.64542 -0.21,3.05025 -1.05171,3.12187 -0.84189,0.0717 -1.75072,-1.27467 -2.01978,-2.99165 -0.48941,-3.12251 -2.52156,-4.14963 -3.87559,-1.95874 -1.08249,1.75146 3.20853,11.08172 5.09652,11.08172 1.0303,0 1.50936,3.43136 1.28218,9.18366 l -0.36272,9.18366 -6.94812,0.0463 c -3.82145,0.0289 -15.73008,0.199 -26.46360949,0.38239 -10.73358951,0.18396 -19.51548951,-0.15562 -19.51531951,-0.75402 2.9e-4,-1.45248 6.36852,-7.33003 7.94193,-7.33003 2.3569697,0 1.23498,-5.97427 -1.39887,-7.44823 -2.48026,-1.38799 -2.45938,-1.83465 0.34247,-7.34647 1.64091,-3.22773 3.2310897,-6.38512 3.5336397,-7.01649 0.30256,-0.63137 -0.3685,-1.1445 -1.4906697,-1.14016 -1.12241,0.005 -3.18001,2.58716 -4.57234,5.73981 l -2.53157,5.73193 -0.14694,-5.85197 c -0.11917,-4.73698 -0.65741,-5.74045 -2.82562,-5.26625 -1.47321,0.32222 -2.45145,1.57051 -2.17394,2.77407 0.27768,1.20357 0.62344,7.87817 0.76865,14.83254 l 0.26379,12.64423 -6.12572,0.17586 c -12.51635,0.35983 -26.038012,-0.50329 -26.480333,-1.69036 -0.251068,-0.67384 -2.520636,-0.44602 -5.043354,0.50618 -6.240096,2.35535 -7.053755,0.62182 -7.384714,-15.73337 -0.216937,-10.7216 0.223879,-13.78591 2.22213,-15.44423 1.96279,-1.62894 3.11273,-1.68158 5.408908,-0.2476 3.339618,2.0856 9.664115,2.47372 8.455921,0.51891 -0.442552,-0.71624 4.510325,-1.21814 11.006637,-1.11534 6.496315,0.10297 13.344355,-0.1724 15.217935,-0.61096 1.87353,-0.43908 17.7153796,-0.63976 35.204039,-0.4466 17.48872,0.19322 36.86595,0.36561 43.060519,0.38239 z m -90.089418,17.63316 c 0,8.67348 0.61766,14.54079 1.53065,14.54079 0.84183,0 1.53059,-1.5734 1.53059,-3.4965 0,-2.26188 1.62148,-4.45433 4.59184,-6.20898 2.52549,-1.49188 4.59183,-3.23345 4.59183,-3.87014 0,-0.63676 -2.07056,-3.14148 -4.6012,-5.56603 -3.05205,-2.92403 -4.30571,-5.33948 -3.7234,-7.17407 0.59169,-1.86439 0.096,-2.76587 -1.52122,-2.76587 -2.00999,0 -2.39909,2.3582 -2.39909,14.5408 z m 4.84805,2.65195 c -1.36202,1.36201 -1.76216,0.53107 -1.6832,-3.49378 0.0972,-4.95919 0.20595,-5.06794 1.78675,-1.78681 1.24459,2.58334 1.21757,3.95948 -0.10355,5.28059 z m 25.7642096,-5.07309 c 0,6.66587 -0.44487,13.27909 -0.98866,14.69607 -0.7380999,1.92362 -0.27594,2.43907 1.82442,2.03464 5.93533989,-1.14306 14.9817297,-28.85037 9.4195798,-28.85037 -1.55257,0 -2.4206099,2.68534 -3.0258999,9.36069 -1.146,12.63817 -4.0853599,15.52921 -4.4106999,4.33828 -0.13364,-4.58802 -0.14174,-9.54719 -0.0174,-11.0204 0.12322,-1.47321 -0.45643,-2.67857 -1.28814,-2.67857 -0.86897,0 -1.51255,5.15669 -1.51255,12.11966 z M 14.990731,-143.6669 c -0.45412,0.45412 -0.46743,4.00506 -0.0289,7.89106 0.58429,5.18405 0.19149,7.51158 -1.4754,8.74072 -2.54788,1.87884 -5.8330597,7.50688 -5.8330597,9.99298 0,0.8972 1.03314,1.63125 2.29594,1.63125 1.4285497,0 2.2958897,-1.44555 2.2958897,-3.82654 0,-2.10458 0.68876,-3.82654 1.5306,-3.82654 0.84183,0 1.53065,1.72196 1.53065,3.82654 0,5.59553 2.76563,4.6782 3.46092,-1.14791 l 0.59372,-4.97452 1.2252,4.97452 c 0.67389,2.73595 2.1858,4.97445 3.35975,4.97445 3.20974,0 1.29225,-7.8408 -2.64345,-10.80954 -2.74741,-2.07235 -3.1777,-3.7143 -2.71698,-10.36814 0.49751,-7.18368 -0.8453,-9.82759 -3.59456,-7.07833 z m -85.883908,7.11443 c -0.488832,1.22104 -0.85132,0.85838 -0.924789,-0.92473 -0.06653,-1.61348 0.295613,-2.5175 0.80394,-2.00889 0.508501,0.5085 0.56288,1.82874 0.120906,2.93362 z m 55.587049,13.14331 c 0,4.08739 -3.82984,0.83917 -4.24381,-3.59935 -0.39801,-4.26759 -0.31008,-4.33683 1.91321,-1.50265 1.28184,1.63409 2.3306,3.93002 2.3306,5.102 z m -55.501547,29.044157 c -0.303712,4.840586 -0.552467,0.88013 -0.552467,-8.800987 0,-9.68111 0.248755,-13.64157 0.552467,-8.80104 0.303712,4.84059 0.303712,12.761501 0,17.602027 z m 10.31539,-14.977037 c 0.536847,0.8685 8.929769,1.2657 20.370917,0.96407 10.70194,-0.28231 22.38537,-0.1857 25.96321,0.21462 l 6.5051097,0.72735 v 6.48468 c 0,6.305748 -0.17934,6.538017 -6.5051097,8.415706 -3.57784,1.062009 -7.19387,2.458798 -8.0357,3.103997 -0.84189,0.645199 -4.14558,2.015598 -7.34167,3.045327 -3.19604,1.029789 -8.788328,4.391267 -12.42726,7.469924 -3.638991,3.078647 -7.918264,6.654294 -9.509482,7.945853 -1.591278,1.291549 -4.353321,4.352676 -6.137933,6.802504 l -3.244686,4.454266 -0.919235,-6.037215 c -0.505608,-3.320467 -1.321291,-9.034702 -1.812611,-12.698329 -0.491145,-3.663576 -1.508494,-8.279012 -2.260369,-10.256491 -2.18771,-5.754215 -2.36554,-16.467302 -0.284621,-17.160872 1.015439,-0.33842 1.846221,-1.59116 1.846221,-2.78373 0,-2.46776 2.422697,-2.90928 3.79345,-0.69137 z m 61.7654165,0.0521 c 0.5623,-5.8e-4 0.82922,18.529714 0.59261,41.178455 -0.35462,33.97342 -0.82361,41.506054 -2.67855998,43.045552 -1.95364992,1.621359 -2.25377992,-0.315859 -2.28929992,-14.775487 -0.0231,-9.152772 -0.19495,-28.875235 -0.38239,-43.827692 -0.27825,-22.113798 0.0405,-27.040058 1.6966799,-26.403018 1.12119001,0.43098 2.49871999,0.78271 3.06125,0.78219 z m 10.6793795,0.52412 c 1.8258,-1.13085 3.64397,-1.25916 5.02114,-0.35404 2.89649,1.90303 24.82201,1.19454 26.24268,-0.84802 0.74233,-1.06722 1.13247,-0.96645 1.14798,0.29677 0.0173,1.35843 3.35205,1.91321 11.502119,1.91321 h 11.47864 l -0.38181,5.35411 c -0.21,2.944742 -0.8718,5.35546 -1.47072,5.35713 -1.83332,0.005 -4.75191,12.851988 -3.04875,13.419728 0.83425,0.27825 1.20311,2.022308 0.81973,3.876107 -1.93137,9.338472 -4.07436,16.380705 -4.98481,16.380705 -0.5594,0 -3.69956,-3.517387 -6.97803,-7.816433 -6.487109,-8.506422 -12.404109,-12.726969 -25.101879,-17.904994 -8.46703,-3.452767 -18.5016697,-4.768446 -13.95403,-1.829559 1.7956,1.160409 1.39783,1.488879 -1.82528,1.507219 -3.7315496,0.0231 -4.1765296,0.638429 -4.7070796,6.528524 l -0.5859,6.505105 -0.26727,-7.318474 c -0.19842,-5.438635 0.3552,-7.557383 2.15682,-8.248693 1.6567699,-0.635769 1.8736499,-1.270609 0.6851199,-2.005128 -1.8883399,-1.167069 -3.5053599,-13.456747 -2.0751399,-15.770977 0.48363,-0.78224 1.46071,-0.48767 2.1716299,0.65434 1.00937,1.62165 1.91975,1.68824 4.1548397,0.30372 z m -28.789239,21.243621 c -2.10463,0.91391 -7.50376,3.267878 -11.99812,5.231076 -5.27655,2.304908 -11.949075,7.346983 -18.833966,14.231867 -10.160814,10.160812 -10.633505,10.951331 -10.04818,16.804226 0.337843,3.378027 0.02893,5.781575 -0.681356,5.341225 -0.712537,-0.440239 -1.295549,-3.506857 -1.295549,-6.814424 0,-5.333295 1.06224,-7.066134 9.387073,-15.313787 5.162871,-5.114965 11.142816,-10.46122 13.288758,-11.880559 5.36396,-3.547707 18.91599,-9.354612 21.71194,-9.303302 1.26274,0.0231 0.57387,0.789829 -1.5306,1.703678 z m 10.0406096,6.166965 c -0.21405,5.893515 -1.7686499,8.800992 -4.7051096,8.800992 -1.17528,0 -6.60466,2.134199 -12.06529,4.742586 -14.856724,7.096614 -23.405031,16.707906 -29.096361,32.714502 -0.899046,2.528438 -1.304458,2.652648 -2.498075,0.765289 -1.926112,-3.045677 -1.827073,-5.918265 0.10413,-3.018317 1.073752,1.612398 1.236368,0.35925 0.546103,-4.209146 -0.662902,-4.388667 -0.421147,-6.505105 0.743603,-6.505105 0.949432,0 1.726241,-0.998949 1.726241,-2.219868 0,-1.220929 0.86098,-2.770668 1.91327,-3.443867 2.907824,-1.860278 7.573014,-10.97573 6.503138,-12.706719 -0.518914,-0.840149 0.05785,-1.527529 1.278483,-1.527529 1.222368,0 2.585601,-0.946189 3.029368,-2.102608 0.443709,-1.156479 3.40956,-2.590918 6.59067,-3.187697 3.1811,-0.596779 7.17761,-2.061308 8.88117,-3.254517 1.70351,-1.193159 5.52692,-2.179958 8.49653,-2.192858 4.04932,-0.0173 4.8252,-0.39454 3.1033,-1.507159 -1.26275,-0.816089 -4.01785,-1.546679 -6.12248,-1.623619 -3.41546,-0.124949 -3.25105,-0.361559 1.53065,-2.202918 8.7099897,-3.354197 10.2450396,-2.944677 10.0405996,2.678558 z M -70.797725,-39.26344 c -0.275366,8.207902 -0.500402,1.492348 -0.500402,-14.923478 0,-16.415755 0.225036,-23.131319 0.500402,-14.923407 0.275365,8.207913 0.275365,21.638972 0,29.846885 z m 92.991576,-42.474414 c -4.20777,1.808099 -6.62445,1.808099 -3.82654,0 1.26275,-0.816079 3.32909,-1.445898 4.59184,-1.399618 1.51387,0.0579 1.2532,0.532219 -0.7653,1.399618 z m 19.13264,3.637947 c 1.26275,0.54321 0.62582,0.66881 -1.41547,0.27884 -2.36571,-0.45181 -4.40151,0.23487 -5.61468,1.893888 -1.04673,1.431549 -2.29259,2.213448 -2.76846,1.737579 -1.48281,-1.482809 4.28193,-7.415424 5.94361,-6.116695 0.85751,0.67025 2.59226,1.663119 3.855,2.206388 z m 23.539189,39.219136 c -4.48366,14.356778 -8.42682,22.232391 -9.85421,19.681733 -1.55831,-2.784487 -1.31991,-4.222056 2.75591,-16.620545 1.79878,-5.471906 3.58912,-12.35968 3.97851,-15.306087 0.38933,-2.946408 1.63669,-10.126561 2.77182,-15.955916 l 2.06391,-10.598791 0.45644,15.190617 c 0.33437,11.12621 -0.24702,17.443065 -2.1725,23.608989 z M 9.1206413,-70.984663 c -1.01764,0.628949 -1.8502699,2.995467 -1.8502699,5.258905 0,2.676588 -0.52238,3.593047 -1.49409,2.621288 -2.38845,-2.388448 0.10066,-10.97851 2.8728299,-9.914711 1.7161697,0.658559 1.8391597,1.189279 0.47147,2.034518 z m 20.5224297,-0.23776 c 0.73822,1.166659 1.75673,1.468919 2.29595,0.68136 1.23706,-1.806829 15.50996,-0.65192 15.50996,1.255109 0,0.829969 -3.20859,1.003519 -7.65308,0.414199 -5.35065,-0.709819 -7.65308,-0.483619 -7.65308,0.75188 0,1.209228 -1.419,1.033309 -4.49476,-0.5571 -5.84973,-3.024967 -6.91249,-4.897166 -2.69951,-4.755376 1.85224,0.0625 3.9648,1.056979 4.69452,2.210278 z m -89.956079,26.784767 c 5.357248,23.60292 5.479947,30.561214 0.336686,19.095253 -4.67271,-10.41713 -7.339417,-23.990219 -7.170611,-36.497348 0.08504,-6.313794 0.495195,-10.102031 0.911425,-8.418373 0.415941,1.683659 3.081144,13.302859 5.922326,25.820468 z m 49.59871,-24.446939 c -4.45583,1.585319 -5.7965,3.175207 -7.96871,9.449892 -2.65218,7.661173 -3.53763,6.529744 -1.77749,-2.271128 1.01879,-5.093736 6.48168,-9.240072 12.0421497,-9.139872 1.9123399,0.0347 1.0507299,0.770439 -2.2959497,1.961108 z m 42.857119,5.599175 c 0,1.834469 -3.45213,0.0602 -9.18367,-4.719796 l -3.82648,-3.191347 6.50505,3.178907 c 3.57784,1.748399 6.5051,3.877907 6.5051,4.732236 z m -56.533349,2.790788 c -4.83105,9.026892 0.48304,25.834188 10.73549,33.954341 4.9833697,3.946856 6.0019897,5.685475 6.0019897,10.244281 0,5.502505 -3.4711697,11.08883 -6.8902197,11.08883 -1.00311,0 -4.3097,2.4141879 -7.34792,5.36488539 -6.11809,5.94181481 -7.79296,11.62665961 -6.96148,23.62899961 0.29503,4.258446 0.0729,7.742273 -0.49288,7.741703 -2.53099,-0.002 -15.364417,-16.790695 -18.36,-24.018049 -1.821925,-4.3957762 -3.714947,-7.74279327 -4.206555,-7.43781354 -0.491724,0.30486974 -0.761652,-2.30785796 -0.599904,-5.80644496 0.369083,-7.9809135 0.527013,-13.3566685 0.479576,-16.3100155 -0.107601,-6.690225 5.603746,-24.489749 7.858272,-24.489749 0.823841,0 1.061662,-0.70583 0.528748,-1.568549 -0.533376,-0.862649 -0.401478,-1.379249 0.292142,-1.147969 0.693968,0.2314 1.261707,-0.0405 1.261707,-0.604069 0,-1.834769 7.524424,-9.204542 13.010214,-12.742819 5.68161,-3.664557 7.37204,-2.906958 4.6911,2.102438 z M -38.1182,-45.607785 c -8.570058,10.895101 -10.530244,41.7022839 -3.513513,55.2202322 5.332435,10.2731508 6.420585,9.0014418 2.339392,-2.7340376 -3.52277,-10.1298013 -5.238888,-29.5672346 -2.938949,-33.2885416 0.424618,-0.686679 1.183262,-3.601266 1.686383,-6.476874 0.503294,-2.875537 2.282988,-7.553623 3.955259,-10.395671 3.78859,-6.438694 2.84101,-7.880023 -1.528572,-2.325108 z m 31.1723016,-19.387273 c 0.48826,0.790109 -0.33205,2.146688 -1.8229599,3.014667 -1.4909097,0.867979 -1.9244397,1.599089 -0.96343,1.624659 0.96106,0.0231 2.14154,1.617078 2.6233099,3.536587 1.0822,4.312016 -0.4078399,10.550201 -2.2487399,9.412642 -0.7460897,-0.46107 -1.3565797,-0.16661 -1.3565797,0.654969 0,0.821359 0.7503197,1.743479 1.6674097,2.049158 0.91704,0.30545 1.9823999,4.151367 2.3673899,8.545933 0.61344,7.001334 0.34999,7.990103 -2.1265599,7.990103 -3.0291897,0 -6.5000697,-2.742028 -6.5000697,-5.135156 0,-0.803939 1.25956,-0.321649 2.79906,1.071379 4.3088397,3.899487 5.6242296,2.999628 1.65052,-1.129059 -1.93867,-2.014268 -4.42164,-3.318147 -5.51778,-2.897467 -1.0962,0.42057 -1.99305,-0.0405 -1.99305,-1.019949 0,-0.981539 0.73273,-1.331819 1.62825,-0.77837 1.10678,0.68402 1.28727,-0.811229 0.56345,-4.669115 -0.72381,-3.858417 -0.45932,-6.049595 0.82645,-6.844225 2.20512,-1.362818 3.26638,-11.990589 1.31765,-13.195028 -0.72851,-0.45007 -0.92826,-1.459779 -0.44371,-2.243418 1.14369,-1.850559 6.3836197,-1.842459 7.5295696,0.0116 z m 33.1887794,1.242039 c 12.65531,10.214311 15.00043,13.127518 18.12449,22.51522 4.9051,14.739907 5.38618,17.486735 5.27042,30.094764 -0.12843,13.9769881 -4.2338,23.68876 -15.28834,36.165409 -7.60478,8.583132 -10.61025,10.209171 -8.47125,4.583156 0.72196,-1.898858 1.31267,-7.748583 1.31267,-12.999269 0,-8.9450821 -0.38239,-9.9814712 -6.07245,-16.44537561 -4.79315,-5.44529529 -7.09309,-6.89877399 -10.91691,-6.89906399 -4.6909296,-4e-4 -4.8419196,-0.2065199 -4.7669496,-6.5050944 0.0966,-8.098573 1.82447,-13.392478 4.3715999,-13.392478 2.9232697,0 10.8456497,-9.345182 12.8872297,-15.201667 2.02584,-5.811245 2.43125,-18.471744 0.59151,-18.471744 -0.66273,0 -1.30868,-1.377519 -1.43549,-3.061248 -0.28172,-3.743226 0.17992,-3.783436 4.39347,-0.382379 z m 7.38437,20.402832 c 2.53822,6.954934 4.92962,16.997495 5.31421,22.316731 0.62466,8.639942 0.14404,13.4028881 -3.28113,32.518332 -1.34669,7.515273 1.83708,4.819295 3.86541,-3.2731976 0.90032,-3.5921369 2.03007,-8.94180224 2.51057,-11.8882697 0.48016,-2.9464074 1.23516,-7.1345037 1.67713,-9.3068217 0.44197,-2.172378 0.0231,-7.338194 -0.93532,-11.47961 -0.95643,-4.141417 -2.07722,-9.533252 -2.49073,-11.98192 -1.03568,-6.132895 -6.9572,-18.141254 -9.32719,-18.914824 -1.2528,-0.408989 -0.30082,3.876867 2.66705,12.00958 z m -14.21852,-15.045707 c 1.58931,9.594222 1.22427,13.677148 -1.79086,20.031033 -2.50583,5.280585 -7.47525,10.198521 -10.3053796,10.198521 -0.65452,0 -1.09626,-1.894118 -0.9816,-4.209156 0.18801,-3.792517 0.27594,-3.855807 0.88828,-0.63936 0.6390099,3.355757 0.8476799,3.417887 3.4792096,1.036389 2.23567,-2.023248 2.52793,-3.480077 1.45128,-7.234073 -1.0052,-3.505007 -0.70634,-5.787005 1.17488,-8.971763 2.08115,-3.523047 2.17695,-4.688086 0.54668,-6.652034 -1.67175,-2.014328 -1.43989,-2.579348 1.50548,-3.668897 3.02908,-1.120549 3.13865,-1.419519 0.84305,-2.300398 -1.45122,-0.557089 -2.20987,-1.706168 -1.68592,-2.553958 1.98107,-3.205457 3.83389,-1.318798 4.87461,4.963696 z m 35.016139,-2.484998 c -0.79087,3.151138 -0.52354,3.833767 1.23804,3.157908 1.23585,-0.47437 2.59423,0.0405 3.01861,1.148489 1.0682,2.783737 -0.63756,14.525697 -2.25545,15.525626 -0.72821,0.45008 -1.39268,2.327418 -1.47662,4.171846 -0.14231,3.121808 -0.23718,3.089128 -1.37804,-0.473209 -1.0214,-3.189377 -1.25465,-3.316827 -1.4006,-0.765299 -0.1562,2.727677 -0.39165,2.644257 -2.16353,-0.7653 -1.640739,-3.157557 -1.631199,-4.043696 0.0521,-5.068565 1.12368,-0.68309 1.60395,-1.952669 1.06716,-2.821168 -0.53685,-0.868559 -0.93943,-4.228016 -0.89471,-7.465463 0.059,-4.277017 -0.624549,-6.072615 -2.500159,-6.567635 -1.82504,-0.481889 -1.57236,-0.733249 0.86255,-0.858789 1.894179,-0.0978 3.443919,-0.866299 3.443919,-1.708189 0,-0.841829 0.76344,-1.530588 1.6965,-1.530588 1.06716,0 1.32222,1.491488 0.68755,4.020106 z m -47.2568386,3.919957 c -0.48883,1.220979 -0.85132,0.858319 -0.92478,-0.924779 -0.0665,-1.613499 0.29561,-2.517518 0.80394,-2.008899 0.5084999,0.5085 0.5628799,1.828749 0.1209,2.933678 z m 0.0347,16.932365 c -0.36503,1.894119 -0.6633,0.34421 -0.6633,-3.443857 0,-3.788297 0.2985,-5.338035 0.6633,-3.443917 0.3650399,1.894179 0.3650399,4.993656 0,6.887774 z m -25.7009694,-1.147969 c 0.0463,0.841829 -0.58359,0.49751 -1.39962,-0.765299 -0.81603,-1.262749 -1.4459,-3.329087 -1.39962,-4.591826 0.0891,-2.424258 2.6398,2.457808 2.79924,5.357125 z m -44.622815,17.602035 c 1.364795,3.788237 3.447797,8.415413 4.62886,10.282581 4.192209,6.6273343 0.895343,6.7933042 -4.391791,0.22098 -4.998521,-6.213535 -5.321439,-7.261544 -4.651017,-15.095457 0.396272,-4.630066 0.99311,-7.040784 1.326441,-5.357125 0.333215,1.683658 1.722712,6.160724 3.087507,9.948961 z M 52.80623,-32.758206 c 0.52007,0.841839 0.21636,1.530599 -0.67499,1.530599 -0.89153,0 -1.62096,-0.68876 -1.62096,-1.530599 0,-0.841829 0.30371,-1.530589 0.67499,-1.530589 0.3714,0 1.10066,0.68876 1.62096,1.530589 z m 12.63876,11.5171 c -1.12455,2.504898 -3.73173,7.300654 -5.79385,10.657271 -6.24831,10.17070088 -5.47595,2.3143977 1.08544,-11.041621 4.73889,-9.646181 5.93106,-11.1667 6.29905,-8.034023 0.24933,2.125238 -0.46627,5.913475 -1.59064,8.418373 z m -64.2650585,1.971408 c 0.33322,0.999699 -0.52527001,1.817589 -1.90788999,1.817589 -1.39308001,0 -2.06332991,0.728959 -1.50334001,1.634948 0.55593,0.899279 1.97395001,1.265239 3.15153998,0.81337 2.80762992,-1.0774 2.75082992,1.262628 -0.0879,3.618506 -3.30009998,2.738848 -5.25062988,0.67829 -4.67108988,-4.934645 0.28173,-2.727278 0.57156,-5.188266 0.64474,-5.468896 0.30603,-1.174699 3.81658989,0.84738 4.3738599,2.519128 z M -70.799692,12.707505 c -0.287514,6.562714 -0.524699,1.600588 -0.527013,-11.0269409 -0.0021,-12.6275791 0.233135,-17.9970241 0.522963,-11.9322201 0.289829,6.0648652 0.291564,16.3964362 0.0039,22.959161 z M 65.06572,4.9271613 c -1.34975,2.8444775 -3.10052,5.1717157 -3.89052,5.1717157 -1.96759,0 -15.487629,14.054858 -14.484749,15.057687 0.44255,0.442549 3.03267,-1.229949 5.756069,-3.716507 6.57533,-6.003605 14.90312,-11.7300999 14.89004,-10.239021 -0.006,0.656599 -2.43183,2.842857 -5.39132,4.858346 -11.90962,8.110953 -17.907669,17.770784 -12.940559,20.840642 0.85554,0.528749 1.147219,1.622108 0.64809,2.429697 -0.49924,0.80758 2.589129,4.612076 6.862789,8.454463 4.27361,3.842327 7.77023,7.908533 7.77023,9.035972 0,1.127379 -1.90436,3.405857 -4.23189,5.063196 l -4.2319,3.013397 -3.97191,-3.416497 c -3.364379,-2.893937 -3.678329,-3.817976 -2.052459,-6.041495 1.905399,-2.605787 1.430279,-7.872493 -0.99253,-11.00194 -0.69466,-0.897249 -1.72318,-5.546465 -2.28559,-10.331581 -0.56231,-4.785166 -1.61645,-8.700212 -2.3424,-8.700212 -1.95487,0 -1.47813,10.390991 0.87781,19.132623 2.013,7.468993 1.96533,7.757323 -1.98084,11.98915 -2.22386,2.384867 -9.02314,7.675003 -15.10958,11.755899 -7.92359,5.312706 -10.31424,7.616924 -8.41838,8.113913 2.06212,0.54031 1.92623,0.73336 -0.61437,0.87162 -1.79421,0.0978 -5.1108,2.601157 -7.37013,5.563365 -2.2593897,2.962197 -4.6846296,5.029405 -5.3894696,4.593796 -0.70485,-0.43561 0.71763,-2.932058 3.1609699,-5.547685 2.4433497,-2.615618 4.4424697,-5.312926 4.4424697,-5.994055 0,-0.68112 3.61608,-3.827927 8.03576,-6.992944 12.70199,-9.096252 19.72664,-18.879244 16.41844,-22.86533 -0.96719,-1.165449 -1.35057,-2.779048 -0.8519,-3.585887 0.49867,-0.80677 0.0405,-1.780149 -1.01619,-2.162948 -1.52712,-0.55304 -1.50583,-1.400139 0.10355,-4.117457 1.57369,-2.657217 1.59191,-3.152937 0.0816,-2.219528 -1.06953,0.66105 -0.34594,-1.043319 1.60811,-3.787487 1.954,-2.744107 4.50014,-5.352905 5.65813,-5.797255 1.15798,-0.444279 2.12812,-1.939588 2.15583,-3.322717 0.0289,-1.383188 2.08497,-5.958705 4.571699,-10.167861 2.48668,-4.2092162 4.96787,-8.6862724 5.51368,-9.94902127 0.5461,-1.2627489 3.13784,-5.50447523 5.76,-9.42605183 l 4.76752,-7.1301739 0.46917,7.6982534 c 0.29214,4.7905459 -0.4576,9.6515616 -1.98506,12.8699189 z M -65.063064,-11.310025 c -0.527013,0.85265 1.338762,4.2335767 4.145987,7.5132538 2.807282,3.27962717 6.619359,10.1741712 8.471251,15.3211872 l 3.367152,9.358201 -6.911095,-5.774515 C -65.104427,7.492459 -67.030424,4.2880318 -67.357507,-3.8051012 c -0.352306,-8.7226628 -0.292721,-9.0551818 1.631599,-9.0551818 0.891525,0 1.189799,0.697609 0.662844,1.550258 z m 66.8234655,6.9235943 c -0.29446,1.6531686 -1.32777001,3.51176698 -2.29594999,4.13030645 -1.05888001,0.67642941 -0.43907999,1.13384902 1.55604999,1.147909 1.8240099,0.0116 3.6637499,-0.83748927 4.0883699,-1.88983836 0.4628,-1.14710899 0.82037,-0.84506929 0.89285,0.75430935 0.0978,2.15299816 -1.07034,2.62088776 -6.0547399,2.42557786 -4.2551499,-0.1665998 -5.6830599,-0.7344593 -4.5918399,-1.82573838 0.87105,-0.87103925 1.58376,-2.45838792 1.58376,-3.52739692 0,-1.234689 -2.03198,-0.5646095 -5.5707699,1.8367384 -3.0639097,2.07923818 -6.1493897,3.7804267 -6.8566097,3.7804267 -2.10313,0 -7.47073,11.7814096 -7.46871,16.3930856 l 0.002,4.270127 3.59676,-4.181957 c 1.97823,-2.300118 4.0437,-3.735077 4.58998,-3.188807 0.5461,0.546109 0.99323,0.21115 0.99323,-0.744469 0,-0.95568 1.06137,-1.330369 2.35854,-0.83257 1.41263,0.54205 2.1799497,0.15851 1.9132697,-0.956489 -0.4414,-1.846048 9.03522981,-3.5730968 11.4450798,-2.085718 1.7394299,1.073569 -6.7253399,9.524282 -8.7585899,8.744062 -0.9555699,-0.366769 -4.7206696,0.38586 -8.3668296,1.672259 -9.1146,3.215877 -9.30574,3.137717 -9.30574,-3.804207 0,-9.3161918 4.10914,-15.4913764 12.69574,-19.0791133 2.8325097,-1.183489 6.0649796,-3.2542772 7.1832796,-4.601776 2.7543499,-3.3187871 7.0531199,-2.2639581 6.3710699,1.5632786 z M 23.879951,16.879001 c 0.57329,7.656883 -0.46454,8.367283 -7.42469,5.082625 -6.4759497,-3.056147 -6.5735997,-10.346391 -0.15157,-11.28899 1.52527,-0.22388 3.03539,-1.1935587 3.35582,-2.1549079 1.18534,-3.5560269 3.70112,1.4284288 4.22009,8.3612729 z m -89.236256,-4.761106 c -1.329738,2.144668 -2.097291,30.583834 -0.988655,36.628908 1.371216,7.476634 2.834934,4.473936 2.462381,-5.051155 -0.226193,-5.788225 0.20421,-8.912413 1.147916,-8.329113 0.830666,0.513129 1.510287,0.24471 1.510287,-0.59718 0,-0.841829 -0.688761,-1.956308 -1.530593,-2.476607 -2.542156,-1.571149 -1.744868,-3.237508 2.467183,-5.156686 3.021385,-1.376589 4.516805,-1.390879 6.122487,-0.0584 1.16851,0.969789 2.124595,1.216579 2.124595,0.54841 0,-2.072589 -4.957505,-6.813035 -7.124967,-6.813035 -1.132297,0 -2.058705,-0.667179 -2.058705,-1.482578 0,-2.472958 5.062156,0.27826 9.546796,5.188035 6.222971,6.813264 5.621274,11.80288 -2.034176,16.869076 -3.444615,2.279518 -5.926202,4.481286 -5.514658,4.892765 0.411313,0.41132 3.548108,-1.189799 6.970104,-3.558516 6.355505,-4.399247 7.121785,-6.523555 6.384893,-17.699625 -0.314704,-4.773186 1.640218,-5.441125 4.740221,-1.619449 1.427388,1.759679 1.487437,2.221318 0.187434,1.440289 -2.59694,-1.560149 -2.404011,-0.0793 0.583705,4.480416 2.181462,3.329257 2.255799,4.947146 0.588565,12.803619 -1.720167,8.105633 -1.626739,9.470712 0.946887,13.837738 1.570447,2.664738 6.471377,7.577173 10.891057,10.916561 8.37805,6.330274 9.59521,8.895112 5.73981,12.094899 -2.70645,2.246078 -3.1217,-0.0926 -0.48478,-2.729588 0.99617,-0.996179 1.51277,-2.063558 1.14797,-2.371897 -0.36503,-0.30834 -5.82907,-4.021957 -12.14287,-8.252403 -14.140541,-9.474762 -18.093251,-13.552829 -15.576087,-16.070056 0.990333,-0.99027 1.785248,-3.212518 1.766563,-4.938296 -0.02893,-2.934138 -0.228507,-2.889478 -3.027227,0.688769 -3.369525,4.307727 -3.849737,7.782884 -1.412289,10.220331 1.178055,1.178109 0.531062,2.766788 -2.266675,5.564406 -2.246659,2.246658 -4.320231,3.260817 -4.864946,2.379418 -0.522384,-0.84484 -1.890824,-1.174869 -3.041459,-0.7333 -4.455773,1.709809 -5.517145,-2.826717 -6.354522,-27.160686 -0.698191,-20.287883 0.07925,-27.8184262 2.703615,-26.1963176 0.830898,0.5136996 1.006415,1.7470086 0.389908,2.7411576 z m 66.26185648,8.468523 c -0.44312999,0.717109 1.47702002,5.710765 4.26717992,11.09694 6.4975896,12.543059 7.6961196,17.601915 5.4531696,23.01695 L 8.8302913,59.035174 4.5615514,55.995627 c -5.21250989,-3.711647 -7.3957598,-3.793507 -12.1606897,-0.45586 -2.6159697,1.832219 -3.8648297,2.054769 -4.2946597,0.7653 -0.33321,-1.000059 -1.59498,-1.818289 -2.80364,-1.818289 -1.62066,0 -1.93357,-1.104929 -1.19199,-4.209146 0.55304,-2.315098 1.68366,-5.070196 2.51248,-6.122485 0.82887,-1.052289 0.90604,-1.935138 0.17181,-1.961918 -0.73446,-0.0289 -0.30198,-0.887769 0.96054,-1.913268 2.4225197,-1.967419 4.5153597,-5.827685 8.2716096,-15.257437 1.25754,-3.156867 3.05099992,-5.739805 3.9855099,-5.739805 0.93444998,0 1.33639,0.586769 0.89319998,1.303879 z m 6.98247982,1.883078 c 1.70218,0.910959 4.8803397,1.980078 7.0625497,2.375778 2.18222,0.39569 4.53254,1.068599 5.22286,1.495239 2.39892,1.482638 1.23284,5.621965 -2.57894,9.154622 l -3.83418,3.553377 -3.8446997,-7.587074 c -2.11453,-4.172876 -4.5217799,-7.587063 -5.3494399,-7.587063 -0.82766,0 -1.50485,-0.68876 -1.50485,-1.530589 0,-1.953878 0.98906,-1.928138 4.8266999,0.12553 z m -15.8963396,3.318147 c -1.98113,3.048628 -6.2439697,10.376641 -6.7027797,11.52242 -0.0937,0.23371 -1.98784,-0.26553 -4.20916,-1.110079 -2.52925,-0.961639 -4.03885,-2.693838 -4.03885,-4.634646 0,-1.704488 -0.80353,-3.099127 -1.78571,-3.099127 -3.51114,0 0.33033,-2.024868 7.50076,-3.953517 10.9886496,-2.955787 11.9030796,-2.829557 9.2357397,1.274949 z M 67.3236,38.797842 c -0.0173,9.669602 -0.51833,14.140878 -1.42964,12.700649 -0.7734,-1.222599 -1.0008,-2.878728 -0.50561,-3.680407 0.49577,-0.801629 0.27016,-1.067789 -0.5004,-0.591459 -0.77073,0.476109 -2.7713,-0.17702 -4.44565,-1.452439 -2.93918,-2.238378 -2.91216,-2.283788 0.78219,-1.315619 3.25296,0.852539 3.48239,0.704209 1.53059,-0.989639 -2.35501,-2.043828 -3.99465,-12.09189 -1.91934,-11.76226 3.16022,0.50214 4.98058,-0.40264 4.98058,-2.475168 0,-1.262739 -0.86098,-2.306408 -1.91327,-2.319308 -1.27553,-0.0174 -1.14797,-0.517759 0.38239,-1.507168 1.26275,-0.81609 2.46811,-1.494319 2.67857,-1.507219 0.21057,-0.0116 0.37197,6.692134 0.35925,14.900037 z m -96.405128,-3.443857 c 0,1.262749 0.55883,2.295888 1.24198,2.295888 2.83997,0 7.9417,6.523554 7.9417,10.154961 0,4.237906 3.91667,10.689731 11.2574097,18.544004 l 4.6492299,4.974506 h -3.9131999 c -2.1522497,0 -6.5089297,-1.761529 -9.6814697,-3.914467 -3.27865,-2.224958 -6.819,-3.511307 -8.20266,-2.980367 -1.33893,0.513709 -1.95445,0.454119 -1.36791,-0.13247 0.58659,-0.58654 -1.00815,-3.550247 -3.54377,-6.585974 -2.53562,-3.035738 -5.37015,-6.453275 -6.29899,-7.594474 -1.090645,-1.340089 -1.152949,-2.424258 -0.17586,-3.061247 2.33748,-1.523879 5.0323,-7.325814 5.0323,-10.834581 0,-1.739018 0.68882,-3.161837 1.53065,-3.161837 0.84183,0 1.53059,1.033139 1.53059,2.295888 z m 59.693869,2.832787 c 0,1.978989 0.76119,5.781635 1.69148,8.450363 1.98101,5.682595 -0.41247,9.992411 -4.77904,8.606443 -1.83564,-0.58261 -3.00137,0.233709 -3.77598,2.643967 -0.61633,1.917779 -1.02903,4.054577 -0.91715,4.748546 0.11223,0.69397 -0.5571,0.79156 -1.48709,0.21694 -0.92982,-0.574449 -3.78368,1.096079 -6.34197,3.712747 -2.91674,2.983317 -6.1817797,4.757566 -8.7548896,4.757566 -4.0383899,0 -4.1094799,0.17587 -4.4846999,11.09491 -0.41073,11.95456 -1.28346001,14.083548 -4.8368899,11.8005 -2.0222,-1.299189 -2.02075,-1.639119 0.0116,-2.973998 1.2627499,-0.828989 1.5732299,-1.517748 0.6899799,-1.530648 -0.9415099,-0.0116 -1.3386499,-2.312668 -0.9598999,-5.556655 0.42056,-3.602307 -0.0804,-5.982025 -1.43486,-6.819284 -1.65821,-1.02481 -1.39857,-1.921539 1.2786,-4.415677 1.8476099,-1.721378 3.96908989,-3.129737 4.7143699,-3.129737 2.6146399,0 14.3747095,-15.478997 16.0326895,-21.102812 0.92143,-3.125577 1.71982,-6.210474 1.77414,-6.855324 0.10992,-1.307469 8.63312,-7.220013 10.4304,-7.235803 0.63137,-0.006 1.14797,1.609038 1.14797,3.588016 z M 1.5307315,58.313145 c 2.0577299,2.479388 2.0950999,2.461568 -6.4539599,3.071887 -2.28692,0.16314 -3.7960599,-0.289249 -3.3535599,-1.004849 0.44255,-0.715949 1.7969899,-1.301739 3.0100999,-1.301739 1.21306,0 2.20559,-0.688759 2.20559,-1.530598 0,-2.261168 2.41395991,-1.858829 4.5918299,0.765299 z m -46.1803005,2.334188 c -0.270159,0.39974 0.961639,2.793338 2.737688,5.318825 3.831226,5.447956 9.769113,18.623724 9.769113,21.676982 0,1.185399 1.1124,3.852916 2.47199,5.927874 2.19129,3.344358 2.2046,3.772677 0.11743,3.772677 -6.44078,0 -14.548325,-12.165069 -17.851555,-26.785697 -0.190326,-0.841829 -0.990911,-2.735947 -1.779347,-4.209156 -0.936184,-1.749208 -0.883772,-2.678568 0.150988,-2.678568 0.871451,0 1.584451,-1.090579 1.584451,-2.423438 0,-1.332918 0.740421,-2.176668 1.645425,-1.875038 0.904946,0.3014 1.424207,0.875679 1.153874,1.275539 z m 90.98049,3.405617 c 0.7834,2.245328 -2.42154,13.745708 -6.44923,23.14185 -2.11164,4.926376 -4.43084,7.402994 -9.09157,9.708942 l -6.25676,3.095607 0.90686,-4.006397 c 0.49866,-2.203498 2.14472,-6.761484 3.65761,-10.128811 1.51289,-3.367387 3.64918,-8.877582 4.74728,-12.244909 2.83806,-8.703043 10.68841,-14.717758 12.48581,-9.566282 z M 1.3405215,66.190848 c -1.56646,1.892329 -7.4628699,1.017809 -7.4628699,-1.106839 0,-0.709759 2.00607,-1.146059 4.4579199,-0.969449 3.15606,0.22735 4.03358,0.833619 3.00495,2.076288 z m -31.3748895,5.783255 c 2.42241,1.981068 3.99766,4.259946 3.50055,5.064236 -0.49693,0.804279 0.44834,5.020605 2.10082,9.369642 6.10126,16.057219 2.76199,14.322129 -3.99233,-2.074489 -2.4275,-5.892824 -5.29015,-11.624409 -6.36147,-12.736859 -4.506564,-4.679595 -1.10042,-4.409086 4.75243,0.37776 z m 61.613389,0.49693 c -1.24713,2.315028 -3.83082,8.341833 -5.74143,13.392878 -4.36165,11.53051 -6.71429,14.535239 -7.88263,10.067431 -0.45759,-1.748858 -0.30082,-3.179717 0.34768,-3.179717 1.47216,0 6.81755,-13.700288 6.59217,-16.895855 -0.12843,-1.819789 5.15327,-6.461025 8.48247,-7.453954 0.25801,-0.0769 -0.55131,1.754179 -1.79844,4.069217 z m -40.9072893,6.281914 c -2.2621097,0.77744 -3.4112397,-0.799309 -2.1131397,-2.899607 0.82291,-1.331529 1.4434697,-1.258929 2.4001297,0.28057 0.75784,1.219769 0.63942,2.300338 -0.28693,2.618747 z m 1.67533,8.193563 c 0,0.76668 -0.68882,0.968289 -1.53065,0.44776 -2.1431097,-1.324529 -1.9149497,1.299309 0.30603,3.520397 1.4285399,1.428599 1.30017,1.836728 -0.57792,1.836728 -1.3280597,0 -3.2159897,-0.965569 -4.1954497,-2.145708 -0.97946,-1.180199 -3.47452,-2.570848 -5.54457,-3.090397 -3.23277,-0.81134 -5.77753,-5.904385 -2.6158,-5.235126 2.86814,0.60708 6.24745,-2.194708 5.37848,-4.459296 -0.51313,-1.337719 1.25205,-0.1452 3.92315,2.649638 2.6710997,2.795017 4.8565597,5.709145 4.8565597,6.475834 z M -18.367258,83.145943 c 0,0.66892 1.37758,2.076579 3.06124,3.128008 1.69576,1.058999 3.06125,1.247299 3.06125,0.421719 0,-0.819329 -1.37758,-2.226928 -3.06125,-3.127997 -1.68366,-0.901069 -3.06124,-1.090989 -3.06124,-0.4223 z M 9.1837613,78.120478 c 0,1.213109 -0.68876,2.631298 -1.5306,3.151597 -0.8418299,0.52007 -1.5305899,-0.472049 -1.5305899,-2.205578 0,-1.733358 0.68876,-3.151607 1.5305899,-3.151607 0.84184,0 1.5306,0.992529 1.5306,2.205588 z M 20.347051,83.547023 C 19.531021,86.6675 6.8852114,94.024494 5.2125314,92.351826 c -0.51255,-0.51255 2.25245,-2.913378 6.1440096,-5.335606 3.89162,-2.422178 6.60189,-4.877666 6.02287,-5.456685 -0.57902,-0.57902 0.0289,-1.052809 1.35496,-1.052809 1.64861,0 2.15705,0.958569 1.61268,3.040297 z M -33.673358,98.50624 c 0.42115,0.41131 -0.95661,0.27479 -3.06125,-0.30313 l -3.826477,-1.051419 3.512817,2.833138 c 1.93202,1.558181 3.02856,3.317341 2.43676,3.909201 -0.59187,0.5918 -1.97026,0.3338 -3.06316,-0.57329 -2.24492,-1.86317 -5.711633,-0.41883 -4.336252,1.80635 0.492882,0.79741 1.643632,0.98779 2.557371,0.42289 0.953829,-0.58949 1.224046,-0.31933 0.634556,0.63461 -0.564615,0.91374 -0.326852,2.09394 0.528748,2.62274 0.855597,0.52875 1.555587,1.67753 1.555587,2.55286 0,0.87527 -2.410724,0.16892 -5.357136,-1.56935 l -5.357132,-3.1608 v 3.17341 c 0,2.23908 0.699347,2.90499 2.375432,2.26182 1.306483,-0.50156 1.97274,-0.25975 1.480553,0.53626 -0.492303,0.79637 1.194022,2.52804 3.747054,3.84829 6.251839,3.23294 5.846139,4.40654 -1.097933,3.17584 -13.280197,-2.35362 -14.049832,-4.4041 -5.73981,-15.29087 2.946411,-3.85997 5.357133,-7.725268 5.357133,-8.589437 0,-1.413039 5.362339,0.521229 7.653079,2.760487 z m 27.5498596,-0.399159 c 1.47534,1.777668 1.50329,3.262669 0.1238,6.592269 -1.3836,3.34043 -3.7265799,4.93657 -10.5178696,7.16535 -4.80576,1.57716 -9.87469,3.82128 -11.2643,4.987 -2.84222,2.38417 -3.56749,1.64889 -5.00812,-5.07736 -0.86463,-4.03694 -0.30777,-5.28083 3.9416,-8.80099 3.1247,-2.58866 6.78093,-4.09959 9.92027,-4.09959 2.73445,0 5.39746,-0.68876 5.91776,-1.530589 1.3829,-2.237638 4.7009997,-1.869588 6.8865696,0.76391 z M 15.418991,99.03771 c 11.17603,4.075 15.73633,8.61939 14.31849,14.26855 -0.75564,3.01056 -1.7027,3.8517 -3.52317,3.12898 -1.36937,-0.54378 -6.10861,-2.3572 -10.5317,-4.03011 -4.42308,-1.67296 -8.7521696,-4.36871 -9.6201496,-5.99064 -1.54418,-2.88532 -6.062379900002,-4.16038 -6.062379900002,-1.71086 0,2.74313 4.372529900002,6.95859 7.752929800002,7.4745 1.97662,0.3014 3.9680997,1.11673 4.4255197,1.81128 0.45759,0.69455 2.38151,2.07889 4.27563,3.07639 4.53485,2.38816 4.35621,5.34788 -0.51544,8.53992 -2.17765,1.42681 -3.52798,3.0256 -3.00079,3.55278 1.46817,1.46818 11.55199,-4.46872 11.55199,-6.80128 0,-1.13022 0.68876,-2.05489 1.53059,-2.05489 0.84183,0 1.53059,1.31863 1.53059,2.93033 0,1.89412 -2.5038,4.32983 -7.08054,6.88777 -3.89428,2.17655 -7.71047,3.9574 -8.48033,3.9574 -0.76993,0 -1.2521,-2.58294 -1.07156,-5.73981 0.3633,-6.34734 -1.6758497,-10.45532 -7.2608496,-14.62912 -3.5844399,-2.67869 -3.8357999,-2.67116 -7.8892298,0.2366 -4.8901599,3.50801 -9.9565996,11.52659 -8.3557196,13.22448 0.60922,0.64606 -1.04355,0.0816 -3.67277,-1.25482 -2.62928,-1.33622 -5.21217,-1.99779 -5.73981,-1.47014 -0.5276,0.52759 -0.95939,-0.51718 -0.95939,-2.32169 0,-3.84638 4.46492,-7.04767 13.0102197,-9.32823 5.0856999,-1.35722 6.5567599,-2.67429 8.6873698,-7.77763 1.50983,-3.61654 3.59323,-6.14371 5.0648199,-6.14371 1.37492,0 2.07421,-0.68876 1.55396,-1.530589 -1.34917,-2.182968 0.0937,-1.939938 10.0617196,1.694539 z m 16.72395,2.89729 c 0,0.84184 -0.68876,1.5306 -1.5306,1.5306 -0.84183,0 -1.53059,-0.68876 -1.53059,-1.5306 0,-0.84183 0.68876,-1.53065 1.53059,-1.53065 0.84184,0 1.5306,0.68882 1.5306,1.53065 z m 9.14098,5.40861 c -1.02453,1.23441 -2.72722,2.24441 -3.78379,2.24441 -2.19894,0 -6.42909,-4.53069 -4.39665,-4.70893 3.49419,-0.3066 7.06613,-1.27685 7.94886,-2.15958 1.86798,-1.86798 2.0815,2.39509 0.2314,4.6241 z m 7.69577,6.25954 c 0,2.42136 -4.77985,5.16853 -8.99271,5.16853 -1.68933,0 -3.52566,0.73487 -4.08073,1.63299 -0.55536,0.89817 -0.0793,1.50531 1.05761,1.34929 1.13675,-0.1562 4.1332,-0.18107 6.6587,-0.0578 5.67189,0.28173 2.68649,2.32163 -5.56221,3.80108 -4.22652,0.75807 -5.77713,0.43735 -6.45709,-1.3343 -0.49231,-1.2826 -0.15389,-2.33199 0.75152,-2.33199 0.90547,0 1.31875,-0.86098 0.91837,-1.91327 -0.40032,-1.05229 -0.17471,-3.40146 0.50156,-5.22031 1.0229,-2.75134 2.40389,-3.28935 8.21723,-3.20147 4.67682,0.0706 6.98769,0.76691 6.98769,2.10527 z M 5.0833514,123.64357 c 2.20814,3.25307 2.4354899,4.76404 1.09412,7.27039 -1.64126,3.06668 -2.62459,3.41742 -10.7692198,3.84117 -3.3451199,0.17413 -3.8264799,-0.43329 -3.8264799,-4.82653 0,-3.26995 1.5844999,-7.01307 4.5357799,-10.71477 4.0151799,-5.03612 4.63012989,-5.34405 5.3571299,-2.68297 0.45181,1.65335 2.0756499,4.85407 3.6086699,7.11271 z m -50.1462004,-1.094 c 1.634144,1.23596 4.520854,2.2691 6.414976,2.29589 2.126445,0.0289 3.443925,0.99218 3.443925,2.51496 0,2.01294 -1.05501,2.27656 -5.739814,1.43432 -3.15687,-0.5675 -6.60079,-2.15345 -7.65308,-3.52415 -3.800101,-4.94992 -1.626044,-6.62392 3.533993,-2.72102 z m 19.042571,0.0174 c 0,1.24563 2.70836,3.64651 6.01859,5.33526 5.6554,2.88515 9.29642,6.17542 6.83375,6.17542 -0.60708,0 -3.95613,-1.67158 -7.44228,-3.7146 l -6.3385,-3.71459 -1.94312,6.58088 c -2.16324,7.3265 -3.04562,7.90558 -22.383569,14.68935 -6.734655,2.36253 -13.563257,4.80888 -15.174551,5.43632 -2.286401,0.89031 -2.634831,0.66377 -1.586996,-1.03164 0.738454,-1.19489 1.153643,-3.97416 0.922648,-6.17628 -0.344207,-3.2802 0.889095,-4.87084 6.823917,-8.80191 3.984181,-2.63899 7.855265,-4.79813 8.602454,-4.79813 0.747189,0 0.93283,-0.68882 0.41247,-1.53065 -1.385737,-2.24214 2.412051,-1.85027 7.42972,0.76663 2.40268,1.25309 4.985563,1.89701 5.73981,1.43086 0.754187,-0.46627 1.371277,0.31644 1.371277,1.73903 0,2.63008 -2.52897,2.59948 -13.775511,-0.16661 l -3.826482,-0.94116 3.602025,3.16826 3.602081,3.16832 -3.602081,1.37029 c -2.566627,0.97639 -4.32833,0.73041 -6.128677,-0.85583 -1.878155,-1.65473 -2.812373,-1.76372 -3.639974,-0.42462 -0.612341,0.99079 -0.317017,2.29375 0.65677,2.89544 1.134784,0.70132 0.310076,1.75933 -2.297567,2.94746 -2.237287,1.01931 -3.70141,2.2197 -3.253652,2.66751 0.447758,0.44776 3.808433,-0.53511 7.468191,-2.18435 3.659759,-1.64913 10.78675,-4.24416 15.837741,-5.76671 5.051046,-1.52255 9.407556,-2.91297 9.681186,-3.08987 0.56288,-0.36388 0.88556,-1.75008 2.54493,-10.93374 1.1084,-6.13469 3.84534,-9.15266 3.84534,-4.24028 z m 77.576138,5.67524 c -0.48883,1.22098 -0.85126,0.85832 -0.92473,-0.92478 -0.0665,-1.61349 0.29561,-2.51751 0.80394,-2.00889 0.5085,0.5085 0.56288,1.82875 0.12091,2.93367 z m -4.708349,0.60349 c -0.51081,1.33159 -0.92906,2.70917 -0.92906,3.06119 0,0.3523 -0.86093,0.64439 -1.91327,0.64959 -1.05229,0.005 -3.75898,0.9724 -6.01489,2.14936 -3.55916,1.85686 -4.21714,1.8391 -4.97451,-0.13479 -1.80718,-4.70945 -0.85861,-5.90312 4.49094,-5.65147 2.95012,0.13884 5.74583,-0.36619 6.21279,-1.12148 1.46719,-2.37392 4.10231,-1.49154 3.128,1.04743 z m 11.511089,4.84927 c 1.94312,2.47771 1.8711,2.51016 -0.96054,0.4333 -1.68366,-1.23498 -3.34823,-2.44035 -3.69898,-2.67857 -0.35057,-0.23834 0.0816,-0.4333 0.96054,-0.4333 0.87909,0 2.54361,1.20536 3.69898,2.67857 z m -9.635649,2.82597 c -2.59636,2.59635 -10.45753,4.05324 -10.45753,1.93808 0,-0.72607 1.24592,-1.32013 2.76864,-1.32013 1.52279,0 4.10463,-0.97685 5.73744,-2.17082 3.729409,-2.72698 5.122669,-1.61835 1.95145,1.55287 z m 6.608769,0.61795 c 0.68205,4.54693 0.17645,5.31958 -3.67589,5.61565 -4.180879,0.32107 -4.192039,0.29677 -1.5306,-3.36316 2.84558,-3.9133 4.82868,-4.77127 5.20649,-2.25249 z m 15.07656,4.3042 c 0.42114,0.31817 -0.26785,0.43156 -1.53065,0.25164 -5.07396,-0.72237 -6.82386,-0.0521 -4.89792,1.8726 2.86235,2.86236 2.18279,4.11377 -1.99224,3.66861 -3.79484,-0.40437 -7.34775,-2.44415 -4.25775,-2.44415 0.884,0 1.96823,-1.38036 2.40939,-3.06755 0.57098,-2.18384 1.57676,-2.77031 3.49084,-2.0358 2.04557,0.78497 2.37525,0.51197 1.37844,-1.1416 -1.32355,-2.19552 -1.36126,-2.21577 5.39989,2.89613 z m -24.926719,2.71518 c 6.073549,2.37243 10.762229,4.59404 10.419409,4.93685 -0.8633,0.86336 -22.638869,-7.41792 -24.523329,-9.32621 -1.76743,-1.78981 -1.50925,-1.70945 14.10392,4.38936 z m 24.276539,9.44705 c -1.6626,1.66261 -2.13958,-0.40032 -1.153,-4.98688 l 0.98772,-4.59183 0.52297,4.34909 c 0.28751,2.39203 0.12669,4.74536 -0.35751,5.22962 z"
       id="path2533" /></g></svg>
