<?xml version="1.0" encoding="UTF-8" standalone="no"?>
<!-- Created with Inkscape (http://www.inkscape.org/) -->

<svg
   width="210mm"
   height="297mm"
   viewBox="0 0 210 297"
   version="1.1"
   id="svg2543"
   xml:space="preserve"
   inkscape:version="1.2.2 (732a01da63, 2022-12-09)"
   sodipodi:docname="Tyr.svg"
   xmlns:inkscape="http://www.inkscape.org/namespaces/inkscape"
   xmlns:sodipodi="http://sodipodi.sourceforge.net/DTD/sodipodi-0.dtd"
   xmlns="http://www.w3.org/2000/svg"
   xmlns:svg="http://www.w3.org/2000/svg"><sodipodi:namedview
     id="namedview2545"
     pagecolor="#ffffff"
     bordercolor="#000000"
     borderopacity="0.25"
     inkscape:showpageshadow="2"
     inkscape:pageopacity="0.0"
     inkscape:pagecheckerboard="0"
     inkscape:deskcolor="#d1d1d1"
     inkscape:document-units="mm"
     showgrid="false"
     inkscape:zoom="2.3786088"
     inkscape:cx="436.80995"
     inkscape:cy="632.30238"
     inkscape:window-width="2560"
     inkscape:window-height="1494"
     inkscape:window-x="-11"
     inkscape:window-y="-11"
     inkscape:window-maximized="1"
     inkscape:current-layer="layer1" /><defs
     id="defs2540" /><g
     inkscape:label="레이어 1"
     inkscape:groupmode="layer"
     id="layer1"><path
       style="fill:#000000;stroke-width:1.48516"
       d="M -70.25319,-148.82324 -75,-143.92577 v 67.367109 67.3671089 l 6.24527,8.0949883 6.24519,8.0949983 -0.0645,18.7751395 -0.0645,18.775159 0.87404,-15.594246 c 0.48049,-8.576829 1.29929,-14.141555 1.81913,-12.366043 0.51978,1.775462 0.73549,8.258399 0.47936,14.406445 -0.43501,10.442161 -0.16726,11.598822 4.06757,17.564148 2.49344,3.512194 6.37279,8.390809 8.62077,10.841321 2.24798,2.450503 4.78482,6.460477 5.63746,8.910989 0.85259,2.450503 1.60297,3.325384 1.66746,1.944072 0.0645,-1.381231 0.89918,-2.994593 1.85484,-3.585213 1.17304,-0.725001 1.42513,-0.259891 0.77596,1.431881 -0.81189,2.115842 -0.49789,2.257682 2.017,0.911701 1.63816,-0.876731 2.58617,-2.228852 2.10663,-3.004713 -1.23316,-1.995382 0.26832,-1.756082 5.29635,0.844121 5.55742,2.873793 7.45789,9.261369 3.59583,12.085372 -3.6757,2.687723 -4.74553,2.525783 -6.63482,-1.004381 -1.84102,-3.440053 -0.82469,-5.909926 2.43192,-5.909926 1.62997,0 1.96721,0.910241 1.23811,3.341603 -0.96974,3.233894 -0.9131,3.254884 1.75638,0.651811 2.68721,-2.620303 2.68395,-2.745023 -0.12461,-4.826805 -3.9036,-2.893553 -4.82535,-2.732173 -9.16184,1.604372 -2.05769,2.057692 -4.33154,3.376463 -5.0529,2.930603 -1.48537,-0.917991 -0.75262,4.252794 1.00207,7.071417 2.02019,3.245013 0.40303,9.110989 -4.06896,14.758955 -2.38736,3.015243 -4.38768,6.691073 -4.44505,8.168413 -0.0943,2.42766 -0.21386,2.40701 -1.23917,-0.21442 -0.96093,-2.45641 -1.28622,-2.14358 -2.12337,2.04209 -1.46151,7.30739 -1.20296,23.54632 0.33623,21.11715 0.95183,-1.50221 2.52601,-0.17177 6.1499,5.19806 l 4.8707,7.21708 -4.87997,-4.45548 c -6.49606,-5.93099 -3.72661,-0.29189 3.2139,6.54377 7.83711,7.71913 8.97587,7.94484 15.00604,2.97423 l 5.38021,-4.43479 5.63083,3.50361 c 8.46641,5.26795 9.34376,5.74816 9.34376,5.11414 0,-0.32107 -3.68974,-3.12453 -8.19934,-6.23045 -7.95594,-5.47945 -8.28689,-5.56791 -11.14783,-2.97876 -4.74755,4.29647 -4.90444,1.54391 -0.19927,-3.49322 2.36708,-2.53397 3.94614,-4.96484 3.50904,-5.40189 -0.43727,-0.43727 -0.12237,-0.79472 0.69963,-0.79472 0.82182,0 2.21329,-1.57803 3.09209,-3.50679 0.87881,-1.92875 3.00992,-3.8761 4.73587,-4.32746 l 3.13807,-0.8206 -3.24012,5.44129 c -1.78208,2.99274 -4.26783,6.2767 -5.52391,7.29775 -1.9828,1.61178 -1.84337,1.85646 1.05804,1.85646 1.90355,0 2.937,0.65506 2.40116,1.52197 -0.51754,0.83709 -0.0561,1.33835 1.02627,1.11388 1.08172,-0.22453 1.81689,0.37608 1.63356,1.33426 -0.18355,0.95835 2.65499,3.18899 6.30728,4.95704 l 6.6406,3.21469 7.43044,-4.57202 c 9.63985,-5.93149 9.6412,-3.88245 0.002,2.6875 -4.08265,2.78258 -7.42296,5.28876 -7.42296,5.56937 0,1.51967 3.52711,-0.18243 13.19228,-6.36606 l 10.74756,-6.8762 4.07682,3.90585 c 4.41103,4.22603 6.47288,5.01086 5.32829,2.02812 -0.39629,-1.03272 1.6527,-4.11624 4.55333,-6.85217 2.90058,-2.73594 6.55792,-7.40463 8.12731,-10.37486 1.56946,-2.97023 2.95144,-4.39791 3.07117,-3.17264 0.11956,1.22524 0.7932,-0.11114 1.49658,-2.97036 0.70345,-2.85892 0.89239,-8.53967 0.41987,-12.6239 -0.84877,-7.33732 -4.38953,-15.187746 -6.08516,-13.492104 -0.48106,0.48105 -2.09851,-0.23295 -3.59426,-1.586462 -2.96209,-2.680652 -3.6775,-11.586872 -1.2344,-15.367315 1.03182,-1.596562 1.44613,-0.0449 1.46241,5.481765 0.0112,4.240165 0.79432,8.186309 1.7374,8.769139 1.0385,0.641811 1.31243,0.408641 0.69464,-0.59068 -0.56076,-0.907721 -0.5652,-6.089737 -0.0112,-11.515632 0.94561,-9.22948 1.67442,-10.765541 11.31045,-23.837265 L 66.33662,43.785442 65.32119,22.63231 64.30576,1.4791788 69.65285,-3.6389564 75,-8.7570916 V -76.925311 c 0,-66.535849 -0.0735,-68.271569 -3.07149,-72.481719 l -3.07145,-4.31347 H 1.67465 -65.50777 Z m 138.15332,-0.77132 c 4.38313,5.10842 4.63533,6.88232 0.51809,3.6436 -4.21064,-3.31203 -4.25611,-3.31428 -67.98937,-3.31428 h -63.77599 l -4.34126,4.34127 c -5.45486,5.45487 -5.77268,2.51343 -0.34072,-3.15602 l 4.00026,-4.1754 64.86759,0.0505 c 59.49472,0.0449 65.04939,0.26382 67.06168,2.6089 z m -32.82557,5.63405 c 0.72197,0.44625 1.31377,0.27055 1.31517,-0.39012 10e-4,-0.66085 6.60018,-1.20151 14.66401,-1.20151 10.43143,0 14.47222,0.49228 14.00531,1.70625 -0.36093,0.93842 0.0578,2.14739 0.93017,2.68665 0.93224,0.5762 1.58641,6.41468 1.58641,14.15924 0,11.26971 -0.37665,13.28952 -2.59904,13.94351 -2.52212,0.74218 -34.40327,1.5292 -47.88155,1.18204 -3.6675,-0.0943 -6.89201,-0.84294 -7.16543,-1.66331 -0.29638,-0.88998 -1.82093,-0.62425 -3.77899,0.65865 -2.69614,1.76664 -9.32955,2.04079 -37.17586,1.5365 -18.64177,-0.33736 -34.11369,-0.83333 -34.382,-1.1017 -1.42194,-1.42188 -0.85686,-27.77786 0.65613,-30.60495 l 1.73476,-3.24142 48.38915,0.75953 c 26.61399,0.41762 48.97984,1.12461 49.70176,1.57081 z m -39.44086,1.97798 c -1.39763,2.26134 -0.67942,28.36124 0.78041,28.36124 2.08772,0 7.29953,-6.35024 7.29953,-8.89398 0,-1.3163 0.60769,-3.02816 1.35043,-3.80418 1.92443,-2.01061 2.65656,-14.6939 0.87729,-15.19887 -0.81683,-0.23183 -1.90232,2.85181 -2.41222,6.85257 -0.50968,4.00076 -1.6591,8.53451 -2.55384,10.07505 -1.66028,2.85865 -2.04367,0.74723 -2.36699,-13.03569 -0.10553,-4.50029 -1.56479,-6.63729 -2.97461,-4.35614 z m -12.45841,11.16166 c 0.36542,8.2415 0.0561,10.65635 -1.23558,9.58143 -3.57567,-2.98017 -3.77635,2.05006 -0.22341,5.60289 l 3.61648,3.61649 3.98156,-3.68997 c 2.21858,-2.05606 3.32876,-4.0935 2.50726,-4.60121 -0.81088,-0.50126 -2.06667,-0.54504 -2.79067,-0.0977 -0.72393,0.44737 -1.66369,-0.51473 -2.08828,-2.13863 -0.42436,-1.62369 -0.29245,-3.24848 0.29358,-3.61065 0.58602,-0.36205 0.82014,-2.86903 0.52034,-5.57084 -0.29974,-2.70181 -0.54953,-6.08192 -0.55459,-7.51139 -0.005,-1.42946 -1.02323,-2.59903 -2.26224,-2.59903 -1.85505,0 -2.16652,1.9452 -1.76417,11.01853 z m 26.47899,-10.49756 c 0,2.65602 3.62894,9.81011 5.30185,10.45209 1.48761,0.57081 2.12398,3.27628 2.12398,9.03005 0,6.57257 0.47937,8.215 2.39887,8.215 2.04281,0 2.24657,-1.21869 1.37298,-8.21079 -0.88801,-7.10723 -0.6289,-8.55444 1.92758,-10.76745 4.05852,-3.51325 5.65072,-9.23987 2.56905,-9.23987 -1.31415,0 -2.32785,1.25529 -2.32785,2.88269 0,1.58544 -0.62654,3.26986 -1.3923,3.74317 -0.78512,0.48498 -1.09626,-0.77199 -0.71355,-2.88268 0.48161,-2.6564 0.0224,-3.74318 -1.57798,-3.74318 -1.25473,0 -2.2568,1.29823 -2.2568,2.92372 0,1.93156 -0.72416,2.64584 -2.13397,2.10484 -1.17367,-0.45019 -1.77053,-1.76608 -1.3263,-2.92371 0.4906,-1.27824 -0.12966,-2.10485 -1.57894,-2.10485 -1.31264,0 -2.38662,0.23464 -2.38662,0.52091 z m -80.19879,11.69554 c 0,4.17214 -0.29413,7.2914 -0.654,6.9317 -1.21532,-1.21537 -1.73313,-15.99272 -0.53438,-15.2519 0.65366,0.40415 1.18843,4.14805 1.18843,8.3202 z m 2.46874,-2.93426 c -0.412,1.02104 -0.74907,0.1858 -0.74907,-1.85645 0,-2.0421 0.33679,-2.87751 0.74907,-1.85641 0.41201,1.02105 0.41201,2.69181 0,3.71286 z m -2.46874,36.757829 c 0,11.756722 -0.59736,20.792322 -1.37462,20.792322 -0.79209,0 -1.15435,-7.080908 -0.8549,-16.708138 0.28571,-9.189413 0.5703,-18.545973 0.63205,-20.792263 0.0618,-2.2463 0.44625,-4.08423 0.85489,-4.08423 0.40865,0 0.74258,9.35655 0.74258,20.792309 z m 13.20407,-11.881319 c 8.26681,0 11.0953,2.75636 10.83278,10.556768 -0.12068,3.587464 -0.20376,9.048679 -0.18411,12.136062 0.0337,5.276706 -0.19085,5.556526 -3.74027,4.665765 -3.08698,-0.774791 -3.77567,-0.41426 -3.77567,1.977762 0,2.294002 0.77592,2.777023 3.5951,2.238102 3.53364,-0.67549 3.60341,-0.48161 4.08418,11.348192 0.40302,9.91154 0.096,12.042762 -1.73864,12.077122 -1.86443,0.0337 -1.83631,0.270551 0.17233,1.444172 2.59745,1.517801 2.1599,8.903289 -0.52765,8.903289 -0.88997,0 -0.79494,0.842211 0.2352,2.083292 1.31647,1.586352 1.31243,2.222222 -0.0168,2.665383 -1.19916,0.39966 -0.98597,1.342111 0.6806,3.008623 1.33466,1.334721 2.42664,4.442644 2.42664,6.906557 0,3.388713 1.71833,6.155796 7.05453,11.360102 4.46256,4.352314 5.55393,5.956576 2.97028,4.366354 -2.24629,-1.382601 -4.08417,-2.102772 -4.08417,-1.600392 0,2.036253 0.81358,3.117424 2.03866,2.709113 0.71282,-0.23744 0.86101,0.701651 0.32949,2.0873324 -1.26498,3.2964733 4.52594,9.59427978 7.70151,8.37570853 1.68716,-0.64743063 2.07655,-0.23913024 1.41536,1.48385157 -1.24769,3.2514033 2.86786,6.6574468 5.21193,4.3134244 1.30221,-1.3022114 1.10682,-1.7192818 -0.80555,-1.7192818 -1.38859,0 -2.52477,-1.0419111 -2.52477,-2.3153824 0,-1.38962138 0.69475,-1.88599189 1.73757,-1.24154123 1.16828,0.72209074 1.42682,0.26438027 0.78916,-1.39752147 -0.52147,-1.3592414 -0.30087,-2.4713325 0.49004,-2.4713325 0.79118,0 1.43855,1.7102418 1.43855,3.8005439 0,2.6374927 0.56812,3.4636335 1.85646,2.6996228 1.02104,-0.6054907 -0.87813,1.8986119 -4.22041,5.5647757 -3.34222,3.6661041 -6.81971,7.9649881 -7.72765,9.5529701 -1.52561,2.668242 -2.18421,2.267522 -8.68072,-5.281146 -3.86644,-4.4925944 -10.58091,-11.69081174 -14.92104,-15.9960461 -4.34014,-4.3052244 -7.89118,-8.4107289 -7.89118,-9.1233889 0,-0.712651 -0.93801,-1.655622 -2.0844,-2.095583 -2.89166,-1.109611 -3.89136,-17.014337 -1.13578,-18.068438 3.24752,-1.242271 4.11521,-0.817851 1.73499,0.848601 -1.77114,1.240011 -1.57895,1.378491 0.93801,0.67555 2.16233,-0.60387 3.46791,-0.0965 4.11915,1.600442 0.52427,1.366541 1.31815,2.119822 1.76395,1.674082 1.24294,-1.242981 -2.83365,-7.040437 -4.95063,-7.040437 -1.39993,0 -1.87048,-4.483165 -1.87048,-17.821969 0,-10.25861 -0.59843,-17.821968 -1.41004,-17.821968 -0.84637,0 -1.16711,7.270248 -0.80225,18.184359 0.39293,11.755482 0.11171,17.399908 -0.79494,15.965506 -1.80453,-2.854313 -1.88503,-36.674967 -0.0898,-37.784369 0.74706,-0.46197 1.69676,5e-5 2.11051,1.026211 0.90772,2.251513 1.39495,-2.158512 1.00589,-9.104249 -0.30199,-5.391385 1.66482,-7.534958 6.94764,-7.571898 4.6313,-0.0337 5.38998,-2.204762 0.865,-2.476722 -3.47025,-0.20881 -6.26884,-2.589483 -6.32396,-5.380216 -0.0112,-0.63306 1.97136,-1.549861 4.40862,-2.037312 2.43726,-0.487235 4.06862,-1.473195 3.62529,-2.190625 -1.21453,-1.96507 2.96861,-1.5663 5.01277,0.47769 1.38613,1.38618 1.7822,1.22115 1.7822,-0.74258 0,-2.48631 -1.06736,-2.70848 -15.19009,-3.16124 -3.17921,-0.1016 -3.29687,0.35924 -3.00352,11.775232 0.16784,6.534696 -0.26382,12.787083 -0.95969,13.894124 -1.51248,2.406622 -2.23175,-23.245186 -0.75942,-27.082096 0.56711,-1.47779 1.90917,-2.22384 3.14644,-1.74902 1.18668,0.45524 4.64847,0.8279 7.69291,0.8279 z m 1.64754,81.684061 c 0,0.913221 -0.66831,1.247431 -1.48515,0.74257 -0.81683,-0.50463 -1.48514,-0.20993 -1.48514,0.654901 0,1.890802 1.5131,1.980172 4.24274,0.25035 1.40466,-0.890031 1.51715,-1.584501 0.37104,-2.292672 -0.90401,-0.558511 -1.64371,-0.26887 -1.64371,0.644631 z m 6.68326,10.39613 c 5.61349,5.7487762 6.68321,6.6045671 6.68321,5.346586 0,-0.957211 -10.60584,-11.287222 -11.58866,-11.287222 -0.49228,0 1.71495,2.673293 4.90545,5.940636 z m 5.01619,-1.335831 c 1.84176,1.715792 3.75687,2.711403 4.25583,2.212392 0.49901,-0.49901 -0.38058,-1.881552 -1.95464,-3.072393 -4.37247,-3.308043 -6.08713,-2.667173 -2.30119,0.860001 z m 46.22189,-88.94803 c 0,0.98798 -3.09597,4.63876 -6.87994,8.112837 -6.24072,5.729646 -6.78935,6.769717 -5.9046,11.193722 0.53662,2.682442 2.29322,6.194916 3.90377,7.805518 2.74845,2.748453 3.08244,2.774273 5.43639,0.42043 2.17984,-2.179792 2.24597,-2.997793 0.50519,-6.250326 -1.74812,-3.266494 -1.67009,-4.109994 0.61364,-6.633527 1.43906,-1.590122 2.206,-3.555414 1.70423,-4.367315 -0.79545,-1.287001 1.45662,-3.748223 3.59161,-3.925154 2.07043,-0.1712 6.44644,-3.611765 4.64494,-3.651675 -1.65663,-0.0393 -1.68689,-0.4687 -0.16166,-2.30648 1.03216,-1.24366 2.96568,-1.91561 4.29674,-1.49317 1.33101,0.42268 8.58783,0.90974 16.1262,1.08285 l 13.70624,0.3149 -0.0505,39.245269 c -0.0281,23.543245 -0.65299,40.369542 -1.55509,42.055143 -2.29563,4.289455 -14.26648,14.9442958 -21.18112,18.8525498 -3.39426,1.9184919 -7.50801,4.68069475 -9.14168,6.13822624 C 10.24908,2.1670195 6.74188,4.4565919 4.08902,5.7974232 -0.41637,8.0745356 -1.00396,8.0640356 -4.82196,5.6380131 -7.0701,4.2095516 -9.99038,1.8540892 -11.31144,0.40351773 -12.63252,-1.0470038 -14.63751,-2.239745 -15.76693,-2.246985 c -2.74919,-0.0168 -18.98968,-13.995444 -23.36759,-20.111891 -3.3535,-4.685304 -3.51808,-6.165336 -4.14805,-37.303098 -0.36093,-17.833358 -0.74297,-33.426724 -0.84923,-34.652025 -0.10609,-1.225261 0.32164,-4.307365 0.95105,-6.849201 l 1.14426,-4.62147 14.86895,-0.1858 c 12.72829,-0.15886 15.40535,0.23631 18.59455,2.74481 4.15097,3.265155 6.64588,2.72875 5.39919,-1.16082 -0.69453,-2.1667 -0.5762,-2.21554 0.78467,-0.32388 1.38528,1.92566 1.6056,1.87537 1.6253,-0.37103 0.0112,-1.42952 0.69104,-2.59909 1.50788,-2.59909 0.81684,0 1.48514,0.80836 1.48514,1.79634 z m 3.79286,9.996699 c -2.17075,2.398583 -2.42379,3.536544 -1.08442,4.875925 3.18162,3.181683 1.72847,6.259737 -7.20529,15.262106 -9.93079,10.00697 -11.26746,15.115505 -5.78032,22.091332 2.87587,3.656054 7.08303,4.171075 4.8739,0.596581 -0.57199,-0.925511 -0.30985,-1.187711 0.61571,-0.615721 2.83158,1.750042 3.68755,-2.105622 1.10181,-4.962875 -3.18392,-3.518193 -1.73447,-6.394516 7.29472,-14.475865 10.11354,-9.051819 11.98056,-15.477675 6.38643,-21.981142 L 8.85277,-99.016414 Z M 5.19879,-75.93144 c 0,0.30816 -1.16957,1.477961 -2.59904,2.599032 -2.35552,1.847362 -2.40806,1.794822 -0.56075,-0.56076 1.94015,-2.473863 3.15973,-3.260604 3.15973,-2.038272 z m -8.63868,10.15718 c -1.06573,1.065721 -1.75744,1.153401 -1.75744,0.22284 0,-1.982372 1.75637,-3.738744 2.74756,-2.747553 0.4221,0.422111 -0.0224,1.558162 -0.99012,2.524763 z m 8.71749,-4.129594 c -1.29048,1.554861 -1.33875,2.938743 -0.1785,5.107135 2.07879,3.884234 -2.14717,11.280092 -10.09486,17.667048 l -5.73867,4.611705 -4.94872,-5.105785 c -2.72179,-2.808173 -6.01231,-5.105786 -7.31228,-5.105786 -2.64573,0 -16.36089,13.291764 -16.36089,15.855887 0,0.904621 3.08715,5.078445 6.8603,9.275169 7.45688,8.293759 9.9373,8.692569 16.53103,2.657473 3.91039,-3.579104 4.20845,-5.913136 1.08598,-8.504539 -1.84719,-1.533021 -2.79784,-1.381241 -5.25048,0.838401 -2.90765,2.631353 -3.08845,2.616763 -6.20614,-0.500701 l -3.21126,-3.211273 3.33352,-3.548343 3.33346,-3.548334 9.12293,9.5006 9.12293,9.500599 2.98191,-2.981923 2.98191,-2.981903 -3.52258,-3.749634 c -1.93739,-2.062242 -2.75866,-3.749573 -1.82507,-3.749573 0.93359,0 1.33864,-0.934881 0.90019,-2.077513 -0.43839,-1.142631 0.0224,-2.582582 1.01868,-3.199813 1.25405,-0.775021 1.4504,-0.47712 0.63463,0.963681 -0.64973,1.147221 0.0752,0.899911 1.61043,-0.54953 1.5355,-1.449622 2.7992,-3.788704 2.80829,-5.198126 0.0112,-1.409371 1.01897,-2.580112 2.24423,-2.601722 3.70988,-0.0651 5.86462,-2.143643 4.8808,-4.707415 -0.676,-1.761772 -0.38675,-2.087902 1.05982,-1.193991 1.45422,0.89873 1.73466,0.56446 1.04159,-1.241542 -0.52147,-1.359231 -0.30087,-2.471382 0.49004,-2.471382 1.89845,0 1.83928,-5.387116 -0.0988,-9.008599 -1.82019,-3.401104 -4.83264,-3.706624 -7.29476,-0.739881 z m 17.69964,16.803007 c -0.0225,0.612621 -2.11169,3.389083 -4.63943,6.169936 -3.99038,4.389985 -4.77707,4.732395 -5.97095,2.599033 -1.7306,-3.092493 -6.97441,-3.204583 -8.13736,-0.17401 -0.48162,1.255681 0.23351,3.508983 1.58927,5.007325 2.30955,2.552003 2.2505,2.980903 -0.9337,6.783867 -4.29349,5.127665 -6.8236,7.715868 -13.58123,13.893214 -2.97668,2.721123 -5.41215,6.087876 -5.41215,7.481698 0,1.3938111 3.27121,5.7562356 7.26934,9.6942496 6.0397,5.9488861 7.73355,6.9002771 10.01357,5.6242758 1.50935,-0.8446809 2.74936,-2.7534528 2.75554,-4.24168436 0.006,-1.48828154 0.67953,-2.71792274 1.49642,-2.73257284 2.51669,-0.0449 5.28972,-2.3441424 4.45549,-3.6940037 -0.43503,-0.7039508 -0.0112,-1.7635018 0.94779,-2.3545824 1.08599,-0.6711707 1.341,-0.4310905 0.67914,0.6399706 -0.58282,0.943021 -0.35195,1.7146118 0.51305,1.7146118 0.865,0 1.57276,-1.0024611 1.57276,-2.2277223 0,-2.6975332 2.42845,-2.9572032 3.47195,-0.3715904 0.58383,1.4469815 0.77491,1.4342915 0.86634,-0.0573 0.0645,-1.0526907 -2.48424,-4.7028647 -5.66373,-8.1114887 -5.0076,-5.368375 -6.10039,-5.932446 -8.1684,-4.216144 -3.00252,2.491883 -3.0413,5.166795 -0.11002,7.599398 2.01884,1.675552 1.90439,2.286832 -1.00932,5.3882954 L 1.69514,-5.187748 -1.7511,-8.4253313 c -1.89541,-1.7806317 -3.44618,-4.3662447 -3.44618,-5.7457557 0,-2.459823 13.58785,-16.329187 15.90185,-16.231347 0.64764,0.0281 -1.3483,2.112872 -4.43539,4.634445 -3.08711,2.521563 -6.33345,6.007886 -7.21417,7.747308 -0.88071,1.739482 1.9291,-0.30368 6.24392,-4.540595 6.92794,-6.802547 7.62106,-8.018088 5.92783,-10.39612 -1.05455,-1.481112 1.00061,0.44063 4.56708,4.270594 3.56642,3.829894 7.48685,7.083647 8.7121,7.230487 4.00997,0.480501 5.94069,-0.0584 5.94069,-1.657751 0,-0.865041 -0.83542,-1.091431 -1.85645,-0.502941 -1.02105,0.588371 -0.25541,-0.688231 1.70102,-2.836923 1.95666,-2.148622 4.23197,-3.489793 5.05627,-2.980333 0.8243,0.509681 1.07173,0.23519 0.5501,-0.60898 -0.52203,-0.844451 0.72786,-3.212054 2.77719,-5.261386 l 3.72605,-3.726054 -7.20299,-7.592047 c -6.35163,-6.694607 -12.09293,-9.73809 -12.2203,-6.478107 z m 9.14393,8.910979 c 1.85342,2.363343 1.79931,2.411503 -0.59663,0.531011 -3.5645,-2.797683 -5.13626,-0.853151 -2.05899,2.547222 3.21733,3.555084 3.1104,5.160736 -0.56525,8.487139 -2.97697,2.694113 -3.13026,2.640003 -8.53966,-3.017163 -3.02956,-3.168273 -4.33874,-4.885695 -2.90927,-3.816484 2.07902,1.555032 3.04477,1.574062 4.8268,0.0954 1.22525,-1.016891 2.22771,-2.713873 2.22771,-3.771014 0,-1.708392 1.95801,-3.199533 4.64494,-3.537563 0.51248,-0.0645 1.84927,1.052301 2.97035,2.481772 z m 36.93959,-61.870022 c 0,1.0714 -2.765,1.34925 -8.15745,0.81981 -10.68278,-1.04894 -11.53964,0.55459 -11.5347,21.587712 0.002,8.839139 -0.58097,16.071146 -1.29576,16.071146 -2.16423,0 -1.13107,-31.420212 1.18428,-36.015188 1.89973,-3.77013 2.74036,-4.08423 10.93083,-4.08423 5.41989,0 8.8728,0.63074 8.8728,1.62075 z m -1.28188,5.35955 c -1.70923,0.67971 -1.70923,1.004835 0,2.087736 1.58432,1.003801 1.45943,1.287552 -0.57451,1.305402 -1.42952,0.0112 -2.59909,-0.979791 -2.59909,-2.205033 0,-1.225265 1.16957,-2.174965 2.59909,-2.110465 1.81205,0.082 1.986,0.36093 0.57451,0.92236 z m 1.28188,22.566437 c 0,13.887505 -0.17625,14.720115 -3.3416,15.766126 l -3.3416,1.104352 3.43282,0.66926 c 2.72117,0.530451 3.33688,1.492062 2.97028,4.638265 -0.25427,2.182922 -1.46493,4.423215 -2.69018,4.978425 -1.82346,0.826261 -1.75604,1.028441 0.37103,1.113871 1.42952,0.0573 2.59886,0.939771 2.59869,1.960822 -2.2e-4,1.205162 -2.47525,1.904962 -7.05451,1.994662 -3.8798,0.0763 -6.21877,-0.14651 -5.19773,-0.49509 3.37607,-1.151611 1.92742,-3.355474 -2.22771,-3.389104 l -4.08423,-0.0337 3.38033,-2.601602 c 2.66903,-2.054152 2.99712,-2.984723 1.5594,-4.422495 -1.4377,-1.437771 -1.28962,-1.820932 0.7039,-1.820932 4.07985,0 3.08632,-5.477645 -1.18814,-6.550506 -2.04209,-0.512491 -3.71292,-1.665392 -3.71292,-2.561923 0,-0.898681 1.33224,-1.281731 2.96889,-0.853771 3.55962,0.930891 5.68354,-1.724282 2.80318,-3.504444 -2.39645,-1.481111 -0.59265,-3.701253 3.88153,-4.777414 1.63368,-0.392931 0.33624,-0.792031 -2.88288,-0.886781 -5.47777,-0.1611 -5.66834,-0.312091 -2.97034,-2.352783 1.92936,-1.459321 2.20873,-2.196112 0.84455,-2.227772 -1.52202,-0.0337 -1.62502,-0.545041 -0.4064,-2.013242 0.89745,-1.081321 1.13522,-2.585053 0.52821,-3.341603 -0.60685,-0.756611 -0.83733,-1.232102 -0.51193,-1.056752 0.32501,0.175141 1.7726,-0.50855 3.21666,-1.520161 1.44405,-1.011391 4.36371,-1.982822 6.48814,-2.158622 l 3.86256,-0.319961 z M -70.64196,-55.69988 c -0.11788,9.80209 -0.64507,17.822139 -1.1721,17.822309 -0.52708,2.2e-4 -0.83648,-7.852608 -0.68767,-17.450658 0.30424,-19.62848 0.20376,-18.193619 1.27285,-18.193619 0.44064,0 0.70452,8.019878 0.58692,17.821968 z m 119.26923,-3.341603 c -0.9089,9.55128 -1.49262,10.32921 -1.67162,2.227712 -0.0949,-4.288384 0.36205,-7.797098 1.01465,-7.797098 0.65281,0 0.94846,2.506243 0.65697,5.569386 z m 16.07781,27.990759 c -2.5054,2.108162 -4.55529,4.558444 -4.55529,5.445055 0,0.886601 1.67083,0.0449 3.71292,-1.876112 4.04601,-3.800994 4.05106,-3.794034 4.29091,5.924306 0.14594,5.904046 -0.54504,7.408488 -6.04021,13.1490237 -3.5814,3.7415438 -6.92032,6.0400462 -7.89706,5.4363456 -1.00359,-0.6202607 -2.0225,0.2172302 -2.50373,2.05718208 C 51.26637,0.79172812 50.38454,1.8688492 49.75311,1.4786188 48.26684,0.56006789 45.1647,4.3104817 44.68023,7.6116151 44.4731,9.0236765 43.02348,10.680758 41.4592,11.294009 c -1.56435,0.61318 -2.32758,1.161871 -1.69615,1.219291 0.63149,0.0573 0.0393,1.792472 -1.30985,3.855664 l -2.45791,3.751324 -5.20148,-6.076766 C 27.32254,9.9880875 25.09785,8.461346 24.10567,9.453537 c -0.99225,0.992201 0.0752,3.459034 3.20946,7.416188 l 4.69619,5.929466 -3.54609,3.546153 c -2.78164,2.781583 -4.71129,3.410084 -8.95078,2.915113 -5.17639,-0.60432 -5.40468,-0.873691 -5.40468,-6.378526 0,-4.927285 0.97457,-6.645887 6.82835,-12.041753 3.75558,-3.4617931 6.11095,-6.5332863 5.2341,-6.8255666 -1.6188,-0.5394305 15.13834,-16.9886374 18.19973,-17.8650884 0.91782,-0.2627 -0.56705,1.622732 -3.29973,4.1899344 -2.73274,2.5672727 -4.72329,4.9129751 -4.42355,5.2127754 0.29975,0.2997503 4.79391,-3.4236135 9.98697,-8.2741688 5.19306,-4.850545 10.02402,-8.819149 10.7355,-8.819149 0.71142,0 1.29351,-0.74886 1.29351,-1.664101 0,-0.915231 -3.17456,0.88936 -7.05452,4.010204 -3.87997,3.120833 -5.93704,4.370964 -4.57118,2.777923 1.36581,-1.592922 2.9351,-4.706795 3.48733,-6.919588 0.55233,-2.212782 1.93352,-4.794744 3.06969,-5.737655 1.13612,-0.942861 1.72915,-2.258823 1.31788,-2.924323 -0.41145,-0.665441 0.64467,-1.651912 2.3466,-2.192073 2.95389,-0.937521 2.9718,-1.071731 0.39461,-2.956203 -2.53308,-1.852252 -2.47061,-2.023852 1.01139,-2.779893 8.88571,-1.929372 9.6417,-1.805771 10.12286,1.654892 0.3222,2.317643 -0.96816,4.599195 -4.08423,7.221178 z m -21.89541,13.858364 -5.62291,5.304835 4.79827,-5.268795 c 4.17102,-4.579935 4.835,-6.424497 5.07912,-14.109055 l 0.28066,-8.840259 0.54393,8.804169 c 0.52764,8.546289 0.37889,8.959709 -5.07907,14.109105 z m 28.7199,-9.91811 c -0.41201,1.021051 -0.74914,0.1858 -0.74914,-1.856452 0,-2.042092 0.33736,-2.877513 0.74914,-1.856462 0.41201,1.021041 0.41201,2.691883 0,3.712914 z M -67.94549,-9.1864521 c 1.83789,2.6996828 3.34161,5.851286 3.34161,7.0035672 0,2.11988215 -0.90782,1.044671 -6.62629,-7.8481881 -3.74895,-5.830046 -0.73095,-5.054025 3.28468,0.8446209 z M 72.03112,-11.197214 c 0,0.788101 -1.50373,2.2219921 -3.34161,3.1864531 -3.3237,1.7440918 -3.32645,1.7364518 -0.51248,-1.4329415 3.14311,-3.5399236 3.85403,-3.8634136 3.85403,-1.7535116 z M 28.25254,-3.7533565 C 24.2483,0.31201763 20.6358,3.3019507 20.2248,2.8910203 19.53814,2.2042896 33.28208,-10.926824 34.84621,-11.078374 c 0.37777,-0.0393 -2.58943,3.2596433 -6.59367,7.3250175 z M -32.67284,-5.204318 c -0.50462,0.8168308 -0.20993,1.4852015 0.6549,1.4852015 0.86505,0 1.57282,0.7501508 1.57282,1.6670217 0,1.15171119 -0.68857,1.09552113 -2.22772,-0.1818702 -2.58696,-2.1469522 -2.92627,-4.4554945 -0.65494,-4.4554945 0.86505,0 1.15974,0.6683107 0.65494,1.4851415 z m 6.2826,1.3823114 c -0.119,1.5770916 -0.71636,2.5581626 -1.32798,2.1801822 -0.61162,-0.3777704 -0.73556,-1.6683617 -0.27561,-2.8674629 1.16025,-3.0235631 1.86028,-2.7234728 1.60336,0.6872807 z M -8.85445,9.6967572 c 0.78613,0.0281 2.93307,1.3039018 4.77095,2.8370928 3.47676,2.900413 4.25161,8.529059 2.42889,17.642848 -0.89788,4.489395 -0.97327,4.524255 -4.61783,2.136232 -3.31134,-2.169682 -3.6309,-3.199143 -3.00738,-9.68848 0.68739,-7.153817 0.6078,-7.317557 -5.40132,-11.110971 -3.35445,-2.1175921 -5.2662,-4.1277441 -4.24825,-4.4670545 1.0179,-0.3396003 1.87476,-1.7307817 1.90418,-3.0922131 0.0393,-1.8561219 0.88986,-1.4536515 3.39739,1.6089216 1.83918,2.2463423 3.98718,4.1064642 4.77337,4.1336242 z M -48.65876,8.533476 c 7.14629,8.440479 19.51513,20.421011 21.08283,20.421011 1.02116,0 1.02857,1.273521 0.0225,3.918864 -0.81942,2.155412 -1.13706,4.271774 -0.70581,4.703035 0.4311,0.4311 0.78417,0.004 0.78417,-0.948581 0,-0.952951 1.22525,-1.732692 2.72281,-1.732692 1.49748,0 3.22265,-0.49957 3.83359,-1.110801 1.58523,-1.585222 11.38584,-1.770462 10.41324,-0.19701 -0.44457,0.71921 -0.0393,1.307641 0.89789,1.307641 2.8829,0 7.27866,6.456447 7.33081,10.767451 0.0702,5.819056 -5.06924,10.550101 -10.10413,9.30089 -4.68619,-1.162672 -10.63872,-6.363157 -10.63872,-9.29454 0,-2.745213 3.67182,-6.318306 6.49292,-6.318306 2.6437,0 7.11643,5.831296 5.93681,7.740008 -0.44737,0.72338 -1.74851,0.53887 -2.89204,-0.410311 -1.14358,-0.949091 -1.65938,-2.404882 -1.14622,-3.235133 0.51417,-0.831711 0.006,-1.204081 -1.13021,-0.829241 -2.91361,0.960651 -3.37333,6.296126 -0.73146,8.488709 6.09611,5.059305 13.59284,-3.295414 10.01099,-11.156722 -1.36552,-2.997063 -2.69389,-3.567593 -8.30632,-3.567593 -5.45177,0 -7.11963,0.66966 -9.06602,3.640173 -1.52869,2.333133 -2.00587,4.866155 -1.32897,7.054517 1.16613,3.769904 9.26427,11.427402 12.18533,11.522372 1.0211,0.0337 1.90344,1.898272 1.96086,4.144575 0.0685,2.687832 0.44961,3.322573 1.11388,1.856471 0.55515,-1.225261 2.01195,-2.450512 3.23721,-2.722812 1.2253,-0.272241 1.73077,0.002 1.1233,0.60937 -0.6074,0.607461 0.27056,2.067412 1.95071,3.244324 2.91331,2.040582 2.93521,2.272402 0.47095,4.995095 -1.95458,2.159802 -2.86471,2.400832 -3.73682,0.989721 -0.84519,-1.367492 -2.36098,-0.708051 -5.67873,2.470492 l -4.52576,4.335985 v -4.181285 c 0,-2.299672 -2.10019,-7.851998 -4.66711,-12.338532 -2.56692,-4.486475 -5.79334,-11.124162 -7.16981,-14.750415 -2.17002,-5.716666 -2.7584,-6.285177 -4.42574,-4.276155 -1.59399,1.920622 -1.54942,2.317093 0.26045,2.317093 1.40824,0 2.22861,1.582981 2.31034,4.458074 0.0696,2.451953 0.55178,5.796826 1.07101,7.433128 0.66887,2.107382 0.15661,3.221093 -1.75717,3.818734 -1.48582,0.46421 -3.73699,1.385171 -5.00266,2.047032 -2.83333,1.481551 -7.35236,-1.545832 -7.35236,-4.925545 0,-1.339432 -0.69761,-2.435293 -1.55026,-2.435293 -0.85265,0 -1.3539,-1.100251 -1.11387,-2.444952 0.24023,-1.344762 -0.5661,-2.732293 -1.79135,-3.083403 -1.98024,-0.567491 -1.98024,-0.463091 0,0.937081 1.98022,1.400371 1.98022,1.576691 0,1.586621 -2.06949,0.0112 -4.20346,-3.255603 -7.49813,-11.475712 -0.84036,-2.096662 -0.79972,-3.341603 0.1089,-3.341603 0.79661,0 1.44842,0.963051 1.44842,2.140082 0,1.177041 0.56806,2.491213 1.2623,2.920283 0.6943,0.428851 0.94348,-2.538912 0.55347,-6.595587 -0.50631,-5.270925 -0.18131,-7.375767 1.13864,-7.375767 1.11613,0 1.53987,1.175681 1.07055,2.970343 -0.42717,1.633672 -0.17121,2.970283 0.5694,2.970283 0.74033,0 1.34611,-1.670762 1.34611,-3.712854 0,-2.042142 0.60578,-3.712924 1.34611,-3.712924 0.74037,0 0.99662,1.336622 0.5694,2.970293 -0.42716,1.633732 -0.10496,2.970354 0.71658,2.970354 0.82132,0 1.40055,-1.169572 1.28711,-2.599043 -0.16559,-2.085532 0.80786,-2.516343 4.927,-2.180502 2.82333,0.23014 6.33205,1.503321 7.79714,2.829223 3.7306,3.376123 3.33633,0.62992 -0.49508,-3.448474 -2.26263,-2.408472 -4.26419,-3.147163 -7.05452,-2.603473 -2.86262,0.557951 -4.39121,-0.0505 -5.76466,-2.302602 -1.55491,-2.547053 -1.50489,-3.061613 0.2975,-3.061613 1.19158,0 2.81794,1.164011 3.61412,2.586682 0.79613,1.422672 1.88824,2.145993 2.42683,1.607352 1.18853,-1.188491 -13.95675,-18.4269687 -17.0933,-19.4556498 -1.74566,-0.5725506 -1.66781,-0.7678908 0.3598,-0.9028909 1.42317,-0.0949 4.42658,1.999772 6.67428,4.6544847 z m 66.24428,0.5961807 c -6.51346,4.4476843 -7.5675,6.4482463 -6.83268,12.9678233 0.61548,5.460546 0.14651,6.961857 -3.22704,10.335681 -2.17096,2.170912 -4.11679,3.947164 -4.32403,3.947164 -0.20713,0 -0.0949,-2.416053 0.24979,-5.368996 C 3.86189,27.497125 3.37406,25.204003 2.03945,24.373422 0.33303,23.311401 0.32315,22.58421 1.97885,19.913718 3.39786,17.625145 3.50283,16.268544 2.34987,15.115873 0.05638,12.82242 0.36319,10.669088 2.84777,11.622439 4.00544,12.06643 5.31635,11.482109 5.76086,10.323758 7.00856,7.0723646 15.91712,3.7887912 18.32772,5.6918431 c 1.62547,1.2832914 1.4893,1.913762 -0.74263,3.4378136 z m 26.2969,9.6009093 -13.33402,13.538694 2.38,4.654595 c 2.34896,4.593855 2.34183,4.620575 -0.54616,2.049322 -1.60926,-1.432881 -2.95879,-3.772024 -2.99892,-5.198055 -0.0702,-2.488803 24.27743,-28.5832494 26.66961,-28.5832494 0.63985,0 -4.83696,6.0924264 -12.17068,13.5386934 z m 18.54729,5.938617 1.03957,18.731979 -10.47072,13.419583 c -7.73456,9.912781 -10.25754,14.234785 -9.6549,16.539297 0.4485,1.715842 0.23632,3.118364 -0.47151,3.116744 -1.78,-0.004 -2.23675,-8.747419 -0.56845,-10.881342 0.74802,-0.956771 3.60964,-4.412894 6.3591,-7.680237 11.57753,-13.758114 11.48676,-13.487384 11.48676,-34.264315 0,-10.424761 0.27898,-18.6750196 0.62021,-18.3338992 0.34128,0.3412803 1.08795,9.0495692 1.65972,19.3521902 z M -54.58188,16.357404 c -0.8989,9.007639 -2.59617,10.284651 -2.59617,1.953402 0,-6.030566 0.79714,-8.6634388 2.623,-8.6634388 0.35363,0 0.34128,3.0195128 -0.0281,6.7100368 z m 38.86724,-1.707992 c 1.70029,2.751153 3.09148,7.022137 3.09148,9.49112 0,3.998854 -0.55122,4.553335 -5.04645,5.078115 -5.31072,0.620021 -13.6899,-4.313374 -12.58505,-7.409687 0.82206,-2.303823 9.29043,-12.1615928 10.44753,-12.1615928 0.55066,0 2.39219,2.2508918 4.09249,5.0020448 z M 56.74942,28.715357 C 57.02222,41.72293 56.69332,43.819852 53.77605,47.807596 45.96784,58.472607 40.83147,65.001954 40.68424,64.449953 39.80055,61.13675 40.20823,48.599737 41.245,47.212816 c 0.73633,-0.985281 0.90765,-2.489003 0.38057,-3.341654 -0.5282,-0.854391 0.24811,-1.571421 1.72859,-1.597401 2.50658,-0.0449 2.49345,-0.193661 -0.19647,-2.227783 -2.51387,-1.901362 -2.56136,-2.180512 -0.37103,-2.180512 1.38136,0 2.51158,-1.002461 2.51158,-2.227722 0,-1.268082 1.4395,-2.303433 3.3416,-2.403463 2.64904,-0.13921 2.41817,-0.39236 -1.11383,-1.221321 l -4.45549,-1.045581 4.80351,-2.862903 c 5.6007,-3.338013 7.06227,-6.137946 4.69382,-8.991819 -1.31686,-1.586692 -1.15767,-2.039512 0.71693,-2.039512 1.32528,0 2.40958,-0.668311 2.40958,-1.485142 0,-0.816831 0.16839,-1.485141 0.3744,-1.485141 0.206,0 0.51249,6.575596 0.68077,14.612495 z M -48.66931,22.42597 c -0.49341,0.493401 -1.77446,0.546171 -2.84657,0.11731 -1.18473,-0.47431 -0.83284,-0.82604 0.89732,-0.897331 1.56558,-0.0645 2.44276,0.286281 1.94925,0.780071 z m -5.5384,10.329051 c 0,2.155532 -0.64288,3.403293 -1.48519,2.882723 -0.81684,-0.504631 -1.48515,-2.215082 -1.48515,-3.800594 0,-1.585462 0.66831,-2.882663 1.48515,-2.882663 0.81683,0 1.48519,1.710232 1.48519,3.800534 z m 78.2802,1.908152 c 5.39491,2.887283 7.73439,7.370057 6.35556,12.177892 -1.52074,5.302346 -6.16791,13.301874 -7.72754,13.301874 -0.64069,0 -1.16491,0.931001 -1.16491,2.068852 0,1.137861 -1.00253,2.453532 -2.22777,2.923703 -1.22526,0.47039 -2.22772,1.583602 -2.22772,2.474313 0,0.89065 0.54729,1.281101 1.21644,0.86763 0.66904,-0.41369 0.92141,1.257972 0.56076,3.714434 -0.50014,3.407734 -1.22845,4.239165 -3.0729,3.508094 C 14.45487,75.172884 11.20823,74.379283 8.56975,73.936123 5.9312,73.492673 4.13278,72.547302 4.5732,71.834701 5.01383,71.12211 4.6664,70.53906 3.8011,70.53906 c -2.21295,0 -1.87324,3.190773 0.70216,6.595816 1.19932,1.585622 2.1805,5.138236 2.1805,7.894768 0,6.059697 2.29278,10.757221 5.25032,10.757221 1.19657,0 2.17552,0.746281 2.17552,1.658372 0,1.718492 -2.044,1.353971 -9.67853,-1.725842 -3.89585,-1.571581 -5.44617,-1.355361 -11.88132,1.657422 -5.12004,2.397072 -10.95251,3.649993 -18.92562,4.065703 -11.33381,0.59091 -11.51613,0.54393 -11.00269,-2.820242 0.28739,-1.881662 1.29631,-3.679184 2.24254,-3.994644 0.94622,-0.31546 1.72039,-1.225541 1.72039,-2.022502 0,-0.796971 -0.77159,-0.972211 -1.71461,-0.38956 -1.07089,0.6618 -1.31114,0.40696 -0.63997,-0.679201 0.59108,-0.956321 1.61274,-1.406271 2.27039,-0.999821 0.65763,0.4064 2.98499,-0.919331 5.17195,-2.946163 2.18697,-2.026752 4.61019,-3.685074 5.38492,-3.685074 0.77474,0 1.40864,-0.739821 1.40864,-1.644052 0,-0.90423 0.95363,-1.278131 2.11915,-0.83087 1.16553,0.44738 2.88094,-0.1044 3.812,-1.226492 2.80211,-3.376343 6.831,-2.137962 6.75763,2.077233 -0.0505,3.020083 -1.01352,3.924544 -5.04583,4.749054 -6.16448,1.260572 -16.55392,5.856956 -16.55392,7.323638 0,2.947943 14.17039,3.841404 19.85393,1.251791 4.06986,-1.854372 5.01832,-4.176514 4.79974,-11.751382 -0.0982,-3.406213 0.98164,-6.397546 3.19314,-8.844689 1.83788,-2.033782 3.3416,-4.539975 3.3416,-5.569386 0,-1.029401 1.00247,-1.871612 2.22777,-1.871612 1.22526,0 2.22772,-1.002521 2.22772,-2.227782 0,-1.225241 0.54224,-2.227712 1.20511,-2.227712 0.66285,0 2.52072,-1.169571 4.12868,-2.599033 1.60796,-1.429511 5.24268,-3.898214 8.07713,-5.486015 7.20018,-4.033494 8.17733,-5.353616 8.04716,-10.872141 -0.13696,-5.799806 -1.5433,-7.431448 -7.41887,-8.606579 -8.6508,-1.730172 -16.57268,9.58457 -10.77187,15.385385 2.14599,2.145993 4.70348,2.380393 3.42641,0.313781 -0.52203,-0.844451 0.0797,-1.089301 1.41645,-0.576421 1.27807,0.490601 3.31774,0.0668 4.53261,-0.941451 2.48407,-2.061632 3.00643,-7.410117 0.72366,-7.410117 -0.81684,0 -1.48515,0.931001 -1.48515,2.068852 0,3.115003 -3.97691,4.010254 -6.15522,1.385571 -1.6106,-1.940662 -1.36435,-2.757103 1.5411,-5.109825 4.61075,-3.733514 6.76432,-3.530324 9.67561,0.912821 2.19976,3.357263 2.21413,4.046624 0.14987,7.196937 -1.25556,1.916182 -4.06144,4.294385 -6.23527,5.284846 -3.40615,1.551941 -4.53548,1.369791 -8.17059,-1.317762 C 4.0684,49.919858 3.57685,49.859068 2.71595,52.102551 2.09182,53.729042 2.9938,55.526844 5.338,57.329136 9.21358,60.308679 8.221,61.06967 3.64993,58.623317 1.63575,57.545356 -0.04148,57.636846 -2.12556,58.938228 -7.44334,62.259221 -7.52956,58.506567 -2.24399,53.783822 0.72848,51.12794 3.89214,46.286025 5.18077,42.420371 8.3524,32.906301 15.39031,30.016108 24.07216,34.662503 Z M 1.72691,47.147766 c -0.41201,1.021041 -0.74909,0.18579 -0.74909,-1.856462 0,-2.042142 0.33736,-2.877493 0.74909,-1.856462 0.41201,1.021051 0.41201,2.691883 0,3.712924 z m 32.70448,-1.577982 c -0.47432,1.184721 -0.82598,0.832831 -0.89727,-0.897331 -0.0645,-1.565592 0.28627,-2.442762 0.78007,-1.949252 0.4934,0.493401 0.54616,1.774452 0.11731,2.846583 z m -55.77608,21.627672 c 1.84736,2.355582 1.79482,2.408063 -0.56076,0.560761 -2.47386,-1.940212 -3.26061,-3.159794 -2.03828,-3.159794 0.30817,0 1.47796,1.169572 2.59904,2.599033 z m 56.78904,1.964232 c 4.47997,3.523984 4.80464,5.741646 1.71518,11.716022 -1.70597,3.299003 -2.92819,4.059544 -5.45986,3.397514 l -3.26184,-0.852981 3.13504,-1.159742 c 2.68973,-0.995001 6.29948,-5.468455 6.29948,-7.806817 0,-1.832322 -4.94243,-5.401766 -7.47961,-5.401766 -3.70915,0 -7.00253,5.818376 -4.25465,7.516718 2.59089,1.601221 4.37882,0.33567 3.34211,-2.366203 -0.46028,-1.199091 -0.15268,-2.180172 0.68369,-2.180172 0.83615,0 1.81173,0.835421 2.16788,1.856462 2.10204,6.026066 -6.27664,7.923118 -8.96211,2.029122 -1.24787,-2.738853 -1.11467,-4.251734 0.58838,-6.683267 2.78157,-3.971244 6.49353,-3.992234 11.48631,-0.0651 z M 21.5356,83.900093 c 8.33949,4.131554 13.36646,8.652829 13.36646,12.021882 0,1.423242 0.50126,2.868023 1.11389,3.210664 0.61263,0.3424 0.29975,0.42716 -0.69503,0.1886 -0.99489,-0.23912 -2.21066,0.21555 -2.70169,1.010201 -0.49116,0.7945 -1.5149,1.06006 -2.27527,0.59007 -0.76042,-0.46983 -1.38259,-0.20938 -1.38259,0.57934 0,0.78854 -1.16956,1.20241 -2.59903,0.91967 -10.60768,-2.09823 -11.33599,-2.39432 -9.20477,-3.742612 1.18265,-0.74819 4.15524,-1.380851 6.60575,-1.405891 3.42692,-0.0337 3.9412,-0.377771 2.22776,-1.485152 -1.79223,-1.158221 -1.55739,-1.444101 1.20152,-1.462401 7.90817,-0.0505 -4.50029,-7.077607 -13.5814,-7.689158 -3.98555,-0.26831 -5.3064,-0.941221 -4.74086,-2.414982 0.43109,-1.123592 0.78394,-3.428434 0.78394,-5.121896 0,-2.812773 0.22453,-2.881423 2.59902,-0.794161 1.42947,1.256692 5.60648,3.774844 9.2823,5.595826 z m -51.53564,-1.375301 c 3.13744,0.0999 3.14929,0.15324 0.2975,1.333541 -3.00532,1.243611 -6.73744,-1.603192 -6.63808,-5.063405 0.0224,-0.864951 0.72641,-0.40303 1.55896,1.026431 0.83261,1.429471 2.98432,2.646013 4.78162,2.703433 z M 21.5356,94.301734 c 0,0.816831 -0.66831,1.485131 -1.48521,1.485131 -0.81682,0 -1.48513,-0.6683 -1.48513,-1.485131 0,-0.816841 0.66831,-1.485212 1.48513,-1.485212 0.8169,0 1.48521,0.668371 1.48521,1.485212 z M 2.22844,99.536559 c 0,1.245461 1.70069,2.911071 3.77927,3.701361 3.62215,1.37713 3.75524,1.85403 3.20256,11.47324 -0.4659,8.11138 -0.0337,10.82146 2.26869,14.12921 3.83816,5.52088 3.0152,8.02505 -4.40025,13.38966 l -6.28854,4.54929 -7.44637,-5.07519 c -4.09552,-2.7914 -7.44768,-5.66469 -7.44925,-6.38509 -0.002,-0.72045 1.39994,-3.57967 3.11449,-6.35389 2.39505,-3.87525 2.72483,-5.51707 1.42318,-7.08539 -1.2842,-1.5474 -1.22997,-2.19724 0.22453,-2.68537 1.53465,-0.5153 1.48655,-1.45467 -0.24081,-4.69653 -1.88867,-3.54497 -1.88867,-4.22361 0,-5.41838 1.38658,-0.87712 1.51557,-1.37394 0.36037,-1.38854 -2.38365,-0.0281 -7.79097,5.76538 -9.52428,10.20808 -0.76126,1.95116 -1.75373,3.17799 -2.20548,2.72624 -1.07454,-1.07454 1.96232,-6.88232 5.80445,-11.1006 3.76221,-4.13059 2.13213,-4.32112 -3.38129,-0.39517 -3.52588,2.51069 -4.28731,4.34216 -5.14844,12.38294 -0.55571,5.19009 -2.33419,11.61307 -3.95198,14.27334 l -2.94149,4.83686 -5.13452,-5.4442 c -2.824,-2.99433 -5.19273,-5.56371 -5.26385,-5.70977 -0.0713,-0.14594 -0.57238,-6.02844 -1.11388,-13.07195 -0.8229,-10.70363 -0.63974,-12.67404 1.11551,-12.00023 1.44731,0.5557 1.7593,0.15043 1.00376,-1.30266 -0.60298,-1.15986 -0.0337,-0.79691 1.26527,0.80651 1.69474,2.09211 4.24174,2.93089 9.01993,2.97035 3.66206,0.0281 6.65884,-0.30311 6.65951,-0.74066 6.2e-4,-0.43727 1.17075,-0.81712 2.60022,-0.84339 1.42945,-0.0281 4.18645,-0.5752 6.12659,-1.21992 2.44271,-0.81167 3.21509,-0.66646 2.51141,0.47206 -0.55907,0.90441 -0.30872,1.64429 0.55684,1.64429 0.86504,0 1.57281,-0.66831 1.57281,-1.48515 0,-0.81683 0.85394,-1.48514 1.89767,-1.48514 1.04372,0 3.04213,-1.33668 4.44095,-2.97035 3.02484,-3.532794 5.54264,-3.853424 5.54264,-0.705801 z m -4.14261,8.182561 c -1.26852,2.03131 -1.5635,5.45846 -0.90012,10.45916 0.86105,6.49113 0.55065,7.90174 -2.43676,11.08196 -1.88284,2.00419 -2.93885,4.12857 -2.34666,4.72077 0.5922,0.59221 1.6157,0.20488 2.27442,-0.86129 0.92124,-1.49054 1.47302,-1.30912 2.39005,0.78562 0.65574,1.49795 1.25,3.16912 1.3205,3.71366 0.45748,3.53211 1.94437,1.96727 1.79573,-1.89003 -0.14763,-3.83035 0.45299,-4.82822 3.15934,-5.24723 2.20493,-0.34129 3.3416,0.23743 3.3416,1.70096 0,1.22015 0.66836,2.21846 1.4852,2.21846 2.15722,0 1.84827,-1.25933 -1.44299,-5.88142 -2.14441,-3.01154 -2.8711,-6.27979 -2.71505,-12.21065 0.29525,-11.21944 -2.10765,-14.70288 -5.92526,-8.58997 z m 50.1827,-7.30146 c 0,0.81684 -0.66831,1.07213 -1.48521,0.56727 -0.81682,-0.50462 -1.48513,-1.586171 -1.48513,-2.403012 0,-0.816831 0.66831,-1.072121 1.48513,-0.56727 0.8169,0.50463 1.48521,1.586191 1.48521,2.403012 z m -30.99381,4.00082 c 5.30948,2.70693 16.23178,3.16946 23.19672,0.98232 3.95613,-1.24237 4.70107,2.26062 1.11383,5.2377 -2.49873,2.0738 -3.03395,7.42583 -0.74257,7.42583 0.81683,0 1.48513,-1.44803 1.48513,-3.21783 0,-1.76984 0.36767,-2.85033 0.81678,-2.40116 1.50345,1.50349 -1.12197,16.00183 -2.71898,15.0148 -0.89289,-0.55178 -1.0756,-0.21331 -0.44007,0.81515 0.62756,1.01537 -0.81269,3.92251 -3.40728,6.8776 l -4.49433,5.1188 -3.08862,-4.33756 c -1.69872,-2.38567 -3.17792,-6.71397 -3.2871,-9.61847 -0.18299,-4.85897 -0.56502,-5.28417 -4.7847,-5.32049 l -4.58611,-0.0393 4.08418,-2.53224 c 4.76432,-2.9539 5.29999,-7.02972 1.2115,-9.21781 -4.06094,-2.17332 -5.00441,-1.92078 -3.96579,1.06163 0.72753,2.08896 0.45579,2.01756 -1.3849,-0.3643 -1.96529,-2.54289 -2.48912,-2.6482 -3.69383,-0.74257 -0.85669,1.35514 -1.41262,1.52579 -1.42649,0.43783 -0.0112,-0.98045 1.14679,-2.46386 2.57625,-3.29641 2.47531,-1.44177 2.47531,-1.51598 0,-1.55897 -1.42946,-0.0225 -2.59904,-0.71349 -2.59904,-1.53033 0,-1.9314 -0.0281,-1.93718 6.13531,1.20577 z m 13.66688,11.41814 c 0,1.22526 0.55684,2.22771 1.23766,2.22771 0.68072,0 1.2376,-1.00245 1.2376,-2.22771 0,-1.22532 -0.55682,-2.22778 -1.2376,-2.22778 -0.68071,0 -1.23766,1.00246 -1.23766,2.22778 z m -6.80697,3.21132 c 1.02104,0.41201 2.69187,0.41201 3.71292,0 1.02103,-0.41201 0.18579,-0.74909 -1.85647,-0.74909 -2.04208,0 -2.87749,0.3368 -1.85645,0.74909 z m -72.87231,-0.70513 c -0.47432,1.18478 -0.82605,0.83283 -0.89733,-0.89727 -0.0646,-1.56564 0.28627,-2.44282 0.78007,-1.9493 0.4934,0.4934 0.54616,1.77445 0.11731,2.84657 z m 69.40923,6.56365 c 3.02783,1.16194 3.03294,7.07832 0.006,9.58861 -1.94009,1.6101 -2.57203,1.57771 -3.69024,-0.18917 -0.74207,-1.17271 -1.31709,-3.1347 -1.2778,-4.35995 0.0393,-1.24417 0.66444,-0.75234 1.41454,1.11383 0.73875,1.83793 1.74391,3.34166 2.23372,3.34166 0.79814,0 0.0567,-3.3333 -1.90013,-8.53972 -0.78304,-2.08364 -0.18973,-2.26012 3.2116,-0.95498 z m 2.34919,11.67016 c 0,0.37946 -1.50372,1.41908 -3.3416,2.30968 -3.20891,1.55502 -3.2271,1.52763 -0.4586,-0.69032 3.03013,-2.42761 3.80032,-2.75581 3.80032,-1.61936 z M -60.2817,49.497628 c 0.801,1.496661 2.63624,3.668684 4.07845,4.826805 1.86038,1.493961 1.63882,0.703451 -0.76267,-2.721183 -3.66723,-5.229655 -5.66756,-6.499927 -3.31578,-2.105622 z m 14.26603,17.774488 c 0.5428,1.062131 1.51602,5.072105 2.16322,8.910979 l 1.17665,6.979867 0.17457,-6.028086 c 0.1016,-3.509283 -0.80219,-7.232697 -2.16317,-8.910989 -1.28582,-1.585561 -1.89395,-2.013852 -1.35138,-0.951771 z m 88.33896,73.440994 c -2.18657,2.9868 -2.5452,4.02412 -0.94083,2.72118 2.43535,-1.97782 6.11773,-7.54798 4.98986,-7.54798 -0.28346,0 -2.10562,2.17204 -4.04903,4.8268 z"
       id="path2676" /></g></svg>
