<?xml version="1.0" encoding="UTF-8" standalone="no"?>
<!-- Created with Inkscape (http://www.inkscape.org/) -->

<svg
   width="210mm"
   height="297mm"
   viewBox="0 0 210 297"
   version="1.1"
   id="svg2686"
   xml:space="preserve"
   inkscape:version="1.2.2 (732a01da63, 2022-12-09)"
   sodipodi:docname="Ullr.svg"
   xmlns:inkscape="http://www.inkscape.org/namespaces/inkscape"
   xmlns:sodipodi="http://sodipodi.sourceforge.net/DTD/sodipodi-0.dtd"
   xmlns="http://www.w3.org/2000/svg"
   xmlns:svg="http://www.w3.org/2000/svg"><sodipodi:namedview
     id="namedview2688"
     pagecolor="#ffffff"
     bordercolor="#000000"
     borderopacity="0.25"
     inkscape:showpageshadow="2"
     inkscape:pageopacity="0.0"
     inkscape:pagecheckerboard="0"
     inkscape:deskcolor="#d1d1d1"
     inkscape:document-units="mm"
     showgrid="false"
     inkscape:zoom="2.3786088"
     inkscape:cx="478.85134"
     inkscape:cy="679.38873"
     inkscape:window-width="2560"
     inkscape:window-height="1494"
     inkscape:window-x="-11"
     inkscape:window-y="-11"
     inkscape:window-maximized="1"
     inkscape:current-layer="layer1" /><defs
     id="defs2683" /><g
     inkscape:label="레이어 1"
     inkscape:groupmode="layer"
     id="layer1"><path
       style="fill:#000000;stroke-width:1.49973"
       d="M -70.985049,-153.30132 C -73.193295,-150.99643 -75,-148.28048 -75,-147.2658 c 0,1.01462 2.114436,-0.56343 4.698772,-3.50685 5.620094,-6.40095 5.049074,-8.5125 -0.683821,-2.52867 z M 67.52831,-157.1655 c -0.0283,0.60923 1.12714,2.48118 2.57062,4.15989 1.88051,2.18699 2.86305,6.76208 3.46592,16.13928 l 0.8414,13.08703 0.27605,-12.74773 c 0.24997,-11.54032 -0.0731,-13.17386 -3.41196,-17.24691 -2.02839,-2.47454 -3.71221,-4.00072 -3.74191,-3.39156 z m -105.178183,3.79809 c -26.969481,0.39338 -27.995831,0.52091 -31.154818,3.88367 l -3.266626,3.47715 0.410383,87.602499 0.410383,87.602496 7.220867,9.383092 c 5.11862,6.651321 6.95112,10.232992 6.29428,12.302482 -0.50958,1.605651 1.22905,10.204822 3.863781,19.109224 2.63473,8.904401 5.2419,19.226783 5.79377,22.938594 0.55209,3.711821 2.18676,8.773413 3.63313,11.248013 1.44643,2.47454 2.154,3.14941 1.57238,1.49971 -2.67395,-7.584832 -2.43418,-10.866933 0.96792,-13.249813 1.86276,-1.30478 3.96853,-2.012811 4.67938,-1.57346 0.71086,0.43929 1.10702,-0.0113 0.8804,-0.999881 -0.22673,-0.98929 0.52545,-2.13932 1.67129,-2.55566 1.43348,-0.52091 1.70936,-0.11166 0.88434,1.31227 -0.70789,1.22168 -0.63981,1.5573 0.16608,0.81946 0.75088,-0.68739 1.39593,-2.03712 1.43339,-2.99948 0.0397,-0.9623 0.93125,-1.564221 1.98617,-1.337601 1.11818,0.240331 1.46995,-0.31289 0.84355,-1.32626 -0.75524,-1.22208 0.30155,-1.53645 3.55866,-1.05838 5.05632,0.74209 4.9098,-1.25269 -0.23637,-3.215501 -2.22571,-0.84894 -4.06013,-0.48747 -5.93701,1.170271 -2.30679,2.03735 -2.91335,2.07958 -4.0253,0.28058 -0.72004,-1.16511 -1.00527,-2.610131 -0.63383,-3.211131 0.37128,-0.60107 -0.0227,-1.52352 -0.87331,-2.04993 -0.85171,-0.52659 -1.15632,-1.591881 -0.67684,-2.367701 0.47953,-0.77582 -0.52205,-3.18228 -2.22514,-5.347671 -1.70332,-2.1654 -3.09692,-4.63586 -3.09692,-5.489901 0,-4.56676 10.3448,-22.978384 16.39325,-29.176535 3.81559,-3.910141 9.153351,-9.711002 11.861601,-12.890782 2.7083,-3.179851 5.2807897,-5.424821 5.7167297,-4.988881 1.0094101,1.00941 -11.3881807,17.519163 -13.1555507,17.519163 -0.72577,0 -1.23965,0.50618 -1.14193,1.12476 0.48861,3.093511 -0.39848,4.874141 -2.42721,4.874141 -1.23727,0 -2.24963,0.62941 -2.24963,1.39865 0,0.7693 -1.39853,1.842591 -3.10791,2.385101 -1.91559,0.60798 -2.78792,1.82019 -2.27388,3.15983 0.45856,1.195381 0.0397,3.441661 -0.92612,4.991771 -1.35818,2.174861 -1.33601,3.329431 0.0969,5.056271 2.1758,2.621691 0.15361,4.463711 -3.4021,3.099181 -1.33975,-0.51411 -2.38493,-0.14907 -2.38493,0.83347 0,0.96179 0.67963,1.3287 1.51031,0.81526 0.83069,-0.51354 1.91361,0.11734 2.40647,1.40194 0.72055,1.877781 1.75983,1.410771 5.30429,-2.38368 2.42449,-2.595391 4.11936,-5.796891 3.7664,-7.114371 -0.57165,-2.133871 -0.6607,-2.126331 -0.81567,0.0686 -0.23693,3.35256 -4.20903,4.6579 -5.325,1.74985 -0.9294,-2.422051 3.43588,-6.773701 5.50939,-5.492161 0.62776,0.38771 1.14137,-0.28341 1.14137,-1.49234 0,-1.512461 -1.00839,-1.934011 -3.23398,-1.352001 -2.21579,0.57947 -2.8962,0.29929 -2.16109,-0.89025 0.59007,-0.95477 2.34673,-1.73597 3.90369,-1.73597 1.73211,0 4.91796,-3.055711 8.20885,-7.873572 2.957931,-4.33051 6.786391,-9.660891 8.507621,-11.845392 3.1285498,-3.9704 5.0189198,-12.352022 3.3829398,-14.9991025 -0.4767,-0.7717901 -2.8665598,1.6151205 -5.3101498,5.3043115 -2.44359,3.68914 -8.703351,11.310252 -13.910511,16.935843 -5.20722,5.625591 -11.36447,13.857402 -13.68291,18.292883 -3.86049,7.385701 -4.08025,8.648202 -2.61052,14.997343 0.88261,3.81299 2.7176,9.903781 4.07776,13.535162 1.58071,4.220371 1.95323,7.122071 1.03247,8.042822 -1.81878,1.81884 -4.70121,0.12414 -4.70121,-2.764131 0,-3.871031 -7.45689,-23.674284 -9.38445,-24.922154 -1.43849,-0.931241 -1.35041,-1.543241 0.38601,-2.683191 1.50431,-0.98753 1.62855,-1.48441 0.37524,-1.49971 -1.03111,-0.0113 -1.87467,-1.03531 -1.87467,-2.272581 0,-1.23727 0.58129,-2.24963 1.29175,-2.24963 0.71046,0 0.96922,-1.68716 0.57504,-3.749281 -0.43589,-2.27955 -0.0283,-3.74933 1.04631,-3.74933 0.96973,0 1.28154,0.77916 0.693,1.73143 -0.66834,1.08139 -0.41095,1.32399 0.68581,0.64624 0.96576,-0.59687 1.40732,-1.6493 0.98118,-2.33879 -0.42626,-0.689431 4.45577,-5.675471 10.84856,-11.080052 6.39283,-5.404591 14.30953,-13.229873 17.59265,-17.389474 3.283181,-4.1596103 6.680741,-7.562901 7.550261,-7.562901 5.3694998,0 9.7024899,-19.007423 9.1259199,-40.032527 -0.18536,-6.758112 0.21142,-11.948552 0.88158,-11.534362 0.67016,0.41435 1.2184601,0.0397 1.2184601,-0.835171 0,-0.87354 -0.8686701,-1.58825 -1.9304501,-1.58825 -1.06172,0 -2.03258,-1.35608 -2.1574,-3.01348 -0.1247001,-1.657401 -1.5084401,-4.863091 -3.0745801,-7.123712 -1.5661498,-2.26063 -3.2900998,-5.334081 -3.8309098,-6.829881 -0.59641,-1.64952 -1.72508,-2.29253 -2.86854,-1.63422 -1.0369,0.59699 -1.40602,0.55436 -0.82031,-0.0952 1.47698,-1.637111 -3.107351,-10.103642 -4.878181,-9.009212 -0.7897,0.48803 -1.43583,-0.42456 -1.43583,-2.02806 0,-1.603551 -1.8559,-4.111701 -4.12429,-5.573661 -2.26833,-1.462021 -4.6719,-3.578441 -5.34121,-4.703251 -0.66931,-1.12476 -1.85035,-1.65355 -2.6245,-1.17515 -0.77418,0.4784 -1.40755,0.15531 -1.40755,-0.71828 0,-0.873541 -0.81827,-1.588251 -1.81832,-1.588251 -1.00006,0 1.26141,3.205691 5.02552,7.123712 13.6021,14.158502 21.637441,27.742515 23.1484907,39.133367 0.9403701,7.088911 0.7744001,7.733231 -1.9918897,7.733231 -2.91207,0 -4.80669,-3.217711 -5.61612,-9.538062 -0.19669,-1.53412 -1.14357,-3.27524 -2.104631,-3.86922 -0.96106,-0.59398 -1.31487,-2.207061 -0.78625,-3.584621 0.63457,-1.65366 0.19669,-2.50458 -1.28851,-2.50458 -1.23727,0 -2.63801,1.0123 -3.11284,2.24957 -0.47501,1.23727 -0.3384,2.24962 0.30325,2.24962 0.64148,0 2.23914,3.354711 3.55038,7.454862 2.130761,6.663051 2.157121,9.012661 0.24827,22.121004 -2.09777,14.4073924 -2.32666,14.9500725 -12.97077,30.7542954 l -10.83533,16.0881526 -0.91197,-5.590051 -0.91197,-5.590001 -0.21256,5.501351 c -0.11733,3.025721 -0.65831,6.737532 -1.20286,8.248522 -0.82111,2.27854 -0.33897,2.15491 2.82518,-0.72486 3.75636,-3.418531 23.66025,-32.0314662 23.66025,-34.0128766 0,-1.5929503 9.495321,-11.2563424 11.0605607,-11.2563424 0.7711701,0 0.38771,1.181051 -0.8517697,2.624531 -4.65977,5.425951 -4.4912,6.9582011 0.28851,2.62452 3.9070298,-3.54222 4.7192398,-3.86123 3.8186598,-1.49971 -0.62917,1.64969 -1.73097,5.024071 -2.44852,7.4986214 -3.1820598,10.974062 -41.8622708,52.0646796 -41.8622708,44.4710686 0,-1.693681 1.09902,-3.694411 2.44223,-4.446141 1.6697,-0.93442 1.90686,-1.697531 0.74986,-2.412591 -0.93079,-0.57527 -1.69232,-2.35585 -1.69232,-3.95685 0,-1.601061 -0.7536,-2.911001 -1.67458,-2.911001 -1.00805,0 -1.36838,1.60186 -0.90528,4.024361 0.70865,3.70683 -2.86582,14.031592 -4.821661,13.927232 -0.46593,-0.0227 -3.67718,-3.78079 -7.13624,-8.346471 -4.241006,-5.597881 -5.954865,-9.124052 -5.262599,-10.827822 0.863845,-2.126061 1.102479,-2.008891 1.505154,0.73886 0.263005,1.79605 1.560755,4.158131 2.883565,5.249051 2.15077,1.77383 2.21493,1.62673 0.60707,-1.39077 -1.49988,-2.814871 -1.41622,-3.374441 0.50448,-3.374441 1.95334,0 1.90448,-0.41832 -0.32196,-2.76152 -1.44348,-1.518871 -3.1307,-2.491381 -3.749337,-2.161091 -0.618635,0.33046 -1.130084,-2.64504 -1.136545,-6.611761 -0.0057,-3.9667108 -0.191588,-32.726456 -0.412084,-63.910522 -0.219929,-31.184065 0.01134,-57.36192 0.511278,-58.17288 1.196118,-1.93537 1.696968,-1.95255 47.528789,-1.63274 25.1552911,0.17571 39.367971,0.8181 39.367971,1.77978 0,0.97596 -14.6293599,1.42806 -41.617541,1.28613 -22.8896,-0.12017 -41.781841,0.3554 -41.982661,1.05725 -0.20066,0.7019 5.70438,1.08626 13.122671,0.8542 12.19115,-0.38147 13.49236,-0.15927 13.53544,2.31181 0.0454,2.59074 0.15191,2.59647 2.04001,0.1094 1.73665,-2.28772 4.76195,-2.62158 23.573081,-2.60157 11.86937,0.0113 20.7771702,0.53395 19.7949702,1.15837 -1.2851101,0.81708 -0.56002,3.10485 2.58678,8.160382 4.2599298,6.844221 4.0637498,9.564482 -0.56173,7.789521 -2.73466,-1.04943 -3.5955001,4.793941 -2.55781,17.362544 l 0.68104,8.248531 0.81873,-6.748821 c 0.66772,-5.504121 1.42755,-6.835371 4.1199798,-7.218432 2.82241,-0.40132 3.10225,-0.99297 1.92948,-4.07764 -1.11375,-2.929481 -0.75524,-4.039781 1.90658,-5.904191 1.80308,-1.262891 4.140451,-2.296221 5.194181,-2.296221 2.44887,0 2.49733,-6.317401 0.0669,-8.747563 -1.46525,-1.46525 -1.15412,-2.03049 1.49971,-2.72446 1.84174,-0.4818 3.34853,-1.54403 3.34853,-2.36095 0,-0.81685 -1.01229,-1.09681 -2.24956,-0.62197 -1.23728,0.475 -2.24963,0.20972 -2.24963,-0.58945 0,-0.79894 2.34094,-1.45266 5.202,-1.45266 4.00787,0 5.00384,0.51638 4.33873,2.24962 -0.47501,1.23727 -1.41231,2.24957 -2.08332,2.24957 -1.94496,0 -3.4237,9.132783 -1.7498,10.806673 1.01593,1.01599 2.33318,0.25848 4.01597,-2.30999 1.37728,-2.102021 3.63348,-4.120491 5.01376,-4.485531 1.38028,-0.36503 0.14738,-0.793332 -2.73948,-0.951812 l -5.24904,-0.28795 5.24904,-2.02142 c 2.88697,-1.11172 8.13398,-2.07272 11.66004,-2.13547 5.55173,-0.0986 6.607,0.40132 7.87357,3.73284 0.80444,2.115862 1.46264,4.425562 1.46264,5.132802 0,1.139711 -7.64724,4.281811 -12.46226,5.120431 -2.85483,0.49711 -11.86217,5.435141 -17.18921,9.423282 -10.207311,7.641741 -20.3205909,37.176957 -17.8798908,52.2171 0.59358,3.6578 0.3486,4.994891 -0.78608,4.29355 -1.1733801,-0.7252 -1.3593601,2.088081 -0.6456701,9.767282 0.9957501,10.7140621 0.18139,18.1792335 -1.98327,18.1792335 -0.62158,0 -0.95692,-4.8928509 -0.74526,-10.873052 0.21199,-5.9802015 0.51978,-18.4178035 0.68512,-27.6391855 0.22956,-12.808482 0.7977,-16.956983 2.40754,-17.574763 1.1590501,-0.44496 2.1073001,-1.57692 2.1073001,-2.51587 0,-0.939 -1.0123,-1.31883 -2.2495701,-0.844 -1.93402,0.74209 -2.24963,-2.098451 -2.24963,-20.246394 0,-18.147943 0.31573,-20.988484 2.24963,-20.246344 3.2304001,1.2396 2.8017101,-2.5773 -0.63927,-5.691282 -2.7873701,-2.52256 -3.0758301,-2.35954 -8.2113402,4.641632 -6.3649602,8.677282 -6.5085399,9.505702 -1.64749,9.505702 2.06212,0 3.7492801,-0.65373 3.7492801,-1.452671 0,-0.799 -1.1230001,-1.02171 -2.4955701,-0.49484 -1.6780301,0.643921 -2.1404001,0.38261 -1.41123,-0.79696 0.59642,-0.96502 2.09715,-1.75456 3.33499,-1.75456 1.9590101,0 2.1689601,5.002991 1.62033009,38.618067 -0.34690001,21.239934 -0.99404999,42.329878 -1.43861009,46.8665986 -0.50221,5.1223009 -0.3537,6.82749121 0.3911101,4.4991908 0.93225998,-2.9137805 1.23290999,-1.9327104 1.34905,4.4024908 0.11677,6.3698912 -0.54359002,8.8897818 -3.0216401,11.5274518 l -3.1711701,3.375521 3.3413301,-0.87377 c 2.9480701,-0.77094 3.1544501,-0.52431 1.7533701,2.09352 -0.8734801,1.63201 -2.6372201,3.837991 -3.9195601,4.902211 -1.2823301,1.06428 -2.3314701,2.609841 -2.3314701,3.434691 0,0.85188 0.95,0.71131 2.1991801,-0.32536 4.38656008,-3.640501 6.12967012,-0.668001 1.90453,3.24775 -4.9468101,4.584561 -5.6331301,8.132562 -1.10423,5.708801 4.11035009,-2.1998 3.80250008,0.59398 -0.37467,3.402441 -1.8559101,1.24776 -2.8845301,2.77598 -2.2858501,3.39615 0.59874,0.620111 2.1334801,0.260171 3.4106601,-0.79968 1.27712,-1.05991 2.7334101,-1.51581 3.23613009,-1.01304 0.50277001,0.50278 -1.53820009,3.085131 -4.53541009,5.738681 -7.3754999,6.529791 -6.9439799,8.707882 0.54925,2.773031 3.3256301,-2.633991 5.9989101,-6.055251 5.9989101,-7.677452 0,-2.50759 0.4829301,-2.69793 3.3743801,-1.3304 l 3.3744301,1.59584 -3.3744301,-2.47584 c -3.88277007,-2.848871 -4.47239009,-6.609211 -1.03628,-6.609211 1.28596,0 1.9498301,0.62827 1.47528,1.3961 -0.47443,0.76788 -0.23636,1.78341 0.5294201,2.25676 2.28607,1.412881 0.95091,-3.28827 -1.7959401,-6.323521 -3.50327009,-3.871031 -3.18965008,-6.308391 0.82723,-6.429181 l 3.3744401,-0.10146 -3.3744401,-1.62742 C 1.694018,19.087653 0.014288,13.446412 2.7253581,13.446412 c 0.68201,0 1.02052,-2.19334 0.75224,-4.8740905 -0.26811,-2.6808105 -0.0981,-3.8617907 0.37864,-2.6245205 0.4767,1.2372703 1.25671,3.2619206 1.73387,4.499191 0.4772701,1.23727 0.7163601,3.15927 0.5316801,4.271161 -0.18478,1.11188 0.67617,3.14005 1.91333,4.50707 1.6344401,1.806081 2.2628898,6.125252 2.2987698,15.799913 0.0283,7.322902 0.40925,13.674483 0.84961,14.114573 0.43986,0.43986 0.80014,-4.373871 0.80014,-10.697732 0,-6.323871 0.61172,-11.497982 1.35936,-11.497982 0.74759,0 1.00635,-1.34973 0.57494,-2.999431 -0.43136,-1.64969 -0.43306,-2.99948 -0.004,-2.99948 1.21335,0 11.567471,9.428501 11.567471,10.533362 0,0.54075 -1.65479,1.73698 -3.67729,2.65853 -3.118061,1.4207 -3.541031,1.32025 -2.78097,-0.66047 0.81861,-2.1332 -1.666921,-4.953671 -4.414791,-5.009791 -0.61863,-0.0113 -1.12475,5.084101 -1.12475,11.326062 0,11.076892 -0.0811,11.324192 -3.37444,10.311842 -4.5694199,-1.4046 -5.1356299,-2.11217 -2.8302798,-3.536951 1.53241,-0.94705 1.42472,-1.41372 -0.49598,-2.15088 -1.4337901,-0.55039 -2.0724301,-0.32536 -1.5369501,0.54132 0.5039101,0.81544 -0.43362,1.48259 -2.0832,1.48259 -1.6497001,0 -3.41655011,0.674871 -3.92630012,1.499721 -0.50957998,0.82484 -0.25393998,1.49971 0.56813001,1.49971 2.98242011,0 0.96553003,5.843651 -2.57340009,7.456101 -1.99727,0.910041 -3.3239301,1.962131 -2.9480701,2.337991 0.3758101,0.37581 3.4674601,-0.66177 6.8701802,-2.305741 7.4135302,-3.58184 8.4188603,-3.68386 7.2890602,-0.73954 -1.3893,3.620441 1.4769201,2.585591 4.1537598,-1.49971 1.35115,-2.06217 3.4534,-3.749331 4.67162,-3.749331 1.21829,0 2.215051,-0.67493 2.215051,-1.49977 0,-0.82485 -0.67486,-1.49971 -1.499711,-1.49971 -2.39405,0 -1.73234,-4.089041 0.820201,-5.068521 1.27599,-0.48974 2.11959,-2.042901 1.87467,-3.451641 -0.25337,-1.45697 1.02114,-3.30925 2.95566,-4.295871 5.55831,-2.83476 5.55661,-3.4047 -0.0283,-9.291371 C 11.523098,13.097132 9.3872383,10.544202 10.164358,9.7670817 c 0.4478,-0.4483601 6.94596,5.4535613 14.439701,13.1147423 7.4938,7.661122 17.17442,16.992753 21.51251,20.736874 9.16146,7.907071 9.14928,7.563511 1.09098,30.721876 -4.31373,12.397082 -4.99171,13.476032 -7.37358,11.734402 -2.80267,-2.049361 -3.07407,-1.132921 7.5854,-25.613515 2.45476,-5.637721 2.53043,-6.522141 0.55776,-6.522141 -0.82485,0 -1.49971,0.9886 -1.49971,2.19685 0,1.20825 -1.30087,2.893031 -2.89082,3.743951 -2.88561,1.54432 -7.60728,0.70729 -7.60728,-1.34859 0,-1.102261 4.59754,-3.632691 9.37328,-5.158981 4.94427,-1.580201 2.8529,-4.851761 -10.27788,-16.077833 l -4.55808,-3.896941 -4.36157,3.477771 c -3.46915,2.76623 -3.98134,3.85811 -2.50305,5.336401 1.47828,1.47828 2.79729,1.30409 6.44613,-0.85132 4.41451,-2.607751 4.66193,-2.608261 6.55898,-0.0113 2.32938,3.18557 0.0227,8.267461 -3.19475,7.033421 -1.09023,-0.41832 -1.98225,-0.0856 -1.98225,0.73914 0,0.82485 1.0123,1.88816 2.24957,2.36299 3.21907,1.235231 2.77518,3.859081 -0.8817,5.211811 -2.79667,1.03457 -2.88005,1.366901 -0.77979,3.109961 2.10588,1.74775 2.00215,2.2571 -0.99297,4.876921 l -3.34445,2.92534 3.37438,-1.63717 c 1.85591,-0.90046 3.37438,-1.19334 3.37438,-0.65089 0,0.54246 1.04092,0.12244 2.31317,-0.9335 4.42732,-3.674351 5.71577,0.59993 2.30738,7.654431 -1.71646,3.552591 -3.12078,7.344841 -3.12078,8.427192 0,2.65672 -2.20388,2.48401 -4.56211,-0.35766 -2.57742,-3.105591 -9.22591,-2.169081 -11.18549,1.57555 -5.339911,10.204022 -5.300061,10.166562 -8.110611,7.623031 -1.44281,-1.30568 -3.4137198,-2.37398 -4.3798198,-2.37398 -4.0027701,0 -1.23279,-4.572201 6.8668298,-11.334572 4.742931,-3.959791 9.053761,-7.584882 9.579721,-8.055742 1.82654,-1.63525 3.00299,-7.604841 1.49875,-7.604841 -0.82309,0 -1.71216,1.51847 -1.97574,3.374381 -0.4835,3.40487 -4.978441,4.87176 -4.978441,1.62469 0,-0.9623 -0.61438,-2.312091 -1.36526,-2.999481 -0.79316,-0.7261 -0.91322,-0.46423 -0.28625,0.62493 1.695441,2.946141 -0.9042,2.212501 -7.1152097,-2.00799 -8.0543302,-5.473051 -8.99498027,-2.906521 -1.3563101,3.700481 3.5055998,3.03219 6.3738598,5.928561 6.3738598,6.436441 0,2.64215 -5.3729497,2.33079 -10.4776899,-0.60713 l -5.7870201,-3.330571 -5.7401502,3.058491 c -5.3460298,2.84854 -12.4889608,3.3181 -12.4889608,0.82105 0,-0.60169 2.681381,-2.748091 5.958601,-4.769851 3.27723,-2.0217 5.9767398,-4.221841 5.9989098,-4.889171 0.0453,-1.31283 -1.5208,-0.55832 -7.6898098,3.708811 -5.451461,3.77076 -8.534261,3.45271 -9.650741,-0.99575 -0.51752,-2.062171 -1.61495,-3.749331 -2.43861,-3.749331 -0.82371,0 -1.08032,1.08745 -0.57028,2.41655 0.64312,1.675941 0.27774,2.167271 -1.19267,1.603051 -5.84413,-2.242601 -2.55701,1.86457 8.69876,10.868852 l 12.5008108,10.000311 -3.4859298,4.052651 c -4.31491,5.016361 -4.83458,5.023791 -6.70834,0.0952 -0.827511,-2.17656 -1.929771,-3.53213 -2.449431,-3.01246 -0.51978,0.51978 -2.0017,0.10713 -3.29333,-0.916841 -1.29168,-1.02392 0.16495,1.244811 3.23636,5.041591 6.006331,7.424192 6.906451,9.672002 3.322291,8.296592 -4.273991,-1.64006 -9.382131,1.681952 -11.239341,7.309352 -1.75042,5.30386 -1.95317,5.42216 -7.64562,4.46042 -6.57668,-1.11115 -7.13228,-0.0601 -3.59018,6.78935 2.07301,4.00872 2.01133,4.80329 -0.75495,9.72846 l -3.01229,5.36315 4.26316,10.0685 c 2.34474,5.53774 5.25277,10.2615 6.46232,10.49731 1.20955,0.2358 3.78335,-0.94525 5.71963,-2.62453 4.31055,-3.73856 6.79456,-3.75194 13.559641,-0.0731 l 5.2490498,2.85432 -5.5842098,-0.85733 c -3.6345,-0.55776 -7.378961,-0.006 -10.724771,1.58196 -2.82728,1.34168 -6.38951,2.43934 -7.91597,2.43934 -2.9862,0 -7.77033,-7.89256 -11.78409,-19.44071 -2.20678,-6.34921 -2.16976,-6.90464 0.72043,-10.81382 l 3.04664,-4.12078 -3.14702,-8.41126 c -1.73092,-4.62616 -3.45816,-8.10014 -3.83833,-7.71996 -0.38034,0.38034 0.3605,3.20869 1.64624,6.2856 2.92653,7.00417 2.94529,10.40474 0.0816,14.77554 -2.03179,3.10095 -1.97636,4.2507 0.55776,11.57015 6.38673,18.44632 11.15678,22.31616 21.14252,17.15236 4.14192,-2.14187 18.4709209,-2.67298 17.2132408,-0.63807 -1.10605,1.7897 8.2103302,2.81588 11.6896803,1.2876 3.1936201,-1.40273 3.1506001,-1.45669 -0.73086,-0.9165 -6.5681202,0.91406 -4.71527012,-0.89752 6.2781199,-6.13812 7.62213,-3.63359 10.700561,-6.00599 12.063781,-9.2971 1.00669,-2.43034 1.50561,-5.29661 1.10883,-6.36962 -0.43702,-1.18166 -1.34944,-0.37524 -2.31407,2.04506 -1.53378,3.84837 -6.511661,6.72354 -10.363931,5.9861 -1.0179097,-0.19499 -1.5600198,0.51638 -1.2047897,1.58066 0.3553997,1.06421 -1.2795601,3.45237 -3.6328501,5.30709 L 1.766618,151.41985 0.72235802,143.82742 C 0.148048,139.65155 -0.083842,136.03988 0.20710801,135.80153 c 0.29079,-0.23863 5.08427009,-2.95277 10.65204999,-6.032 9.472991,-5.23896 10.123141,-5.39762 10.123141,-2.47001 0,1.72072 0.72038,3.12855 1.60083,3.12855 0.91826,0 1.19487,-1.27882 0.64879,-2.99948 -0.52375,-1.6497 -0.40018,-3.05571 0.27378,-3.12441 0.67424,-0.0686 2.9131,-0.32423 4.97521,-0.56825 4.12605,-0.48803 8.99839,2.93339 8.99839,6.31826 0,3.32382 -4.91003,10.87198 -7.07214,10.87198 -1.05945,0 -1.92625,1.39525 -1.92625,3.10055 0,2.41803 -0.66024,2.89093 -2.99948,2.1485 -4.76458,-1.51224 -3.52334,1.97432 1.87467,5.26549 6.00939,3.66402 7.56295,3.7495 6.51398,0.3588 -0.70026,-2.26374 4.36604,-11.74807 9.57842,-17.93108 1.72315,-2.04398 -1.07527,-9.85997 -3.08541,-8.61765 -0.64726,0.40018 -1.60072,0.0397 -2.1188,-0.7969 -0.51808,-0.83828 -0.14454,-1.52414 0.82989,-1.52414 1.36095,0 1.3618,-0.49428 0.004,-2.13065 -1.3961,-1.68218 -0.77763,-4.24934 2.93849,-12.19762 2.7104,-5.79717 4.36689,-11.366642 3.9055,-13.130953 -0.44043,-1.68517 0.17571,-4.80091 1.36951,-6.923911 3.5455,-6.304701 11.035791,-35.196066 9.535281,-36.779107 -2.278311,-2.40357 -1.507191,-6.004401 1.71698,-8.017941 1.68716,-1.05362 5.06154,-5.059951 7.49867,-8.902932 l 4.43117,-6.987171 9.6e-4,-69.068933 9.1e-4,-69.068942 -7.38757,0.51241 c -4.06319,0.28171 -8.619071,-0.20406 -10.124101,-1.07918 -2.12963,-1.23841 -0.51072,-1.60146 7.298461,-1.63694 l 10.035,-0.0453 0.4631,-18.12249 c 0.40755,-15.93534 0.12924,-18.48011 -2.30325,-21.08582 -2.98859,-3.20132 -0.63535,-3.16522 -106.107213,-1.62781 z m 103.737703,4.97425 c 2.03129,3.20892 1.67946,11.84765 -0.48803,11.98455 -1.49977,0.0947 -1.49977,0.26981 0,0.87484 1.21885,0.49201 1.87466,4.03298 1.87466,10.1228 v 9.36631 l -22.870911,0.24941 -22.87086,0.2494 0.50561,-9.36586 c 0.34293,-6.34631 1.37501,-10.33292 3.20201,-12.36535 4.00803,-4.45872 5.30607,-9.74823 2.39224,-9.74823 -1.4924,0 -2.35069,1.33657 -2.35069,3.66079 0,2.01343 -0.67487,4.07793 -1.49972,4.58768 -0.87495,0.54075 -1.49971,-0.98424 -1.49971,-3.6608 0,-2.52323 -0.67492,-4.58767 -1.49977,-4.58767 -0.82484,0 -1.49971,1.66601 -1.49971,3.70223 0,2.73545 -0.60996,3.46819 -2.335781,2.80591 -1.28466,-0.49314 -1.98905,-1.79991 -1.56524,-2.90437 0.42399,-1.10441 0.12017,-2.40981 -0.67424,-2.90097 -2.3003,-1.42166 -3.31888,3.25456 -1.46389,6.72065 0.92977,1.73727 2.43577,2.69804 3.34667,2.13507 0.96162,-0.59432 1.23432,-0.34123 0.65015,0.60424 -0.55323,0.89531 -0.29815,2.06552 0.56773,2.6005 0.895021,0.55322 1.390711,4.79847 1.149301,9.84273 l -0.424551,8.87005 -43.623371,0.0113 -43.623295,0.0113 -0.117334,-15.37224 c -0.08899,-11.63958 0.425688,-15.97774 2.119598,-17.86573 2.03015,-2.26277 8.20386,-2.45867 66.74780201,-2.11783 53.63003099,0.31232 64.73684199,0.73279 65.85139199,2.49341 z m -82.598362,16.36533 c 0,17.69 1.46605,18.8151 7.7399798,5.9399 4.7733601,-9.79574 6.5641401,-20.93719 3.3653101,-20.93719 -1.4885501,0 -2.1069001,1.92698 -2.1069001,6.56561 0,6.20768 -3.4979498,17.43007 -5.4328698,17.43007 -0.49144,0 -0.65106,-5.16907 -0.35484,-11.48687 0.38715,-8.25013 0.0113,-11.666 -1.33601,-12.12281 -1.41848,-0.48123 -1.87467,3.07408 -1.87467,14.61129 z m 17.93159,-14.24744 c -0.64635998,7.43264 0.13207,27.70636 1.0595701,27.59696 2.77892,-0.32762 8.6666199,-5.68817 7.5138602,-6.84092 -0.6790001,-0.67901 -1.8923501,-0.059 -2.6963401,1.3775 -2.8763101,5.13965 -3.7989301,2.41933 -3.4376901,-10.13572 0.20179,-7.01121 -0.24998,-12.74767 -1.00374,-12.74767 -0.75377,0 -1.3998401,0.33726 -1.4356601,0.74985 z m 47.899401,34.40104 c -1.50221,1.50221 -23.66266,2.30229 -26.98353,0.97421 -2.66834,-1.06711 0.45119,-1.46587 12.01844,-1.53621 8.59219,-0.051 15.3265,0.20065 14.96509,0.56229 z m -33.426321,6.21436 c -0.50051,1.30472 -0.91032,2.91973 -0.91032,3.58887 0,0.66914 -1.0123,1.60508 -2.24957,2.079862 -1.68835,0.64788 -2.24962,-0.247712 -2.24962,-3.588872 0,-3.52765 0.65616,-4.45215 3.15989,-4.45215 2.26532,0 2.90221,0.67164 2.24962,2.37229 z m 52.567792,36.995687 c -0.20462,33.888237 -0.55095,39.367928 -2.48729,39.367928 -1.89054,0 -2.28216,-3.590121 -2.45368,-22.495965 -0.37751,-41.629057 -0.53339,-45.083978 -1.93237,-42.874037 -1.13292,1.78971 -1.72798,1.73053 -3.84037,-0.38204 -2.112401,-2.112391 -2.231661,-3.311971 -0.76964,-7.741843 1.51621,-4.59425 2.34746,-5.24219 6.72552,-5.24219 h 4.99545 z M 20.982719,-96.034288 c 0,0.824841 -1.05214,1.499711 -2.338101,1.499711 -1.28597,0 -1.92098,-0.67487 -1.41118,-1.499711 0.50958,-0.82485 1.561891,-1.49971 2.338111,-1.49971 0.77615,0 1.41117,0.67486 1.41117,1.49971 z m 35.734041,30.743976 -0.490301,29.244275 -7.07662,5.1e-4 c -5.67433,4e-4 -6.9056,-0.44553 -6.21344,-2.24912 0.475,-1.23727 0.1162,-2.24962 -0.79691,-2.24962 -0.9131,0 -1.66018,1.01235 -1.66018,2.24962 0,1.82133 -2.64107,2.29237 -13.87253,2.47432 -7.62989,0.12357 -11.847881,0.48974 -9.373281,0.814301 2.474541,0.32423 5.511491,0.97818 6.748761,1.45307 3.23097,1.23999 25.48886,2.02742 30.36953,1.07436 l 4.124291,-0.80535 v -14.128283 c 0,-7.770531 0.50618,-14.128292 1.12476,-14.128292 0.61869,-5e-5 0.88283,8.171781 0.58712,18.159513 -0.458,15.476483 -0.96406,18.585983 -3.42347,21.045394 -1.587171,1.58717 -4.382141,2.75869 -6.211071,2.60344 -5.70217,-0.48407 -10.07411,0.13207 -10.07411,1.420011 0,0.67974 4.38668,1.0755 9.74824,0.87949 10.181071,-0.3724 11.359681,0.12527 7.311681,3.08496 -1.676281,1.225761 -9.046111,1.655361 -23.620721,1.376881 -19.741971,-0.37694 -20.724731,-0.26754 -14.43544,1.61087 l 6.74881,2.0155802 -7.573661,0.1473701 c -4.1655,0.0811 -8.38349,-0.6625602 -9.3733398,-1.6524103 -2.18297,-2.18297 -2.37297,-8.167082 -0.29985,-9.448282 0.8248401,-0.50958 1.4997098,-2.26385 1.4997098,-3.8979 0,-2.585811 0.87495,-2.914631 6.74757,-2.536041 3.711191,0.2392 6.748131,0.91338 6.748811,1.49812 6.3e-4,0.58469 -3.37319,2.261531 -7.497481,3.726381 -7.5542698,2.683021 -8.9842098,4.970061 -5.91342,9.457912 1.36832,1.9996 1.51263,1.9996 1.29911,0 -0.6298,-5.897841 -0.13547,-6.176201 9.113501,-5.129841 7.32596,0.82887 8.99839,0.61421 8.99839,-1.1548 0,-2.811401 6.78747,-8.712702 10.02111,-8.712702 2.06025,0 1.8805,0.65899 -1.02273,3.749341 -1.93724,2.06211 -4.58569,3.76985 -5.88537,3.79496 -1.96978,0.0397 -1.92058,0.30325 0.29532,1.593301 2.1519,1.2528 3.6392,0.53791 7.80363,-3.750191 4.53915,-4.674061 5.85974,-5.226891 11.21388,-4.694241 5.449201,0.54189 6.056721,0.26981 5.950441,-2.66919 -0.0652,-1.800181 -0.45856,-2.429421 -0.87484,-1.398361 -0.55889,1.385331 -6.758791,1.874671 -23.751771,1.874671 H 10.735618 l 0.4903,-14.291483 c 0.41265,-12.025182 1.13099,-15.517013 4.53145,-22.020224 5.960241,-11.398782 9.303841,-15.390043 16.085761,-19.201733 4.66051,-2.619361 21.35823,-9.577282 24.873691,-10.364892 0.26981,-0.0607 0.26981,13.050072 0,29.134425 z m -67.228382,30.561356 c 0,1.89042 -4.40238,5.279481 -5.47057,4.21136 -1.53581,-1.53582 0.75627,-5.527481 3.1739,-5.527481 1.26317,0 2.29667,0.59228 2.29667,1.316121 z m 4.4991898,-0.30949 c 0,0.55379 -1.12062,2.24503 -2.49036,3.75852 -1.3696801,1.513491 -2.0078698,3.234261 -1.4181401,3.823991 0.5896701,0.58967 1.7352801,0.0793 2.5457301,-1.134 1.09948,-1.646061 1.3643,-1.06393 1.04325,2.29299 -0.36787,3.847171 -1.19107,4.633641 -5.6793798,5.426581 -2.88697,0.51014 -4.3228,1.0162 -3.19079,1.12481 1.67305,0.16041 1.70321,0.62532 0.16155,2.483271 -2.20643,2.65853 -2.83567,2.30239 -3.68018,-2.082921 -0.338971,-1.7613 0.0595,-3.20241 0.88538,-3.20241 0.82621,0 1.07674,-0.68835 0.55662,-1.52964 -0.51978,-0.841341 1.29617,-3.782661 4.03576,-6.536312 4.9371798,-4.962461 7.2307298,-6.366041 7.2307298,-4.42488 z m 37.4933012,9.508931 c 0,1.780171 -5.11595,5.588521 -8.99838,6.698482 -3.6816,1.05254 -3.66805,0.99382 0.74986,-3.248941 4.22394,-4.056561 8.24852,-5.739641 8.24852,-3.449541 z m 36.775361,9.268702 c -0.70621,9.6859417 -2.15094,13.1107724 -5.56273,13.1867824 -0.56739,0.0113 -0.92993,-1.3268303 -0.80569,-2.9765206 0.12414,-1.6496903 0.92592,-2.9985705 1.78149,-2.9975505 1.99438,0.003 2.0442,-12.3830823 0.0567,-13.8744123 -1.45114,-1.08836 1.55141,-4.049641 4.15853,-4.101331 0.63745,-0.0113 0.80512,4.830731 0.3724,10.763032 z m -8.28049,4.961211 c 0,1.24974 -1.33307,2.2495703 -2.99948,2.2495703 -2.707341,0 -3.016721,1.0590002 -3.176901,10.873052 -0.13377,8.1813017 -0.46083,9.7592417 -1.3223,6.3738611 -0.62963,-2.4745404 -1.22468,-7.70488136 -1.32229,-11.6229121 -0.16551,-6.6461013 0.0737,-7.1237113 3.57192,-7.1237113 2.062121,0 3.749331,-0.67487 3.749331,-1.49971 0,-0.82485 0.33727,-1.499771 0.74986,-1.499771 0.41265,0 0.74986,1.012351 0.74986,2.249621 z m -26.786221,1.8471202 c -4.68228,0.5734601 -4.97771,0.9290902 -4.16176,5.0090609 0.48293,2.4154705 0.37354,4.39177084 -0.2426,4.39177084 -1.67078,0 -7.121,10.73175206 -6.61165,13.01872206 0.60169,2.701451 -1.89479,2.494611 -4.257951,-0.35256 -3.3945,-4.0901705 -7.39982,-5.5601308 -9.7761798,-3.5879104 -1.40607,1.1669304 -2.15372,1.2326304 -2.15372,0.18932 0,-0.8790301 1.38017,-2.5650004 3.06705,-3.7465607 C 11.634828,3.6607906 11.753408,3.1805205 9.8025583,2.4319604 6.2372782,1.0638101 7.0569082,-1.5508503 11.051108,-1.5508503 c 1.96111,0 4.39019,-0.9934802 5.39796,-2.2077904 1.60497,-1.9338504 2.13949,-1.9005704 4.307881,0.26754 2.30098,2.3010404 2.51009,2.2967904 2.96406,-0.0601 0.26867,-1.3946803 1.11223,-2.1502604 1.87467,-1.6790603 0.76243,0.4710401 1.38623,-0.5328201 1.38623,-2.2312604 0,-2.6111406 0.86838,-3.0508906 5.62395,-2.8479606 l 5.624,0.24033 z m 12.91368,-0.0227 c -4.06233,0.6154001 -5.09249,3.1764406 -4.39393,10.923672 0.11167,1.2372702 0.30722,5.518801 0.43533,9.5145418 0.1332,4.153591 0.73126,6.458091 1.397,5.380891 0.79152,-1.28069 1.36373,-0.72554 1.78664,1.73341 0.54755,3.184831 0.76635,3.293781 1.82785,0.91089 0.77536,-1.74061 0.2443,-4.49171 -1.48787,-7.708221 -2.62118,-4.8672409 -2.61143,-5.1312709 0.36334,-9.8293018 l 3.05667,-4.8277309 0.80648,6.5370012 c 0.79549,6.4484512 0.52488,12.4902625 -0.97551,21.7823245 -0.53168,3.29361 -0.10429,5.00123 1.3957,5.576901 1.7282,0.66319 2.20332,-1.042621 2.36656,-8.496512 0.11223,-5.129391 0.51468,-7.639021 0.89355,-5.576901 0.37921,2.06211 1.41038,4.626891 2.29162,5.699501 2.077881,2.5289 2.320201,12.642572 0.31913,13.310242 -0.92161,0.30722 -1.4254,-2.05248 -1.25388,-5.873461 0.19045,-4.24713 0.034,-4.879881 -0.4665,-1.88828 -0.96865,5.783851 -3.05832,8.240142 -7.04561,8.281862 -3.06857,0.034 -3.0472,0.14568 0.55833,2.96609 2.06217,1.61303 3.19815,2.947791 2.52448,2.966101 -0.67368,0.017 -3.4369,-1.653831 -6.1405,-3.715951 -2.7036,-2.06212 -5.32092,-3.749341 -5.81633,-3.749341 -0.4954,0 -3.95923,-3.20569 -7.69729,-7.123711 -5.57899,-5.847621 -6.76247,-8.064032 -6.60654,-12.372772 0.16268,-4.493411 0.28001,-4.655351 0.8147,-1.124811 0.3435,2.268331 1.18167,4.124241 1.86231,4.124241 0.68065,0 1.66098,1.687221 2.17855,3.749331 0.51751,2.06212 1.60304,3.749341 2.41219,3.749341 1.91038,0 1.91871,-4.096121 0.0113,-4.749161 -0.80381,-0.27491 -1.0645,-2.010771 -0.57935,-3.857431 0.4852,-1.84661 1.45074,-3.006061 2.14578,-2.57652 0.6951,0.42966 0.88357,1.77174 0.41889,2.98259 -0.4648,1.21092 -0.25508,2.20162 0.46593,2.20162 0.72078,0 1.48078,-3.8372 1.6888,-8.527131 0.20803,-4.6898709 0.75337,-8.9021917 1.21182,-9.3607018 1.57902,-1.57895026 0.19499,21.6401138 -1.41066,23.6690148 -1.2316,1.55611 -0.39338,3.02822 3.58014,6.287251 5.12043,4.19974 5.19497,4.21238 5.70682,0.96757 0.28511,-1.80829 1.22502,-4.147701 2.08842,-5.198651 0.86333,-1.05101 1.09941,-2.381241 0.52431,-2.956061 -0.57482,-0.57482 -1.67299,-0.051 -2.44036,1.161031 -1.20468,1.90493 -1.39836,1.90924 -1.41815,0.034 -0.017,-1.691361 -0.42285,-1.774681 -1.82269,-0.37467 -0.98979,0.98985 -2.8457,1.77915 -4.12423,1.7541 -2.01235,-0.0397 -1.99461,-0.23864 0.13207,-1.48033 2.0259,-1.183141 2.35687,-3.475051 1.8877,-13.072623 -0.31288,-6.400901 -1.24962,-11.86494197 -2.08167,-12.14229202 -0.83204,-0.27718005 -1.5128,-1.50017028 -1.5128,-2.71743048 0,-1.2172102 0.67486,-1.7959903 1.49971,-1.2862402 0.85058,0.52544 1.49971,-0.7342702 1.49971,-2.9109506 0,-3.4749307 0.53168,-3.8165607 5.624,-3.6131207 4.52385,0.18081 4.81724,0.3468901 1.49971,0.8495002 z m 0.37468,40.8768178 c 0,2.03298 2.66516,3.29542 3.6371,1.72281 0.4648,-0.75189 -0.16381,-1.75404 -1.39609,-2.22701 -1.23257,-0.47273 -2.24101,-0.246 -2.24101,0.50391 z M 68.67047,6.2605711 C 68.26349,14.745013 67.89103,15.664013 64.47464,16.609193 l -3.74933,1.03735 3.9115,0.14965 c 3.56393,0.13603 3.88294,0.65655 3.58961,5.855431 -0.32876,5.822171 -6.79774,17.411183 -10.51573,18.837894 -1.10831,0.42512 -2.908051,-0.32536 -3.999421,-1.667951 -1.71527,-2.11024 -1.62192,-2.3054 0.68819,-1.43923 3.609041,1.35313 5.575991,-4.083711 5.575991,-15.412723 0,-9.616901 -1.08116,-13.958292 -3.1566,-12.675612 -0.738411,0.45629 -1.241471,-2.0782804 -1.117901,-5.632571 0.15531,-4.4677308 0.41775,-5.18941097 0.849511,-2.3381004 0.70133,4.6296208 3.42499,5.669571 3.42499,1.3076702 0,-2.5708505 5.0603,-7.4132014 7.94516,-7.6029114 0.65798,-0.0454 0.99541,4.1114208 0.74986,9.2326517 z M 33.397539,10.022942 c -0.40585,1.05799 -1.34083,1.92364 -2.07742,1.92364 -0.73659,0 -1.40834,1.51848 -1.4928,3.374381 -0.10486,2.30319 -0.55265,1.70808 -1.41038,-1.874661 -0.69124,-2.88697 -0.8894,-6.7556208 -0.44042,-8.5970212 l 0.8164,-3.3479106 2.6714,3.2990006 c 1.46922,1.8144104 2.33918,4.1645908 1.93317,5.2225712 z m -20.435431,7.626831 c 0.57737,3.783411 -1.70586,4.470461 -3.0671497,0.92297 -1.3976301,-3.64215 -1.0884301,-5.435761 0.8269397,-4.797291 0.95556,0.318561 1.9636,2.061951 2.24021,3.874321 z m 18.518481,19.608604 c 0,1.9178 -4.4098,5.272181 -5.49902,4.182901 -1.08927,-1.089211 2.2651,-5.499021 4.1829,-5.499021 0.72384,0 1.31612,0.59228 1.31612,1.31612 z m 11.43648,12.980802 c -0.46423,1.21006 -2.33284,2.200141 -4.15218,2.200141 h -3.30795 l 3.60604,-3.838501 c 3.49676,-3.722131 5.57248,-2.839691 3.85409,1.63836 z M 4.6289581,73.009033 c 5.3329402,3.150261 5.4541799,4.489501 0.60633,6.698312 -4.78169009,2.17872 -4.71316009,3.0242 0.7498601,9.246261 2.47454,2.818381 4.4991898,5.568681 4.4991898,6.111811 0,2.848651 -6.6448599,9.543113 -8.81603,8.881913 -1.33759999,-0.40755 1.2397101,2.68404 5.7272802,6.86972 9.0173698,8.41086 15.6771908,10.69512 11.1826498,3.83555 -2.26669,-3.45941 -2.26958,-3.69663 -0.034,-2.83902 1.767481,0.67827 2.438771,0.0822 2.438771,-2.16624 0,-2.35007 -1.45425,-3.4937 -5.998901,-4.71742 -8.3341698,-2.24418 -7.5012798,-4.60746 1.51139,-4.2885 4.130701,0.14624 7.222801,0.55322 6.871251,0.90494 -0.35143,0.35143 0.0828,2.70955 0.96485,5.24009 1.35648,3.8911 1.17764,4.91275 -1.15893,6.62128 -2.665,1.9487 -2.65978,2.01898 0.14851,1.98446 1.60117,-0.0227 5.44199,-0.62345 8.53517,-1.34179 6.01557,-1.39689 6.74258,-0.72543 3.70796,3.42466 -1.18342,1.6184 -5.05412,3.04766 -10.1232,3.738 -5.72507,0.77967 -10.695631,2.79525 -16.4356108,6.66469 -4.5256601,3.05084 -8.9214102,5.54703 -9.76825022,5.54703 -0.84689998,0 -5.12185018,-2.4123 -9.49984998,-5.36065 -4.37807,-2.94836 -10.442951,-5.69157 -13.477571,-6.09606 -9.68612,-1.29112 -12.40885,-2.09652 -11.58633,-3.42744 0.44156,-0.71425 -0.20575,-1.68557 -1.43838,-2.15853 -3.52084,-1.35109 -2.62084,-3.57861 1.44581,-3.57861 2.02775,0 3.54622,0.68269 3.37441,1.51717 -0.81475,3.95612 15.508571,4.62781 17.913111,0.7371 0.64199,-1.03871 0.12697,-1.29911 -1.40613,-0.71085 -1.71879,0.65956 -2.17163,0.28284 -1.56399,-1.30036 0.96032,-2.50255 8.1586798,-6.61692 11.5767099,-6.61692 1.22956,0 2.64788,-0.66715 3.15184,-1.48253 0.5118501,-0.82791 -0.0453,-1.11388 -1.25954,-0.64766 -1.19669,0.45913 -2.5821301,0.17742 -3.0788401,-0.62618 -0.58003,-0.93855 -2.9139501,-0.87761 -6.5255398,0.17062 -7.201941,2.08989 -9.371811,3.77286 -9.371811,7.26882 0,1.58956 -1.05237,2.81577 -2.4165,2.81577 -1.97936,0 -2.2265,-1.01739 -1.366,-5.62394 0.57777,-3.09318 1.25343,-5.83084 1.50136,-6.08365 0.55095,-0.56172 7.677561,-1.52879 12.779231,-1.73432 3.4416698,-0.13887 3.5339498,-0.31459 1.12482,-2.143342 -1.44349,-1.09574 -2.62453,-2.452951 -2.62453,-3.015981 0,-0.56286 3.20501,-4.5379 7.1222998,-8.833041 3.9172901,-4.295131 5.48848018,-6.459621 3.4915401,-4.809871 -1.99693,1.6497 -3.0909101,2.08037 -2.43101,0.95709 0.72186,-1.22877 0.37638,-2.62929 -0.8670101,-3.515861 -1.60004,-1.14074 -1.47404,-1.28284 0.55775,-0.62923 1.4434901,0.46423 2.6245301,0.11393 2.6245301,-0.77866 0,-0.95686 1.8816901,-1.34666 4.5853501,-0.94988 4.5282702,0.6646 4.5493502,0.63694 1.6940201,-2.21834 -2.74832009,-2.748381 -3.1303601,-2.767761 -7.7241602,-0.392241 -5.9935199,3.099351 -7.9284999,1.885211 -2.0621701,-1.29396 5.4372302,-2.94659 5.92465018,-2.94024 11.1491503,0.14624 z m -8.4003802,37.928977 c -1.49756,1.65474 -2.2928701,3.43854 -1.76748,3.96399 0.52545,0.52545 1.38085,-0.15361 1.90097,-1.50895 0.52034,-1.35529 1.8857201,-2.46423 3.03473008,-2.46423 1.14902003,0 2.08916002,-0.67486 2.08916002,-1.49971 0,-2.40454 -2.31776002,-1.73931 -5.2573801,1.5089 z m 2.7379401,11.98862 c 0,5.36156 0.27207998,7.5549 0.60486999,4.87415 0.33272001,-2.68075 0.33272001,-7.06749 0,-9.74824 -0.33273001,-2.68081 -0.60486999,-0.48747 -0.60486999,4.87409 z M 37.199139,93.059477 c 4.15382,3.215271 4.80392,4.502311 3.96428,7.847843 -0.55266,2.20104 -1.67963,3.58456 -2.50487,3.07453 -0.90222,-0.55776 -1.13859,0.21256 -0.59279,1.93231 0.69516,2.19022 -0.1315,3.25172 -3.53116,4.53501 -5.21493,1.96837 -7.46937,0.18592 -8.17864,-6.46659 -0.33726,-3.16108 -1.4958,-4.454072 -4.7838,-5.337702 -2.38645,-0.64136 -5.520041,-0.7939 -6.963581,-0.33896 -4.35063,1.37121 -2.99415,-1.55878 4.10179,-8.859852 l 6.726371,-6.920741 3.39682,3.344061 c 1.86827,1.83924 5.63279,5.074801 8.36558,7.190091 z m -59.333952,31.199253 c 2.78244,0.1128 4.124291,0.9809 4.124291,2.66721 0,1.37472 0.45119,2.04817 1.00306,1.49648 0.55152,-0.55152 2.23891,0.11506 3.74933,1.4822 1.51043,1.3669 2.74623,2.10417 2.74623,1.6383 0,-0.46594 2.0246498,0.92959 4.4991898,3.101 3.9320201,3.45028 4.4991902,4.94574 4.4991902,11.86251 0,4.35301 -0.31402,7.91455 -0.6977701,7.91455 -0.38374,0 -3.8903001,-2.02459 -7.7922799,-4.49919 -8.15183,-5.16975 -7.63058,-5.89829 1.0511798,-1.46921 3.26651,1.66647 5.9391601,2.76095 5.9391601,2.43219 0,-0.32875 -3.7922501,-3.20948 -8.4271899,-6.40174 -8.749101,-6.02572 -11.820511,-10.828 -10.196941,-15.94333 0.66766,-2.10378 0.41435,-2.65894 -0.8554,-1.87422 -1.6828,1.04002 -1.10662,11.17308 0.93838,16.50217 0.39281,1.02346 -0.63978,2.21482 -2.29446,2.64753 -2.24209,0.58633 -4.26946,-0.82909 -7.95843,-5.55626 -2.72239,-3.48867 -5.81035,-6.1667 -6.86204,-5.95119 -1.05169,0.21539 -1.22038,0.051 -0.37468,-0.37071 0.84543,-0.41945 1.53718,-2.09573 1.53718,-3.72535 0,-1.7846 0.66036,-2.55487 1.66041,-1.9368 1.11654,0.69006 1.33012,-0.017 0.65208,-2.15082 -0.90931,-2.86503 -0.52035,-3.12084 3.96357,-2.60508 2.73455,0.31458 6.82783,0.64743 9.09616,0.73959 z m -52.287533,-248.7876 c 0,10.31064 0.239768,14.52863 0.532251,9.37328 0.293049,-5.15529 0.293049,-13.59127 0,-18.74662 -0.29305,-5.15531 -0.532251,-0.93731 -0.532251,9.37334 z M 73.83404,-46.858049 c -0.3384,72.114224 -0.53849,77.268615 -3.20087,82.485185 -1.56195,3.060301 -4.26147,6.849882 -5.99896,8.421182 -2.45046,2.21613 -3.15905,4.628091 -3.15905,10.752772 0,5.665051 -2.54222,15.487093 -8.998381,34.765516 -4.94908,14.778374 -8.99838,28.209864 -8.99838,29.847764 0,1.63791 1.04483,6.04437 2.32183,9.79211 l 2.32184,6.81418 -6.23867,9.95004 c -3.43129,5.47254 -7.2025,9.95008 -8.38048,9.95008 -1.17804,0 -4.64578,-1.2583 -7.70608,-2.79621 -4.94557,-2.48531 -6.23124,-2.57533 -11.563161,-0.80955 l -5.9989098,1.98673 6.5286098,-0.8482 c 4.510871,-0.58604 8.309911,-0.0453 12.292161,1.75076 3.16987,1.42943 6.72308,2.23075 7.89596,1.78069 3.15802,-1.21188 14.7226,-19.44762 13.99004,-22.06048 -4.95379,-17.66846 -5.38424,-13.78376 4.89636,-44.188153 C 59.2269,74.798764 63.61528,59.012451 64.07928,53.89502 c 0.44666,-4.924881 1.38176,-8.954342 2.0781,-8.954342 0.69641,0 2.97092,-3.36407 5.0544,-7.475661 L 75,29.989295 74.59756,-46.894889 74.19511,-123.77902 Z M -59.253084,-105.43478 c -1.64975,0.41208 -3.49534,1.5149 -4.10134,2.45056 -0.77536,1.19708 -1.1086,1.11948 -1.12481,-0.26187 -0.0113,-1.07975 -0.69782,-1.54608 -1.52267,-1.03628 -3.359638,2.0764 -1.43566,5.249052 3.18308,5.249052 3.9925,0 4.40759,-0.33159 2.81583,-2.249572 -1.55696,-1.87603 -1.35308,-2.24962 1.22758,-2.24962 1.70206,0 3.511721,-0.67487 4.021521,-1.49971 0.97296,-1.57437 0.39735,-1.62583 -4.499191,-0.40245 z m 40.867602,1.72922 c -3.918021,1.2108 -7.123711,2.75733 -7.123711,3.43678 0,1.544272 3.61313,1.622262 5.12185,0.11053 0.61739,-0.61869 3.598111,-1.82263 6.623831,-2.67553 3.02567,-0.85285 4.8263598,-1.89326 4.0015197,-2.31192 -0.8249097,-0.41889 -4.7054097,0.22956 -8.6234897,1.44014 z m -34.107111,7.015392 c 4.17882,5.183751 7.25159,7.923852 10.74779,9.584312 l 3.48791,1.65661 -3.37438,-2.47584 c -4.04046,-2.964511 -4.34836,-5.087161 -0.74985,-5.169521 1.97335,-0.0453 1.6943,-0.55719 -1.12482,-2.06263 -2.06211,-1.101461 -5.43122,-2.521531 -7.48688,-3.155761 -3.48644,-1.07566 -3.58722,-0.96661 -1.49977,1.62283 z m -14.026031,4.207501 c -1.411055,5.375791 -1.10605,5.657511 4.34145,4.009851 4.16743,-1.26051 4.23289,-1.39689 1.12974,-2.353921 -1.81175,-0.55889 -3.52992,-2.1277 -3.81815,-3.48655 -0.33669,-1.587861 -0.92738,-0.93385 -1.65304,1.83062 z m 102.123453,-2.55809 c 1.03105,0.41605 2.71827,0.41605 3.74933,0 1.03106,-0.416051 0.18762,-0.756491 -1.87467,-0.756491 -2.06211,0 -2.90572,0.34067 -1.87466,0.756491 z m -110.368292,3.50594 c 0,2.062121 0.340663,2.905731 0.756431,1.874671 0.416051,-1.031061 0.416051,-2.718281 0,-3.749341 -0.416051,-1.03105 -0.756431,-0.18762 -0.756431,1.87467 z m 19.25966,0.0884 c 0,0.87348 0.67492,1.17112 1.49977,0.66131 0.82485,-0.50957 1.49971,-1.22451 1.49971,-1.58825 0,-0.3639 -0.67486,-0.66131 -1.49971,-0.66131 -0.82485,0 -1.49977,0.71471 -1.49977,1.58825 z m 27.74504,4.410651 c 1.49291,1.64969 3.05191,2.999481 3.46434,2.999481 0.41265,0 -0.4716,-1.349791 -1.96463,-2.999481 -1.49296,-1.64969 -3.05191,-2.999481 -3.46433,-2.999481 -0.41265,0 0.4716,1.349791 1.96462,2.999481 z m -28.33443,0.87252 c -1.408171,3.669641 -1.102361,4.032971 1.3393,1.59131 2.54959,-2.54959 2.87433,-3.96354 0.91027,-3.96354 -0.73659,0 -1.74889,1.0675 -2.24957,2.37223 z m 9.58777,0.62719 c 0,0.82485 1.05215,1.499771 2.33811,1.499771 1.28596,0 1.92103,-0.674921 1.41123,-1.499771 -0.50958,-0.82484 -1.56195,-1.49971 -2.33811,-1.49971 -0.77615,0 -1.41123,0.67487 -1.41123,1.49971 z m -27.990668,11.997873 c 0,6.186411 0.264709,8.717181 0.588311,5.624001 0.323658,-3.093231 0.323658,-8.154772 0,-11.248013 -0.323659,-3.09317 -0.588311,-0.56229 -0.588311,5.624012 z m 37.453738,-8.344782 c 1.5632,1.18518 2.08417,2.44733 1.22843,2.976181 -0.81719,0.50505 -1.87059,0.29589 -2.34083,-0.465361 -0.47046,-0.76085 -2.20405,-1.03061 -3.85295,-0.59942 -2.72876,0.71358 -2.99795,2.047611 -2.99795,14.856543 0,15.986293 2.41809,19.391174 2.84151,4.001011 0.16381,-5.962511 1.01757,-10.542082 2.09216,-11.224992 1.40244,-0.89128 1.38889,-1.15877 -0.0595,-1.17651 -1.03106,-0.0113 -1.87467,-1.035251 -1.87467,-2.272581 0,-3.04511 2.95731,-2.84207 5.46235,0.37524 1.89983,2.439791 1.97703,2.413441 1.09647,-0.37524 -0.78976,-2.50107 -0.30212,-2.33607 2.9341,0.99285 2.13467,2.195721 4.31843,5.734201 4.85278,7.863202 0.53452,2.12901 1.49824,3.54545 2.14198,3.14759 0.64375,-0.39791 1.07788,0.37808 0.9648,1.723611 -0.1128,1.34582 0.63802,2.74458 1.66908,3.10831 3.17939,1.12158 2.08932,-3.15859 -2.78063,-10.917942 -5.55717,-8.854241 -10.26743,-14.183782 -12.47806,-14.118422 -0.88731,0.0283 -0.39167,0.97375 1.10101,2.10565 z m -30.188431,1.89468 c 0.60277,3.129911 5.34008,4.438541 7.66203,2.116531 1.98027,-1.980271 1.47421,-2.464791 -3.92992,-3.763001 -3.54613,-0.85182 -4.16103,-0.5806 -3.73211,1.64647 z m 46.220781,-0.48237 c 0,0.31119 1.18104,1.492451 2.624521,2.624521 2.37869,1.86549 2.43169,1.81243 0.56626,-0.56626 -1.959231,-2.498181 -3.190781,-3.292591 -3.190781,-2.058261 z m -46.491611,6.932412 c 0,0.82485 1.72701,1.49971 3.83782,1.49971 2.17667,0 3.43662,-0.64913 2.91094,-1.49971 -0.50958,-0.824851 -2.23681,-1.499711 -3.83782,-1.499711 -1.601,0 -2.91094,0.67486 -2.91094,1.499711 z m 52.490512,2.06597 c 0,0.31119 1.18104,1.49246 2.62453,2.62453 2.37869,1.865481 2.4317397,1.812431 0.56626,-0.56627 -1.95918,-2.49817 -3.19079,-3.29258 -3.19079,-2.05826 z m 4.53258,6.557461 c 0.017,0.61863 1.3530698,2.812031 2.9660998,4.874141 1.61302,2.06212 3.0010601,4.761641 3.0845001,5.998911 0.0845,1.25206 0.45913,1.50266 0.8448,0.56513 0.38147,-0.92648 -0.75105,-4.132181 -2.5160901,-7.123721 -3.12736,-5.300401 -4.4470998,-6.600591 -4.3793098,-4.314411 z m 16.5820802,2.749511 c 0.072,1.74713 0.42739,2.10247 0.90607,0.90613 0.43306,-1.08264 0.37978,-2.376141 -0.11846,-2.874501 -0.49824,-0.49824 -0.85279,0.38714 -0.78767,1.968371 z m -73.6051722,4.21379 c 0,1.149021 1.02794,2.483611 2.28426,2.965701 1.86367,0.71516 1.99206,0.33046 0.69714,-2.08916 -1.86055,-3.476461 -2.9814,-3.806021 -2.9814,-0.876541 z m -7.2063,6.159371 c 0.02834,2.474541 0.366737,3.305291 0.746908,1.846101 0.380342,-1.45918 0.355401,-3.483831 -0.05668,-4.499191 -0.41095,-1.01536 -0.721912,0.17855 -0.69136,2.65309 z m 7.2063,-0.74985 c 0,0.82484 0.71472,1.499711 1.5882,1.499711 0.87353,0 1.17117,-0.674871 0.66137,-1.499711 -0.50958,-0.82485 -1.22446,-1.49977 -1.58825,-1.49977 -0.3639,0 -0.66132,0.67492 -0.66132,1.49977 z m 26.995151,0 c 0,0.82484 0.71472,1.499711 1.58825,1.499711 0.87348,0 1.17113,-0.674871 0.66132,-1.499711 -0.50958,-0.82485 -1.22446,-1.49977 -1.58825,-1.49977 -0.3639,0 -0.66132,0.67492 -0.66132,1.49977 z m 8.71716,1.024481 c 1.08258,0.43306 2.37614,0.37977 2.8745,-0.11847 0.49824,-0.498241 -0.38771,-0.852791 -1.96843,-0.787661 -1.74707,0.072 -2.10247,0.42739 -0.90607,0.906071 z m -35.617251,9.988971 c 0.0856,5.599801 0.24374,5.860541 1.56019,2.564901 0.80586,-2.017681 2.12702,-4.466091 2.936,-5.440811 1.03327,-1.24498 0.56904,-2.008101 -1.5602,-2.564951 -2.69242,-0.70406 -3.02045,-0.0964 -2.93599,5.440861 z m 8.90333,-0.51524 c 2.937011,1.898071 4.922381,1.898071 3.749331,0 -0.50958,-0.82485 -2.068121,-1.4894 -3.462921,-1.47676 -2.18551,0.017 -2.22513,0.2239 -0.28624,1.47676 z m 6.336221,23.407705 c -0.26868,15.0342423 0.12357,23.0839338 1.12481,23.0839338 1.7914,0 2.19419,-44.4198278 0.41265,-45.4913588 -0.61863,-0.37184 -1.31045,9.711282 -1.53735,22.407425 z m 7.16135,-18.070124 c 0,1.28596 0.68586,1.914181 1.5242,1.3961 0.83828,-0.51808 1.13592,-1.57028 0.66132,-2.33811 -1.28562,-2.0802 -2.18552,-1.69232 -2.18552,0.94201 z m 1.49971,5.910371 c 1.28993,1.554291 1.34667,2.249621 0.18366,2.249621 -0.92586,0 -1.68337,1.0123 -1.68337,2.24957 0,3.417631 2.53542,2.686311 3.50203,-1.01009 0.9521,-3.640731 0.12074,-5.738671 -2.27445,-5.738671 -1.00572,0 -0.90517,0.83102 0.27208,2.24957 z m 0.86237,8.337692 c -2.85029,2.87341 -2.84558,2.91031 0.37468,2.91031 2.26204,0 3.26186,-0.91939 3.26186,-2.99948 0,-3.588181 0.0113,-3.588471 -3.63682,0.089 z m -24.858041,0.86866 c 0,1.12294 1.30994,2.04165 2.91094,2.04165 4.43072,0 5.05446,-2.56058 0.82088,-3.36984 -2.49778,-0.47727 -3.73182,-0.0397 -3.73182,1.32819 z m 22.495961,8.040561 c 0,1.649691 0.52999,2.999481 1.17832,2.999481 0.64811,0 1.17838,-1.34979 1.17838,-2.999481 0,-1.6497 -0.52998,-2.99943 -1.17838,-2.99943 -0.64805,0 -1.17832,1.34973 -1.17832,2.99943 z m -22.495961,1.499771 c 0,0.82484 0.71472,1.49971 1.5882,1.49971 0.87353,0 1.17117,-0.67487 0.66137,-1.49971 -0.50958,-0.82485 -1.22446,-1.499771 -1.58825,-1.499771 -0.3639,0 -0.66132,0.674921 -0.66132,1.499771 z m 0.12867,8.1735312 c -0.0839,3.84372074 0.38431,5.410991 1.33176,4.46320085 0.9033,-0.90324016 0.9525,-3.16386055 0.12867,-5.92391105 -1.31611,-4.4108808 -1.33329,-4.3937608 -1.46065,1.4607102 z m 22.390021,-2.5495904 c -0.0113,1.8559703 0.65191,3.3744406 1.47676,3.3744406 1.87903,0 1.87903,-1.5915903 0,-4.4991908 -1.1756,-1.8191204 -1.45822,-1.6039003 -1.47676,1.1247502 z m 0.64613,6.50457116 c -0.55436,0.89672016 -0.25677,2.38147044 0.66137,3.29939064 1.22548,1.2255402 1.66897,0.7923101 1.66897,-1.6304203 0,-3.6211207 -0.77905,-4.1790508 -2.33034,-1.66897034 z M -5.7835422,4.6378608 c -1.67787,2.6867605 -1.64499,3.5363206 0.2085901,5.3899012 1.93413,1.93413 2.2766,1.54806 2.82971,-3.1894208 0.71766,-6.14730113 -0.17118,-6.79116125 -3.0383001,-2.2004804 z M -51.347603,10.095842 c -0.3809,1.45663 -0.16948,3.987461 0.46934,5.623941 0.88521,2.26652 1.18727,1.63541 1.26754,-2.648441 0.1128,-6.0262308 -0.61376,-7.271091 -1.7371,-2.9755 z m -15.167441,1.36378 c -0.54246,0.54246 -0.98679,1.47698 -0.98679,2.07612 0,1.681721 4.30409,2.939171 5.18448,1.514681 0.99269,-1.606221 -2.87432,-4.914171 -4.19769,-3.590801 z m -8.426743,17.502273 c -0.05952,2.798651 4.439505,9.978822 9.294323,14.833643 1.81634,1.81635 2.64482,4.977311 2.64482,10.091062 0,4.095441 0.95011,10.338022 2.11143,13.872482 1.16132,3.534451 3.87585,12.162753 6.032291,19.174014 3.39478,11.037602 6.75743,19.108774 6.83061,16.395194 0.0113,-0.4682 -3.01399,-10.471793 -6.7258,-22.229665 -3.873421,-12.269662 -6.748821,-24.282435 -6.748821,-28.195075 0,-5.494601 -0.90794,-7.851182 -4.68024,-12.147563 -2.57413,-2.9318 -5.584663,-7.407581 -6.69009,-9.946231 -1.330854,-3.056451 -2.029695,-3.680701 -2.068523,-1.847861 z m 56.668995,7.730222 c -5.490291,9.057451 -6.351811,11.861322 -5.760101,18.746623 l 0.32196,3.749341 1.10809,-3.749341 c 0.60939,-2.06217 1.96292,-3.556951 3.00781,-3.321771 1.044891,0.235231 2.872971,-0.38035 4.062511,-1.36736 1.75076,-1.45306 1.79214,-2.05611 0.21709,-3.16624 -1.53627,-1.082811 -1.55118,-1.531461 -0.0709,-2.132071 1.03106,-0.41832 1.87467,-1.75654 1.87467,-2.9738 0,-1.217201 0.67486,-1.795991 1.49971,-1.286191 0.82485,0.509581 1.49971,0.212001 1.49971,-0.66137 0,-0.87354 -1.0123,-1.58825 -2.24957,-1.58825 -2.64935,0 -2.91139,-1.73778 -0.60922,-4.039951 0.90222,-0.90222 1.39564,-2.89309 1.09647,-4.4242 -0.39451,-2.018811 -2.04285,-0.311191 -5.99834,6.214581 z m -44.729852,-6.182581 c 0,0.31175 1.18104,1.49251 2.62452,2.62458 2.37864,1.86543 2.43169,1.81237 0.56626,-0.56626 -1.95918,-2.498181 -3.19073,-3.292641 -3.19073,-2.05832 z m 88.708793,21.601903 c 0.16211,5.115161 0.40698,5.829592 0.88255,2.577481 0.36164,-2.474601 1.29027,-5.264011 2.06319,-6.198771 0.92456,-1.11818 0.62266,-1.999821 -0.8826,-2.577421 -1.86883,-0.71715 -2.24674,0.41832 -2.06314,6.198711 z m -31.7190912,-0.42172 c -2.02658,2.441891 -1.54183,2.747131 2.1269601,1.339241 1.30473,-0.5005 2.3722301,-1.512971 2.3722301,-2.249561 0,-2.07448 -2.4300401,-1.58281 -4.4991902,0.91032 z"
       id="path2819" /></g></svg>
