<?xml version="1.0" encoding="UTF-8" standalone="no"?>
<!-- Created with Inkscape (http://www.inkscape.org/) -->

<svg
   width="210mm"
   height="297mm"
   viewBox="0 0 210 297"
   version="1.1"
   id="svg2829"
   xml:space="preserve"
   inkscape:version="1.2.2 (732a01da63, 2022-12-09)"
   sodipodi:docname="Var.svg"
   xmlns:inkscape="http://www.inkscape.org/namespaces/inkscape"
   xmlns:sodipodi="http://sodipodi.sourceforge.net/DTD/sodipodi-0.dtd"
   xmlns="http://www.w3.org/2000/svg"
   xmlns:svg="http://www.w3.org/2000/svg"><sodipodi:namedview
     id="namedview2831"
     pagecolor="#ffffff"
     bordercolor="#000000"
     borderopacity="0.25"
     inkscape:showpageshadow="2"
     inkscape:pageopacity="0.0"
     inkscape:pagecheckerboard="0"
     inkscape:deskcolor="#d1d1d1"
     inkscape:document-units="mm"
     showgrid="false"
     inkscape:zoom="2.3786088"
     inkscape:cx="253.92994"
     inkscape:cy="-71.470349"
     inkscape:window-width="2560"
     inkscape:window-height="1494"
     inkscape:window-x="-11"
     inkscape:window-y="-11"
     inkscape:window-maximized="1"
     inkscape:current-layer="layer1" /><defs
     id="defs2826" /><g
     inkscape:label="레이어 1"
     inkscape:groupmode="layer"
     id="layer1"><path
       style="fill:#000000;stroke-width:1.42621"
       d="M -70.373154,-153.40743 -75,-148.63375 l 0.424763,78.302961 0.424763,78.3028949 3.875964,8.2723661 c 2.131794,4.549768 5.340751,10.325896 7.131063,12.835935 2.819554,3.952938 3.356438,6.857766 4.012664,21.71094 0.716708,16.220883 1.053661,17.762102 6.235988,28.524187 8.902131,18.486732 12.260239,27.935976 12.260239,34.498356 0,5.26512 0.876533,7.1303 5.924422,12.60661 3.25844,3.53497 9.055375,8.17362 12.882125,10.30817 5.12945,2.86106 8.44724,6.24892 12.6260901,12.89257 7.2119199,11.46586 9.80205989,11.43314 17.5038598,-0.221 3.8544501,-5.83246 7.0655601,-8.95975 10.7284501,-10.44836 5.998,-2.43759 19.096499,-15.7903 23.162689,-23.61224 1.66234,-3.1978 3.31779,-10.71309 4.16985,-18.930473 1.00245,-9.667026 2.46907,-15.711273 5.04659,-20.797751 2.33097,-4.599898 4.18651,-11.618025 5.17602,-19.577161 1.10606,-8.896247 2.61877,-14.222654 5.3462,-18.824652 2.09196,-3.529899 5.70261,-10.589645 8.02355,-15.688363 L 74.17527,12.250894 74.58763,-67.99503 75,-148.24095 l -3.79085,-4.97 -3.7908,-4.97005 H 0.83645099 -65.746361 Z m 26.886594,-1.72724 c 0,0.67768 -5.022448,1.23213 -11.16103,1.23213 -18.086018,0 -17.202047,-2.58469 -17.274278,50.50983 -0.03234,24.236495 -0.387031,44.393766 -0.787483,44.793946 -0.399968,0.399969 -0.727596,-19.404882 -0.727596,-44.011206 v -44.73881 l 4.603398,-4.74948 c 4.444705,-4.58577 4.960997,-4.74123 14.97522,-4.50907 5.704495,0.13207 10.371769,0.79498 10.371769,1.47266 z m 4.278627,-0.19406 c 0,0.78441 -0.641781,1.42619 -1.426191,1.42619 -0.784411,0 -1.426191,-0.64178 -1.426191,-1.42619 0,-0.78441 0.64178,-1.42619 1.426191,-1.42619 0.78441,0 1.426191,0.64178 1.426191,1.42619 z m 5.70487,-0.79729 c 0,0.34606 -0.641834,1.02563 -1.426245,1.51039 -0.78441,0.4846 -1.426191,0.2016 -1.426191,-0.6289 0,-0.83071 0.641781,-1.51039 1.426191,-1.51039 0.784411,0 1.426245,0.283 1.426245,0.6289 z m 7.131004,1.66299 c 0,0.30833 -0.96267,0.56049 -2.13928,0.56049 -1.17662,0 -2.13934,-0.62162 -2.13934,-1.38145 0,-0.75977 0.96272,-1.01199 2.13934,-0.56049 1.17661,0.45172 2.13928,1.07317 2.13928,1.38145 z m 6.74479,-1.43023 c -0.47381,0.47381 -1.70401,0.52448 -2.73358,0.11266 -1.13769,-0.45549 -0.79977,-0.79325 0.86171,-0.86166 1.50344,-0.062 2.34579,0.27491 1.87187,0.74905 z m -39.802249,5.81095 c 2.241219,2.24128 2.423414,2.24128 2.855131,0 0.357383,-1.85483 2.043499,-2.39398 7.487583,-2.39398 3.915907,0 7.026489,0.65693 7.026489,1.48398 0,1.61927 11.195312,1.4429 12.205906,-0.19244 0.33744,-0.54578 3.25865,-0.39781 6.49203,0.32881 3.23941,0.72787 17.1700301,0.93497 31.0284099,0.46142 32.5545991,-1.11263 41.6650591,-0.91001 43.9390591,0.97723 1.36921,1.13634 2.06797,0.9907 2.66102,-0.55462 1.01582,-2.64728 7.4002,-2.0759 10.40751,0.93146 1.76363,1.76363 2.13395,5.06135 1.81322,16.14821 -0.22155,7.66261 -0.66394,14.19517 -0.98283,14.51681 -1.04639,1.05539 -28.341409,1.1522 -31.254759,0.11105 -1.56478,-0.55931 -4.57547,-0.41399 -6.69045,0.32342 -2.11497,0.7373 -5.31628,1.13047 -7.11397,0.87373 -3.10617,-0.44363 -3.14066,-0.57311 -0.69499,-2.60604 9.13139,-7.59032 9.53243,-8.52506 5.42145,-12.63605 -2.58599,-2.58599 -2.56998,-2.78948 0.63709,-8.10338 3.10993,-5.15295 3.3331,-7.78475 0.66,-7.78475 -0.65294,0 -2.21438,2.56717 -3.4698,5.70481 -2.8588,7.14481 -4.08533,7.27013 -3.48969,0.35684 0.32612,-3.78395 -0.10673,-5.34828 -1.47848,-5.34828 -1.50252,0 -1.98318,3.45281 -2.13427,15.33103 l -0.19513,15.33103 -14.97517001,-0.0216 c -9.99890989,-0.0162 -14.26432999,-0.47059 -12.83587999,-1.37348 1.17662,-0.74382 2.1964801,-1.8571 2.2663901,-2.47403 0.0701,-0.61693 1.44016,-4.00974 3.04504,-7.53964 3.7525199,-8.2534 5.1355399,-19.96688 2.35749,-19.96688 -1.38711,0 -1.9751,1.99018 -2.00151,6.77448 -0.0216,3.72595 -1.20055,9.34166 -2.62221,12.4793 l -2.5848001,5.70487 0.12613,-12.51569 c 0.1008,-9.9877 -0.27545,-12.43633 -1.86233,-12.12277 -1.5562,0.30725 -1.92469,3.28409 -1.69463,13.68955 0.1892,8.55698 -0.30779,14.02208 -1.39493,15.33173 -2.33064,2.80823 -47.262717,2.99016 -49.577784,0.20052 -0.83729,-1.00892 -1.642399,-7.7641 -1.789018,-15.01149 -0.220467,-10.90051 0.173571,-13.66356 2.28197,-15.99318 3.087673,-3.41185 3.137264,-3.41525 6.130389,-0.42207 z m 64.2958889,2.83546 c -0.076,0.65363 -0.0324,3.53129 0.0986,6.39478 0.18813,4.12769 -0.26898,5.16184 -2.2041899,4.99172 -3.66287999,-0.32181 -4.07918,2.96261 -0.51855,4.09266 2.7202099,0.86338 3.0130699,1.75085 2.3930099,7.25206 -0.53149,4.71455 -0.21993,6.26833 1.25758,6.26833 1.37083,0 1.9641,-1.89822 1.9641,-6.28444 0,-5.73413 0.26952,-6.21399 3.0754301,-5.48014 2.10716,0.55101 2.75423,0.28461 2.05515,-0.84667 -0.56114,-0.90796 -1.99267,-1.65086 -3.1811501,-1.65086 -1.70288,0 -2.07772,-1.56672 -1.76853,-7.39207 0.25443,-4.79227 -0.21023,-7.59284 -1.32049,-7.96295 -0.94202,-0.31426 -1.775,-0.0377 -1.851,0.61758 z M 72.06374,-69.636349 c 0.0162,43.21689 -0.55569,79.5045341 -1.28572,81.887083 -2.22607,7.265607 -5.9538,15.346823 -10.85523,23.53252 -3.70309,6.184447 -4.91081,10.107365 -5.70789,18.540691 -0.66216,7.005617 -2.51424,14.141474 -5.36754,20.680021 -3.1965,7.325007 -4.51543,12.831784 -4.95302,20.680031 -0.32827,5.883123 -1.55491,13.263713 -2.72641,16.401403 -2.73503,7.32555 -16.618749,21.64319 -24.220069,24.97704 -4.50206,1.97461 -6.9555001,4.45311 -10.4446501,10.55153 -2.50825,4.38395 -5.4521099,7.97078 -6.5418899,7.97078 -1.08983,0 -4.5922399,-3.84444 -7.7830799,-8.54319 -3.1908501,-4.69869 -7.7807201,-9.56659 -10.1997101,-10.81749 -6.67574,-3.45217 -17.091543,-13.59048 -19.257674,-18.74461 -1.060829,-2.52416 -1.92879,-6.50513 -1.92879,-8.84666 0,-4.43101 -0.871196,-6.99997 -6.809634,-20.07986 -9.189331,-20.240171 -10.298351,-23.15099 -10.204342,-26.782058 0.09379,-3.625258 0.226935,-3.537778 2.015954,1.326299 1.053553,2.864239 3.970404,9.603046 6.481897,14.975164 6.052336,12.945834 11.368559,28.580835 11.368559,33.434825 0,4.79708 13.55943,20.40685 16.68468,19.20759 1.10228,-0.42314 1.6701,-0.22855 1.26173,0.43231 -0.78873,1.27618 5.15235,4.47085 8.31447,4.47085 1.0345801,0 3.2991301,3.88912 5.0323101,8.64248 2.6113799,7.16188 3.4992799,8.35364 5.1828099,6.9564 2.29302,-1.90303 2.8036,-4.8347 0.60544999,-3.47616 -0.78440999,0.4846 -1.42624998,0.2706 -1.42624998,-0.47651 0,-0.74679 0.96272999,-1.72719 2.13934999,-2.17869 1.17661,-0.45171 2.14915,-1.9642 2.16111,-3.36155 0.0377,-4.47758 2.2582499,-6.28525 8.61472,-7.01549 3.94264,-0.45279 6.91755,-1.72681 8.15346,-3.49131 1.07026,-1.52796 2.64296,-2.34735 3.49486,-1.82082 0.85195,0.52664 1.15177,0.3148 0.66625,-0.47112 -0.48567,-0.78554 1.07846,-3.29143 3.47546,-5.5686 8.71999,-8.28395 10.172809,-11.4852 10.587059,-23.32844 0.38488,-11.00745 3.05576,-21.554186 6.98159,-27.570783 2.44956,-3.753968 5.45373,-21.17815 4.21017,-24.418799 -0.47975,-1.249599 -0.18166,-2.272049 0.66215,-2.272049 0.84371,0 1.17398,-0.93836 0.73385,-2.085219 -0.45441,-1.184059 0.79061,-3.559498 2.88079,-5.496588 4.25415,-3.942638 9.62709,-15.079413 13.19995,-27.360347 2.6007,-8.9395364 3.20955,-31.609966 3.30997,-123.248165 0.0216,-19.93717 0.36116,-35.9281 0.7539,-35.5353 0.39296,0.39296 0.72549,35.63794 0.7394,78.322571 z M 21.940771,-125.04522 c -2.07374,3.87487 -2.6786,3.05823 -2.62356,-3.54209 0.0485,-5.91741 0.097,-5.9773 2.01121,-2.5193 1.33364,2.40929 1.52947,4.34778 0.61235,6.06139 z m -82.541838,12.50274 c -1.661697,1.07388 -1.246745,1.38738 1.858447,1.40436 7.865612,0.0431 23.526166,13.665023 33.796051,29.396886 10.57763,16.203313 18.5346701,45.67469 20.7562601,76.8774657 l 0.9138899,12.8358742 -7.75532,-8.55724616 C -32.779348,-24.5815 -44.070987,-40.597492 -42.454569,-45.15512 c 0.422068,-1.19079 -0.194593,-1.46641 -1.855158,-0.8291 -2.012613,0.77234 -2.333287,0.36385 -1.678893,-2.138319 0.551545,-2.109149 0.159556,-3.092999 -1.232245,-3.092999 -2.024848,0 -4.975065,-5.546667 -5.499389,-10.339315 -0.150392,-1.372339 -0.780853,-2.976799 -1.401611,-3.565478 -0.620812,-0.58874 -0.694175,0.534189 -0.163329,2.495158 l 0.965689,3.565529 -2.927308,-3.565529 c -1.610003,-1.961079 -3.702878,-4.483678 -4.650887,-5.605897 -1.279626,-1.514869 -1.300541,-2.181339 -0.0814,-2.587819 1.121525,-0.3741 0.578982,-3.119049 -1.710858,-8.656226 -5.456806,-13.195514 -7.403493,-20.231491 -5.597603,-20.231491 0.372477,0 4.179174,2.587389 8.459957,5.749827 6.084841,4.495098 7.788044,6.595847 7.805078,9.626916 0.01617,2.737139 0.384874,3.304309 1.255962,1.929119 0.962293,-1.518959 2.213835,-0.922729 5.682986,2.707379 2.446917,2.560429 4.44891,3.833698 4.44891,2.829419 0,-1.957739 -5.485105,-11.432975 -6.618436,-11.432975 -0.374633,0 -0.284074,0.64178 0.200523,1.426189 1.434761,2.321479 -0.20214,1.625529 -2.321213,-0.986869 -1.330026,-1.63965 -1.385978,-2.069809 -0.174649,-1.34205 4.056651,2.437159 1.342586,-2.112169 -4.690345,-7.861886 -6.725058,-6.409333 -12.089364,-9.930993 -13.654196,-8.963903 -0.500228,0.30887 -0.909252,-1.0191 -0.909252,-2.95151 0,-1.93245 0.561572,-3.16642 1.247931,-2.74225 0.686359,0.42422 1.24793,0.0916 1.24793,-0.73908 0,-0.83072 1.764924,-1.50058 3.922052,-1.48856 3.056301,0.0162 3.449854,0.3272 1.782766,1.40436 z m 41.360078,-0.0566 c 2.40282,0.73132 -0.78236,1.26631 -9.76751,1.64062 -12.558002,0.52287 -15.631606,0.0431 -13.488438,-2.09805 1.237796,-1.23785 18.822238,-0.89195 23.255948,0.45765 z m 32.32782,0.53257 c 0.52287,0.52287 -5.2536401,0.95044 -12.83631,0.95044 -8.1926999,0 -13.7867,-0.5757 -13.7867,-1.41886 0,-1.56855 25.02632,-1.12821 26.62301,0.46842 z m 16.16326,-0.33474 c 0,1.57594 -5.75904,1.65981 -8.18478,0.11913 -1.06778,-0.67817 0.20161,-1.17797 3.20896,-1.26324 2.73671,-0.0776 4.97582,0.43716 4.97582,1.144 z m 13.548979,-0.22316 5.70487,1.18001 -7.40344,0.16387 c -4.071909,0.09 -7.800069,-0.47759 -8.284879,-1.26222 -1.03997,-1.68272 2.1187,-1.70859 9.983449,-0.0819 z m 10.69659,2.21701 c 0,1.17435 -2.11762,4.54378 -4.70576,7.48764 -2.5882,2.943794 -6.8333,8.104672 -9.43362,11.46854 l -4.727809,6.116158 -14.09885,-0.22154 c -7.75436,-0.12183 -14.0988501,-0.75191 -14.0988501,-1.40011 0,-0.648239 1.40533,-2.162889 3.12292,-3.365968 4.1208501,-2.886349 2.5574801,-4.256748 -2.32067,-2.034119 -2.55532,1.164319 -3.6303799,2.572349 -3.20529,4.197978 0.44471,1.701319 -0.3945799,2.643829 -2.7572399,3.095488 -1.86836999,0.35738 -3.39698,0.14015 -3.39698,-0.481899 0,-0.62211 -1.7649199,-0.8982 -3.9220499,-0.61359 -2.15718,0.28461 -4.4034701,0.56179 -4.9917701,0.6158 -0.58831,0.0539 -1.06962,0.681939 -1.06962,1.395249 0,0.71353 9.75462,1.379559 21.6852399,1.480629 11.9269001,0.1008 21.9267301,0.42531 22.2218001,0.72021 1.11554,1.11555 -2.75326,6.526527 -4.0801,5.706487 -0.76452,-0.472199 -1.27219,-0.329889 -1.12821,0.31642 0.14392,0.64663 -0.20052,2.222999 -0.76571,3.502999 -0.87265,1.976709 -4.0222,2.358619 -20.9064301,2.534999 -15.7595799,0.1644 -19.8790299,-0.18813 -19.8790299,-1.70186 0,-1.050209 -1.31633,-3.322418 -2.92515,-5.049287 -3.04875,-3.272459 -2.65682,-5.955308 0.87001,-5.955308 1.13031,0 2.05514,-0.682149 2.05514,-1.515829 0,-0.83374 -1.12314,-1.401609 -2.49586,-1.261999 -1.37272,0.139609 -3.26275,0.180039 -4.20009,0.0895 -2.53165,-0.24419 -13.858758,-12.741165 -14.791943,-16.319958 -0.536883,-2.05821 -1.733496,-2.95846 -3.56553,-2.68209 -2.232001,0.3369 -2.358945,0.14823 -0.666145,-0.98806 2.190225,-1.47034 5.752629,0.37948 5.752629,2.98676 0,1.95821 11.592959,15.412968 13.280209,15.412968 0.78317,0 0.29917,-1.243139 -1.07608,-2.762529 -1.37504,-1.519439 -2.07843,-3.444778 -1.56311,-4.278618 0.51532,-0.833849 -0.0269,-1.516109 -1.20233,-1.516109 -2.70409,0 -4.21313,-2.349239 -2.8872,-4.494668 0.70328,-1.137914 1.6051,-0.835244 2.93658,0.98569 1.83516,2.509708 1.92162,2.511968 1.92162,0.0485 0,-1.876074 0.77681,-2.375064 2.85244,-1.832304 1.85386,0.48459 2.85238,0.0431 2.85238,-1.25985 0,-1.10318 -1.24567,-2.00581 -2.76824,-2.00581 -5.25434,0 -4.35932,-2.60226 1.21915,-3.54477 9.03796,-1.52694 27.7600999,-1.25548 28.3154199,0.41074 0.27545,0.82624 -1.30221,1.74967 -3.50586,2.05197 -2.2036499,0.3024 0.36008,0.5973 5.6973301,0.65541 9.87359,0.10727 15.47394,1.77032 6.5786,1.95332 -2.68011,0.055 -6.15648,0.60194 -7.7253001,1.21515 -2.7566,1.07748 -2.74387,1.1495 0.3789401,2.142304 3.0707,0.976259 13.07764,-1.358924 14.59622,-3.406184 2.2347,-3.01253 14.153779,-7.13289 18.258619,-6.31194 5.71625,1.14325 10.49133,-0.38002 7.3732,-2.35172 -1.76174,-1.11408 -1.69797,-1.33116 0.39674,-1.34948 1.37271,-0.0108 2.49586,0.939 2.49586,2.11336 z m -68.345419,7.25402 c 0.0685,1.66147 0.40643,1.9994 0.86165,0.86165 0.41183,-1.02951 0.36116,-2.2596 -0.11266,-2.73357 -0.47381,-0.47382 -0.81098,0.3687 -0.74904,1.87192 z m 51.9584,3.469954 c 0.492679,0.79719 1.493249,1.080229 2.223489,0.6289 1.97822,-1.222604 1.60935,-2.078384 -0.89583,-2.078384 -1.222919,0 -1.820339,0.65224 -1.327659,1.449484 z M 66.46452,-110.04673 c 0.0733,1.37272 0.34067,5.36922 0.59451,8.8811 0.25389,3.511903 -0.50023,8.967141 -1.67609,12.122789 -1.17565,3.155639 -2.45845,7.342037 -2.85055,9.303066 -1.29812,6.491647 -6.86893,18.491582 -8.59601,18.516322 -2.46347,0.0377 -3.73253,2.689209 -3.59523,7.518246 0.0868,3.045199 -0.65337,4.432688 -2.64124,4.952538 -1.5188,0.39727 -2.7615,1.32695 -2.7615,2.066189 0,0.73918 -0.64178,0.94736 -1.42619,0.4625 -0.81007,-0.50077 -1.42625,0.70846 -1.42625,2.798799 0,4.787798 -6.984439,15.390213 -9.502029,14.424093 -1.20529,-0.462489 -1.9076,0.33043 -1.9076,2.153409 0,2.761559 -22.5762801,36.903714 -24.4269601,36.940904 -0.49214,0.0108 -0.5689,-2.8700587 -0.17088,-6.3999572 0.49754,-4.413708 0.19352,-6.4179071 -0.97248,-6.4179071 -0.9327,0 -1.3793999,0.5120898 -0.99269,1.1377495 0.38649,0.62576971 0.0598,2.06979907 -0.7262499,3.2089586 -1.00482,1.4559393 -1.25979,-0.3649299 -0.85826,-6.1294773 0.31426,-4.510408 0.0911,-8.2007265 -0.49538,-8.2007265 -0.58653,0 -1.05484001,-2.406699 -1.04077001,-5.348237 0.0162,-2.941599 -0.0879,-5.669188 -0.2264,-6.061398 -1.32630998,-3.749718 -1.19262998,-7.850616 0.28623001,-8.789356 1.31817,-0.836639 1.13182,-1.156399 -0.68329,-1.172299 -1.37272,-0.0108 -2.49586,-0.73229 -2.49586,-1.60063 0,-0.868339 0.96267,-1.209389 2.13929,-0.757829 1.17667,0.45171 2.13934,0.16117 2.13934,-0.64469 0,-0.80608 0.59747,-1.096409 1.32765,-0.64513 0.7302399,0.45118 1.7308099,0.16818 2.2234899,-0.628889 1.03005,-1.66666 6.4400701,-1.98685 6.4168901,-0.38003 -0.0108,0.588309 -1.00386,4.278628 -2.2119501,8.200676 -1.2081,3.922108 -2.81648,10.340015 -3.57421,14.262124 -0.75768,3.922048 -1.73091,8.2541461 -2.16274,9.6268654 -0.4317699,1.3727094 -0.20268,2.4958589 0.5094,2.4958589 0.71196,0 2.09168,-3.6903183 3.06594,-8.2006763 0.97432,-4.510408 2.3748501,-10.949025 3.1123701,-14.308104 0.73746,-3.359068 4.93011,-13.627774 9.31692,-22.819309 4.38681,-9.191596 9.94409,-20.883621 12.3495,-25.982289 2.40541,-5.098718 5.380099,-10.346325 6.610459,-11.661365 1.23036,-1.315039 3.81193,-4.579458 5.73678,-7.254226 1.92486,-2.674769 5.95272,-6.708352 8.95076,-8.963522 2.99803,-2.25512 5.15769,-4.86456 4.79917,-5.79872 -0.89998,-2.34536 0.46196,-3.4036 4.38115,-3.4036 2.16786,0 3.37418,0.86996 3.4608,2.49586 z m -109.769154,1.4262 c 1.774033,2.26207 1.723579,2.31253 -0.538501,0.5385 -1.372718,-1.07657 -2.495861,-2.19972 -2.495861,-2.49587 0,-1.17381 1.171171,-0.41829 3.034308,1.95737 z m -15.688262,11.409673 c 1.81058,2.308709 1.743469,2.338949 -0.895075,0.40374 -1.568821,-1.15074 -3.1198,-2.273879 -3.446619,-2.495859 -0.326658,-0.22208 0.076,-0.40374 0.895021,-0.40374 0.81907,0 2.370103,1.123149 3.446673,2.495859 z m 5.704817,4.278628 c 1.774034,2.262079 1.72358,2.312479 -0.5385,0.5385 -1.372718,-1.07657 -2.495861,-2.199709 -2.495861,-2.495859 0,-1.17387 1.171225,-0.41829 3.034361,1.957359 z M 66.40733,-65.900971 c -2.07406,8.236896 -10.11578,27.521198 -11.47653,27.521198 -1.37083,0 -12.93668,16.456382 -16.00538,22.773119 -1.34614,2.770879 -2.469229,6.1076377 -2.495859,7.4149671 -0.0269,1.3073295 -0.73574,2.6061489 -1.57583,2.8861787 -1.96755,0.6558498 -1.93984,28.5901572 0.0323,35.2893442 2.47463,8.394456 0.28677,6.679717 -4.25372,-3.333638 -5.96286,-13.150835 -6.07185,-23.5056199 -0.39404,-37.455254 2.28774,-5.620887 5.80826,-12.680634 7.823299,-15.688253 9.64595,-14.397583 17.78033,-27.869577 23.04098,-38.160053 6.04673,-11.828084 8.08732,-12.308264 5.30221,-1.247609 z m -132.713214,-4.556118 c 0,1.183409 1.782226,4.611908 3.960431,7.618886 2.178259,3.006979 5.163838,8.135777 6.634553,11.397345 1.47077,3.261509 3.218444,5.930078 3.883727,5.930078 0.665282,0 1.209604,1.572589 1.209604,3.494648 0,1.922049 0.913349,4.007858 2.0297,4.635138 1.116351,0.62734 4.983583,5.547478 8.593908,10.933715 5.158123,7.695487 6.2134,10.215826 4.926659,11.766205 -1.279734,1.542089 -1.131983,1.973049 0.676495,1.973049 1.525967,0 2.313935,1.23127 2.313935,3.6157085 0,1.9886291 1.016575,5.1671777 2.259003,7.0633569 2.29184,3.4977784 2.32256,17.4930126 0.0588,26.8067476 -1.631889,6.714597 -7.192729,17.179563 -9.448986,17.782163 -1.325606,0.354139 -1.570438,0.123439 -0.643667,-0.60686 2.748562,-2.165209 5.173323,-13.643024 5.571134,-26.371308 0.337978,-10.8062856 0.06576,-12.6045748 -1.910248,-12.6233348 -1.666063,-0.0162 -1.81543,-0.3320499 -0.539525,-1.1425495 1.230628,-0.7816597 1.396544,-2.39321896 0.548311,-5.3264577 -1.942374,-6.716917 -12.366375,-25.753958 -17.723189,-32.367376 -5.915582,-7.303226 -8.708023,-12.612494 -10.880029,-20.68596 -0.896854,-3.333789 -2.087269,-6.064298 -2.64539,-6.067798 -0.558068,-0.003 -1.129504,-2.249789 -1.269816,-4.991717 -0.14015,-2.741939 0.341212,-4.985368 1.06967,-4.985368 0.72862,0 1.324798,0.968279 1.324798,2.151689 z m 69.884215,3.845078 c 0,0.93108 -2.93426001,1.24421 -7.8441599,0.83702 -4.31425,-0.35793 -7.8441001,-0.15471 -7.8441001,0.45171 0,0.606099 1.53254,5.472327 3.4057101,10.813885 4.06646,11.596085 5.5509199,18.982271 3.81505,18.982271 -0.6959,0 -1.69986,-2.572679 -2.23109,-5.716997 -0.53149,-3.144379 -2.19216,-9.071926 -3.6909101,-13.172344 -1.49874,-4.100368 -2.72501,-8.874846 -2.72501,-10.609966 0,-2.909518 0.66518,-3.151488 8.5572601,-3.113758 4.9629399,0.0216 8.5572499,0.66571 8.5572499,1.528389 z m 4.2786299,-0.29216 c 0,0.78441 -0.64178,1.42619 -1.42619,1.42619 -0.78441,0 -1.42619,-0.64178 -1.42619,-1.42619 0,-0.784409 0.64178,-1.426249 1.42619,-1.426249 0.78441,0 1.42619,0.64184 1.42619,1.426249 z m 6.7447801,-0.564539 c -0.47381,0.473819 -1.70401,0.524489 -2.73357,0.11266 -1.1377,-0.45549 -0.79978,-0.7932 0.86171,-0.86166 1.50343,-0.062 2.34579,0.27545 1.87186,0.74911 z m 9.75511,2.446218 c 0.67353,1.75522 -2.46842,9.437496 -8.48448,20.744981 -1.87764,3.529089 -2.9741,4.378238 -4.14338,3.208949 -0.87454,-0.87453 -4.3119401,-1.590109 -7.6386201,-1.590109 -6.5380699,0 -6.7802099,-0.18004 -8.1952398,-6.097668 -0.88435,-3.698078 -0.70291,-3.897148 2.7592399,-3.028208 3.08783,0.774969 3.62903,0.483509 3.24523,-1.74649 -0.31749,-1.845939 0.42476,-2.721718 2.3918299,-2.821978 6.6755701,-0.34014 7.5173901,-0.69213 7.3291601,-3.063579 -0.10889,-1.372719 0.52179,-2.362929 1.40118,-2.200469 8.52782,1.575079 8.84413,1.539929 9.52375,-1.0591 0.38325,-1.465759 -0.0377,-2.966068 -0.93443,-3.333958 -1.09667,-0.44956 -1.03237,-0.70577 0.19621,-0.78145 1.00515,-0.062 2.1525,0.73417 2.54961,1.769079 z m -27.90953,8.730707 c 0,0.346069 -0.6418299,1.025579 -1.4262399,1.510389 -0.78441,0.4846 -1.42619,0.2016 -1.42619,-0.62895 0,-0.830709 0.64178,-1.510389 1.42619,-1.510389 0.78441,0 1.4262399,0.283 1.4262399,0.62895 z m -62.275616,7.682336 c -0.423686,1.619709 2.638221,7.569677 8.087803,15.716883 4.823219,7.210727 11.094297,17.750562 13.935737,23.4218497 4.46314,8.90794603 5.247335,11.9880147 5.761417,22.6297303 l 0.595152,12.318294 -5.075164,5.509358 c -4.947036,5.370177 -5.128423,5.437287 -7.183565,2.656868 -3.18125,-4.303848 -9.070258,-16.273592 -11.739096,-23.8602489 -1.447322,-4.1142781 -2.997114,-6.3971071 -3.972992,-5.8521374 -0.990539,0.5532198 -0.946391,0.1875899 0.115894,-0.9603495 1.048594,-1.1328495 1.251111,-2.73972882 0.520712,-4.1313582 -3.932132,-7.4920567 -4.663285,-50.055358 -0.859876,-50.055358 0.272215,0 0.188664,1.17289 -0.185969,2.606469 z M 66.91015,-24.2694 C 66.64656,-7.5078072 65.95243,0.96082905 64.65443,3.245278 63.62308,5.0604372 62.74084,7.1873263 62.69394,7.9717359 62.1549,16.979672 53.92371,33.991214 49.37508,35.497024 c -1.32011,0.437159 -1.60353,0.0431 -0.84931,-1.1757 0.74215,-1.200819 0.56497,-1.481119 -0.51478,-0.813949 -0.90564,0.559679 -1.64661,2.637738 -1.64661,4.617837 0,4.719288 -2.76425,3.747569 -6.23253,-2.190919 C 38.2713,32.748565 37.218661,27.463877 36.726951,18.840441 36.055251,7.0591363 36.293561,5.675317 40.9694,-5.7937179 43.6942,-12.477105 49.07128,-22.6098 52.91851,-28.310788 c 3.84718,-5.701047 8.27846,-12.787044 9.84728,-15.746693 1.56882,-2.959699 3.22869,-5.166368 3.68854,-4.903798 0.4598,0.26251 0.66486,11.373945 0.45549,24.691879 z m -12.6097,48.224509 c -0.77396,2.032609 -0.61014,2.196429 0.79837,0.798369 0.97474,-0.967459 1.41293,-2.118259 0.97383,-2.557358 -0.43932,-0.43932 -1.23661,0.352529 -1.7722,1.758989 z M -2.094409,-26.115119 c 1.15532001,5.122538 0.86079,7.644057 -0.70949,6.073787 -0.37247,-0.372479 -1.0778599,-3.207178 -1.5672499,-6.299107 -0.48945,-3.091878 -1.24141,-6.263427 -1.67114,-7.047837 -0.42961,-0.784459 0.005,-0.702469 0.96505,0.1822 0.96046,0.88462 2.3027199,4.075568 2.9828299,7.091007 z m -25.52191,10.115076 c 1.33003,1.639699 1.38598,2.069799 0.17465,1.342039 -4.03854,-2.426269 -1.32572,1.793329 5.41411,8.4212563 11.43524,11.245435 17.0375301,22.4780397 12.1469901,24.3547587 -1.1270801,0.43231 -1.7251401,1.63103 -1.3290001,2.663399 0.39619,1.03237 -0.0879,2.376459 -1.07555,2.986869 -1.03194,0.63779 -2.04215,0.37086 -2.3749,-0.62749 -0.66593,-1.997739 -6.00716,3.493189 -6.00716,6.175557 0,2.694329 -8.11551,9.761356 -9.19812,8.009687 -0.52449,-0.84877 -0.30294,-1.543159 0.49214,-1.543159 1.33639,0 3.94647,-9.334596 3.28998,-11.766255 -0.15902,-0.58831 0.23394,-1.06967 0.87286,-1.06967 0.63887,0 1.23138,-4.492568 1.31666,-9.983445 0.0852,-5.4909178 -0.34822,-9.9834958 -0.96386,-9.9834958 -0.61536,0 -0.79389,-1.6998593 -0.39673,-3.77747836 0.54826,-2.86822874 0.2706,-3.49852844 -1.15327,-2.61843884 -1.32642,0.8197796 -1.62828,0.5153298 -1.03135,-1.0404495 0.46411,-1.2097095 0.12398,-2.9194887 -0.75595,-3.7994683 -0.88003,-0.8800396 -1.05129,-1.6000393 -0.38056,-1.6000393 0.67067,0 0.0943,-1.2431299 -1.2807,-2.7625689 -1.37504,-1.519389 -2.078433,-3.444738 -1.563057,-4.278628 1.236507,-2.000699 1.503547,-1.937689 3.802977,0.89702 z m 26.43439,2.222129 c -0.39565,0.980519 -0.71935,0.17842 -0.71935,-1.78276 0,-1.961079 0.32397,-2.763278 0.71935,-1.782769 0.39566001,0.98051 0.39566001,2.585019 0,3.565529 z m 27.54029,6.8515666 c -4.09449,8.0259164 -4.18359,23.3834194 -0.19675,33.8765744 1.5478,4.073579 2.23405,7.406457 1.525,7.406457 -0.70906,0 -1.28917,-0.55909 -1.28917,-1.242379 0,-0.68334 -2.21464,-2.759879 -4.92149,-4.614608 -2.70678,-1.854779 -5.3215,-4.986008 -5.81052,-6.958407 -0.48891,-1.972339 -2.11147,-4.896468 -3.60547,-6.498117 -2.6791901,-2.872219 -2.6631301,-2.988869 1.17537,-8.5333164 2.14048,-3.0917686 5.05738,-6.91565694 6.48212,-8.4976262 1.42468,-1.5820293 3.90464,-4.9959278 5.51098,-7.5865566 4.0712,-6.5658768 4.87227,-4.6881278 1.12966,2.6479788 z m -46.31245,-1.5033294 c 1.41978,1.5688793 2.26052,2.8524388 1.86831,2.8524388 -0.39242,0 -1.87478,-1.2835595 -3.29455,-2.8524388 -1.41973,-1.5688193 -2.26047,-2.8523782 -1.86826,-2.8523782 0.39242,0 1.87473,1.2835589 3.2945,2.8523782 z m 20.24218,3.8949383 c -0.3617,1.3877094 -0.68123999,0.5976397 -0.71034999,-1.7555892 -0.0269,-2.353239 0.26682999,-3.4886185 0.65746999,-2.5230289 0.39079999,0.9655796 0.41451999,2.8909687 0.0539,4.2786181 z M -63.557268,17.953391 c 1.675659,4.705488 4.639891,10.963036 6.587226,13.905604 1.94728,2.942559 3.050047,5.338858 2.450635,5.325168 -1.767025,-0.0377 -12.17437,-18.379842 -14.892747,-26.243508 -1.378001,-3.9861486 -2.468478,-10.13561588 -2.423252,-13.6654543 l 0.08193,-6.4179671 2.574668,9.27039583 C -67.762751,5.2262972 -65.2332,13.247904 -63.557487,17.953391 Z M 0.273961,3.247428 C -0.181519,4.3851775 -0.51922899,4.0472577 -0.58768899,2.3857784 -0.64968899,0.88233909 -0.312239,0.03992947 0.161411,0.51384925 0.63523099,0.98766904 0.68590099,2.2179185 0.274071,3.247428 Z m 2.82899,4.7243079 c 0,1.1766695 -0.53472,2.1393391 -1.18853,2.1393391 -0.65364,0 -1.18847001,-0.9626696 -1.18847001,-2.1393391 0,-1.1766194 0.53473001,-2.139289 1.18847001,-2.139289 0.6537,0 1.18853,0.9626696 1.18853,2.139289 z m -0.92898,6.7745371 c 0.0162,1.390719 0.27653,1.380909 1.18141,-0.0431 0.8409099,-1.325279 2.1085699,-1.448069 4.6133199,-0.44686 2.4824901,0.99216 2.7519101,1.40582 0.95793,1.470769 -2.26645,0.0819 -2.23367,0.35253 0.3563,2.942889 3.3071701,3.307169 3.4365401,4.288538 1.2097701,9.175906 -1.9499801,4.279648 -4.7642501,5.380098 -11.59334,4.533048 -4.1973899,-0.52071 -5.6736599,0.0701 -8.7206899,3.489958 -4.5963901,5.158658 -9.4199301,14.050814 -9.4199301,17.365583 0,1.384309 -0.64178,2.516989 -1.42619,2.516989 -1.97704,0 -1.78697,-2.080689 0.74333,-8.136587 3.01,-7.203937 12.0098001,-17.872112 14.3269701,-16.982912 2.0648499,0.792329 1.33364,-2.626039 -1.28232,-5.994658 -1.0729,-1.381559 -0.41506,-2.772388 2.49263,-5.270997 2.1725999,-1.866859 3.53199991,-4.070828 3.0209399,-4.897718 -0.51101,-0.82688 0.0712,-1.503429 1.29429,-1.503429 1.22292,0 2.23329,0.802199 2.24531,1.782769 z m -2.0132,7.616247 c -0.47867,1.247449 -0.5094,2.851898 -0.0685,3.565528 1.04579,1.692209 4.9122099,1.682719 4.9122099,-0.0108 0,-0.72026 0.38973,-2.324719 0.8657,-3.565528 0.61154,-1.59367 0.0269,-2.255939 -1.98674,-2.255939 -1.5688199,0 -3.24404991,1.020619 -3.7227699,2.268009 z m -17.16443,14.490023 c -7.49243,9.726696 -12.56123,23.696869 -12.49714,34.443105 0.0744,12.442484 1.82233,24.864219 3.97687,28.259837 2.7836,4.387025 2.61569,4.685865 -2.63089,4.681775 -4.542865,-0.004 -4.640108,-0.13854 -4.885047,-6.774484 -0.433388,-11.747665 -3.492977,-38.083403 -4.512569,-38.844093 -1.693932,-1.263889 -1.445003,-8.489326 0.281378,-8.165796 0.895776,0.16764 1.54796,-0.76722 1.449369,-2.077889 -0.102956,-1.368889 0.582648,-2.090719 1.611082,-1.696089 0.984663,0.37787 2.990699,-0.82624 4.457907,-2.675739 1.46716,-1.849499 4.91109,-4.937058 7.65313,-6.861217 2.74204,-1.924099 5.82696,-4.621558 6.85534,-5.994277 1.02838,-1.37272 2.47457,-2.495859 3.21365,-2.495859 0.73913,0 -1.49875,3.690318 -4.97308,8.200726 z m 36.9834,-5.364248 c 0,1.14632 4.07503,5.309208 9.05565,9.250776 l 9.055649,7.166587 -0.972099,7.844147 c -1.72509,13.920153 -1.95246,16.198402 -2.91826,29.237227 -1.41605,19.118108 -1.42295,19.159938 -3.4706,21.058868 -1.50791,1.39832 -1.6914,1.39374 -0.89195,-0.0216 0.69105,-1.22399 -0.13746,-1.78276 -2.64318,-1.78276 -2.00733,0 -3.64968,0.71045 -3.64968,1.57879 0,0.86834 0.96267,1.20939 2.13929,0.75789 1.17667,-0.45171 2.13934,-0.27437 2.13934,0.39404 0,0.6683 1.28362,1.55076 2.85244,1.96102 3.50268,0.91594 3.83074,3.78606 0.3563,3.11937 -12.61956,-2.42174 -20.05405,-3.78675 -22.3854501,-4.11007 -3.17764,-0.44093 -4.51677,-2.99274 -2.29194,-4.36773 0.82586,-0.51047 1.52101,-0.0879 1.54489,0.93896 0.0269,1.05129 0.73616,0.67337 1.62924,-0.86511 1.5252701,-2.62765 1.6580901,-2.63321 3.4775601,-0.145 1.64456,2.24909 2.21195,2.3265 4.34261,0.59273 2.16236,-1.75959 2.34084,-1.70056 1.51557,0.50131 -0.51425,1.37271 -0.29378,2.49586 0.49106,2.49586 2.19012,0 3.39299,-4.43398 1.51729,-5.59324 -1.10153,-0.68075 -0.50346,-1.646225 1.77452,-2.865474 5.49556,-2.941109 7.21079,-7.797587 6.99646,-19.809592 -0.10781,-6.023817 -0.24149,-13.449244 -0.29755,-16.500912 -0.11373,-6.189888 -10.5159,-29.102947 -13.78124,-30.355997 -1.09323,-0.41937 -1.61065,-1.372829 -1.14978,-2.118479 1.25311,-2.027599 5.56365,-0.757999 5.56365,1.638679 z M 0.72595099,35.782874 c 0,0.784409 -0.67967999,1.426189 -1.51038998,1.426189 -0.83071001,0 -1.11376001,-0.64178 -0.62895001,-1.426189 0.48460001,-0.78441 1.16449,-1.42619 1.51039,-1.42619 0.34605999,0 0.62894999,0.64178 0.62894999,1.42619 z M 14.846951,37.565643 c 1.9461,3.167818 1.93348,3.175318 -0.98089,0.584529 -3.2365,-2.877068 -8.0600901,-2.234209 -9.3981001,1.25251 -0.43985,1.146759 -2.5631299,2.085009 -4.7179399,2.085009 -2.75342,0 -5.9458799,1.997569 -10.74134,6.720907 -3.7529,3.696458 -6.82348,5.942747 -6.82348,4.991718 0,-0.95103 1.28361,-3.012749 2.85243,-4.581568 1.56882,-1.568819 2.85244,-3.351589 2.85244,-3.961668 0,-1.13242 6.1269901,-6.842137 6.7744901,-6.313118 1.23003,1.00503 8.9284899,0.0431 8.2636899,-1.032909 -0.74619,-1.2074 2.2179299,-2.257069 7.79462,-2.760149 1.18405,-0.10673 3.03991,1.24981 4.12408,3.014739 z m 20.60016,1.844269 c -0.46466,1.210459 -1.15042,1.894939 -1.5243,1.521059 -0.37409,-0.3741 -0.25658,-1.364199 0.26036,-2.200789 1.4063,-2.275449 2.22828,-1.833439 1.26388,0.67973 z m -76.899497,23.870649 c 3.01253,20.636211 2.761607,21.842361 -2.290164,11.009935 -4.939705,-10.592015 -6.430203,-15.011653 -8.347513,-24.752039 -1.788264,-9.084966 -0.525025,-10.724345 4.397485,-5.706267 3.461335,3.528598 4.295984,6.129897 6.240192,19.448371 z m 64.933187,-7.887326 c 0.12614,3.490278 -3.55307,1.667139 -6.82483,-3.381719 -1.82804,-2.821058 -2.6303,-4.700638 -1.78276,-4.176798 0.95976,0.59316 1.56531,-0.55872 1.60547,-3.053878 0.0604,-3.753489 0.28138,-3.601319 3.50106,2.411718 1.89014,3.529849 3.46565,7.220167 3.50106,8.200677 z m -4.6373,-3.348679 c 1.40937,1.884219 2.77492,3.222809 3.03458,2.974579 0.8906,-0.8513 -2.71121,-6.400387 -4.15438,-6.400387 -0.79347,0 -0.28946,1.541599 1.1198,3.425808 z M 2.927121,44.04053 c -0.28354,0.28353 3.4373999,4.085048 8.2686,8.447876 10.50906,9.490216 12.50668,11.836705 11.48477,13.490264 -0.4253,0.6883 0.0765,1.07512 1.11533,0.85955 2.00329,-0.41559 2.02835,-0.0895 0.53527,6.959917 -0.56416,2.663828 -0.3369,4.880087 0.55677,5.432497 0.83034,0.51316 1.50974,1.872619 1.50974,3.021039 0,1.818619 -0.41398,1.824979 -3.20901,0.0485 -5.37751,-3.416329 -15.3317401,-2.058109 -15.3317401,2.091959 0,2.269619 6.2507601,7.011877 9.1827601,6.966647 2.84165,-0.0431 8.23436,-3.183999 7.55302,-4.398078 -0.18381,-0.32773 0.30725,-0.0582 1.09182,0.598819 1.74315,1.4601 -4.24305,6.699457 -7.64557,6.691687 -1.28583,-0.003 -4.42369,-1.277089 -6.97302,-2.831458 C 6.9539109,88.91267 6.4051609,87.82646 6.2046909,81.798163 c -0.12451,-3.737478 -0.13476,-7.901666 -0.0216,-9.253686 0.30079,-3.652428 -5.0171099,-6.043437 -9.2012999,-4.137018 -2.7458099,1.251109 -3.3851099,2.625549 -3.3851099,7.277787 v 5.735427 h -6.8458001 c -3.76519,0 -7.60526,0.75945 -8.53348,1.687679 -2.49781,2.497799 -3.16789,1.04886 -3.93526,-8.509056 -0.66814,-8.321426 -0.53365,-8.757016 3.60547,-11.704545 2.36466,-1.683799 4.29938,-3.980428 4.29938,-5.103617 0,-1.12325 0.48136,-2.056389 1.06967,-2.073689 0.58831,-0.0162 4.06414,-2.767809 7.7240101,-6.112278 3.65991,-3.344518 7.9614499,-6.080897 9.55899989,-6.080897 1.59755001,0 2.67272001,0.23178 2.38924001,0.51532 z m -7.1752699,9.160756 c -1.55911,0.903859 -3.94442,2.970158 -5.30064,4.591808 -2.3505401,2.810548 -2.3304301,3.062598 0.42961,5.389747 2.19745,1.852779 4.50659,2.251619 9.57927989,1.65442 3.67613991,-0.43285 7.45851991,-0.83605 8.40528991,-0.89621 3.8579101,-0.24526 3.3684601,-4.696058 -0.93965,-8.545396 C 3.187101,51.161717 0.199201,50.623117 -4.2480389,53.201286 Z m 8.9467698,3.767828 c 0.46249,1.388999 -0.19082,1.667569 -2.3238599,0.99065 -1.63199001,-0.51802 -4.27512,-0.24203 -5.87359,0.613589 -3.4910299,1.86836 -4.0673699,-0.605829 -0.5939599,-2.549658 3.28737991,-1.83969 8.0340598,-1.32927 8.7914098,0.945419 z m -3.97266991,4.332908 c 0,1.27386 -3.35373999,3.005039 -5.82151989,3.005039 -2.33059,0 -1.38625,-2.623239 1.18632,-3.295529 4.1084999,-1.073659 4.63519989,-1.040669 4.63519989,0.29054 z M 44.20246,65.80208 c -2.81034,8.461086 -5.16136,10.610185 -3.42425,3.130099 0.68188,-2.936039 1.25504,-7.393897 1.27375,-9.906306 0.0162,-2.512459 0.83626,-6.347187 1.81678,-8.521676 l 1.78276,-3.953578 0.44255,6.111357 c 0.24365,3.361289 -0.60782,9.274336 -1.89181,13.140104 z M 0.95580099,78.708414 c 0.42853001,7.717207 -0.55214,11.423535 -2.50620999,9.469406 -0.91147,-0.911459 -1.60963,-16.657012 -0.77557,-17.491072 1.96857,-1.968569 2.84579999,0.17573 3.28177999,8.021666 z M -15.548029,86.413281 c -0.49215,1.961019 -0.51964,3.565528 -0.0609,3.565528 1.75225,0 7.1394101,-3.416008 8.8018701,-5.581267 1.87224,-2.438509 2.42023,-0.47382 0.94218,3.378048 -1.37228,3.576039 -8.8531301,6.852377 -13.1714801,5.768528 -3.60122,-0.90381 -3.64752,-1.03258 -1.05372,-2.929189 2.47414,-1.809179 2.50174,-2.064959 0.31264,-2.904889 -2.22154,-0.852489 -2.2113,-1.064279 0.13746,-2.846288 3.81446,-2.893829 5.08578,-2.412359 4.09142,1.549529 z m 34.81468,-0.7131 c 1.17661,0.76037 1.81839,1.43654 1.42619,1.50263 -6.72242,1.132199 -8.55726,0.942079 -8.55726,-0.88683 0,-2.328919 3.95214,-2.670189 7.13107,-0.6158 z M 0.72595099,96.806336 c 0,0.61747 -1.43594998,1.23084 -3.19100999,1.36307 -2.5078199,0.18866 -2.7368599,-0.0485 -1.06967,-1.10089 2.60766001,-1.648699 4.26067999,-1.750419 4.26067999,-0.26197 z M 11.065971,99.480565 c -0.98057,0.39565 -2.5850201,0.39565 -3.5655301,0 -0.98052,-0.39566 -0.17842,-0.71935 1.78276,-0.71935 1.9610301,0 2.7632801,0.32342 1.7827701,0.71935 z M 0.72595099,102.15834 c 0,1.20788 1.28356001,4.71218 2.85238001,7.78735 1.5688199,3.07516 2.8524399,7.25229 2.8524399,9.28242 0,2.03018 -1.28362,6.34799 -2.8524399,9.59505 -1.56882,3.24713 -2.85238001,7.06687 -2.85238001,8.48837 0,4.95059 -2.27959999,2.53203 -4.91145989,-5.21084 -1.45735,-4.28747 -3.13489,-7.49556 -3.72789,-7.12907 -0.59294,0.36655 -0.71595,-0.71854 -0.27329,-2.41112 0.55143,-2.10877 0.28515,-2.75621 -0.84613,-2.05708 -2.3883301,1.47605 -2.0291101,-1.41848 0.48837,-3.93606 1.17667,-1.17662 2.13934,-3.12606 2.13934,-4.3321 0,-2.97367 4.5227499,-12.273015 5.96899991,-12.273015 0.63913999,0 1.16205998,0.988275 1.16205998,2.196095 z m -12.83587999,2.08253 c 0,0.78441 1.06962,1.42619 2.3770001,1.42619 4.6773,0 0.1477,2.10231 -9.3255401,4.32843 -10.39905,2.44368 -13.018403,2.26629 -13.018403,-0.88176 0,-1.24949 1.496533,-2.02646 3.922053,-2.03617 6.82559,-0.0269 14.59142,-1.72692 13.79305,-3.01873 -0.42314,-0.68431 -0.0895,-1.24415 0.74145,-1.24415 0.83071,0 1.51039,0.64178 1.51039,1.42619 z m -0.12614,9.65533 c -0.86704,1.3884 -3.54132,3.92022 -5.9428,5.62628 l -4.36633,3.10195 -3.8648,-3.13041 c -2.12565,-1.7217 -3.57912,-3.45126 -3.22988,-3.84346 0.75078,-0.84328 12.86623,-3.86562 16.4723,-4.10921 2.05158,-0.13853 2.22106,0.29 0.93151,2.35485 z m 31.50266,-0.98251 c 0.39242,0.17519 1.35488,0.44525 2.13929,0.59947 0.78446,0.15416 2.81664,0.85879 4.51602,1.56553 2.96569,1.23338 2.99038,1.40727 0.61515,4.33253 l -2.47462,3.04761 -8.34272,-5.60805 -8.3427101,-5.60806 5.5882701,0.67607 c 3.0735,0.37193 5.90912,0.8195 6.30132,0.9949 z m -2.09724,9.06541 3.22157,3.47615 -5.5797,3.86674 c -3.06886,2.12673 -5.9652901,3.48123 -6.4365101,3.01 -0.82328,-0.82328 3.8970901,-13.81272 5.0235201,-13.82372 0.3024,-0.003 1.99925,1.55896 3.77112,3.47083 z m -28.89716,2.58522 c 0.38811,2.54933 0.52072,4.84295 0.29432,5.09689 -0.2264,0.25389 -2.42751,-0.58076 -4.89151,-1.85494 l -4.48002,-2.31669 3.2778,-2.73277 c 4.45149,-3.71127 4.98406,-3.5453 5.79931,1.80751 z"
       id="path2962" /></g></svg>
