<?xml version="1.0" encoding="UTF-8" standalone="no"?>
<!-- Created with Inkscape (http://www.inkscape.org/) -->

<svg
   width="210mm"
   height="297mm"
   viewBox="0 0 210 297"
   version="1.1"
   id="svg2972"
   xml:space="preserve"
   inkscape:version="1.2.2 (732a01da63, 2022-12-09)"
   sodipodi:docname="Vidar.svg"
   xmlns:inkscape="http://www.inkscape.org/namespaces/inkscape"
   xmlns:sodipodi="http://sodipodi.sourceforge.net/DTD/sodipodi-0.dtd"
   xmlns="http://www.w3.org/2000/svg"
   xmlns:svg="http://www.w3.org/2000/svg"><sodipodi:namedview
     id="namedview2974"
     pagecolor="#ffffff"
     bordercolor="#000000"
     borderopacity="0.25"
     inkscape:showpageshadow="2"
     inkscape:pageopacity="0.0"
     inkscape:pagecheckerboard="0"
     inkscape:deskcolor="#d1d1d1"
     inkscape:document-units="mm"
     showgrid="false"
     inkscape:zoom="2.3786088"
     inkscape:cx="184.14125"
     inkscape:cy="628.09824"
     inkscape:window-width="2560"
     inkscape:window-height="1494"
     inkscape:window-x="-11"
     inkscape:window-y="-11"
     inkscape:window-maximized="1"
     inkscape:current-layer="layer1" /><defs
     id="defs2969" /><g
     inkscape:label="레이어 1"
     inkscape:groupmode="layer"
     id="layer1"><path
       style="fill:#000000;stroke-width:1.50143"
       d="M -70.965502,-149.99252 -75,-145.78143 v 92.442417 92.442354 l 3.6859,6.594762 c 2.027237,3.627111 4.771871,11.988923 6.099244,18.581695 1.327374,6.592831 3.769376,17.306304 5.426734,23.807766 l 3.013332,11.820783 -3.85756,4.026443 c -2.826918,2.95068 -3.857616,5.62915 -3.857616,10.02512 0,6.99046 2.055439,9.60208 7.557249,9.60208 2.174553,0 4.245541,0.29168 4.602084,0.64828 0.356372,0.35637 0.238905,5.59284 -0.261605,11.63613 -1.024059,12.36957 -0.620587,13.15671 8.55271,16.68588 8.508163,3.27323 12.104404,1.93979 15.627835,-5.79463 1.623031,-3.56275 3.459482,-6.77158 4.080972,-7.13073 0.6215,-0.35921 6.426452,0.61236 12.899834,2.15894 11.64525448,2.7822 11.89715457,2.77937 23.821449,-0.26501 6.628462,-1.69237 12.212444,-2.87379 12.408844,-2.62535 0.19635,0.24856 2.209341,3.66105 4.473102,7.58358 4.739921,8.21291 7.227832,8.79002 16.186505,3.75496 l 6.008283,-3.37685 -0.685391,-10.68033 -0.68545,-10.68034 5.391662,-1.33532 5.391612,-1.33531 -0.0341,-8.50828 c -0.0227,-5.93172 -0.82062,-9.37962 -2.635851,-11.38541 -2.048571,-2.26364 -2.302291,-3.810463 -1.189991,-7.254044 0.777551,-2.407281 3.222332,-13.498114 5.432752,-24.646266 2.903301,-14.642254 5.118252,-21.936646 7.978543,-26.275087 l 3.959532,-6.005782 0.41879,-92.455804 c 0.41709,-91.985197 0.40291,-92.476227 -2.736461,-96.467257 l -3.155431,-4.01146 H 0.99214775 -66.93333 Z m 53.898823,-1.58404 c -35.20681,0.30757 -48.549322,0.91079 -50.2981,2.27403 -2.103562,1.63971 -2.140731,1.54999 -0.319487,-0.77216 1.896831,-2.41868 5.894501,-2.59942 50.298097,-2.27403 l 48.237497,0.35354 z m 87.743241,3.43099 3.244631,4.55663 -1.03972,90.409217 c -1.03723,90.188354 -1.04795,90.421984 -4.399551,95.664175 -1.847921,2.890251 -3.915672,7.281972 -4.595052,9.759323 -0.9079,3.3108 -1.402681,3.792471 -1.867151,1.81778 -0.34786,-1.47758 1.421971,-6.633002 3.932352,-11.456513 l 4.564291,-8.769992 0.0874,-90.136554 0.0874,-90.136546 -3.981781,-3.1321 c -2.733401,-2.15004 -3.244231,-3.13205 -1.629441,-3.13205 1.293841,0 3.812512,2.05051 5.597032,4.55663 z m -5.746112,2.64686 c 1.388041,1.38803 1.938771,12.58608 1.361651,27.68724 l -0.15719,4.11133 -18.767937,-0.0709 c -10.322374,-0.0397 -18.767947,-0.32629 -18.767947,-0.63851 0,-0.31211 2.389001,-2.82164 5.308932,-5.57638 l 5.308862,-5.00867 -3.251211,-3.48973 -3.251161,-3.48978 3.348881,-5.95852 c 1.841841,-3.27715 2.971961,-6.33537 2.511341,-6.79598 -1.884971,-1.88497 -5.104122,1.07558 -5.990912,5.50969 -1.198501,5.99246 -3.714551,4.73517 -2.813241,-1.40579 0.5147,-3.50573 0.0976,-4.57042 -1.788441,-4.57042 -2.14805,0 -2.407101,1.995 -2.04721,15.7663 0.38928,14.89988 0.24685,15.76692 -2.590851,15.77657 -1.651571,0.006 -9.928264,0.34899 -18.3926169,0.76268 -9.8454134,0.48121 -15.3897251,0.20656 -15.3897251,-0.76223 0,-0.83305 0.70015,-1.51464 1.5558403,-1.51464 0.9944303,0 1.4007405,-5.14907 1.1260904,-14.27129 -0.7258603,-24.10541 -3.8913817,-15.61927 -4.3323617,11.61422 -0.0227,1.42889 -0.72189,3.0181 -1.55272,3.5316 -1.356541,0.83838 -52.445356,1.03201 -53.275453,0.20202 -0.188968,-0.18897 -0.740891,-6.92701 -1.226591,-14.97359 -0.750879,-12.43961 -0.543638,-14.63011 1.385199,-14.63011 1.247587,0 2.188285,-0.50675 2.09051,-1.12609 -0.09761,-0.61934 -0.09761,-1.4651 0,-1.87947 0.380206,-1.6119 127.967692,-0.43014 129.598212,1.20043 z m -93.385953,15.42815 c 0,12.88007 0.346161,15.05241 2.331461,14.63895 1.282311,-0.26671 2.271641,-1.01629 2.198551,-1.66513 -0.0732,-0.64885 0.88781,-2.20043 2.135401,-3.44802 2.774601,-2.77459 6.535002,-15.04924 6.145602,-20.06025 -0.49767,-6.40198 -3.802401,-5.43008 -3.802401,1.11821 0,3.27715 -0.914761,8.13415 -2.032851,10.79326 l -2.032851,4.83475 -0.82953,-4.28702 c -0.45625,-2.35785 -0.574,-7.1585 -0.26161,-10.66814 0.43355,-4.87407 0.0454,-6.38111 -1.641921,-6.38111 -1.79923,0 -2.209851,2.81012 -2.209851,15.1245 z m 26.5253997,-14.12353 c -0.5504502,0.55044 -1.0009703,7.30699 -1.0009703,15.0144 0,11.9047 0.3654501,14.01337 2.42725083,14.01337 1.66031057,0 2.18738077,-0.91737 1.66808057,-2.90318 -0.51356017,-1.96391 0.7655803,-4.27119 3.9538614,-7.13182 4.2537115,-3.81653 9.9952238,-5.9694 9.7207938,-3.64492 -0.569461,4.82328 0.56293,13.67992 1.74867,13.67992 0.825781,0 1.554811,-2.87152 1.620011,-6.3811 0.0653,-3.50959 0.45909,-5.53654 0.87584,-4.50431 1.05487,2.61428 3.509931,2.35172 3.509931,-0.3751 0,-1.23873 -1.06356,-2.25218 -2.36347,-2.25218 -1.871751,0 -2.284751,-1.48377 -1.984961,-7.13182 0.45568,-8.58046 -2.034441,-10.3062 -3.321071,-2.3019 -0.502211,3.12412 -1.008911,5.09069 -1.126091,4.37023 -0.1169,-0.72047 -1.15537,-0.52775 -2.307171,0.42787 -2.3319104,1.93531 -5.5413615,1.66502 -7.3570421,-0.61957 -0.6813103,-0.85722 -1.0902304,-0.21337 -0.9531804,1.50142 0.3779302,4.72522 -0.0113,6.75649 -1.2877704,6.75649 -1.78419066,0 -2.07910076,-8.67176 -0.3314001,-9.75179 1.0073703,-0.62257 0.9271303,-2.05169 -0.2372001,-4.22766 -0.96760037,-1.80791 -1.58875059,-3.51231 -1.38038051,-3.78753 0.78084027,-1.03167 -0.91346033,-1.71065 -1.87334069,-0.75077 z m -70.5065697,12.86981 c -0.359209,1.86766 -0.666609,0.69317 -0.683236,-2.60997 -0.01702,-3.30315 0.276927,-4.83124 0.652933,-3.39576 0.375667,1.43553 0.389286,4.13812 0.02837,6.00573 z m 105.041772,7.78367 c -1.536601,4.00436 -3.812451,2.62541 -3.674491,-2.22642 0.11519,-4.06083 0.38928,-4.33616 2.35699,-2.36857 1.224551,1.22449 1.817441,3.29224 1.317501,4.59499 z m -104.990245,27.517615 c -0.288843,5.574052 -0.525479,1.013451 -0.525479,-10.134715 0,-11.14815 0.236636,-15.70875 0.525479,-10.1347 0.288843,5.57411 0.288843,14.6953 0,20.269415 z m 43.929193,-12.762215 c 2.8e-4,0.61934 -5.763702,1.12609 -12.808865,1.12609 -10.60151,0 -12.975869,0.43411 -13.775493,2.5177 -0.862557,2.24787 -1.076551,2.20763 -1.99597,-0.3751 -0.846724,-2.37856 -0.199182,-3.03081 3.640731,-3.66728 7.053334,-1.16917 24.939087,-0.8831 24.939597,0.39893 z m 66.739284,-0.57094 c -2.010041,1.84031 -12.687135,3.28164 -12.687135,1.71269 0,-1.54585 3.607592,-2.60543 9.684304,-2.84439 2.594251,-0.10215 3.838321,0.36715 3.002831,1.1317 z m -103.73085,7.02661 c 2.703549,7.934566 13.274189,24.37156 24.402767,37.945594 4.280436,5.221031 9.917248,13.497713 12.526149,18.392555 l 4.743492,8.899722 h -4.106281 c -3.073821,0 -6.566103,-2.496371 -13.88927,-9.928323 -5.380655,-5.460611 -13.272317,-12.562853 -17.537094,-15.782804 -7.709447,-5.820731 -7.759668,-5.912721 -8.709673,-15.971444 -1.071387,-11.344323 -1.301553,-30.38636 -0.367154,-30.38636 0.335375,0 1.657018,3.074 2.937177,6.83106 z m 54.258542,4.972195 c 0,9.774243 -0.3961,11.306303 -3.590911,13.892444 -1.97502,1.59868 -3.259781,3.237881 -2.855001,3.642601 0.4046,0.40461 2.527401,-1.055551 4.716992,-3.245141 3.4534111,-3.453411 4.0046513,-5.297242 4.1588913,-13.911004 0.0976,-5.461465 0.1265501,-10.350465 0.0641,-10.864425 -0.17478,-1.43423 13.7711849,0.37737 15.8988056,2.06537 1.1717705,0.92963 1.8768007,5.32777 1.8768007,11.707916 0,7.710402 0.6417002,10.860613 2.6140614,12.833033 1.86465,1.864651 2.0837,2.790941 0.76387,3.230841 -1.017591,0.33935 -2.9943813,3.027861 -4.3927418,5.974802 -2.2047407,4.646111 -2.6911809,4.979161 -3.6612112,2.50675 -1.0367704,-2.64249 -1.1264304,-2.6165 -1.2242105,0.35467 -0.15208,4.627442 -3.56577123,11.739574 -5.865502,12.221074 -1.0837604,0.22699 -1.5244606,-0.30928 -0.9794004,-1.190961 1.2478705,-2.01906 -6.2167122,-11.983813 -8.9770131,-11.983813 -1.12785,0 -2.394391,0.84457 -2.814601,1.876801 -0.41993,1.03223 -0.5669,-0.30303 -0.32629,-2.967191 0.2406,-2.664231 -0.0709,-4.529681 -0.69243,-4.145501 -0.621611,0.38418 -1.991661,-0.33935 -3.044601,-1.608161 -1.540971,-1.85676 -2.187491,-1.92673 -3.314602,-0.35864 -1.03297,1.436901 -1.1896,1.287431 -0.59716,-0.56991 0.85995,-2.696001 -0.95204,-4.665751 -5.774872,-6.277541 -2.451191,-0.819201 -2.313301,-0.439221 0.75071,2.06821 l 3.753602,3.071831 -5.638292,-2.583181 c -3.857392,-1.76722 -5.043012,-2.961131 -3.753602,-3.779761 1.036601,-0.6581 1.209061,-1.27426 0.383051,-1.36926 -0.825791,-0.0948 0.18783,-0.71359 2.25218,-1.374751 3.252571,-1.04165 2.944441,-1.22205 -2.30887,-1.35178 -4.405632,-0.10838 -7.483143,-1.36397 -11.260803,-4.592941 -3.934,-3.362611 -4.547777,-4.458121 -2.523661,-4.504311 1.471057,-0.0341 3.077059,0.98774 3.568944,2.26955 0.761376,1.984161 1.330834,1.861991 3.831229,-0.82187 2.372089,-2.546131 2.583019,-3.578935 1.096809,-5.369705 -1.012142,-1.21956 -1.406081,-2.6514 -0.875552,-3.18199 0.530587,-0.53058 0.964702,-0.0987 0.964702,0.96 0,1.45704 2.00641,1.67404 8.257913,0.89291 6.222152,-0.77738 8.257903,-0.56066 8.257903,0.87799 0,1.48542 0.40064,1.50942 1.80172,0.10782 0.99092,-0.99092 3.395581,-1.80172 5.343602,-1.80172 2.016851,0 3.135851,-0.65702 2.598851,-1.52587 -0.51867,-0.83929 -1.572011,-1.13722 -2.340761,-0.66213 -0.7687,0.47497 -1.39769,0.0987 -1.39769,-0.8364 0,-0.93508 1.18239,-1.46663 2.627511,-1.1813 2.21575,0.43752 2.62751,2.24055 2.62751,11.504585 z m -18.017236,-1.29316 c -2.516391,1.08132 -2.212401,1.30746 1.876801,1.39587 2.762681,0.0596 4.716831,0.83066 4.504311,1.776921 -0.20656,0.91925 1.144871,1.9285 3.002891,2.24276 1.858011,0.31438 3.378212,-0.0999 3.378212,-0.92066 0,-0.82062 -1.013441,-1.492061 -2.252121,-1.492061 -3.119111,0 -2.834521,-2.63045 0.3751,-3.46929 1.44512,-0.377941 0.26274,-0.717571 -2.627511,-0.755311 -2.890251,-0.0397 -6.606342,0.51186 -8.257903,1.221771 z m 8.257913,15.014344 c -1.23868,0.80053 -1.576501,1.45545 -0.75071,1.45545 0.82578,0 2.514921,-0.65492 3.753601,-1.45545 1.238671,-0.800481 1.576491,-1.455451 0.75071,-1.455451 -0.82579,0 -2.514931,0.65497 -3.753601,1.455451 z M 13.970172,-107.2838 c -0.81603,1.03223 -1.85887,2.89031 -2.31744,4.12898 -0.474981,1.28363 -0.884801,0.47668 -0.952331,-1.87679 -0.0817,-2.85643 0.63222,-4.12899 2.317441,-4.12899 1.739131,0 2.011571,0.53683 0.95233,1.8768 z m 52.810069,17.194627 c -1.204181,21.137426 -0.9239,20.532095 -14.158195,30.579298 -3.716031,2.821131 -6.981663,5.641132 -7.256943,6.266592 -0.27523,0.62553 -1.45761,1.13727 -2.627511,1.13727 -1.16984,0 -2.127,0.90955 -2.127,2.021221 0,3.39768 -16.899086,17.497434 -20.971318,17.497434 -2.2145,0 8.385413,-18.789455 17.114496,-30.337278 9.778904,-12.936593 18.870657,-27.364967 18.872977,-29.950818 10e-4,-1.11179 1.732781,-4.034221 3.848371,-6.494212 2.219441,-2.580804 3.144811,-4.706614 2.187601,-5.025644 -2.279081,-0.75973 1.100441,-4.76529 4.020542,-4.76529 1.85279,0 2.01895,2.88855 1.09698,19.071427 z M 50.592365,-102.3658 c 0.67779,1.76625 1.354271,1.89603 2.955731,0.5669 1.223931,-1.01577 2.076841,-1.11003 2.076841,-0.22982 0,2.281974 -12.102754,12.934957 -19.860217,17.481138 -3.799671,2.226761 -8.087943,5.876402 -9.529553,8.110313 -7.023993,10.884442 -22.2244082,30.164528 -23.2715086,29.517387 -0.6506102,-0.40234 -1.6718305,0.0601 -2.26938075,1.026841 -0.67852024,1.09788 -0.43582015,1.35569 0.64698025,0.68658 2.5454509,-1.573141 2.1146807,1.42469 -0.51867021,3.610201 -2.87731099,2.38798 -5.51435189,0.36659 -10.04941349,-7.702292 -1.7961702,-3.195831 -4.1548112,-5.810632 -5.2414622,-5.810632 -3.103611,0 -2.441491,1.472301 4.816592,10.710743 l 6.7922924,8.645492 -0.4114101,25.692457 -0.4114202,25.692517 -5.752912,-8.7201124 c -5.1365321,-7.78583208 -5.6360821,-9.3635725 -4.6624621,-14.7258339 2.447101,-13.4776837 2.116271,-17.7985847 -1.98264,-25.8936267 -2.207921,-4.360511 -5.895692,-9.987963 -8.195033,-12.505433 -4.598672,-5.034902 -5.420032,-7.776073 -1.928491,-6.436272 1.238681,0.47554 2.252121,0.18216 2.252121,-0.65094 0,-0.833391 2.195891,-2.293671 4.879692,-3.245091 4.524681,-1.604071 4.681981,-1.877311 2.1623,-3.756321 -1.49455,-1.11457 -2.08694,-2.416071 -1.31637,-2.892291 0.77052,-0.47611 4.167631,3.412151 7.549083,8.640832 8.0663225,12.472754 10.35148329,14.401014 9.99652317,8.435183 -0.17137007,-2.880941 0.45284015,-4.486992 1.74384063,-4.486992 2.2771008,0 2.7464509,-2.48916 0.6133802,-3.25309 -1.32544047,-0.474981 9.457663,-17.553945 13.430245,-21.271916 2.15242,-2.014461 -1.799791,4.569971 -7.871573,13.114163 -4.9328018,6.941372 -5.1716519,8.391093 -1.2120605,7.355632 1.6220606,-0.42447 2.866071,-1.20548 2.764491,-1.73624 -0.4267302,-2.229541 2.2718805,-6.220002 4.2062715,-6.220002 1.15038,0 2.091541,-1.29503 2.091541,-2.877761 0,-1.58274 0.50675,-3.10299 1.12609,-3.37822 1.981381,-0.880661 6.381102,-9.864933 6.381102,-13.030404 0,-1.68187 0.686641,-3.482341 1.525931,-4.001011 0.83924,-0.51867 1.18466,-1.49523 0.76757,-2.170071 -0.4171,-0.67484 0.5854,-1.57837 2.227661,-2.00783 4.060941,-1.06197 3.785271,-4.028141 -0.39212,-4.220061 -2.249181,-0.10328 -1.469131,-0.66139 2.333901,-1.669901 6.013782,-1.59476 9.252913,-0.48632 5.505152,1.883721 -1.398931,0.88469 -1.542271,1.40523 -0.390991,1.41982 0.999661,0.0113 2.668821,-0.88827 3.709232,-2.00204 1.0404,-1.113781 3.094021,-1.710591 4.563491,-1.326301 1.469531,0.38418 2.671881,-0.0567 2.671881,-0.97786 0,-0.92209 -1.35132,-1.67654 -3.002891,-1.67654 -4.120351,0 -3.806141,-4.140735 0.37567,-4.946145 6.277263,-1.20906 7.223863,-1.06532 8.104973,1.23084 z m -89.203971,15.709608 c 0.60754,0.48122 -0.2372,0.8751 -1.876797,0.8751 -1.639823,0 -2.98144,-0.90852 -2.98144,-2.01901 0,-1.155431 -0.748893,-1.556181 -1.750822,-0.936951 -1.950116,1.205251 3.909258,6.623922 11.510151,10.644463 8.582663,4.539891 8.914863,7.969352 0.77204,7.969352 -5.409422,0 -6.370495,-0.61316 -10.001805,-6.381111 -2.209564,-3.509581 -5.602026,-8.744343 -7.53875,-11.632714 -2.092893,-3.12121 -2.863633,-5.470831 -1.899896,-5.792071 0.914367,-0.30474 0.100443,-2.235671 -1.866529,-4.427761 -1.918395,-2.137955 0.56577,-0.57683 5.520594,3.469181 4.954711,4.046021 9.505664,7.750192 10.113254,8.231522 z m -12.365437,-4.647761 c 0,0.73743 1.013506,1.72965 2.252183,2.20502 1.371864,0.52661 2.252126,0.003 2.252126,-1.34082 0,-1.21274 -1.013448,-2.205031 -2.252126,-2.205031 -1.238677,0 -2.252183,0.6034 -2.252183,1.340831 z m 85.957233,-7.853642 c -1.032231,0.41652 -2.721361,0.41652 -3.753592,0 -1.03223,-0.416531 -0.18784,-0.757291 1.876801,-0.757291 2.064461,0 2.909031,0.34048 1.876791,0.757291 z m -23.372689,8.295752 c -0.47951,1.19777 -0.83509,0.84202 -0.9071,-0.907101 -0.0653,-1.58274 0.28941,-2.46952 0.78856,-1.97066 0.498801,0.49881 0.552151,1.79395 0.1186,2.877761 z m 33.276722,8.246222 c -2.763361,3.980591 -5.726412,8.588632 -6.584542,10.240253 -1.0101,1.94416 -3.081201,3.00284 -5.874362,3.00284 -2.372771,0 -4.598502,0.844561 -4.946022,1.876791 -0.3473,1.03224 0.39779,1.8768 1.656791,1.8768 1.25876,0 2.771981,0.782091 3.362781,1.737941 1.08024,1.74793 -1.499381,1.40143 -7.278003,-0.97752 -3.942001,-1.622861 -3.341211,2.89785 0.750711,5.648781 4.544941,3.055551 2.768641,4.521561 -2.295311,1.894391 -5.292522,-2.745831 -7.349663,0.15095 -2.751331,3.874581 l 3.313641,2.68324 -4.025021,6.082212 c -2.213761,3.345251 -4.610882,6.082222 -5.326912,6.082222 -0.716041,0 -1.156911,0.50675 -0.979631,1.12609 0.32119,1.12172 -4.1001011,14.194514 -6.1879419,18.296995 -1.1114504,2.18397 1.4514805,11.3894427 4.5542519,16.357714 1.31415,2.10430056 1.13403,3.69623099 -0.804741,7.1127519 C 9.4096307,7.9287628 9.1405306,8.0755129 9.9371509,5.1358921 10.591671,2.7205615 10.367291,1.9011913 9.2412607,2.5969714 8.3270003,3.1621716 7.5789601,4.4941419 7.5789601,5.5571822 c 0,2.2414606 -4.2052515,11.0408528 -5.725452,11.9803028 -1.55203059,0.959191 -1.22846048,-50.549483 0.3331101,-52.984334 1.0089103,-1.57338 0.8168803,-1.79373 -0.7565503,-0.86795 -1.1598004,0.68238 -0.81745028,-0.23153 0.7608103,-2.03053 1.5782505,-1.799231 3.6052012,-4.503402 4.5043016,-6.009242 7.6050922,-12.737413 25.1858192,-36.16487 27.7500002,-36.97868 1.48712,-0.47214 5.336051,-2.82079 8.553163,-5.219551 3.217171,-2.398701 6.088122,-4.122571 6.379922,-3.830711 0.29168,0.29168 -1.730401,3.787361 -4.493812,7.767892 z m -26.608869,3.884171 c -1.482861,1.4718 -1.655311,1.29934 -0.84048,-0.84054 0.56406,-1.480701 1.40336,-2.314031 1.86562,-1.851771 0.46249,0.46249 9.6e-4,1.673811 -1.02514,2.692311 z m -90.672644,19.453955 c -0.317217,3.531441 -0.581091,1.01561 -0.586539,-5.590731 -0.0055,-6.606282 0.254227,-9.495673 0.576665,-6.420772 0.322324,3.074901 0.326864,8.480072 0.01135,12.011503 z m 52.904441,-10.095033 c 0,0.825781 -0.654981,0.488021 -1.455451,-0.75071 -0.80048,-1.23868 -1.45545,-2.927821 -1.45545,-3.753601 0,-0.82579 0.65497,-0.48803 1.45545,0.75071 0.80047,1.238731 1.455451,2.927811 1.455451,3.753601 z m -7.622343,2.729311 c 1.74021,-0.45512 3.164001,-0.15719 3.164001,0.6615 0,2.530241 -9.018773,3.528761 -12.138174,1.343891 -3.661268,-2.564471 -2.110311,-4.189311 2.372091,-2.485131 1.89093,0.71898 4.861871,0.93485 6.602082,0.47951 z m 17.427686,-0.47725 c 0.5101602,0.82579 0.2122401,1.50142 -0.66212,1.50142 -0.874531,0 -1.590061,-0.67563 -1.590061,-1.50142 0,-0.82578 0.29792,-1.50147 0.66213,-1.50147 0.364311,0 1.079671,0.67569 1.590051,1.50147 z m -45.802243,10.149633 c 8.894781,7.295812 14.330992,14.351473 12.873837,16.709154 -0.451708,0.73056 0.184996,2.163141 1.414765,3.183631 1.357108,1.12632 2.235611,1.24231 2.235611,0.29508 0,-0.85807 -0.692542,-1.90358 -1.538983,-2.323401 -0.846441,-0.41992 -0.719725,-0.60276 0.281466,-0.40687 4.016058,0.786681 2.631767,3.926331 -2.99733,6.798082 -7.091582,3.617861 -12.247745,11.346543 -13.3853,20.063535 -0.455112,3.4863813 -1.570535,6.8353122 -2.479,7.4419924 -1.041255,0.6953802 -1.078765,1.1115703 -0.101578,1.1260903 0.852627,0.0114 1.682554,3.0633908 1.844283,6.7794218 0.302463,6.9448318 -1.064179,8.2164825 -5.646685,5.2550114 -2.001927,-1.2937204 -2.001927,-1.4605604 0,-1.5014104 2.001871,-0.0397 2.001871,-0.2099701 0,-1.5244004 -2.001927,-1.3142104 -2.001927,-1.6484505 0,-3.0084508 1.951309,-1.32562039 1.86284,-1.82698052 -0.662353,-3.753601 -2.885027,-2.2011106 -2.885027,-2.2238106 0,-2.2465706 2.321698,-0.017 2.477866,-0.2996201 0.768016,-1.3813904 -2.623763,-1.6604204 -3.478319,-6.1028213 -1.173986,-6.1028213 1.150379,0 1.109124,-0.55953 -0.132788,-1.801721 -3.004366,-3.004371 -2.205763,-6.036031 1.297184,-4.924241 2.443023,0.77534 2.999145,0.3995 2.627508,-1.775621 -0.321189,-1.88128 0.444898,-2.7612 2.408464,-2.76557 1.583928,-0.003 3.192257,-0.943361 3.573995,-2.088691 0.524911,-1.57428 -0.269549,-1.84048 -3.255246,-1.09108 -4.555039,1.14323 -5.109176,-0.10669 -1.321812,-2.981671 2.463907,-1.87033 2.440527,-1.99897 -0.375098,-2.06531 -2.493018,-0.059 -2.620529,-0.317781 -0.750766,-1.526221 1.796105,-1.1607 1.51742,-1.4601 -1.376289,-1.47843 -3.786741,-0.0227 -3.546359,-1.508341 0.33651,-2.078251 1.231017,-0.18046 3.311085,-1.21887 4.622343,-2.30717 1.449039,-1.202531 3.913399,-1.594821 6.283048,-1.000061 2.530471,0.63512 3.560148,0.43072 2.933773,-0.58307 -0.531153,-0.85887 -4.303537,-1.56163 -8.383716,-1.56163 -4.348197,0 -7.41856,-0.67659 -7.41856,-1.634771 0,-1.05607 3.251557,-1.45471 9.184759,-1.12609 l 9.18476,0.50902 -10.106618,-9.384002 c -5.558614,-5.161152 -10.693838,-9.383933 -11.411576,-9.383933 -0.717738,0 -1.497217,17.397885 -1.73215,38.66197 l -0.427307,38.661971 -0.348996,-40.324041 c -0.397797,-45.993592 -1.497274,-43.373351 13.155645,-31.354578 z m 123.12619,-7.146792 c 0,0.82578 -0.78078,1.50147 -1.7351,1.50147 -0.954261,0 -4.039042,1.757351 -6.855063,3.905231 -2.816021,2.147821 -5.491482,3.533701 -5.945462,3.079721 -0.6674,-0.6674 12.470704,-9.987843 14.078865,-9.987843 0.25139,0 0.45682,0.675631 0.45682,1.501421 z m -73.3788856,2.627501 c 1.8676106,2.3814 1.8145006,2.43451 -0.5669002,0.56691 -1.4451205,-1.133361 -2.6275109,-2.315741 -2.6275109,-2.627511 0,-1.23573 1.2329504,-0.44036 3.1943611,2.060601 z m -15.2058554,1.96453 c 0,1.51073 -7.241743,2.703441 -10.786394,1.77653 -1.6392,-0.42844 -2.304561,-1.19243 -1.47861,-1.69719 2.12184,-1.29668 12.265004,-1.36228 12.265004,-0.0794 z m 89.091381,35.571299 -0.24401,37.16066 -6.794852,13.048564 c -3.737141,7.176702 -7.941663,14.798814 -9.343253,16.938014 -1.401661,2.139201 -2.221491,4.216431 -1.821871,4.616041 0.92674,0.926681 10.633854,-14.805904 13.707335,-22.215785 2.871411,-6.922642 4.760471,-7.359032 3.250141,-0.750711 -0.61338,2.683801 -1.26767,6.230952 -1.453971,7.882522 -0.534,4.733852 -3.968851,12.762224 -5.460161,12.762224 -0.745031,0 -1.404151,0.84456 -1.464761,1.87679 -0.14414,2.450741 -10.841264,19.407145 -19.408507,30.764408 -5.977402,7.924012 -7.132722,8.788553 -10.019903,7.498182 -3.236181,-1.44632 -3.220171,-1.51674 1.9113,-8.412152 C 42.460382,61.815327 49.854025,50.084604 48.985575,48.679424 48.129934,47.295023 52.251936,36.64596 54.289447,34.97714 c 2.725,-2.231871 5.562811,-10.186513 4.141181,-11.608093 -1.04602,-1.04602 -1.06021,-3.299561 -0.0454,-6.979842 1.0244,-3.710081 1.00772,-5.435021 -0.0511,-5.435021 -0.85421,0 -0.44603,-1.6891408 0.90637,-3.7536013 1.482121,-2.2620006 1.799341,-3.753601 0.798261,-3.753601 -3.008402,0 -0.514131,-3.649351 3.204681,-4.6885613 3.317101,-0.9269702 3.356311,-1.0312102 0.43923,-1.1675203 -3.975312,-0.18556 -5.853312,-5.6993415 -2.266031,-6.6529217 1.569111,-0.4170902 1.17046,-0.7189302 -1.09579,-0.8297003 -2.990071,-0.1464101 -3.261882,-0.5357001 -1.692941,-2.4263411 1.546531,-1.86346 1.383891,-2.2704 -0.94223,-2.35768 -2.616041,-0.0982 -2.602711,-0.19521 0.19124,-1.39592 2.865221,-1.231241 2.848031,-1.295201 -0.37567,-1.395921 -3.396942,-0.10612 -4.932462,-3.108391 -1.589831,-3.108391 0.9836,0 0.57088,-0.89024 -0.9172,-1.97837 -2.469641,-1.805871 -2.498071,-2.186021 -0.32573,-4.358521 2.17245,-2.172461 2.16474,-2.462661 -0.0885,-3.327431 -1.357911,-0.52094 -3.019291,-0.08 -3.692032,0.98019 -1.44717,2.280781 -1.64743,0.90705 -0.35751,-2.453801 0.50108,-1.30627 2.021451,-2.43304 3.378221,-2.50403 1.356761,-0.0709 0.497671,-0.71791 -1.90881,-1.437571 -2.406591,-0.71967 -4.940292,-0.95954 -5.630342,-0.53286 -0.690101,0.42674 -1.254741,-0.37226 -1.254741,-1.77511 0,-2.872881 4.124392,-6.515252 7.459363,-6.587492 2.957151,-0.0641 9.056403,-7.331682 9.056403,-10.791333 0,-1.52315 1.0135,-2.769321 2.252181,-2.769321 1.23868,0 2.252121,-0.67569 2.252121,-1.50147 0,-0.82578 0.50676,-1.50142 1.12609,-1.50147 0.61934,-6e-5 1.01623,16.722204 0.88203,37.160489 z M 50.369915,-41.59609 c -0.51015,0.82578 0.0857,1.50147 1.324201,1.50147 1.23868,0 2.669731,-0.67569 3.180111,-1.50147 0.51016,-0.82579 -0.0857,-1.501421 -1.324201,-1.501421 -1.23873,0 -2.669721,0.675631 -3.180111,1.501421 z m -6.878892,-2.403751 c -4.304782,4.625231 -8.550833,8.409532 -9.435634,8.409532 -0.88481,0 2.385361,-4.036201 7.267043,-8.969352 4.881672,-4.933141 9.127723,-8.717442 9.435633,-8.409532 0.30814,0.30814 -2.962261,4.344171 -7.267042,8.969352 z m -96.269788,-6.304562 c 3.020482,3.020481 2.048346,4.204002 -3.453294,4.204002 -5.249455,0 -7.599243,-2.844341 -2.627508,-3.180511 1.445123,-0.0976 0.600555,-0.69339 -1.8768,-1.323791 l -4.504309,-1.14613 5.330094,-0.17762 c 2.931559,-0.0976 6.140896,0.63319 7.131817,1.62411 z m -19.660178,9.083693 c -0.358074,1.85802 -0.650663,0.33765 -0.650663,-3.378211 0,-3.716091 0.292816,-5.236291 0.650663,-3.378281 0.358075,1.858081 0.358075,4.898481 0,6.756492 z m 48.869262,11.636123 c 10.006744,6.713082 10.793374,19.6291351 1.463051,24.0229563 -5.334462,2.5121406 -6.481773,4.65060121 -1.844561,3.4379109 2.170351,-0.5675202 3.002891,-0.0454 3.002891,1.88095049 0,1.46640041 2.702581,6.24576161 6.005722,10.62074231 3.303201,4.374982 6.0057823,8.659163 6.0057823,9.520423 0,0.86119 0.5498802,1.39694 1.2223304,1.19049 0.6722302,-0.20656 3.3630112,1.756671 5.9794521,4.362501 2.61639092,2.605831 8.9917132,7.561502 14.1673952,11.012643 5.175622,3.451131 10.231123,7.737702 11.234404,9.525753 2.961921,5.278851 0.40631,20.874905 -4.469572,27.273997 C 9.6075608,85.849683 8.6638005,86.740274 5.3736493,86.309114 c -3.2532511,-0.426181 -3.4065912,-0.0619 -2.6809009,6.376681 0.8038802,7.131982 -1.4743506,12.118645 -4.9307118,10.792345 -1.0057303,-0.38588 -2.4177108,-0.12995 -3.1376611,0.56827 -0.7199502,0.69844 -4.9093715,2.6279 -9.3098335,4.28764 -4.400401,1.65975 -12.327244,5.83651 -17.615176,9.28174 -9.624721,6.27079 -12.635954,11.04709 -12.662284,20.08459 -0.0057,2.53893 1.978433,2.22954 2.409371,-0.3751 1.318805,-7.97151 3.262791,-11.52309 8.782993,-16.04646 7.260512,-5.94949 21.711467,-12.73106 27.1287291,-12.73106 3.2399211,0 3.7107513,0.66678 3.7107513,5.25502 0,2.89025 0.6756302,5.25501 1.5014205,5.25501 0.82578029,0 1.50147053,-2.19583 1.50147053,-4.87969 0,-4.34297 0.45398016,-4.87026 4.12893147,-4.79422 6.1385121,0.12711 28.6096601,11.99856 32.8452711,17.35226 0.905571,1.14453 2.053511,4.72529 2.551011,7.95715 1.311091,8.51719 4.034212,10.46117 3.115761,2.22427 -1.08552,-9.73567 -1.32329,-10.92299 -2.59442,-12.95744 -2.057431,-3.29298 -21.429278,-13.7655 -28.970181,-15.66136 -9.444723,-2.37459 -12.255974,-4.7847 -4.3967712,-3.76943 7.0363622,0.90903 29.2690102,11.85879 33.5282822,16.51303 3.633071,3.96997 6.714552,19.88393 4.232711,21.8593 -4.947672,3.93803 -7.637833,3.15162 -10.648834,-3.11287 -5.177271,-10.77153 -18.820656,-17.79206 -35.9084323,-18.47757 -11.7720337,-0.47213 -26.2975497,6.83191 -30.9035507,15.53977 -5.237712,9.90227 -5.077342,9.79575 -10.51497,6.98388 -4.832251,-2.49887 -4.882018,-2.6333 -3.803877,-10.27629 0.600839,-4.2594 1.170183,-8.92668 1.265234,-10.37186 0.09477,-1.44513 1.065259,-2.62751 2.155997,-2.62751 2.85461,0 9.492325,-4.61706 8.634085,-6.00572 -0.85461,-1.38276 6.276182,-6.32765 9.664553,-6.7019 1.290831,-0.14244 4.248952,-1.05771 6.573593,-2.03371 2.324711,-0.97593 5.365112,-1.79593 6.756492,-1.8222 1.391391,-0.0284 3.5432414,-0.87079 4.7819218,-1.8768 2.6555409,-2.156623 3.8391113,-10.086935 1.5054405,-10.086935 -3.1765911,0 1.3675005,-5.647591 5.3479119,-6.646622 2.6123609,-0.65566 3.6500413,-1.71507 3.0955011,-3.160251 -0.5436302,-1.41613 0.4188001,-2.48848 2.759851,-3.07604 C 9.3979907,78.113791 13.601372,70.435959 13.551322,64.028468 13.511622,58.724416 9.0177906,52.648155 4.644569,51.980754 l -3.2856611,-0.50165 3.1100211,4.367662 c 2.7405009,3.848651 4.2932115,10.660522 2.4299708,10.660522 -0.3739601,0 -2.3475108,-0.75973 -4.3854715,-1.68828 -3.0869411,-1.40648 -4.4530716,-1.15588 -8.1849329,1.50147 -6.0831324,4.331511 -7.8084724,4.026951 -7.1917424,-1.26954 0.87941,-7.553342 5.4671418,-12.998623 10.3075635,-12.234353 0.6193302,0.0976 1.1260304,-0.835661 1.1260304,-2.074341 0,-2.663821 0.72443026,-2.773691 4.6030516,-0.69788 5.3986419,2.889291 2.9509111,-0.27692 -9.7217634,-12.574323 C -15.995688,28.302308 -20.17978,22.949917 -23.168311,16.209205 -25.364992,11.254494 -27.259212,6.0182023 -27.377702,4.573072 c -0.1186,-1.4451204 -0.74725,-2.6275007 -1.397291,-2.6275007 -2.582451,0 -0.9441,-4.3077912 3.345421,-8.7963824 7.657583,-8.0129319 4.863352,-18.0710249 -5.051011,-18.1817449 -13.241842,-0.14754 -21.52801,27.5795274 -15.241386,51.001084 2.555439,9.520812 2.708089,10.969113 1.048007,9.943122 -0.66224,-0.40915 -2.13568,-4.165241 -3.274256,-8.346542 -1.138632,-4.181251 -2.679999,-7.602312 -3.425317,-7.602312 -0.745374,0 -1.070138,-0.84456 -0.721768,-1.8768 0.348428,-1.032231 -0.143002,-4.917192 -1.091418,-8.6332328 -2.844453,-11.1420229 -0.930881,-22.9025362 5.106055,-31.3805682 1.710133,-2.401711 3.109406,-5.142141 3.109406,-6.089882 0,-1.67392 8.623355,-5.552931 10.885415,-4.896541 0.619341,0.17989 1.126031,-0.38247 1.126031,-1.24929 0,-1.661721 0.32063,-1.505441 9.390133,4.578931 z m -7.137942,141.134957 c -2.477361,1.64073 -3.828682,2.97253 -3.002891,2.95959 1.50544,-0.0227 9.668863,-5.87503 8.257902,-5.91918 -0.41312,-0.0113 -2.777661,1.31892 -5.255011,2.95959 z M 45.228003,-21.077045 c 6.192193,9.880703 4.935922,43.442462 -2.23278,59.652236 C 38.143111,49.546634 35.4365,50.660524 39.804441,39.888321 41.736802,35.1227 44.156383,24.791697 45.181353,16.930455 46.935404,3.4768317 46.849834,2.0194013 43.723803,-7.8853713 41.121152,-16.131984 39.349611,-19.129764 35.5341,-21.744225 c -5.884682,-4.032231 -11.053444,-4.184711 -15.519046,-0.45795 -3.604921,3.008621 -3.775451,10.350683 -0.33651,14.4941937 2.663431,3.2092309 -0.72098,2.5914207 -3.672961,-0.6704702 -4.145331,-4.5805115 -4.690722,-12.4237135 -1.1093,-15.9512845 6.908232,-6.804271 12.189294,-8.824192 16.330485,-6.246161 1.214101,0.75581 1.876801,0.29678 1.876801,-1.299681 0,-3.1211 7.697923,3.734751 12.124604,10.798363 z m 2.982971,-1.88639 c 1.800021,3.604181 2.906591,7.473832 2.459021,8.599242 -0.54988,1.3827 -0.85217,1.15923 -0.93224,-0.68937 -0.0653,-1.504541 -1.944951,-5.852052 -4.177272,-9.661153 -2.23227,-3.809091 -3.285491,-6.447781 -2.34048,-5.863741 0.94501,0.58404 3.190951,4.010781 4.990971,7.615022 z m -111.199467,-0.61543 c 0,0.82579 -0.675689,1.50148 -1.501473,1.50148 -0.825786,0 -1.501418,-0.67569 -1.501418,-1.50148 0,-0.825781 0.675632,-1.501411 1.501418,-1.501411 0.825784,0 1.501473,0.67563 1.501473,1.501411 z m 36.750731,3.05862 c -0.42107,0.681021 -0.0783,1.662641 0.76064,2.181301 2.080231,1.28561 1.927981,7.270402 -0.24004,9.4384824 -2.15123,2.1512306 -5.741172,-0.2803301 -5.741172,-3.8884314 0,-1.93593 0.36034,-1.86267 2.022981,0.41142 2.279251,3.1171213 4.882642,0.816641 3.412201,-3.01527 -1.83526,-4.782652 -6.480982,-2.303871 -9.280203,4.951591 -3.711661,9.62058254 -3.066501,13.7576236 4.706722,30.181218 3.654971,7.722442 6.645442,14.258014 6.645442,14.523474 0,0.26558 -2.026901,2.5097 -4.504312,4.987061 -2.47735,2.477351 -4.504311,5.907552 -4.504311,7.622682 0,7.921392 -3.906132,0.70196 -7.858177,-14.523534 -0.910962,-3.509591 -2.300871,-6.381111 -3.088635,-6.381111 -0.787821,0 -0.591249,-1.013451 0.436953,-2.252121 1.295652,-1.56112 1.397059,-2.828001 0.330836,-4.128991 -0.846214,-1.03223 -1.533479,-6.938022 -1.527237,-13.1239735 0.01135,-8.8583524 0.771251,-12.7469534 3.589373,-18.3082345 1.967935,-3.883541 4.554136,-7.605712 5.747126,-8.271413 2.931731,-1.63607 10.049134,-1.95238 9.092203,-0.40404 z m 59.573361,1.899441 c 6.128592,7.123932 9.133753,14.8549438 8.378673,21.5543455 -0.45001,3.9923311 -0.16911,6.1187016 0.73504,5.5600315 0.805081,-0.4976801 0.611281,0.6881702 -0.43071,2.634991 -1.04193,1.94677 -2.041991,7.606742 -2.222391,12.577673 -0.18329,5.056291 -1.63942,12.010433 -3.304731,15.784914 -1.63715,3.710701 -3.639991,8.426102 -4.450731,10.478653 -1.457211,3.689301 -1.495401,3.667171 -3.345471,-1.938711 -1.029341,-3.11883 -1.436391,-6.804501 -0.904551,-8.190432 0.53172,-1.38588 0.50448,-2.05754 -0.0602,-1.49251 -0.5652,0.5652 -2.367431,0.0885 -4.005331,-1.05856 -1.637891,-1.147261 -4.048512,-1.675121 -5.356812,-1.173081 -1.862391,0.71467 -1.673421,-0.20656 0.87033,-4.242191 13.294165,-21.092245 17.660916,-36.1502894 13.062295,-45.043022 -1.252641,-2.42242 -3.294911,-4.404381 -4.538302,-4.404381 -2.967081,0 -4.532791,4.240041 -2.365851,6.406932 1.266771,1.2667701 1.700831,1.04948 1.700831,-0.8516 0,-1.403871 0.61582,-2.552491 1.36857,-2.552491 1.981901,0 0.953471,4.9814912 -1.17489,5.6909414 -4.565482,1.5218504 -8.374923,-7.4191824 -4.718812,-11.0752834 2.672111,-2.67211 7.871173,-2.02781 10.763064,1.333781 z m 18.779407,11.933143 c -0.41652,1.0322303 -0.757291,0.18783 -0.757291,-1.8768005 0,-2.0645205 0.341051,-2.9090305 0.757291,-1.8768005 0.41653,1.0322303 0.41653,2.7213707 0,3.753601 z m -76.526367,27.034977 c 2.995631,6.404942 5.019232,12.072743 4.496881,12.595093 -0.52264,0.522641 -1.64272,-0.66411 -2.48967,-2.6367 -0.846901,-1.972531 -2.200371,-4.599921 -3.007602,-5.838602 -5.224711,-8.016842 -11.265964,-26.0313567 -9.880933,-29.4642176 0.8722,-2.1617805 1.636081,-0.8967702 3.285551,5.44126147 1.181981,4.54182123 4.600092,13.49828313 7.595773,19.90316513 z m 52.143918,-9.137882 c -5.122342,10.142192 -12.373664,20.764875 -14.174715,20.764875 -0.7612,0 0.34843,-2.53371 2.466581,-5.630401 6.103672,-8.924743 12.574664,-22.4884562 12.574664,-26.35742725 0,-5.39937145 2.189081,-6.45402175 2.713701,-1.30739035 0.276931,2.7170507 -1.15474,7.727882 -3.580231,12.5303436 z M 54.123516,1.4451111 c 0,3.0278608 -0.46419,5.0410314 -1.03155,4.4737212 -1.22568,-1.2256803 -1.866981,-7.2504119 -0.9424,-8.8529523 1.34854,-2.3371906 1.97395,-0.9497203 1.97395,4.3792311 z M 24.654586,0.13522079 C 25.718026,1.8559112 20.034114,13.957074 18.162424,13.957074 c -0.866131,0 -1.574841,1.278971 -1.574841,2.842241 0,1.563211 -1.11015,3.268241 -2.467031,3.788891 -1.35688,0.52094 -2.05629,1.357451 -1.55425,1.859501 0.50221,0.50221 0.24572,2.15974 -0.57025,3.683851 -1.425151,2.66298 -1.603341,2.65072 -4.567582,-0.31381 -1.6965106,-1.696511 -4.0457914,-2.715691 -5.2206318,-2.264841 -3.5858513,1.37601 -2.53416091,-0.0341 8.3605128,-11.188553 5.773112,-5.9122115 10.124944,-11.350743 9.670744,-12.08567317 -0.453981,-0.7349402 0.18783,-1.33629033 1.42634,-1.33629033 1.23867,0 2.583811,0.53683011 2.989151,1.19255029 z M 52.790976,12.887274 c -1.22619,1.2262 -1.670351,1.05817 -1.670351,-0.63182 0,-2.9846708 2.019011,-5.0036313 2.765121,-2.7651807 0.31665,0.9496707 -0.17592,2.4783207 -1.09477,3.3970007 z m -108.272326,0.19635 c 0,1.171151 0.410282,3.198041 0.911359,4.504301 0.710531,1.851611 -0.116899,2.374931 -3.753599,2.374931 -2.565711,0 -4.664903,-0.67563 -4.664903,-1.50142 0,-0.825781 0.675632,-1.501471 1.501418,-1.501471 0.825784,0 1.421403,-0.50675 1.323627,-1.12603 -0.48916,-3.097041 0.398933,-4.879691 2.429972,-4.879691 1.238678,0 2.252126,0.95823 2.252126,2.12938 z m -5.311254,14.274694 c 5.66564,11.250523 8.314145,14.155814 8.314145,9.120352 0,-1.74906 -0.655828,-2.77477 -1.457439,-2.27936 -0.801554,0.4954 -1.888262,-0.81603 -2.414876,-2.914251 -0.526614,-2.098291 -1.481102,-3.815001 -2.121096,-3.815001 -0.639938,0 -1.51691,-1.35132 -1.948813,-3.002891 -0.626659,-2.39644 -0.0454,-3.002891 2.87487,-3.002891 4.011686,0 3.928154,-0.1606 6.628241,12.762214 1.03524,4.954761 2.177333,8.164042 2.537962,7.131812 1.113493,-3.187091 3.1245,-2.079671 4.089883,2.25218 1.320564,5.925662 20.069216,33.616179 30.68082,45.313482 5.7795316,6.370832 6.0532817,8.811643 0.54307,4.842062 -9.577334,-6.899602 -20.634527,-21.396746 -27.375296,-35.89191 -4.59062,-9.871573 -7.533075,-13.502364 -7.533075,-9.295362 0,3.21604 -2.953408,-0.418791 -9.903974,-12.189464 -3.916747,-6.632891 -7.622396,-12.369463 -8.234811,-12.747963 -1.580466,-0.97679 3.413797,9.015812 9.74877,19.505475 2.962941,4.906141 5.387123,10.108833 5.387123,11.561503 0,1.452671 0.907162,3.181531 2.015831,3.841901 1.10867,0.66042 3.27034,3.227661 4.80365,5.705022 3.005161,4.855401 7.513214,9.759322 8.971444,9.759322 0.49597,0 0.41993,-0.78005 -0.1691,-1.7334 -0.66905,-1.08262 -0.41142,-1.3255 0.68664,-0.64698 0.966801,0.59755 1.342861,1.75798 0.8356,2.57871 -0.50732,0.820791 0.0567,2.632101 1.248551,4.025251 4.049421,4.724712 4.109231,5.954082 0.40801,8.379403 -2.454991,1.60855 -3.471341,1.78969 -3.027801,0.53966 0.7452,-2.100321 -7.314599,-11.641113 -9.834174,-11.641113 -0.886164,0 -1.234592,-0.60935 -0.774316,-1.354101 0.46022,-0.74481 -1.526726,-4.866581 -4.415668,-9.159512 -2.888943,-4.292981 -5.252634,-8.538462 -5.252634,-9.434503 0,-0.89603 -1.300703,-3.024 -2.890531,-4.728801 -7.581936,-8.130392 -12.531255,-24.354696 -8.826288,-28.933627 0.805924,-0.996081 1.029451,-2.516281 0.496538,-3.378211 -0.532856,-0.861991 -0.599363,-1.567251 -0.14811,-1.567251 0.45114,0 3.176878,4.679261 6.056968,10.398353 z m 3.209337,-3.380821 c 0.908409,0.68221 2.078877,2.253881 2.601065,3.492561 0.667063,1.58239 0.845589,1.3962 0.600498,-0.62632 -0.191805,-1.583131 -1.362386,-3.154801 -2.601064,-3.492561 -1.448528,-0.39496 -1.662806,-0.17138 -0.600499,0.62632 z m 108.841962,-0.8831 c -0.95982,2.4008 -1.48127,2.779131 -1.54432,1.12018 -0.12655,-3.328161 1.817101,-8.274132 2.475421,-6.299332 0.28488,0.854781 -0.13392,3.185391 -0.931101,5.179152 z m -3.312791,18.834785 c -1.86119,10.582273 -4.332021,16.574034 -3.189361,7.734182 0.48462,-3.749791 -0.92089,-1.877871 -5.883492,7.835372 -7.549083,14.775714 -21.942718,33.502289 -28.26248,36.77036 -7.1458324,3.695261 -6.5965222,0.002 1.081481,-7.271702 3.931221,-3.724091 9.495393,-10.702403 12.364814,-15.507354 2.869371,-4.804962 5.909772,-9.232653 6.756442,-9.839343 0.846661,-0.60668 0.975881,-1.11343 0.28714,-1.12609 -1.19799,-0.0227 3.658322,-6.541132 11.518594,-15.462694 2.025031,-2.298381 4.134212,-6.590222 4.687092,-9.537393 0.55272,-2.947161 1.331181,-5.032511 1.729541,-4.634141 0.39837,0.39836 -0.0919,5.365841 -1.089771,11.038803 z M -14.033038,34.7203 c -0.42333,0.68443 1.192831,3.624671 3.590792,6.533812 l 4.3599513,5.289351 -5.1808523,5.021441 c -4.096351,3.970381 -5.180851,6.202192 -5.180851,10.662063 0,5.951762 2.620021,13.288994 4.745321,13.288994 0.693221,0 1.260411,-0.66189 1.260411,-1.470881 0,-0.80905 2.5337006,-2.76121 5.6303917,-4.338211 l 5.63040199,-2.867321 2.87935101,3.828501 c 2.873741,3.820901 2.873001,3.826811 -0.3739601,2.977701 -1.7893007,-0.4676 -3.66541131,-0.18386 -4.16927149,0.63142 -0.50392021,0.815181 -2.49001091,1.087051 -4.41374151,0.604251 -4.4971616,-1.128701 -6.1642226,1.56633 -3.0781911,4.976331 2.791961,3.085111 3.0684311,5.577511 0.7757902,6.994432 -1.9922307,1.23124 -9.4741737,-5.732832 -13.7921847,-12.837634 -1.756601,-2.89025 -3.905111,-5.751441 -4.774532,-6.358121 -0.86937,-0.606691 -1.11491,-1.113441 -0.54591,-1.126041 0.56923,-0.0113 -0.0113,-3.08551 -1.28396,-6.828611 -3.266312,-9.586193 -1.708601,-15.375145 5.744172,-21.346306 5.707922,-4.573261 9.911293,-6.442002 8.176592,-3.635171 z m -26.433915,9.265512 c 0,0.825781 -0.297922,1.501471 -0.662126,1.501471 -0.364316,0 -1.079671,-0.67569 -1.590056,-1.501471 -0.510157,-0.82579 -0.212235,-1.50142 0.662127,-1.50142 0.87453,0 1.590055,0.67563 1.590055,1.50142 z m -25.524431,3.180111 c 0,0.82579 -0.675632,1.083871 -1.501417,0.57349 -0.825785,-0.51016 -1.501474,-1.60356 -1.501474,-2.42935 0,-0.82578 0.675689,-1.083871 1.501474,-0.57349 0.825785,0.51016 1.501417,1.60357 1.501417,2.42935 z m 7.203886,10.108203 c 0.820564,2.353821 4.940523,9.112752 9.155477,15.019794 4.215011,5.907041 7.663595,11.413333 7.663595,12.236113 0,0.82277 0.654352,1.49602 1.45409,1.49602 1.4933,0 14.233614,16.418437 13.318504,17.163477 -4.065192,3.30949 -15.355615,8.45845 -17.088958,7.79331 -1.485925,-0.57019 -2.885764,0.45625 -4.021673,2.94949 -1.294347,2.84082 -2.537337,3.61065 -4.834009,2.99381 -1.700373,-0.45681 -3.59834,-0.83963 -4.217679,-0.85086 -2.746904,-0.0511 -0.72171,-7.1935 3.236463,-11.41606 4.055438,-4.32629 4.23266,-5.009703 2.62853,-10.134704 -0.946032,-3.022581 -2.270285,-5.495632 -2.942739,-5.495632 -0.672454,0 -0.737089,-0.78566 -0.143571,-1.74588 0.656622,-1.06242 2.462601,1.12087 4.613036,5.576551 l 3.533931,7.322485 -4.524397,3.54085 c -2.48842,1.94751 -4.524396,4.41624 -4.524396,5.48615 0,1.06991 2.412891,-0.33027 5.361929,-3.11168 2.949094,-2.78134 6.327311,-5.05696 7.507198,-5.05696 3.006466,0 2.669842,-2.062763 -0.85762,-5.255024 -1.651569,-1.49466 -3.002891,-3.688681 -3.002891,-4.875541 0,-1.186931 -1.351263,-3.875891 -3.002834,-5.975542 -1.65157,-2.09964 -3.002891,-3.050781 -3.002891,-2.1136 0,0.93712 -0.924865,1.70389 -2.055213,1.70389 -1.399158,0 -1.887808,-1.43786 -1.530755,-4.504311 0.288276,-2.477351 -0.137895,-4.504311 -0.947679,-4.504311 -0.809668,0 -1.472078,-1.728971 -1.472078,-3.842181 0,-2.113201 -0.509022,-3.527571 -1.131256,-3.143051 -0.622119,0.38474 -1.168197,-1.09585 -1.213424,-3.289631 -0.0454,-2.193791 -0.562365,-5.846782 -1.149528,-8.117692 -1.413062,-5.466452 1.277039,-5.339392 3.190895,0.15095 z m 116.020306,8.875942 c -1.710131,5.742192 -3.109292,11.283503 -3.109292,12.313913 0,1.030471 -1.5202,3.818011 -3.378271,6.194522 -8.575463,10.968603 -10.130453,13.187024 -10.070643,14.367194 0.0341,0.69521 2.709061,4.276813 5.941832,7.959193 6.375712,7.26233 10.114673,7.32867 4.758761,0.0846 -1.80711,-2.44427 -2.43474,-4.11451 -1.39473,-3.7116 2.721701,1.05436 6.975422,9.04204 5.814992,10.91963 -1.44444,2.33713 -9.536983,5.10724 -10.555994,3.61337 -1.42958,-2.09578 -17.555706,-12.34608 -19.423317,-12.34608 -2.70945,0 -2.03535,-2.39933 2.032231,-7.233333 2.064461,-2.453521 3.753602,-5.151632 3.753602,-5.995852 0,-0.84423 0.52321,-1.76013 1.16212,-2.03541 1.635911,-0.704521 13.842235,-17.049975 20.472007,-27.413998 3.060321,-4.784011 5.911122,-8.351312 6.335082,-7.927302 0.423901,0.42391 -0.6283,5.469012 -2.33838,11.211263 z m -0.819091,22.174186 c -1.37226,6.168082 -3.170121,11.214723 -3.995221,11.214723 -0.87839,0 -1.047561,-1.40024 -0.40802,-3.378271 3.208831,-9.925992 5.115992,-16.222774 5.115992,-16.891144 0,-4.358291 0.34275,-5.743262 1.00976,-4.082901 0.42503,1.0576 -0.35013,6.969461 -1.722391,13.137593 z m -78.863437,-0.79678 c 2.00187,1.29372 2.00187,1.46056 0,1.50141 -1.996821,0.0397 -1.997671,0.20713 -0.006,1.465161 1.925651,1.2174 1.818971,1.741 -0.75071,3.682831 -3.539831,2.67501 -3.853421,2.72058 -6.630462,0.96295 -1.816191,-1.14953 -1.755191,-1.927531 0.40972,-5.232041 2.789411,-4.257172 3.630461,-4.544032 6.978543,-2.380311 z m 50.036207,6.897502 c -0.44546,1.16111 -1.08483,2.11111 -1.42055,2.11111 -0.496541,0 -5.080232,-2.38429 -7.967303,-4.144471 -0.3524,-0.21507 0.66088,-1.34576 2.252181,-2.51288 2.50669,-1.838551 3.230731,-1.817611 5.419522,0.15662 1.3894,1.25326 2.16167,3.22863 1.71615,4.389681 z m 22.825878,-0.4744 c -2.008281,4.806481 -5.297462,8.748994 -5.297462,6.349664 0,-1.339513 6.631813,-12.647296 7.126993,-12.152126 0.23096,0.23096 -0.5925,2.841841 -1.829531,5.802462 z m -62.643842,4.472811 c 0.30303,1.54613 -0.97225,2.606173 -3.753601,3.120073 -9.398074,1.73635 -12.049304,-0.0284 -6.201392,-4.121894 3.945401,-2.76341 9.323163,-2.22227 9.954993,1.001821 z m 31.521641,-0.0857 c 3.226191,3.226193 1.921861,4.239303 -4.947282,3.842803 -3.712001,-0.2145 -6.7524019,-0.51015 -6.7564819,-0.65764 -0.004,-0.14754 1.0543003,-1.32981 2.3520008,-2.627513 2.8099511,-2.809951 6.8580621,-3.051351 9.3517631,-0.55782 z m 39.337664,22.221233 c 0,0.82578 -2.048181,1.50147 -4.551472,1.50147 -2.65287,0 -4.910501,0.93582 -5.412311,2.2435 -0.473281,1.23397 -1.465781,1.8697 -2.205031,1.41283 -2.246561,-1.38843 -1.519911,-3.11269 2.0341,-4.82674 4.325902,-2.08631 10.134714,-2.27602 10.134714,-0.33084 z m -52.7418085,4.39274 c 2.813531,0.15208 -0.8087603,4.61587 -3.7458813,4.61587 -1.8713507,0 -2.724091,1.85258 -2.24616083,4.8797 0.09760003,0.61934 -1.58359057,1.12609 -3.73641127,1.12609 -2.801321,0 -3.6768213,0.6186 -3.0793211,2.17569 0.5544202,1.44489 0.11349,1.89881 -1.3133005,1.35132 -1.5820006,-0.60703 -1.7596806,-1.55022 -0.6742702,-3.57842 2.1389107,-3.99654 1.8108006,-7.00528 -0.8764103,-8.03643 -1.779931,-0.68301 -2.129491,-0.206 -1.440351,1.96515 0.500511,1.5769 0.312111,3.23641 -0.41823,3.68784 -1.79304,1.10816 -12.307104,-0.672 -12.307104,-2.08376 0,-2.60646 18.4911865,-7.57292 24.77371869,-6.6539 1.65157061,0.24175 3.93014141,0.48973 5.06350181,0.55102 z m 9.2001435,3.11445 c 0,0.82579 1.01345,1.50142 2.252181,1.50142 4.082791,0 2.34689,2.23846 -3.044662,3.92601 -5.9445417,1.86062 -7.6360123,0.60089 -5.2298714,-3.89496 1.6661504,-3.11327 6.0223524,-4.22172 6.0223524,-1.53247 z m -11.1043442,7.10056 c -1.5262805,1.52621 -2.785551,-0.77159 -1.5333105,-2.79775 0.9459703,-1.53058 1.2996204,-1.53178 1.8081906,-0.006 0.3478601,1.04318 0.2241501,2.3049 -0.2746601,2.80382 z m -28.6837198,-1.09482 c 0.51016,0.82578 2.23936,1.50147 3.842241,1.50147 1.602821,0 2.914251,0.55839 2.914251,1.2414 0,0.68273 -1.866531,0.96743 -4.147771,0.63262 -3.664452,-0.53797 -4.539662,0.19805 -7.511343,6.31448 -1.849951,3.80779 -4.353752,7.30325 -5.563942,7.76761 -2.572471,0.98717 -15.808578,-3.7435 -15.808578,-5.65009 0,-1.85342 2.097944,-1.6018 4.204059,0.50448 0.990919,0.99092 1.801724,1.25105 1.801724,0.57803 0,-0.67302 1.575528,-0.19124 3.501188,1.07037 4.493696,2.94438 5.739187,2.00272 10.024508,-7.5791 3.510322,-7.84893 4.978142,-9.23781 6.743663,-6.3811 z m 49.932417,0.34615 c -0.33878,1.01629 -5.631362,3.01555 -11.761254,4.44274 -13.14032448,3.05941 -17.9017462,3.33639 -17.9017462,1.04148 0,-0.92214 1.3081305,-1.33447 2.9069811,-0.91635 2.840651,0.74282 21.8742881,-3.67064 23.6988781,-5.49523 1.617071,-1.61707 3.695152,-0.98672 3.057141,0.92736 z m 9.634144,13.72306 c 1.10362,2.01123 1.06934,2.51708 -0.12087,1.78158 -0.914031,-0.56521 -2.703271,-3.18012 -3.976052,-5.8116 -2.148111,-4.44109 -2.139431,-4.56894 0.12087,-1.78157 1.339181,1.65157 3.128411,4.26682 3.976102,5.81159 z m 14.058945,-3.64862 c -0.548181,0.88656 -3.149241,2.63585 -5.780722,3.8873 -4.739412,2.25388 -4.749912,2.25025 -1.115481,-0.38588 2.017931,-1.46374 4.382702,-3.43775 5.255012,-4.38673 1.884921,-2.05045 3.062871,-1.41488 1.641191,0.88548 z"
       id="path3105" /></g></svg>
