<?xml version="1.0" encoding="UTF-8" standalone="no"?>
<!-- Created with Inkscape (http://www.inkscape.org/) -->

<svg
   width="210mm"
   height="297mm"
   viewBox="0 0 210 297"
   version="1.1"
   id="svg301"
   xml:space="preserve"
   inkscape:version="1.2.2 (732a01da63, 2022-12-09)"
   sodipodi:docname="Baldr_svg.svg"
   xmlns:inkscape="http://www.inkscape.org/namespaces/inkscape"
   xmlns:sodipodi="http://sodipodi.sourceforge.net/DTD/sodipodi-0.dtd"
   xmlns="http://www.w3.org/2000/svg"
   xmlns:svg="http://www.w3.org/2000/svg"><sodipodi:namedview
     id="namedview303"
     pagecolor="#ffffff"
     bordercolor="#000000"
     borderopacity="0.25"
     inkscape:showpageshadow="2"
     inkscape:pageopacity="0.0"
     inkscape:pagecheckerboard="0"
     inkscape:deskcolor="#d1d1d1"
     inkscape:document-units="mm"
     showgrid="false"
     inkscape:zoom="0.5946522"
     inkscape:cx="462.4552"
     inkscape:cy="491.04334"
     inkscape:window-width="2560"
     inkscape:window-height="1494"
     inkscape:window-x="-11"
     inkscape:window-y="-11"
     inkscape:window-maximized="1"
     inkscape:current-layer="layer1" /><defs
     id="defs298" /><g
     inkscape:label="레이어 1"
     inkscape:groupmode="layer"
     id="layer1"><path
       style="fill:#000000;stroke-width:1.44346"
       d="m 71.292464,-143.82637 3.692936,5.34014 0.0073,91.600188 L 75,44.714148 71.192594,55.445583 c -3.168692,8.93112 -5.155653,11.984396 -11.84421,18.200507 -7.958535,7.396463 -8.064681,7.605364 -10.903602,21.462813 -1.577286,7.696537 -4.170616,16.091507 -5.763499,18.655477 -2.20889,3.55557 -2.667951,5.98888 -1.934571,10.25423 1.295497,7.53464 -0.470296,18.10328 -3.672385,21.98014 l -2.616395,3.16775 -9.223834,-4.35572 -9.223841,-4.35578 -8.2289322,2.84771 c -8.10600021,2.80516 -8.34906562,2.80754 -16.2741184,0.16061 l -8.0449594,-2.6871 -6.192482,4.02671 c -7.442139,4.83937 -9.217802,4.13421 -14.372031,-5.70727 -3.364188,-6.42357 -4.127118,-11.81952 -3.128021,-22.12339 0.190758,-1.96742 -1.760522,-10.49836 -4.33622,-18.957587 -4.598651,-15.105152 -4.820957,-15.483219 -12.417762,-21.119122 -8.76031,-6.499048 -9.679399,-7.883597 -14.523965,-21.879537 L -75,44.928359 v -91.989666 -91.989623 l 4.519383,-5.05779 4.519376,-5.05778 H 0.81958383 67.600405 Z"
       id="path139198"
       sodipodi:nodetypes="ccccsscssscccsccsssssscccccccc" /></g></svg>
