<?xml version="1.0" encoding="UTF-8" standalone="no"?>
<!-- Created with Inkscape (http://www.inkscape.org/) -->

<svg
   width="210mm"
   height="297mm"
   viewBox="0 0 210 297"
   version="1.1"
   id="svg142762"
   xml:space="preserve"
   inkscape:version="1.2.2 (732a01da63, 2022-12-09)"
   sodipodi:docname="Bragi_svg.svg"
   xmlns:inkscape="http://www.inkscape.org/namespaces/inkscape"
   xmlns:sodipodi="http://sodipodi.sourceforge.net/DTD/sodipodi-0.dtd"
   xmlns="http://www.w3.org/2000/svg"
   xmlns:svg="http://www.w3.org/2000/svg"><sodipodi:namedview
     id="namedview142764"
     pagecolor="#ffffff"
     bordercolor="#000000"
     borderopacity="0.25"
     inkscape:showpageshadow="2"
     inkscape:pageopacity="0.0"
     inkscape:pagecheckerboard="0"
     inkscape:deskcolor="#d1d1d1"
     inkscape:document-units="mm"
     showgrid="false"
     inkscape:zoom="0.84096521"
     inkscape:cx="617.148"
     inkscape:cy="214.03977"
     inkscape:window-width="2560"
     inkscape:window-height="1494"
     inkscape:window-x="-11"
     inkscape:window-y="-11"
     inkscape:window-maximized="1"
     inkscape:current-layer="layer1" /><defs
     id="defs142759" /><g
     inkscape:label="레이어 1"
     inkscape:groupmode="layer"
     id="layer1"><path
       style="fill:#000000;stroke-width:1.34906"
       d="M -70.070374,-143.82124 -75,-138.47684 v 92.875609 c 0,66.53916 0.437923,93.702576 1.543345,95.791899 0.84885,1.603976 3.59056,5.398351 6.0927,8.432005 4.32761,5.246795 6.43701,11.025368 14.979041,41.034382 1.017013,3.572885 2.479367,7.239985 3.249752,8.149115 0.794598,0.93783 1.043339,4.20593 0.574864,7.55361 -0.671981,4.80188 0.0051,7.88372 3.649912,16.55083 2.461593,5.85765 5.054667,11.40125 5.76235,12.31916 1.95149,2.5311 4.908143,2.01685 9.32272,-1.6214 l 3.992316,-3.29024 4.383305,2.6449 c 2.410845,1.45471 8.23775,3.82322 12.9487196,5.2634 8.0676337,2.46626 9.0924269,2.4987 17.6353824,0.55815 4.988517,-1.13312 10.736752,-3.22262 12.773821,-4.64333 4.644201,-3.23903 5.491609,-3.2237 9.908352,0.17922 4.746058,3.65655 7.454996,2.57764 12.779266,-5.08966 4.683206,-6.74415 7.074626,-17.06443 4.85452,-20.95003 -1.354579,-2.37075 0.897793,-12.43693 6.442522,-28.792741 1.6181,-4.773057 3.451704,-12.583619 4.074585,-17.356699 1.064414,-8.155474 1.529231,-9.022203 7.714721,-14.384458 L 74.264287,51.040831 74.632138,-43.950092 75,-138.94101 l -3.454082,-5.11227 -3.454134,-5.11222 H 1.4756951 -65.140386 Z"
       id="path143258" /></g></svg>
