<?xml version="1.0" encoding="UTF-8" standalone="no"?>
<!-- Created with Inkscape (http://www.inkscape.org/) -->

<svg
   width="210mm"
   height="297mm"
   viewBox="0 0 210 297"
   version="1.1"
   id="svg145809"
   xml:space="preserve"
   inkscape:version="1.2.2 (732a01da63, 2022-12-09)"
   sodipodi:docname="Brunhild_svg_A.svg"
   xmlns:inkscape="http://www.inkscape.org/namespaces/inkscape"
   xmlns:sodipodi="http://sodipodi.sourceforge.net/DTD/sodipodi-0.dtd"
   xmlns="http://www.w3.org/2000/svg"
   xmlns:svg="http://www.w3.org/2000/svg"><sodipodi:namedview
     id="namedview145811"
     pagecolor="#ffffff"
     bordercolor="#000000"
     borderopacity="0.25"
     inkscape:showpageshadow="2"
     inkscape:pageopacity="0.0"
     inkscape:pagecheckerboard="0"
     inkscape:deskcolor="#d1d1d1"
     inkscape:document-units="mm"
     showgrid="false"
     inkscape:zoom="0.5946522"
     inkscape:cx="-8.4082763"
     inkscape:cy="317.83284"
     inkscape:window-width="2560"
     inkscape:window-height="1494"
     inkscape:window-x="-11"
     inkscape:window-y="-11"
     inkscape:window-maximized="1"
     inkscape:current-layer="layer1" /><defs
     id="defs145806"><inkscape:path-effect
       effect="mirror_symmetry"
       start_point="0,142.41"
       end_point="0,-50.16"
       center_point="71.8945,-0.27844926"
       id="path-effect150118"
       is_visible="true"
       lpeversion="1.2"
       lpesatellites=""
       mode="free"
       discard_orig_path="false"
       fuse_paths="true"
       oposite_fuse="true"
       split_items="false"
       split_open="false"
       link_styles="false" /></defs><g
     inkscape:label="레이어 1"
     inkscape:groupmode="layer"
     id="layer1"><path
       style="fill:#000000;stroke-width:1.40187"
       d="m -64.600321,-154.2629 c -1.604942,0.64933 -4.601435,3.18106 -6.658877,5.62627 L -75,-144.19099 v 87.960821 c 0,78.596679 0.250035,88.696194 2.3487,94.869374 2.573944,7.571131 8.604405,19.198109 14.48974,27.936762 2.077106,3.084095 5.141546,9.286204 6.809863,13.782451 1.668311,4.496257 3.946621,9.941105 5.062905,12.099768 2.008416,3.883846 1.941003,4.001896 -6.460025,11.308904 -7.381769,6.42045 -8.411635,7.91549 -7.89195,11.45636 0.422025,2.87534 -0.125256,4.45917 -1.861965,5.38868 -2.590512,1.38635 -6.368065,10.73816 -4.921786,12.18438 0.465048,0.46521 -0.134952,2.34204 -1.333352,4.17103 -1.448409,2.21054 -2.037557,5.77308 -1.757252,10.62598 0.372589,6.45119 0.805194,7.3548 3.718458,7.76718 5.001199,0.70787 9.137973,-0.7287 13.356655,-4.63847 2.099958,-1.94619 5.330209,-3.53855 7.178329,-3.53855 1.848121,0 5.061941,-1.57704 7.141823,-3.50469 2.079882,-1.92754 5.32891,-3.50464 7.220065,-3.50464 2.02091,0 5.075241,-1.75215 7.408718,-4.25024 3.868755,-4.14152 4.136032,-4.20844 10.453835,-2.61757 3.572008,0.89947 8.251896,3.40089 10.421349,5.57037 4.571058,4.57106 8.620258,4.25066 11.37693,-0.90021 0.990016,-1.84987 2.802992,-3.63923 4.028838,-3.97632 1.225846,-0.33698 3.615408,-1.01053 5.310127,-1.49645 2.438589,-0.69925 3.524831,-0.0265 5.207533,3.22816 1.506634,2.91354 3.530669,4.37513 6.945864,5.01583 2.903149,0.54463 5.7229,2.28269 7.091148,4.37094 1.346068,2.05433 3.60912,3.46675 5.55478,3.46675 1.80582,0 4.93567,1.29972 6.95524,2.88833 4.59179,3.61192 12.78668,5.08008 15.55085,2.786 3.29013,-2.73058 4.3731,-13.69519 1.64985,-16.70433 -1.24862,-1.37972 -2.27023,-4.71464 -2.27023,-7.4109 0,-3.41647 -1.06218,-5.90009 -3.50467,-8.19476 -1.95276,-1.8345 -3.50467,-4.86784 -3.50467,-6.85017 0,-2.27607 -2.06272,-5.65948 -5.72605,-9.39216 l -5.72606,-5.834452 2.95642,-5.795079 c 1.62604,-3.187305 4.59454,-10.336366 6.59669,-15.886804 2.00213,-5.550389 5.96303,-13.27327 8.80198,-17.161946 2.83895,-3.888626 6.54763,-9.352644 8.24152,-12.142259 L 75,43.815043 v -94.130223 -94.13024 l -3.15421,-4.81422 c -1.73481,-2.64792 -4.41588,-5.15379 -5.95794,-5.56872 -4.62166,-1.24361 -127.330748,-0.71185 -130.488171,0.56546 z"
       id="path157174"
       sodipodi:nodetypes="sscsssssssssssssssssssssscsssssssssscsssscccsss" /></g></svg>
