<?xml version="1.0" encoding="UTF-8" standalone="no"?>
<!-- Created with Inkscape (http://www.inkscape.org/) -->

<svg
   width="210mm"
   height="297mm"
   viewBox="0 0 210 297"
   version="1.1"
   id="svg159363"
   xml:space="preserve"
   inkscape:version="1.2.2 (732a01da63, 2022-12-09)"
   sodipodi:docname="Freyja_svg.svg"
   xmlns:inkscape="http://www.inkscape.org/namespaces/inkscape"
   xmlns:sodipodi="http://sodipodi.sourceforge.net/DTD/sodipodi-0.dtd"
   xmlns="http://www.w3.org/2000/svg"
   xmlns:svg="http://www.w3.org/2000/svg"><sodipodi:namedview
     id="namedview159365"
     pagecolor="#ffffff"
     bordercolor="#000000"
     borderopacity="0.25"
     inkscape:showpageshadow="2"
     inkscape:pageopacity="0.0"
     inkscape:pagecheckerboard="0"
     inkscape:deskcolor="#d1d1d1"
     inkscape:document-units="mm"
     showgrid="false"
     inkscape:zoom="0.5946522"
     inkscape:cx="-334.6494"
     inkscape:cy="206.8436"
     inkscape:window-width="2560"
     inkscape:window-height="1494"
     inkscape:window-x="-11"
     inkscape:window-y="-11"
     inkscape:window-maximized="1"
     inkscape:current-layer="layer1" /><defs
     id="defs159360" /><g
     inkscape:label="레이어 1"
     inkscape:groupmode="layer"
     id="layer1"><path
       style="fill:#000000;stroke-width:1.36363"
       d="M -70.641593,-148.2298 -75,-143.73307 v 80.22575 c 0,74.41183 0.188633,80.978741 2.603091,90.617006 1.431697,5.71523 3.643421,16.220907 4.91494,23.345928 1.271514,7.124972 4.431396,22.465937 7.021958,34.090946 3.799703,17.05098 5.722536,22.84965 9.947987,30.00003 7.026794,11.89089 14.680372,20.3367 25.289749,27.90743 9.976767,7.11925 17.7402834,10.27448 25.2806625,10.27448 11.4064215,0 28.2793815,-10.59691 43.3903515,-27.25093 C 52.98725,114.96503 53.40154,114.20674 58.75431,97.46328 66.26577,73.967432 67.40519,61.423692 70.57272,36.395281 73.02349,17.0304 73.75605,17.546711 74.16139,10.74912 L 74.7973,0.08491264 75,-69.879041 v -73.815069 l -3.06818,-4.50688 -3.06818,-4.50689 -67.5734035,-0.0103 -67.5734025,-0.0103 z"
       id="path159496"
       sodipodi:nodetypes="ccssssssssssscccccccc" /></g></svg>
