<?xml version="1.0" encoding="UTF-8" standalone="no"?>
<!-- Created with Inkscape (http://www.inkscape.org/) -->

<svg
   width="210mm"
   height="297mm"
   viewBox="0 0 210 297"
   version="1.1"
   id="svg159869"
   xml:space="preserve"
   inkscape:version="1.2.2 (732a01da63, 2022-12-09)"
   sodipodi:docname="Freyr_svg.svg"
   xmlns:inkscape="http://www.inkscape.org/namespaces/inkscape"
   xmlns:sodipodi="http://sodipodi.sourceforge.net/DTD/sodipodi-0.dtd"
   xmlns="http://www.w3.org/2000/svg"
   xmlns:svg="http://www.w3.org/2000/svg"><sodipodi:namedview
     id="namedview159871"
     pagecolor="#ffffff"
     bordercolor="#000000"
     borderopacity="0.25"
     inkscape:showpageshadow="2"
     inkscape:pageopacity="0.0"
     inkscape:pagecheckerboard="0"
     inkscape:deskcolor="#d1d1d1"
     inkscape:document-units="mm"
     showgrid="false"
     inkscape:zoom="1.1893044"
     inkscape:cx="399.39312"
     inkscape:cy="506.17823"
     inkscape:window-width="2560"
     inkscape:window-height="1494"
     inkscape:window-x="-11"
     inkscape:window-y="-11"
     inkscape:window-maximized="1"
     inkscape:current-layer="layer1" /><defs
     id="defs159866" /><g
     inkscape:label="레이어 1"
     inkscape:groupmode="layer"
     id="layer1"><path
       style="fill:#000000;stroke-width:1.56271"
       d="m -71.788441,-139.99648 c -3.173544,4.45683 -3.231414,6.08431 -3.209046,90.246419 l 0.02303,85.707721 8.367892,8.180399 c 7.154714,6.994359 9.077185,10.211579 13.26024,22.190617 3.283672,9.403479 4.892353,16.956689 4.892353,22.971078 0,8.876519 0.884096,11.498736 10.626939,31.518846 4.52914,9.30667 13.1691,16.59782 22.956181,19.37242 3.446267,0.97697 6.9340022,2.36099 7.7505182,3.07559 2.0928969,1.83166 16.1026289,1.62205 17.2647578,-0.2581 0.529441,-0.85665 4.332306,-3.0072 8.450886,-4.77891 9.40543,-4.04617 19.51376,-14.40936 22.01845,-22.57364 1.05475,-3.43794 2.78411,-7.65728 3.84311,-9.37625 1.05894,-1.71897 2.36016,-8.751187 2.89155,-15.627066 0.53156,-6.87593 2.15704,-16.017758 3.6127,-20.315238 2.72824,-8.054599 10.87905,-21.382048 13.77527,-22.524027 0.90124,-0.35556 3.57927,-2.58673 5.95112,-4.95858 L 75,38.54232 v -88.952351 c 0,-84.190989 -0.15297,-89.090849 -2.85782,-91.538599 -2.56824,-2.32425 -9.84002,-2.58637 -71.77815086,-2.58637 H -68.556608 Z"
       id="path160365" /></g></svg>
