<?xml version="1.0" encoding="UTF-8" standalone="no"?>
<!-- Created with Inkscape (http://www.inkscape.org/) -->

<svg
   width="210mm"
   height="297mm"
   viewBox="0 0 210 297"
   version="1.1"
   id="svg161464"
   xml:space="preserve"
   inkscape:version="1.2.2 (732a01da63, 2022-12-09)"
   sodipodi:docname="Frigg_svg.svg"
   xmlns:inkscape="http://www.inkscape.org/namespaces/inkscape"
   xmlns:sodipodi="http://sodipodi.sourceforge.net/DTD/sodipodi-0.dtd"
   xmlns="http://www.w3.org/2000/svg"
   xmlns:svg="http://www.w3.org/2000/svg"><sodipodi:namedview
     id="namedview161466"
     pagecolor="#ffffff"
     bordercolor="#000000"
     borderopacity="0.25"
     inkscape:showpageshadow="2"
     inkscape:pageopacity="0.0"
     inkscape:pagecheckerboard="0"
     inkscape:deskcolor="#d1d1d1"
     inkscape:document-units="mm"
     showgrid="false"
     inkscape:zoom="1.1893044"
     inkscape:cx="316.99202"
     inkscape:cy="464.13685"
     inkscape:window-width="2560"
     inkscape:window-height="1494"
     inkscape:window-x="-11"
     inkscape:window-y="-11"
     inkscape:window-maximized="1"
     inkscape:current-layer="layer1" /><defs
     id="defs161461" /><g
     inkscape:label="레이어 1"
     inkscape:groupmode="layer"
     id="layer1"><path
       style="fill:#000000;stroke-width:1.45429"
       d="M -70.988367,-143.4233 -75,-139.23604 l 0.473032,94.340931 0.473033,94.340997 4.535305,9.608436 c 2.494418,5.284702 5.316836,14.119498 6.272041,19.63296 0.955205,5.513462 4.310844,15.751636 7.456975,22.751466 3.146132,6.99989 5.720238,13.39461 5.720238,14.21052 0,4.37386 8.794674,13.7958 19.45612,20.84379 16.581006,10.96123 16.981424,11.11744 28.4978743,11.11744 10.7024314,0 17.3136107,-2.29304 26.9420887,-9.3446 2.39959,-1.7574 6.514799,-4.06292 9.144919,-5.12337 5.848529,-2.35817 12.648808,-13.00947 11.206698,-17.55312 -0.54811,-1.72701 -0.0727,-4.39733 1.10837,-6.22526 3.40057,-5.26293 14.302448,-32.888343 17.977858,-45.555923 1.885399,-6.498171 5.065739,-15.332967 7.067419,-19.632901 L 74.9714,36.357278 74.9857,-51.1522 75,-138.6616 l -3.765009,-4.47445 -3.76568,-4.47445 H 0.24652496 -66.976733 Z"
       id="path161960"
       sodipodi:nodetypes="ccccsssssssssssscccccccc" /></g></svg>
