<?xml version="1.0" encoding="UTF-8" standalone="no"?>
<!-- Created with Inkscape (http://www.inkscape.org/) -->

<svg
   width="210mm"
   height="297mm"
   viewBox="0 0 210 297"
   version="1.1"
   id="svg162333"
   xml:space="preserve"
   inkscape:version="1.2.2 (732a01da63, 2022-12-09)"
   sodipodi:docname="Heimdall_svg.svg"
   xmlns:inkscape="http://www.inkscape.org/namespaces/inkscape"
   xmlns:sodipodi="http://sodipodi.sourceforge.net/DTD/sodipodi-0.dtd"
   xmlns="http://www.w3.org/2000/svg"
   xmlns:svg="http://www.w3.org/2000/svg"><sodipodi:namedview
     id="namedview162335"
     pagecolor="#ffffff"
     bordercolor="#000000"
     borderopacity="0.25"
     inkscape:showpageshadow="2"
     inkscape:pageopacity="0.0"
     inkscape:pagecheckerboard="0"
     inkscape:deskcolor="#d1d1d1"
     inkscape:document-units="mm"
     showgrid="false"
     inkscape:zoom="2.3786088"
     inkscape:cx="39.098485"
     inkscape:cy="270.32608"
     inkscape:window-width="2560"
     inkscape:window-height="1494"
     inkscape:window-x="-11"
     inkscape:window-y="-11"
     inkscape:window-maximized="1"
     inkscape:current-layer="layer1" /><defs
     id="defs162330" /><g
     inkscape:label="레이어 1"
     inkscape:groupmode="layer"
     id="layer1"><path
       style="fill:#000000;stroke-width:1.5"
       d="M -72.577483,-149.30277 C -74.743362,-145.99718 -75,-135.49792 -75,-50.19475 v 95.410677 l 3.763395,6.421773 c 2.069865,3.531972 5.107364,7.638015 6.750001,9.124566 1.642632,1.486601 3.008076,3.779492 3.034313,5.095393 0.126426,6.340023 6.112433,9.267935 12.241669,5.987623 2.374164,-1.2706 3.390815,-1.18352 4.378417,0.37474 1.984825,3.132292 1.586869,4.279923 -1.484124,4.279923 -4.531715,0 -6.423399,3.765542 -6.505938,12.950718 -0.06508,7.243994 0.472479,9.043255 3.413282,11.424587 3.21865,2.60629 3.337858,3.19833 1.530437,7.6006 -3.769683,9.1816 -6.121447,19.74129 -6.121447,27.48594 0,13.78245 10.204074,21.58657 17.738529,13.56651 2.011419,-2.14107 3.261476,-5.4016 3.261476,-8.5069 0,-2.76939 1.037781,-6.18196 2.306183,-7.58353 2.116205,-2.33835 2.826709,-2.3599 8.625,-0.26135 8.575315,3.1036 35.562328,3.1036 44.137638,0 5.79829,-2.09855 6.5088,-2.077 8.625,0.26135 1.27706,1.41115 2.30619,5.26349 2.30619,8.63269 0,4.81165 0.7734,6.59113 3.69722,8.5069 C 38.73072,151.90986 41.64193,153 43.16661,153 c 3.82511,0 10.28773,-7.30925 11.27322,-12.75002 1.0356,-5.71742 -2.74906,-22.47921 -6.53908,-28.96079 -3.72482,-6.37009 -3.66468,-7.19826 0.91825,-12.644802 3.26723,-3.882852 3.75483,-5.756213 3.375,-12.966538 -0.43313,-8.222404 -0.56188,-8.446225 -5.27864,-9.177905 -3.76927,-0.58473 -4.53451,-1.230581 -3.47256,-2.930682 1.14422,-1.831861 1.94606,-1.868211 5.01251,-0.22677 5.36371,2.870532 8.9151,1.547151 12.29214,-4.580683 1.65141,-2.996561 5.5338,-8.457055 8.62759,-12.134447 L 75,49.941219 74.949,-48.154368 C 74.9036,-141.86862 74.77326,-146.40072 72.08357,-149.62496 L 69.26803,-153 H -0.44291199 -70.154972 l -2.422517,3.69723 z"
       id="path162829"
       sodipodi:nodetypes="sscsssscsssssssssssssssssssscssccsccccs" /></g></svg>
