<?xml version="1.0" encoding="UTF-8" standalone="no"?>
<!-- Created with Inkscape (http://www.inkscape.org/) -->

<svg
   width="210mm"
   height="297mm"
   viewBox="0 0 210 297"
   version="1.1"
   id="svg163202"
   xml:space="preserve"
   inkscape:version="1.2.2 (732a01da63, 2022-12-09)"
   sodipodi:docname="Hel_svg.svg"
   xmlns:inkscape="http://www.inkscape.org/namespaces/inkscape"
   xmlns:sodipodi="http://sodipodi.sourceforge.net/DTD/sodipodi-0.dtd"
   xmlns="http://www.w3.org/2000/svg"
   xmlns:svg="http://www.w3.org/2000/svg"><sodipodi:namedview
     id="namedview163204"
     pagecolor="#ffffff"
     bordercolor="#000000"
     borderopacity="0.25"
     inkscape:showpageshadow="2"
     inkscape:pageopacity="0.0"
     inkscape:pagecheckerboard="0"
     inkscape:deskcolor="#d1d1d1"
     inkscape:document-units="mm"
     showgrid="false"
     inkscape:zoom="1.6819304"
     inkscape:cx="475.04938"
     inkscape:cy="448.88896"
     inkscape:window-width="2560"
     inkscape:window-height="1494"
     inkscape:window-x="-11"
     inkscape:window-y="-11"
     inkscape:window-maximized="1"
     inkscape:current-layer="layer1" /><defs
     id="defs163199" /><g
     inkscape:label="레이어 1"
     inkscape:groupmode="layer"
     id="layer1"><path
       style="fill:#000000;stroke-width:1.64599"
       d="m -71.313895,-154.09186 -3.686105,3.9237 0.518714,119.114438 c 0.432117,99.235229 0.909224,119.8012 2.858719,123.229389 1.287012,2.263289 2.877022,10.579073 3.533347,18.479663 1.130831,13.61235 1.552832,14.81613 8.058252,22.98659 12.34901,15.50965 34.57444,24.37358 61.1147085,24.37358 27.4067395,0 46.4767295,-9.30861 57.6705795,-28.15059 l 6.70639,-11.28852 0.887,-27.602822 c 0.7787,-24.23404 1.3608,-28.682429 4.76959,-36.449075 L 75,45.678236 v -99.122809 c 0,-93.938097 -0.15739,-99.265217 -3.01014,-101.846837 -2.69914,-2.44271 -10.06633,-2.72409 -71.3138495,-2.72409 H -67.62779 Z"
       id="path163698"
       sodipodi:nodetypes="ccsssssscsscssscc" /></g></svg>
