<?xml version="1.0" encoding="UTF-8" standalone="no"?>
<!-- Created with Inkscape (http://www.inkscape.org/) -->

<svg
   width="210mm"
   height="297mm"
   viewBox="0 0 210 297"
   version="1.1"
   id="svg164071"
   xml:space="preserve"
   inkscape:version="1.2.2 (732a01da63, 2022-12-09)"
   sodipodi:docname="Idun_svg.svg"
   xmlns:inkscape="http://www.inkscape.org/namespaces/inkscape"
   xmlns:sodipodi="http://sodipodi.sourceforge.net/DTD/sodipodi-0.dtd"
   xmlns="http://www.w3.org/2000/svg"
   xmlns:svg="http://www.w3.org/2000/svg"><sodipodi:namedview
     id="namedview164073"
     pagecolor="#ffffff"
     bordercolor="#000000"
     borderopacity="0.25"
     inkscape:showpageshadow="2"
     inkscape:pageopacity="0.0"
     inkscape:pagecheckerboard="0"
     inkscape:deskcolor="#d1d1d1"
     inkscape:document-units="mm"
     showgrid="false"
     inkscape:zoom="3.3638608"
     inkscape:cx="253.57767"
     inkscape:cy="762.51668"
     inkscape:window-width="2560"
     inkscape:window-height="1494"
     inkscape:window-x="-11"
     inkscape:window-y="-11"
     inkscape:window-maximized="1"
     inkscape:current-layer="layer1" /><defs
     id="defs164068" /><g
     inkscape:label="레이어 1"
     inkscape:groupmode="layer"
     id="layer1"><path
       style="fill:#000000;stroke-width:1.51515"
       d="m -71.705586,-151.42579 c -3.293767,3.50608 -3.294414,3.522 -3.294414,80.971137 0,50.736094 0.530279,77.7920343 1.536802,78.4141136 0.845245,0.5222595 2.984183,3.7869154 4.753202,7.2544524 2.854712,5.595693 3.116038,7.952061 2.323912,20.954247 -0.832,13.656565 -0.595608,15.420513 3.487616,26.024481 8.588856,22.304915 11.8508,33.790143 12.779356,44.995799 0.837194,10.10313 1.652323,12.40755 7.348558,20.77484 7.682898,11.28549 21.931419,22.31373 33.123774,25.63748 16.93649,5.02957 36.21998,-4.37588 51.29874,-25.02079 6.51844,-8.92465 7.37329,-11.04262 8.31219,-20.59388 C 50.75853,99.905019 53.38287,91.591499 60.85637,73.481278 70.56097,49.964514 70.6764,49.519385 68.91082,42.420693 65.07025,26.97923 65.26364,23.079444 70.30703,14.264504 L 75,6.0620827 V -70.700663 c 0,-68.111367 -0.27579,-77.183597 -2.44699,-80.497267 l -2.44698,-3.73457 H 0.84743 -68.411167 Z"
       id="path164567"
       sodipodi:nodetypes="sssssssssssssscsscccs" /></g></svg>
