<?xml version="1.0" encoding="UTF-8" standalone="no"?>
<!-- Created with Inkscape (http://www.inkscape.org/) -->

<svg
   width="210mm"
   height="297mm"
   viewBox="0 0 210 297"
   version="1.1"
   id="svg5"
   xml:space="preserve"
   inkscape:version="1.2.2 (732a01da63, 2022-12-09)"
   sodipodi:docname="loki_svg_F.svg"
   xmlns:inkscape="http://www.inkscape.org/namespaces/inkscape"
   xmlns:sodipodi="http://sodipodi.sourceforge.net/DTD/sodipodi-0.dtd"
   xmlns="http://www.w3.org/2000/svg"
   xmlns:svg="http://www.w3.org/2000/svg"><sodipodi:namedview
     id="namedview7"
     pagecolor="#ffffff"
     bordercolor="#000000"
     borderopacity="0.25"
     inkscape:showpageshadow="2"
     inkscape:pageopacity="0.0"
     inkscape:pagecheckerboard="0"
     inkscape:deskcolor="#d1d1d1"
     inkscape:document-units="mm"
     showgrid="false"
     inkscape:zoom="0.84096521"
     inkscape:cx="256.84772"
     inkscape:cy="139.12585"
     inkscape:window-width="2560"
     inkscape:window-height="1494"
     inkscape:window-x="-11"
     inkscape:window-y="-11"
     inkscape:window-maximized="1"
     inkscape:current-layer="layer1" /><defs
     id="defs2" /><g
     inkscape:label="레이어 1"
     inkscape:groupmode="layer"
     id="layer1"><path
       style="fill:#000000;stroke-width:1.4423"
       d="M 71.754849,-144.07854 75,-138.99153 v 67.282987 67.2830507 L 61.860121,37.445466 C 47.587249,82.926872 44.669943,90.133739 40.532214,90.133739 c -1.473242,0 -3.489467,0.976911 -4.480388,2.170942 -1.536804,1.851779 -0.423016,2.79619 7.574317,6.422342 7.14619,3.240237 11.305942,6.449427 17.490378,13.493677 4.462884,5.08325 8.114317,10.22003 8.114317,11.41505 0,3.74388 -22.00081,23.61411 -27.325247,24.679 -9.878225,1.97563 -20.270494,0.34452 -20.270494,-3.18159 0,-0.63174 3.08293,-3.15554 6.850903,-5.60842 3.768022,-2.45288 9.024954,-6.71626 11.682076,-9.47419 l 4.83111,-5.01434 -3.145598,-3.14561 c -2.898571,-2.89858 -3.345517,-2.9647 -5.690777,-0.84228 -1.399811,1.26681 -9.49784,5.83601 -17.995539,10.15374 l -15.4503754,7.85044 -6.766738,-3.0911 c -16.8544956,-7.69939 -24.0877956,-11.43035 -26.6427706,-13.74258 -2.627749,-2.3781 -2.887116,-2.32943 -5.628632,1.05627 l -2.874033,3.54922 3.372163,2.77782 c 1.854661,1.52776 7.428618,4.69164 12.386479,7.0308 13.258615,6.25559 11.569181,10.97246 -4.388648,12.25338 -7.489833,0.60121 -10.241542,0.1619 -15.518681,-2.47605 -8.404489,-4.20167 -21.55866,-17.04193 -21.55866,-21.04415 0,-7.01297 10.906533,-17.6143 29.751861,-28.919338 2.63429,-1.580241 2.633146,-1.693951 -0.04906,-4.687432 -1.511181,-1.687359 -3.880925,-3.067935 -5.266182,-3.067935 -4.282569,0 -8.024269,-8.70142 -21.509218,-50.020069 L -75,-1.2374025 V -69.678568 -138.11972 l 4.687445,-5.46189 4.687484,-5.46189 67.0667157,-0.061 67.0667493,-0.061 3.245151,5.08701 z"
       id="path302"
       sodipodi:nodetypes="ccccsssscssscscsssccsccccscsscscccccccccc" /></g></svg>
