<?xml version="1.0" encoding="UTF-8" standalone="no"?>
<!-- Created with Inkscape (http://www.inkscape.org/) -->

<svg
   width="210mm"
   height="297mm"
   viewBox="0 0 210 297"
   version="1.1"
   id="svg165666"
   xml:space="preserve"
   inkscape:version="1.2.2 (732a01da63, 2022-12-09)"
   sodipodi:docname="Mimir_svg.svg"
   xmlns:inkscape="http://www.inkscape.org/namespaces/inkscape"
   xmlns:sodipodi="http://sodipodi.sourceforge.net/DTD/sodipodi-0.dtd"
   xmlns="http://www.w3.org/2000/svg"
   xmlns:svg="http://www.w3.org/2000/svg"><sodipodi:namedview
     id="namedview165668"
     pagecolor="#ffffff"
     bordercolor="#000000"
     borderopacity="0.25"
     inkscape:showpageshadow="2"
     inkscape:pageopacity="0.0"
     inkscape:pagecheckerboard="0"
     inkscape:deskcolor="#d1d1d1"
     inkscape:document-units="mm"
     showgrid="false"
     inkscape:zoom="3.3638608"
     inkscape:cx="286.27819"
     inkscape:cy="508.34446"
     inkscape:window-width="2560"
     inkscape:window-height="1494"
     inkscape:window-x="-11"
     inkscape:window-y="-11"
     inkscape:window-maximized="1"
     inkscape:current-layer="layer1" /><defs
     id="defs165663" /><g
     inkscape:label="레이어 1"
     inkscape:groupmode="layer"
     id="layer1"><path
       style="fill:#000000;stroke-width:1.48515"
       d="M -71.658412,-150.67528 -75,-146.43842 l 0.01347,82.190822 0.01347,82.1908 11.834932,12.825774 c 6.509213,7.054221 13.43846,13.228304 15.398324,13.720183 6.698237,1.681138 9.000453,7.634221 8.663326,22.401482 -0.318996,13.972093 -0.688696,15.044942 -5.478036,15.895951 -4.370785,0.776639 -4.920308,10.088638 -0.814616,13.804203 4.49415,4.067125 4.079837,11.832035 -0.812017,15.218615 -8.055735,5.57695 -8.80823,7.00662 -10.801953,20.52304 -2.630507,17.83345 -2.07239,22.11274 2.960135,22.69623 3.334101,0.38675 5.332785,-1.38561 13.818242,-12.25244 11.349151,-14.5342 12.390466,-14.88401 24.476609,-8.2221 6.6480946,3.66449 9.7373045,4.42855 17.9045445,4.42855 8.1961495,0 10.7237995,-0.62974 14.9027495,-3.71287 5.61287,-4.14105 7.22658,-4.3703 15.19136,-2.15832 4.35703,1.21009 6.99748,3.58345 12.38285,11.13033 3.76472,5.2758 7.6551,9.59232 8.64528,9.59232 3.74883,0 5.36372,-3.80342 5.32838,-12.5495 -0.0581,-14.39656 -2.32485,-21.72476 -8.29162,-26.80692 -5.19416,-4.42406 -5.2189,-4.50247 -3.51228,-11.13857 3.56264,-13.853216 3.50057,-15.671704 -0.64627,-18.93357 -3.49215,-2.746967 -3.85017,-4.000885 -3.85017,-13.485433 0,-5.751293 -0.6663,-12.209455 -1.48068,-14.351383 -1.24892,-3.284926 -0.84212,-4.694844 2.59901,-9.007539 2.33532,-2.926806 5.42147,-5.113024 7.2178,-5.113084 1.98269,0 7.04069,-4.134364 13.73763,-11.228946 L 75,19.990369 v -84.232687 c 0,-73.833482 -0.28543,-84.640172 -2.31194,-87.533422 l -2.31194,-3.30076 -69.3465095,0.082 -69.3465125,0.082 z"
       id="path166162"
       sodipodi:nodetypes="ccccsssssssssssssssssssssssscsscccc" /></g></svg>
