<?xml version="1.0" encoding="UTF-8" standalone="no"?>
<!-- Created with Inkscape (http://www.inkscape.org/) -->

<svg
   width="210mm"
   height="297mm"
   viewBox="0 0 210 297"
   version="1.1"
   id="svg166535"
   xml:space="preserve"
   inkscape:version="1.2.2 (732a01da63, 2022-12-09)"
   sodipodi:docname="Odin_svg.svg"
   xmlns:inkscape="http://www.inkscape.org/namespaces/inkscape"
   xmlns:sodipodi="http://sodipodi.sourceforge.net/DTD/sodipodi-0.dtd"
   xmlns="http://www.w3.org/2000/svg"
   xmlns:svg="http://www.w3.org/2000/svg"><sodipodi:namedview
     id="namedview166537"
     pagecolor="#ffffff"
     bordercolor="#000000"
     borderopacity="0.25"
     inkscape:showpageshadow="2"
     inkscape:pageopacity="0.0"
     inkscape:pagecheckerboard="0"
     inkscape:deskcolor="#d1d1d1"
     inkscape:document-units="mm"
     showgrid="false"
     inkscape:zoom="2.3786088"
     inkscape:cx="236.69298"
     inkscape:cy="433.44664"
     inkscape:window-width="2560"
     inkscape:window-height="1494"
     inkscape:window-x="-11"
     inkscape:window-y="-11"
     inkscape:window-maximized="1"
     inkscape:current-layer="layer1" /><defs
     id="defs166532" /><g
     inkscape:label="레이어 1"
     inkscape:groupmode="layer"
     id="layer1"><path
       style="fill:#000000;stroke-width:1.44073"
       d="m -69.014643,-152.96071 -4.309149,3.96199 -0.766794,49.705264 c -0.421737,27.337838 -0.609126,54.891855 -0.416401,61.231085 0.192709,6.339189 0.160582,23.901097 -0.07133,39.02641591 L -75,28.464582 l 5.484726,4.17065 c 3.0166,2.29388 7.237279,5.956059 9.379286,8.138199 2.354617,2.39881 4.775745,3.62945 6.12311,3.11242 -1.797761,-17.945808 -0.371804,-3.43663 -1.430825,21.165378 -1.148309,27.245427 -1.313921,27.956427 -7.561466,32.464197 l -5.347564,3.858364 -0.336192,18.62548 c -2.371433,24.67439 -4.336261,12.7546 -4.535907,22.93396 -0.309782,17.35255 3.875007,16.37615 20.971156,-4.89291 l 7.838434,-9.75169 8.201498,7.31683 c 4.510826,4.02423 14.051908,10.46687 21.202412,14.31691 l 13.0008999,7.00013 6.4489802,-3.24365 c 3.5469301,-1.78404 8.1178299,-4.17234 10.1575599,-5.30736 5.556791,-3.09205 20.072691,-17.35853 21.845461,-21.4701 1.42203,-3.2981 1.60892,-3.36127 2.21609,-0.749 0.36473,1.569 5.20333,8.53853 10.7525,15.48786 10.596271,13.26978 15.185291,15.73464 18.335571,9.84829 1.90867,-3.56639 1.94708,-2.95385 1.33553,-10.97868 -2.28228,-12.29387 -6.69467,-26.85315 -7.974,-34.77353 0.58822,-3.15799 0.4286,-6.014585 -5.557111,-11.018044 -3.56581,-2.98064 -6.48329,-6.359549 -6.48329,-7.508719 0,-1.14917 -0.64834,-2.08941 -1.44073,-2.08941 -2.21668,0 -1.88176,-36.368567 0.36015,-39.112116 0.99051,-1.21212 5.84268,-5.31357 10.782611,-9.11432 4.93992,-3.800759 10.61281,-9.693749 12.60639,-13.095528 L 75,17.613053 v -82.625112 c 0,-75.248341 -0.21765,-82.943181 -2.43778,-86.187371 -1.34077,-1.95921 -3.12367,-4.03855 -3.96201,-4.62071 -0.83832,-0.58215 -31.175071,-1.06842 -67.414982,-1.08056 l -65.890747,-0.0218 z"
       id="path167031"
       sodipodi:nodetypes="ccssscssccscccscsscssssssccsssssscsssccc" /></g></svg>
