<?xml version="1.0" encoding="UTF-8" standalone="no"?>
<!-- Created with Inkscape (http://www.inkscape.org/) -->

<svg
   width="210mm"
   height="297mm"
   viewBox="0 0 210 297"
   version="1.1"
   id="svg168916"
   xml:space="preserve"
   inkscape:version="1.2.2 (732a01da63, 2022-12-09)"
   sodipodi:docname="Skadi_svg.svg"
   xmlns:inkscape="http://www.inkscape.org/namespaces/inkscape"
   xmlns:sodipodi="http://sodipodi.sourceforge.net/DTD/sodipodi-0.dtd"
   xmlns="http://www.w3.org/2000/svg"
   xmlns:svg="http://www.w3.org/2000/svg"><sodipodi:namedview
     id="namedview168918"
     pagecolor="#ffffff"
     bordercolor="#000000"
     borderopacity="0.25"
     inkscape:showpageshadow="2"
     inkscape:pageopacity="0.0"
     inkscape:pagecheckerboard="0"
     inkscape:deskcolor="#d1d1d1"
     inkscape:document-units="mm"
     showgrid="false"
     inkscape:zoom="1.1893044"
     inkscape:cx="571.76279"
     inkscape:cy="545.69713"
     inkscape:window-width="2560"
     inkscape:window-height="1494"
     inkscape:window-x="-11"
     inkscape:window-y="-11"
     inkscape:window-maximized="1"
     inkscape:current-layer="layer1" /><defs
     id="defs168913" /><g
     inkscape:label="레이어 1"
     inkscape:groupmode="layer"
     id="layer1"><path
       style="fill:#000000;stroke-width:1.48451"
       d="m -71.08,-153.68212 -3.92,5.13939 0.40341,93.209371 0.40341,93.209379 6.14438,9.649302 c 5.99755,9.418812 6.18108,10.094452 7.6842,28.286896 1.65601,20.044214 4.66062,29.389692 13.46909,41.894422 3.32779,4.72413 4.66219,8.65092 5.41021,15.9202 1.23942,12.04525 8.37875,25.12816 13.74868,25.19453 1.87315,0.0224 7.79607,-2.96399 13.16202,-6.63818 8.03031,-5.49847 10.94599,-6.68026 16.48116,-6.68026 5.92253,0 7.57697,0.79706 13.86667,6.68026 8.01635,7.49842 9.73666,7.92737 15.04526,3.75168 4.72206,-3.71443 8.22428,-11.076 10.10225,-21.23481 0.80997,-4.38165 5.13372,-15.26705 9.60823,-24.18972 7.66658,-15.287918 8.13569,-16.857748 8.13844,-27.235211 0.003,-11.578112 2.52388,-29.517396 4.50195,-32.038526 0.64058,-0.81653 3.56456,-6.273601 6.49769,-12.126953 L 75,28.467248 V -61.51808 c 0,-80.33491 -0.25697,-90.37774 -2.39753,-93.64437 L 70.205,-158.8215 H 1.52228 -67.1605 Z"
       id="path169412" /></g></svg>
