<?xml version="1.0" encoding="UTF-8" standalone="no"?>
<!-- Created with Inkscape (http://www.inkscape.org/) -->

<svg
   width="210mm"
   height="297mm"
   viewBox="0 0 210 297"
   version="1.1"
   id="svg169785"
   xml:space="preserve"
   inkscape:version="1.2.2 (732a01da63, 2022-12-09)"
   sodipodi:docname="Skuld_svg.svg"
   xmlns:inkscape="http://www.inkscape.org/namespaces/inkscape"
   xmlns:sodipodi="http://sodipodi.sourceforge.net/DTD/sodipodi-0.dtd"
   xmlns="http://www.w3.org/2000/svg"
   xmlns:svg="http://www.w3.org/2000/svg"><sodipodi:namedview
     id="namedview169787"
     pagecolor="#ffffff"
     bordercolor="#000000"
     borderopacity="0.25"
     inkscape:showpageshadow="2"
     inkscape:pageopacity="0.0"
     inkscape:pagecheckerboard="0"
     inkscape:deskcolor="#d1d1d1"
     inkscape:document-units="mm"
     showgrid="false"
     inkscape:zoom="1.1893044"
     inkscape:cx="367.44167"
     inkscape:cy="561.67286"
     inkscape:window-width="2560"
     inkscape:window-height="1494"
     inkscape:window-x="-11"
     inkscape:window-y="-11"
     inkscape:window-maximized="1"
     inkscape:current-layer="layer1" /><defs
     id="defs169782" /><g
     inkscape:label="레이어 1"
     inkscape:groupmode="layer"
     id="layer1"><path
       style="fill:#000000;stroke-width:1.37615"
       d="M -70.601607,-142.69636 -75,-138.15839 v 76.685177 76.685174 l 5.333483,10.634601 c 5.110009,10.188951 5.361226,11.32651 5.995521,27.148347 0.528066,13.172039 1.367548,18.404374 4.148414,25.856838 l 3.486355,9.343142 -2.577552,9.922921 c -3.706469,14.26876 -3.442665,18.26165 1.535338,23.23971 3.950821,3.95076 4.325254,4.05187 7.442637,2.00932 3.927883,-2.57365 5.454587,-1.26077 6.982071,6.00413 0.556995,2.64912 1.88517,6.5238 2.951517,8.61051 1.681648,3.29083 2.70909,3.7707 7.747114,3.6182 3.194568,-0.0967 9.082415,1.13755 13.084051,2.74274 8.669651,3.47762 22.017811,3.87103 30.446181,0.89731 5.54431,-1.95612 13.59964,-2.01 18.16998,-0.12171 3.12664,1.29197 9.4751,-6.56352 9.4751,-11.72435 0,-2.21253 0.55299,-4.0228 1.22889,-4.0228 2.10336,0 3.02787,-4.37991 1.35106,-6.40036 -0.87781,-1.05766 -1.24106,-2.27802 -0.80718,-2.71185 0.43378,-0.43378 1.59994,0.51024 2.59134,2.09743 2.44705,3.91837 6.40926,3.6272 11.04222,-0.81149 4.76096,-4.56128 5.11568,-11.48691 1.17495,-22.94074 L 53.11674,90.800417 59.36617,71.905253 C 64.99318,54.891987 65.52651,52.17842 64.72131,44.659236 63.89453,36.938963 64.24905,35.335754 69.41351,23.428014 L 75,10.547645 v -74.894246 c 0,-73.510379 -0.0525,-74.968059 -2.84598,-78.891049 l -2.84599,-3.99685 H 1.55239 -66.203209 Z"
       id="path170281" /></g></svg>
