<?xml version="1.0" encoding="UTF-8" standalone="no"?>
<!-- Created with Inkscape (http://www.inkscape.org/) -->

<svg
   width="210mm"
   height="297mm"
   viewBox="0 0 210 297"
   version="1.1"
   id="svg170654"
   xml:space="preserve"
   inkscape:version="1.2.2 (732a01da63, 2022-12-09)"
   sodipodi:docname="Thor_svg.svg"
   xmlns:inkscape="http://www.inkscape.org/namespaces/inkscape"
   xmlns:sodipodi="http://sodipodi.sourceforge.net/DTD/sodipodi-0.dtd"
   xmlns="http://www.w3.org/2000/svg"
   xmlns:svg="http://www.w3.org/2000/svg"><sodipodi:namedview
     id="namedview170656"
     pagecolor="#ffffff"
     bordercolor="#000000"
     borderopacity="0.25"
     inkscape:showpageshadow="2"
     inkscape:pageopacity="0.0"
     inkscape:pagecheckerboard="0"
     inkscape:deskcolor="#d1d1d1"
     inkscape:document-units="mm"
     showgrid="false"
     inkscape:zoom="2.3786088"
     inkscape:cx="353.56802"
     inkscape:cy="391.40526"
     inkscape:window-width="2560"
     inkscape:window-height="1494"
     inkscape:window-x="-11"
     inkscape:window-y="-11"
     inkscape:window-maximized="1"
     inkscape:current-layer="layer1" /><defs
     id="defs170651" /><g
     inkscape:label="레이어 1"
     inkscape:groupmode="layer"
     id="layer1"><path
       style="fill:#000000;stroke-width:1.59731"
       d="m -74.115782,-153.41352 -4.957403,5.64613 v 90.170689 90.17071 l 7.294442,13.199664 c 4.011947,7.259839 8.594055,14.637336 10.182466,16.394379 3.403832,3.765206 7.867728,16.818892 10.462272,30.59469 l 1.851314,9.829578 -7.893229,7.7408 c -9.142774,8.96623 -13.132033,13.20293 -24.789788,26.32728 -6.52574,7.34668 -8.368542,10.54267 -7.986557,13.85106 l 0.496549,4.3007 17.608978,0.44853 17.608975,0.44857 5.466045,-5.63955 c 7.682573,-7.92645 13.05808,-7.64584 22.013365,1.14905 l 6.912396,6.78858 20.67988806,0.52583 20.67988994,0.52583 6.656686,-7.3144 c 8.656103,-9.51139 13.088111,-9.69497 21.010067,-0.87043 l 5.784864,6.44398 17.23884,-0.45398 17.23884,-0.454 0.476448,-5.66549 c 0.386316,-4.59407 -0.524136,-6.70861 -4.81434,-11.18119 -2.909916,-3.03362 -8.03736,-9.28933 -11.394312,-13.90153 -3.35694,-4.61227 -7.02276,-8.38593 -8.146236,-8.38593 -1.123476,0 -4.064952,-2.9181 -6.536604,-6.48468 -2.471652,-3.56659 -5.742036,-7.15274 -7.267536,-7.96913 -2.559336,-1.36977 -2.59854,-2.25709 -0.5073,-11.485078 3.46572,-15.293273 7.017936,-23.593489 12.061656,-28.183781 2.639592,-2.402282 6.950868,-9.952077 10.1397,-17.756404 l 5.547588,-13.57716 0.02892,-90.059626 c 0.02893,-88.473871 -0.02892,-90.154291 -3.295668,-95.439401 L 72.41054,-159.059 H 1.6260031 -69.158595 Z"
       id="path171150"
       sodipodi:nodetypes="ccccssscssscccsscccsscccsssssssssccccccc" /></g></svg>
