<?xml version="1.0" encoding="UTF-8" standalone="no"?>
<!-- Created with Inkscape (http://www.inkscape.org/) -->

<svg
   width="210mm"
   height="297mm"
   viewBox="0 0 210 297"
   version="1.1"
   id="svg171523"
   xml:space="preserve"
   inkscape:version="1.2.2 (732a01da63, 2022-12-09)"
   sodipodi:docname="Thrymr_svg.svg"
   xmlns:inkscape="http://www.inkscape.org/namespaces/inkscape"
   xmlns:sodipodi="http://sodipodi.sourceforge.net/DTD/sodipodi-0.dtd"
   xmlns="http://www.w3.org/2000/svg"
   xmlns:svg="http://www.w3.org/2000/svg"><sodipodi:namedview
     id="namedview171525"
     pagecolor="#ffffff"
     bordercolor="#000000"
     borderopacity="0.25"
     inkscape:showpageshadow="2"
     inkscape:pageopacity="0.0"
     inkscape:pagecheckerboard="0"
     inkscape:deskcolor="#d1d1d1"
     inkscape:document-units="mm"
     showgrid="false"
     inkscape:zoom="3.3638608"
     inkscape:cx="136.15308"
     inkscape:cy="491.39964"
     inkscape:window-width="2560"
     inkscape:window-height="1494"
     inkscape:window-x="-11"
     inkscape:window-y="-11"
     inkscape:window-maximized="1"
     inkscape:current-layer="layer1" /><defs
     id="defs171520" /><g
     inkscape:label="레이어 1"
     inkscape:groupmode="layer"
     id="layer1"><path
       style="fill:#000000;stroke-width:1.53061"
       d="M -70.887103,-151.41807 -75,-147.12508 V -43.620913 59.883326 l 3.760302,2.789693 c 2.068192,1.534301 6.159857,4.511604 9.092616,6.616187 5.48851,3.938654 13.167505,17.269658 13.167505,22.859303 0,1.734742 -2.462497,6.581697 -5.472254,10.771021 -5.0857,7.07893 -5.407692,8.18733 -4.558224,15.69233 l 0.913971,8.07539 -6.921337,5.02299 c -6.860535,4.97887 -6.921336,5.10243 -6.921336,14.06785 0,4.97463 0.598458,9.41467 1.329912,9.86677 1.47928,0.91426 28.362361,-7.8787 37.300288,-12.20022 4.43888,-2.14623 5.93771,-3.91649 6.68398,-7.89438 1.07843,-4.22327 1.00315,-5.10357 5.75757,-2.31145 2.637549,1.54899 8.511449,4.02689 13.0531292,5.50645 8.10384979,2.64004 8.42496978,2.62749 17.2518895,-0.67354 4.9469103,-1.85004 9.3647993,-3.96302 9.8174693,-4.69552 1.76622,-2.85778 5.23432,-1.23087 5.23432,2.4554 0,4.75248 4.08536,6.95344 27.52805,14.83064 20.049389,6.73698 21.480539,6.36836 21.419739,-5.51756 -0.0289,-5.91527 -0.47437,-6.49458 -9.27456,-12.1062 l -9.242849,-5.89358 1.02111,-8.17269 c 0.921659,-7.37675 0.542629,-9.00921 -3.89284,-16.76146 l -4.914,-8.588749 3.41656,-9.13578 c 3.06807,-8.203998 10.066629,-16.727607 13.734659,-16.727607 0.71266,0 3.41494,-1.783172 6.00505,-3.962604 L 75,59.833396 V -43.905823 C 75,-146.53837 74.9653,-147.68813 71.82768,-151.67805 L 68.65537,-155.711 H 0.94055197 -66.774206 Z"
       id="path172019"
       sodipodi:nodetypes="ccccssssscssssccssssscccsscssscsccccc" /></g></svg>
