<?xml version="1.0" encoding="UTF-8" standalone="no"?>
<!-- Created with Inkscape (http://www.inkscape.org/) -->

<svg
   width="210mm"
   height="297mm"
   viewBox="0 0 210 297"
   version="1.1"
   id="svg173118"
   xml:space="preserve"
   inkscape:version="1.2.2 (732a01da63, 2022-12-09)"
   sodipodi:docname="Tyr_svg.svg"
   xmlns:inkscape="http://www.inkscape.org/namespaces/inkscape"
   xmlns:sodipodi="http://sodipodi.sourceforge.net/DTD/sodipodi-0.dtd"
   xmlns="http://www.w3.org/2000/svg"
   xmlns:svg="http://www.w3.org/2000/svg"><sodipodi:namedview
     id="namedview173120"
     pagecolor="#ffffff"
     bordercolor="#000000"
     borderopacity="0.25"
     inkscape:showpageshadow="2"
     inkscape:pageopacity="0.0"
     inkscape:pagecheckerboard="0"
     inkscape:deskcolor="#d1d1d1"
     inkscape:document-units="mm"
     showgrid="false"
     inkscape:zoom="1.6819304"
     inkscape:cx="303.22301"
     inkscape:cy="407.27012"
     inkscape:window-width="2560"
     inkscape:window-height="1494"
     inkscape:window-x="-11"
     inkscape:window-y="-11"
     inkscape:window-maximized="1"
     inkscape:current-layer="layer1" /><defs
     id="defs173115" /><g
     inkscape:label="레이어 1"
     inkscape:groupmode="layer"
     id="layer1"><path
       style="fill:#000000;stroke-width:1.48515"
       d="M -71.009259,-149.54758 -75,-145.38211 v 68.840956 68.8410197 l 5.9407,7.70018879992 5.940644,7.70013880008 -0.924938,17.6846037 -0.924939,17.684555 5.009083,7.010899 c 2.754944,3.855955 6.957077,9.731596 9.338016,13.056891 3.887513,5.429382 5.173266,9.498876 7.736465,24.486695 0.563506,3.294985 -0.378889,6.19614 -3.617352,11.138593 -3.395745,5.18224 -4.607908,9.11819 -5.39712,17.5253 -0.927633,9.88074 -0.690813,11.39512 2.670353,17.07923 2.028544,3.43037 6.364944,8.82867 9.636412,11.99612 4.826262,4.67274 6.66654,5.57869 9.756647,4.80313 2.094667,-0.52595 4.854491,-2.55225 6.132891,-4.50339 l 2.32447,-3.54751 9.92325,5.79884 c 5.4578596,3.18934 11.3339995,5.79885 13.0581995,5.79885 1.7241999,0 7.2710198,-2.67328 12.3261895,-5.94064 5.05522,-3.26731 9.72055,-5.94058 10.36742,-5.94058 0.64691,0 2.74579,1.67081 4.66426,3.71288 1.91841,2.04207 4.06691,3.71289 4.77445,3.71289 2.90252,0 10.45695,-7.01516 14.73682,-13.68478 4.416669,-6.88275 4.547739,-7.57362 3.984739,-20.99963 -0.52708,-12.56282 -0.97293,-14.34719 -4.692449,-18.767555 -2.60933,-3.101056 -3.74454,-5.757932 -3.10874,-7.27584 0.55065,-1.315108 1.33852,-5.732671 1.75047,-9.816805 0.62839,-6.230111 2.29584,-9.516057 10.356019,-20.408011 L 66.36902,45.322698 66.17143,23.36569 65.97385,1.4086224 70.48689,-2.9151412 75,-7.2389049 V -77.175213 c 0,-60.894127 -0.29862,-70.363027 -2.31196,-73.237027 L 70.37609,-153.713 H 1.6786215 -67.018856 Z"
       id="path173674"
       sodipodi:nodetypes="ccccccccssssssssscssssssscsssscccccsccccc" /></g></svg>
