<?xml version="1.0" encoding="UTF-8" standalone="no"?>
<!-- Created with Inkscape (http://www.inkscape.org/) -->

<svg
   width="210mm"
   height="297mm"
   viewBox="0 0 210 297"
   version="1.1"
   id="svg174047"
   xml:space="preserve"
   inkscape:version="1.2.2 (732a01da63, 2022-12-09)"
   sodipodi:docname="Ullr_svg.svg"
   xmlns:inkscape="http://www.inkscape.org/namespaces/inkscape"
   xmlns:sodipodi="http://sodipodi.sourceforge.net/DTD/sodipodi-0.dtd"
   xmlns="http://www.w3.org/2000/svg"
   xmlns:svg="http://www.w3.org/2000/svg"><sodipodi:namedview
     id="namedview174049"
     pagecolor="#ffffff"
     bordercolor="#000000"
     borderopacity="0.25"
     inkscape:showpageshadow="2"
     inkscape:pageopacity="0.0"
     inkscape:pagecheckerboard="0"
     inkscape:deskcolor="#d1d1d1"
     inkscape:document-units="mm"
     showgrid="false"
     inkscape:zoom="2.3786088"
     inkscape:cx="290.08553"
     inkscape:cy="575.1261"
     inkscape:window-width="2560"
     inkscape:window-height="1494"
     inkscape:window-x="-11"
     inkscape:window-y="-11"
     inkscape:window-maximized="1"
     inkscape:current-layer="layer1" /><defs
     id="defs174044" /><g
     inkscape:label="레이어 1"
     inkscape:groupmode="layer"
     id="layer1"><path
       style="fill:#000000;stroke-width:1.5004"
       d="M -72.664318,-155.00465 C -74.717214,-152.0737 -75,-140.42672 -75,-58.804962 v 92.865095 l 5.251408,7.153832 c 4.114411,5.604965 5.251404,8.577432 5.251404,13.728956 0,5.973794 10.498438,41.196528 17.285417,57.993279 2.482613,6.14415 2.480623,6.69172 -0.0414,11.37472 -2.533151,4.70377 -2.532669,5.27702 0.01077,13.0504 1.463178,4.47176 4.320195,11 6.348865,14.50716 3.112339,5.38063 4.427915,6.37524 8.42223,6.36747 2.603554,-0.005 6.66766,-1.01786 9.031344,-2.25063 5.353404,-2.79197 7.535333,-2.7795 15.7762336,0.0902 5.9297223,2.06503 7.63360837,2.05147 17.4781729,-0.13893 9.9516905,-2.214 11.3093105,-2.21922 15.4861905,-0.0596 8.696871,4.49734 11.507961,3.34849 18.949471,-7.74416 3.730881,-5.56142 6.783421,-11.0723 6.783421,-12.24644 0,-1.17409 -1.08519,-5.57736 -2.41152,-9.78498 l -2.411531,-7.65019 9.283931,-27.484066 c 5.10616,-15.116264 9.65433,-31.313217 10.10705,-35.993273 0.4764,-4.924985 1.926601,-9.77318 3.442901,-11.509978 5.99476,-6.866603 5.99695,-6.904493 5.94788,-103.053884 -0.0386,-75.368209 -0.43422,-94.007749 -2.04091,-96.124319 -1.84863,-2.43527 -7.116751,-2.6257 -72.63669702,-2.6257 H -70.328643 Z"
       id="path174543"
       sodipodi:nodetypes="sscsssssssssssssscsssssscs" /></g></svg>
