<?xml version="1.0" encoding="UTF-8" standalone="no"?>
<!-- Created with Inkscape (http://www.inkscape.org/) -->

<svg
   width="210mm"
   height="297mm"
   viewBox="0 0 210 297"
   version="1.1"
   id="svg174916"
   xml:space="preserve"
   inkscape:version="1.2.2 (732a01da63, 2022-12-09)"
   sodipodi:docname="Var_svg.svg"
   xmlns:inkscape="http://www.inkscape.org/namespaces/inkscape"
   xmlns:sodipodi="http://sodipodi.sourceforge.net/DTD/sodipodi-0.dtd"
   xmlns="http://www.w3.org/2000/svg"
   xmlns:svg="http://www.w3.org/2000/svg"><sodipodi:namedview
     id="namedview174918"
     pagecolor="#ffffff"
     bordercolor="#000000"
     borderopacity="0.25"
     inkscape:showpageshadow="2"
     inkscape:pageopacity="0.0"
     inkscape:pagecheckerboard="0"
     inkscape:deskcolor="#d1d1d1"
     inkscape:document-units="mm"
     showgrid="false"
     inkscape:zoom="2.3786088"
     inkscape:cx="330.86567"
     inkscape:cy="438.49161"
     inkscape:window-width="2560"
     inkscape:window-height="1494"
     inkscape:window-x="-11"
     inkscape:window-y="-11"
     inkscape:window-maximized="1"
     inkscape:current-layer="layer1" /><defs
     id="defs174913" /><g
     inkscape:label="레이어 1"
     inkscape:groupmode="layer"
     id="layer1"><path
       style="fill:#000000;stroke-width:1.42857"
       d="M -71.161302,-154.56428 -75,-150.55751 l 0.03402,79.207296 0.03402,79.2073456 3.295327,8.0107414 c 1.812427,4.405945 4.850735,10.191629 6.751796,12.857106 3.055025,4.283496 3.545472,6.837363 4.222794,21.989177 l 0.766331,17.142811 8.325902,17.702941 c 6.014735,12.788857 8.644952,20.275712 9.475292,26.971072 1.030772,8.31153 1.787913,9.9222 7.336315,15.60697 3.402805,3.48645 9.15224,8.01598 12.776515,10.06572 4.565462,2.58201 8.187171,6.28248 11.79054,12.04705 4.6124228,7.37875 5.7284228,8.32028 9.86234252,8.32028 4.13922978,0 5.19834968,-0.89774 9.45507948,-8.01452 3.58402,-5.99209 6.28184,-8.67674 10.690879,-10.63864 6.76643,-3.01087 19.380809,-15.4154 23.160619,-22.77532 1.4123,-2.74997 3.31867,-11.4962 4.23636,-19.436105 1.19395,-10.329909 2.812519,-16.831332 5.690439,-22.857065 2.82,-5.904414 4.2689,-11.622828 4.84842,-19.13521 0.65563,-8.499161 1.72386,-12.190997 5.16696,-17.857091 C 65.307191,33.928464 69.0018,26.776691 71.1302,21.964176 L 75,13.214116 V -68.529347 C 75,-148.8801 74.9514,-150.34348 72.04555,-154.4219 l -2.9544,-4.1491 H 0.88415445 -67.32261 Z"
       id="path175412"
       sodipodi:nodetypes="ccccssscsssssssssssssscsccccc" /></g></svg>
