<?xml version="1.0" encoding="UTF-8" standalone="no"?>
<!-- Created with Inkscape (http://www.inkscape.org/) -->

<svg
   width="210mm"
   height="297mm"
   viewBox="0 0 210 297"
   version="1.1"
   id="svg175785"
   xml:space="preserve"
   inkscape:version="1.2.2 (732a01da63, 2022-12-09)"
   sodipodi:docname="Vidar_svg.svg"
   xmlns:inkscape="http://www.inkscape.org/namespaces/inkscape"
   xmlns:sodipodi="http://sodipodi.sourceforge.net/DTD/sodipodi-0.dtd"
   xmlns="http://www.w3.org/2000/svg"
   xmlns:svg="http://www.w3.org/2000/svg"><sodipodi:namedview
     id="namedview175787"
     pagecolor="#ffffff"
     bordercolor="#000000"
     borderopacity="0.25"
     inkscape:showpageshadow="2"
     inkscape:pageopacity="0.0"
     inkscape:pagecheckerboard="0"
     inkscape:deskcolor="#d1d1d1"
     inkscape:document-units="mm"
     showgrid="false"
     inkscape:zoom="0.4204826"
     inkscape:cx="-161.71894"
     inkscape:cy="297.27746"
     inkscape:window-width="2560"
     inkscape:window-height="1494"
     inkscape:window-x="-11"
     inkscape:window-y="-11"
     inkscape:window-maximized="1"
     inkscape:current-layer="layer1" /><defs
     id="defs175782" /><g
     inkscape:label="레이어 1"
     inkscape:groupmode="layer"
     id="layer1"><path
       style="fill:#000000;stroke-width:1.5"
       d="M -71.73854,-150.95586 -75,-147.48417 v 94.087841 c 0,92.124481 0.0647,94.214629 3.09847,100.161355 1.70416,3.340457 4.6654,13.60729 6.58053,22.815223 1.91514,9.207923 4.28133,19.692125 5.25822,23.298182 1.67483,6.182516 1.55614,6.786175 -2.08054,10.582039 -7.42287,7.74781 -4.08284,21.11132 5.27648,21.11132 3.60887,0 3.63769,0.11339 2.75942,10.87498 -0.48813,5.98125 -0.61788,11.39089 -0.28828,12.02142 1.50228,2.87411 12.99485,7.23862 17.93937,6.81282 4.64535,-0.40003 5.80155,-1.35669 8.96773,-7.41984 l 3.634856,-6.96056 12.860714,2.81043 c 7.0734503,1.54573 13.3808603,2.48898 14.0165603,2.09611 0.63569,-0.39289 5.6090699,-1.64779 11.0519197,-2.78873 l 9.89613,-2.07438 4.50028,7.31385 c 5.28751,8.59336 7.94947,9.11 17.64938,3.42547 l 6.63505,-3.88838 -0.5006,-10.73661 c -0.48869,-10.47053 -0.40819,-10.7494 3.24674,-11.25527 6.63754,-0.91877 7.74628,-2.93816 6.64531,-12.10385 -0.55333,-4.60754 -2.00444,-9.51629 -3.22435,-10.90833 -1.76173,-2.010204 -1.88946,-3.553273 -0.62085,-7.49999 0.87852,-2.732938 3.36291,-13.74398 5.52092,-24.469002 2.60543,-12.94835 5.1421,-21.379013 7.55012,-25.092731 L 75,39.136342 74.9546,-55.020568 c -0.0397,-75.916282 -0.4337,-94.665492 -2.04031,-96.781942 -1.84751,-2.43377 -7.07073,-2.62499 -71.6907397,-2.62499 H -68.47707 Z"
       id="path176281"
       sodipodi:nodetypes="ccsssssssssscssscssccssssssccsscc" /></g></svg>
