<?xml version="1.0" encoding="UTF-8" standalone="no"?>
<!-- Created with Inkscape (http://www.inkscape.org/) -->

<svg
   width="58.108368mm"
   height="58.108368mm"
   viewBox="0 0 58.108368 58.108368"
   version="1.1"
   id="svg5"
   xml:space="preserve"
   inkscape:version="1.2.2 (732a01da63, 2022-12-09)"
   sodipodi:docname="ico_logo.svg"
   inkscape:export-filename="ico_logo.png"
   inkscape:export-xdpi="48.654343"
   inkscape:export-ydpi="48.654343"
   xmlns:inkscape="http://www.inkscape.org/namespaces/inkscape"
   xmlns:sodipodi="http://sodipodi.sourceforge.net/DTD/sodipodi-0.dtd"
   xmlns="http://www.w3.org/2000/svg"
   xmlns:svg="http://www.w3.org/2000/svg"><sodipodi:namedview
     id="namedview7"
     pagecolor="#ffffff"
     bordercolor="#000000"
     borderopacity="0.25"
     inkscape:showpageshadow="2"
     inkscape:pageopacity="0.0"
     inkscape:pagecheckerboard="0"
     inkscape:deskcolor="#d1d1d1"
     inkscape:document-units="mm"
     showgrid="false"
     inkscape:zoom="3.3638608"
     inkscape:cx="105.5335"
     inkscape:cy="108.80355"
     inkscape:window-width="2560"
     inkscape:window-height="1494"
     inkscape:window-x="-11"
     inkscape:window-y="-11"
     inkscape:window-maximized="1"
     inkscape:current-layer="layer1" /><defs
     id="defs2" /><g
     inkscape:label="레이어 1"
     inkscape:groupmode="layer"
     id="layer1"
     transform="translate(29.054185,29.054185)"><rect
       style="fill:#000000;stroke:#000000;stroke-width:27.6516;stroke-linejoin:round;stroke-miterlimit:4;stroke-dasharray:none;stroke-opacity:1"
       id="rect452"
       width="30.45677"
       height="30.45677"
       x="-15.228385"
       y="-15.228385" /><path
       id="path1069"
       style="fill:#ffe100;fill-opacity:1;stroke-width:0.264573"
       d="m -13.984686,-23.239067 c -4.874467,0.230228 -9.215532,4.570628 -9.249663,9.488884 -0.157241,4.8432673 3.804329,9.5339812 8.700797,9.8663411 2.370507,0.170596 4.7507807,0.174717 7.1246347,0.300848 0,2.390603 0,4.7812069 0,7.1718109 -3.0719077,0.259209 -6.2255617,-0.08536 -9.2299037,0.7187429 -4.266531,1.471988 -7.248367,6.1239901 -6.493008,10.6267841 0.509327,3.178121 2.658428,6.045287 5.612154,7.437334 4.002121,1.909831 9.1574907,0.495807 11.7756757,-3.042515 1.286172,-1.661927 1.914516,-3.743725 1.934356,-5.833662 0.05862,-2.028591 0.148803,-4.0563122 0.222757,-6.0844531 2.390478,0 4.780957,0 7.171435,0 0.26068,3.0836881 -0.08815,6.2512901 0.726519,9.2655421 1.241226,3.535135 4.736527,6.249142 8.4037823,6.531191 4.813065,0.475837 9.579192,-3.228459 10.354337,-7.994584 C 24.025521,10.501053 20.818438,5.4289189 16.187596,4.1932519 13.993954,3.636326 11.701571,3.827516 9.4611817,3.667481 c -0.684868,-0.02555 -1.36977,-0.05017 -2.054601,-0.07671 0,-2.390603 0,-4.7812079 0,-7.1718099 3.0750503,-0.258825 6.2324193,0.08373 9.2396683,-0.7206979 4.300789,-1.489553 7.297867,-6.2192132 6.462818,-10.7538222 -0.463563,-2.657336 -2.048999,-5.047593 -4.244124,-6.523685 -1.95481,-1.33512 -4.492257,-1.933432 -6.773102,-1.532869 -1.591184,0.243473 -3.3689093,1.004813 -4.6285843,2.03706 -2.364854,1.858766 -3.768986,4.853692 -3.64929,7.864051 -0.102057,1.934191 -0.13762,3.8711033 -0.229418,5.8057782 -2.389827,0 -4.779655,0 -7.169482,0 -0.257535,-3.0546842 0.0814,-6.1911872 -0.709305,-9.1792552 -1.358373,-4.011684 -5.446583,-6.854663 -9.6904477,-6.654588 z m 0.330057,3.693327 c 3.165663,-0.09111 6.2080727,2.634864 6.1631857,5.861482 0.156836,1.919561 0.04902,3.8477593 0.08057,5.7712252 -0.533347,0.733074 -1.482422,0.535554 -2.247913,0.469722 -2.3268727,-0.05129 -4.8623997,0.322437 -6.9784577,-0.8710979 -2.700791,-1.667901 -3.879561,-5.6844463 -1.957309,-8.3543803 1.079093,-1.652156 2.937875,-2.841463 4.939921,-2.876951 z m 27.303015,0 c 3.752288,-0.02039 6.877606,4.164861 5.609032,7.742116 -0.668351,2.4858973 -3.087548,4.4633162 -5.709075,4.3163292 -2.045564,0.125588 -4.0972503,0.06864 -6.1456683,0.08207 0.161345,-2.9237912 -0.415609,-5.9876202 0.680426,-8.7861332 1.014699,-2.057774 3.2947313,-3.352359 5.5652853,-3.354382 z M -3.1748023,-3.7001799 c 2.29282799,0 4.585656,0 6.878485,0 0,2.469379 0,4.9387579 0,7.4081359 -2.46925,0 -4.938499,0 -7.407749,0 0,-2.469378 0,-4.9387569 0,-7.4081359 0.176421,0 0.352842,0 0.529264,0 z M 11.959036,7.4071419 c 2.131391,-0.0073 4.594669,0.243881 6.005704,2.0555779 1.949618,2.1053542 2.142978,5.6849072 0.167596,7.8431012 -1.666249,2.098957 -4.862514,2.983928 -7.245289,1.590303 -2.0454393,-0.973513 -3.5060773,-3.144606 -3.4073613,-5.440669 -0.131793,-2.010963 -0.0411,-4.0286112 -0.0653,-6.0424541 1.514908,0.0023 3.0297583,0.0065 4.5446423,-0.0059 z m -23.273964,0.0039 c 1.303305,0 2.6066107,0 3.9099157,0 -0.128965,2.8295021 0.316345,5.7510511 -0.525935,8.5010201 -1.316112,2.967237 -5.2878367,4.667612 -8.2060227,2.990372 -2.74282,-1.360282 -4.341037,-5.019908 -2.863083,-7.837021 0.95984,-2.1325792 3.191706,-3.7206081 5.576248,-3.5832171 0.701398,-0.05281 1.405775,-0.05244 2.108877,-0.07115 z" /></g></svg>
