<?xml version="1.0" encoding="UTF-8" standalone="no"?>
<!-- Created with Inkscape (http://www.inkscape.org/) -->

<svg
   width="210mm"
   height="297mm"
   viewBox="0 0 210 297"
   version="1.1"
   id="svg5"
   xml:space="preserve"
   inkscape:version="1.2.2 (732a01da63, 2022-12-09)"
   sodipodi:docname="token_svg.svg"
   xmlns:inkscape="http://www.inkscape.org/namespaces/inkscape"
   xmlns:sodipodi="http://sodipodi.sourceforge.net/DTD/sodipodi-0.dtd"
   xmlns="http://www.w3.org/2000/svg"
   xmlns:svg="http://www.w3.org/2000/svg"><sodipodi:namedview
     id="namedview7"
     pagecolor="#ffffff"
     bordercolor="#000000"
     borderopacity="0.25"
     inkscape:showpageshadow="2"
     inkscape:pageopacity="0.0"
     inkscape:pagecheckerboard="0"
     inkscape:deskcolor="#d1d1d1"
     inkscape:document-units="mm"
     showgrid="false"
     inkscape:zoom="1.1893044"
     inkscape:cx="328.7636"
     inkscape:cy="401.07478"
     inkscape:window-width="2560"
     inkscape:window-height="1494"
     inkscape:window-x="-11"
     inkscape:window-y="-11"
     inkscape:window-maximized="1"
     inkscape:current-layer="layer1" /><defs
     id="defs2" /><g
     inkscape:label="레이어 1"
     inkscape:groupmode="layer"
     id="layer1"><path
       style="fill:#000000;stroke-width:0.264582"
       d="m -38.3645,32.940551 v -5.423949 h 2.91041 2.910411 v 2.513545 2.513535 h 2.513536 2.513536 v 2.910404 2.910414 h -5.423947 -5.423946 z m 13.229138,2.513535 v -2.910404 h 5.291655 5.291656 v 2.910404 2.910414 h -5.291656 -5.291655 z m 13.229138,0 v -2.910404 h 5.4239469 5.4239414 v 2.910404 2.910414 h -5.4239414 -5.4239469 z m 13.2291332,0 V 32.543682 H 6.6145679 11.906227 V 35.454086 38.3645 H 6.6145679 1.3229092 Z m 13.2291418,0 v -2.910404 h 5.291659 5.291648 V 35.454086 38.3645 H 19.84371 14.552051 Z m 13.229142,0 v -2.910404 h 2.381245 2.381244 V 30.030147 27.516602 H 35.454086 38.3645 V 32.940551 38.3645 H 33.072841 27.781193 Z M -38.3645,19.843708 v -5.291659 h 2.91041 2.910411 v 5.291659 5.291649 h -2.910411 -2.91041 z m 70.908182,0 v -5.291659 h 2.910404 2.910414 v 5.291659 5.291649 h -2.910414 -2.910404 z m -49.08667,4.003592 c -3.531888,-1.011698 -6.455284,-4.027822 -7.379582,-7.613654 -0.550361,-2.135136 -0.528746,-3.548623 0.0872,-5.702489 0.879025,-3.073794 2.958776,-5.453899 6.01559,-6.8843541 1.565692,-0.7326784 1.979003,-0.8026683 5.522737,-0.935318 L -8.4666519,2.5681052 V 4.9999896e-7 -2.5681042 l -3.8303911,-0.1433797 c -3.543734,-0.1326497 -3.957045,-0.2026496 -5.522737,-0.935328 -3.056814,-1.4304571 -5.136565,-3.8105521 -6.01559,-6.8843461 -0.615426,-2.152035 -0.637505,-3.565292 -0.08909,-5.702488 0.946857,-3.689942 3.993575,-6.735916 7.690806,-7.688924 2.135136,-0.550359 3.548628,-0.528749 5.702491,0.0872 3.0737919,0.879018 5.4538939,2.958774 6.8843528,6.015587 0.7326684,1.565697 0.8026683,1.979006 0.935318,5.522739 l 0.1433797,3.830392 H -7.9999829e-6 2.5680965 l 0.1433797,-3.830392 c 0.1326497,-3.543733 0.2026496,-3.957042 0.935328,-5.522739 1.4304569,-3.056813 3.8105519,-5.136569 6.8843448,-6.015587 2.152036,-0.615429 3.565283,-0.637509 5.702488,-0.0891 3.689942,0.946858 6.735916,3.993572 7.688924,7.690804 0.550359,2.135136 0.528749,3.548633 -0.0872,5.702488 -0.879028,3.073794 -2.958784,5.453899 -6.015597,6.8843561 -1.565687,0.7326784 -1.979006,0.8026683 -5.522738,0.935318 L 8.4666339,-2.5681242 V -1.949996e-5 2.5680852 l 3.8303921,0.1433797 c 3.543732,0.1326497 3.957051,0.2026396 5.522738,0.935318 3.056813,1.4304551 5.136569,3.8105601 6.015597,6.8843541 0.615949,2.153866 0.637559,3.567353 0.0872,5.702489 -0.953008,3.697232 -3.998982,6.743946 -7.688924,7.690804 -2.137205,0.548419 -3.550452,0.526339 -5.702488,-0.0891 C 7.4573561,22.956302 5.0772611,20.876546 3.6468042,17.819733 2.9141258,16.254046 2.8441259,15.840727 2.7114762,12.296994 L 2.5680965,8.466601 H -7.9999829e-6 -2.5681125 l -0.1433797,3.830393 c -0.1326497,3.543733 -0.2026496,3.957052 -0.935318,5.522739 -1.4304589,3.056813 -3.8105609,5.136569 -6.8843528,6.015597 -2.148064,0.614289 -3.896853,0.617759 -6.011831,0.0119 z m 5.110325,-5.831448 c 1.314522,-0.676148 2.3902963,-1.849766 2.7066447,-2.952804 0.1426526,-0.497409 0.2593704,-2.185085 0.2593704,-3.750392 V 8.466641 h -2.8460111 c -1.565305,0 -3.252981,0.1167197 -3.750388,0.2593694 -1.103036,0.3163494 -2.276654,1.3921276 -2.952811,2.7066556 -2.04443,3.974582 2.60861,8.627622 6.583195,6.583186 z m 26.857752,0.0771 C 18.912062,16.331146 19.53339,12.371424 16.739176,9.7181784 15.677298,8.7098805 14.622601,8.466621 11.312658,8.466621 H 8.4666439 l 0.002,2.844265 c 0.002,3.443143 0.2585494,4.469691 1.384997,5.537129 1.7607461,1.668516 3.8220621,2.129075 5.5719681,1.244937 z M 2.6458263,4.9999896e-7 V -2.645824 H 1.9999957e-6 -2.6458323 V 4.9999896e-7 2.645825 H 1.9999957e-6 2.6458263 Z M -8.4666479,-11.312656 c 0,-3.309943 -0.2432515,-4.364641 -1.2515553,-5.426519 -2.6532418,-2.794214 -6.6129668,-2.172895 -8.3747658,1.314087 -0.888882,1.759287 -0.329077,4.108842 1.361481,5.7142486 1.069926,1.0160279 1.845393,1.1951475 5.288284,1.2214475 l 2.9765561,0.0227 z M 15.06305,-8.7260214 c 2.681804,-0.7691284 4.228481,-4.3441906 2.954323,-6.8287556 -1.730656,-3.374723 -5.683667,-3.938872 -8.2991718,-1.184398 -1.0082978,1.061878 -1.2515573,2.116576 -1.2515573,5.426519 v 2.846004 h 2.8460141 c 1.565306,0 3.252983,-0.1167197 3.750392,-0.2593694 z M -38.3645,6.4822751 V 1.0583283 h 2.91041 2.910411 v 5.4239468 5.4239499 h -2.910411 -2.91041 z m 70.908182,0 V 1.0583283 H 35.454086 38.3645 V 6.4822751 11.906225 H 35.454086 32.543682 Z M -38.3645,-6.6145658 v -5.2916592 h 2.91041 2.910411 v 5.2916592 5.291649 h -2.910411 -2.91041 z m 70.908182,0 v -5.2916592 h 2.910404 2.910414 v 5.2916592 5.291649 H 35.454086 32.543682 Z M -38.3645,-19.843708 v -5.291659 h 2.91041 2.910411 v 5.291659 5.291659 h -2.910411 -2.91041 z m 70.908182,0 v -5.291659 h 2.910404 2.910414 v 5.291659 5.291659 H 35.454086 32.543682 Z M -38.3645,-33.072851 V -38.3645 h 5.423946 5.423947 v 2.910404 2.910414 h -2.513536 -2.513536 v 2.381245 2.381245 h -2.910411 -2.91041 z m 70.908182,2.910414 v -2.381245 h -2.381244 -2.381245 v -2.910414 -2.910404 h 5.291648 5.291659 v 5.291649 5.291659 h -2.910414 -2.910404 z m -57.679044,-5.291659 V -38.3645 h 5.291655 5.291656 v 2.910404 2.910414 h -5.291656 -5.291655 z m 13.229138,0 V -38.3645 h 5.4239469 5.4239414 v 2.910404 2.910414 h -5.4239414 -5.4239469 z m 13.2291332,0 V -38.3645 h 5.2916587 5.2916591 v 2.910404 2.910414 H 6.6145679 1.3229092 Z m 13.2291418,0 V -38.3645 h 5.291659 5.291648 v 2.910404 2.910414 H 19.84371 14.552051 Z"
       id="path302" /></g></svg>
